mtllib Cross Walk 3.mtl
o map
v -2.0 -0.625 0.0
v -2.0 0.0 0.0
v -2.5 -0.625 0.0
v -2.5 0.0 0.0
v -3.0 -0.625 0.0
v -3.0 0.0 0.0
v -5.0 -0.625 0.0
v -5.0 0.0 0.0
v -2.0 2.0 0.0
v -2.0 2.625 0.0
v -2.375 2.0 0.0
v -2.375 2.625 0.0
v -3.0 2.625 0.0
v -3.0 3.0 0.0
v -2.375 3.0 0.0
v -5.0 3.0 0.0
v -5.625 3.0 0.0
v -5.625 0.0 0.0
v -6.0 3.0 0.0
v -6.0 3.0 -0.5
v -6.0 -1.0 0.0
v -6.0 -1.0 -0.5
v -2.0 -1.0 0.0
v -2.0 -1.0 -0.5
v -2.0 -1.0 1.5
v -2.0 -0.5 1.5
v -6.0 -1.0 1.5
v -5.5 -0.5 1.5
v -6.0 3.0 1.5
v -5.5 3.0 1.5
v -2.0 2.5 1.5
v -2.0 3.0 1.5
v -2.5 3.0 1.5
v -2.5 2.5 1.5
v -2.5 2.0 0.0
v -3.0 2.0 0.0
v -3.0 2.5 0.0
v -2.0 -1.0 1.0
v -6.0 -1.0 1.0
v -2.0 2.5 1.0
v -2.5 2.5 1.0
v -2.5 2.5 0.0
v -2.0 2.5 0.0
v -5.5 -0.5 1.0
v -5.5 0.0 0.0
v -5.5 3.0 1.0
v -5.5 -0.5 0.0
v -5.5 3.0 0.0
v -2.5 3.0 1.0
v -2.5 3.0 0.0
v -6.0 3.0 1.0
v -5.625 -0.625 0.0
v -2.375 3.0 0.0
v -2.375 4.0 0.0
v -3.0 4.0 0.0
v -3.0 3.0 0.0
v -5.0 3.0 0.0
v -5.0 4.0 0.0
v -5.625 4.0 0.0
v -5.625 3.0 0.0
v -6.0 4.0 -0.5
v -6.0 3.0 -0.5
v -6.0 3.0 0.0
v -6.0 4.0 0.0
v -2.0 4.0 0.0
v -2.0 3.0 0.0
v -2.0 3.0 -0.5
v -2.0 4.0 -0.5
v -5.5 3.0 1.5
v -5.5 4.0 1.5
v -6.0 4.0 1.5
v -6.0 3.0 1.5
v -2.0 3.0 1.5
v -2.0 4.0 1.5
v -2.5 4.0 1.5
v -2.5 3.0 1.5
v -6.0 3.0 1.0
v -6.0 4.0 1.0
v -2.5 3.0 1.0
v -2.5 4.0 1.0
v -2.5 4.0 0.0
v -2.5 3.0 0.0
v -5.5 3.0 0.0
v -5.5 4.0 0.0
v -5.5 4.0 0.19999981
v -5.5 4.0 1.0
v -5.5 3.0 1.0
v -2.0 4.0 1.0
v -2.0 3.0 1.0
v -6.0 4.0 1.4000001
v -2.375 4.0 0.0
v -2.375 5.0 0.0
v -3.0 5.0 0.0
v -3.0 4.0 0.0
v -5.0 4.0 0.0
v -5.0 5.0 0.0
v -5.625 5.0 0.0
v -5.625 4.0 0.0
v -6.0 5.0 -0.5
v -6.0 4.0 -0.5
v -6.0 4.0 0.0
v -6.0 5.0 0.0
v -2.0 5.0 0.0
v -2.0 4.0 0.0
v -2.0 4.0 -0.5
v -2.0 5.0 -0.5
v -5.5 4.0 1.5
v -5.5 5.0 1.5
v -6.0 5.0 1.5
v -6.0 4.0 1.5
v -2.0 4.0 1.5
v -2.0 5.0 1.5
v -2.5 5.0 1.5
v -2.5 4.0 1.5
v -6.0 4.0 1.0
v -6.0 5.0 1.0
v -2.5 4.0 1.0
v -2.5 5.0 1.0
v -2.5 5.0 0.0
v -2.5 4.0 0.0
v -5.5 4.0 0.0
v -5.5 5.0 0.0
v -5.5 5.0 0.19999981
v -5.5 5.0 1.0
v -5.5 4.0 1.0
v -2.0 5.0 1.0
v -2.0 4.0 1.0
v -6.0 5.0 1.4000001
v -2.375 5.0 0.0
v -2.375 6.0 0.0
v -3.0 6.0 0.0
v -3.0 5.0 0.0
v -5.0 5.0 0.0
v -5.0 6.0 0.0
v -5.625 6.0 0.0
v -5.625 5.0 0.0
v -6.0 6.0 -0.5
v -6.0 5.0 -0.5
v -6.0 5.0 0.0
v -6.0 6.0 0.0
v -2.0 6.0 0.0
v -2.0 5.0 0.0
v -2.0 5.0 -0.5
v -2.0 6.0 -0.5
v -5.5 5.0 1.5
v -5.5 6.0 1.5
v -6.0 6.0 1.5
v -6.0 5.0 1.5
v -2.0 5.0 1.5
v -2.0 6.0 1.5
v -2.5 6.0 1.5
v -2.5 5.0 1.5
v -6.0 5.0 1.0
v -6.0 6.0 1.0
v -2.5 5.0 1.0
v -2.5 6.0 1.0
v -2.5 6.0 0.0
v -2.5 5.0 0.0
v -5.5 5.0 0.0
v -5.5 6.0 0.0
v -5.5 6.0 0.19999981
v -5.5 6.0 1.0
v -5.5 5.0 1.0
v -2.0 6.0 1.0
v -2.0 5.0 1.0
v -6.0 6.0 1.4000001
v -2.375 6.0 0.0
v -2.375 7.0 0.0
v -3.0 7.0 0.0
v -3.0 6.0 0.0
v -5.0 6.0 0.0
v -5.0 7.0 0.0
v -5.625 7.0 0.0
v -5.625 6.0 0.0
v -6.0 7.0 -0.5
v -6.0 6.0 -0.5
v -6.0 6.0 0.0
v -6.0 7.0 0.0
v -2.0 7.0 0.0
v -2.0 6.0 0.0
v -2.0 6.0 -0.5
v -2.0 7.0 -0.5
v -5.5 6.0 1.5
v -5.5 7.0 1.5
v -6.0 7.0 1.5
v -6.0 6.0 1.5
v -2.0 6.0 1.5
v -2.0 7.0 1.5
v -2.5 7.0 1.5
v -2.5 6.0 1.5
v -6.0 6.0 1.0
v -6.0 7.0 1.0
v -2.5 6.0 1.0
v -2.5 7.0 1.0
v -2.5 7.0 0.0
v -2.5 6.0 0.0
v -5.5 6.0 0.0
v -5.5 7.0 0.0
v -5.5 7.0 0.19999981
v -5.5 7.0 1.0
v -5.5 6.0 1.0
v -2.0 7.0 1.0
v -2.0 6.0 1.0
v -6.0 7.0 1.4000001
v -2.375 7.0 0.0
v -2.375 8.0 0.0
v -3.0 8.0 0.0
v -3.0 7.0 0.0
v -5.0 7.0 0.0
v -5.0 8.0 0.0
v -5.625 8.0 0.0
v -5.625 7.0 0.0
v -6.0 8.0 -0.5
v -6.0 7.0 -0.5
v -6.0 7.0 0.0
v -6.0 8.0 0.0
v -2.0 8.0 0.0
v -2.0 7.0 0.0
v -2.0 7.0 -0.5
v -2.0 8.0 -0.5
v -5.5 7.0 1.5
v -5.5 8.0 1.5
v -6.0 8.0 1.5
v -6.0 7.0 1.5
v -2.0 7.0 1.5
v -2.0 8.0 1.5
v -2.5 8.0 1.5
v -2.5 7.0 1.5
v -6.0 7.0 1.0
v -6.0 8.0 1.0
v -2.5 7.0 1.0
v -2.5 8.0 1.0
v -2.5 8.0 0.0
v -2.5 7.0 0.0
v -5.5 7.0 0.0
v -5.5 8.0 0.0
v -5.5 8.0 0.19999981
v -5.5 8.0 1.0
v -5.5 7.0 1.0
v -2.0 8.0 1.0
v -2.0 7.0 1.0
v -6.0 8.0 1.4000001
vt -10.0 -1.42109E-14
vt -10.0 -1.0
vt -10.5 -1.42109E-14
vt -10.5 -1.0
vt -10.5 0.0
vt -10.5 -1.06581E-14
vt -11.0 -1.06581E-14
vt -11.0 -1.0
vt -11.0 1.77636E-15
vt -11.0 7.10543E-15
vt -13.0 7.10543E-15
vt -13.0 -1.0
vt -13.0 1.77636E-15
vt -11.0 3.55271E-15
vt -11.5 -1.0
vt -11.0 -7.10543E-15
vt -11.5 -7.10543E-15
vt 1.0 -7.5
vt 8.88178E-15 -7.5
vt 1.0 -7.0
vt -3.55271E-15 -7.5
vt -3.55271E-15 -7.0
vt 1.0 -6.0
vt 2.22045E-15 -6.0
vt 1.0 -9.0
vt 0.0 -6.0
vt 0.0 -9.0
vt 5.90551 4.92126
vt 5.90551 4.42913
vt 9.84252 4.92126
vt 9.84252 4.42913
vt 0.304688 1.77636E-15
vt 0.203125 1.77636E-15
vt 0.203125 -1.0
vt 0.304688 -1.0
vt 5.90551 -9.84252
vt 5.90551 -9.35039
vt 1.9685 -9.84252
vt 2.46063 -9.35039
vt 1.9685 -5.90551
vt 2.46063 -5.90551
vt 5.90551 -6.39764
vt 5.90551 -5.90551
vt 5.41339 -5.90551
vt 5.41339 -6.39764
vt -9.0 -25.0
vt -9.0 -23.0
vt -9.5 -25.0
vt -9.5 -23.0
vt -10.0 -25.0
vt -10.0 -23.0
vt -12.0 -25.0
vt -12.0 -22.0
vt -10.0 -22.5
vt -10.0 -22.0
vt -9.0 -1.0
vt -9.0 0.0
vt -9.0 8.88178E-16
vt -13.0 8.88178E-16
vt -9.5 0.0
vt -9.5 -1.0
vt -8.5 -1.0
vt -5.5 8.88178E-16
vt -9.0 9.76996E-15
vt -5.5 -1.0
vt -7.50781 0.0
vt -7.5 -1.0
vt -7.99219 -1.0
vt -8.0 0.0
vt -11.5 8.88178E-16
vt -7.5 8.88178E-16
vt -9.35039 6.39764
vt -9.35039 5.90551
vt -5.90551 6.39764
vt -5.90551 5.90551
vt 6.39764 6.39764
vt 5.90551 6.39764
vt 5.90551 5.90551
vt 6.39764 5.90551
vt 0.289063 -1.77636E-15
vt 0.289063 -1.0
vt 0.301136 -1.0
vt 0.301136 -1.77636E-15
vt 0.296875 -1.0
vt 0.296875 3.55271E-15
vt 0.296875 1.77636E-15
vt 9.84252 5.90551
vt 9.84252 6.39764
vt 0.0 -1.0
vt 1.0 -1.0
vt 1.0 -1.77636E-15
vt 0.0 -1.77636E-15
vt 1.0 0.0
vt 1.77636E-15 0.0
vt 0.0 0.0
vt 1.77636E-15 -3.0
vt 1.77636E-15 -2.0
vt 1.0 -2.0
vt 1.0 -3.0
vt 0.0 -2.0
vt 0.0 -3.0
vt 4.92126 4.42913
vt 5.90551 4.42913
vt 5.90551 4.92126
vt 4.92126 4.92126
vt -4.92126 4.92126
vt -5.90551 4.92126
vt -5.90551 4.42913
vt -4.92126 4.42913
vt -11.3189 -5.90551
vt -11.3189 -4.92126
vt -11.811 -4.92126
vt -11.811 -5.90551
vt -7.87402 -5.90551
vt -7.87402 -4.92126
vt -8.36614 -4.92126
vt -8.36614 -5.90551
vt 6.0 10.0
vt 8.0 10.0
vt 8.0 11.0
vt 6.0 11.0
vt 1.25 -1.0
vt 1.25 8.88178E-16
vt 2.25 8.88178E-16
vt 2.25 -1.0
vt 13.0 -1.0
vt 14.0 -1.0
vt 14.0 -0.8
vt 14.0 8.88178E-16
vt 13.0 8.88178E-16
vt 14.0 0.0
vt 13.0 0.0
vt -4.92126 5.90551
vt -4.92126 6.39764
vt -5.90551 6.39764
vt -5.90551 5.90551
vt 5.90551 6.39764
vt 4.92126 6.39764
vt 4.92126 5.90551
vt 5.90551 5.90551
vt 4.92126 6.29921
vt 1.77636E-15 -3.0
vt 1.77636E-15 -2.0
vt 1.0 -2.0
vt 1.0 -3.0
vt 0.0 -2.0
vt 0.0 -3.0
vt 4.92126 4.42913
vt 5.90551 4.42913
vt 5.90551 4.92126
vt 4.92126 4.92126
vt -4.92126 4.92126
vt -5.90551 4.92126
vt -5.90551 4.42913
vt -4.92126 4.42913
vt -11.3189 -5.90551
vt -11.3189 -4.92126
vt -11.811 -4.92126
vt -11.811 -5.90551
vt -7.87402 -5.90551
vt -7.87402 -4.92126
vt -8.36614 -4.92126
vt -8.36614 -5.90551
vt 6.0 10.0
vt 8.0 10.0
vt 8.0 11.0
vt 6.0 11.0
vt 1.25 -1.0
vt 1.25 8.88178E-16
vt 2.25 8.88178E-16
vt 2.25 -1.0
vt 13.0 -1.0
vt 14.0 -1.0
vt 14.0 -0.8
vt 14.0 8.88178E-16
vt 13.0 8.88178E-16
vt 14.0 0.0
vt 13.0 0.0
vt -4.92126 5.90551
vt -4.92126 6.39764
vt -5.90551 6.39764
vt -5.90551 5.90551
vt 5.90551 6.39764
vt 4.92126 6.39764
vt 4.92126 5.90551
vt 5.90551 5.90551
vt 4.92126 6.29921
vt 1.77636E-15 -3.0
vt 1.77636E-15 -2.0
vt 1.0 -2.0
vt 1.0 -3.0
vt 0.0 -2.0
vt 0.0 -3.0
vt 4.92126 4.42913
vt 5.90551 4.42913
vt 5.90551 4.92126
vt 4.92126 4.92126
vt -4.92126 4.92126
vt -5.90551 4.92126
vt -5.90551 4.42913
vt -4.92126 4.42913
vt -11.3189 -5.90551
vt -11.3189 -4.92126
vt -11.811 -4.92126
vt -11.811 -5.90551
vt -7.87402 -5.90551
vt -7.87402 -4.92126
vt -8.36614 -4.92126
vt -8.36614 -5.90551
vt 6.0 10.0
vt 8.0 10.0
vt 8.0 11.0
vt 6.0 11.0
vt 1.25 -1.0
vt 1.25 8.88178E-16
vt 2.25 8.88178E-16
vt 2.25 -1.0
vt 13.0 -1.0
vt 14.0 -1.0
vt 14.0 -0.8
vt 14.0 8.88178E-16
vt 13.0 8.88178E-16
vt 14.0 0.0
vt 13.0 0.0
vt -4.92126 5.90551
vt -4.92126 6.39764
vt -5.90551 6.39764
vt -5.90551 5.90551
vt 5.90551 6.39764
vt 4.92126 6.39764
vt 4.92126 5.90551
vt 5.90551 5.90551
vt 4.92126 6.29921
vt 1.77636E-15 -3.0
vt 1.77636E-15 -2.0
vt 1.0 -2.0
vt 1.0 -3.0
vt 0.0 -2.0
vt 0.0 -3.0
vt 4.92126 4.42913
vt 5.90551 4.42913
vt 5.90551 4.92126
vt 4.92126 4.92126
vt -4.92126 4.92126
vt -5.90551 4.92126
vt -5.90551 4.42913
vt -4.92126 4.42913
vt -11.3189 -5.90551
vt -11.3189 -4.92126
vt -11.811 -4.92126
vt -11.811 -5.90551
vt -7.87402 -5.90551
vt -7.87402 -4.92126
vt -8.36614 -4.92126
vt -8.36614 -5.90551
vt 6.0 10.0
vt 8.0 10.0
vt 8.0 11.0
vt 6.0 11.0
vt 1.25 -1.0
vt 1.25 8.88178E-16
vt 2.25 8.88178E-16
vt 2.25 -1.0
vt 13.0 -1.0
vt 14.0 -1.0
vt 14.0 -0.8
vt 14.0 8.88178E-16
vt 13.0 8.88178E-16
vt 14.0 0.0
vt 13.0 0.0
vt -4.92126 5.90551
vt -4.92126 6.39764
vt -5.90551 6.39764
vt -5.90551 5.90551
vt 5.90551 6.39764
vt 4.92126 6.39764
vt 4.92126 5.90551
vt 5.90551 5.90551
vt 4.92126 6.29921
vt 1.77636E-15 -3.0
vt 1.77636E-15 -2.0
vt 1.0 -2.0
vt 1.0 -3.0
vt 0.0 -2.0
vt 0.0 -3.0
vt 4.92126 4.42913
vt 5.90551 4.42913
vt 5.90551 4.92126
vt 4.92126 4.92126
vt -4.92126 4.92126
vt -5.90551 4.92126
vt -5.90551 4.42913
vt -4.92126 4.42913
vt -11.3189 -5.90551
vt -11.3189 -4.92126
vt -11.811 -4.92126
vt -11.811 -5.90551
vt -7.87402 -5.90551
vt -7.87402 -4.92126
vt -8.36614 -4.92126
vt -8.36614 -5.90551
vt 6.0 10.0
vt 8.0 10.0
vt 8.0 11.0
vt 6.0 11.0
vt 1.25 -1.0
vt 1.25 8.88178E-16
vt 2.25 8.88178E-16
vt 2.25 -1.0
vt 13.0 -1.0
vt 14.0 -1.0
vt 14.0 -0.8
vt 14.0 8.88178E-16
vt 13.0 8.88178E-16
vt 14.0 0.0
vt 13.0 0.0
vt -4.92126 5.90551
vt -4.92126 6.39764
vt -5.90551 6.39764
vt -5.90551 5.90551
vt 5.90551 6.39764
vt 4.92126 6.39764
vt 4.92126 5.90551
vt 5.90551 5.90551
vt 4.92126 6.29921
vn 0.0 0.0 1.0
vn -1.0 0.0 0.0
vn 0.0 -1.0 0.0
vn 1.0 0.0 0.0
vn 0.0 0.0 1.0
vn -1.0 0.0 0.0
vn 1.0 0.0 0.0
vn 0.0 0.0 1.0
vn -1.0 0.0 0.0
vn 1.0 0.0 0.0
vn 0.0 0.0 1.0
vn -1.0 0.0 0.0
vn 1.0 0.0 0.0
vn 0.0 0.0 1.0
vn -1.0 0.0 0.0
vn 1.0 0.0 0.0
vn 0.0 0.0 1.0
vn -1.0 0.0 0.0
vn 1.0 0.0 0.0
c 1.0 1.0 1.0
c 1.0 1.0 1.0
c 1.0 1.0 1.0
c 1.0 1.0 1.0
c 1.0 1.0 1.0
c 1.0 1.0 1.0
usemtl a8_sora_e_lm1
s off
f 52/89/1/1 7/90/1/1 8/91/1/1
f 8/91/1/1 18/92/1/1 52/89/1/1
f 11/90/1/1 12/93/1/1 13/94/1/1
f 13/95/1/1 36/89/1/1 11/90/1/1
usemtl a8_sora_b__lm1
s off
f 49/66/2/1 50/67/2/1 42/68/2/1 41/69/2/1
f 63/122/6/2 77/123/6/2 78/124/6/2 64/125/6/2
f 79/123/6/2 80/124/6/2 81/125/6/2 82/122/6/2
f 83/126/7/2 85/128/7/2 86/129/7/2 87/130/7/2
f 66/126/7/2 65/127/7/2 88/131/7/2 89/132/7/2
f 101/168/9/3 115/169/9/3 116/170/9/3 102/171/9/3
f 117/169/9/3 118/170/9/3 119/171/9/3 120/168/9/3
f 121/172/10/3 123/174/10/3 124/175/10/3 125/176/10/3
f 104/172/10/3 103/173/10/3 126/177/10/3 127/178/10/3
f 139/214/12/4 153/215/12/4 154/216/12/4 140/217/12/4
f 155/215/12/4 156/216/12/4 157/217/12/4 158/214/12/4
f 159/218/13/4 161/220/13/4 162/221/13/4 163/222/13/4
f 142/218/13/4 141/219/13/4 164/223/13/4 165/224/13/4
f 177/260/15/5 191/261/15/5 192/262/15/5 178/263/15/5
f 193/261/15/5 194/262/15/5 195/263/15/5 196/260/15/5
f 197/264/16/5 199/266/16/5 200/267/16/5 201/268/16/5
f 180/264/16/5 179/265/16/5 202/269/16/5 203/270/16/5
f 215/306/18/6 229/307/18/6 230/308/18/6 216/309/18/6
f 231/307/18/6 232/308/18/6 233/309/18/6 234/306/18/6
f 235/310/19/6 237/312/19/6 238/313/19/6 239/314/19/6
f 218/310/19/6 217/311/19/6 240/315/19/6 241/316/19/6
f 44/58/4/1 45/62/4/1 46/63/4/1
f 45/62/4/1 44/64/4/1 47/56/4/1
f 45/62/4/1 48/65/4/1 46/63/4/1
f 21/15/2/1 39/70/2/1 19/67/2/1
f 39/70/2/1 51/71/2/1 19/67/2/1
f 83/126/7/2 84/127/7/2 85/128/7/2
f 121/172/10/3 122/173/10/3 123/174/10/3
f 159/218/13/4 160/219/13/4 161/220/13/4
f 197/264/16/5 198/265/16/5 199/266/16/5
f 235/310/19/6 236/311/19/6 237/312/19/6
usemtl a8_sora_b_lm1
s off
f 40/57/3/1 41/60/3/1 42/61/3/1 43/56/3/1
f 23/56/3/1 38/57/3/1 21/12/3/1
f 38/58/3/1 39/59/3/1 21/12/3/1
usemtl a8_sora_g_lm1
s off
f 34/76/2/1 33/77/2/1 49/78/2/1 41/79/2/1
f 34/80/3/1 41/81/3/1 40/82/3/1 31/83/3/1
f 86/133/7/2 70/134/7/2 69/135/7/2 87/136/7/2
f 76/137/6/2 75/138/6/2 80/139/6/2 79/140/6/2
f 72/137/6/2 90/141/6/2 78/139/6/2 77/140/6/2
f 73/135/7/2 89/136/7/2 88/133/7/2 74/134/7/2
f 124/179/10/3 108/180/10/3 107/181/10/3 125/182/10/3
f 114/183/9/3 113/184/9/3 118/185/9/3 117/186/9/3
f 110/183/9/3 128/187/9/3 116/185/9/3 115/186/9/3
f 111/181/10/3 127/182/10/3 126/179/10/3 112/180/10/3
f 162/225/13/4 146/226/13/4 145/227/13/4 163/228/13/4
f 152/229/12/4 151/230/12/4 156/231/12/4 155/232/12/4
f 148/229/12/4 166/233/12/4 154/231/12/4 153/232/12/4
f 149/227/13/4 165/228/13/4 164/225/13/4 150/226/13/4
f 200/271/16/5 184/272/16/5 183/273/16/5 201/274/16/5
f 190/275/15/5 189/276/15/5 194/277/15/5 193/278/15/5
f 186/275/15/5 204/279/15/5 192/277/15/5 191/278/15/5
f 187/273/16/5 203/274/16/5 202/271/16/5 188/272/16/5
f 238/317/19/6 222/318/19/6 221/319/19/6 239/320/19/6
f 228/321/18/6 227/322/18/6 232/323/18/6 231/324/18/6
f 224/321/18/6 242/325/18/6 230/323/18/6 229/324/18/6
f 225/319/19/6 241/320/19/6 240/317/19/6 226/318/19/6
f 28/72/4/1 44/73/4/1 30/74/4/1
f 44/73/4/1 46/75/4/1 30/74/4/1
f 38/84/3/1 25/85/3/1 39/34/3/1
f 25/86/3/1 27/33/3/1 39/34/3/1
f 39/87/2/1 27/88/2/1 51/78/2/1
f 27/88/2/1 29/77/2/1 51/78/2/1
f 72/137/6/2 71/138/6/2 90/141/6/2
f 110/183/9/3 109/184/9/3 128/187/9/3
f 148/229/12/4 147/230/12/4 166/233/12/4
f 186/275/15/5 185/276/15/5 204/279/15/5
f 224/321/18/6 223/322/18/6 242/325/18/6
usemtl a8_sora_f_lm1
s off
f 31/42/1/1 32/43/1/1 33/44/1/1 34/45/1/1
f 69/110/5/2 70/111/5/2 71/112/5/2 72/113/5/2
f 73/114/5/2 74/115/5/2 75/116/5/2 76/117/5/2
f 107/156/8/3 108/157/8/3 109/158/8/3 110/159/8/3
f 111/160/8/3 112/161/8/3 113/162/8/3 114/163/8/3
f 145/202/11/4 146/203/11/4 147/204/11/4 148/205/11/4
f 149/206/11/4 150/207/11/4 151/208/11/4 152/209/11/4
f 183/248/14/5 184/249/14/5 185/250/14/5 186/251/14/5
f 187/252/14/5 188/253/14/5 189/254/14/5 190/255/14/5
f 221/294/17/6 222/295/17/6 223/296/17/6 224/297/17/6
f 225/298/17/6 226/299/17/6 227/300/17/6 228/301/17/6
f 25/36/1/1 26/37/1/1 27/38/1/1
f 26/37/1/1 28/39/1/1 27/38/1/1
f 27/38/1/1 28/39/1/1 29/40/1/1
f 28/39/1/1 30/41/1/1 29/40/1/1
usemtl a8_sora_c_lm1
s off
f 1/1/1/1 2/2/1/1 3/3/1/1
f 2/2/1/1 4/4/1/1 3/5/1/1
f 3/6/1/1 4/4/1/1 5/7/1/1
f 4/4/1/1 6/8/1/1 5/9/1/1
f 5/10/1/1 6/8/1/1 7/11/1/1
f 6/8/1/1 8/12/1/1 7/13/1/1
f 9/8/1/1 10/14/1/1 11/15/1/1
f 10/16/1/1 12/17/1/1 11/15/1/1
usemtl a8_sora_i_lm1
s off
f 61/102/6/2 62/103/6/2 63/104/6/2 64/105/6/2
f 65/106/7/2 66/107/7/2 67/108/7/2 68/109/7/2
f 99/148/9/3 100/149/9/3 101/150/9/3 102/151/9/3
f 103/152/10/3 104/153/10/3 105/154/10/3 106/155/10/3
f 137/194/12/4 138/195/12/4 139/196/12/4 140/197/12/4
f 141/198/13/4 142/199/13/4 143/200/13/4 144/201/13/4
f 175/240/15/5 176/241/15/5 177/242/15/5 178/243/15/5
f 179/244/16/5 180/245/16/5 181/246/16/5 182/247/16/5
f 213/286/18/6 214/287/18/6 215/288/18/6 216/289/18/6
f 217/290/19/6 218/291/19/6 219/292/19/6 220/293/19/6
f 19/28/2/1 20/29/2/1 21/30/2/1
f 20/29/2/1 22/31/2/1 21/30/2/1
f 23/32/3/1 21/33/3/1 22/34/3/1
f 24/35/3/1 23/32/3/1 22/34/3/1
usemtl a8_sora_a_lm1
s off
f 57/118/5/2 56/119/5/2 55/120/5/2 58/121/5/2
f 95/164/8/3 94/165/8/3 93/166/8/3 96/167/8/3
f 133/210/11/4 132/211/11/4 131/212/11/4 134/213/11/4
f 171/256/14/5 170/257/14/5 169/258/14/5 172/259/14/5
f 209/302/17/6 208/303/17/6 207/304/17/6 210/305/17/6
f 2/46/1/1 9/47/1/1 4/48/1/1
f 9/47/1/1 35/49/1/1 4/48/1/1
f 4/48/1/1 35/49/1/1 6/50/1/1
f 35/49/1/1 36/51/1/1 6/50/1/1
f 6/50/1/1 36/51/1/1 8/52/1/1
f 36/51/1/1 16/53/1/1 8/52/1/1
f 36/51/1/1 37/54/1/1 16/53/1/1
f 37/54/1/1 14/55/1/1 16/53/1/1
usemtl a8_sora_d_lm1
s off
f 53/96/5/2 54/97/5/2 55/98/5/2 56/99/5/2
f 57/99/5/2 58/98/5/2 59/100/5/2 60/101/5/2
f 91/142/8/3 92/143/8/3 93/144/8/3 94/145/8/3
f 95/145/8/3 96/144/8/3 97/146/8/3 98/147/8/3
f 129/188/11/4 130/189/11/4 131/190/11/4 132/191/11/4
f 133/191/11/4 134/190/11/4 135/192/11/4 136/193/11/4
f 167/234/14/5 168/235/14/5 169/236/14/5 170/237/14/5
f 171/237/14/5 172/236/14/5 173/238/14/5 174/239/14/5
f 205/280/17/6 206/281/17/6 207/282/17/6 208/283/17/6
f 209/283/17/6 210/282/17/6 211/284/17/6 212/285/17/6
f 13/18/1/1 12/19/1/1 14/20/1/1
f 12/21/1/1 15/22/1/1 14/20/1/1
f 16/23/1/1 17/24/1/1 8/25/1/1
f 17/26/1/1 18/27/1/1 8/25/1/1
