mtllib Uluru-Cave-2_04_03.mtl
o map
v -16.0 -16.0 3.0
v -15.0 -16.0 3.0
v -15.0 -15.0 3.0
v -16.0 -15.0 3.0
v -16.0 -15.0 3.0
v -15.0 -15.0 3.0
v -15.0 -14.0 3.0
v -16.0 -14.0 3.0
v -16.0 -14.0 3.0
v -15.0 -14.0 3.0
v -15.0 -13.0 3.0
v -16.0 -13.0 3.0
v -16.0 -13.0 3.0
v -15.0 -13.0 3.0
v -15.0 -12.0 3.0
v -16.0 -12.0 3.0
v -16.0 -12.0 3.0
v -15.0 -12.0 3.0
v -15.0 -11.0 3.0
v -16.0 -11.0 3.0
v -16.0 -11.0 3.0
v -15.0 -11.0 3.0
v -15.0 -10.0 3.0
v -16.0 -10.0 3.0
v -16.0 -10.0 3.0
v -15.0 -10.0 3.0
v -15.0 -9.0 3.0
v -16.0 -9.0 3.0
v -16.0 -9.0 3.0
v -15.0 -9.0 3.0
v -15.0 -8.0 3.0
v -16.0 -8.0 3.0
v -16.0 -8.0 3.0
v -15.0 -8.0 3.0
v -15.0 -7.0 3.0
v -16.0 -7.0 3.0
v -16.0 -7.0 3.0
v -15.0 -7.0 3.0
v -15.0 -6.0 3.0
v -16.0 -6.0 3.0
v -16.0 -6.0 3.0
v -15.0 -6.0 3.0
v -15.0 -5.0 3.0
v -16.0 -5.0 3.0
v -16.0 -5.0 3.0
v -15.0 -5.0 3.0
v -15.0 -4.0 3.0
v -16.0 -4.0 3.0
v -16.0 -4.0 3.0
v -15.0 -4.0 3.0
v -15.0 -3.0 3.0
v -16.0 -3.0 3.0
v -16.0 -3.0 3.0
v -15.0 -3.0 3.0
v -15.0 -2.0 3.0
v -16.0 -2.0 3.0
v -16.0 -2.0 3.0
v -15.0 -2.0 3.0
v -15.0 -1.0 3.0
v -16.0 -1.0 3.0
v -16.0 -1.0 3.0
v -15.0 -1.0 3.0
v -15.0 0.0 3.0
v -16.0 0.0 3.0
v -16.0 0.0 3.0
v -15.0 0.0 3.0
v -15.0 1.0 3.0
v -16.0 1.0 3.0
v -16.0 1.0 3.0
v -15.0 1.0 3.0
v -15.0 2.0 3.0
v -16.0 2.0 3.0
v -16.0 2.0 3.0
v -15.0 2.0 3.0
v -15.0 3.0 3.0
v -16.0 3.0 3.0
v -16.0 3.0 3.0
v -15.0 3.0 3.0
v -15.0 4.0 3.0
v -16.0 4.0 3.0
v -16.0 4.0 3.0
v -15.0 4.0 3.0
v -15.0 5.0 3.0
v -16.0 5.0 3.0
v -16.0 5.0 3.0
v -15.0 5.0 3.0
v -15.0 6.0 3.0
v -16.0 6.0 3.0
v -16.0 6.0 3.0
v -15.0 6.0 3.0
v -15.0 7.0 3.0
v -16.0 7.0 3.0
v -16.0 7.0 3.0
v -15.0 7.0 3.0
v -15.0 8.0 3.0
v -16.0 8.0 3.0
v -16.0 8.0 3.0
v -15.0 8.0 3.0
v -15.0 9.0 3.0
v -16.0 9.0 3.0
v -16.0 9.0 3.0
v -15.0 9.0 3.0
v -15.0 10.0 3.0
v -16.0 10.0 3.0
v -16.0 10.0 3.0
v -15.0 10.0 3.0
v -15.0 11.0 3.0
v -16.0 11.0 3.0
v -16.0 11.0 3.0
v -15.0 11.0 3.0
v -15.0 12.0 3.0
v -16.0 12.0 3.0
v -16.0 12.0 3.0
v -15.0 12.0 3.0
v -15.0 13.0 3.0
v -16.0 13.0 3.0
v -16.0 13.0 3.0
v -15.0 13.0 3.0
v -15.0 14.0 3.0
v -16.0 14.0 3.0
v -16.0 14.0 3.0
v -15.0 14.0 3.0
v -15.0 15.0 3.0
v -16.0 15.0 3.0
v -16.0 15.0 3.0
v -15.0 15.0 3.0
v -15.0 16.0 3.0
v -16.0 16.0 3.0
v -15.0 -16.0 3.000002
v -7.0 -16.0 3.000002
v -7.0 -8.0 3.0000029
v -15.0 -8.0 3.0000029
v -15.0 -8.0 3.000002
v -7.0 -8.0 3.000002
v -7.0 0.0 3.0000029
v -15.0 0.0 3.0000029
v -15.0 0.0 3.000002
v -7.0 0.0 3.000002
v -7.0 8.0 3.0000029
v -15.0 8.0 3.0000029
v -15.0 8.0 3.000002
v -7.0 8.0 3.000002
v -7.0 16.0 3.0000029
v -15.0 16.0 3.0000029
v -7.0 -16.0 3.000002
v 1.0 -16.0 3.000002
v 1.0 -8.0 3.0000029
v -7.0 -8.0 3.0000029
v -7.0 -8.0 3.000002
v 1.0 -8.0 3.000002
v 1.0 0.0 3.0000029
v -7.0 0.0 3.0000029
v -7.0 0.0 3.000002
v 1.0 0.0 3.000002
v 1.0 8.0 3.0000029
v -7.0 8.0 3.0000029
v -7.0 8.0 3.000002
v 1.0 8.0 3.000002
v 1.0 16.0 3.0000029
v -7.0 16.0 3.0000029
v 1.0 -16.0 3.000002
v 9.0 -16.0 3.000002
v 9.0 -8.0 3.0000029
v 1.0 -8.0 3.0000029
v 1.0 -8.0 3.000002
v 9.0 -8.0 3.000002
v 9.0 0.0 3.0000029
v 1.0 0.0 3.0000029
v 1.0 0.0 3.000002
v 9.0 0.0 3.000002
v 9.0 8.0 3.0000029
v 1.0 8.0 3.0000029
v 1.0 8.0 3.000002
v 9.0 8.0 3.000002
v 9.0 16.0 3.0000029
v 1.0 16.0 3.0000029
v 9.0 -16.0 3.000002
v 16.0 -16.0 3.000002
v 16.0 -8.0 3.0000029
v 9.0 -8.0 3.0000029
v 9.0 -8.0 3.000002
v 16.0 -8.0 3.000002
v 16.0 0.0 3.0000029
v 9.0 0.0 3.0000029
v 9.0 0.0 3.000002
v 16.0 0.0 3.000002
v 16.0 8.0 3.0000029
v 9.0 8.0 3.0000029
v 9.0 8.0 3.000002
v 16.0 8.0 3.000002
v 16.0 16.0 3.0000029
v 9.0 16.0 3.0000029
vt 0.0 0.0
vt 1.0 0.0
vt 1.0 1.0
vt 0.0 1.0
vt 0.0 1.0
vt 1.0 1.0
vt 1.0 2.0
vt 0.0 2.0
vt 0.0 2.0
vt 1.0 2.0
vt 1.0 3.0
vt 0.0 3.0
vt 0.0 3.0
vt 1.0 3.0
vt 1.0 4.0
vt 0.0 4.0
vt 0.0 4.0
vt 1.0 4.0
vt 1.0 5.0
vt 0.0 5.0
vt 0.0 5.0
vt 1.0 5.0
vt 1.0 6.0
vt 0.0 6.0
vt 0.0 6.0
vt 1.0 6.0
vt 1.0 7.0
vt 0.0 7.0
vt 0.0 7.0
vt 1.0 7.0
vt 1.0 8.0
vt 0.0 8.0
vt 0.0 8.0
vt 1.0 8.0
vt 1.0 9.0
vt 0.0 9.0
vt 0.0 9.0
vt 1.0 9.0
vt 1.0 10.0
vt 0.0 10.0
vt 0.0 10.0
vt 1.0 10.0
vt 1.0 11.0
vt 0.0 11.0
vt 0.0 11.0
vt 1.0 11.0
vt 1.0 12.0
vt 0.0 12.0
vt 0.0 12.0
vt 1.0 12.0
vt 1.0 13.0
vt 0.0 13.0
vt 0.0 13.0
vt 1.0 13.0
vt 1.0 14.0
vt 0.0 14.0
vt 0.0 14.0
vt 1.0 14.0
vt 1.0 15.0
vt 0.0 15.0
vt 0.0 15.0
vt 1.0 15.0
vt 1.0 16.0
vt 0.0 16.0
vt 0.0 16.0
vt 1.0 16.0
vt 1.0 17.0
vt 0.0 17.0
vt 1.0 18.0
vt 0.0 18.0
vt 0.0 17.0
vt 1.0 17.0
vt 0.0 18.0
vt 1.0 18.0
vt 1.0 19.0
vt 0.0 19.0
vt 1.0 20.0
vt 0.0 20.0
vt 0.0 19.0
vt 1.0 19.0
vt 0.0 20.0
vt 1.0 20.0
vt 1.0 21.0
vt 0.0 21.0
vt 1.0 22.0
vt 0.0 22.0
vt 0.0 21.0
vt 1.0 21.0
vt 0.0 22.0
vt 1.0 22.0
vt 1.0 23.0
vt 0.0 23.0
vt 1.0 24.0
vt 0.0 24.0
vt 0.0 23.0
vt 1.0 23.0
vt 0.0 24.0
vt 1.0 24.0
vt 1.0 25.0
vt 0.0 25.0
vt 1.0 26.0
vt 0.0 26.0
vt 0.0 25.0
vt 1.0 25.0
vt 0.0 26.0
vt 1.0 26.0
vt 1.0 27.0
vt 0.0 27.0
vt 1.0 28.0
vt 0.0 28.0
vt 0.0 27.0
vt 1.0 27.0
vt 0.0 28.0
vt 1.0 28.0
vt 1.0 29.0
vt 0.0 29.0
vt 1.0 30.0
vt 0.0 30.0
vt 0.0 29.0
vt 1.0 29.0
vt 0.0 30.0
vt 1.0 30.0
vt 1.0 31.0
vt 0.0 31.0
vt 1.0 32.0
vt 0.0 32.0
vt 0.0 31.0
vt 1.0 31.0
vt 0.0625 0.9375
vt 0.0625 0.9375
vt 0.0625 0.9375
vt 0.0625 0.9375
vt 0.0625 0.9375
vt 0.0625 0.9375
vt 0.0625 0.9375
vt 0.0625 0.9375
vt 0.0625 0.9375
vt 0.0625 0.9375
vt 0.0625 0.9375
vt 0.0625 0.9375
vt 0.0625 0.9375
vt 0.0625 0.9375
vt 0.0625 0.9375
vt 0.0625 0.9375
vt 0.0625 0.9375
vt 0.0625 0.9375
vt 0.0625 0.9375
vt 0.0625 0.9375
vt 0.0625 0.9375
vt 0.0625 0.9375
vt 0.0625 0.9375
vt 0.0625 0.9375
vt 0.0625 0.9375
vt 0.0625 0.9375
vt 0.0625 0.9375
vt 0.0625 0.9375
vt 0.0625 0.9375
vt 0.0625 0.9375
vt 0.0625 0.9375
vt 0.0625 0.9375
vt 0.0625 0.9375
vt 0.0625 0.9375
vt 0.0625 0.9375
vt 0.0625 0.9375
vt 0.0625 0.9375
vt 0.0625 0.9375
vt 0.0625 0.9375
vt 0.0625 0.9375
vt 0.0625 0.9375
vt 0.0625 0.9375
vt 0.0625 0.9375
vt 0.0625 0.9375
vt 0.0625 0.9375
vt 0.0625 0.9375
vt 0.0625 0.9375
vt 0.0625 0.9375
vt 0.0625 0.9375
vt 0.0625 0.9375
vt 0.0625 0.9375
vt 0.0625 0.9375
vt 0.0625 0.9375
vt 0.0625 0.9375
vt 0.0625 0.9375
vt 0.0625 0.9375
vt 0.0625 0.9375
vt 0.0625 0.9375
vt 0.0625 0.9375
vt 0.0625 0.9375
vt 0.0625 0.9375
vt 0.0625 0.9375
vt 0.0625 0.9375
vt 0.0625 0.9375
vn 0.0 -0.0 1.0
vn 0.0 -0.0 1.0
vn 0.0 -0.0 1.0
vn 0.0 -0.0 1.0
vn 0.0 -0.0 1.0
vn 0.0 -0.0 1.0
vn 0.0 -0.0 1.0
vn 0.0 -0.0 1.0
vn 0.0 -0.0 1.0
vn 0.0 -0.0 1.0
vn 0.0 -0.0 1.0
vn 0.0 -0.0 1.0
vn 0.0 -0.0 1.0
vn 0.0 -0.0 1.0
vn 0.0 -0.0 1.0
vn 0.0 -0.0 1.0
vn 0.0 -0.0 1.0
vn 0.0 -0.0 1.0
vn 0.0 -0.0 1.0
vn 0.0 -0.0 1.0
vn 0.0 -0.0 1.0
vn 0.0 -0.0 1.0
vn 0.0 -0.0 1.0
vn 0.0 -0.0 1.0
vn 0.0 -0.0 1.0
vn 0.0 -0.0 1.0
vn 0.0 -0.0 1.0
vn 0.0 -0.0 1.0
vn 0.0 -0.0 1.0
vn 0.0 -0.0 1.0
vn 0.0 -0.0 1.0
vn 0.0 -0.0 1.0
vn 0.0 -0.0 1.0
vn 0.0 -0.0 1.0
vn 0.0 -0.0 1.0
vn 0.0 -0.0 1.0
vn 0.0 -0.0 1.0
vn 0.0 -0.0 1.0
vn 0.0 -0.0 1.0
vn 0.0 -0.0 1.0
vn 0.0 -0.0 1.0
vn 0.0 -0.0 1.0
vn 0.0 -0.0 1.0
vn 0.0 -0.0 1.0
vn 0.0 -0.0 1.0
vn 0.0 -0.0 1.0
vn 0.0 -0.0 1.0
vn 0.0 -0.0 1.0
c 0.0 0.0 0.0
c 1.0 1.0 1.0
c 0.019607844 0.019607844 0.019607844
c 1.0 1.0 1.0
c 0.050980393 0.050980393 0.050980393
c 1.0 1.0 1.0
c 0.050980393 0.050980393 0.050980393
c 1.0 1.0 1.0
c 0.050980393 0.050980393 0.050980393
c 1.0 1.0 1.0
c 0.050980393 0.050980393 0.050980393
c 1.0 1.0 1.0
c 0.050980393 0.050980393 0.050980393
c 1.0 1.0 1.0
c 0.050980393 0.050980393 0.050980393
c 1.0 1.0 1.0
c 0.050980393 0.050980393 0.050980393
c 1.0 1.0 1.0
c 0.050980393 0.050980393 0.050980393
c 1.0 1.0 1.0
c 0.050980393 0.050980393 0.050980393
c 1.0 1.0 1.0
c 0.050980393 0.050980393 0.050980393
c 1.0 1.0 1.0
c 0.050980393 0.050980393 0.050980393
c 1.0 1.0 1.0
c 0.050980393 0.050980393 0.050980393
c 1.0 1.0 1.0
c 0.050980393 0.050980393 0.050980393
c 1.0 1.0 1.0
c 0.050980393 0.050980393 0.050980393
c 1.0 1.0 1.0
c 0.050980393 0.050980393 0.050980393
c 1.0 1.0 1.0
c 0.050980393 0.050980393 0.050980393
c 1.0 1.0 1.0
c 0.050980393 0.050980393 0.050980393
c 1.0 1.0 1.0
c 0.050980393 0.050980393 0.050980393
c 1.0 1.0 1.0
c 0.050980393 0.050980393 0.050980393
c 1.0 1.0 1.0
c 0.050980393 0.050980393 0.050980393
c 1.0 1.0 1.0
c 0.050980393 0.050980393 0.050980393
c 1.0 1.0 1.0
c 0.050980393 0.050980393 0.050980393
c 1.0 1.0 1.0
c 0.050980393 0.050980393 0.050980393
c 1.0 1.0 1.0
c 0.050980393 0.050980393 0.050980393
c 1.0 1.0 1.0
c 0.050980393 0.050980393 0.050980393
c 1.0 1.0 1.0
c 0.050980393 0.050980393 0.050980393
c 1.0 1.0 1.0
c 0.050980393 0.050980393 0.050980393
c 1.0 1.0 1.0
c 0.050980393 0.050980393 0.050980393
c 1.0 1.0 1.0
c 0.050980393 0.050980393 0.050980393
c 1.0 1.0 1.0
c 0.050980393 0.050980393 0.050980393
c 1.0 1.0 1.0
c 0.019607844 0.019607844 0.019607844
c 1.0 1.0 1.0
c 1.0 1.0 1.0
c 1.0 1.0 1.0
c 1.0 1.0 1.0
c 1.0 1.0 1.0
c 1.0 1.0 1.0
c 1.0 1.0 1.0
c 1.0 1.0 1.0
c 1.0 1.0 1.0
c 1.0 1.0 1.0
c 1.0 1.0 1.0
c 1.0 1.0 1.0
c 1.0 1.0 1.0
c 1.0 1.0 1.0
c 1.0 1.0 1.0
c 1.0 1.0 1.0
usemtl gake_michi01
s off
f 1/1/1/3 2/2/1/1 3/3/1/3 4/4/1/2
f 5/5/2/4 6/6/2/5 7/7/2/5 8/8/2/4
f 9/9/3/6 10/10/3/7 11/11/3/7 12/12/3/6
f 13/13/4/8 14/14/4/9 15/15/4/9 16/16/4/8
f 17/17/5/10 18/18/5/11 19/19/5/11 20/20/5/10
f 21/21/6/12 22/22/6/13 23/23/6/13 24/24/6/12
f 25/25/7/14 26/26/7/15 27/27/7/15 28/28/7/14
f 29/29/8/16 30/30/8/17 31/31/8/17 32/32/8/16
f 33/33/9/18 34/34/9/19 35/35/9/19 36/36/9/18
f 37/37/10/20 38/38/10/21 39/39/10/21 40/40/10/20
f 41/41/11/22 42/42/11/23 43/43/11/23 44/44/11/22
f 45/45/12/24 46/46/12/25 47/47/12/25 48/48/12/24
f 49/49/13/26 50/50/13/27 51/51/13/27 52/52/13/26
f 53/53/14/28 54/54/14/29 55/55/14/29 56/56/14/28
f 57/57/15/30 58/58/15/31 59/59/15/31 60/60/15/30
f 61/61/16/32 62/62/16/33 63/63/16/33 64/64/16/32
f 65/65/17/34 66/66/17/35 67/67/17/35 68/68/17/34
f 69/71/18/36 70/72/18/37 71/69/18/37 72/70/18/36
f 73/73/19/38 74/74/19/39 75/75/19/39 76/76/19/38
f 77/79/20/40 78/80/20/41 79/77/20/41 80/78/20/40
f 81/81/21/42 82/82/21/43 83/83/21/43 84/84/21/42
f 85/87/22/44 86/88/22/45 87/85/22/45 88/86/22/44
f 89/89/23/46 90/90/23/47 91/91/23/47 92/92/23/46
f 93/95/24/48 94/96/24/49 95/93/24/49 96/94/24/48
f 97/97/25/50 98/98/25/51 99/99/25/51 100/100/25/50
f 101/103/26/52 102/104/26/53 103/101/26/53 104/102/26/52
f 105/105/27/54 106/106/27/55 107/107/27/55 108/108/27/54
f 109/111/28/56 110/112/28/57 111/109/28/57 112/110/28/56
f 113/113/29/58 114/114/29/59 115/115/29/59 116/116/29/58
f 117/119/30/60 118/120/30/61 119/117/30/61 120/118/30/60
f 121/121/31/62 122/122/31/63 123/123/31/63 124/124/31/62
f 125/127/32/64 126/128/32/65 127/125/32/65 128/126/32/65
usemtl d0gake_heri
s off
f 129/129/33/66 130/130/33/66 131/131/33/66 132/132/33/66
f 133/133/34/67 134/134/34/67 135/135/34/67 136/136/34/67
f 137/137/35/68 138/138/35/68 139/139/35/68 140/140/35/68
f 141/141/36/69 142/142/36/69 143/143/36/69 144/144/36/69
f 145/145/37/70 146/146/37/70 147/147/37/70 148/148/37/70
f 149/149/38/71 150/150/38/71 151/151/38/71 152/152/38/71
f 153/153/39/72 154/154/39/72 155/155/39/72 156/156/39/72
f 157/157/40/73 158/158/40/73 159/159/40/73 160/160/40/73
f 161/161/41/74 162/162/41/74 163/163/41/74 164/164/41/74
f 165/165/42/75 166/166/42/75 167/167/42/75 168/168/42/75
f 169/169/43/76 170/170/43/76 171/171/43/76 172/172/43/76
f 173/173/44/77 174/174/44/77 175/175/44/77 176/176/44/77
f 177/177/45/78 178/178/45/78 179/179/45/78 180/180/45/78
f 181/181/46/79 182/182/46/79 183/183/46/79 184/184/46/79
f 185/185/47/80 186/186/47/80 187/187/47/80 188/188/47/80
f 189/189/48/81 190/190/48/81 191/191/48/81 192/192/48/81
