mtllib Uluru-Cave-2_00_02.mtl
o map
v 5.0 -16.0 2.026558E-6
v 13.0 -16.0 2.026558E-6
v 13.0 -8.0 2.9802322E-6
v 5.0 -8.0 2.9802322E-6
v 5.0 -8.0 2.026558E-6
v 13.0 -8.0 2.026558E-6
v 13.0 0.0 2.9802322E-6
v 5.0 0.0 2.9802322E-6
v 5.0 0.0 2.026558E-6
v 13.0 0.0 2.026558E-6
v 13.0 8.0 2.9802322E-6
v 5.0 8.0 2.9802322E-6
v 5.0 8.0 2.026558E-6
v 13.0 8.0 2.026558E-6
v 13.0 16.0 2.9802322E-6
v 5.0 16.0 2.9802322E-6
v 13.0 -16.0 2.026558E-6
v 15.0 -16.0 2.026558E-6
v 15.0 -8.0 2.9802322E-6
v 13.0 -8.0 2.9802322E-6
v 13.0 -8.0 2.026558E-6
v 15.0 -8.0 2.026558E-6
v 15.0 0.0 2.9802322E-6
v 13.0 0.0 2.9802322E-6
v 13.0 0.0 2.026558E-6
v 15.0 0.0 2.026558E-6
v 15.0 8.0 2.9802322E-6
v 13.0 8.0 2.9802322E-6
v 13.0 8.0 2.026558E-6
v 15.0 8.0 2.026558E-6
v 15.0 16.0 2.9802322E-6
v 13.0 16.0 2.9802322E-6
v 15.0 -16.0 2.026558E-6
v 16.0 -16.0 2.026558E-6
v 16.0 -13.0 2.9802322E-6
v 15.0 -13.0 2.9802322E-6
v 15.0 -13.0 0.0
v 16.0 -13.0 0.0
v 16.0 -12.0 0.0
v 15.0 -12.0 0.0
v 15.0 -12.0 0.0
v 16.0 -12.0 0.0
v 16.0 -11.0 0.0
v 15.0 -11.0 0.0
v 15.0 -11.0 0.0
v 16.0 -11.0 0.0
v 16.0 -10.0 0.0
v 15.0 -10.0 0.0
v 15.0 -10.0 0.0
v 16.0 -10.0 0.0
v 16.0 -9.0 0.0
v 15.0 -9.0 0.0
v 15.0 -9.0 0.0
v 16.0 -9.0 0.0
v 16.0 -8.0 0.0
v 15.0 -8.0 0.0
v 15.0 -8.0 0.0
v 16.0 -8.0 0.0
v 16.0 -7.0 0.0
v 15.0 -7.0 0.0
v 15.0 -7.0 0.0
v 16.0 -7.0 0.0
v 16.0 -6.0 0.0
v 15.0 -6.0 0.0
v 15.0 -6.0 0.0
v 16.0 -6.0 0.0
v 16.0 -5.0 0.0
v 15.0 -5.0 0.0
v 15.0 -5.0 0.0
v 16.0 -5.0 0.0
v 16.0 -4.0 0.0
v 15.0 -4.0 0.0
v 15.0 -4.0 0.0
v 16.0 -4.0 0.0
v 16.0 -3.0 0.0
v 15.0 -3.0 0.0
v 15.0 -3.0 0.0
v 16.0 -3.0 0.0
v 16.0 -2.0 0.0
v 15.0 -2.0 0.0
v 15.0 -2.0 0.0
v 16.0 -2.0 0.0
v 16.0 -1.0 0.0
v 15.0 -1.0 0.0
v 15.0 -1.0 0.0
v 16.0 -1.0 0.0
v 16.0 0.0 0.0
v 15.0 0.0 0.0
v 15.0 0.0 0.0
v 16.0 0.0 0.0
v 16.0 1.0 0.0
v 15.0 1.0 0.0
v 15.0 1.0 0.0
v 16.0 1.0 0.0
v 16.0 2.0 0.0
v 15.0 2.0 0.0
v 15.0 2.0 0.0
v 16.0 2.0 0.0
v 16.0 3.0 0.0
v 15.0 3.0 0.0
v 15.0 3.0 0.0
v 16.0 3.0 0.0
v 16.0 4.0 0.0
v 15.0 4.0 0.0
v 15.0 4.0 0.0
v 16.0 4.0 0.0
v 16.0 5.0 0.0
v 15.0 5.0 0.0
v 15.0 5.0 0.0
v 16.0 5.0 0.0
v 16.0 6.0 0.0
v 15.0 6.0 0.0
v 15.0 6.0 0.0
v 16.0 6.0 0.0
v 16.0 7.0 0.0
v 15.0 7.0 0.0
v 15.0 7.0 0.0
v 16.0 7.0 0.0
v 16.0 8.0 0.0
v 15.0 8.0 0.0
v 15.0 8.0 0.0
v 16.0 8.0 0.0
v 16.0 9.0 0.0
v 15.0 9.0 0.0
v 15.0 9.0 0.0
v 16.0 9.0 0.0
v 16.0 10.0 0.0
v 15.0 10.0 0.0
v 15.0 10.0 0.0
v 16.0 10.0 0.0
v 16.0 11.0 0.0
v 15.0 11.0 0.0
v 15.0 11.0 0.0
v 16.0 11.0 0.0
v 16.0 12.0 0.0
v 15.0 12.0 0.0
v 15.0 12.0 0.0
v 16.0 12.0 0.0
v 16.0 13.0 0.0
v 15.0 13.0 0.0
v 15.0 13.0 0.0
v 16.0 13.0 0.0
v 16.0 14.0 0.0
v 15.0 14.0 0.0
v 15.0 14.0 0.0
v 16.0 14.0 0.0
v 16.0 15.0 0.0
v 15.0 15.0 0.0
v 15.0 15.0 0.0
v 16.0 15.0 0.0
v 16.0 16.0 0.0
v 15.0 16.0 0.0
vt 0.0625 0.9375
vt 0.0625 0.9375
vt 0.0625 0.9375
vt 0.0625 0.9375
vt 0.0625 0.9375
vt 0.0625 0.9375
vt 0.0625 0.9375
vt 0.0625 0.9375
vt 0.0625 0.9375
vt 0.0625 0.9375
vt 0.0625 0.9375
vt 0.0625 0.9375
vt 0.0625 0.9375
vt 0.0625 0.9375
vt 0.0625 0.9375
vt 0.0625 0.9375
vt 0.0625 0.9375
vt 0.0625 0.9375
vt 0.0625 0.9375
vt 0.0625 0.9375
vt 0.0625 0.9375
vt 0.0625 0.9375
vt 0.0625 0.9375
vt 0.0625 0.9375
vt 0.0625 0.9375
vt 0.0625 0.9375
vt 0.0625 0.9375
vt 0.0625 0.9375
vt 0.0625 0.9375
vt 0.0625 0.9375
vt 0.0625 0.9375
vt 0.0625 0.9375
vt 0.0625 0.9375
vt 0.0625 0.9375
vt 0.0625 0.9375
vt 0.0625 0.9375
vt 32.0 3.0
vt 32.0 4.0
vt 31.0 3.0
vt 31.0 4.0
vt 32.0 4.0
vt 32.0 5.0
vt 31.0 4.0
vt 31.0 5.0
vt 32.0 5.0
vt 32.0 6.0
vt 31.0 5.0
vt 31.0 6.0
vt 32.0 6.0
vt 32.0 7.0
vt 31.0 6.0
vt 31.0 7.0
vt 32.0 7.0
vt 32.0 8.0
vt 31.0 7.0
vt 31.0 8.0
vt 32.0 8.0
vt 32.0 9.0
vt 31.0 8.0
vt 31.0 9.0
vt 32.0 9.0
vt 32.0 10.0
vt 31.0 9.0
vt 31.0 10.0
vt 32.0 10.0
vt 32.0 11.0
vt 31.0 10.0
vt 31.0 11.0
vt 32.0 11.0
vt 32.0 12.0
vt 31.0 11.0
vt 31.0 12.0
vt 32.0 12.0
vt 32.0 13.0
vt 31.0 12.0
vt 31.0 13.0
vt 32.0 13.0
vt 32.0 14.0
vt 31.0 13.0
vt 31.0 14.0
vt 32.0 14.0
vt 32.0 15.0
vt 31.0 14.0
vt 31.0 15.0
vt 32.0 15.0
vt 32.0 16.0
vt 31.0 15.0
vt 31.0 16.0
vt 32.0 16.0
vt 31.0 17.0
vt 31.0 16.0
vt 32.0 17.0
vt 31.0 17.0
vt 32.0 18.0
vt 32.0 17.0
vt 31.0 18.0
vt 32.0 18.0
vt 31.0 19.0
vt 31.0 18.0
vt 32.0 19.0
vt 31.0 19.0
vt 32.0 20.0
vt 32.0 19.0
vt 31.0 20.0
vt 32.0 20.0
vt 31.0 21.0
vt 31.0 20.0
vt 32.0 21.0
vt 31.0 21.0
vt 32.0 22.0
vt 32.0 21.0
vt 31.0 22.0
vt 32.0 22.0
vt 31.0 23.0
vt 31.0 22.0
vt 32.0 23.0
vt 31.0 23.0
vt 32.0 24.0
vt 32.0 23.0
vt 31.0 24.0
vt 32.0 24.0
vt 31.0 25.0
vt 31.0 24.0
vt 32.0 25.0
vt 31.0 25.0
vt 32.0 26.0
vt 32.0 25.0
vt 31.0 26.0
vt 32.0 26.0
vt 31.0 27.0
vt 31.0 26.0
vt 32.0 27.0
vt 31.0 27.0
vt 32.0 28.0
vt 32.0 27.0
vt 31.0 28.0
vt 32.0 28.0
vt 31.0 29.0
vt 31.0 28.0
vt 32.0 29.0
vt 31.0 29.0
vt 32.0 30.0
vt 32.0 29.0
vt 31.0 30.0
vt 32.0 30.0
vt 31.0 31.0
vt 31.0 30.0
vt 32.0 31.0
vt 31.0 31.0
vt 32.0 32.0
vt 32.0 31.0
vt 31.0 32.0
vn 0.0 -0.0 1.0
vn 0.0 -0.0 1.0
vn 0.0 -0.0 1.0
vn 0.0 -0.0 1.0
vn 0.0 -0.0 1.0
vn 0.0 -0.0 1.0
vn 0.0 -0.0 1.0
vn 0.0 -0.0 1.0
vn 0.0 -0.0 1.0
vn 0.0 -0.0 1.0
vn 0.0 -0.0 1.0
vn 0.0 -0.0 1.0
vn 0.0 -0.0 1.0
vn 0.0 -0.0 1.0
vn 0.0 -0.0 1.0
vn 0.0 -0.0 1.0
vn 0.0 -0.0 1.0
vn 0.0 -0.0 1.0
vn 0.0 -0.0 1.0
vn 0.0 -0.0 1.0
vn 0.0 -0.0 1.0
vn 0.0 -0.0 1.0
vn 0.0 -0.0 1.0
vn 0.0 -0.0 1.0
vn 0.0 -0.0 1.0
vn 0.0 -0.0 1.0
vn 0.0 -0.0 1.0
vn 0.0 -0.0 1.0
vn 0.0 -0.0 1.0
vn 0.0 -0.0 1.0
vn 0.0 -0.0 1.0
vn 0.0 -0.0 1.0
vn 0.0 -0.0 1.0
vn 0.0 -0.0 1.0
vn 0.0 -0.0 1.0
vn 0.0 -0.0 1.0
vn 0.0 -0.0 1.0
vn 0.0 -0.0 1.0
c 1.0 1.0 1.0
c 1.0 1.0 1.0
c 1.0 1.0 1.0
c 1.0 1.0 1.0
c 1.0 1.0 1.0
c 1.0 1.0 1.0
c 1.0 1.0 1.0
c 1.0 1.0 1.0
c 1.0 1.0 1.0
c 0.0 0.0 0.0
c 1.0 1.0 1.0
c 0.019607844 0.019607844 0.019607844
c 1.0 1.0 1.0
c 0.011764706 0.011764706 0.011764706
c 1.0 1.0 1.0
c 0.011764706 0.011764706 0.011764706
c 1.0 1.0 1.0
c 0.011764706 0.011764706 0.011764706
c 1.0 1.0 1.0
c 0.011764706 0.011764706 0.011764706
c 1.0 1.0 1.0
c 0.011764706 0.011764706 0.011764706
c 1.0 1.0 1.0
c 0.011764706 0.011764706 0.011764706
c 1.0 1.0 1.0
c 0.011764706 0.011764706 0.011764706
c 1.0 1.0 1.0
c 0.011764706 0.011764706 0.011764706
c 1.0 1.0 1.0
c 0.011764706 0.011764706 0.011764706
c 1.0 1.0 1.0
c 0.011764706 0.011764706 0.011764706
c 1.0 1.0 1.0
c 0.011764706 0.011764706 0.011764706
c 1.0 1.0 1.0
c 0.011764706 0.011764706 0.011764706
c 1.0 1.0 1.0
c 0.011764706 0.011764706 0.011764706
c 1.0 1.0 1.0
c 0.011764706 0.011764706 0.011764706
c 1.0 1.0 1.0
c 0.011764706 0.011764706 0.011764706
c 1.0 1.0 1.0
c 0.011764706 0.011764706 0.011764706
c 1.0 1.0 1.0
c 0.011764706 0.011764706 0.011764706
c 1.0 1.0 1.0
c 0.011764706 0.011764706 0.011764706
c 1.0 1.0 1.0
c 0.011764706 0.011764706 0.011764706
c 1.0 1.0 1.0
c 0.011764706 0.011764706 0.011764706
c 1.0 1.0 1.0
c 0.011764706 0.011764706 0.011764706
c 1.0 1.0 1.0
c 0.011764706 0.011764706 0.011764706
c 1.0 1.0 1.0
c 0.011764706 0.011764706 0.011764706
c 1.0 1.0 1.0
c 0.011764706 0.011764706 0.011764706
c 1.0 1.0 1.0
c 0.011764706 0.011764706 0.011764706
c 1.0 1.0 1.0
c 0.011764706 0.011764706 0.011764706
c 1.0 1.0 1.0
c 0.011764706 0.011764706 0.011764706
c 1.0 1.0 1.0
c 0.011764706 0.011764706 0.011764706
usemtl gake_michi01
s off
f 37/39/10/12 38/37/10/10 39/38/10/11 40/40/10/12
f 41/43/11/14 42/41/11/13 43/42/11/13 44/44/11/14
f 45/47/12/16 46/45/12/15 47/46/12/15 48/48/12/16
f 49/51/13/18 50/49/13/17 51/50/13/17 52/52/13/18
f 53/55/14/20 54/53/14/19 55/54/14/19 56/56/14/20
f 57/59/15/22 58/57/15/21 59/58/15/21 60/60/15/22
f 61/63/16/24 62/61/16/23 63/62/16/23 64/64/16/24
f 65/67/17/26 66/65/17/25 67/66/17/25 68/68/17/26
f 69/71/18/28 70/69/18/27 71/70/18/27 72/72/18/28
f 73/75/19/30 74/73/19/29 75/74/19/29 76/76/19/30
f 77/79/20/32 78/77/20/31 79/78/20/31 80/80/20/32
f 81/83/21/34 82/81/21/33 83/82/21/33 84/84/21/34
f 85/87/22/36 86/85/22/35 87/86/22/35 88/88/22/36
f 89/91/23/38 90/89/23/37 91/92/23/37 92/90/23/38
f 93/93/24/40 94/95/24/39 95/94/24/39 96/96/24/40
f 97/99/25/42 98/97/25/41 99/100/25/41 100/98/25/42
f 101/101/26/44 102/103/26/43 103/102/26/43 104/104/26/44
f 105/107/27/46 106/105/27/45 107/108/27/45 108/106/27/46
f 109/109/28/48 110/111/28/47 111/110/28/47 112/112/28/48
f 113/115/29/50 114/113/29/49 115/116/29/49 116/114/29/50
f 117/117/30/52 118/119/30/51 119/118/30/51 120/120/30/52
f 121/123/31/54 122/121/31/53 123/124/31/53 124/122/31/54
f 125/125/32/56 126/127/32/55 127/126/32/55 128/128/32/56
f 129/131/33/58 130/129/33/57 131/132/33/57 132/130/33/58
f 133/133/34/60 134/135/34/59 135/134/34/59 136/136/34/60
f 137/139/35/62 138/137/35/61 139/140/35/61 140/138/35/62
f 141/141/36/64 142/143/36/63 143/142/36/63 144/144/36/64
f 145/147/37/66 146/145/37/65 147/148/37/65 148/146/37/66
f 149/149/38/68 150/151/38/67 151/150/38/67 152/152/38/68
usemtl d0gake_heri
s off
f 1/1/1/1 2/2/1/1 3/3/1/1 4/4/1/1
f 5/5/2/2 6/6/2/2 7/7/2/2 8/8/2/2
f 9/9/3/3 10/10/3/3 11/11/3/3 12/12/3/3
f 13/13/4/4 14/14/4/4 15/15/4/4 16/16/4/4
f 17/17/5/5 18/18/5/5 19/19/5/5 20/20/5/5
f 21/21/6/6 22/22/6/6 23/23/6/6 24/24/6/6
f 25/25/7/7 26/26/7/7 27/27/7/7 28/28/7/7
f 29/29/8/8 30/30/8/8 31/31/8/8 32/32/8/8
f 33/33/9/9 34/34/9/9 35/35/9/9 36/36/9/9
