mtllib Uluru-Cave-2_01_00.mtl
o map
v -16.0 -16.0 3.000002
v -8.0 -16.0 3.000002
v -8.0 -8.0 3.0000029
v -16.0 -8.0 3.0000029
v -16.0 -8.0 3.000002
v -8.0 -8.0 3.000002
v -8.0 0.0 3.0000029
v -16.0 0.0 3.0000029
v -16.0 0.0 3.000002
v -8.0 0.0 3.000002
v -8.0 8.0 3.0000029
v -16.0 8.0 3.0000029
v -16.0 8.0 3.000002
v -8.0 8.0 3.000002
v -8.0 16.0 3.0000029
v -16.0 16.0 3.0000029
v -8.0 -16.0 3.000002
v 0.0 -16.0 3.000002
v 0.0 -8.0 3.0000029
v -8.0 -8.0 3.0000029
v -8.0 -8.0 3.000002
v 0.0 -8.0 3.000002
v 0.0 0.0 3.0000029
v -8.0 0.0 3.0000029
v -8.0 0.0 3.000002
v 0.0 0.0 3.000002
v 0.0 8.0 3.0000029
v -8.0 8.0 3.0000029
v -8.0 8.0 3.000002
v 0.0 8.0 3.000002
v 0.0 16.0 3.0000029
v -8.0 16.0 3.0000029
v 0.0 -16.0 3.000002
v 8.0 -16.0 3.000002
v 8.0 -8.0 3.0000029
v 0.0 -8.0 3.0000029
v 0.0 -8.0 3.000002
v 8.0 -8.0 3.000002
v 8.0 0.0 3.0000029
v 0.0 0.0 3.0000029
v 0.0 0.0 3.000002
v 8.0 0.0 3.000002
v 8.0 8.0 3.0000029
v 0.0 8.0 3.0000029
v 0.0 8.0 3.000002
v 8.0 8.0 3.000002
v 8.0 16.0 3.0000029
v 0.0 16.0 3.0000029
v 8.0 -16.0 3.000002
v 12.0 -16.0 3.000002
v 12.0 -8.0 3.0000029
v 8.0 -8.0 3.0000029
v 8.0 -8.0 3.000002
v 12.0 -8.0 3.000002
v 12.0 0.0 3.0000029
v 8.0 0.0 3.0000029
v 8.0 0.0 3.000002
v 12.0 0.0 3.000002
v 12.0 8.0 3.0000029
v 8.0 8.0 3.0000029
v 8.0 8.0 3.000002
v 12.0 8.0 3.000002
v 12.0 16.0 3.0000029
v 8.0 16.0 3.0000029
v 12.0 -16.0 3.0
v 13.0 -16.0 3.0
v 13.0 -15.0 3.0
v 12.0 -15.0 3.0
v 12.0 -15.0 3.0
v 13.0 -15.0 3.0
v 13.0 -14.0 3.0
v 12.0 -14.0 3.0
v 12.0 -14.0 3.0
v 13.0 -14.0 3.0
v 13.0 -13.0 3.0
v 12.0 -13.0 3.0
v 12.0 -13.0 3.0
v 13.0 -13.0 3.0
v 13.0 -12.0 3.0
v 12.0 -12.0 3.0
v 12.0 -12.0 3.0
v 13.0 -12.0 3.0
v 13.0 -11.0 3.0
v 12.0 -11.0 3.0
v 12.0 -11.0 3.0
v 13.0 -11.0 3.0
v 13.0 -10.0 3.0
v 12.0 -10.0 3.0
v 12.0 -10.0 3.0
v 13.0 -10.0 3.0
v 13.0 -9.0 3.0
v 12.0 -9.0 3.0
v 12.0 -9.0 3.0
v 13.0 -9.0 3.0
v 13.0 -8.0 3.0
v 12.0 -8.0 3.0
v 12.0 -8.0 3.0
v 13.0 -8.0 3.0
v 13.0 -7.0 3.0
v 12.0 -7.0 3.0
v 12.0 -7.0 3.0
v 13.0 -7.0 3.0
v 13.0 -6.0 3.0
v 12.0 -6.0 3.0
v 12.0 -6.0 3.0
v 13.0 -6.0 3.0
v 13.0 -5.0 3.0
v 12.0 -5.0 3.0
v 12.0 -5.0 3.0
v 13.0 -5.0 3.0
v 13.0 -4.0 3.0
v 12.0 -4.0 3.0
v 12.0 -4.0 3.0
v 13.0 -4.0 3.0
v 13.0 -3.0 3.0
v 12.0 -3.0 3.0
v 12.0 -3.0 3.0
v 13.0 -3.0 3.0
v 13.0 -2.0 3.0
v 12.0 -2.0 3.0
v 12.0 -2.0 3.0
v 13.0 -2.0 3.0
v 13.0 -1.0 3.0
v 12.0 -1.0 3.0
v 12.0 -1.0 3.0
v 13.0 -1.0 3.0
v 13.0 0.0 3.0
v 12.0 0.0 3.0
v 12.0 0.0 3.0
v 13.0 0.0 3.0
v 13.0 1.0 3.0
v 12.0 1.0 3.0
v 12.0 1.0 3.0
v 13.0 1.0 3.0
v 13.0 2.0 3.0
v 12.0 2.0 3.0
v 12.0 2.0 3.0
v 13.0 2.0 3.0
v 13.0 3.0 3.0
v 12.0 3.0 3.0
v 12.0 3.0 3.0
v 13.0 3.0 3.0
v 13.0 4.0 3.0
v 12.0 4.0 3.0
v 12.0 4.0 3.0
v 13.0 4.0 3.0
v 13.0 5.0 3.0
v 12.0 5.0 3.0
v 12.0 5.0 3.0
v 13.0 5.0 3.0
v 13.0 6.0 3.0
v 12.0 6.0 3.0
v 12.0 6.0 3.0
v 13.0 6.0 3.0
v 13.0 7.0 3.0
v 12.0 7.0 3.0
v 12.0 7.0 3.0
v 13.0 7.0 3.0
v 13.0 8.0 3.0
v 12.0 8.0 3.0
v 12.0 8.0 3.0
v 13.0 8.0 3.0
v 13.0 9.0 3.0
v 12.0 9.0 3.0
v 12.0 9.0 3.0
v 13.0 9.0 3.0
v 13.0 10.0 3.0
v 12.0 10.0 3.0
v 12.0 10.0 3.0
v 13.0 10.0 3.0
v 13.0 11.0 3.0
v 12.0 11.0 3.0
v 12.0 11.0 3.0
v 13.0 11.0 3.0
v 13.0 12.0 3.0
v 12.0 12.0 3.0
v 12.0 12.0 3.0
v 13.0 12.0 3.0
v 13.0 13.0 3.0
v 12.0 13.0 3.0
v 12.0 13.0 3.0
v 13.0 13.0 3.0
v 13.0 14.0 3.0
v 12.0 14.0 3.0
v 12.0 14.0 3.0
v 13.0 14.0 3.0
v 13.0 15.0 3.0
v 12.0 15.0 3.0
v 12.0 15.0 3.0
v 13.0 15.0 3.0
v 13.0 16.0 3.0
v 12.0 16.0 3.0
v 13.0 -16.0 2.0
v 14.0 -16.0 2.0
v 14.0 -8.0 2.0
v 13.0 -8.0 2.0
v 13.0 -8.0 2.0
v 14.0 -8.0 2.0
v 14.0 0.0 2.0
v 13.0 0.0 2.0
v 13.0 0.0 2.0
v 14.0 0.0 2.0
v 14.0 8.0 2.0
v 13.0 8.0 2.0
v 13.0 8.0 2.0
v 14.0 8.0 2.0
v 14.0 16.0 2.0
v 13.0 16.0 2.0
v 14.0 -16.0 1.0
v 15.0 -16.0 1.0
v 15.0 -8.0 1.0
v 14.0 -8.0 1.0
v 14.0 -8.0 1.0
v 15.0 -8.0 1.0
v 15.0 0.0 1.0
v 14.0 0.0 1.0
v 14.0 0.0 1.0
v 15.0 0.0 1.0
v 15.0 8.0 1.0
v 14.0 8.0 1.0
v 14.0 8.0 1.0
v 15.0 8.0 1.0
v 15.0 16.0 1.0
v 14.0 16.0 1.0
v 15.0 -16.0 0.0
v 16.0 -16.0 0.0
v 16.0 -8.0 0.0
v 15.0 -8.0 0.0
v 15.0 -8.0 0.0
v 16.0 -8.0 0.0
v 16.0 0.0 0.0
v 15.0 0.0 0.0
v 15.0 0.0 0.0
v 16.0 0.0 0.0
v 16.0 8.0 0.0
v 15.0 8.0 0.0
v 15.0 8.0 0.0
v 16.0 8.0 0.0
v 16.0 16.0 0.0
v 15.0 16.0 0.0
v 13.5 -16.0 2.75
v 14.0 -16.0 2.0
v 14.0 -8.0 2.0
v 13.500001 -8.0 2.75
v 13.0 -16.0 3.0
v 13.0 -8.0 3.0
v 13.5 -8.0 2.75
v 14.0 -8.0 2.0
v 14.0 0.0 2.0
v 13.500001 0.0 2.75
v 13.0 -8.0 3.0
v 13.0 0.0 3.0
v 13.5 0.0 2.75
v 14.0 0.0 2.0
v 14.0 8.0 2.0
v 13.500001 8.0 2.75
v 13.0 0.0 3.0
v 13.0 8.0 3.0
v 13.5 8.0 2.75
v 14.0 8.0 2.0
v 14.0 16.0 2.0
v 13.500001 16.0 2.75
v 13.0 8.0 3.0
v 13.0 16.0 3.0
v 14.5 -16.0 1.75
v 15.0 -16.0 1.0
v 15.0 -8.0 1.0
v 14.500001 -8.0 1.75
v 14.0 -16.0 2.0
v 14.0 -8.0 2.0
v 14.5 -8.0 1.75
v 15.0 -8.0 1.0
v 15.0 0.0 1.0
v 14.500001 0.0 1.75
v 14.0 -8.0 2.0
v 14.0 0.0 2.0
v 14.5 0.0 1.75
v 15.0 0.0 1.0
v 15.0 8.0 1.0
v 14.500001 8.0 1.75
v 14.0 0.0 2.0
v 14.0 8.0 2.0
v 14.5 8.0 1.75
v 15.0 8.0 1.0
v 15.0 16.0 1.0
v 14.500001 16.0 1.75
v 14.0 8.0 2.0
v 14.0 16.0 2.0
v 15.5 -16.0 0.75
v 16.0 -16.0 0.0
v 16.0 -8.0 0.0
v 15.500001 -8.0 0.75
v 15.0 -16.0 1.0
v 15.0 -8.0 1.0
v 15.5 -8.0 0.75
v 16.0 -8.0 0.0
v 16.0 0.0 0.0
v 15.500001 0.0 0.75
v 15.0 -8.0 1.0
v 15.0 0.0 1.0
v 15.5 0.0 0.75
v 16.0 0.0 0.0
v 16.0 8.0 0.0
v 15.500001 8.0 0.75
v 15.0 0.0 1.0
v 15.0 8.0 1.0
v 15.5 8.0 0.75
v 16.0 8.0 0.0
v 16.0 16.0 0.0
v 15.500001 16.0 0.75
v 15.0 8.0 1.0
v 15.0 16.0 1.0
vt 0.0625 0.9375
vt 0.0625 0.9375
vt 0.0625 0.9375
vt 0.0625 0.9375
vt 0.0625 0.9375
vt 0.0625 0.9375
vt 0.0625 0.9375
vt 0.0625 0.9375
vt 0.0625 0.9375
vt 0.0625 0.9375
vt 0.0625 0.9375
vt 0.0625 0.9375
vt 0.0625 0.9375
vt 0.0625 0.9375
vt 0.0625 0.9375
vt 0.0625 0.9375
vt 0.0625 0.9375
vt 0.0625 0.9375
vt 0.0625 0.9375
vt 0.0625 0.9375
vt 0.0625 0.9375
vt 0.0625 0.9375
vt 0.0625 0.9375
vt 0.0625 0.9375
vt 0.0625 0.9375
vt 0.0625 0.9375
vt 0.0625 0.9375
vt 0.0625 0.9375
vt 0.0625 0.9375
vt 0.0625 0.9375
vt 0.0625 0.9375
vt 0.0625 0.9375
vt 0.0625 0.9375
vt 0.0625 0.9375
vt 0.0625 0.9375
vt 0.0625 0.9375
vt 0.0625 0.9375
vt 0.0625 0.9375
vt 0.0625 0.9375
vt 0.0625 0.9375
vt 0.0625 0.9375
vt 0.0625 0.9375
vt 0.0625 0.9375
vt 0.0625 0.9375
vt 0.0625 0.9375
vt 0.0625 0.9375
vt 0.0625 0.9375
vt 0.0625 0.9375
vt 0.0625 0.9375
vt 0.0625 0.9375
vt 0.0625 0.9375
vt 0.0625 0.9375
vt 0.0625 0.9375
vt 0.0625 0.9375
vt 0.0625 0.9375
vt 0.0625 0.9375
vt 0.0625 0.9375
vt 0.0625 0.9375
vt 0.0625 0.9375
vt 0.0625 0.9375
vt 0.0625 0.9375
vt 0.0625 0.9375
vt 0.0625 0.9375
vt 0.0625 0.9375
vt 28.0 0.0
vt 28.0 1.0
vt 29.0 0.0
vt 29.0 1.0
vt 28.0 1.0
vt 28.0 2.0
vt 29.0 1.0
vt 29.0 2.0
vt 28.0 2.0
vt 28.0 3.0
vt 29.0 2.0
vt 29.0 3.0
vt 28.0 3.0
vt 28.0 4.0
vt 29.0 3.0
vt 29.0 4.0
vt 28.0 4.0
vt 28.0 5.0
vt 29.0 4.0
vt 29.0 5.0
vt 28.0 5.0
vt 28.0 6.0
vt 29.0 5.0
vt 29.0 6.0
vt 28.0 6.0
vt 28.0 7.0
vt 29.0 6.0
vt 29.0 7.0
vt 28.0 7.0
vt 28.0 8.0
vt 29.0 7.0
vt 29.0 8.0
vt 28.0 8.0
vt 28.0 9.0
vt 29.0 8.0
vt 29.0 9.0
vt 28.0 9.0
vt 28.0 10.0
vt 29.0 9.0
vt 29.0 10.0
vt 28.0 10.0
vt 28.0 11.0
vt 29.0 10.0
vt 29.0 11.0
vt 28.0 11.0
vt 28.0 12.0
vt 29.0 11.0
vt 29.0 12.0
vt 28.0 12.0
vt 28.0 13.0
vt 29.0 12.0
vt 29.0 13.0
vt 28.0 13.0
vt 28.0 14.0
vt 29.0 13.0
vt 29.0 14.0
vt 28.0 14.0
vt 28.0 15.0
vt 29.0 14.0
vt 29.0 15.0
vt 28.0 15.0
vt 28.0 16.0
vt 29.0 15.0
vt 29.0 16.0
vt 28.0 16.0
vt 29.0 17.0
vt 29.0 16.0
vt 28.0 17.0
vt 29.0 17.0
vt 28.0 18.0
vt 28.0 17.0
vt 29.0 18.0
vt 28.0 18.0
vt 29.0 19.0
vt 29.0 18.0
vt 28.0 19.0
vt 29.0 19.0
vt 28.0 20.0
vt 28.0 19.0
vt 29.0 20.0
vt 28.0 20.0
vt 29.0 21.0
vt 29.0 20.0
vt 28.0 21.0
vt 29.0 21.0
vt 28.0 22.0
vt 28.0 21.0
vt 29.0 22.0
vt 28.0 22.0
vt 29.0 23.0
vt 29.0 22.0
vt 28.0 23.0
vt 29.0 23.0
vt 28.0 24.0
vt 28.0 23.0
vt 29.0 24.0
vt 28.0 24.0
vt 29.0 25.0
vt 29.0 24.0
vt 28.0 25.0
vt 29.0 25.0
vt 28.0 26.0
vt 28.0 25.0
vt 29.0 26.0
vt 28.0 26.0
vt 29.0 27.0
vt 29.0 26.0
vt 28.0 27.0
vt 29.0 27.0
vt 28.0 28.0
vt 28.0 27.0
vt 29.0 28.0
vt 28.0 28.0
vt 29.0 29.0
vt 29.0 28.0
vt 28.0 29.0
vt 29.0 29.0
vt 28.0 30.0
vt 28.0 29.0
vt 29.0 30.0
vt 28.0 30.0
vt 29.0 31.0
vt 29.0 30.0
vt 28.0 31.0
vt 29.0 31.0
vt 28.0 32.0
vt 28.0 31.0
vt 29.0 32.0
vt 7.5 0.0
vt 7.5 2.0
vt 7.25 0.0
vt 7.25 2.0
vt 7.5 2.0
vt 7.5 4.0
vt 7.25 2.0
vt 7.25 4.0
vt 7.5 4.0
vt 7.5 6.0
vt 7.25 4.0
vt 7.25 6.0
vt 7.5 6.0
vt 7.5 8.0
vt 7.25 6.0
vt 7.25 8.0
vt 7.5 0.0
vt 7.5 2.0
vt 7.75 0.0
vt 7.75 2.0
vt 7.5 2.0
vt 7.5 4.0
vt 7.75 2.0
vt 7.75 4.0
vt 7.5 4.0
vt 7.5 6.0
vt 7.75 4.0
vt 7.75 6.0
vt 7.5 6.0
vt 7.5 8.0
vt 7.75 6.0
vt 7.75 8.0
vt 8.0 0.0
vt 8.0 2.0
vt 7.75 0.0
vt 7.75 2.0
vt 8.0 2.0
vt 8.0 4.0
vt 7.75 2.0
vt 7.75 4.0
vt 8.0 4.0
vt 8.0 6.0
vt 7.75 4.0
vt 7.75 6.0
vt 8.0 6.0
vt 8.0 8.0
vt 7.75 6.0
vt 7.75 8.0
vt 0.0 0.0
vt 0.0 -1.0
vt 8.0 -1.0
vt 8.0 0.0
vt 0.0 -6.0E-5
vt 0.0 -1.0
vt 8.000424 -1.0
vt 8.000024 -6.0E-5
vt 0.0 0.0
vt 0.0 -1.0
vt 8.0 -1.0
vt 8.0 0.0
vt 0.0 -6.0E-5
vt 0.0 -1.0
vt 8.000424 -1.0
vt 8.000024 -6.0E-5
vt 0.0 0.0
vt 0.0 -1.0
vt 8.0 -1.0
vt 8.0 0.0
vt 0.0 -6.0E-5
vt 0.0 -1.0
vt 8.000424 -1.0
vt 8.000024 -6.0E-5
vt 0.0 0.0
vt 0.0 -1.0
vt 8.0 -1.0
vt 8.0 0.0
vt 0.0 -6.0E-5
vt 0.0 -1.0
vt 8.000424 -1.0
vt 8.000024 -6.0E-5
vt 0.0 0.0
vt 0.0 -1.0
vt 8.0 -1.0
vt 8.0 0.0
vt 0.0 -6.0E-5
vt 0.0 -1.0
vt 8.000424 -1.0
vt 8.000024 -6.0E-5
vt 0.0 0.0
vt 0.0 -1.0
vt 8.0 -1.0
vt 8.0 0.0
vt 0.0 -6.0E-5
vt 0.0 -1.0
vt 8.000424 -1.0
vt 8.000024 -6.0E-5
vt 0.0 0.0
vt 0.0 -1.0
vt 8.0 -1.0
vt 8.0 0.0
vt 0.0 -6.0E-5
vt 0.0 -1.0
vt 8.000424 -1.0
vt 8.000024 -6.0E-5
vt 0.0 0.0
vt 0.0 -1.0
vt 8.0 -1.0
vt 8.0 0.0
vt 0.0 -6.0E-5
vt 0.0 -1.0
vt 8.000424 -1.0
vt 8.000024 -6.0E-5
vt 0.0 0.0
vt 0.0 -1.0
vt 8.0 -1.0
vt 8.0 0.0
vt 0.0 -6.0E-5
vt 0.0 -1.0
vt 8.000424 -1.0
vt 8.000024 -6.0E-5
vt 0.0 0.0
vt 0.0 -1.0
vt 8.0 -1.0
vt 8.0 0.0
vt 0.0 -6.0E-5
vt 0.0 -1.0
vt 8.000424 -1.0
vt 8.000024 -6.0E-5
vt 0.0 0.0
vt 0.0 -1.0
vt 8.0 -1.0
vt 8.0 0.0
vt 0.0 -6.0E-5
vt 0.0 -1.0
vt 8.000424 -1.0
vt 8.000024 -6.0E-5
vt 0.0 0.0
vt 0.0 -1.0
vt 8.0 -1.0
vt 8.0 0.0
vt 0.0 -6.0E-5
vt 0.0 -1.0
vt 8.000424 -1.0
vt 8.000024 -6.0E-5
vn 0.0 -0.0 1.0
vn 0.0 -0.0 1.0
vn 0.0 -0.0 1.0
vn 0.0 -0.0 1.0
vn 0.0 -0.0 1.0
vn 0.0 -0.0 1.0
vn 0.0 -0.0 1.0
vn 0.0 -0.0 1.0
vn 0.0 -0.0 1.0
vn 0.0 -0.0 1.0
vn 0.0 -0.0 1.0
vn 0.0 -0.0 1.0
vn 0.0 -0.0 1.0
vn 0.0 -0.0 1.0
vn 0.0 -0.0 1.0
vn 0.0 -0.0 1.0
vn 0.0 -0.0 1.0
vn 0.0 -0.0 1.0
vn 0.0 -0.0 1.0
vn 0.0 -0.0 1.0
vn 0.0 -0.0 1.0
vn 0.0 -0.0 1.0
vn 0.0 -0.0 1.0
vn 0.0 -0.0 1.0
vn 0.0 -0.0 1.0
vn 0.0 -0.0 1.0
vn 0.0 -0.0 1.0
vn 0.0 -0.0 1.0
vn 0.0 -0.0 1.0
vn 0.0 -0.0 1.0
vn 0.0 -0.0 1.0
vn 0.0 -0.0 1.0
vn 0.0 -0.0 1.0
vn 0.0 -0.0 1.0
vn 0.0 -0.0 1.0
vn 0.0 -0.0 1.0
vn 0.0 -0.0 1.0
vn 0.0 -0.0 1.0
vn 0.0 -0.0 1.0
vn 0.0 -0.0 1.0
vn 0.0 -0.0 1.0
vn 0.0 -0.0 1.0
vn 0.0 -0.0 1.0
vn 0.0 -0.0 1.0
vn 0.0 -0.0 1.0
vn 0.0 -0.0 1.0
vn 0.0 -0.0 1.0
vn 0.0 -0.0 1.0
vn 0.0 -0.0 1.0
vn 0.0 -0.0 1.0
vn 0.0 -0.0 1.0
vn 0.0 -0.0 1.0
vn 0.0 -0.0 1.0
vn 0.0 -0.0 1.0
vn 0.0 -0.0 1.0
vn 0.0 -0.0 1.0
vn 0.0 -0.0 1.0
vn 0.0 -0.0 1.0
vn 0.0 -0.0 1.0
vn 0.0 -0.0 1.0
vn 0.7071 -0.0 0.7071
vn 0.8321 -0.0 0.5547
vn 0.0434 0.0 0.9991
vn 0.7071 -0.0 0.7071
vn 0.8321 -0.0 0.5547
vn 0.0434 0.0 0.9991
vn 0.7071 -0.0 0.7071
vn 0.8321 -0.0 0.5547
vn 0.0434 0.0 0.9991
vn 0.7071 -0.0 0.7071
vn 0.8321 -0.0 0.5547
vn 0.0434 0.0 0.9991
vn 0.7071 -0.0 0.7071
vn 0.8321 -0.0 0.5547
vn 0.0434 0.0 0.9991
vn 0.7071 -0.0 0.7071
vn 0.8321 -0.0 0.5547
vn 0.0434 0.0 0.9991
vn 0.7071 -0.0 0.7071
vn 0.8321 -0.0 0.5547
vn 0.0434 0.0 0.9991
vn 0.7071 -0.0 0.7071
vn 0.8321 -0.0 0.5547
vn 0.0434 0.0 0.9991
vn 0.7071 -0.0 0.7071
vn 0.8321 -0.0 0.5547
vn 0.0434 0.0 0.9991
vn 0.7071 -0.0 0.7071
vn 0.8321 -0.0 0.5547
vn 0.0434 0.0 0.9991
vn 0.7071 -0.0 0.7071
vn 0.8321 -0.0 0.5547
vn 0.0434 0.0 0.9991
vn 0.7071 -0.0 0.7071
vn 0.8321 -0.0 0.5547
vn 0.0434 0.0 0.9991
c 1.0 1.0 1.0
c 1.0 1.0 1.0
c 1.0 1.0 1.0
c 1.0 1.0 1.0
c 1.0 1.0 1.0
c 1.0 1.0 1.0
c 1.0 1.0 1.0
c 1.0 1.0 1.0
c 1.0 1.0 1.0
c 1.0 1.0 1.0
c 1.0 1.0 1.0
c 1.0 1.0 1.0
c 1.0 1.0 1.0
c 1.0 1.0 1.0
c 1.0 1.0 1.0
c 1.0 1.0 1.0
c 1.0 1.0 1.0
c 0.011764706 0.011764706 0.011764706
c 1.0 1.0 1.0
c 0.011764706 0.011764706 0.011764706
c 1.0 1.0 1.0
c 0.011764706 0.011764706 0.011764706
c 1.0 1.0 1.0
c 0.011764706 0.011764706 0.011764706
c 1.0 1.0 1.0
c 0.011764706 0.011764706 0.011764706
c 1.0 1.0 1.0
c 0.011764706 0.011764706 0.011764706
c 1.0 1.0 1.0
c 0.011764706 0.011764706 0.011764706
c 1.0 1.0 1.0
c 0.011764706 0.011764706 0.011764706
c 1.0 1.0 1.0
c 0.011764706 0.011764706 0.011764706
c 1.0 1.0 1.0
c 0.011764706 0.011764706 0.011764706
c 1.0 1.0 1.0
c 0.011764706 0.011764706 0.011764706
c 1.0 1.0 1.0
c 0.011764706 0.011764706 0.011764706
c 1.0 1.0 1.0
c 0.011764706 0.011764706 0.011764706
c 1.0 1.0 1.0
c 0.011764706 0.011764706 0.011764706
c 1.0 1.0 1.0
c 0.011764706 0.011764706 0.011764706
c 1.0 1.0 1.0
c 0.011764706 0.011764706 0.011764706
c 1.0 1.0 1.0
c 0.011764706 0.011764706 0.011764706
c 1.0 1.0 1.0
c 0.011764706 0.011764706 0.011764706
c 1.0 1.0 1.0
c 0.011764706 0.011764706 0.011764706
c 1.0 1.0 1.0
c 0.011764706 0.011764706 0.011764706
c 1.0 1.0 1.0
c 0.011764706 0.011764706 0.011764706
c 1.0 1.0 1.0
c 0.011764706 0.011764706 0.011764706
c 1.0 1.0 1.0
c 0.011764706 0.011764706 0.011764706
c 1.0 1.0 1.0
c 0.011764706 0.011764706 0.011764706
c 1.0 1.0 1.0
c 0.011764706 0.011764706 0.011764706
c 1.0 1.0 1.0
c 0.011764706 0.011764706 0.011764706
c 1.0 1.0 1.0
c 0.011764706 0.011764706 0.011764706
c 1.0 1.0 1.0
c 0.011764706 0.011764706 0.011764706
c 1.0 1.0 1.0
c 0.011764706 0.011764706 0.011764706
c 1.0 1.0 1.0
c 0.011764706 0.011764706 0.011764706
c 1.0 1.0 1.0
c 0.011764706 0.011764706 0.011764706
c 1.0 1.0 1.0
c 0.011764706 0.011764706 0.011764706
c 1.0 1.0 1.0
c 1.0 1.0 1.0
c 1.0 1.0 1.0
c 1.0 1.0 1.0
c 1.0 1.0 1.0
c 1.0 1.0 1.0
c 1.0 1.0 1.0
c 1.0 1.0 1.0
c 1.0 1.0 1.0
c 1.0 1.0 1.0
c 1.0 1.0 1.0
c 1.0 1.0 1.0
c 1.0 1.0 1.0
c 1.0 1.0 1.0
c 1.0 1.0 1.0
c 1.0 1.0 1.0
c 1.0 1.0 1.0
c 1.0 1.0 1.0
c 1.0 1.0 1.0
c 1.0 1.0 1.0
c 1.0 1.0 1.0
c 1.0 1.0 1.0
c 1.0 1.0 1.0
c 1.0 1.0 1.0
usemtl gake_michi01
s off
f 65/65/17/18 66/67/17/17 67/68/17/17 68/66/17/18
f 69/69/18/20 70/71/18/19 71/72/18/19 72/70/18/20
f 73/73/19/22 74/75/19/21 75/76/19/21 76/74/19/22
f 77/77/20/24 78/79/20/23 79/80/20/23 80/78/20/24
f 81/81/21/26 82/83/21/25 83/84/21/25 84/82/21/26
f 85/85/22/28 86/87/22/27 87/88/22/27 88/86/22/28
f 89/89/23/30 90/91/23/29 91/92/23/29 92/90/23/30
f 93/93/24/32 94/95/24/31 95/96/24/31 96/94/24/32
f 97/97/25/34 98/99/25/33 99/100/25/33 100/98/25/34
f 101/101/26/36 102/103/26/35 103/104/26/35 104/102/26/36
f 105/105/27/38 106/107/27/37 107/108/27/37 108/106/27/38
f 109/109/28/40 110/111/28/39 111/112/28/39 112/110/28/40
f 113/113/29/42 114/115/29/41 115/116/29/41 116/114/29/42
f 117/117/30/44 118/119/30/43 119/120/30/43 120/118/30/44
f 121/121/31/46 122/123/31/45 123/124/31/45 124/122/31/46
f 125/125/32/48 126/127/32/47 127/128/32/47 128/126/32/48
f 129/129/33/50 130/131/33/49 131/130/33/49 132/132/33/50
f 133/135/34/52 134/133/34/51 135/136/34/51 136/134/34/52
f 137/137/35/54 138/139/35/53 139/138/35/53 140/140/35/54
f 141/143/36/56 142/141/36/55 143/144/36/55 144/142/36/56
f 145/145/37/58 146/147/37/57 147/146/37/57 148/148/37/58
f 149/151/38/60 150/149/38/59 151/152/38/59 152/150/38/60
f 153/153/39/62 154/155/39/61 155/154/39/61 156/156/39/62
f 157/159/40/64 158/157/40/63 159/160/40/63 160/158/40/64
f 161/161/41/66 162/163/41/65 163/162/41/65 164/164/41/66
f 165/167/42/68 166/165/42/67 167/168/42/67 168/166/42/68
f 169/169/43/70 170/171/43/69 171/170/43/69 172/172/43/70
f 173/175/44/72 174/173/44/71 175/176/44/71 176/174/44/72
f 177/177/45/74 178/179/45/73 179/178/45/73 180/180/45/74
f 181/183/46/76 182/181/46/75 183/184/46/75 184/182/46/76
f 185/185/47/78 186/187/47/77 187/186/47/77 188/188/47/78
f 189/191/48/80 190/189/48/79 191/192/48/79 192/190/48/80
usemtl gake01
s off
f 241/241/61/93 242/242/62/93 243/243/62/93 244/244/61/93
f 247/249/64/94 248/250/65/94 249/251/65/94 250/252/64/94
f 253/257/67/95 254/258/68/95 255/259/68/95 256/260/67/95
f 259/265/70/96 260/266/71/96 261/267/71/96 262/268/70/96
f 265/273/73/97 266/274/74/97 267/275/74/97 268/276/73/97
f 271/281/76/98 272/282/77/98 273/283/77/98 274/284/76/98
f 277/289/79/99 278/290/80/99 279/291/80/99 280/292/79/99
f 283/297/82/100 284/298/83/100 285/299/83/100 286/300/82/100
f 289/305/85/101 290/306/86/101 291/307/86/101 292/308/85/101
f 295/313/88/102 296/314/89/102 297/315/89/102 298/316/88/102
f 301/321/91/103 302/322/92/103 303/323/92/103 304/324/91/103
f 307/329/94/104 308/330/95/104 309/331/95/104 310/332/94/104
usemtl gake1_3
s off
f 245/245/63/93 241/246/61/93 244/247/61/93 246/248/63/93
f 251/253/66/94 247/254/64/94 250/255/64/94 252/256/66/94
f 257/261/69/95 253/262/67/95 256/263/67/95 258/264/69/95
f 263/269/72/96 259/270/70/96 262/271/70/96 264/272/72/96
f 269/277/75/97 265/278/73/97 268/279/73/97 270/280/75/97
f 275/285/78/98 271/286/76/98 274/287/76/98 276/288/78/98
f 281/293/81/99 277/294/79/99 280/295/79/99 282/296/81/99
f 287/301/84/100 283/302/82/100 286/303/82/100 288/304/84/100
f 293/309/87/101 289/310/85/101 292/311/85/101 294/312/87/101
f 299/317/90/102 295/318/88/102 298/319/88/102 300/320/90/102
f 305/325/93/103 301/326/91/103 304/327/91/103 306/328/93/103
f 311/333/96/104 307/334/94/104 310/335/94/104 312/336/96/104
usemtl gake_michi
s off
f 193/195/49/81 194/193/49/81 195/194/49/81 196/196/49/81
f 197/199/50/82 198/197/50/82 199/198/50/82 200/200/50/82
f 201/203/51/83 202/201/51/83 203/202/51/83 204/204/51/83
f 205/207/52/84 206/205/52/84 207/206/52/84 208/208/52/84
f 209/209/53/85 210/211/53/85 211/212/53/85 212/210/53/85
f 213/213/54/86 214/215/54/86 215/216/54/86 216/214/54/86
f 217/217/55/87 218/219/55/87 219/220/55/87 220/218/55/87
f 221/221/56/88 222/223/56/88 223/224/56/88 224/222/56/88
f 225/227/57/89 226/225/57/89 227/226/57/89 228/228/57/89
f 229/231/58/90 230/229/58/90 231/230/58/90 232/232/58/90
f 233/235/59/91 234/233/59/91 235/234/59/91 236/236/59/91
f 237/239/60/92 238/237/60/92 239/238/60/92 240/240/60/92
usemtl d0gake_heri
s off
f 1/1/1/1 2/2/1/1 3/3/1/1 4/4/1/1
f 5/5/2/2 6/6/2/2 7/7/2/2 8/8/2/2
f 9/9/3/3 10/10/3/3 11/11/3/3 12/12/3/3
f 13/13/4/4 14/14/4/4 15/15/4/4 16/16/4/4
f 17/17/5/5 18/18/5/5 19/19/5/5 20/20/5/5
f 21/21/6/6 22/22/6/6 23/23/6/6 24/24/6/6
f 25/25/7/7 26/26/7/7 27/27/7/7 28/28/7/7
f 29/29/8/8 30/30/8/8 31/31/8/8 32/32/8/8
f 33/33/9/9 34/34/9/9 35/35/9/9 36/36/9/9
f 37/37/10/10 38/38/10/10 39/39/10/10 40/40/10/10
f 41/41/11/11 42/42/11/11 43/43/11/11 44/44/11/11
f 45/45/12/12 46/46/12/12 47/47/12/12 48/48/12/12
f 49/49/13/13 50/50/13/13 51/51/13/13 52/52/13/13
f 53/53/14/14 54/54/14/14 55/55/14/14 56/56/14/14
f 57/57/15/15 58/58/15/15 59/59/15/15 60/60/15/15
f 61/61/16/16 62/62/16/16 63/63/16/16 64/64/16/16
