# Blender 4.0.0
# www.blender.org
mtllib GALHQ8-1.mtl
o m_dun2605_00_00c
v 48.000000 -1.000014 -182.000000
v 112.000000 -1.000014 -182.000000
v 112.000000 -1.000016 -214.000000
v 48.000000 -1.000016 -214.000000
v 128.000000 -1.000003 -44.000000
v 256.000000 -1.000003 -44.000000
v 256.000000 -1.000008 -108.000000
v 128.000000 -1.000008 -108.000000
v -64.000000 -2.000000 -6.000000
v -64.000000 46.000000 -6.000003
v -96.000000 46.000000 -6.000003
v -96.000000 -2.000000 -6.000000
v 16.000000 45.999992 -118.000000
v 16.000000 -2.000009 -118.000000
v 48.000000 -2.000009 -118.000000
v 48.000000 45.999992 -118.000000
v -88.000000 29.999985 -210.000000
v -56.000000 29.999985 -210.000000
v -56.000000 45.999985 -212.000000
v -88.000000 45.999985 -212.000000
v 184.000000 29.999985 -210.000000
v 216.000000 29.999985 -210.000000
v 216.000000 45.999985 -212.000000
v 184.000000 45.999985 -212.000000
v 184.000000 30.000000 -2.000002
v 216.000000 30.000000 -2.000002
v 216.000000 46.000000 -4.000003
v 184.000000 46.000000 -4.000003
v 8.000000 30.000000 -2.000002
v 40.000000 30.000000 -2.000002
v 40.000000 46.000000 -4.000003
v 8.000000 46.000000 -4.000003
v -216.000000 30.000000 -2.000002
v -184.000000 30.000000 -2.000002
v -184.000000 46.000000 -4.000003
v -216.000000 46.000000 -4.000003
v -216.000000 13.000000 -5.000001
v -184.000000 13.000000 -5.000001
v -184.000000 45.000000 -5.000003
v -216.000000 45.000000 -5.000003
v -88.000000 12.999984 -213.000000
v -56.000000 12.999984 -213.000000
v -56.000000 44.999985 -213.000000
v -88.000000 44.999985 -213.000000
v 184.000000 12.999984 -213.000000
v 216.000000 12.999984 -213.000000
v 216.000000 44.999985 -213.000000
v 184.000000 44.999985 -213.000000
v 184.000000 13.000000 -5.000001
v 216.000000 13.000000 -5.000001
v 216.000000 45.000000 -5.000003
v 184.000000 45.000000 -5.000003
v 8.000000 13.000000 -5.000001
v 40.000000 13.000000 -5.000001
v 40.000000 45.000000 -5.000003
v 8.000000 45.000000 -5.000003
v 256.000000 46.000000 -6.000003
v 256.000000 45.999996 -32.000004
v 96.000000 46.000000 -6.000003
v 96.000000 45.999996 -32.000004
v 48.000000 46.000000 -6.000003
v 48.000000 45.999996 -32.000004
v -64.000000 46.000000 -6.000003
v -64.000000 45.999996 -32.000004
v -32.000000 45.999992 -118.000000
v -32.000000 45.999989 -128.000000
v -64.000000 45.999992 -118.000000
v -96.000000 45.999989 -128.000000
v -64.000000 45.999996 -32.000004
v -96.000000 46.000000 -6.000003
v 16.000000 45.999989 -128.000000
v 0.000000 45.999989 -128.000000
v 0.000000 45.999992 -118.000000
v 16.000000 45.999992 -118.000000
v 48.000000 45.999992 -118.000000
v 48.000000 45.999985 -214.000000
v 16.000000 45.999985 -198.000000
v 16.000000 45.999989 -128.000000
v -160.000000 45.999989 -128.000000
v -240.000000 45.999985 -214.000000
v -240.000000 46.000000 -6.000003
v -208.000000 46.000000 -6.000003
v -160.000000 45.999989 -128.000000
v -208.000000 46.000000 -6.000003
v -160.000000 46.000000 -6.000003
v -64.000000 46.000000 -6.000003
v -64.000000 45.999996 -32.000004
v -96.000000 46.000000 -6.000003
v -160.000000 45.999985 -214.000000
v -240.000000 45.999985 -214.000000
v -160.000000 45.999989 -128.000000
v 16.000000 45.999989 -128.000000
v 16.000000 45.999992 -118.000000
v 48.000000 45.999992 -118.000000
v 16.000000 45.999985 -198.000000
v 48.000000 45.999985 -214.000000
v 16.000000 45.999985 -214.000000
v -160.000000 45.999985 -214.000000
v -160.000000 -2.000016 -214.000000
v -128.000000 45.999985 -214.000000
v -128.000000 -2.000016 -214.000000
v -96.000000 45.999985 -214.000000
v -96.000000 -2.000016 -214.000000
v -16.625000 45.999985 -214.000000
v -16.000000 -2.000016 -214.000000
v 16.000000 45.999985 -214.000000
v 16.000000 -2.000016 -214.000000
v 48.000000 45.999985 -214.000000
v 48.000000 -2.000016 -214.000000
v 80.000000 45.999985 -214.000000
v 80.000000 -2.000016 -214.000000
v 96.000000 45.999985 -214.000000
v 96.000000 -2.000016 -214.000000
v 256.000000 45.999985 -214.000000
v 256.000000 -2.000016 -214.000000
v 256.000000 -2.000000 -6.000000
v 256.000000 46.000000 -6.000003
v 96.000000 -2.000000 -6.000000
v 96.000000 46.000000 -6.000003
v 48.000000 -2.000000 -6.000000
v 48.000000 46.000000 -6.000003
v -64.000000 -2.000000 -6.000000
v -64.000000 46.000000 -6.000003
v -160.000000 -2.000000 -6.000000
v -160.000000 46.000000 -6.000003
v -208.000000 -2.000000 -6.000000
v -208.000000 46.000000 -6.000003
v -240.000000 -2.000000 -6.000000
v -240.000000 46.000000 -6.000003
v 16.000000 45.999985 -214.000000
v 16.000000 -2.000016 -214.000000
v 16.000000 45.999985 -198.000000
v 16.000000 -2.000015 -198.000000
v 16.000000 45.999989 -128.000000
v 16.000000 -2.000010 -128.000000
v -160.000000 46.000000 -6.000003
v -160.000000 -2.000000 -6.000000
v -160.000000 45.999989 -128.000000
v -160.000000 -2.000010 -128.000000
v -160.000000 45.999985 -214.000000
v -160.000000 -2.000016 -214.000000
v 56.000000 -2.000002 -32.000000
v 48.000000 45.999996 -32.000004
v 96.000000 -2.000002 -32.000000
v 96.000000 45.999996 -32.000004
v 256.000000 -2.000002 -32.000000
v 256.000000 45.999996 -32.000004
v 0.000000 45.999992 -118.000000
v 0.000000 -2.000009 -118.000000
v 16.000000 -2.000009 -118.000000
v 16.000000 45.999992 -118.000000
v -64.000000 45.999996 -32.000004
v 48.000000 45.999996 -32.000004
v 48.000000 -2.000002 -32.000000
v -56.000000 -2.000002 -32.000000
v -64.000000 -2.000009 -118.000000
v -64.000000 45.999992 -118.000000
v -64.000000 45.999996 -32.000004
v -64.000000 -2.000002 -32.000000
v -32.000000 -2.000009 -118.000000
v -32.000000 45.999992 -118.000000
v -64.000000 45.999992 -118.000000
v -64.000000 -2.000009 -118.000000
v -32.000000 -2.000010 -128.000000
v -32.000000 45.999989 -128.000000
v -32.000000 45.999992 -118.000000
v -32.000000 -2.000009 -118.000000
v -96.000000 45.999989 -128.000000
v -32.000000 45.999989 -128.000000
v -32.000000 -2.000010 -128.000000
v -96.000000 -2.000010 -128.000000
v -96.000000 46.000000 -6.000003
v -96.000000 45.999989 -128.000000
v -96.000000 -2.000010 -128.000000
v -96.000000 -2.000000 -6.000000
v 48.000000 45.999992 -118.000000
v 48.000000 -2.000009 -118.000000
v 48.000000 -2.000016 -214.000000
v 48.000000 45.999985 -214.000000
v 16.000000 -2.000016 -214.000000
v 16.000000 45.999985 -214.000000
v 48.000000 45.999985 -214.000000
v 48.000000 -2.000016 -214.000000
v 0.000000 -2.000010 -128.000000
v 0.000000 45.999989 -128.000000
v 16.000000 45.999989 -128.000000
v 16.000000 -2.000010 -128.000000
v 0.000000 -2.000009 -118.000000
v 0.000000 45.999992 -118.000000
v 0.000000 45.999989 -128.000000
v 0.000000 -2.000010 -128.000000
v -240.000000 -2.000016 -214.000000
v -240.000000 45.999985 -214.000000
v -160.000000 45.999985 -214.000000
v -160.000000 -2.000016 -214.000000
v -240.000000 46.000004 63.999996
v -240.000000 -1.999995 64.000000
v -240.000000 -2.000000 -6.000000
v -240.000000 46.000000 -6.000003
v 48.000000 -2.000002 -32.000000
v 48.000000 45.999996 -32.000004
v 56.000000 -2.000002 -32.000000
v -64.000000 -2.000002 -32.000000
v -64.000000 45.999996 -32.000004
v -56.000000 -2.000002 -32.000000
v -96.000000 -2.000000 -6.000000
v -88.000000 -2.000000 2.000000
v -64.000000 -2.000000 -6.000000
v -64.000000 -2.000000 2.000000
v 48.000000 -2.000000 -6.000000
v 48.000000 -2.000000 2.000000
v 96.000000 -2.000000 -6.000000
v 96.000000 -2.000000 2.000000
v 256.000000 -2.000000 -6.000000
v 256.000000 -2.000000 2.000000
v -224.000000 -2.000000 2.000000
v -224.000000 -1.999995 64.000000
v -208.000000 -2.000000 2.000000
v -208.000000 -1.999995 64.000000
v -160.000000 -2.000000 2.000000
v -160.000000 -1.999995 64.000000
v -154.000000 -1.999998 20.000000
v -154.000000 -1.999997 42.000000
v -128.000000 -2.000000 2.000000
v -96.000000 -2.000000 2.000000
v -152.000000 -2.000000 -6.000000
v -96.000000 -2.000000 -6.000000
v -152.000000 -2.000010 -128.000000
v -96.000000 -2.000010 -128.000000
v -152.000000 -2.000015 -198.000000
v -96.000000 -2.000015 -198.000000
v -56.000000 -2.000002 -32.000000
v 48.000000 -2.000002 -32.000000
v -24.000000 -2.000008 -110.000000
v 8.046875 -2.000008 -110.000000
v -24.000000 -2.000009 -118.000000
v 0.000000 -2.000009 -118.000000
v -24.000000 -2.000009 -123.000000
v 0.000000 -2.000010 -128.000000
v -152.000000 -2.000015 -198.000000
v -160.000000 -2.000016 -214.000000
v -152.000000 -2.000010 -128.000000
v -160.000000 -2.000010 -128.000000
v -152.000000 -2.000000 -6.000000
v -160.000000 -2.000000 -6.000000
v -152.000000 -2.000000 2.000000
v -160.000000 -2.000000 2.000000
v -240.000000 -1.999995 64.000000
v -224.000000 -1.999995 64.000000
v -240.000000 -2.000000 -6.000000
v -224.000000 -2.000000 2.000000
v -208.000000 -2.000000 -6.000000
v -208.000000 -2.000000 2.000000
v -160.000000 -2.000000 -6.000000
v -160.000000 -2.000000 2.000000
v 16.000000 -2.000015 -198.000000
v 16.000000 -2.000016 -214.000000
v -16.000000 -2.000015 -198.000000
v -16.000000 -2.000016 -214.000000
v -96.000000 -2.000015 -198.000000
v -96.000000 -2.000016 -214.000000
v -152.000000 -2.000015 -198.000000
v -128.000000 -2.000016 -214.000000
v -103.000000 -1.999998 21.000000
v -103.000000 -1.999997 43.000000
v -96.000000 -2.000000 2.000000
v -96.000000 -1.999995 64.000000
v -88.000000 -2.000000 2.000000
v -88.000000 -1.999995 64.000000
v -24.000000 -2.000008 -110.000000
v -32.000000 -2.000009 -118.000000
v -56.000000 -2.000008 -110.000000
v -64.000000 -2.000009 -118.000000
v -56.000000 -2.000002 -32.000000
v -64.000000 -2.000002 -32.000000
v 80.000000 -2.000016 -214.000000
v 56.000000 -2.000015 -198.000000
v 96.000000 -2.000016 -214.000000
v 96.000000 -2.000015 -198.000000
v 256.000000 -2.000016 -214.000000
v 256.000000 -2.000015 -198.000000
v 16.000000 -2.000009 -118.000000
v 8.046875 -2.000008 -110.000000
v 48.000000 -2.000009 -118.000000
v 48.000000 -2.000008 -110.000000
v 56.000000 -2.000009 -118.000000
v 56.000000 -2.000008 -109.937500
v 56.000000 -2.000009 -118.000000
v 56.000000 -2.000008 -109.937500
v 96.000000 -2.000009 -118.000000
v 96.000000 -2.000002 -32.000000
v 256.000000 -2.000009 -118.000000
v 256.000000 -2.000002 -32.000000
v 256.000000 -2.000009 -118.000000
v 256.000000 -2.000015 -198.000000
v 96.000000 -2.000009 -118.000000
v 96.000000 -2.000015 -198.000000
v 56.000000 -2.000009 -118.000000
v 56.000000 -2.000015 -198.000000
v -152.000000 -2.000000 -6.000000
v -152.000000 -2.000000 2.000000
v -128.000000 -2.000000 2.000000
v -139.000000 -1.999999 8.000000
v -117.000000 -1.999999 8.000000
v -128.000000 -1.999998 32.000000
v -103.000000 -1.999998 21.000000
v -103.000000 -1.999997 43.000000
v -160.000000 -1.999995 64.000000
v -152.000000 -1.999995 64.000000
v -154.000000 -1.999997 42.000000
v -139.000000 -1.999996 56.000000
v -128.000000 -1.999998 32.000000
v -117.000000 -1.999996 56.000000
v -103.000000 -1.999997 43.000000
v -96.000000 -1.999995 64.000000
v -160.000000 -2.000000 2.000000
v -154.000000 -1.999998 20.000000
v -152.000000 -2.000000 2.000000
v -139.000000 -1.999999 8.000000
v -128.000000 -2.000000 2.000000
v -117.000000 -1.999999 8.000000
v -96.000000 -2.000000 2.000000
v -103.000000 -1.999998 21.000000
v -139.000000 -1.999999 8.000000
v -154.000000 -1.999998 20.000000
v -128.000000 -1.999998 32.000000
v -154.000000 -1.999997 42.000000
v -16.000000 -2.000015 -198.000000
v -32.000000 -2.000010 -128.000000
v 0.000000 -2.000010 -128.000000
v -24.000000 -2.000009 -123.000000
v 72.000000 -1.999995 64.000000
v 48.000000 -2.000000 2.000000
v -64.000000 -2.000000 2.000000
v -88.000000 -1.999995 64.000000
v 56.000000 -2.000002 -32.000000
v 56.000000 -2.000008 -109.937500
v 48.000000 -2.000008 -110.000000
v 48.000000 -2.000002 -32.000000
v -117.000000 -1.999996 56.000000
v -139.000000 -1.999996 56.000000
v -152.000000 -1.999995 64.000000
v -96.000000 -1.999995 64.000000
v -16.000000 -2.000015 -198.000000
v 0.000000 -2.000010 -128.000000
v 16.000000 -2.000010 -128.000000
v 16.000000 -2.000015 -198.000000
v -32.000000 -2.000010 -128.000000
v -32.000000 -2.000009 -118.000000
v -24.000000 -2.000009 -118.000000
v -24.000000 -2.000009 -123.000000
v -96.000000 -2.000015 -198.000000
v -96.000000 -2.000010 -128.000000
v -32.000000 -2.000010 -128.000000
v -16.000000 -2.000015 -198.000000
v 72.000000 -1.999995 64.000000
v 256.000000 -1.999995 64.000000
v 256.000000 -2.000000 2.000000
v 96.000000 -2.000000 2.000000
v 56.000000 -2.000009 -118.000000
v 56.000000 -2.000015 -198.000000
v 48.000000 -2.000016 -214.000000
v 48.000000 -2.000009 -118.000000
v 8.046875 -2.000008 -110.000000
v 48.000000 -2.000002 -32.000000
v 48.000000 -2.000008 -110.000000
v 56.000000 -2.000015 -198.000000
v 80.000000 -2.000016 -214.000000
v 48.000000 -2.000016 -214.000000
v -24.000000 -2.000008 -110.000000
v -56.000000 -2.000008 -110.000000
v -56.000000 -2.000002 -32.000000
v -152.000000 -2.000015 -198.000000
v -128.000000 -2.000016 -214.000000
v -160.000000 -2.000016 -214.000000
v 72.000000 -1.999995 64.000000
v 96.000000 -2.000000 2.000000
v 48.000000 -2.000000 2.000000
v 56.000000 -2.000008 -109.937500
v 56.000000 -2.000002 -32.000000
v 96.000000 -2.000002 -32.000000
v 0.000000 -2.000009 -118.000000
v 8.046875 -2.000008 -110.000000
v 16.000000 -2.000009 -118.000000
v -88.000000 -1.999995 64.000000
v -64.000000 -2.000000 2.000000
v -88.000000 -2.000000 2.000000
v -24.000000 -2.000008 -110.000000
v -24.000000 -2.000009 -118.000000
v -32.000000 -2.000009 -118.000000
v -96.000000 -2.000000 -6.000000
v -96.000000 -2.000000 2.000000
v -88.000000 -2.000000 2.000000
vn -0.0000 1.0000 -0.0000
vn -0.0000 -0.0000 1.0000
vn -0.0000 0.1240 0.9923
vn -1.0000 -0.0000 -0.0000
vn 1.0000 -0.0000 -0.0000
vn -0.0000 -0.0000 -1.0000
vt 0.000000 0.000000
vt 1.000000 0.000000
vt 1.000000 1.000000
vt 0.000000 1.000000
vt 13.000000 16.000000
vt 13.000000 17.000000
vt 12.000000 17.000000
vt 12.000000 16.000000
vt 16.000000 17.000000
vt 16.000000 16.000000
vt 17.000000 16.000000
vt 17.000000 17.000000
vt 10.000000 17.000000
vt 10.000000 16.000000
vt 11.000000 16.000000
vt 11.000000 17.000000
vt 14.500000 16.000000
vt 14.480469 17.000000
vt 15.500000 16.000000
vt 15.500000 17.000000
vt 16.500000 17.000000
vt 16.500000 16.000000
vt 17.500000 16.000000
vt 17.500000 17.000000
vt 18.000000 16.000000
vt 18.000000 17.000000
vt 23.000000 16.000000
vt 23.000000 17.000000
vt 8.500000 17.000000
vt 8.500000 16.000000
vt 7.500000 17.000000
vt 7.500000 16.000000
vt 16.750000 16.000000
vt 15.000000 17.000000
vt 15.000000 16.000000
vt 13.250000 16.000000
vt 14.000000 16.000000
vt 14.000000 17.000000
vt 9.000000 17.375000
vt 9.500000 16.875000
vt 11.000000 16.875000
vt 11.000000 17.375000
vt 18.000000 16.875000
vt 18.000000 17.375000
vt 21.000000 16.875000
vt 21.000000 17.375000
vt 31.000000 16.875000
vt 31.000000 17.375000
vt 1.000000 16.875000
vt 1.000000 13.000000
vt 2.000000 13.000000
vt 2.000000 16.875000
vt 5.000000 13.000000
vt 5.000000 16.875000
vt 5.375000 14.375001
vt 5.375000 15.750000
vt 7.000000 16.875000
vt 9.000000 16.875000
vt 5.500000 17.375000
vt 9.000000 25.000000
vt 5.500000 25.000000
vt 9.000000 29.375002
vt 5.500000 29.375002
vt 11.500000 19.000000
vt 18.000000 19.000000
vt 15.503906 23.875002
vt 13.500000 23.875002
vt 15.000000 24.375002
vt 13.500000 24.375002
vt 15.000000 25.000000
vt 13.500000 24.687500
vt 5.000000 30.375002
vt 5.000000 25.000000
vt 5.000000 17.375000
vt 5.500000 16.875000
vt 0.000000 13.000000
vt 0.000000 17.375000
vt 2.000000 17.375000
vt 16.000000 29.375002
vt 16.000000 30.375002
vt 14.000000 30.375002
vt 14.000000 29.375002
vt 9.000000 30.375002
vt 7.000000 30.375002
vt 8.562500 15.687500
vt 8.562500 14.312500
vt 9.000000 13.000000
vt 9.500000 13.000000
vt 13.000000 24.375002
vt 11.000000 24.375002
vt 11.500000 23.875002
vt 11.000000 19.000000
vt 20.000000 30.375002
vt 18.500000 29.375002
vt 21.000000 29.375002
vt 21.000000 30.375002
vt 31.000000 29.375002
vt 31.000000 30.375002
vt 16.000000 24.375002
vt 18.000000 23.875002
vt 18.000000 24.375002
vt 18.500000 23.871094
vt 18.500000 24.375002
vt 21.000000 19.000000
vt 21.000000 24.375002
vt 31.000000 19.000000
vt 31.000000 24.375002
vt 6.312500 16.500000
vt 7.687500 16.500000
vt 7.000000 15.000000
vt 5.500000 13.000000
vt 6.312500 13.500000
vt 7.687500 13.500000
vt 13.000000 25.000000
vt 19.500000 13.000000
vt 18.500000 19.000000
vt 16.000000 25.000000
vt 31.000000 13.000000
vt 18.000000 30.375002
s 1
usemtl m_dun26_20_lm6
f 1/1/1 2/2/1 3/3/1 4/4/1
usemtl m_dun26_21_lm6
f 5/1/1 6/2/1 7/3/1 8/4/1
usemtl m_dun26_05_lm6
f 9/5/2 10/6/2 11/7/2 12/8/2
f 13/9/2 14/10/2 15/11/2 16/12/2
usemtl m_dun26_07_lm6
f 17/1/3 18/2/3 19/3/3 20/4/3
f 21/1/3 22/2/3 23/3/3 24/4/3
f 25/1/3 26/2/3 27/3/3 28/4/3
f 29/1/3 30/2/3 31/3/3 32/4/3
f 33/1/3 34/2/3 35/3/3 36/4/3
usemtl m_dun26_08_lm6
f 37/1/2 38/2/2 39/3/2 40/4/2
f 41/1/2 42/2/2 43/3/2 44/4/2
f 45/1/2 46/2/2 47/3/2 48/4/2
f 49/1/2 50/2/2 51/3/2 52/4/2
f 53/1/2 54/2/2 55/3/2 56/4/2
usemtl lambert1
f 57/1/1 58/1/1 60/1/1 59/1/1
f 59/1/1 60/1/1 62/1/1 61/1/1
f 61/1/1 62/1/1 64/1/1 63/1/1
f 65/1/1 66/1/1 68/1/1 67/1/1
f 67/1/1 68/1/1 70/1/1 69/1/1
f 71/1/1 72/1/1 73/1/1 74/1/1
f 75/1/1 76/1/1 77/1/1 78/1/1
f 79/1/1 80/1/1 81/1/1 82/1/1
f 83/1/1 84/1/1 85/1/1
f 86/1/1 87/1/1 88/1/1
f 89/1/1 90/1/1 91/1/1
f 92/1/1 93/1/1 94/1/1
f 95/1/1 96/1/1 97/1/1
usemtl m_dun26_06_lm6
f 98/13/2 99/14/2 101/15/2 100/16/2
f 100/16/2 101/15/2 103/8/2 102/7/2
f 102/7/2 103/8/2 105/17/2 104/18/2
f 104/18/2 105/17/2 107/19/2 106/20/2
f 108/21/2 109/22/2 111/23/2 110/24/2
f 110/24/2 111/23/2 113/25/2 112/26/2
f 112/26/2 113/25/2 115/27/2 114/28/2
f 116/27/2 117/28/2 119/26/2 118/25/2
f 118/25/2 119/26/2 121/21/2 120/22/2
f 120/22/2 121/21/2 123/6/2 122/5/2
f 124/14/2 125/13/2 127/29/2 126/30/2
f 126/30/2 127/29/2 129/31/2 128/32/2
f 130/20/4 131/19/4 133/19/4 132/20/4
f 132/20/4 133/19/4 135/19/4 134/20/4
f 136/13/5 137/14/5 139/14/5 138/13/5
f 138/13/5 139/14/5 141/14/5 140/13/5
f 142/33/6 143/21/6 145/26/6 144/25/6
f 144/25/6 145/26/6 147/28/6 146/27/6
f 148/34/2 149/35/2 150/19/2 151/20/2
f 152/6/6 153/21/6 154/22/6 155/36/6
f 156/5/5 157/6/5 158/6/5 159/5/5
f 160/37/2 161/38/2 162/6/2 163/5/2
f 164/37/5 165/38/5 166/38/5 167/37/5
f 168/7/6 169/38/6 170/37/6 171/8/6
f 172/7/4 173/7/4 174/8/4 175/8/4
f 176/21/5 177/22/5 178/22/5 179/21/5
f 180/19/6 181/20/6 182/21/6 183/22/6
f 184/35/6 185/34/6 186/20/6 187/19/6
f 188/35/4 189/34/4 190/34/4 191/35/4
f 192/32/6 193/31/6 194/13/6 195/14/6
f 196/31/5 197/32/5 198/32/5 199/31/5
f 200/22/6 201/21/6 202/33/6
f 203/5/6 204/6/6 205/36/6
usemtl m_dun26_11_lm6
f 206/39/1 207/40/1 209/41/1 208/42/1
f 208/42/1 209/41/1 211/43/1 210/44/1
f 210/44/1 211/43/1 213/45/1 212/46/1
f 212/46/1 213/45/1 215/47/1 214/48/1
f 216/49/1 217/50/1 219/51/1 218/52/1
f 218/52/1 219/51/1 221/53/1 220/54/1
f 220/54/1 221/53/1 223/55/1 222/56/1
f 224/57/1 225/58/1 227/39/1 226/59/1
f 226/59/1 227/39/1 229/60/1 228/61/1
f 228/61/1 229/60/1 231/62/1 230/63/1
f 232/64/1 233/65/1 235/66/1 234/67/1
f 234/67/1 235/66/1 237/68/1 236/69/1
f 236/69/1 237/68/1 239/70/1 238/71/1
f 240/63/1 241/72/1 243/73/1 242/61/1
f 242/61/1 243/73/1 245/74/1 244/59/1
f 244/59/1 245/74/1 247/54/1 246/75/1
f 248/76/1 249/50/1 251/49/1 250/77/1
f 250/77/1 251/49/1 253/52/1 252/78/1
f 252/78/1 253/52/1 255/54/1 254/74/1
f 256/79/1 257/80/1 259/81/1 258/82/1
f 258/82/1 259/81/1 261/83/1 260/62/1
f 260/62/1 261/83/1 263/84/1 262/63/1
f 264/85/1 265/86/1 267/87/1 266/58/1
f 266/58/1 267/87/1 269/88/1 268/40/1
f 270/67/1 271/89/1 273/90/1 272/91/1
f 272/91/1 273/90/1 275/92/1 274/64/1
f 276/93/1 277/94/1 279/95/1 278/96/1
f 278/96/1 279/95/1 281/97/1 280/98/1
f 282/99/1 283/66/1 285/100/1 284/101/1
f 284/101/1 285/100/1 287/102/1 286/103/1
f 288/103/1 289/102/1 291/104/1 290/105/1
f 290/105/1 291/104/1 293/106/1 292/107/1
f 294/107/1 295/97/1 297/95/1 296/105/1
f 296/105/1 297/95/1 299/94/1 298/103/1
f 300/59/1 301/75/1 302/57/1
f 301/75/1 303/108/1 302/57/1
f 302/57/1 303/108/1 304/109/1
f 303/108/1 305/110/1 304/109/1
f 304/109/1 305/110/1 306/85/1
f 305/110/1 307/86/1 306/85/1
f 308/53/1 309/111/1 310/55/1
f 309/111/1 311/112/1 310/55/1
f 310/55/1 311/112/1 312/110/1
f 311/112/1 313/113/1 312/110/1
f 312/110/1 313/113/1 314/86/1
f 313/113/1 315/87/1 314/86/1
f 316/54/1 317/56/1 318/75/1
f 317/56/1 319/108/1 318/75/1
f 320/57/1 321/109/1 322/58/1
f 321/109/1 323/85/1 322/58/1
f 324/108/1 325/56/1 326/110/1
f 325/56/1 327/55/1 326/110/1
f 328/82/1 329/114/1 330/70/1
f 329/114/1 331/71/1 330/70/1
f 332/115/1 333/43/1 334/41/1 335/88/1
f 336/116/1 337/102/1 338/100/1 339/65/1
f 340/113/1 341/112/1 342/111/1 343/87/1
f 344/82/1 345/70/1 346/117/1 347/79/1
f 348/114/1 349/89/1 350/69/1 351/71/1
f 352/62/1 353/60/1 354/114/1 355/82/1
f 356/115/1 357/118/1 358/47/1 359/45/1
f 360/103/1 361/94/1 362/119/1 363/101/1
f 364/66/1 365/65/1 366/100/1
f 367/94/1 368/93/1 369/119/1
f 370/67/1 371/91/1 372/64/1
f 373/63/1 374/84/1 375/72/1
f 376/115/1 377/45/1 378/43/1
f 379/102/1 380/116/1 381/104/1
f 382/68/1 383/66/1 384/99/1
f 385/88/1 386/41/1 387/40/1
f 388/67/1 389/69/1 390/89/1
f 391/39/1 392/58/1 393/40/1
