mtllib Cross_Walk_1_00_00.mtl
o map
v 1.625 -4.0 0.0
v 1.625 -3.0 0.0
v 1.0 -3.0 0.0
v 1.0 -4.0 0.0
v -1.0 -4.0 0.0
v -1.0 -3.0 0.0
v -1.625 -3.0 0.0
v -1.625 -4.0 0.0
v -2.0 -3.0 -0.5
v -2.0 -4.0 -0.5
v -2.0 -4.0 0.0
v -2.0 -3.0 0.0
v 2.0 -3.0 0.0
v 2.0 -4.0 0.0
v 2.0 -4.0 -0.5
v 2.0 -3.0 -0.5
v -1.5 -4.0 1.5
v -1.5 -3.0 1.5
v -2.0 -3.0 1.5
v -2.0 -4.0 1.5
v 2.0 -4.0 1.5
v 2.0 -3.0 1.5
v 1.5 -3.0 1.5
v 1.5 -4.0 1.5
v -2.0 -4.0 1.0
v -2.0 -3.0 1.0
v 1.5 -4.0 1.0
v 1.5 -3.0 1.0
v 1.5 -3.0 0.0
v 1.5 -4.0 0.0
v -1.5 -4.0 0.0
v -1.5 -3.0 0.0
v -1.5 -3.0 0.19999981
v -1.5 -3.0 1.0
v -1.5 -4.0 1.0
v 2.0 -3.0 1.0
v 2.0 -4.0 1.0
v -2.0 -3.0 1.4000001
v 1.625 -3.0 0.0
v 1.625 -2.0 0.0
v 1.0 -2.0 0.0
v 1.0 -3.0 0.0
v -1.0 -3.0 0.0
v -1.0 -2.0 0.0
v -1.625 -2.0 0.0
v -1.625 -3.0 0.0
v -2.0 -2.0 -0.5
v -2.0 -3.0 -0.5
v -2.0 -3.0 0.0
v -2.0 -2.0 0.0
v 2.0 -2.0 0.0
v 2.0 -3.0 0.0
v 2.0 -3.0 -0.5
v 2.0 -2.0 -0.5
v -1.5 -3.0 1.5
v -1.5 -2.0 1.5
v -2.0 -2.0 1.5
v -2.0 -3.0 1.5
v 2.0 -3.0 1.5
v 2.0 -2.0 1.5
v 1.5 -2.0 1.5
v 1.5 -3.0 1.5
v -2.0 -3.0 1.0
v -2.0 -2.0 1.0
v 1.5 -3.0 1.0
v 1.5 -2.0 1.0
v 1.5 -2.0 0.0
v 1.5 -3.0 0.0
v -1.5 -3.0 0.0
v -1.5 -2.0 0.0
v -1.5 -2.0 0.19999981
v -1.5 -2.0 1.0
v -1.5 -3.0 1.0
v 2.0 -2.0 1.0
v 2.0 -3.0 1.0
v -2.0 -2.0 1.4000001
v 1.625 -2.0 0.0
v 1.625 -1.0 0.0
v 1.0 -1.0 0.0
v 1.0 -2.0 0.0
v -1.0 -2.0 0.0
v -1.0 -1.0 0.0
v -1.625 -1.0 0.0
v -1.625 -2.0 0.0
v -2.0 -1.0 -0.5
v -2.0 -2.0 -0.5
v -2.0 -2.0 0.0
v -2.0 -1.0 0.0
v 2.0 -1.0 0.0
v 2.0 -2.0 0.0
v 2.0 -2.0 -0.5
v 2.0 -1.0 -0.5
v -1.5 -2.0 1.5
v -1.5 -1.0 1.5
v -2.0 -1.0 1.5
v -2.0 -2.0 1.5
v 2.0 -2.0 1.5
v 2.0 -1.0 1.5
v 1.5 -1.0 1.5
v 1.5 -2.0 1.5
v -2.0 -2.0 1.0
v -2.0 -1.0 1.0
v 1.5 -2.0 1.0
v 1.5 -1.0 1.0
v 1.5 -1.0 0.0
v 1.5 -2.0 0.0
v -1.5 -2.0 0.0
v -1.5 -1.0 0.0
v -1.5 -1.0 0.19999981
v -1.5 -1.0 1.0
v -1.5 -2.0 1.0
v 2.0 -1.0 1.0
v 2.0 -2.0 1.0
v -2.0 -1.0 1.4000001
v 1.625 -1.0 0.0
v 1.625 0.0 0.0
v 1.0 0.0 0.0
v 1.0 -1.0 0.0
v -1.0 -1.0 0.0
v -1.0 0.0 0.0
v -1.625 0.0 0.0
v -1.625 -1.0 0.0
v -2.0 0.0 -0.5
v -2.0 -1.0 -0.5
v -2.0 -1.0 0.0
v -2.0 0.0 0.0
v 2.0 0.0 0.0
v 2.0 -1.0 0.0
v 2.0 -1.0 -0.5
v 2.0 0.0 -0.5
v -1.5 -1.0 1.5
v -1.5 0.0 1.5
v -2.0 0.0 1.5
v -2.0 -1.0 1.5
v 2.0 -1.0 1.5
v 2.0 0.0 1.5
v 1.5 0.0 1.5
v 1.5 -1.0 1.5
v -2.0 -1.0 1.0
v -2.0 0.0 1.0
v 1.5 -1.0 1.0
v 1.5 0.0 1.0
v 1.5 0.0 0.0
v 1.5 -1.0 0.0
v -1.5 -1.0 0.0
v -1.5 0.0 0.0
v -1.5 0.0 0.19999981
v -1.5 0.0 1.0
v -1.5 -1.0 1.0
v 2.0 0.0 1.0
v 2.0 -1.0 1.0
v -2.0 0.0 1.4000001
v 1.625 0.0 0.0
v 1.625 1.0 0.0
v 1.0 1.0 0.0
v 1.0 0.0 0.0
v -1.0 0.0 0.0
v -1.0 1.0 0.0
v -1.625 1.0 0.0
v -1.625 0.0 0.0
v -2.0 1.0 -0.5
v -2.0 0.0 -0.5
v -2.0 0.0 0.0
v -2.0 1.0 0.0
v 2.0 1.0 0.0
v 2.0 0.0 0.0
v 2.0 0.0 -0.5
v 2.0 1.0 -0.5
v -1.5 0.0 1.5
v -1.5 1.0 1.5
v -2.0 1.0 1.5
v -2.0 0.0 1.5
v 2.0 0.0 1.5
v 2.0 1.0 1.5
v 1.5 1.0 1.5
v 1.5 0.0 1.5
v -2.0 0.0 1.0
v -2.0 1.0 1.0
v 1.5 0.0 1.0
v 1.5 1.0 1.0
v 1.5 1.0 0.0
v 1.5 0.0 0.0
v -1.5 0.0 0.0
v -1.5 1.0 0.0
v -1.5 1.0 0.19999981
v -1.5 1.0 1.0
v -1.5 0.0 1.0
v 2.0 1.0 1.0
v 2.0 0.0 1.0
v -2.0 1.0 1.4000001
v 1.625 1.0 0.0
v 1.625 2.0 0.0
v 1.0 2.0 0.0
v 1.0 1.0 0.0
v -1.0 1.0 0.0
v -1.0 2.0 0.0
v -1.625 2.0 0.0
v -1.625 1.0 0.0
v -2.0 2.0 -0.5
v -2.0 1.0 -0.5
v -2.0 1.0 0.0
v -2.0 2.0 0.0
v 2.0 2.0 0.0
v 2.0 1.0 0.0
v 2.0 1.0 -0.5
v 2.0 2.0 -0.5
v -1.5 1.0 1.5
v -1.5 2.0 1.5
v -2.0 2.0 1.5
v -2.0 1.0 1.5
v 2.0 1.0 1.5
v 2.0 2.0 1.5
v 1.5 2.0 1.5
v 1.5 1.0 1.5
v -2.0 1.0 1.0
v -2.0 2.0 1.0
v 1.5 1.0 1.0
v 1.5 2.0 1.0
v 1.5 2.0 0.0
v 1.5 1.0 0.0
v -1.5 1.0 0.0
v -1.5 2.0 0.0
v -1.5 2.0 0.19999981
v -1.5 2.0 1.0
v -1.5 1.0 1.0
v 2.0 2.0 1.0
v 2.0 1.0 1.0
v -2.0 2.0 1.4000001
v 1.625 2.0 0.0
v 1.625 3.0 0.0
v 1.0 3.0 0.0
v 1.0 2.0 0.0
v -1.0 2.0 0.0
v -1.0 3.0 0.0
v -1.625 3.0 0.0
v -1.625 2.0 0.0
v -2.0 3.0 -0.5
v -2.0 2.0 -0.5
v -2.0 2.0 0.0
v -2.0 3.0 0.0
v 2.0 3.0 0.0
v 2.0 2.0 0.0
v 2.0 2.0 -0.5
v 2.0 3.0 -0.5
v -1.5 2.0 1.5
v -1.5 3.0 1.5
v -2.0 3.0 1.5
v -2.0 2.0 1.5
v 2.0 2.0 1.5
v 2.0 3.0 1.5
v 1.5 3.0 1.5
v 1.5 2.0 1.5
v -2.0 2.0 1.0
v -2.0 3.0 1.0
v 1.5 2.0 1.0
v 1.5 3.0 1.0
v 1.5 3.0 0.0
v 1.5 2.0 0.0
v -1.5 2.0 0.0
v -1.5 3.0 0.0
v -1.5 3.0 0.19999981
v -1.5 3.0 1.0
v -1.5 2.0 1.0
v 2.0 3.0 1.0
v 2.0 2.0 1.0
v -2.0 3.0 1.4000001
v 1.625 3.0 0.0
v 1.625 4.0 0.0
v 1.0 4.0 0.0
v 1.0 3.0 0.0
v -1.0 3.0 0.0
v -1.0 4.0 0.0
v -1.625 4.0 0.0
v -1.625 3.0 0.0
v -2.0 4.0 -0.5
v -2.0 3.0 -0.5
v -2.0 3.0 0.0
v -2.0 4.0 0.0
v 2.0 4.0 0.0
v 2.0 3.0 0.0
v 2.0 3.0 -0.5
v 2.0 4.0 -0.5
v -1.5 3.0 1.5
v -1.5 4.0 1.5
v -2.0 4.0 1.5
v -2.0 3.0 1.5
v 2.0 3.0 1.5
v 2.0 4.0 1.5
v 1.5 4.0 1.5
v 1.5 3.0 1.5
v -2.0 3.0 1.0
v -2.0 4.0 1.0
v 1.5 3.0 1.0
v 1.5 4.0 1.0
v 1.5 4.0 0.0
v 1.5 3.0 0.0
v -1.5 3.0 0.0
v -1.5 4.0 0.0
v -1.5 4.0 0.19999981
v -1.5 4.0 1.0
v -1.5 3.0 1.0
v 2.0 4.0 1.0
v 2.0 3.0 1.0
v -2.0 4.0 1.4000001
v 1.625 4.0 0.0
v 1.625 5.0 0.0
v 1.0 5.0 0.0
v 1.0 4.0 0.0
v -1.0 4.0 0.0
v -1.0 5.0 0.0
v -1.625 5.0 0.0
v -1.625 4.0 0.0
v -2.0 5.0 -0.5
v -2.0 4.0 -0.5
v -2.0 4.0 0.0
v -2.0 5.0 0.0
v 2.0 5.0 0.0
v 2.0 4.0 0.0
v 2.0 4.0 -0.5
v 2.0 5.0 -0.5
v -1.5 4.0 1.5
v -1.5 5.0 1.5
v -2.0 5.0 1.5
v -2.0 4.0 1.5
v 2.0 4.0 1.5
v 2.0 5.0 1.5
v 1.5 5.0 1.5
v 1.5 4.0 1.5
v -2.0 4.0 1.0
v -2.0 5.0 1.0
v 1.5 4.0 1.0
v 1.5 5.0 1.0
v 1.5 5.0 0.0
v 1.5 4.0 0.0
v -1.5 4.0 0.0
v -1.5 5.0 0.0
v -1.5 5.0 0.19999981
v -1.5 5.0 1.0
v -1.5 4.0 1.0
v 2.0 5.0 1.0
v 2.0 4.0 1.0
v -2.0 5.0 1.4000001
vt 1.77636E-15 -3.0
vt 1.77636E-15 -2.0
vt 1.0 -2.0
vt 1.0 -3.0
vt 0.0 -2.0
vt 0.0 -3.0
vt 4.92126 4.42913
vt 5.90551 4.42913
vt 5.90551 4.92126
vt 4.92126 4.92126
vt -4.92126 4.92126
vt -5.90551 4.92126
vt -5.90551 4.42913
vt -4.92126 4.42913
vt -11.3189 -5.90551
vt -11.3189 -4.92126
vt -11.811 -4.92126
vt -11.811 -5.90551
vt -7.87402 -5.90551
vt -7.87402 -4.92126
vt -8.36614 -4.92126
vt -8.36614 -5.90551
vt 6.0 10.0
vt 8.0 10.0
vt 8.0 11.0
vt 6.0 11.0
vt 1.25 -1.0
vt 1.25 8.88178E-16
vt 2.25 8.88178E-16
vt 2.25 -1.0
vt 13.0 -1.0
vt 14.0 -1.0
vt 14.0 -0.8
vt 14.0 8.88178E-16
vt 13.0 8.88178E-16
vt 14.0 0.0
vt 13.0 0.0
vt -4.92126 5.90551
vt -4.92126 6.39764
vt -5.90551 6.39764
vt -5.90551 5.90551
vt 5.90551 6.39764
vt 4.92126 6.39764
vt 4.92126 5.90551
vt 5.90551 5.90551
vt 4.92126 6.29921
vt 1.77636E-15 -3.0
vt 1.77636E-15 -2.0
vt 1.0 -2.0
vt 1.0 -3.0
vt 0.0 -2.0
vt 0.0 -3.0
vt 4.92126 4.42913
vt 5.90551 4.42913
vt 5.90551 4.92126
vt 4.92126 4.92126
vt -4.92126 4.92126
vt -5.90551 4.92126
vt -5.90551 4.42913
vt -4.92126 4.42913
vt -11.3189 -5.90551
vt -11.3189 -4.92126
vt -11.811 -4.92126
vt -11.811 -5.90551
vt -7.87402 -5.90551
vt -7.87402 -4.92126
vt -8.36614 -4.92126
vt -8.36614 -5.90551
vt 6.0 10.0
vt 8.0 10.0
vt 8.0 11.0
vt 6.0 11.0
vt 1.25 -1.0
vt 1.25 8.88178E-16
vt 2.25 8.88178E-16
vt 2.25 -1.0
vt 13.0 -1.0
vt 14.0 -1.0
vt 14.0 -0.8
vt 14.0 8.88178E-16
vt 13.0 8.88178E-16
vt 14.0 0.0
vt 13.0 0.0
vt -4.92126 5.90551
vt -4.92126 6.39764
vt -5.90551 6.39764
vt -5.90551 5.90551
vt 5.90551 6.39764
vt 4.92126 6.39764
vt 4.92126 5.90551
vt 5.90551 5.90551
vt 4.92126 6.29921
vt 1.77636E-15 -3.0
vt 1.77636E-15 -2.0
vt 1.0 -2.0
vt 1.0 -3.0
vt 0.0 -2.0
vt 0.0 -3.0
vt 4.92126 4.42913
vt 5.90551 4.42913
vt 5.90551 4.92126
vt 4.92126 4.92126
vt -4.92126 4.92126
vt -5.90551 4.92126
vt -5.90551 4.42913
vt -4.92126 4.42913
vt -11.3189 -5.90551
vt -11.3189 -4.92126
vt -11.811 -4.92126
vt -11.811 -5.90551
vt -7.87402 -5.90551
vt -7.87402 -4.92126
vt -8.36614 -4.92126
vt -8.36614 -5.90551
vt 6.0 10.0
vt 8.0 10.0
vt 8.0 11.0
vt 6.0 11.0
vt 1.25 -1.0
vt 1.25 8.88178E-16
vt 2.25 8.88178E-16
vt 2.25 -1.0
vt 13.0 -1.0
vt 14.0 -1.0
vt 14.0 -0.8
vt 14.0 8.88178E-16
vt 13.0 8.88178E-16
vt 14.0 0.0
vt 13.0 0.0
vt -4.92126 5.90551
vt -4.92126 6.39764
vt -5.90551 6.39764
vt -5.90551 5.90551
vt 5.90551 6.39764
vt 4.92126 6.39764
vt 4.92126 5.90551
vt 5.90551 5.90551
vt 4.92126 6.29921
vt 1.77636E-15 -3.0
vt 1.77636E-15 -2.0
vt 1.0 -2.0
vt 1.0 -3.0
vt 0.0 -2.0
vt 0.0 -3.0
vt 4.92126 4.42913
vt 5.90551 4.42913
vt 5.90551 4.92126
vt 4.92126 4.92126
vt -4.92126 4.92126
vt -5.90551 4.92126
vt -5.90551 4.42913
vt -4.92126 4.42913
vt -11.3189 -5.90551
vt -11.3189 -4.92126
vt -11.811 -4.92126
vt -11.811 -5.90551
vt -7.87402 -5.90551
vt -7.87402 -4.92126
vt -8.36614 -4.92126
vt -8.36614 -5.90551
vt 6.0 10.0
vt 8.0 10.0
vt 8.0 11.0
vt 6.0 11.0
vt 1.25 -1.0
vt 1.25 8.88178E-16
vt 2.25 8.88178E-16
vt 2.25 -1.0
vt 13.0 -1.0
vt 14.0 -1.0
vt 14.0 -0.8
vt 14.0 8.88178E-16
vt 13.0 8.88178E-16
vt 14.0 0.0
vt 13.0 0.0
vt -4.92126 5.90551
vt -4.92126 6.39764
vt -5.90551 6.39764
vt -5.90551 5.90551
vt 5.90551 6.39764
vt 4.92126 6.39764
vt 4.92126 5.90551
vt 5.90551 5.90551
vt 4.92126 6.29921
vt 1.77636E-15 -3.0
vt 1.77636E-15 -2.0
vt 1.0 -2.0
vt 1.0 -3.0
vt 0.0 -2.0
vt 0.0 -3.0
vt 4.92126 4.42913
vt 5.90551 4.42913
vt 5.90551 4.92126
vt 4.92126 4.92126
vt -4.92126 4.92126
vt -5.90551 4.92126
vt -5.90551 4.42913
vt -4.92126 4.42913
vt -11.3189 -5.90551
vt -11.3189 -4.92126
vt -11.811 -4.92126
vt -11.811 -5.90551
vt -7.87402 -5.90551
vt -7.87402 -4.92126
vt -8.36614 -4.92126
vt -8.36614 -5.90551
vt 6.0 10.0
vt 8.0 10.0
vt 8.0 11.0
vt 6.0 11.0
vt 1.25 -1.0
vt 1.25 8.88178E-16
vt 2.25 8.88178E-16
vt 2.25 -1.0
vt 13.0 -1.0
vt 14.0 -1.0
vt 14.0 -0.8
vt 14.0 8.88178E-16
vt 13.0 8.88178E-16
vt 14.0 0.0
vt 13.0 0.0
vt -4.92126 5.90551
vt -4.92126 6.39764
vt -5.90551 6.39764
vt -5.90551 5.90551
vt 5.90551 6.39764
vt 4.92126 6.39764
vt 4.92126 5.90551
vt 5.90551 5.90551
vt 4.92126 6.29921
vt 1.77636E-15 -3.0
vt 1.77636E-15 -2.0
vt 1.0 -2.0
vt 1.0 -3.0
vt 0.0 -2.0
vt 0.0 -3.0
vt 4.92126 4.42913
vt 5.90551 4.42913
vt 5.90551 4.92126
vt 4.92126 4.92126
vt -4.92126 4.92126
vt -5.90551 4.92126
vt -5.90551 4.42913
vt -4.92126 4.42913
vt -11.3189 -5.90551
vt -11.3189 -4.92126
vt -11.811 -4.92126
vt -11.811 -5.90551
vt -7.87402 -5.90551
vt -7.87402 -4.92126
vt -8.36614 -4.92126
vt -8.36614 -5.90551
vt 6.0 10.0
vt 8.0 10.0
vt 8.0 11.0
vt 6.0 11.0
vt 1.25 -1.0
vt 1.25 8.88178E-16
vt 2.25 8.88178E-16
vt 2.25 -1.0
vt 13.0 -1.0
vt 14.0 -1.0
vt 14.0 -0.8
vt 14.0 8.88178E-16
vt 13.0 8.88178E-16
vt 14.0 0.0
vt 13.0 0.0
vt -4.92126 5.90551
vt -4.92126 6.39764
vt -5.90551 6.39764
vt -5.90551 5.90551
vt 5.90551 6.39764
vt 4.92126 6.39764
vt 4.92126 5.90551
vt 5.90551 5.90551
vt 4.92126 6.29921
vt 1.77636E-15 -3.0
vt 1.77636E-15 -2.0
vt 1.0 -2.0
vt 1.0 -3.0
vt 0.0 -2.0
vt 0.0 -3.0
vt 4.92126 4.42913
vt 5.90551 4.42913
vt 5.90551 4.92126
vt 4.92126 4.92126
vt -4.92126 4.92126
vt -5.90551 4.92126
vt -5.90551 4.42913
vt -4.92126 4.42913
vt -11.3189 -5.90551
vt -11.3189 -4.92126
vt -11.811 -4.92126
vt -11.811 -5.90551
vt -7.87402 -5.90551
vt -7.87402 -4.92126
vt -8.36614 -4.92126
vt -8.36614 -5.90551
vt 6.0 10.0
vt 8.0 10.0
vt 8.0 11.0
vt 6.0 11.0
vt 1.25 -1.0
vt 1.25 8.88178E-16
vt 2.25 8.88178E-16
vt 2.25 -1.0
vt 13.0 -1.0
vt 14.0 -1.0
vt 14.0 -0.8
vt 14.0 8.88178E-16
vt 13.0 8.88178E-16
vt 14.0 0.0
vt 13.0 0.0
vt -4.92126 5.90551
vt -4.92126 6.39764
vt -5.90551 6.39764
vt -5.90551 5.90551
vt 5.90551 6.39764
vt 4.92126 6.39764
vt 4.92126 5.90551
vt 5.90551 5.90551
vt 4.92126 6.29921
vt 1.77636E-15 -3.0
vt 1.77636E-15 -2.0
vt 1.0 -2.0
vt 1.0 -3.0
vt 0.0 -2.0
vt 0.0 -3.0
vt 4.92126 4.42913
vt 5.90551 4.42913
vt 5.90551 4.92126
vt 4.92126 4.92126
vt -4.92126 4.92126
vt -5.90551 4.92126
vt -5.90551 4.42913
vt -4.92126 4.42913
vt -11.3189 -5.90551
vt -11.3189 -4.92126
vt -11.811 -4.92126
vt -11.811 -5.90551
vt -7.87402 -5.90551
vt -7.87402 -4.92126
vt -8.36614 -4.92126
vt -8.36614 -5.90551
vt 6.0 10.0
vt 8.0 10.0
vt 8.0 11.0
vt 6.0 11.0
vt 1.25 -1.0
vt 1.25 8.88178E-16
vt 2.25 8.88178E-16
vt 2.25 -1.0
vt 13.0 -1.0
vt 14.0 -1.0
vt 14.0 -0.8
vt 14.0 8.88178E-16
vt 13.0 8.88178E-16
vt 14.0 0.0
vt 13.0 0.0
vt -4.92126 5.90551
vt -4.92126 6.39764
vt -5.90551 6.39764
vt -5.90551 5.90551
vt 5.90551 6.39764
vt 4.92126 6.39764
vt 4.92126 5.90551
vt 5.90551 5.90551
vt 4.92126 6.29921
vt 1.77636E-15 -3.0
vt 1.77636E-15 -2.0
vt 1.0 -2.0
vt 1.0 -3.0
vt 0.0 -2.0
vt 0.0 -3.0
vt 4.92126 4.42913
vt 5.90551 4.42913
vt 5.90551 4.92126
vt 4.92126 4.92126
vt -4.92126 4.92126
vt -5.90551 4.92126
vt -5.90551 4.42913
vt -4.92126 4.42913
vt -11.3189 -5.90551
vt -11.3189 -4.92126
vt -11.811 -4.92126
vt -11.811 -5.90551
vt -7.87402 -5.90551
vt -7.87402 -4.92126
vt -8.36614 -4.92126
vt -8.36614 -5.90551
vt 6.0 10.0
vt 8.0 10.0
vt 8.0 11.0
vt 6.0 11.0
vt 1.25 -1.0
vt 1.25 8.88178E-16
vt 2.25 8.88178E-16
vt 2.25 -1.0
vt 13.0 -1.0
vt 14.0 -1.0
vt 14.0 -0.8
vt 14.0 8.88178E-16
vt 13.0 8.88178E-16
vt 14.0 0.0
vt 13.0 0.0
vt -4.92126 5.90551
vt -4.92126 6.39764
vt -5.90551 6.39764
vt -5.90551 5.90551
vt 5.90551 6.39764
vt 4.92126 6.39764
vt 4.92126 5.90551
vt 5.90551 5.90551
vt 4.92126 6.29921
vn 0.0 0.0 1.0
vn -1.0 0.0 0.0
vn 1.0 0.0 0.0
vn 0.0 0.0 1.0
vn -1.0 0.0 0.0
vn 1.0 0.0 0.0
vn 0.0 0.0 1.0
vn -1.0 0.0 0.0
vn 1.0 0.0 0.0
vn 0.0 0.0 1.0
vn -1.0 0.0 0.0
vn 1.0 0.0 0.0
vn 0.0 0.0 1.0
vn -1.0 0.0 0.0
vn 1.0 0.0 0.0
vn 0.0 0.0 1.0
vn -1.0 0.0 0.0
vn 1.0 0.0 0.0
vn 0.0 0.0 1.0
vn -1.0 0.0 0.0
vn 1.0 0.0 0.0
vn 0.0 0.0 1.0
vn -1.0 0.0 0.0
vn 1.0 0.0 0.0
vn 0.0 0.0 1.0
vn -1.0 0.0 0.0
vn 1.0 0.0 0.0
c 1.0 1.0 1.0
c 1.0 1.0 1.0
c 1.0 1.0 1.0
c 1.0 1.0 1.0
c 1.0 1.0 1.0
c 1.0 1.0 1.0
c 1.0 1.0 1.0
c 1.0 1.0 1.0
c 1.0 1.0 1.0
usemtl a8_sora_b__lm1
s off
f 11/27/2/1 25/28/2/1 26/29/2/1 12/30/2/1
f 27/28/2/1 28/29/2/1 29/30/2/1 30/27/2/1
f 31/31/3/1 33/33/3/1 34/34/3/1 35/35/3/1
f 14/31/3/1 13/32/3/1 36/36/3/1 37/37/3/1
f 49/73/5/2 63/74/5/2 64/75/5/2 50/76/5/2
f 65/74/5/2 66/75/5/2 67/76/5/2 68/73/5/2
f 69/77/6/2 71/79/6/2 72/80/6/2 73/81/6/2
f 52/77/6/2 51/78/6/2 74/82/6/2 75/83/6/2
f 87/119/8/3 101/120/8/3 102/121/8/3 88/122/8/3
f 103/120/8/3 104/121/8/3 105/122/8/3 106/119/8/3
f 107/123/9/3 109/125/9/3 110/126/9/3 111/127/9/3
f 90/123/9/3 89/124/9/3 112/128/9/3 113/129/9/3
f 125/165/11/4 139/166/11/4 140/167/11/4 126/168/11/4
f 141/166/11/4 142/167/11/4 143/168/11/4 144/165/11/4
f 145/169/12/4 147/171/12/4 148/172/12/4 149/173/12/4
f 128/169/12/4 127/170/12/4 150/174/12/4 151/175/12/4
f 163/211/14/5 177/212/14/5 178/213/14/5 164/214/14/5
f 179/212/14/5 180/213/14/5 181/214/14/5 182/211/14/5
f 183/215/15/5 185/217/15/5 186/218/15/5 187/219/15/5
f 166/215/15/5 165/216/15/5 188/220/15/5 189/221/15/5
f 201/257/17/6 215/258/17/6 216/259/17/6 202/260/17/6
f 217/258/17/6 218/259/17/6 219/260/17/6 220/257/17/6
f 221/261/18/6 223/263/18/6 224/264/18/6 225/265/18/6
f 204/261/18/6 203/262/18/6 226/266/18/6 227/267/18/6
f 239/303/20/7 253/304/20/7 254/305/20/7 240/306/20/7
f 255/304/20/7 256/305/20/7 257/306/20/7 258/303/20/7
f 259/307/21/7 261/309/21/7 262/310/21/7 263/311/21/7
f 242/307/21/7 241/308/21/7 264/312/21/7 265/313/21/7
f 277/349/23/8 291/350/23/8 292/351/23/8 278/352/23/8
f 293/350/23/8 294/351/23/8 295/352/23/8 296/349/23/8
f 297/353/24/8 299/355/24/8 300/356/24/8 301/357/24/8
f 280/353/24/8 279/354/24/8 302/358/24/8 303/359/24/8
f 315/395/26/9 329/396/26/9 330/397/26/9 316/398/26/9
f 331/396/26/9 332/397/26/9 333/398/26/9 334/395/26/9
f 335/399/27/9 337/401/27/9 338/402/27/9 339/403/27/9
f 318/399/27/9 317/400/27/9 340/404/27/9 341/405/27/9
f 31/31/3/1 32/32/3/1 33/33/3/1
f 69/77/6/2 70/78/6/2 71/79/6/2
f 107/123/9/3 108/124/9/3 109/125/9/3
f 145/169/12/4 146/170/12/4 147/171/12/4
f 183/215/15/5 184/216/15/5 185/217/15/5
f 221/261/18/6 222/262/18/6 223/263/18/6
f 259/307/21/7 260/308/21/7 261/309/21/7
f 297/353/24/8 298/354/24/8 299/355/24/8
f 335/399/27/9 336/400/27/9 337/401/27/9
usemtl a8_sora_g_lm1
s off
f 34/38/3/1 18/39/3/1 17/40/3/1 35/41/3/1
f 24/42/2/1 23/43/2/1 28/44/2/1 27/45/2/1
f 20/42/2/1 38/46/2/1 26/44/2/1 25/45/2/1
f 21/40/3/1 37/41/3/1 36/38/3/1 22/39/3/1
f 72/84/6/2 56/85/6/2 55/86/6/2 73/87/6/2
f 62/88/5/2 61/89/5/2 66/90/5/2 65/91/5/2
f 58/88/5/2 76/92/5/2 64/90/5/2 63/91/5/2
f 59/86/6/2 75/87/6/2 74/84/6/2 60/85/6/2
f 110/130/9/3 94/131/9/3 93/132/9/3 111/133/9/3
f 100/134/8/3 99/135/8/3 104/136/8/3 103/137/8/3
f 96/134/8/3 114/138/8/3 102/136/8/3 101/137/8/3
f 97/132/9/3 113/133/9/3 112/130/9/3 98/131/9/3
f 148/176/12/4 132/177/12/4 131/178/12/4 149/179/12/4
f 138/180/11/4 137/181/11/4 142/182/11/4 141/183/11/4
f 134/180/11/4 152/184/11/4 140/182/11/4 139/183/11/4
f 135/178/12/4 151/179/12/4 150/176/12/4 136/177/12/4
f 186/222/15/5 170/223/15/5 169/224/15/5 187/225/15/5
f 176/226/14/5 175/227/14/5 180/228/14/5 179/229/14/5
f 172/226/14/5 190/230/14/5 178/228/14/5 177/229/14/5
f 173/224/15/5 189/225/15/5 188/222/15/5 174/223/15/5
f 224/268/18/6 208/269/18/6 207/270/18/6 225/271/18/6
f 214/272/17/6 213/273/17/6 218/274/17/6 217/275/17/6
f 210/272/17/6 228/276/17/6 216/274/17/6 215/275/17/6
f 211/270/18/6 227/271/18/6 226/268/18/6 212/269/18/6
f 262/314/21/7 246/315/21/7 245/316/21/7 263/317/21/7
f 252/318/20/7 251/319/20/7 256/320/20/7 255/321/20/7
f 248/318/20/7 266/322/20/7 254/320/20/7 253/321/20/7
f 249/316/21/7 265/317/21/7 264/314/21/7 250/315/21/7
f 300/360/24/8 284/361/24/8 283/362/24/8 301/363/24/8
f 290/364/23/8 289/365/23/8 294/366/23/8 293/367/23/8
f 286/364/23/8 304/368/23/8 292/366/23/8 291/367/23/8
f 287/362/24/8 303/363/24/8 302/360/24/8 288/361/24/8
f 338/406/27/9 322/407/27/9 321/408/27/9 339/409/27/9
f 328/410/26/9 327/411/26/9 332/412/26/9 331/413/26/9
f 324/410/26/9 342/414/26/9 330/412/26/9 329/413/26/9
f 325/408/27/9 341/409/27/9 340/406/27/9 326/407/27/9
f 20/42/2/1 19/43/2/1 38/46/2/1
f 58/88/5/2 57/89/5/2 76/92/5/2
f 96/134/8/3 95/135/8/3 114/138/8/3
f 134/180/11/4 133/181/11/4 152/184/11/4
f 172/226/14/5 171/227/14/5 190/230/14/5
f 210/272/17/6 209/273/17/6 228/276/17/6
f 248/318/20/7 247/319/20/7 266/322/20/7
f 286/364/23/8 285/365/23/8 304/368/23/8
f 324/410/26/9 323/411/26/9 342/414/26/9
usemtl a8_sora_f_lm1
s off
f 17/15/1/1 18/16/1/1 19/17/1/1 20/18/1/1
f 21/19/1/1 22/20/1/1 23/21/1/1 24/22/1/1
f 55/61/4/2 56/62/4/2 57/63/4/2 58/64/4/2
f 59/65/4/2 60/66/4/2 61/67/4/2 62/68/4/2
f 93/107/7/3 94/108/7/3 95/109/7/3 96/110/7/3
f 97/111/7/3 98/112/7/3 99/113/7/3 100/114/7/3
f 131/153/10/4 132/154/10/4 133/155/10/4 134/156/10/4
f 135/157/10/4 136/158/10/4 137/159/10/4 138/160/10/4
f 169/199/13/5 170/200/13/5 171/201/13/5 172/202/13/5
f 173/203/13/5 174/204/13/5 175/205/13/5 176/206/13/5
f 207/245/16/6 208/246/16/6 209/247/16/6 210/248/16/6
f 211/249/16/6 212/250/16/6 213/251/16/6 214/252/16/6
f 245/291/19/7 246/292/19/7 247/293/19/7 248/294/19/7
f 249/295/19/7 250/296/19/7 251/297/19/7 252/298/19/7
f 283/337/22/8 284/338/22/8 285/339/22/8 286/340/22/8
f 287/341/22/8 288/342/22/8 289/343/22/8 290/344/22/8
f 321/383/25/9 322/384/25/9 323/385/25/9 324/386/25/9
f 325/387/25/9 326/388/25/9 327/389/25/9 328/390/25/9
usemtl a8_sora_i_lm1
s off
f 9/7/2/1 10/8/2/1 11/9/2/1 12/10/2/1
f 13/11/3/1 14/12/3/1 15/13/3/1 16/14/3/1
f 47/53/5/2 48/54/5/2 49/55/5/2 50/56/5/2
f 51/57/6/2 52/58/6/2 53/59/6/2 54/60/6/2
f 85/99/8/3 86/100/8/3 87/101/8/3 88/102/8/3
f 89/103/9/3 90/104/9/3 91/105/9/3 92/106/9/3
f 123/145/11/4 124/146/11/4 125/147/11/4 126/148/11/4
f 127/149/12/4 128/150/12/4 129/151/12/4 130/152/12/4
f 161/191/14/5 162/192/14/5 163/193/14/5 164/194/14/5
f 165/195/15/5 166/196/15/5 167/197/15/5 168/198/15/5
f 199/237/17/6 200/238/17/6 201/239/17/6 202/240/17/6
f 203/241/18/6 204/242/18/6 205/243/18/6 206/244/18/6
f 237/283/20/7 238/284/20/7 239/285/20/7 240/286/20/7
f 241/287/21/7 242/288/21/7 243/289/21/7 244/290/21/7
f 275/329/23/8 276/330/23/8 277/331/23/8 278/332/23/8
f 279/333/24/8 280/334/24/8 281/335/24/8 282/336/24/8
f 313/375/26/9 314/376/26/9 315/377/26/9 316/378/26/9
f 317/379/27/9 318/380/27/9 319/381/27/9 320/382/27/9
usemtl a8_sora_a_lm1
s off
f 5/23/1/1 4/24/1/1 3/25/1/1 6/26/1/1
f 43/69/4/2 42/70/4/2 41/71/4/2 44/72/4/2
f 81/115/7/3 80/116/7/3 79/117/7/3 82/118/7/3
f 119/161/10/4 118/162/10/4 117/163/10/4 120/164/10/4
f 157/207/13/5 156/208/13/5 155/209/13/5 158/210/13/5
f 195/253/16/6 194/254/16/6 193/255/16/6 196/256/16/6
f 233/299/19/7 232/300/19/7 231/301/19/7 234/302/19/7
f 271/345/22/8 270/346/22/8 269/347/22/8 272/348/22/8
f 309/391/25/9 308/392/25/9 307/393/25/9 310/394/25/9
usemtl a8_sora_d_lm1
s off
f 1/1/1/1 2/2/1/1 3/3/1/1 4/4/1/1
f 5/4/1/1 6/3/1/1 7/5/1/1 8/6/1/1
f 39/47/4/2 40/48/4/2 41/49/4/2 42/50/4/2
f 43/50/4/2 44/49/4/2 45/51/4/2 46/52/4/2
f 77/93/7/3 78/94/7/3 79/95/7/3 80/96/7/3
f 81/96/7/3 82/95/7/3 83/97/7/3 84/98/7/3
f 115/139/10/4 116/140/10/4 117/141/10/4 118/142/10/4
f 119/142/10/4 120/141/10/4 121/143/10/4 122/144/10/4
f 153/185/13/5 154/186/13/5 155/187/13/5 156/188/13/5
f 157/188/13/5 158/187/13/5 159/189/13/5 160/190/13/5
f 191/231/16/6 192/232/16/6 193/233/16/6 194/234/16/6
f 195/234/16/6 196/233/16/6 197/235/16/6 198/236/16/6
f 229/277/19/7 230/278/19/7 231/279/19/7 232/280/19/7
f 233/280/19/7 234/279/19/7 235/281/19/7 236/282/19/7
f 267/323/22/8 268/324/22/8 269/325/22/8 270/326/22/8
f 271/326/22/8 272/325/22/8 273/327/22/8 274/328/22/8
f 305/369/25/9 306/370/25/9 307/371/25/9 308/372/25/9
f 309/372/25/9 310/371/25/9 311/373/25/9 312/374/25/9
