mtllib Victory-Road-3_05_03.mtl
o map
v -16.0 -16.0 0.0
v -15.0 -16.0 0.0
v -15.0 -8.0 0.0
v -16.0 -8.0 0.0
v -16.0 -8.0 0.0
v -15.0 -8.0 0.0
v -15.0 -3.0 0.0
v -16.0 -3.0 0.0
v -16.0 -3.0 1.000002
v -14.0 -3.0 1.000002
v -16.0 -2.0 1.000002
v -14.0 -2.0 1.000002
v -16.0 -2.0 2.000002
v -13.0 -2.0 2.000002
v -16.0 -1.0 2.000002
v -13.0 -1.0 2.000002
v -16.0 0.0 3.0000029
v -16.0 -1.0 3.000002
v -13.0 0.0 3.0000029
v -13.0 -1.0 3.000002
v -16.0 0.0 3.000002
v -8.0 0.0 3.000002
v -8.0 8.0 3.0000029
v -16.0 8.0 3.0000029
v -16.0 8.0 3.000002
v -8.0 8.0 3.000002
v -8.0 16.0 3.0000029
v -16.0 16.0 3.0000029
v -15.0 -16.0 1.000002
v -14.0 -16.0 1.000002
v -15.0 -8.0 1.000002
v -14.0 -8.0 1.000002
v -15.0 -8.0 1.000002
v -14.0 -8.0 1.000002
v -15.0 -3.0 1.000002
v -14.0 -3.0 1.000002
v -14.0 -16.0 2.000002
v -13.0 -16.0 2.000002
v -14.0 -8.0 2.000002
v -13.0 -8.0 2.000002
v -14.0 -8.0 2.000002
v -13.0 -8.0 2.000002
v -14.0 -2.0 2.000002
v -13.0 -2.0 2.000002
v -12.0 -8.0 3.0000029
v -13.0 -8.0 3.000002
v -12.0 -16.0 3.0000029
v -13.0 -16.0 3.000002
v -12.0 -1.0 3.0000029
v -13.0 -1.0 3.000002
v -12.0 -8.0 3.0000029
v -13.0 -8.0 3.000002
v -13.0 -1.0 3.000002
v -5.0 -1.0 3.000002
v -5.0 0.0 3.0000029
v -13.0 0.0 3.0000029
v -12.0 -16.0 3.000002
v -4.0 -16.0 3.000002
v -4.0 -8.0 3.0000029
v -12.0 -8.0 3.0000029
v -12.0 -8.0 3.000002
v -4.0 -8.0 3.000002
v -4.0 -1.0 3.0000029
v -12.0 -1.0 3.0000029
v -8.0 0.0 3.000002
v 0.0 0.0 3.000002
v 0.0 8.0 3.0000029
v -8.0 8.0 3.0000029
v -8.0 8.0 3.000002
v 0.0 8.0 3.000002
v 0.0 16.0 3.0000029
v -8.0 16.0 3.0000029
v -5.0 -1.0 3.000002
v 3.0 -1.0 3.000002
v 3.0 0.0 3.0000029
v -5.0 0.0 3.0000029
v -4.0 -16.0 3.000002
v 4.0 -16.0 3.000002
v 4.0 -8.0 3.0000029
v -4.0 -8.0 3.0000029
v -4.0 -8.0 3.000002
v 4.0 -8.0 3.000002
v 4.0 -1.0 3.0000029
v -4.0 -1.0 3.0000029
v 0.0 0.0 3.000002
v 8.0 0.0 3.000002
v 8.0 8.0 3.0000029
v 0.0 8.0 3.0000029
v 0.0 8.0 3.000002
v 8.0 8.0 3.000002
v 8.0 16.0 3.0000029
v 0.0 16.0 3.0000029
v 3.0 -1.0 3.000002
v 11.0 -1.0 3.000002
v 11.0 0.0 3.0000029
v 3.0 0.0 3.0000029
v 4.0 -16.0 3.000002
v 12.0 -16.0 3.000002
v 12.0 -8.0 3.0000029
v 4.0 -8.0 3.0000029
v 4.0 -8.0 3.000002
v 12.0 -8.0 3.000002
v 12.0 -1.0 3.0000029
v 4.0 -1.0 3.0000029
v 8.0 0.0 3.000002
v 16.0 0.0 3.000002
v 16.0 8.0 3.0000029
v 8.0 8.0 3.0000029
v 8.0 8.0 3.000002
v 16.0 8.0 3.000002
v 16.0 16.0 3.0000029
v 8.0 16.0 3.0000029
v 11.0 -1.0 3.000002
v 16.0 -1.0 3.000002
v 16.0 0.0 3.0000029
v 11.0 0.0 3.0000029
v 12.0 -16.0 3.000002
v 16.0 -16.0 3.000002
v 16.0 -8.0 3.0000029
v 12.0 -8.0 3.0000029
v 12.0 -8.0 3.000002
v 16.0 -8.0 3.000002
v 16.0 -1.0 3.0000029
v 12.0 -1.0 3.0000029
v -15.0 -8.0 1.000002
v -15.375 -8.0 0.875002
v -15.375 -8.0 0.875002
v -15.625 -8.0 0.250002
v -15.625 -8.0 0.250002
v -16.0 -8.0 2.026558E-6
v -16.0 -16.0 2.026558E-6
v -15.625 -16.0 0.250002
v -15.375 -16.0 0.875002
v -15.0 -16.0 1.000002
v -15.375 -16.0 0.875002
v -15.625 -16.0 0.250002
v -15.0 -4.0 1.000002
v -15.375 -4.0 0.875002
v -15.375 -4.0 0.875002
v -15.625 -4.0 0.250002
v -15.625 -4.0 0.250002
v -16.0 -4.0 2.026558E-6
v -16.0 -8.0 2.026558E-6
v -15.625 -8.0 0.250002
v -15.375 -8.0 0.875002
v -15.0 -8.0 1.000002
v -15.375 -8.0 0.875002
v -15.625 -8.0 0.250002
v -16.0 -3.0 1.000002
v -16.0 -3.375 0.875002
v -16.0 -3.375 0.875002
v -16.0 -3.625 0.250002
v -16.0 -3.625 0.250002
v -16.0 -4.0 2.026558E-6
v -15.0 -4.0 2.026558E-6
v -15.0 -3.625 0.250002
v -15.0 -3.375 0.875002
v -15.0 -3.0 1.000002
v -15.0 -3.375 0.875002
v -15.0 -3.625 0.250002
v -15.0 -3.0 1.000002
v -15.375 -3.0 0.875002
v -15.375 -3.0 0.875002
v -15.625 -3.0 0.250002
v -15.625 -3.0 0.250002
v -16.0 -3.0 2.026558E-6
v -16.0 -4.0 2.026558E-6
v -15.625 -4.0 0.250002
v -15.375 -4.0 0.875002
v -15.0 -4.0 1.000002
v -15.375 -4.0 0.875002
v -15.625 -4.0 0.250002
v -16.0 -2.0 2.000002
v -16.0 -2.375 1.875002
v -16.0 -2.375 1.875002
v -16.0 -2.625 1.250002
v -16.0 -2.625 1.250002
v -16.0 -3.0 1.000002
v -15.0 -3.0 1.000002
v -15.0 -2.625 1.250002
v -15.0 -2.375 1.875002
v -15.0 -2.0 2.000002
v -15.0 -2.375 1.875002
v -15.0 -2.625 1.250002
v -16.0 -1.0 3.000002
v -16.0 -1.375 2.875002
v -16.0 -1.375 2.875002
v -16.0 -1.625 2.250002
v -16.0 -1.625 2.250002
v -16.0 -2.0 2.000002
v -14.0 -2.0 2.000002
v -14.0 -1.625 2.250002
v -14.0 -1.375 2.875002
v -14.0 -1.0 3.000002
v -14.0 -1.375 2.875002
v -14.0 -1.625 2.250002
v -14.0 -8.0 2.000002
v -14.375 -8.0 1.875002
v -14.375 -8.0 1.875002
v -14.625 -8.0 1.250002
v -14.625 -8.0 1.250002
v -15.0 -8.0 1.000002
v -15.0 -16.0 1.000002
v -14.625 -16.0 1.250002
v -14.375 -16.0 1.875002
v -14.0 -16.0 2.000002
v -14.375 -16.0 1.875002
v -14.625 -16.0 1.250002
v -14.0 -3.0 2.000002
v -14.375 -3.0 1.875002
v -14.375 -3.0 1.875002
v -14.625 -3.0 1.250002
v -14.625 -3.0 1.250002
v -15.0 -3.0 1.000002
v -15.0 -8.0 1.000002
v -14.625 -8.0 1.250002
v -14.375 -8.0 1.875002
v -14.0 -8.0 2.000002
v -14.375 -8.0 1.875002
v -14.625 -8.0 1.250002
v -15.0 -2.0 2.000002
v -15.0 -2.375 1.875002
v -15.0 -2.375 1.875002
v -15.0 -2.625 1.250002
v -15.0 -2.625 1.250002
v -15.0 -3.0 1.000002
v -14.0 -3.0 1.000002
v -14.0 -2.625 1.250002
v -14.0 -2.375 1.875002
v -14.0 -2.0 2.000002
v -14.0 -2.375 1.875002
v -14.0 -2.625 1.250002
v -14.0 -2.0 2.000002
v -14.375 -2.0 1.875002
v -14.375 -2.0 1.875002
v -14.625 -2.0 1.250002
v -14.625 -2.0 1.250002
v -15.0 -2.0 1.000002
v -15.0 -3.0 1.000002
v -14.625 -3.0 1.250002
v -14.375 -3.0 1.875002
v -14.0 -3.0 2.000002
v -14.375 -3.0 1.875002
v -14.625 -3.0 1.250002
v -13.0 -8.0 3.000002
v -13.375 -8.0 2.875002
v -13.375 -8.0 2.875002
v -13.625 -8.0 2.250002
v -13.625 -8.0 2.250002
v -14.0 -8.0 2.000002
v -14.0 -16.0 2.000002
v -13.625 -16.0 2.250002
v -13.375 -16.0 2.875002
v -13.0 -16.0 3.000002
v -13.375 -16.0 2.875002
v -13.625 -16.0 2.250002
v -13.0 -2.0 3.000002
v -13.375 -2.0 2.875002
v -13.375 -2.0 2.875002
v -13.625 -2.0 2.250002
v -13.625 -2.0 2.250002
v -14.0 -2.0 2.000002
v -14.0 -8.0 2.000002
v -13.625 -8.0 2.250002
v -13.375 -8.0 2.875002
v -13.0 -8.0 3.000002
v -13.375 -8.0 2.875002
v -13.625 -8.0 2.250002
v -14.0 -1.0 3.000002
v -14.0 -1.375 2.875002
v -14.0 -1.375 2.875002
v -14.0 -1.625 2.250002
v -14.0 -1.625 2.250002
v -14.0 -2.0 2.000002
v -13.0 -2.0 2.000002
v -13.0 -1.625 2.250002
v -13.0 -1.375 2.875002
v -13.0 -1.0 3.000002
v -13.0 -1.375 2.875002
v -13.0 -1.625 2.250002
v -13.0 -1.0 3.000002
v -13.375 -1.0 2.875002
v -13.375 -1.0 2.875002
v -13.625 -1.0 2.250002
v -13.625 -1.0 2.250002
v -14.0 -1.0 2.000002
v -14.0 -2.0 2.000002
v -13.625 -2.0 2.250002
v -13.375 -2.0 2.875002
v -13.0 -2.0 3.000002
v -13.375 -2.0 2.875002
v -13.625 -2.0 2.250002
vt 0.0 0.0
vt 0.25 0.0
vt 0.25 2.0
vt 0.0 2.0
vt 0.0 2.0
vt 0.25 2.0
vt 0.25 3.25
vt 0.0 3.25
vt -2.0 14.0
vt -4.0 14.0
vt -4.0 13.0
vt -2.0 13.0
vt -3.0 14.0
vt -6.0 14.0
vt -6.0 13.0
vt -3.0 13.0
vt -3.0 -1.0
vt 0.0 -1.0
vt 0.0 0.0
vt -3.0 0.0
vt 0.0625 0.9375
vt 0.0625 0.9375
vt 0.0625 0.9375
vt 0.0625 0.9375
vt 0.0625 0.9375
vt 0.0625 0.9375
vt 0.0625 0.9375
vt 0.0625 0.9375
vt -1.0 112.0
vt -2.0 112.0
vt -2.0 104.0
vt -1.0 104.0
vt -1.0 70.0
vt -2.0 70.0
vt -2.0 65.0
vt -1.0 65.0
vt -1.0 112.0
vt -2.0 112.0
vt -2.0 104.0
vt -1.0 104.0
vt -1.0 84.0
vt -2.0 84.0
vt -2.0 78.0
vt -1.0 78.0
vt -8.0 -1.0
vt 0.0 -1.0
vt 0.0 0.0
vt -8.0 0.0
vt -7.0 -1.0
vt 0.0 -1.0
vt 0.0 0.0
vt -7.0 0.0
vt 0.0625 0.9375
vt 0.0625 0.9375
vt 0.0625 0.9375
vt 0.0625 0.9375
vt 0.0625 0.9375
vt 0.0625 0.9375
vt 0.0625 0.9375
vt 0.0625 0.9375
vt 0.0625 0.9375
vt 0.0625 0.9375
vt 0.0625 0.9375
vt 0.0625 0.9375
vt 0.0625 0.9375
vt 0.0625 0.9375
vt 0.0625 0.9375
vt 0.0625 0.9375
vt 0.0625 0.9375
vt 0.0625 0.9375
vt 0.0625 0.9375
vt 0.0625 0.9375
vt 0.0625 0.9375
vt 0.0625 0.9375
vt 0.0625 0.9375
vt 0.0625 0.9375
vt 0.0625 0.9375
vt 0.0625 0.9375
vt 0.0625 0.9375
vt 0.0625 0.9375
vt 0.0625 0.9375
vt 0.0625 0.9375
vt 0.0625 0.9375
vt 0.0625 0.9375
vt 0.0625 0.9375
vt 0.0625 0.9375
vt 0.0625 0.9375
vt 0.0625 0.9375
vt 0.0625 0.9375
vt 0.0625 0.9375
vt 0.0625 0.9375
vt 0.0625 0.9375
vt 0.0625 0.9375
vt 0.0625 0.9375
vt 0.0625 0.9375
vt 0.0625 0.9375
vt 0.0625 0.9375
vt 0.0625 0.9375
vt 0.0625 0.9375
vt 0.0625 0.9375
vt 0.0625 0.9375
vt 0.0625 0.9375
vt 0.0625 0.9375
vt 0.0625 0.9375
vt 0.0625 0.9375
vt 0.0625 0.9375
vt 0.0625 0.9375
vt 0.0625 0.9375
vt 0.0625 0.9375
vt 0.0625 0.9375
vt 0.0625 0.9375
vt 0.0625 0.9375
vt 0.0625 0.9375
vt 0.0625 0.9375
vt 0.0625 0.9375
vt 0.0625 0.9375
vt 0.0625 0.9375
vt 0.0625 0.9375
vt 0.0625 0.9375
vt 0.0625 0.9375
vt 0.0625 0.9375
vt 0.0625 0.9375
vt 0.0625 0.9375
vt 0.0625 0.9375
vt -20.0 -1.0
vt -16.0 -1.0
vt -16.0 0.0
vt -20.0 0.0
vt -20.0 -0.5625
vt -16.0 -0.5625
vt -16.0 0.0
vt -20.0 0.0
vt -20.0 -1.0
vt -16.0 -1.0
vt -16.0 -0.5625
vt -20.0 -0.5625
vt -10.0 -1.0
vt -8.0 -1.0
vt -8.0 0.0
vt -10.0 0.0
vt -10.0 -0.5625
vt -8.0 -0.5625
vt -8.0 0.0
vt -10.0 0.0
vt -10.0 -1.0
vt -8.0 -1.0
vt -8.0 -0.5625
vt -10.0 -0.5625
vt -2.5 -1.0
vt -2.0 -1.0
vt -2.0 0.0
vt -2.5 0.0
vt -2.5 -1.0
vt -2.0 -1.0
vt -2.0 0.0
vt -2.5 0.0
vt -2.5 -0.5625
vt -2.0 -0.5625
vt -2.0 0.0
vt -2.5 0.0
vt -2.5 -0.5625
vt -2.0 -0.5625
vt -2.0 0.0
vt -2.5 0.0
vt -2.5 -1.0
vt -2.0 -1.0
vt -2.0 -0.5625
vt -2.5 -0.5625
vt -2.5 -1.0
vt -2.0 -1.0
vt -2.0 -0.5625
vt -2.5 -0.5625
vt -2.5 -1.0
vt -2.0 -1.0
vt -2.0 0.0
vt -2.5 0.0
vt -2.5 -0.5625
vt -2.0 -0.5625
vt -2.0 0.0
vt -2.5 0.0
vt -2.5 -1.0
vt -2.0 -1.0
vt -2.0 -0.5625
vt -2.5 -0.5625
vt -5.0 -1.0
vt -4.0 -1.0
vt -4.0 0.0
vt -5.0 0.0
vt -5.0 -0.5625
vt -4.0 -0.5625
vt -4.0 0.0
vt -5.0 0.0
vt -5.0 -1.0
vt -4.0 -1.0
vt -4.0 -0.5625
vt -5.0 -0.5625
vt -20.0 -1.0
vt -16.0 -1.0
vt -16.0 0.0
vt -20.0 0.0
vt -20.0 -0.5625
vt -16.0 -0.5625
vt -16.0 0.0
vt -20.0 0.0
vt -20.0 -1.0
vt -16.0 -1.0
vt -16.0 -0.5625
vt -20.0 -0.5625
vt -12.5 -1.0
vt -10.0 -1.0
vt -10.0 0.0
vt -12.5 0.0
vt -12.5 -0.5625
vt -10.0 -0.5625
vt -10.0 0.0
vt -12.5 0.0
vt -12.5 -1.0
vt -10.0 -1.0
vt -10.0 -0.5625
vt -12.5 -0.5625
vt -2.5 -1.0
vt -2.0 -1.0
vt -2.0 0.0
vt -2.5 0.0
vt -2.5 -1.0
vt -2.0 -1.0
vt -2.0 0.0
vt -2.5 0.0
vt -2.5 -0.5625
vt -2.0 -0.5625
vt -2.0 0.0
vt -2.5 0.0
vt -2.5 -0.5625
vt -2.0 -0.5625
vt -2.0 0.0
vt -2.5 0.0
vt -2.5 -1.0
vt -2.0 -1.0
vt -2.0 -0.5625
vt -2.5 -0.5625
vt -2.5 -1.0
vt -2.0 -1.0
vt -2.0 -0.5625
vt -2.5 -0.5625
vt -20.0 -1.0
vt -16.0 -1.0
vt -16.0 0.0
vt -20.0 0.0
vt -20.0 -0.5625
vt -16.0 -0.5625
vt -16.0 0.0
vt -20.0 0.0
vt -20.0 -1.0
vt -16.0 -1.0
vt -16.0 -0.5625
vt -20.0 -0.5625
vt -15.0 -1.0
vt -12.0 -1.0
vt -12.0 0.0
vt -15.0 0.0
vt -15.0 -0.5625
vt -12.0 -0.5625
vt -12.0 0.0
vt -15.0 0.0
vt -15.0 -1.0
vt -12.0 -1.0
vt -12.0 -0.5625
vt -15.0 -0.5625
vt -2.5 -1.0
vt -2.0 -1.0
vt -2.0 0.0
vt -2.5 0.0
vt -2.5 -1.0
vt -2.0 -1.0
vt -2.0 0.0
vt -2.5 0.0
vt -2.5 -0.5625
vt -2.0 -0.5625
vt -2.0 0.0
vt -2.5 0.0
vt -2.5 -0.5625
vt -2.0 -0.5625
vt -2.0 0.0
vt -2.5 0.0
vt -2.5 -1.0
vt -2.0 -1.0
vt -2.0 -0.5625
vt -2.5 -0.5625
vt -2.5 -1.0
vt -2.0 -1.0
vt -2.0 -0.5625
vt -2.5 -0.5625
vn 0.0 0.0 1.0
vn 0.0 0.0 1.0
vn 0.0 -0.0 1.0
vn 0.0 -0.0 1.0
vn 0.0 -0.0 1.0
vn 0.0 -0.0 1.0
vn 0.0 -0.0 1.0
vn 0.0 -0.0 1.0
vn 0.0 -0.0 1.0
vn 0.0 -0.0 1.0
vn 0.0 -0.0 1.0
vn -0.0 -0.0 1.0
vn -0.0 -0.0 1.0
vn 0.0 -0.0 1.0
vn 0.0 -0.0 1.0
vn 0.0 -0.0 1.0
vn 0.0 -0.0 1.0
vn 0.0 -0.0 1.0
vn 0.0 -0.0 1.0
vn 0.0 -0.0 1.0
vn 0.0 -0.0 1.0
vn 0.0 -0.0 1.0
vn 0.0 -0.0 1.0
vn 0.0 -0.0 1.0
vn 0.0 -0.0 1.0
vn 0.0 -0.0 1.0
vn 0.0 -0.0 1.0
vn 0.0 -0.0 1.0
vn 0.0 -0.0 1.0
vn 0.0 -0.0 1.0
vn 0.0 -0.0 1.0
vn -0.3162 -0.0 0.9487
vn -0.9285 -0.0 0.3714
vn -0.5547 -0.0 0.8321
vn -0.3162 -0.0 0.9487
vn -0.9285 -0.0 0.3714
vn -0.5547 -0.0 0.8321
vn 0.0 -0.3162 0.9487
vn -0.3162 0.0 0.9487
vn 0.0 -0.9285 0.3714
vn -0.9285 0.0 0.3714
vn 0.0 -0.5547 0.8321
vn -0.5547 0.0 0.8321
vn 0.0 -0.3162 0.9487
vn 0.0 -0.9285 0.3714
vn 0.0 -0.5547 0.8321
vn 0.0 -0.3162 0.9487
vn 0.0 -0.9285 0.3714
vn 0.0 -0.5547 0.8321
vn -0.3162 -0.0 0.9487
vn -0.9285 -0.0 0.3714
vn -0.5547 -0.0 0.8321
vn -0.3162 -0.0 0.9487
vn -0.9285 -0.0 0.3714
vn -0.5547 -0.0 0.8321
vn 0.0 -0.3162 0.9487
vn -0.3162 0.0 0.9487
vn 0.0 -0.9285 0.3714
vn -0.9285 0.0 0.3714
vn 0.0 -0.5547 0.8321
vn -0.5547 0.0 0.8321
vn -0.3162 -0.0 0.9487
vn -0.9285 -0.0 0.3714
vn -0.5547 -0.0 0.8321
vn -0.3162 -0.0 0.9487
vn -0.9285 -0.0 0.3714
vn -0.5547 -0.0 0.8321
vn 0.0 -0.3162 0.9487
vn -0.3162 0.0 0.9487
vn 0.0 -0.9285 0.3714
vn -0.9285 0.0 0.3714
vn 0.0 -0.5547 0.8321
vn -0.5547 0.0 0.8321
c 1.0 1.0 1.0
c 1.0 1.0 1.0
c 1.0 1.0 1.0
c 1.0 1.0 1.0
c 1.0 1.0 1.0
c 1.0 1.0 1.0
c 1.0 1.0 1.0
c 1.0 1.0 1.0
c 1.0 1.0 1.0
c 1.0 1.0 1.0
c 1.0 1.0 1.0
c 1.0 1.0 1.0
c 1.0 1.0 1.0
c 1.0 1.0 1.0
c 1.0 1.0 1.0
c 1.0 1.0 1.0
c 1.0 1.0 1.0
c 1.0 1.0 1.0
c 1.0 1.0 1.0
c 1.0 1.0 1.0
c 1.0 1.0 1.0
c 1.0 1.0 1.0
c 1.0 1.0 1.0
c 1.0 1.0 1.0
c 1.0 1.0 1.0
c 1.0 1.0 1.0
c 1.0 1.0 1.0
c 1.0 1.0 1.0
c 1.0 1.0 1.0
c 1.0 1.0 1.0
c 1.0 1.0 1.0
c 1.0 1.0 1.0
c 1.0 1.0 1.0
c 1.0 1.0 1.0
c 1.0 1.0 1.0
c 1.0 1.0 1.0
c 1.0 1.0 1.0
c 1.0 1.0 1.0
c 1.0 1.0 1.0
c 1.0 1.0 1.0
c 1.0 1.0 1.0
c 1.0 1.0 1.0
usemtl d0yuka_002
s off
f 12/9/3/3 11/10/3/3 9/11/3/3 10/12/3/3
f 16/13/4/4 15/14/4/4 13/15/4/4 14/16/4/4
f 32/29/8/8 31/30/8/8 29/31/8/8 30/32/8/8
f 36/33/9/9 35/34/9/9 33/35/9/9 34/36/9/9
f 40/37/10/10 39/38/10/10 37/39/10/10 38/40/10/10
f 44/41/11/11 43/42/11/11 41/43/11/11 42/44/11/11
usemtl d0gake_001b
s off
f 128/129/33/32 136/130/33/32 135/131/33/32 127/132/33/32
f 140/141/36/33 148/142/36/33 147/143/36/33 139/144/36/33
f 152/157/40/34 160/158/40/34 159/159/40/34 151/160/40/34
f 164/161/41/34 172/162/41/34 171/163/41/34 163/164/41/34
f 176/177/45/35 184/178/45/35 183/179/45/35 175/180/45/35
f 188/189/48/36 196/190/48/36 195/191/48/36 187/192/48/36
f 200/201/51/37 208/202/51/37 207/203/51/37 199/204/51/37
f 212/213/54/38 220/214/54/38 219/215/54/38 211/216/54/38
f 224/229/58/39 232/230/58/39 231/231/58/39 223/232/58/39
f 236/233/59/39 244/234/59/39 243/235/59/39 235/236/59/39
f 248/249/63/40 256/250/63/40 255/251/63/40 247/252/63/40
f 260/261/66/41 268/262/66/41 267/263/66/41 259/264/66/41
f 272/277/70/42 280/278/70/42 279/279/70/42 271/280/70/42
f 284/281/71/42 292/282/71/42 291/283/71/42 283/284/71/42
usemtl d0gake_001
s off
f 130/133/34/32 131/134/34/32 132/135/34/32 129/136/34/32
f 142/145/37/33 143/146/37/33 144/147/37/33 141/148/37/33
f 154/165/42/34 155/166/42/34 156/167/42/34 153/168/42/34
f 166/169/43/34 167/170/43/34 168/171/43/34 165/172/43/34
f 178/181/46/35 179/182/46/35 180/183/46/35 177/184/46/35
f 190/193/49/36 191/194/49/36 192/195/49/36 189/196/49/36
f 202/205/52/37 203/206/52/37 204/207/52/37 201/208/52/37
f 214/217/55/38 215/218/55/38 216/219/55/38 213/220/55/38
f 226/237/60/39 227/238/60/39 228/239/60/39 225/240/60/39
f 238/241/61/39 239/242/61/39 240/243/61/39 237/244/61/39
f 250/253/64/40 251/254/64/40 252/255/64/40 249/256/64/40
f 262/265/67/41 263/266/67/41 264/267/67/41 261/268/67/41
f 274/285/72/42 275/286/72/42 276/287/72/42 273/288/72/42
f 286/289/73/42 287/290/73/42 288/291/73/42 285/292/73/42
usemtl d0gake_002b
s off
f 126/125/32/32 133/126/32/32 134/127/32/32 125/128/32/32
f 138/137/35/33 145/138/35/33 146/139/35/33 137/140/35/33
f 150/149/38/34 157/150/38/34 158/151/38/34 149/152/38/34
f 162/153/39/34 169/154/39/34 170/155/39/34 161/156/39/34
f 174/173/44/35 181/174/44/35 182/175/44/35 173/176/44/35
f 186/185/47/36 193/186/47/36 194/187/47/36 185/188/47/36
f 198/197/50/37 205/198/50/37 206/199/50/37 197/200/50/37
f 210/209/53/38 217/210/53/38 218/211/53/38 209/212/53/38
f 222/221/56/39 229/222/56/39 230/223/56/39 221/224/56/39
f 234/225/57/39 241/226/57/39 242/227/57/39 233/228/57/39
f 246/245/62/40 253/246/62/40 254/247/62/40 245/248/62/40
f 258/257/65/41 265/258/65/41 266/259/65/41 257/260/65/41
f 270/269/68/42 277/270/68/42 278/271/68/42 269/272/68/42
f 282/273/69/42 289/274/69/42 290/275/69/42 281/276/69/42
usemtl d0gake_heri
s off
f 18/17/5/5 20/18/5/5 19/19/5/5 17/20/5/5
f 21/21/6/6 22/22/6/6 23/23/6/6 24/24/6/6
f 25/25/7/7 26/26/7/7 27/27/7/7 28/28/7/7
f 46/45/12/12 48/46/12/12 47/47/12/12 45/48/12/12
f 50/49/13/13 52/50/13/13 51/51/13/13 49/52/13/13
f 53/53/14/14 54/54/14/14 55/55/14/14 56/56/14/14
f 57/57/15/15 58/58/15/15 59/59/15/15 60/60/15/15
f 61/61/16/16 62/62/16/16 63/63/16/16 64/64/16/16
f 65/65/17/17 66/66/17/17 67/67/17/17 68/68/17/17
f 69/69/18/18 70/70/18/18 71/71/18/18 72/72/18/18
f 73/73/19/19 74/74/19/19 75/75/19/19 76/76/19/19
f 77/77/20/20 78/78/20/20 79/79/20/20 80/80/20/20
f 81/81/21/21 82/82/21/21 83/83/21/21 84/84/21/21
f 85/85/22/22 86/86/22/22 87/87/22/22 88/88/22/22
f 89/89/23/23 90/90/23/23 91/91/23/23 92/92/23/23
f 93/93/24/24 94/94/24/24 95/95/24/24 96/96/24/24
f 97/97/25/25 98/98/25/25 99/99/25/25 100/100/25/25
f 101/101/26/26 102/102/26/26 103/103/26/26 104/104/26/26
f 105/105/27/27 106/106/27/27 107/107/27/27 108/108/27/27
f 109/109/28/28 110/110/28/28 111/111/28/28 112/112/28/28
f 113/113/29/29 114/114/29/29 115/115/29/29 116/116/29/29
f 117/117/30/30 118/118/30/30 119/119/30/30 120/120/30/30
f 121/121/31/31 122/122/31/31 123/123/31/31 124/124/31/31
usemtl in81_yuka01
s off
f 1/1/1/1 2/2/1/1 3/3/1/1 4/4/1/1
f 5/5/2/2 6/6/2/2 7/7/2/2 8/8/2/2
