mtllib Complex_Inner_Corner_L_1x1x1.mtl
o map
v 1.0 0.125 0.0
v 0.875 0.0 0.0
v 1.0 0.0 0.0
v 0.375 0.81248 1.0
v 0.5 0.68748 1.0
v 1.0 0.81248 1.0
v 0.3125 0.5 1.0
v 0.1875 0.625 1.0
v 0.1875 0.0 1.0
v 0.0 0.0 1.0
v 1.0 1.0 1.0
v 0.0 1.0 1.0
vt -7.10543E-15 -0.132813
vt 1.0 0.0
vt -7.10543E-15 0.0
vt 5.77316E-15 -0.875
vt 0.15625 -1.0
vt 0.960938 -1.0
vt 1.77636E-15 -1.0
vt 1.0 -1.0
vt 0.835938 -0.5
vt 0.164063 -0.5
vt 0.0 -1.0
vt 0.84375 -1.0
vt 1.0 -0.875
vt 0.0390625 -1.0
vt 0.0 -0.828125
vt 1.0 -0.828125
vt 1.5 -5.5
vt 1.5 -6.0
vt 1.59375 -5.6875
vt 1.6875 -5.59375
vt 2.0 -5.5
vt -7.88258E-15 -1.0
vt 0.25 -1.0
vt 0.375 -2.0
vt 0.625 -2.0
vt 0.75 -1.0
vn 0.0 0.0 1.0
vn 0.201773 -0.807093 0.554877
vn 0.565332 -0.565332 0.600665
vn 0.807093 -0.201773 0.554877
c 1.0 1.0 1.0
usemtl c1_d_2_lm14
s off
f 6/22/2/1 5/23/2/1 1/24/2/1
f 2/25/3/1 1/24/3/1 5/23/3/1
f 5/23/3/1 7/26/3/1 2/25/3/1
f 7/26/4/1 9/8/4/1 2/25/4/1
usemtl c1_r1_lm18
s off
f 1/1/1/1 2/2/1/1 3/3/1/1
usemtl c1_d_4_lm14
s off
f 4/4/1/1 5/5/1/1 6/6/1/1
f 7/7/1/1 5/8/1/1 4/9/1/1
f 4/9/1/1 8/10/1/1 7/11/1/1
f 7/12/1/1 8/13/1/1 9/14/1/1
f 8/13/1/1 10/15/1/1 9/14/1/1
f 11/16/1/1 4/4/1/1 6/6/1/1
usemtl c1_g1_lm18
s off
f 12/17/1/1 10/18/1/1 8/19/1/1
f 12/17/1/1 8/19/1/1 4/20/1/1
f 11/21/1/1 12/17/1/1 4/20/1/1
