mtllib GYMPILLAR1.mtl
o map
v 0.91503906 1.664062 0.7001958
v 3.1767578 0.7646489 14.087891
v 0.61328125 1.774415 14.991211
v 2.3300781 0.31054688 12.623047
v 0.62109375 1.78125 14.074219
v 0.94140625 0.86621094 3.258789
v 3.1689453 0.75879 15.004883
v 3.1689453 0.75878906 -0.25
v 2.8720703 1.6923819 0.6845708
v 0.61328125 1.7744141 -0.25
v 0.62890625 0.7226558 -0.25
v 0.9267578 1.6748052 12.621094
v 0.63671875 0.7285161 14.067383
v 2.3496094 0.3271489 8.673829
v 2.8955078 0.8916011 1.0380859
v 1.390625 -0.0048828125 0.7080078
v 2.8867188 1.7050781 3.258789
v 3.1542969 1.8115239 15.011719
v 1.390625 -0.004881859 14.068359
v 0.93847656 0.8642578 12.616211
v 2.3183594 0.30078077 0.69824314
v 0.9580078 0.8798828 8.673829
v 2.4072266 2.5507812 0.68261814
v 2.883789 0.881835 0.6894541
v 1.4794922 2.2460938 0.6923828
v 3.1542969 1.811523 -0.25
v 2.3183594 0.3007822 14.078125
v 0.92578125 0.85351515 0.70605516
v 1.8916016 1.266603 14.998047
v 2.9042969 1.719727 8.673828
v 2.3339844 0.31347704 3.25879
v 2.8984385 0.8945308 3.258789
v 1.5195312 0.29882908 12.616211
v 0.92578125 0.8535161 14.070312
v 2.4355469 0.0039072037 14.993164
v 2.915039 0.9082041 8.673829
v 1.5078115 0.28906202 0.7050791
v 0.91503906 1.664063 14.076172
v 0.9267578 1.6748042 1.0488279
v 2.290039 2.257812 0.6855469
v 2.883789 1.7021489 12.637695
v 0.63671875 0.72851515 0.70898485
v 1.3544922 2.5361328 0.6914072
v 1.3466797 2.5292978 15.001953
v 2.399414 2.5449228 15.010742
v 1.5234385 0.3017578 3.25879
v 0.93847656 0.86425686 1.054688
v 2.8955078 0.89160204 12.631836
v 2.883789 0.88183594 14.086914
v 0.92968845 1.6767578 3.258789
v 2.4433594 0.0107421875 0.6992192
v 1.5195312 0.29882812 1.0537109
v 2.3300781 0.31054592 1.046875
v 3.1621094 1.8173819 0.680665
v 2.4433594 0.010743141 14.077148
v 2.883789 1.702148 1.0332029
v 1.3837891 -0.010743141 -0.25
v 1.5429688 0.31835985 8.673829
v 3.1621094 1.8173828 14.095703
v 2.8720703 1.6923828 14.091797
v 2.4355469 0.0039057732 -0.25
v 0.94433594 1.6894541 8.673828
v 1.5078115 0.28906298 14.071289
v 0.62109375 1.78125 0.7021489
v 0.62890625 0.7226572 14.983398
v 1.3837891 -0.010741234 14.984375
v 3.1767578 0.76464796 0.68847704
vt -0.033203 0.96875
vt -0.085938 0.96875
vt -0.292969 0.96875
vt -0.966797 0.03125
vt -0.529297 0.46875
vt -0.109375 0.96875
vt -0.96875 0.46875
vt -0.53125 0.03125
vt -0.109375 0.005859
vt -0.984375 0.738281
vt -0.292969 0.005859
vt -0.470703 0.96875
vt -0.408203 0.96875
vt -0.033203 0.005859
vt -0.529297 0.03125
vt -0.966797 0.46875
vt -0.96875 0.03125
vt -0.53125 0.46875
vt -0.085938 0.005859
vt -0.470703 0.005859
vt -0.408203 0.005859
vn 0.7167 -0.6974 6.0E-4
vn -0.0079 -0.0068 0.9999
vn 0.0081 0.006 0.9999
vn 0.717 -0.6971 -4.0E-4
vn 0.717 -0.6971 -2.0E-4
vn -0.9999 -0.0138 -0.0085
vn -0.0082 -0.0067 0.9999
vn -0.6968 -0.7173 0.0019
vn -0.9999 -0.0145 0.0013
vn 0.9999 0.0145 -0.0013
vn -0.697 -0.717 -0.0102
vn 0.9999 0.0138 -0.0032
vn 0.717 -0.6971 0.0013
vn 0.0147 -0.9995 0.0275
vn 0.0073 0.0075 0.9999
vn 0.9999 0.0144 0.0082
vn 0.9999 0.0138 0.0051
vn -0.008 -0.0066 0.9999
vn 0.9999 0.0139 0.0086
vn -0.6949 -0.719 -0.007
vn -0.0079 -0.0065 0.9999
vn -0.9999 -0.0148 -0.0086
vn 0.0077 0.0065 0.9999
vn 0.9993 0.0142 -0.034
vn -0.9999 -0.0148 0.0083
vn 0.0083 0.0068 0.9999
vn 0.0093 0.0073 0.9999
vn 0.7167 -0.6974 0.0011
vn 0.0144 -0.9999 -0.0068
vn -0.0084 -0.0073 0.9999
vn 0.7166 -0.6974 -0.0046
vn -0.0083 -0.0076 0.9999
vn -0.6967 -0.7172 -0.0109
vn 0.0083 0.0069 0.9999
vn 0.0127 -0.9999 0.0028
vn 0.717 -0.6971 -0.0012
vn 0.0127 -0.9999 -0.0045
vn 0.0145 -0.9999 -0.0066
vn -0.0083 -0.0074 0.9999
vn 0.0145 -0.9999 0.0013
vn -0.6943 -0.7196 0.0043
vn 0.0144 -0.9999 0.0065
vn -0.697 -0.717 0.0097
vn -0.696 -0.7166 0.0454
vn 0.9999 0.0139 -0.0084
vn -0.9999 -0.0157 -0.0048
vn -0.9993 -0.0136 0.0354
vn -0.9999 -0.0157 0.0029
c 0.0 0.0 0.0
c 1.0 1.0 1.0
c 0.44705883 0.44705883 0.44705883
c 0.08235294 0.08627451 0.10980392
usemtl n_colum_a
s off
f 34/1/33/3 20/6/33/3 33/9/33/3 63/14/33/3
f 38/1/6/3 12/6/6/3 20/9/6/3 34/14/6/3
f 49/1/16/3 48/6/16/3 41/9/16/3 60/14/16/3
f 65/17/11/1 13/7/11/3 19/18/11/3 66/8/11/1
f 3/17/22/1 5/7/22/3 13/18/22/3 65/8/22/1
f 7/8/19/1 2/18/19/3 59/7/19/3 18/17/19/1
f 37/1/14/3 21/14/14/3 53/11/14/3 52/3/14/3
f 28/1/44/3 37/14/44/3 52/11/44/3 47/3/44/3
f 1/1/47/3 28/14/47/3 47/11/47/3 39/3/47/3
f 24/1/24/3 9/14/24/3 56/11/24/3 15/3/24/3
f 21/1/31/3 24/14/31/3 15/11/31/3 53/3/31/3
f 16/4/26/3 51/15/26/3 21/5/26/3 37/16/26/3
f 42/4/23/3 16/15/23/3 37/5/23/3 28/16/23/3
f 64/4/34/3 42/15/34/3 28/5/34/3 1/16/34/3
f 43/4/3/3 64/15/3/3 1/5/3/3 25/16/3/3
f 23/4/26/3 43/15/26/3 25/5/26/3 40/16/26/3
f 54/4/27/3 23/15/27/3 40/5/27/3 9/16/27/3
f 67/4/34/3 54/15/34/3 9/5/34/3 24/16/34/3
f 51/4/15/3 67/15/15/3 24/5/15/3 21/16/15/3
f 11/17/43/4 57/8/43/4 16/18/43/3 42/7/43/3
f 10/17/25/4 11/8/25/4 42/18/25/3 64/7/25/3
f 8/8/45/4 26/17/45/4 54/7/45/3 67/18/45/3
f 27/1/28/3 4/6/28/3 48/9/28/3 49/14/28/3
f 4/20/37/3 33/12/37/3 58/2/37/2 14/19/37/2
f 14/19/35/2 58/2/35/2 46/13/35/2 31/21/35/2
f 31/21/40/2 46/13/40/2 52/12/40/3 53/20/40/3
f 33/20/20/3 20/12/20/3 22/2/20/2 58/19/20/2
f 58/19/41/2 22/2/41/2 6/13/41/2 46/21/41/2
f 46/21/8/2 6/13/8/2 47/12/8/3 52/20/8/3
f 20/20/46/3 12/12/46/3 62/2/46/2 22/19/46/2
f 22/19/48/2 62/2/48/2 50/13/48/2 6/21/48/2
f 6/21/9/2 50/13/9/2 39/12/9/3 47/20/9/3
f 41/20/17/3 48/12/17/3 36/2/17/2 30/19/17/2
f 30/19/12/2 36/2/12/2 32/13/12/2 17/21/12/2
f 17/21/10/2 32/13/10/2 15/12/10/3 56/20/10/3
f 48/20/1/3 4/12/1/3 14/2/1/2 36/19/1/2
f 36/19/4/2 14/2/4/2 31/13/4/2 32/21/4/2
f 32/21/5/2 31/13/5/2 53/12/5/3 15/20/5/3
f 66/17/29/1 19/7/29/3 55/18/29/3 35/8/29/1
f 35/8/13/1 55/18/13/3 2/7/13/3 7/17/13/1
f 16/7/42/3 57/17/42/4 61/8/42/4 51/18/42/3
f 51/18/36/3 61/8/36/4 8/17/36/4 67/7/36/3
f 29/10/32/1 3/10/32/1 65/10/32/1
f 18/10/2/1 45/10/2/1 29/10/2/1
f 45/10/7/1 44/10/7/1 29/10/7/1
f 29/10/21/1 44/10/21/1 3/10/21/1
f 27/14/38/3 63/1/38/3 4/9/38/3
f 63/1/38/3 33/6/38/3 4/9/38/3
f 18/10/18/1 29/10/18/1 7/10/18/1
f 29/10/39/1 35/10/39/1 7/10/39/1
f 35/10/39/1 29/10/39/1 66/10/39/1
f 29/10/30/1 65/10/30/1 66/10/30/1
