# Blender 4.0.0
# www.blender.org
mtllib GYMSTAGEHALF1-2.mtl
o polygon10
v 2.000000 2.250000 3.536165
v 2.000000 2.250000 2.911165
v 2.000000 2.500000 2.911165
v 2.000000 2.500000 3.536165
v -2.250000 2.250000 3.536165
v -2.250000 2.500000 3.536165
v -2.250000 2.500000 2.911165
v -2.250000 2.250000 2.911165
v 2.000000 0.250000 2.661165
v 2.000000 2.500000 2.661165
v 2.000000 2.500000 2.911165
v 2.000000 0.250000 2.911165
v 2.250000 0.250000 2.661165
v 2.250000 2.500000 2.661165
v 2.000000 2.500000 2.661165
v 2.000000 0.250000 2.661165
v -2.250000 0.250000 2.911165
v -2.250000 2.500000 2.911165
v -2.250000 2.500000 2.661165
v -2.250000 0.250000 2.661165
v -2.250000 0.250000 2.661165
v -2.250000 2.500000 2.661165
v -2.500000 2.500000 2.661165
v -2.500000 0.250000 2.661165
vn -1.0000 -0.0000 -0.0000
vn 1.0000 -0.0000 -0.0000
vn -0.0000 -0.0000 -1.0000
vt 2.000000 -1.000000
vt 0.000000 -1.000000
vt 0.000000 0.000000
vt 2.000000 0.000000
vt 1.000000 -9.000000
vt 1.000000 0.000000
vt 0.000000 -9.000000
s 0
usemtl c4g_tou01
f 1/1/1 3/3/1 2/2/1
f 3/3/1 1/1/1 4/4/1
f 5/1/2 7/3/2 6/4/2
f 7/3/2 5/1/2 8/2/2
f 9/5/1 11/3/1 10/6/1
f 11/3/1 9/5/1 12/7/1
f 13/5/3 15/3/3 14/6/3
f 15/3/3 13/5/3 16/7/3
f 17/5/2 19/3/2 18/6/2
f 19/3/2 17/5/2 20/7/2
f 21/5/3 23/3/3 22/6/3
f 23/3/3 21/5/3 24/7/3
o polygon2
v 1.125000 0.250000 2.098665
v 1.125000 1.500000 2.098665
v 0.812500 0.250000 1.786165
v 0.812500 1.500000 1.786165
v 0.375000 0.250000 1.786165
v 0.375000 1.500000 1.786165
v -0.625000 0.250000 1.786165
v -0.625000 1.500000 1.786165
v -1.062500 0.250000 1.786165
v -1.062500 1.500000 1.786165
v -1.375000 0.250000 2.098665
v -1.375000 1.500000 2.098665
v 1.125000 0.250000 2.098665
v 1.125000 0.250000 2.786165
v 1.125000 1.500000 2.786165
v 1.125000 1.500000 2.098665
v -1.375000 0.250000 2.098665
v -1.375000 1.500000 2.098665
v -1.375000 1.500000 2.786165
v -1.375000 0.250000 2.786165
v 2.000000 0.250000 2.661165
v 2.000000 1.125000 2.661165
v 1.125000 1.125000 2.661165
v 1.125000 0.250000 2.661165
v -1.375000 0.250000 2.661165
v -1.375000 1.125000 2.661165
v -2.250000 1.125000 2.661165
v -2.250000 0.250000 2.661165
vn 0.7071 -0.0000 -0.7071
vn -0.0000 -0.0000 -1.0000
vn -0.7071 -0.0000 -0.7071
vn 1.0000 -0.0000 -0.0000
vn -1.0000 -0.0000 -0.0000
vt -3.000000 -0.617188
vt -3.000000 -0.335938
vt -2.000000 -0.617188
vt -2.000000 -0.335938
vt -1.000000 -0.617188
vt -1.000000 -0.335938
vt 1.000000 -0.585938
vt 1.000000 -0.335938
vt 0.000000 -0.335938
vt 0.000000 -0.585938
s 0
usemtl c4g_kabe02
f 25/8/4 27/10/4 26/9/4
f 26/9/4 27/10/4 28/11/4
f 27/10/5 29/12/5 28/11/5
f 28/11/5 29/12/5 30/13/5
f 31/12/5 33/10/5 32/13/5
f 32/13/5 33/10/5 34/11/5
f 33/10/6 35/8/6 34/11/6
f 34/11/6 35/8/6 36/9/6
f 37/10/7 39/9/7 38/8/7
f 39/9/7 37/10/7 40/11/7
f 41/10/8 43/9/8 42/11/8
f 43/9/8 41/10/8 44/8/8
f 45/14/5 47/16/5 46/15/5
f 47/16/5 45/14/5 48/17/5
f 49/17/5 51/15/5 50/16/5
f 51/15/5 49/17/5 52/14/5
o polygon3
v 2.000000 1.500000 2.786165
v 2.000000 1.500000 2.911165
v 1.000000 1.500000 2.911165
v 1.125000 1.500000 2.786165
v -1.375000 1.500000 2.786165
v -1.250000 1.500000 2.911165
v -2.250000 1.500000 2.911165
v -2.250000 1.500000 2.786165
v 1.125000 1.500000 2.098665
v 1.000000 1.500000 2.161165
v 0.750000 1.500000 1.911165
v 0.812500 1.500000 1.786165
v -1.062500 1.500000 1.786165
v -1.000000 1.500000 1.911165
v -1.250000 1.500000 2.161165
v -1.375000 1.500000 2.098665
v 0.250000 1.500000 1.786165
v 0.250000 1.500000 1.911165
v 0.250000 1.250000 1.911165
v 0.250000 1.250000 1.661165
v -0.500000 1.500000 1.911165
v -0.500000 1.500000 1.786165
v -0.500000 1.250000 1.661165
v -0.500000 1.250000 1.911165
v 0.250000 1.250000 1.661165
v 0.375000 1.250000 1.661165
v 0.375000 1.500000 1.786165
v 0.250000 1.500000 1.786165
v -0.625000 1.250000 1.661165
v -0.500000 1.250000 1.661165
v -0.500000 1.500000 1.786165
v -0.625000 1.500000 1.786165
v 1.125000 1.500000 2.786165
v 1.000000 1.500000 2.911165
v 1.000000 1.500000 2.161165
v 1.125000 1.500000 2.098665
v -1.375000 1.500000 2.098665
v -1.250000 1.500000 2.161165
v -1.250000 1.500000 2.911165
v -1.375000 1.500000 2.786165
v 0.812500 1.500000 1.786165
v 0.750000 1.500000 1.911165
v 0.250000 1.500000 1.911165
v 0.375000 1.500000 1.786165
v -0.625000 1.500000 1.786165
v -0.500000 1.500000 1.911165
v -1.000000 1.500000 1.911165
v -1.062500 1.500000 1.786165
v -0.625000 0.750000 1.161165
v -0.500000 0.750000 1.161165
v -0.500000 1.250000 1.661165
v -0.625000 1.250000 1.661165
v 0.250000 0.750000 1.161165
v 0.375000 0.750000 1.161165
v 0.375000 1.250000 1.661165
v 0.250000 1.250000 1.661165
v 2.000000 1.437500 2.786165
v 2.000000 1.500000 2.786165
v 1.125000 1.500000 2.786165
v 1.125000 1.437500 2.786165
v -1.375000 1.437500 2.786165
v -1.375000 1.500000 2.786165
v -2.250000 1.500000 2.786165
v -2.250000 1.437500 2.786165
v 0.250000 1.500000 1.786165
v 0.375000 1.500000 1.786165
v 0.250000 1.500000 1.911165
v -0.625000 1.500000 1.786165
v -0.500000 1.500000 1.786165
v -0.500000 1.500000 1.911165
vn -0.0000 1.0000 -0.0000
vn -1.0000 -0.0000 -0.0000
vn 1.0000 -0.0000 -0.0000
vn -0.0000 0.4472 -0.8944
vn -0.0000 0.7071 -0.7071
vn -0.0000 -0.0000 -1.0000
vt 0.000000 -2.500000
vt 0.500000 -2.500000
vt 0.000000 -3.875000
vt 0.500000 -3.875000
vt 0.500000 -3.062500
vt 0.000000 -3.062500
vt 0.000000 -3.964844
vt 0.500000 -3.964844
vt 0.500000 0.000000
vt 0.500000 -1.000000
vt 1.000000 -1.000000
vt 1.000000 0.000000
vt 0.000000 -1.000000
vt 0.000000 0.000000
vt 0.000000 -1.500000
vt 0.500000 -4.000000
vt 0.000000 -4.250000
vt 0.500000 -2.000000
vt 0.000000 -4.500000
vt 0.500000 -5.000000
vt 0.500000 -3.000000
vt 0.000000 -2.750000
vt 0.187500 -2.500000
vt 0.125000 -2.500000
vt 0.500000 -0.500000
vt 1.000000 -0.500000
vt 0.000000 -0.500000
s 0
usemtl c4g_stage1b
f 53/18/9 55/19/9 54/19/9
f 55/19/9 53/18/9 56/18/9
f 57/18/9 59/19/9 58/19/9
f 59/19/9 57/18/9 60/18/9
f 61/20/9 63/22/9 62/21/9
f 63/22/9 61/20/9 64/23/9
f 65/24/9 67/22/9 66/25/9
f 67/22/9 65/24/9 68/23/9
f 69/26/10 71/27/10 70/26/10
f 71/27/10 69/26/10 72/27/10
f 73/26/11 75/27/11 74/26/11
f 75/27/11 73/26/11 76/27/11
f 77/27/12 79/29/12 78/28/12
f 79/29/12 77/27/12 80/26/12
f 81/30/12 83/26/12 82/27/12
f 83/26/12 81/30/12 84/31/12
f 85/32/9 87/33/9 86/27/9
f 87/33/9 85/32/9 88/34/9
f 89/34/9 91/27/9 90/33/9
f 91/27/9 89/34/9 92/32/9
f 93/34/9 95/35/9 94/33/9
f 95/35/9 93/34/9 96/18/9
f 97/36/9 99/38/9 98/37/9
f 99/38/9 97/36/9 100/39/9
f 101/30/13 103/26/13 102/27/13
f 103/26/13 101/30/13 104/31/13
f 105/27/13 107/29/13 106/28/13
f 107/29/13 105/27/13 108/26/13
f 109/18/14 111/40/14 110/40/14
f 111/40/14 109/18/14 112/18/14
f 113/41/14 115/18/14 114/18/14
f 115/18/14 113/41/14 116/41/14
f 117/42/9 119/26/9 118/43/9
f 120/44/9 122/26/9 121/42/9
o polygon4
v 2.000000 1.500000 2.911165
v 2.000000 1.500000 3.539673
v 1.000000 1.500000 2.911165
v 1.000000 1.500000 3.539673
v 0.250000 1.500000 2.911165
v 0.250000 1.500000 3.539673
v -0.500000 1.500000 2.911165
v -0.500000 1.500000 3.539673
v -1.250000 1.500000 2.911165
v -1.250000 1.500000 3.539673
v -2.250000 1.500000 2.911165
v -2.250000 1.500000 3.539673
v -2.750000 1.125000 3.161165
v -2.750000 1.125000 2.661165
v -2.000000 1.125000 3.161165
v -2.000000 1.125000 2.661165
v 1.750000 1.125000 3.161165
v 1.750000 1.125000 2.661165
v 2.500000 1.125000 3.161165
v 2.500000 1.125000 2.661165
v 2.000000 2.500000 3.539673
v 2.000000 2.500000 2.911165
v 2.250000 2.500000 2.911165
v 2.250000 2.500000 3.539673
v -2.500000 2.500000 2.911165
v -2.250000 2.500000 2.911165
v -2.250000 2.500000 3.539673
v -2.500000 2.500000 3.539673
v 2.250000 1.500000 2.911165
v 2.000000 1.500000 2.911165
v 2.000000 0.250000 2.911165
v 2.250000 0.250000 2.911165
v -2.250000 1.500000 2.911165
v -2.500000 1.500000 2.911165
v -2.500000 0.250000 2.911165
v -2.250000 0.250000 2.911165
v 2.000000 1.500000 2.911165
v 2.250000 1.500000 2.911165
v 2.250000 1.500000 3.539673
v -2.500000 1.500000 2.911165
v -2.250000 1.500000 2.911165
v -2.500000 1.500000 3.539673
v 2.000000 2.500000 2.911165
v 2.000000 2.500000 2.661165
v 2.250000 2.500000 2.661165
v 2.250000 2.500000 2.911165
v -2.500000 2.500000 2.661165
v -2.250000 2.500000 2.661165
v -2.250000 2.500000 2.911165
v -2.500000 2.500000 2.911165
v 0.250000 1.500000 1.911165
v 0.750000 1.500000 1.911165
v 1.000000 1.500000 2.161165
v 0.250000 1.500000 2.911165
v -1.250000 1.500000 2.161165
v -1.000000 1.500000 1.911165
v -0.500000 1.500000 1.911165
v -0.500000 1.500000 2.911165
v -0.500000 1.500000 1.911165
v 0.250000 1.500000 1.911165
v 0.250000 1.500000 2.911165
v -0.500000 1.500000 2.911165
v 0.250000 1.500000 2.911165
v 1.000000 1.500000 2.161165
v 1.000000 1.500000 2.911165
v -1.250000 1.500000 2.161165
v -0.500000 1.500000 2.911165
v -1.250000 1.500000 2.911165
vn -0.0000 1.0000 -0.0000
vn -0.0000 -0.0000 -1.0000
vt 0.812500 -1.000000
vt 0.812500 0.000000
vt 0.738281 -1.000000
vt 0.738281 0.000000
vt 0.578125 -1.000000
vt 0.578125 0.000000
vt 0.421875 -1.000000
vt 0.421875 0.000000
vt 0.261719 -1.000000
vt 0.261719 0.000000
vt 0.187500 -1.000000
vt 0.187500 0.000000
vt 0.511719 -0.500000
vt 0.511719 0.000000
vt 0.375000 -0.500000
vt 0.375000 0.000000
vt -0.308594 -0.500000
vt -0.308594 0.000000
vt -0.445312 -0.500000
vt -0.445312 0.000000
vt 0.261719 1.500000
vt 0.187500 1.500000
vt 0.000000 -1.000000
vt 1.000000 -1.000000
vt 1.000000 0.000000
vt 0.000000 0.000000
vt -1.000000 0.000000
vt 2.000000 1.000000
vt -1.000000 4.000000
vt -1.000000 1.000000
vt 2.000000 0.000000
vt 2.000000 4.000000
s 0
usemtl c4g_stage1
f 123/45/15 125/47/15 124/46/15
f 124/46/15 125/47/15 126/48/15
f 125/47/15 127/49/15 126/48/15
f 126/48/15 127/49/15 128/50/15
f 127/49/15 129/51/15 128/50/15
f 128/50/15 129/51/15 130/52/15
f 129/51/15 131/53/15 130/52/15
f 130/52/15 131/53/15 132/54/15
f 131/53/15 133/55/15 132/54/15
f 132/54/15 133/55/15 134/56/15
f 135/57/15 137/59/15 136/58/15
f 136/58/15 137/59/15 138/60/15
f 137/59/15 139/61/15 138/60/15
f 138/60/15 139/61/15 140/62/15
f 139/61/15 141/63/15 140/62/15
f 140/62/15 141/63/15 142/64/15
f 143/48/15 145/45/15 144/47/15
f 145/45/15 143/48/15 146/46/15
f 147/55/15 149/65/15 148/53/15
f 149/65/15 147/55/15 150/66/15
f 151/67/16 153/69/16 152/68/16
f 153/69/16 151/67/16 154/70/16
f 155/67/16 157/69/16 156/68/16
f 157/69/16 155/67/16 158/70/16
f 124/48/15 160/45/15 159/47/15
f 160/45/15 124/48/15 161/46/15
f 162/55/15 134/54/15 163/53/15
f 134/54/15 162/55/15 164/56/15
f 165/48/15 167/45/15 166/47/15
f 167/45/15 165/48/15 168/46/15
f 169/55/15 171/54/15 170/53/15
f 171/54/15 169/55/15 172/56/15
f 173/71/15 175/72/15 174/69/15
f 175/72/15 173/71/15 176/73/15
f 177/74/15 179/75/15 178/70/15
f 179/75/15 177/74/15 180/76/15
f 181/71/15 183/76/15 182/75/15
f 183/76/15 181/71/15 184/73/15
f 185/73/15 187/76/15 186/72/15
f 188/74/15 190/73/15 189/76/15
o polygon5
v 0.250000 1.500000 1.911165
v -0.500000 1.500000 1.911165
v 0.250000 1.250000 1.661165
v -0.500000 1.250000 1.661165
v 0.250000 0.750000 1.161165
v -0.500000 0.750000 1.161165
vn -0.0000 0.7071 -0.7071
vt 1.000000 3.000000
vt 0.000000 3.000000
vt 1.000000 0.500000
vt 0.000000 0.500000
vt 1.000000 -4.500000
vt 0.000000 -4.500000
s 0
usemtl c4g_kaidan1
f 191/77/17 193/79/17 192/78/17
f 192/78/17 193/79/17 194/80/17
f 193/79/17 195/81/17 194/80/17
f 194/80/17 195/81/17 196/82/17
o polygon7
v -2.000000 1.141845 2.723665
v -2.000000 1.358154 2.848665
v -2.125000 1.250000 2.786165
v -2.250000 1.358154 2.848665
v -2.250000 1.141845 2.723665
v -1.750000 1.141845 2.723665
v -1.750000 1.358154 2.848665
v -1.875000 1.250000 2.786165
v -2.000000 1.358154 2.848665
v -2.000000 1.141845 2.723665
v 1.500000 1.141845 2.723665
v 1.500000 1.358154 2.848665
v 1.375000 1.250000 2.786165
v 1.250000 1.358154 2.848665
v 1.250000 1.141845 2.723665
v -1.500000 1.141845 2.723665
v -1.500000 1.358154 2.848665
v -1.625000 1.250000 2.786165
v -1.750000 1.358154 2.848665
v -1.750000 1.141845 2.723665
v 2.000000 1.141845 2.723665
v 2.000000 1.358154 2.848665
v 1.875000 1.250000 2.786165
v 1.750000 1.358154 2.848665
v 1.750000 1.141845 2.723665
v 1.750000 1.141845 2.723665
v 1.750000 1.358154 2.848665
v 1.625000 1.250000 2.786165
v 1.500000 1.358154 2.848665
v 1.500000 1.141845 2.723665
v -2.250000 1.141845 2.723665
v -2.000000 1.141845 2.723665
v -2.125000 1.250000 2.786165
v -2.000000 1.141845 2.723665
v -1.750000 1.141845 2.723665
v -1.875000 1.250000 2.786165
v -1.750000 1.141845 2.723665
v -1.500000 1.141845 2.723665
v -1.625000 1.250000 2.786165
v 1.750000 1.141845 2.723665
v 2.000000 1.141845 2.723665
v 1.875000 1.250000 2.786165
v 1.500000 1.141845 2.723665
v 1.750000 1.141845 2.723665
v 1.625000 1.250000 2.786165
v 1.250000 1.141845 2.723665
v 1.500000 1.141845 2.723665
v 1.375000 1.250000 2.786165
vn -0.0000 0.5003 -0.8658
vt 0.500000 -1.000000
vt 0.500000 0.000000
vt 0.000000 -0.500000
vt -0.500000 0.000000
vt -0.500000 -1.000000
s 0
usemtl c4g_light02
f 197/83/18 199/85/18 198/84/18
f 198/84/18 199/85/18 200/86/18
f 199/85/18 201/87/18 200/86/18
f 202/83/18 204/85/18 203/84/18
f 203/84/18 204/85/18 205/86/18
f 204/85/18 206/87/18 205/86/18
f 207/83/18 209/85/18 208/84/18
f 208/84/18 209/85/18 210/86/18
f 209/85/18 211/87/18 210/86/18
f 212/83/18 214/85/18 213/84/18
f 213/84/18 214/85/18 215/86/18
f 214/85/18 216/87/18 215/86/18
f 217/83/18 219/85/18 218/84/18
f 218/84/18 219/85/18 220/86/18
f 219/85/18 221/87/18 220/86/18
f 222/83/18 224/85/18 223/84/18
f 223/84/18 224/85/18 225/86/18
f 224/85/18 226/87/18 225/86/18
f 227/87/18 229/85/18 228/83/18
f 230/87/18 232/85/18 231/83/18
f 233/87/18 235/85/18 234/83/18
f 236/87/18 238/85/18 237/83/18
f 239/87/18 241/85/18 240/83/18
f 242/87/18 244/85/18 243/83/18
o polygon8
v 0.375000 0.250000 1.786165
v 0.375000 1.500000 1.786165
v 0.375000 0.250000 1.661165
v 0.375000 1.250000 1.661165
v 0.375000 0.250000 1.161165
v 0.375000 0.750000 1.161165
v -0.625000 1.500000 1.786165
v -0.625000 0.250000 1.786165
v -0.625000 1.250000 1.661165
v -0.625000 0.250000 1.661165
v -0.625000 0.750000 1.161165
v -0.625000 0.250000 1.161165
vn 1.0000 -0.0000 -0.0000
vn -1.0000 -0.0000 -0.0000
vt -1.000000 0.000000
vt -1.000000 2.500000
vt -0.625000 0.000000
vt -0.625000 2.000000
vt 1.000000 0.000000
vt 1.000000 1.000000
s 0
usemtl c4g_kabe01
f 245/88/19 247/90/19 246/89/19
f 246/89/19 247/90/19 248/91/19
f 247/90/19 249/92/19 248/91/19
f 248/91/19 249/92/19 250/93/19
f 251/89/20 253/91/20 252/88/20
f 252/88/20 253/91/20 254/90/20
f 253/91/20 255/93/20 254/90/20
f 254/90/20 255/93/20 256/92/20
