mtllib lava_corner_in.mtl
o map
v 2.0 1.125 -0.250001
v 0.5 0.999999 -0.125001
v 1.0 2.0 0.124999
v 0.0 2.0 0.124999
v 2.0 2.0 0.124999
v 1.4209 0.874999 -0.125001
v 2.0 1.5 -0.125001
v 1.0 1.5 -0.125001
v 1.5 -1.0E-6 -0.250001
v 2.0 0.499999 -0.250001
v 1.125 0.579099 -0.125001
v 2.125 0.374999 -0.250001
v 1.625 -0.125001 -0.250001
v 0.875 1.125 -0.250001
v 1.125 1.25 -0.125001
v 0.75 0.874999 -0.125001
v 2.0 0.874999 -0.125001
v 1.125 -1.0E-6 -0.125001
v 0.25 1.75 0.124999
v 1.0 1.75 0.124999
v 2.0 1.75 0.124999
v 0.0 -1.0E-6 0.124999
v 0.25 -1.0E-6 0.124999
v 2.0 1.25 -0.125001
v 0.875 -1.0E-6 -0.250001
v 0.75 -1.0E-6 -0.125001
v 0.5 -1.0E-6 -0.125001
v 0.25 0.999999 0.124999
v 0.0 0.999999 0.124999
vt 0.082031 0.205933
vt 0.082031 0.751953
vt -3.635937 -0.015625
vt -4.084375 -0.015625
vt 0.997879 -1.625
vt 0.972656 -1.0
vt 0.972656 0.0
vt -0.25 -1.25
vt 0.875 -1.0
vt 0.875 0.0
vt 0.976562 -1.826172
vt 2.292969 -0.015625
vt -1.316406 -0.984375
vt -5.105469 -0.015625
vt -1.367187 -0.984375
vt 2.21875 -0.984375
vt -0.353516 -0.984375
vt -0.675781 -1.25
vt 1.144531 -1.25
vt 0.359375 -1.625
vt -0.332031 -0.015625
vt -4.544922 -0.015625
vt 0.082031 -1.847561
vt -0.597656 -0.015625
vt 0.0 -0.015625
vt -1.0 -0.015625
vt 1.25 -1.25
vt -2.0 -0.015625
vt -0.746094 -0.984375
vt -4.089744 -0.984375
vt -3.657813 -0.984375
vt 1.089844 -1.625
vt -0.089844 -1.625
vt -4.542969 -0.015625
vt -1.436438 -1.625
vt 0.0 -0.984375
vt -0.828125 -1.625
vt -1.0 -0.984375
vt -2.0 -0.984375
vt 0.1875 -1.25
vt -1.356445 -0.015625
vt 1.703125 -0.015625
vt -1.320313 -0.015625
vt -4.572266 -0.984375
vt -1.590044 -1.25
vt -0.3125 -0.984375
vt 0.976562 -2.03125
vt -1.798828 -0.015625
vt -3.634375 -0.015625
vt 0.976562 0.513672
vt -4.556641 -0.984375
vt -1.797917 -0.984375
vt 1.777344 -0.984375
vt 0.082031 -2.332031
vt -4.984375 -0.984375
vt -0.320312 -0.015625
vt -3.645313 -0.984375
vn 0.0 -0.0 1.0
vn 0.0599 -0.3444 0.9369
vn 0.0 -0.3827 0.9239
vn 0.3674 -0.081 0.9265
vn 0.0432 -0.2953 0.9544
vn 0.0835 -0.0832 0.993
vn 0.3827 -0.0 0.9239
c 1.0 1.0 1.0
c 1.0 0.6039216 0.05882353
usemtl in81_mizugiwa
s off
f 15/55/1/2 24/30/1/2 7/4/3/1 8/14/2/1
f 8/12/2/1 2/42/4/1 16/53/1/2 15/16/1/2
f 27/48/7/1 26/52/1/2 16/29/1/2 2/24/4/1
usemtl in81_magu07
s off
f 15/8/1/2 16/27/1/2 11/32/1/1 6/33/1/1
f 16/40/1/2 26/19/1/2 18/5/1/1 11/20/1/1
f 17/35/1/1 24/45/1/2 15/18/1/2 6/37/1/1
usemtl in81_gake_c
s off
f 19/38/6/1 20/39/5/1 3/28/1/1 4/26/1/1
f 29/56/1/1 22/43/1/1 23/13/7/1 28/46/7/1
f 21/57/3/1 5/3/1/1 3/22/1/1 20/51/5/1
f 4/28/1/1 29/26/1/1 28/38/7/1 19/39/6/1
usemtl in81_mizuga1
s off
f 19/26/6/1 2/36/4/1 8/39/2/1 20/28/5/1
f 28/21/7/1 23/41/7/1 27/15/7/1 2/17/4/1
f 7/31/3/1 21/49/3/1 20/34/5/1 8/44/2/1
f 28/25/7/1 2/36/4/1 19/26/6/1
usemtl TRANSPARENT
s off
f 14/2/1/1 25/1/1/2 9/50/1/1
f 10/11/1/1 14/54/1/1 9/47/1/1
f 10/11/1/1 1/23/1/1 14/54/1/1
