mtllib lava_corner_out.mtl
o map
v 2.000001 1.125001 -0.125002
v 0.87499905 0.0 -0.125001
v 2.0 0.25000095 0.124998
v 1.011364 0.0 -0.250002
v 2.0 0.75000095 -0.125002
v 2.0 0.50000095 -0.125002
v 2.0 9.536743E-7 0.124999
v 1.75 9.536743E-7 0.124999
v 1.249999 0.0 -0.250002
v 1.875 1.125001 -0.125002
v 2.000001 1.500001 -0.250002
v 2.000001 0.988636 -0.250002
v 0.5 0.0 -0.250002
v 0.5 0.56250095 -0.250002
v 1.4375 1.500001 -0.250002
v 1.3125 1.625001 -0.250002
v 0.375 0.68750095 -0.250002
v 0.375 0.0 -0.250002
v 2.000001 0.750002 -0.250002
v 1.25 9.536743E-7 -0.125002
v 0.875 0.12500095 -0.125002
v 1.5 9.536743E-7 -0.125002
v 2.0 1.625001 -0.250002
vt 0.875 0.269531
vt -1.351563 -0.984375
vt -2.914063 -1.25
vt 0.976562 -0.486328
vt -2.749923 -1.625
vt 0.972656 1.521345
vt 7.322266 -0.015625
vt 0.875 2.416016
vt 0.976562 0.696987
vt 0.976562 -0.126327
vt 1.484375 -1.25
vt 0.972656 -1.0
vt 0.244672 -0.2674
vt 0.875 -1.0
vt -2.914063 -1.625
vt 1.914063 -1.625
vt 0.244672 0.667613
vt 0.484375 -1.25
vt 0.054688 -1.625
vt 0.244672 -0.252841
vt 0.972656 0.269531
vt 0.244672 -0.73544
vt 7.597656 -0.015625
vt 0.082031 -0.677247
vt 6.896484 -0.984375
vt 0.875 -0.639999
vt 0.875 1.684011
vt 2.238281 -1.25
vt 0.351562 -0.984375
vt 0.976562 1.087891
vt 0.0 0.0
vt 1.0 0.0
vt 1.0 1.0
vt 0.0 1.0
vt 0.0 -0.015625
vt -1.0 -0.015625
vt 7.75 -0.984375
vt 2.100457 -1.625
vt 7.046875 -0.984375
vt 0.082031 -0.311035
vt 0.972656 -0.559999
vt 0.972656 2.416016
vt 2.238281 -1.625
vt 7.046875 -0.015625
vt 7.597656 -0.984375
vn 0.0 0.0 1.0
vn -0.4602 0.4602 0.7592
vn -0.1962 0.1962 0.9607
c 1.0 1.0 1.0
c 1.0 0.6039216 0.05882353
usemtl in81_mizugiwa
s off
f 5/2/1/2 20/29/1/2 22/35/3/1 6/36/3/1
usemtl in81_magu07
s off
f 20/18/1/2 5/11/1/2 10/16/1/1 21/19/1/1
f 2/38/1/1 20/28/1/2 21/43/1/1
f 1/5/1/1 10/15/1/1 5/3/1/2
usemtl in81_gake_c
s off
f 7/7/1/1 3/39/2/1 8/45/2/1
usemtl in81_mizuga1
s off
f 8/23/2/1 3/44/2/1 6/25/3/1 22/37/3/1
usemtl TRANSPARENT
s off
f 4/20/1/1 9/40/1/2 19/24/1/2 12/22/1/1
f 12/31/1/1 15/32/1/1 14/33/1/1 4/34/1/1
f 13/10/1/1 4/13/1/1 14/4/1/1
f 12/17/1/1 11/9/1/1 15/30/1/1
