# Blender 4.0.0
# www.blender.org
mtllib lava_corner_in2.mtl
o map
v 0.500000 0.999999 -0.125001
v 1.000000 2.000000 0.124999
v 0.000000 2.000000 0.124999
v 2.000000 2.000000 0.124999
v 1.420900 0.874999 -0.125001
v 2.000000 1.500000 -0.125001
v 1.000000 1.500000 -0.125001
v 1.125000 0.579099 -0.125001
v 1.125000 1.250000 -0.125001
v 0.750000 0.874999 -0.125001
v 2.000000 0.874999 -0.125001
v 1.125000 -0.000001 -0.125001
v 0.250000 1.750000 0.124999
v 1.000000 1.750000 0.124999
v 2.000000 1.750000 0.124999
v 0.000000 -0.000001 0.124999
v 0.250000 -0.000001 0.124999
v 2.000000 1.250000 -0.125001
v 0.750000 -0.000001 -0.125001
v 0.500000 -0.000001 -0.125001
v 0.250000 0.999999 0.124999
v 0.000000 0.999999 0.124999
vn -0.0000 -0.0000 1.0000
vn -0.0000 -0.3827 0.9239
vn 0.0599 -0.3444 0.9369
vn 0.3674 -0.0810 0.9265
vn 0.3827 -0.0000 0.9239
vn 0.0835 -0.0832 0.9930
vn 0.0432 -0.2953 0.9544
vn 0.3827 -0.0001 0.9239
vn -0.0001 -0.3827 0.9239
vt -4.984375 -0.984375
vt -4.089744 -0.984375
vt -4.084375 -0.015625
vt -5.105469 -0.015625
vt 2.292969 -0.015625
vt 1.703125 -0.015625
vt 1.777344 -0.984375
vt 2.218750 -0.984375
vt -1.798828 -0.015625
vt -1.797917 -0.984375
vt -0.746094 -0.984375
vt -0.597656 -0.015625
vt -0.250000 -1.250000
vt 1.250000 -1.250000
vt 1.089844 -1.625000
vt -0.089844 -1.625000
vt 0.187500 -1.250000
vt 1.144531 -1.250000
vt 0.997879 -1.625000
vt 0.359375 -1.625000
vt -1.436438 -1.625000
vt -1.590044 -1.250000
vt -0.675781 -1.250000
vt -0.828125 -1.625000
vt -1.000000 -0.984375
vt -2.000000 -0.984375
vt -2.000000 -0.015625
vt -1.000000 -0.015625
vt -0.320312 -0.015625
vt -1.320313 -0.015625
vt -1.316406 -0.984375
vt -0.312500 -0.984375
vt -3.645313 -0.984375
vt -3.635937 -0.015625
vt -4.544922 -0.015625
vt -4.556641 -0.984375
vt 0.000000 -0.984375
vt -0.332031 -0.015625
vt -1.356445 -0.015625
vt -1.367187 -0.984375
vt -0.353516 -0.984375
vt -3.657813 -0.984375
vt -3.634375 -0.015625
vt -4.542969 -0.015625
vt -4.572266 -0.984375
vt 0.000000 -0.015625
s 0
usemtl in81_mizugiwa
f 9/1/1 18/2/1 6/3/2 7/4/3
f 7/5/3 1/6/4 10/7/1 9/8/1
f 20/9/5 19/10/1 10/11/1 1/12/4
usemtl in81_magu07
f 9/13/1 10/14/1 8/15/1 5/16/1
f 10/17/1 19/18/1 12/19/1 8/20/1
f 11/21/1 18/22/1 9/23/1 5/24/1
usemtl in81_gake_c
f 13/25/6 14/26/7 2/27/1 3/28/1
f 22/29/1 16/30/1 17/31/5 21/32/8
f 15/33/9 4/34/1 2/35/1 14/36/7
f 3/27/1 22/28/1 21/25/5 13/26/6
usemtl in81_mizuga1
f 13/28/6 1/37/4 7/26/3 14/27/7
f 21/38/5 17/39/5 20/40/5 1/41/4
f 6/42/2 15/43/2 14/44/7 7/45/3
f 21/46/5 1/37/4 13/28/6
