mtllib lava_edge.mtl
o map
v 1.625 1.0 -0.2500019
v 0.25 1.0 0.12499809
v 0.25 0.0 0.12499809
v 0.0 1.0 0.12499809
v 0.0 0.0 0.12499809
v 1.5 1.0 -0.2500019
v 0.75 1.0 -0.1250019
v 0.5 1.0 -0.1250019
v 0.875 0.0 -0.2500031
v 1.125 1.000001 -0.1250019
v 0.75 1.000001 -0.1250031
v 0.5 0.99999905 -0.1250019
v 0.5 0.0 -0.1250031
v 0.25 0.99999905 0.12499809
v 0.75 0.0 -0.1250031
v 1.625 0.0 -0.2500031
v 0.875 1.0 -0.2500019
v 1.125 0.0 -0.1250031
v 1.5 0.0 -0.2500031
vt -4.127344 -0.015625
vt 0.976562 -0.937988
vt -4.127344 -0.984375
vt -4.125 -0.984375
vt 0.082031 -1.513672
vt -3.0 -0.984375
vt 9.542969 -1.25
vt 0.972656 -1.0
vt 0.082031 -0.940882
vt -1.664843 -0.015625
vt 0.875 -1.0
vt 8.559794 -1.25
vt -3.0 -0.015625
vt 0.972656 -0.118447
vt -4.949219 -0.984375
vt 0.976562 -1.507813
vt -4.949219 -0.015625
vt 0.875 -0.145995
vt -4.124609 -0.015625
vt -1.66426 -0.984375
vt 8.562799 -1.625
vt 9.542969 -1.625
vn 0.0 0.0 1.0
vn 0.7071 -0.0 0.7071
c 1.0 1.0 1.0
c 0.98039216 1.0 1.0
c 1.0 0.58431375 0.039215688
usemtl in81_mizugiwa
s off
f 15/6/1/3 11/20/1/3 8/10/1/2 13/13/1/2
usemtl in81_magu07
s off
f 10/21/1/1 7/12/1/3 15/7/1/3 18/22/1/1
usemtl in81_gake_c
s off
f 14/4/1/1 4/19/1/1 5/17/1/1 3/15/1/1
usemtl in81_mizuga1
s off
f 12/3/2/2 2/1/2/1 3/17/2/1 13/15/2/2
usemtl TRANSPARENT
s off
f 1/14/1/1 6/18/1/1 19/11/1/1 16/8/1/1
