mtllib lavawaterfall.mtl
o map
v 7.0 0.99999905 4.000001
v 0.0 1.499999 4.750001
v 6.375 1.999999 4.500001
v 5.25 0.5 -0.499999
v 1.0 2.999999 4.500001
v 6.0 1.999999 4.500001
v 0.5 2.749999 4.375001
v 1.125 1.499999 4.000001
v 0.0 1.0 1.0E-6
v 0.0 0.0 1.0E-6
v 6.0 1.749999 3.750001
v 0.5 1.0 -0.249999
v 0.5 0.0 -0.249999
v 1.25 0.0 -0.499999
v 5.0 1.0 -0.499999
v 0.625 1.0 -0.499999
v 0.625 0.0 -0.499999
v 0.5 2.999999 4.750001
v 0.625 0.5 -0.499999
v 5.875 1.5 1.0E-6
v 5.875 1.0 -0.499999
v 5.75 0.0 -0.499999
v 7.0 2.999999 5.000001
v 1.0 2.999999 4.000001
v 0.0 1.5 1.000001
v 6.0 1.999999 4.000001
v 2.75 0.25 -0.499999
v 2.75 1.0 -0.499999
v 6.375 1.5 1.0E-6
v 5.875 1.499999 4.000001
v 0.625 2.999999 4.500001
v 4.25 0.25 -0.499999
v 4.25 1.0 -0.499999
v 6.5 3.499999 4.375001
v 1.0 1.75 -0.249999
v 1.0 1.0 -0.499999
v 0.5 1.0 -0.499999
v 2.0 1.0 -0.499999
v 1.0 0.0 -0.499999
v 4.0 -0.5 -0.499999
v 6.5 1.999999 4.750001
v 0.0 2.999999 5.000001
v 0.5 1.249999 4.000001
v 0.625 1.499999 4.000001
v 6.5 1.25 1.0E-6
v 1.125 1.0 -0.499999
v 1.0 1.0 -0.999999
v 1.0 0.0 -0.999999
v 0.5 1.999999 4.750001
v 6.0 2.999999 4.500001
v 1.0 1.999999 4.500001
v 6.375 2.999999 4.500001
v 1.0 1.749999 3.750001
v 1.75 0.5 -0.499999
v 6.375 1.499999 4.000001
v 6.0 2.999999 4.000001
v 7.0 1.999999 5.000001
v 6.5 3.249999 4.375001
v 1.0 1.999999 4.000001
v 1.125 1.5 1.0E-6
v 6.5 1.0 -0.249999
v 6.5 0.0 -0.249999
v 7.0 1.499999 4.750001
v 0.0 0.99999905 4.000001
v 6.375 1.0 -0.499999
v 6.375 0.0 -0.499999
v 6.375 0.5 -0.499999
v 0.625 1.999999 4.500001
v 6.5 1.249999 4.000001
v 0.5 3.249999 4.375001
v 7.0 1.0 1.0E-6
v 0.5 1.25 1.0E-6
v 0.625 1.5 1.0E-6
v 7.0 0.0 1.0E-6
v 6.0 1.75 -0.249999
v 6.0 1.0 -0.499999
v 6.0 0.0 -0.499999
v 3.0 -0.5 -0.499999
v 7.0 1.5 1.000001
v 6.5 2.749999 4.375001
v 0.0 1.999999 5.000001
v 0.5 3.499999 4.375001
v 6.5 1.0 -0.499999
v 6.5 2.999999 4.750001
v 6.0 1.0 -0.999999
v 6.0 0.0 -0.999999
vt 1.0 -5.5
vt 5.0 0.84375
vt -10.1875 -1.0
vt 1.0 -2.5
vt 0.0 -2.5
vt -3.0 -3.5
vt -3.5 -1.0
vt 5.0 3.0
vt -10.0 -1.5
vt 4.8125 0.5
vt -3.5 -2.1875
vt 1.0 -4.5
vt 7.5 0.5
vt 5.0 2.8125
vt -2.0 -1.0
vt 1.0 -1.0
vt 0.0 -1.0
vt 0.0 -0.5
vt 4.0 -1.0
vt 1.0 0.0
vt -1.0 -0.5
vt 1.0 -0.5
vt -1.0 0.0
vt 0.0 0.0
vt -1.0 -1.0
vt -2.0 -0.5
vt -0.5 0.0
vt -3.0 -3.0
vt -4.0 -1.0
vt -4.0 0.0
vt 7.6875 0.75
vt 7.6875 3.0
vt -3.0 -5.5
vt -2.25 -0.25
vt 7.6875 2.75
vt 1.5 -1.4375
vt -10.1875 -1.5
vt -2.5 0.0
vt 1.0 -3.5
vt -5.0 -0.5
vt -5.0 0.0
vt -5.0 -1.0
vt 5.0 0.5
vt -10.0 -1.0
vt 4.8125 0.75
vt 4.8125 3.0
vt -2.570313 -0.070312
vt 7.5 0.84375
vt -3.0 -4.5
vt 7.5 3.0
vt 4.8125 2.75
vt -3.5 -1.4375
vt -3.0 -0.5
vt -3.0 -1.0
vt 1.0 -1.5
vt 1.0 -3.0
vt 1.5 -1.0
vt 0.0 -1.5
vt 3.0 0.0
vt -1.5 -1.0
vt -1.5 0.0
vt -3.0 0.0
vt 7.5 2.8125
vt 7.6875 0.5
vt 1.5 -2.1875
vn -0.6031 -0.564 0.5641
vn 0.6031 -0.564 0.5641
vn 0.3696 -0.657 0.657
vn -0.3696 -0.657 0.657
vn 0.6851 -0.666 0.2953
vn 0.7606 -0.6007 0.2464
vn -0.4323 -0.6676 0.6061
vn -0.3194 -0.8821 0.3463
vn 0.3127 -0.8846 0.346
vn -0.1407 -0.6702 0.7287
vn 0.1407 -0.6702 0.7287
vn -0.1406 -0.6702 0.7288
vn 0.1406 -0.6702 0.7288
vn 0.6284 -0.6283 0.4586
vn -0.6284 -0.6283 0.4586
vn 0.421 -0.6787 0.6018
vn -0.7071 0.0 0.7071
vn 0.7071 -0.0 0.7071
vn 0.0957 -0.9513 0.2931
vn -0.0957 -0.9513 0.2931
vn -0.6991 -0.3867 0.6015
vn 0.6991 -0.3867 0.6015
vn -0.32 -0.882 0.3461
vn 0.0957 -0.9513 0.293
vn -0.0957 -0.9513 0.293
vn -0.6031 -0.564 0.564
vn 0.6031 -0.564 0.564
vn -0.6723 -0.6664 0.3225
vn 0.6283 -0.6284 0.4586
vn -0.6283 -0.6284 0.4586
vn -0.6204 -0.4799 0.6203
vn 0.6204 -0.4799 0.6203
vn -0.6204 -0.4799 0.6204
vn 0.6204 -0.4799 0.6204
vn 0.0 -0.9241 0.3822
vn -0.7592 -0.6025 0.2463
vn -0.6722 -0.6664 0.3225
vn 0.0 -0.0 1.0
vn 1.0 -0.0 -0.0
vn -1.0 -0.0 0.0
vn 0.0 -0.7071 0.7071
vn 0.6854 -0.6658 0.2949
vn 0.1289 -0.9123 0.3887
vn -0.1289 -0.9123 0.3887
vn -0.6723 -0.6664 0.3224
vn -0.7559 -0.4629 0.4629
vn 0.7559 -0.4629 0.4629
vn 0.0 -0.3045 0.9525
vn -0.7582 -0.6038 0.2462
vn 0.7582 -0.6038 0.2462
vn -0.8511 0.0 0.5251
vn 0.8511 -0.0 0.5251
vn 0.129 -0.9123 0.3888
vn -0.129 -0.9123 0.3888
vn 0.0 -0.9238 0.3828
vn 0.0 -0.9239 0.3826
vn -0.1407 -0.6701 0.7288
vn 0.1407 -0.6701 0.7288
vn 0.3102 -0.8847 0.3479
vn -0.4218 -0.6805 0.5992
vn 0.4233 -0.6811 0.5974
vn 0.6853 -0.6659 0.2948
vn 0.0 -0.9239 0.3827
vn 0.4472 0.0 0.8944
vn -0.4472 0.0 0.8944
vn 0.1289 -0.9123 0.3888
vn -0.1289 -0.9123 0.3888
vn -0.0 0.1094 0.994
vn 0.3696 -0.6571 0.657
vn -0.6723 -0.6663 0.3225
vn -0.3696 -0.6571 0.657
vn 0.6854 -0.6658 0.2948
vn -0.0 -0.924 0.3825
c 1.0 1.0 1.0
c 1.0 0.53333336 0.039215688
c 1.0 0.5137255 0.019607844
c 0.98039216 1.0 0.9843137
c 0.9607843 0.9607843 1.0
c 1.0 0.9411765 0.9411765
usemtl in81_magu00
s off
f 53/14/16/6 35/2/59/6 75/48/8/1 11/63/7/1
f 35/2/59/6 47/43/3/5 85/13/4/1 75/48/8/1
f 44/51/5/1 73/45/6/1 35/2/9/6 53/14/61/6
f 68/46/22/3 44/51/5/1 53/14/61/6 59/8/64/1
f 73/45/6/1 16/10/47/2 47/43/69/5 35/2/9/6
f 59/8/64/1 53/14/16/6 11/63/7/1 26/50/65/1
f 11/63/60/1 75/48/23/1 29/31/36/1 55/35/70/1
f 26/50/65/1 11/63/60/1 55/35/70/1 3/32/21/2
f 75/48/23/1 85/13/71/1 65/64/46/2 29/31/36/1
f 3/3/51/2 52/37/51/2 56/9/38/1 26/44/38/1
f 66/3/51/2 65/37/51/2 85/9/38/1 86/44/38/1
f 16/3/52/2 17/37/52/2 48/9/38/1 47/44/38/5
f 31/3/52/2 68/37/52/3 59/9/38/1 24/44/38/1
usemtl A0_lava_1
s off
f 20/12/63/1 30/39/35/1 8/6/55/6 60/49/63/6
f 30/39/35/1 6/56/48/1 51/28/48/1 8/6/55/6
f 51/56/48/1 6/28/48/1 80/11/68/1 7/65/68/1
f 21/1/41/1 20/12/63/1 60/49/63/6 46/33/41/5
usemtl A0_lava_2
s off
f 40/60/38/1 22/60/38/1 4/61/38/1 32/61/38/1
f 70/36/38/4 58/52/38/1 34/7/38/1 82/57/38/4
f 14/60/38/1 78/60/38/1 27/61/38/1 54/61/38/1
f 78/60/38/1 40/60/38/1 32/61/38/1 27/61/38/1
f 36/61/38/5 37/60/38/1 54/61/38/1
f 37/60/38/1 14/60/38/1 54/61/38/1
f 4/61/38/1 22/60/38/1 76/61/38/1
f 22/60/38/1 83/60/38/1 76/61/38/1
usemtl in81_magu03
s off
f 8/55/56/6 51/16/48/1 68/17/48/3 44/58/63/1
f 29/58/55/1 20/55/55/1 21/4/41/1 65/5/41/2
f 60/55/55/6 73/58/55/1 16/5/41/2 46/4/41/5
f 29/5/55/1 55/58/63/1 30/55/73/1 20/4/55/1
f 55/58/63/1 3/17/48/2 6/16/48/1 30/55/73/1
f 60/4/55/6 8/55/56/6 44/58/63/1 73/5/55/1
f 6/16/48/1 3/17/48/2 80/22/68/1
f 68/17/48/3 51/16/48/1 7/22/68/1
usemtl A0_lava_3
s off
f 32/60/38/1 4/60/38/1 15/61/38/1 33/61/38/1
f 27/60/38/1 32/60/38/1 33/61/38/1 28/61/38/1
f 54/60/38/1 27/60/38/1 28/61/38/1 38/61/38/1
f 7/65/68/1 80/11/68/1 58/52/38/1 70/36/38/4
f 4/60/38/1 76/60/38/1 15/61/38/1
f 36/60/38/5 54/60/38/1 38/61/38/1
usemtl in81_magu04
s off
f 65/20/38/2 76/16/38/1 77/17/38/1 66/24/38/2
f 17/24/38/2 39/17/38/1 36/16/38/5 16/20/38/2
f 68/20/38/3 51/16/38/1 5/17/38/1 31/24/38/2
f 52/24/38/2 50/17/38/1 6/16/38/1 3/20/38/2
usemtl in81_gake_c
s off
f 23/23/38/1 84/25/17/1 41/17/17/2 57/24/38/1
f 71/23/38/1 61/25/17/1 62/17/17/1 74/24/38/1
f 10/23/38/1 13/25/18/1 12/17/18/1 9/24/38/1
f 81/23/38/1 49/25/18/1 18/17/18/4 42/24/38/1
f 2/25/29/1 49/17/14/1 81/27/38/1
f 41/25/15/2 63/17/30/1 57/27/38/1
usemtl in81_gake_d
s off
f 41/24/17/2 84/23/17/1 52/21/51/2 3/18/51/2
f 62/24/17/1 61/23/17/1 65/21/51/2 66/18/51/2
f 12/24/18/1 13/23/18/1 17/21/52/2 16/18/52/2
f 18/24/18/4 49/23/18/1 68/21/52/3 31/18/52/2
f 1/59/19/1 71/62/66/1 79/15/39/1 63/19/12/1
f 9/62/67/1 64/59/20/1 2/19/13/1 25/15/40/1
f 41/26/31/2 3/34/21/2 55/47/37/1 69/53/37/1
f 29/24/49/1 65/18/46/2 61/40/26/1 45/41/45/1
f 69/24/28/1 55/18/45/1 29/40/49/1 45/41/45/1
f 49/26/32/1 43/53/72/1 44/47/72/1 68/34/22/3
f 73/24/50/1 72/41/42/1 12/40/27/1 16/18/47/2
f 43/24/42/1 72/41/42/1 73/40/50/1 44/18/62/1
usemtl in81_gake_a
s off
f 71/41/43/1 1/24/24/1 69/17/28/1 45/42/28/1
f 9/41/44/1 72/42/72/1 43/17/72/1 64/24/25/1
f 71/38/53/1 45/54/45/1 61/15/1/1
f 63/23/57/1 41/17/33/2 69/15/45/1
f 1/24/24/1 63/23/10/1 69/17/28/1
f 9/38/54/1 12/54/2/1 72/15/62/1
f 2/23/58/1 43/15/42/1 49/17/34/1
f 64/24/25/1 43/17/72/1 2/23/11/1
usemtl TRANSPARENT
s off
f 29/20/38/1 73/30/38/1 19/29/38/2 67/16/38/2
