mtllib Subterranean-Cave-2_03_01.mtl
o map
v -16.0 -16.0 11.000002
v -8.0 -16.0 11.000002
v -8.0 -9.0 11.000003
v -16.0 -9.0 11.000003
v -16.0 -9.0 11.0
v -15.0 -9.0 11.0
v -15.0 -8.0 11.0
v -16.0 -8.0 11.0
v -16.0 -8.0 11.0
v -15.0 -8.0 11.0
v -15.0 -7.0 11.0
v -16.0 -7.0 11.0
v -16.0 -7.0 11.0
v -15.0 -7.0 11.0
v -15.0 -6.0 11.0
v -16.0 -6.0 11.0
v -16.0 -6.0 11.0
v -15.0 -6.0 11.0
v -15.0 -5.0 11.0
v -16.0 -5.0 11.0
v -16.0 -5.0 11.0
v -15.0 -5.0 11.0
v -15.0 -4.0 11.0
v -16.0 -4.0 11.0
v -16.0 -4.0 11.0
v -15.0 -4.0 11.0
v -15.0 -3.0 11.0
v -16.0 -3.0 11.0
v -16.0 -3.0 11.0
v -15.0 -3.0 11.0
v -15.0 -2.0 11.0
v -16.0 -2.0 11.0
v -16.0 -2.0 11.0
v -15.0 -2.0 11.0
v -15.0 -1.0 11.0
v -16.0 -1.0 11.0
v -16.0 -1.0 11.0
v -15.0 -1.0 11.0
v -15.0 0.0 11.0
v -16.0 0.0 11.0
v -16.0 0.0 11.0
v -15.0 0.0 11.0
v -15.0 1.0 11.0
v -16.0 1.0 11.0
v -16.0 1.0 11.0
v -15.0 1.0 11.0
v -15.0 2.0 11.0
v -16.0 2.0 11.0
v -16.0 2.0 11.0
v -15.0 2.0 11.0
v -15.0 3.0 11.0
v -16.0 3.0 11.0
v -16.0 3.0 11.0
v -15.0 3.0 11.0
v -15.0 4.0 11.0
v -16.0 4.0 11.0
v -16.0 4.0 11.0
v -15.0 4.0 11.0
v -15.0 5.0 11.0
v -16.0 5.0 11.0
v -16.0 5.0 11.0
v -15.0 5.0 11.0
v -15.0 6.0 11.0
v -16.0 6.0 11.0
v -16.0 6.0 11.0
v -15.0 6.0 11.0
v -15.0 7.0 11.0
v -16.0 7.0 11.0
v -16.0 7.0 11.0
v -15.0 7.0 11.0
v -15.0 8.0 11.0
v -16.0 8.0 11.0
v -16.0 8.0 11.0
v -15.0 8.0 11.0
v -15.0 9.0 11.0
v -16.0 9.0 11.0
v -16.0 9.0 11.0
v -15.0 9.0 11.0
v -15.0 10.0 11.0
v -16.0 10.0 11.0
v -16.0 10.0 11.0
v -15.0 10.0 11.0
v -15.0 11.0 11.0
v -16.0 11.0 11.0
v -16.0 11.0 11.000002
v -8.0 11.0 11.000002
v -8.0 16.0 11.000003
v -16.0 16.0 11.000003
v -15.0 -9.0 11.000002
v -7.0 -9.0 11.000002
v -7.0 -1.0 11.000003
v -15.0 -1.0 11.000003
v -15.0 -1.0 11.000002
v -7.0 -1.0 11.000002
v -7.0 7.0 11.000003
v -15.0 7.0 11.000003
v -15.0 7.0 11.000002
v -7.0 7.0 11.000002
v -7.0 11.0 11.000003
v -15.0 11.0 11.000003
v -8.0 -16.0 11.000002
v -1.0 -16.0 11.000002
v -1.0 -9.0 11.000003
v -8.0 -9.0 11.000003
v -8.0 11.0 11.000002
v -1.0 11.0 11.000002
v -1.0 16.0 11.000003
v -8.0 16.0 11.000003
v -7.0 -9.0 11.000002
v -1.0 -9.0 11.000002
v -1.0 -1.0 11.000003
v -7.0 -1.0 11.000003
v -7.0 -1.0 11.000002
v -1.0 -1.0 11.000002
v -1.0 7.0 11.000003
v -7.0 7.0 11.000003
v -7.0 7.0 11.000002
v -1.0 7.0 11.000002
v -1.0 11.0 11.000003
v -7.0 11.0 11.000003
vt 0.0625 0.9375
vt 0.0625 0.9375
vt 0.0625 0.9375
vt 0.0625 0.9375
vt 0.0 7.0
vt 1.0 7.0
vt 1.0 8.0
vt 0.0 8.0
vt 0.0 8.0
vt 1.0 8.0
vt 1.0 9.0
vt 0.0 9.0
vt 0.0 9.0
vt 1.0 9.0
vt 1.0 10.0
vt 0.0 10.0
vt 0.0 10.0
vt 1.0 10.0
vt 1.0 11.0
vt 0.0 11.0
vt 0.0 11.0
vt 1.0 11.0
vt 1.0 12.0
vt 0.0 12.0
vt 0.0 12.0
vt 1.0 12.0
vt 1.0 13.0
vt 0.0 13.0
vt 0.0 13.0
vt 1.0 13.0
vt 1.0 14.0
vt 0.0 14.0
vt 0.0 14.0
vt 1.0 14.0
vt 1.0 15.0
vt 0.0 15.0
vt 0.0 15.0
vt 1.0 15.0
vt 1.0 16.0
vt 0.0 16.0
vt 0.0 16.0
vt 1.0 16.0
vt 1.0 17.0
vt 0.0 17.0
vt 1.0 18.0
vt 0.0 18.0
vt 0.0 17.0
vt 1.0 17.0
vt 0.0 18.0
vt 1.0 18.0
vt 1.0 19.0
vt 0.0 19.0
vt 1.0 20.0
vt 0.0 20.0
vt 0.0 19.0
vt 1.0 19.0
vt 0.0 20.0
vt 1.0 20.0
vt 1.0 21.0
vt 0.0 21.0
vt 1.0 22.0
vt 0.0 22.0
vt 0.0 21.0
vt 1.0 21.0
vt 0.0 22.0
vt 1.0 22.0
vt 1.0 23.0
vt 0.0 23.0
vt 1.0 24.0
vt 0.0 24.0
vt 0.0 23.0
vt 1.0 23.0
vt 0.0 24.0
vt 1.0 24.0
vt 1.0 25.0
vt 0.0 25.0
vt 1.0 26.0
vt 0.0 26.0
vt 0.0 25.0
vt 1.0 25.0
vt 0.0 26.0
vt 1.0 26.0
vt 1.0 27.0
vt 0.0 27.0
vt 0.0625 0.9375
vt 0.0625 0.9375
vt 0.0625 0.9375
vt 0.0625 0.9375
vt 0.0625 0.9375
vt 0.0625 0.9375
vt 0.0625 0.9375
vt 0.0625 0.9375
vt 0.0625 0.9375
vt 0.0625 0.9375
vt 0.0625 0.9375
vt 0.0625 0.9375
vt 0.0625 0.9375
vt 0.0625 0.9375
vt 0.0625 0.9375
vt 0.0625 0.9375
vt 0.0625 0.9375
vt 0.0625 0.9375
vt 0.0625 0.9375
vt 0.0625 0.9375
vt 0.0625 0.9375
vt 0.0625 0.9375
vt 0.0625 0.9375
vt 0.0625 0.9375
vt 0.0625 0.9375
vt 0.0625 0.9375
vt 0.0625 0.9375
vt 0.0625 0.9375
vt 0.0625 0.9375
vt 0.0625 0.9375
vt 0.0625 0.9375
vt 0.0625 0.9375
vt 0.0625 0.9375
vt 0.0625 0.9375
vt 0.0625 0.9375
vt 0.0625 0.9375
vn 0.0 -0.0 1.0
vn 0.0 -0.0 1.0
vn 0.0 -0.0 1.0
vn 0.0 -0.0 1.0
vn 0.0 -0.0 1.0
vn 0.0 -0.0 1.0
vn 0.0 -0.0 1.0
vn 0.0 -0.0 1.0
vn 0.0 -0.0 1.0
vn 0.0 -0.0 1.0
vn 0.0 -0.0 1.0
vn 0.0 -0.0 1.0
vn 0.0 -0.0 1.0
vn 0.0 -0.0 1.0
vn 0.0 -0.0 1.0
vn 0.0 -0.0 1.0
vn 0.0 -0.0 1.0
vn 0.0 -0.0 1.0
vn 0.0 -0.0 1.0
vn 0.0 -0.0 1.0
vn 0.0 -0.0 1.0
vn 0.0 -0.0 1.0
vn 0.0 -0.0 1.0
vn 0.0 -0.0 1.0
vn 0.0 -0.0 1.0
vn 0.0 -0.0 1.0
vn 0.0 -0.0 1.0
vn 0.0 -0.0 1.0
vn 0.0 -0.0 1.0
vn 0.0 -0.0 1.0
c 1.0 1.0 1.0
c 0.0 0.0 0.0
c 1.0 1.0 1.0
c 0.019607844 0.019607844 0.019607844
c 1.0 1.0 1.0
c 0.050980393 0.050980393 0.050980393
c 1.0 1.0 1.0
c 0.050980393 0.050980393 0.050980393
c 1.0 1.0 1.0
c 0.050980393 0.050980393 0.050980393
c 1.0 1.0 1.0
c 0.050980393 0.050980393 0.050980393
c 1.0 1.0 1.0
c 0.050980393 0.050980393 0.050980393
c 1.0 1.0 1.0
c 0.050980393 0.050980393 0.050980393
c 1.0 1.0 1.0
c 0.050980393 0.050980393 0.050980393
c 1.0 1.0 1.0
c 0.050980393 0.050980393 0.050980393
c 1.0 1.0 1.0
c 0.050980393 0.050980393 0.050980393
c 1.0 1.0 1.0
c 0.050980393 0.050980393 0.050980393
c 1.0 1.0 1.0
c 0.050980393 0.050980393 0.050980393
c 1.0 1.0 1.0
c 0.050980393 0.050980393 0.050980393
c 1.0 1.0 1.0
c 0.050980393 0.050980393 0.050980393
c 1.0 1.0 1.0
c 0.050980393 0.050980393 0.050980393
c 1.0 1.0 1.0
c 0.050980393 0.050980393 0.050980393
c 1.0 1.0 1.0
c 0.050980393 0.050980393 0.050980393
c 1.0 1.0 1.0
c 0.050980393 0.050980393 0.050980393
c 1.0 1.0 1.0
c 0.050980393 0.050980393 0.050980393
c 1.0 1.0 1.0
c 0.019607844 0.019607844 0.019607844
c 1.0 1.0 1.0
c 1.0 1.0 1.0
c 1.0 1.0 1.0
c 1.0 1.0 1.0
c 1.0 1.0 1.0
c 1.0 1.0 1.0
c 1.0 1.0 1.0
c 1.0 1.0 1.0
c 1.0 1.0 1.0
usemtl gake_michi01
s off
f 5/5/2/4 6/6/2/2 7/7/2/4 8/8/2/3
f 9/9/3/5 10/10/3/6 11/11/3/6 12/12/3/5
f 13/13/4/7 14/14/4/8 15/15/4/8 16/16/4/7
f 17/17/5/9 18/18/5/10 19/19/5/10 20/20/5/9
f 21/21/6/11 22/22/6/12 23/23/6/12 24/24/6/11
f 25/25/7/13 26/26/7/14 27/27/7/14 28/28/7/13
f 29/29/8/15 30/30/8/16 31/31/8/16 32/32/8/15
f 33/33/9/17 34/34/9/18 35/35/9/18 36/36/9/17
f 37/37/10/19 38/38/10/20 39/39/10/20 40/40/10/19
f 41/41/11/21 42/42/11/22 43/43/11/22 44/44/11/21
f 45/47/12/23 46/48/12/24 47/45/12/24 48/46/12/23
f 49/49/13/25 50/50/13/26 51/51/13/26 52/52/13/25
f 53/55/14/27 54/56/14/28 55/53/14/28 56/54/14/27
f 57/57/15/29 58/58/15/30 59/59/15/30 60/60/15/29
f 61/63/16/31 62/64/16/32 63/61/16/32 64/62/16/31
f 65/65/17/33 66/66/17/34 67/67/17/34 68/68/17/33
f 69/71/18/35 70/72/18/36 71/69/18/36 72/70/18/35
f 73/73/19/37 74/74/19/38 75/75/19/38 76/76/19/37
f 77/79/20/39 78/80/20/40 79/77/20/40 80/78/20/39
f 81/81/21/41 82/82/21/42 83/83/21/42 84/84/21/42
usemtl d0gake_heri
s off
f 1/1/1/1 2/2/1/1 3/3/1/1 4/4/1/1
f 85/85/22/43 86/86/22/43 87/87/22/43 88/88/22/43
f 89/89/23/44 90/90/23/44 91/91/23/44 92/92/23/44
f 93/93/24/45 94/94/24/45 95/95/24/45 96/96/24/45
f 97/97/25/46 98/98/25/46 99/99/25/46 100/100/25/46
f 101/101/26/47 102/102/26/47 103/103/26/47 104/104/26/47
f 105/105/27/48 106/106/27/48 107/107/27/48 108/108/27/48
f 109/109/28/49 110/110/28/49 111/111/28/49 112/112/28/49
f 113/113/29/50 114/114/29/50 115/115/29/50 116/116/29/50
f 117/117/30/51 118/118/30/51 119/119/30/51 120/120/30/51
