mtllib Subterranean-Cave-2_01_04.mtl
o map
v -16.0 -16.0 2.026558E-6
v -8.0 -16.0 2.026558E-6
v -8.0 -8.0 2.9802322E-6
v -16.0 -8.0 2.9802322E-6
v -16.0 -8.0 2.026558E-6
v -8.0 -8.0 2.026558E-6
v -8.0 0.0 2.9802322E-6
v -16.0 0.0 2.9802322E-6
v -16.0 0.0 2.026558E-6
v -8.0 0.0 2.026558E-6
v -8.0 6.0 2.9802322E-6
v -16.0 6.0 2.9802322E-6
v -16.0 6.0 2.026558E-6
v -10.0 6.0 2.026558E-6
v -10.0 7.0 2.9802322E-6
v -16.0 7.0 2.9802322E-6
v -16.0 7.0 14.000002
v -10.0 7.0 14.000002
v -10.0 15.0 14.000003
v -16.0 15.0 14.000003
v -16.0 15.0 14.000002
v -10.0 15.0 14.000002
v -10.0 16.0 14.000003
v -16.0 16.0 14.000003
v -10.0 6.0 0.0
v -9.0 6.0 0.0
v -9.0 7.0 0.0
v -10.0 7.0 0.0
v -10.0 7.0 14.0
v -9.0 7.0 14.0
v -9.0 8.0 14.0
v -10.0 8.0 14.0
v -10.0 8.0 14.0
v -9.0 8.0 14.0
v -9.0 9.0 14.0
v -10.0 9.0 14.0
v -10.0 9.0 14.0
v -9.0 9.0 14.0
v -9.0 10.0 14.0
v -10.0 10.0 14.0
v -10.0 10.0 14.0
v -9.0 10.0 14.0
v -9.0 11.0 14.0
v -10.0 11.0 14.0
v -10.0 11.0 14.0
v -9.0 11.0 14.0
v -9.0 12.0 14.0
v -10.0 12.0 14.0
v -10.0 12.0 14.0
v -9.0 12.0 14.0
v -9.0 13.0 14.0
v -10.0 13.0 14.0
v -10.0 13.0 14.0
v -9.0 13.0 14.0
v -9.0 14.0 14.0
v -10.0 14.0 14.0
v -10.0 14.0 14.0
v -9.0 14.0 14.0
v -9.0 15.0 14.0
v -10.0 15.0 14.0
v -10.0 15.0 14.0
v -9.0 15.0 14.0
v -9.0 16.0 14.0
v -10.0 16.0 14.0
v -9.0 6.0 0.0
v -8.0 6.0 0.0
v -8.0 7.0 0.0
v -9.0 7.0 0.0
v -9.0 7.0 13.0
v -8.0 7.0 13.0
v -8.0 15.0 13.0
v -9.0 15.0 13.0
v -9.0 15.0 13.0
v -8.0 15.0 13.0
v -8.0 16.0 13.0
v -9.0 16.0 13.0
v -8.0 -16.0 2.026558E-6
v 0.0 -16.0 2.026558E-6
v 0.0 -8.0 2.9802322E-6
v -8.0 -8.0 2.9802322E-6
v -8.0 -8.0 2.026558E-6
v 0.0 -8.0 2.026558E-6
v 0.0 0.0 2.9802322E-6
v -8.0 0.0 2.9802322E-6
v -8.0 0.0 2.026558E-6
v 0.0 0.0 2.026558E-6
v 0.0 6.0 2.9802322E-6
v -8.0 6.0 2.9802322E-6
v -8.0 6.0 0.0
v -7.0 6.0 0.0
v -7.0 7.0 0.0
v -8.0 7.0 0.0
v -8.0 7.0 12.0
v -7.0 7.0 12.0
v -7.0 15.0 12.0
v -8.0 15.0 12.0
v -8.0 15.0 12.0
v -7.0 15.0 12.0
v -7.0 16.0 12.0
v -8.0 16.0 12.0
v -7.0 6.0 0.0
v -6.0 6.0 0.0
v -6.0 7.0 0.0
v -7.0 7.0 0.0
v -7.0 7.0 11.0
v -6.0 7.0 11.0
v -6.0 15.0 11.0
v -7.0 15.0 11.0
v -7.0 15.0 11.0
v -6.0 15.0 11.0
v -6.0 16.0 11.0
v -7.0 16.0 11.0
v -6.0 6.0 0.0
v -5.0 6.0 0.0
v -5.0 7.0 0.0
v -6.0 7.0 0.0
v -6.0 7.0 10.0
v -5.0 7.0 10.0
v -5.0 15.0 10.0
v -6.0 15.0 10.0
v -6.0 15.0 10.0
v -5.0 15.0 10.0
v -5.0 16.0 10.0
v -6.0 16.0 10.0
v -5.0 6.0 0.0
v -4.0 6.0 0.0
v -4.0 7.0 0.0
v -5.0 7.0 0.0
v -5.0 7.0 9.0
v -4.0 7.0 9.0
v -4.0 15.0 9.0
v -5.0 15.0 9.0
v -5.0 15.0 9.0
v -4.0 15.0 9.0
v -4.0 16.0 9.0
v -5.0 16.0 9.0
v -4.0 6.0 0.0
v -3.0 6.0 0.0
v -3.0 7.0 0.0
v -4.0 7.0 0.0
v -4.0 7.0 8.0
v -2.0 7.0 8.0
v -2.0 15.0 8.0
v -4.0 15.0 8.0
v -4.0 15.0 8.0
v -2.0 15.0 8.0
v -2.0 16.0 8.0
v -4.0 16.0 8.0
v -3.0 6.0 0.0
v -2.0 6.0 0.0
v -2.0 7.0 0.0
v -3.0 7.0 0.0
v -2.0 6.0 0.0
v -1.0 6.0 0.0
v -1.0 7.0 0.0
v -2.0 7.0 0.0
v -2.0 7.0 7.0
v 0.0 7.0 7.0
v 0.0 15.0 7.0
v -2.0 15.0 7.0
v -2.0 15.0 7.0
v 0.0 15.0 7.0
v 0.0 16.0 7.0
v -2.0 16.0 7.0
v -1.0 6.0 0.0
v 0.0 6.0 0.0
v 0.0 7.0 0.0
v -1.0 7.0 0.0
v 0.0 -16.0 2.026558E-6
v 1.0 -16.0 2.026558E-6
v 1.0 -8.0 2.9802322E-6
v 0.0 -8.0 2.9802322E-6
v 0.0 -8.0 2.026558E-6
v 1.0 -8.0 2.026558E-6
v 1.0 0.0 2.9802322E-6
v 0.0 0.0 2.9802322E-6
v 0.0 0.0 2.026558E-6
v 1.0 0.0 2.026558E-6
v 1.0 6.0 2.9802322E-6
v 0.0 6.0 2.9802322E-6
v 0.0 6.0 0.0
v 1.0 6.0 0.0
v 1.0 7.0 0.0
v 0.0 7.0 0.0
v 0.0 7.0 6.0
v 1.0 7.0 6.0
v 1.0 15.0 6.0
v 0.0 15.0 6.0
v 0.0 15.0 6.0
v 1.0 15.0 6.0
v 1.0 16.0 6.0
v 0.0 16.0 6.0
v 1.0 -16.0 6.000002
v 9.0 -16.0 6.000002
v 9.0 -8.0 6.000003
v 1.0 -8.0 6.000003
v 1.0 -8.0 6.000002
v 9.0 -8.0 6.000002
v 9.0 0.0 6.000003
v 1.0 0.0 6.000003
v 1.0 0.0 6.000002
v 9.0 0.0 6.000002
v 9.0 6.0 6.000003
v 1.0 6.0 6.000003
v 1.0 6.0 6.0
v 2.0 6.0 6.0
v 2.0 7.0 6.0
v 1.0 7.0 6.0
v 1.0 7.0 6.0
v 2.0 7.0 6.0
v 2.0 8.0 6.0
v 1.0 8.0 6.0
v 1.0 8.0 6.0
v 2.0 8.0 6.0
v 2.0 9.0 6.0
v 1.0 9.0 6.0
v 1.0 9.0 6.0
v 2.0 9.0 6.0
v 2.0 10.0 6.0
v 1.0 10.0 6.0
v 1.0 10.0 6.0
v 2.0 10.0 6.0
v 2.0 11.0 6.0
v 1.0 11.0 6.0
v 1.0 11.0 6.0
v 2.0 11.0 6.0
v 2.0 12.0 6.0
v 1.0 12.0 6.0
v 1.0 12.0 6.0
v 2.0 12.0 6.0
v 2.0 13.0 6.0
v 1.0 13.0 6.0
v 1.0 13.0 6.0
v 2.0 13.0 6.0
v 2.0 14.0 6.0
v 1.0 14.0 6.0
v 1.0 14.0 6.0
v 2.0 14.0 6.0
v 2.0 15.0 6.0
v 1.0 15.0 6.0
v 1.0 15.0 6.0
v 2.0 15.0 6.0
v 2.0 16.0 6.0
v 1.0 16.0 6.0
v 2.0 6.0 6.000002
v 10.0 6.0 6.000002
v 10.0 14.0 6.000003
v 2.0 14.0 6.000003
v 2.0 14.0 6.000002
v 10.0 14.0 6.000002
v 10.0 16.0 6.000003
v 2.0 16.0 6.000003
v 9.0 -16.0 6.000002
v 16.0 -16.0 6.000002
v 16.0 -8.0 6.000003
v 9.0 -8.0 6.000003
v 9.0 -8.0 6.000002
v 16.0 -8.0 6.000002
v 16.0 0.0 6.000003
v 9.0 0.0 6.000003
v 9.0 0.0 6.000002
v 16.0 0.0 6.000002
v 16.0 6.0 6.000003
v 9.0 6.0 6.000003
v 10.0 6.0 6.000002
v 16.0 6.0 6.000002
v 16.0 14.0 6.000003
v 10.0 14.0 6.000003
v 10.0 14.0 6.000002
v 16.0 14.0 6.000002
v 16.0 16.0 6.000003
v 10.0 16.0 6.000003
v -8.5 7.0 13.75
v -8.0 7.0 13.0
v -8.0 15.0 13.0
v -8.499999 15.0 13.75
v -9.0 7.0 14.0
v -9.0 15.0 14.0
v -8.5 15.0 13.75
v -8.0 15.0 13.0
v -8.0 16.0 13.0
v -8.499999 16.0 13.75
v -9.0 15.0 14.0
v -9.0 16.0 14.0
v -7.5 7.0 12.75
v -7.0 7.0 12.0
v -7.0 15.0 12.0
v -7.499999 15.0 12.75
v -8.0 7.0 13.0
v -8.0 15.0 13.0
v -7.5 15.0 12.75
v -7.0 15.0 12.0
v -7.0 16.0 12.0
v -7.499999 16.0 12.75
v -8.0 15.0 13.0
v -8.0 16.0 13.0
v -6.5 7.0 11.75
v -6.0 7.0 11.0
v -6.0 15.0 11.0
v -6.499999 15.0 11.75
v -7.0 7.0 12.0
v -7.0 15.0 12.0
v -6.5 15.0 11.75
v -6.0 15.0 11.0
v -6.0 16.0 11.0
v -6.499999 16.0 11.75
v -7.0 15.0 12.0
v -7.0 16.0 12.0
v -5.5 7.0 10.75
v -5.0 7.0 10.0
v -5.0 15.0 10.0
v -5.499999 15.0 10.75
v -6.0 7.0 11.0
v -6.0 15.0 11.0
v -5.5 15.0 10.75
v -5.0 15.0 10.0
v -5.0 16.0 10.0
v -5.499999 16.0 10.75
v -6.0 15.0 11.0
v -6.0 16.0 11.0
v -4.5 7.0 9.75
v -4.0 7.0 9.0
v -4.0 15.0 9.0
v -4.499999 15.0 9.75
v -5.0 7.0 10.0
v -5.0 15.0 10.0
v -4.5 15.0 9.75
v -4.0 15.0 9.0
v -4.0 16.0 9.0
v -4.499999 16.0 9.75
v -5.0 15.0 10.0
v -5.0 16.0 10.0
v -3.5 7.0 8.75
v -3.0 7.0 8.0
v -3.0 15.0 8.0
v -3.499999 15.0 8.75
v -4.0 7.0 9.0
v -4.0 15.0 9.0
v -3.5 15.0 8.75
v -3.0 15.0 8.0
v -3.0 16.0 8.0
v -3.499999 16.0 8.75
v -4.0 15.0 9.0
v -4.0 16.0 9.0
v -1.5 7.0 7.75
v -1.0 7.0 7.0
v -1.0 15.0 7.0
v -1.499999 15.0 7.75
v -2.0 7.0 8.0
v -2.0 15.0 8.0
v -1.5 15.0 7.75
v -1.0 15.0 7.0
v -1.0 16.0 7.0
v -1.499999 16.0 7.75
v -2.0 15.0 8.0
v -2.0 16.0 8.0
v 0.5 7.0 6.75
v 1.0 7.0 6.0
v 1.0 15.0 6.0
v 0.500001 15.0 6.75
v 0.0 7.0 7.0
v 0.0 15.0 7.0
v 0.5 15.0 6.75
v 1.0 15.0 6.0
v 1.0 16.0 6.0
v 0.500001 16.0 6.75
v 0.0 15.0 7.0
v 0.0 16.0 7.0
vt 0.0625 0.9375
vt 0.0625 0.9375
vt 0.0625 0.9375
vt 0.0625 0.9375
vt 0.0625 0.9375
vt 0.0625 0.9375
vt 0.0625 0.9375
vt 0.0625 0.9375
vt 0.0625 0.9375
vt 0.0625 0.9375
vt 0.0625 0.9375
vt 0.0625 0.9375
vt 0.0625 0.9375
vt 0.0625 0.9375
vt 0.0625 0.9375
vt 0.0625 0.9375
vt 0.0625 0.9375
vt 0.0625 0.9375
vt 0.0625 0.9375
vt 0.0625 0.9375
vt 0.0625 0.9375
vt 0.0625 0.9375
vt 0.0625 0.9375
vt 0.0625 0.9375
vt 6.0 22.0
vt 7.0 22.0
vt 7.0 23.0
vt 6.0 23.0
vt 7.0 24.0
vt 6.0 24.0
vt 6.0 23.0
vt 7.0 23.0
vt 6.0 24.0
vt 7.0 24.0
vt 7.0 25.0
vt 6.0 25.0
vt 7.0 26.0
vt 6.0 26.0
vt 6.0 25.0
vt 7.0 25.0
vt 6.0 26.0
vt 7.0 26.0
vt 7.0 27.0
vt 6.0 27.0
vt 7.0 28.0
vt 6.0 28.0
vt 6.0 27.0
vt 7.0 27.0
vt 6.0 28.0
vt 7.0 28.0
vt 7.0 29.0
vt 6.0 29.0
vt 7.0 30.0
vt 6.0 30.0
vt 6.0 29.0
vt 7.0 29.0
vt 6.0 30.0
vt 7.0 30.0
vt 7.0 31.0
vt 6.0 31.0
vt 7.0 32.0
vt 6.0 32.0
vt 6.0 31.0
vt 7.0 31.0
vt 7.0 22.0
vt 8.0 22.0
vt 8.0 23.0
vt 7.0 23.0
vt 1.75 5.75
vt 2.0 5.75
vt 2.0 7.75
vt 1.75 7.75
vt 2.0 8.0
vt 1.75 8.0
vt 1.75 7.75
vt 2.0 7.75
vt 0.0625 0.9375
vt 0.0625 0.9375
vt 0.0625 0.9375
vt 0.0625 0.9375
vt 0.0625 0.9375
vt 0.0625 0.9375
vt 0.0625 0.9375
vt 0.0625 0.9375
vt 0.0625 0.9375
vt 0.0625 0.9375
vt 0.0625 0.9375
vt 0.0625 0.9375
vt 8.0 22.0
vt 9.0 22.0
vt 9.0 23.0
vt 8.0 23.0
vt 2.0 5.75
vt 2.25 5.75
vt 2.25 7.75
vt 2.0 7.75
vt 2.25 8.0
vt 2.0 8.0
vt 2.0 7.75
vt 2.25 7.75
vt 9.0 22.0
vt 10.0 22.0
vt 10.0 23.0
vt 9.0 23.0
vt 2.25 5.75
vt 2.5 5.75
vt 2.5 7.75
vt 2.25 7.75
vt 2.5 8.0
vt 2.25 8.0
vt 2.25 7.75
vt 2.5 7.75
vt 10.0 22.0
vt 11.0 22.0
vt 11.0 23.0
vt 10.0 23.0
vt 2.5 5.75
vt 2.75 5.75
vt 2.75 7.75
vt 2.5 7.75
vt 2.75 8.0
vt 2.5 8.0
vt 2.5 7.75
vt 2.75 7.75
vt 11.0 22.0
vt 12.0 22.0
vt 12.0 23.0
vt 11.0 23.0
vt 2.75 5.75
vt 3.0 5.75
vt 3.0 7.75
vt 2.75 7.75
vt 3.0 8.0
vt 2.75 8.0
vt 2.75 7.75
vt 3.0 7.75
vt 12.0 22.0
vt 13.0 22.0
vt 13.0 23.0
vt 12.0 23.0
vt 3.0 5.75
vt 3.5 5.75
vt 3.5 7.75
vt 3.0 7.75
vt 3.5 8.0
vt 3.0 8.0
vt 3.0 7.75
vt 3.5 7.75
vt 13.0 22.0
vt 14.0 22.0
vt 14.0 23.0
vt 13.0 23.0
vt 14.0 22.0
vt 15.0 22.0
vt 15.0 23.0
vt 14.0 23.0
vt 3.5 5.75
vt 4.0 5.75
vt 4.0 7.75
vt 3.5 7.75
vt 4.0 8.0
vt 3.5 8.0
vt 3.5 7.75
vt 4.0 7.75
vt 15.0 22.0
vt 16.0 22.0
vt 16.0 23.0
vt 15.0 23.0
vt 0.0625 0.9375
vt 0.0625 0.9375
vt 0.0625 0.9375
vt 0.0625 0.9375
vt 0.0625 0.9375
vt 0.0625 0.9375
vt 0.0625 0.9375
vt 0.0625 0.9375
vt 0.0625 0.9375
vt 0.0625 0.9375
vt 0.0625 0.9375
vt 0.0625 0.9375
vt 16.0 22.0
vt 17.0 23.0
vt 17.0 22.0
vt 16.0 23.0
vt 4.25 5.75
vt 4.25 7.75
vt 4.0 5.75
vt 4.0 7.75
vt 4.25 7.75
vt 4.0 8.0
vt 4.0 7.75
vt 4.25 8.0
vt 0.0625 0.9375
vt 0.0625 0.9375
vt 0.0625 0.9375
vt 0.0625 0.9375
vt 0.0625 0.9375
vt 0.0625 0.9375
vt 0.0625 0.9375
vt 0.0625 0.9375
vt 0.0625 0.9375
vt 0.0625 0.9375
vt 0.0625 0.9375
vt 0.0625 0.9375
vt 18.0 22.0
vt 17.0 23.0
vt 17.0 22.0
vt 18.0 23.0
vt 17.0 23.0
vt 18.0 24.0
vt 18.0 23.0
vt 17.0 24.0
vt 18.0 24.0
vt 17.0 25.0
vt 17.0 24.0
vt 18.0 25.0
vt 17.0 25.0
vt 18.0 26.0
vt 18.0 25.0
vt 17.0 26.0
vt 18.0 26.0
vt 17.0 27.0
vt 17.0 26.0
vt 18.0 27.0
vt 17.0 27.0
vt 18.0 28.0
vt 18.0 27.0
vt 17.0 28.0
vt 18.0 28.0
vt 17.0 29.0
vt 17.0 28.0
vt 18.0 29.0
vt 17.0 29.0
vt 18.0 30.0
vt 18.0 29.0
vt 17.0 30.0
vt 18.0 30.0
vt 17.0 31.0
vt 17.0 30.0
vt 18.0 31.0
vt 17.0 31.0
vt 18.0 32.0
vt 18.0 31.0
vt 17.0 32.0
vt 0.0625 0.9375
vt 0.0625 0.9375
vt 0.0625 0.9375
vt 0.0625 0.9375
vt 0.0625 0.9375
vt 0.0625 0.9375
vt 0.0625 0.9375
vt 0.0625 0.9375
vt 0.0625 0.9375
vt 0.0625 0.9375
vt 0.0625 0.9375
vt 0.0625 0.9375
vt 0.0625 0.9375
vt 0.0625 0.9375
vt 0.0625 0.9375
vt 0.0625 0.9375
vt 0.0625 0.9375
vt 0.0625 0.9375
vt 0.0625 0.9375
vt 0.0625 0.9375
vt 0.0625 0.9375
vt 0.0625 0.9375
vt 0.0625 0.9375
vt 0.0625 0.9375
vt 0.0625 0.9375
vt 0.0625 0.9375
vt 0.0625 0.9375
vt 0.0625 0.9375
vt 0.0 0.0
vt 0.0 -1.0
vt 8.0 -1.0
vt 8.0 0.0
vt 0.0 -6.0E-5
vt 0.0 -1.0
vt 8.000424 -1.0
vt 8.000024 -6.0E-5
vt 0.0 0.0
vt 0.0 -1.0
vt 1.0 -1.0
vt 1.0 0.0
vt 0.0 -6.0E-5
vt 0.0 -1.0
vt 1.000053 -1.0
vt 1.000003 -6.0E-5
vt 0.0 0.0
vt 0.0 -1.0
vt 8.0 -1.0
vt 8.0 0.0
vt 0.0 -6.0E-5
vt 0.0 -1.0
vt 8.000424 -1.0
vt 8.000024 -6.0E-5
vt 0.0 0.0
vt 0.0 -1.0
vt 1.0 -1.0
vt 1.0 0.0
vt 0.0 -6.0E-5
vt 0.0 -1.0
vt 1.000053 -1.0
vt 1.000003 -6.0E-5
vt 0.0 0.0
vt 0.0 -1.0
vt 8.0 -1.0
vt 8.0 0.0
vt 0.0 -6.0E-5
vt 0.0 -1.0
vt 8.000424 -1.0
vt 8.000024 -6.0E-5
vt 0.0 0.0
vt 0.0 -1.0
vt 1.0 -1.0
vt 1.0 0.0
vt 0.0 -6.0E-5
vt 0.0 -1.0
vt 1.000053 -1.0
vt 1.000003 -6.0E-5
vt 0.0 0.0
vt 0.0 -1.0
vt 8.0 -1.0
vt 8.0 0.0
vt 0.0 -6.0E-5
vt 0.0 -1.0
vt 8.000424 -1.0
vt 8.000024 -6.0E-5
vt 0.0 0.0
vt 0.0 -1.0
vt 1.0 -1.0
vt 1.0 0.0
vt 0.0 -6.0E-5
vt 0.0 -1.0
vt 1.000053 -1.0
vt 1.000003 -6.0E-5
vt 0.0 0.0
vt 0.0 -1.0
vt 8.0 -1.0
vt 8.0 0.0
vt 0.0 -6.0E-5
vt 0.0 -1.0
vt 8.000424 -1.0
vt 8.000024 -6.0E-5
vt 0.0 0.0
vt 0.0 -1.0
vt 1.0 -1.0
vt 1.0 0.0
vt 0.0 -6.0E-5
vt 0.0 -1.0
vt 1.000053 -1.0
vt 1.000003 -6.0E-5
vt 0.0 0.0
vt 0.0 -1.0
vt 8.0 -1.0
vt 8.0 0.0
vt 0.0 -6.0E-5
vt 0.0 -1.0
vt 8.000424 -1.0
vt 8.000024 -6.0E-5
vt 0.0 0.0
vt 0.0 -1.0
vt 1.0 -1.0
vt 1.0 0.0
vt 0.0 -6.0E-5
vt 0.0 -1.0
vt 1.000053 -1.0
vt 1.000003 -6.0E-5
vt 0.0 0.0
vt 0.0 -1.0
vt 8.0 -1.0
vt 8.0 0.0
vt 0.0 -6.0E-5
vt 0.0 -1.0
vt 8.000424 -1.0
vt 8.000024 -6.0E-5
vt 0.0 0.0
vt 0.0 -1.0
vt 1.0 -1.0
vt 1.0 0.0
vt 0.0 -6.0E-5
vt 0.0 -1.0
vt 1.000053 -1.0
vt 1.000003 -6.0E-5
vt 0.0 0.0
vt 0.0 -1.0
vt 8.0 -1.0
vt 8.0 0.0
vt 0.0 -6.0E-5
vt 0.0 -1.0
vt 8.000424 -1.0
vt 8.000024 -6.0E-5
vt 0.0 0.0
vt 0.0 -1.0
vt 1.0 -1.0
vt 1.0 0.0
vt 0.0 -6.0E-5
vt 0.0 -1.0
vt 1.000053 -1.0
vt 1.000003 -6.0E-5
vn 0.0 -0.0 1.0
vn 0.0 -0.0 1.0
vn 0.0 -0.0 1.0
vn 0.0 -0.0 1.0
vn 0.0 -0.0 1.0
vn 0.0 -0.0 1.0
vn 0.0 -0.0 1.0
vn 0.0 -0.0 1.0
vn 0.0 -0.0 1.0
vn 0.0 -0.0 1.0
vn 0.0 -0.0 1.0
vn 0.0 -0.0 1.0
vn 0.0 -0.0 1.0
vn 0.0 -0.0 1.0
vn 0.0 -0.0 1.0
vn 0.0 -0.0 1.0
vn 0.0 -0.0 1.0
vn 0.0 -0.0 1.0
vn 0.0 -0.0 1.0
vn 0.0 -0.0 1.0
vn 0.0 -0.0 1.0
vn 0.0 -0.0 1.0
vn 0.0 -0.0 1.0
vn 0.0 -0.0 1.0
vn 0.0 -0.0 1.0
vn 0.0 -0.0 1.0
vn 0.0 -0.0 1.0
vn 0.0 -0.0 1.0
vn 0.0 -0.0 1.0
vn 0.0 -0.0 1.0
vn 0.0 -0.0 1.0
vn 0.0 -0.0 1.0
vn 0.0 -0.0 1.0
vn 0.0 -0.0 1.0
vn 0.0 -0.0 1.0
vn 0.0 -0.0 1.0
vn 0.0 -0.0 1.0
vn 0.0 -0.0 1.0
vn 0.0 -0.0 1.0
vn 0.0 -0.0 1.0
vn 0.0 -0.0 1.0
vn 0.0 -0.0 1.0
vn 0.0 -0.0 1.0
vn 0.0 -0.0 1.0
vn 0.0 -0.0 1.0
vn 0.0 -0.0 1.0
vn 0.0 -0.0 1.0
vn 0.0 -0.0 1.0
vn 0.0 -0.0 1.0
vn 0.0 -0.0 1.0
vn 0.0 -0.0 1.0
vn 0.0 -0.0 1.0
vn 0.0 -0.0 1.0
vn 0.0 -0.0 1.0
vn 0.0 -0.0 1.0
vn 0.0 -0.0 1.0
vn 0.0 -0.0 1.0
vn 0.0 -0.0 1.0
vn 0.0 -0.0 1.0
vn 0.0 -0.0 1.0
vn 0.0 -0.0 1.0
vn 0.0 -0.0 1.0
vn 0.0 -0.0 1.0
vn 0.0 -0.0 1.0
vn 0.0 -0.0 1.0
vn 0.0 -0.0 1.0
vn 0.0 -0.0 1.0
vn 0.0 -0.0 1.0
vn 0.7071 -0.0 0.7071
vn 0.8321 -0.0 0.5547
vn 0.0434 0.0 0.9991
vn 0.7071 -0.0 0.7071
vn 0.8321 -0.0 0.5547
vn 0.0434 0.0 0.9991
vn 0.7071 -0.0 0.7071
vn 0.8321 -0.0 0.5547
vn 0.0434 0.0 0.9991
vn 0.7071 -0.0 0.7071
vn 0.8321 -0.0 0.5547
vn 0.0434 0.0 0.9991
vn 0.7071 -0.0 0.7071
vn 0.8321 -0.0 0.5547
vn 0.0434 0.0 0.9991
vn 0.7071 -0.0 0.7071
vn 0.8321 -0.0 0.5547
vn 0.0434 0.0 0.9991
vn 0.7071 -0.0 0.7071
vn 0.8321 -0.0 0.5547
vn 0.0434 0.0 0.9991
vn 0.7071 -0.0 0.7071
vn 0.8321 -0.0 0.5547
vn 0.0434 0.0 0.9991
vn 0.7071 -0.0 0.7071
vn 0.8321 -0.0 0.5547
vn 0.0434 0.0 0.9991
vn 0.7071 -0.0 0.7071
vn 0.8321 -0.0 0.5547
vn 0.0434 0.0 0.9991
vn 0.7071 -0.0 0.7071
vn 0.8321 -0.0 0.5547
vn 0.0434 0.0 0.9991
vn 0.7071 -0.0 0.7071
vn 0.8321 -0.0 0.5547
vn 0.0434 0.0 0.9991
vn 0.7071 -0.0 0.7071
vn 0.8321 -0.0 0.5547
vn 0.0434 0.0 0.9991
vn 0.7071 -0.0 0.7071
vn 0.8321 -0.0 0.5547
vn 0.0434 0.0 0.9991
vn 0.7071 -0.0 0.7071
vn 0.8321 -0.0 0.5547
vn 0.0434 0.0 0.9991
vn 0.7071 -0.0 0.7071
vn 0.8321 -0.0 0.5547
vn 0.0434 0.0 0.9991
c 1.0 1.0 1.0
c 1.0 1.0 1.0
c 1.0 1.0 1.0
c 1.0 1.0 1.0
c 1.0 1.0 1.0
c 1.0 1.0 1.0
c 0.0 0.0 0.0
c 1.0 1.0 1.0
c 0.019607844 0.019607844 0.019607844
c 1.0 1.0 1.0
c 0.011764706 0.011764706 0.011764706
c 1.0 1.0 1.0
c 0.011764706 0.011764706 0.011764706
c 1.0 1.0 1.0
c 0.011764706 0.011764706 0.011764706
c 1.0 1.0 1.0
c 0.011764706 0.011764706 0.011764706
c 1.0 1.0 1.0
c 0.011764706 0.011764706 0.011764706
c 1.0 1.0 1.0
c 0.011764706 0.011764706 0.011764706
c 1.0 1.0 1.0
c 0.011764706 0.011764706 0.011764706
c 1.0 1.0 1.0
c 0.011764706 0.011764706 0.011764706
c 1.0 1.0 1.0
c 0.011764706 0.011764706 0.011764706
c 0.0 0.0 0.0
c 1.0 1.0 1.0
c 0.019607844 0.019607844 0.019607844
c 1.0 1.0 1.0
c 1.0 1.0 1.0
c 1.0 1.0 1.0
c 1.0 1.0 1.0
c 1.0 1.0 1.0
c 0.0 0.0 0.0
c 1.0 1.0 1.0
c 0.019607844 0.019607844 0.019607844
c 1.0 1.0 1.0
c 1.0 1.0 1.0
c 0.0 0.0 0.0
c 1.0 1.0 1.0
c 0.019607844 0.019607844 0.019607844
c 1.0 1.0 1.0
c 1.0 1.0 1.0
c 0.0 0.0 0.0
c 1.0 1.0 1.0
c 0.019607844 0.019607844 0.019607844
c 1.0 1.0 1.0
c 1.0 1.0 1.0
c 0.0 0.0 0.0
c 1.0 1.0 1.0
c 0.019607844 0.019607844 0.019607844
c 1.0 1.0 1.0
c 1.0 1.0 1.0
c 0.0 0.0 0.0
c 1.0 1.0 1.0
c 0.019607844 0.019607844 0.019607844
c 1.0 1.0 1.0
c 1.0 1.0 1.0
c 0.0 0.0 0.0
c 1.0 1.0 1.0
c 0.019607844 0.019607844 0.019607844
c 0.0 0.0 0.0
c 1.0 1.0 1.0
c 0.019607844 0.019607844 0.019607844
c 1.0 1.0 1.0
c 1.0 1.0 1.0
c 0.0 0.0 0.0
c 1.0 1.0 1.0
c 0.019607844 0.019607844 0.019607844
c 1.0 1.0 1.0
c 1.0 1.0 1.0
c 1.0 1.0 1.0
c 0.0 0.0 0.0
c 1.0 1.0 1.0
c 0.019607844 0.019607844 0.019607844
c 1.0 1.0 1.0
c 1.0 1.0 1.0
c 1.0 1.0 1.0
c 1.0 1.0 1.0
c 1.0 1.0 1.0
c 0.0 0.0 0.0
c 1.0 1.0 1.0
c 0.019607844 0.019607844 0.019607844
c 1.0 1.0 1.0
c 0.050980393 0.050980393 0.050980393
c 1.0 1.0 1.0
c 0.050980393 0.050980393 0.050980393
c 1.0 1.0 1.0
c 0.050980393 0.050980393 0.050980393
c 1.0 1.0 1.0
c 0.050980393 0.050980393 0.050980393
c 1.0 1.0 1.0
c 0.050980393 0.050980393 0.050980393
c 1.0 1.0 1.0
c 0.050980393 0.050980393 0.050980393
c 1.0 1.0 1.0
c 0.050980393 0.050980393 0.050980393
c 1.0 1.0 1.0
c 0.050980393 0.050980393 0.050980393
c 1.0 1.0 1.0
c 0.050980393 0.050980393 0.050980393
c 1.0 1.0 1.0
c 1.0 1.0 1.0
c 1.0 1.0 1.0
c 1.0 1.0 1.0
c 1.0 1.0 1.0
c 1.0 1.0 1.0
c 1.0 1.0 1.0
c 1.0 1.0 1.0
c 1.0 1.0 1.0
c 1.0 1.0 1.0
c 1.0 1.0 1.0
c 1.0 1.0 1.0
c 1.0 1.0 1.0
c 1.0 1.0 1.0
c 1.0 1.0 1.0
c 1.0 1.0 1.0
c 1.0 1.0 1.0
c 1.0 1.0 1.0
c 1.0 1.0 1.0
c 1.0 1.0 1.0
c 1.0 1.0 1.0
c 1.0 1.0 1.0
c 1.0 1.0 1.0
usemtl gake_michi01
s off
f 25/25/7/9 26/26/7/7 27/27/7/8 28/28/7/9
f 29/31/8/11 30/32/8/10 31/29/8/10 32/30/8/11
f 33/33/9/13 34/34/9/12 35/35/9/12 36/36/9/13
f 37/39/10/15 38/40/10/14 39/37/10/14 40/38/10/15
f 41/41/11/17 42/42/11/16 43/43/11/16 44/44/11/17
f 45/47/12/19 46/48/12/18 47/45/12/18 48/46/12/19
f 49/49/13/21 50/50/13/20 51/51/13/20 52/52/13/21
f 53/55/14/23 54/56/14/22 55/53/14/22 56/54/14/23
f 57/57/15/25 58/58/15/24 59/59/15/24 60/60/15/25
f 61/63/16/27 62/64/16/26 63/61/16/26 64/62/16/27
f 65/65/17/30 66/66/17/28 67/67/17/29 68/68/17/29
f 89/89/23/38 90/90/23/36 91/91/23/37 92/92/23/37
f 101/101/26/43 102/102/26/41 103/103/26/42 104/104/26/42
f 113/113/29/48 114/114/29/46 115/115/29/47 116/116/29/47
f 125/125/32/53 126/126/32/51 127/127/32/52 128/128/32/52
f 137/137/35/58 138/138/35/56 139/139/35/57 140/140/35/57
f 149/149/38/63 150/150/38/61 151/151/38/62 152/152/38/62
f 153/153/39/66 154/154/39/64 155/155/39/65 156/156/39/65
f 165/165/42/71 166/166/42/69 167/167/42/70 168/168/42/70
f 181/181/46/77 182/183/46/75 183/182/46/76 184/184/46/76
f 205/207/52/85 206/205/52/83 207/208/52/85 208/206/52/84
f 209/209/53/86 210/211/53/87 211/210/53/87 212/212/53/86
f 213/215/54/88 214/213/54/89 215/216/54/89 216/214/54/88
f 217/217/55/90 218/219/55/91 219/218/55/91 220/220/55/90
f 221/223/56/92 222/221/56/93 223/224/56/93 224/222/56/92
f 225/225/57/94 226/227/57/95 227/226/57/95 228/228/57/94
f 229/231/58/96 230/229/58/97 231/232/58/97 232/230/58/96
f 233/233/59/98 234/235/59/99 235/234/59/99 236/236/59/98
f 237/239/60/100 238/237/60/101 239/240/60/101 240/238/60/100
f 241/241/61/102 242/243/61/103 243/242/61/103 244/244/61/102
usemtl gake01
s off
f 273/273/69/111 274/274/70/111 275/275/70/111 276/276/69/111
f 279/281/72/112 280/282/73/112 281/283/73/112 282/284/72/112
f 285/289/75/113 286/290/76/113 287/291/76/113 288/292/75/113
f 291/297/78/114 292/298/79/114 293/299/79/114 294/300/78/114
f 297/305/81/115 298/306/82/115 299/307/82/115 300/308/81/115
f 303/313/84/116 304/314/85/116 305/315/85/116 306/316/84/116
f 309/321/87/117 310/322/88/117 311/323/88/117 312/324/87/117
f 315/329/90/118 316/330/91/118 317/331/91/118 318/332/90/118
f 321/337/93/119 322/338/94/119 323/339/94/119 324/340/93/119
f 327/345/96/120 328/346/97/120 329/347/97/120 330/348/96/120
f 333/353/99/121 334/354/100/121 335/355/100/121 336/356/99/121
f 339/361/102/122 340/362/103/122 341/363/103/122 342/364/102/122
f 345/369/105/123 346/370/106/123 347/371/106/123 348/372/105/123
f 351/377/108/124 352/378/109/124 353/379/109/124 354/380/108/124
f 357/385/111/125 358/386/112/125 359/387/112/125 360/388/111/125
f 363/393/114/126 364/394/115/126 365/395/115/126 366/396/114/126
usemtl gake1_3
s off
f 277/277/71/111 273/278/69/111 276/279/69/111 278/280/71/111
f 283/285/74/112 279/286/72/112 282/287/72/112 284/288/74/112
f 289/293/77/113 285/294/75/113 288/295/75/113 290/296/77/113
f 295/301/80/114 291/302/78/114 294/303/78/114 296/304/80/114
f 301/309/83/115 297/310/81/115 300/311/81/115 302/312/83/115
f 307/317/86/116 303/318/84/116 306/319/84/116 308/320/86/116
f 313/325/89/117 309/326/87/117 312/327/87/117 314/328/89/117
f 319/333/92/118 315/334/90/118 318/335/90/118 320/336/92/118
f 325/341/95/119 321/342/93/119 324/343/93/119 326/344/95/119
f 331/349/98/120 327/350/96/120 330/351/96/120 332/352/98/120
f 337/357/101/121 333/358/99/121 336/359/99/121 338/360/101/121
f 343/365/104/122 339/366/102/122 342/367/102/122 344/368/104/122
f 349/373/107/123 345/374/105/123 348/375/105/123 350/376/107/123
f 355/381/110/124 351/382/108/124 354/383/108/124 356/384/110/124
f 361/389/113/125 357/390/111/125 360/391/111/125 362/392/113/125
f 367/397/116/126 363/398/114/126 366/399/114/126 368/400/116/126
usemtl gake_michi
s off
f 69/69/18/31 70/70/18/31 71/71/18/31 72/72/18/31
f 73/75/19/32 74/76/19/32 75/73/19/32 76/74/19/32
f 93/93/24/39 94/94/24/39 95/95/24/39 96/96/24/39
f 97/99/25/40 98/100/25/40 99/97/25/40 100/98/25/40
f 105/105/27/44 106/106/27/44 107/107/27/44 108/108/27/44
f 109/111/28/45 110/112/28/45 111/109/28/45 112/110/28/45
f 117/117/30/49 118/118/30/49 119/119/30/49 120/120/30/49
f 121/123/31/50 122/124/31/50 123/121/31/50 124/122/31/50
f 129/129/33/54 130/130/33/54 131/131/33/54 132/132/33/54
f 133/135/34/55 134/136/34/55 135/133/34/55 136/134/34/55
f 141/141/36/59 142/142/36/59 143/143/36/59 144/144/36/59
f 145/147/37/60 146/148/37/60 147/145/37/60 148/146/37/60
f 157/157/40/67 158/158/40/67 159/159/40/67 160/160/40/67
f 161/163/41/68 162/164/41/68 163/161/41/68 164/162/41/68
f 185/187/47/78 186/185/47/78 187/186/47/78 188/188/47/78
f 189/191/48/79 190/189/48/79 191/192/48/79 192/190/48/79
usemtl d0gake_heri
s off
f 1/1/1/1 2/2/1/1 3/3/1/1 4/4/1/1
f 5/5/2/2 6/6/2/2 7/7/2/2 8/8/2/2
f 9/9/3/3 10/10/3/3 11/11/3/3 12/12/3/3
f 13/13/4/4 14/14/4/4 15/15/4/4 16/16/4/4
f 17/17/5/5 18/18/5/5 19/19/5/5 20/20/5/5
f 21/21/6/6 22/22/6/6 23/23/6/6 24/24/6/6
f 77/77/20/33 78/78/20/33 79/79/20/33 80/80/20/33
f 81/81/21/34 82/82/21/34 83/83/21/34 84/84/21/34
f 85/85/22/35 86/86/22/35 87/87/22/35 88/88/22/35
f 169/169/43/72 170/170/43/72 171/171/43/72 172/172/43/72
f 173/173/44/73 174/174/44/73 175/175/44/73 176/176/44/73
f 177/177/45/74 178/178/45/74 179/179/45/74 180/180/45/74
f 193/193/49/80 194/194/49/80 195/195/49/80 196/196/49/80
f 197/197/50/81 198/198/50/81 199/199/50/81 200/200/50/81
f 201/201/51/82 202/202/51/82 203/203/51/82 204/204/51/82
f 245/245/62/104 246/246/62/104 247/247/62/104 248/248/62/104
f 249/249/63/105 250/250/63/105 251/251/63/105 252/252/63/105
f 253/253/64/106 254/254/64/106 255/255/64/106 256/256/64/106
f 257/257/65/107 258/258/65/107 259/259/65/107 260/260/65/107
f 261/261/66/108 262/262/66/108 263/263/66/108 264/264/66/108
f 265/265/67/109 266/266/67/109 267/267/67/109 268/268/67/109
f 269/269/68/110 270/270/68/110 271/271/68/110 272/272/68/110
