mtllib Navel-Cave-East-1_02_00.mtl
o map
v -16.0 -16.0 6.0
v -15.0 -16.0 6.0
v -15.0 -15.0 6.0
v -16.0 -15.0 6.0
v -16.0 -15.0 6.0
v -15.0 -15.0 6.0
v -15.0 -14.0 6.0
v -16.0 -14.0 6.0
v -16.0 -14.0 6.0
v -15.0 -14.0 6.0
v -15.0 -13.0 6.0
v -16.0 -13.0 6.0
v -16.0 -13.0 6.0
v -15.0 -13.0 6.0
v -15.0 -12.0 6.0
v -16.0 -12.0 6.0
v -16.0 -12.0 6.0
v -15.0 -12.0 6.0
v -15.0 -11.0 6.0
v -16.0 -11.0 6.0
v -16.0 -11.0 6.0
v -15.0 -11.0 6.0
v -15.0 -10.0 6.0
v -16.0 -10.0 6.0
v -16.0 -10.0 6.0
v -15.0 -10.0 6.0
v -15.0 -9.0 6.0
v -16.0 -9.0 6.0
v -16.0 -9.0 6.0
v -15.0 -9.0 6.0
v -15.0 -8.0 6.0
v -16.0 -8.0 6.0
v -16.0 -8.0 6.0
v -15.0 -8.0 6.0
v -15.0 -7.0 6.0
v -16.0 -7.0 6.0
v -15.0 -16.0 6.000002
v -14.0 -16.0 6.000002
v -14.0 -8.0 6.000003
v -15.0 -8.0 6.000003
v -15.0 -8.0 6.0
v -14.0 -8.0 6.0
v -14.0 -7.0 6.0
v -15.0 -7.0 6.0
v -14.0 -16.0 6.0
v -13.0 -16.0 6.0
v -13.0 -15.0 6.0
v -14.0 -15.0 6.0
v -14.0 -15.0 6.0
v -13.0 -15.0 6.0
v -13.0 -14.0 6.0
v -14.0 -14.0 6.0
v -14.0 -14.0 6.0
v -13.0 -14.0 6.0
v -13.0 -13.0 6.0
v -14.0 -13.0 6.0
v -14.0 -13.0 6.0
v -13.0 -13.0 6.0
v -13.0 -12.0 6.0
v -14.0 -12.0 6.0
v -14.0 -12.0 6.0
v -13.0 -12.0 6.0
v -13.0 -11.0 6.0
v -14.0 -11.0 6.0
v -14.0 -11.0 6.000002
v -6.0 -11.0 6.000002
v -6.0 -8.0 6.000003
v -14.0 -8.0 6.000003
v -14.0 -8.0 6.0
v -13.0 -8.0 6.0
v -13.0 -7.0 6.0
v -14.0 -7.0 6.0
v -13.0 -16.0 6.0
v -12.0 -16.0 6.0
v -12.0 -15.0 6.0
v -13.0 -15.0 6.0
v -13.0 -15.0 6.0
v -10.0 -15.0 6.0
v -10.0 -12.0 6.0
v -13.0 -12.0 6.0
v -13.0 -12.0 6.0
v -12.0 -12.0 6.0
v -12.0 -11.0 6.0
v -13.0 -11.0 6.0
v -13.0 -8.0 6.0
v -12.0 -8.0 6.0
v -12.0 -7.0 6.0
v -13.0 -7.0 6.0
v -12.0 -16.0 6.0
v -11.0 -16.0 6.0
v -11.0 -15.0 6.0
v -12.0 -15.0 6.0
v -12.0 -12.0 6.0
v -11.0 -12.0 6.0
v -11.0 -11.0 6.0
v -12.0 -11.0 6.0
v -12.0 -8.0 6.0
v -11.0 -8.0 6.0
v -11.0 -7.0 6.0
v -12.0 -7.0 6.0
v -11.0 -16.0 6.0
v -10.0 -16.0 6.0
v -10.0 -15.0 6.0
v -11.0 -15.0 6.0
v -11.0 -12.0 6.0
v -10.0 -12.0 6.0
v -10.0 -11.0 6.0
v -11.0 -11.0 6.0
v -11.0 -8.0 6.0
v -10.0 -8.0 6.0
v -10.0 -7.0 6.0
v -11.0 -7.0 6.0
v -10.0 -16.0 6.0
v -9.0 -16.0 6.0
v -9.0 -15.0 6.0
v -10.0 -15.0 6.0
v -10.0 -15.0 6.0
v -9.0 -15.0 6.0
v -9.0 -14.0 6.0
v -10.0 -14.0 6.0
v -10.0 -14.0 6.0
v -9.0 -14.0 6.0
v -9.0 -13.0 6.0
v -10.0 -13.0 6.0
v -10.0 -13.0 6.0
v -9.0 -13.0 6.0
v -9.0 -12.0 6.0
v -10.0 -12.0 6.0
v -10.0 -12.0 6.0
v -9.0 -12.0 6.0
v -9.0 -11.0 6.0
v -10.0 -11.0 6.0
v -10.0 -8.0 6.0
v -9.0 -8.0 6.0
v -9.0 -7.0 6.0
v -10.0 -7.0 6.0
v -9.0 -16.0 6.000002
v -1.0 -16.0 6.000002
v -1.0 -11.0 6.000003
v -9.0 -11.0 6.000003
v -9.0 -8.0 6.0
v -8.0 -8.0 6.0
v -8.0 -7.0 6.0
v -9.0 -7.0 6.0
v -8.0 -8.0 6.0
v -7.0 -8.0 6.0
v -7.0 -7.0 6.0
v -8.0 -7.0 6.0
v -7.0 -8.0 6.0
v -6.0 -8.0 6.0
v -6.0 -7.0 6.0
v -7.0 -7.0 6.0
v -6.0 -11.0 6.000002
v 2.0 -11.0 6.000002
v 2.0 -8.0 6.000003
v -6.0 -8.0 6.000003
v -6.0 -8.0 6.0
v -5.0 -8.0 6.0
v -5.0 -7.0 6.0
v -6.0 -7.0 6.0
v -5.0 -8.0 6.0
v -4.0 -8.0 6.0
v -4.0 -7.0 6.0
v -5.0 -7.0 6.0
v -4.0 -8.0 6.0
v -3.0 -8.0 6.0
v -3.0 -7.0 6.0
v -4.0 -7.0 6.0
v -3.0 -8.0 6.0
v -2.0 -8.0 6.0
v -2.0 -7.0 6.0
v -3.0 -7.0 6.0
v -2.0 -8.0 6.0
v -1.0 -8.0 6.0
v -1.0 -7.0 6.0
v -2.0 -7.0 6.0
v -1.0 -16.0 6.000002
v 7.0 -16.0 6.000002
v 7.0 -11.0 6.000003
v -1.0 -11.0 6.000003
v -1.0 -8.0 6.0
v 0.0 -8.0 6.0
v 0.0 -7.0 6.0
v -1.0 -7.0 6.0
v 0.0 -8.0 6.0
v 1.0 -8.0 6.0
v 1.0 -7.0 6.0
v 0.0 -7.0 6.0
v 1.0 -8.0 6.0
v 2.0 -8.0 6.0
v 2.0 -7.0 6.0
v 1.0 -7.0 6.0
v 2.0 -11.0 6.000002
v 10.0 -11.0 6.000002
v 10.0 -8.0 6.000003
v 2.0 -8.0 6.000003
v 2.0 -8.0 6.0
v 3.0 -8.0 6.0
v 3.0 -7.0 6.0
v 2.0 -7.0 6.0
v 3.0 -8.0 6.0
v 4.0 -8.0 6.0
v 4.0 -7.0 6.0
v 3.0 -7.0 6.0
v 4.0 -8.0 6.0
v 5.0 -8.0 6.0
v 5.0 -7.0 6.0
v 4.0 -7.0 6.0
v 5.0 -8.0 6.0
v 6.0 -8.0 6.0
v 6.0 -7.0 6.0
v 5.0 -7.0 6.0
v 6.0 -8.0 6.0
v 7.0 -8.0 6.0
v 7.0 -7.0 6.0
v 6.0 -7.0 6.0
v 7.0 -16.0 6.000002
v 10.0 -16.0 6.000002
v 10.0 -11.0 6.000003
v 7.0 -11.0 6.000003
v 7.0 -8.0 6.0
v 8.0 -8.0 6.0
v 8.0 -7.0 6.0
v 7.0 -7.0 6.0
v 8.0 -8.0 6.0
v 9.0 -8.0 6.0
v 9.0 -7.0 6.0
v 8.0 -7.0 6.0
v 9.0 -8.0 6.0
v 10.0 -8.0 6.0
v 10.0 -7.0 6.0
v 9.0 -7.0 6.0
v 10.0 -16.0 6.0
v 11.0 -16.0 6.0
v 11.0 -15.0 6.0
v 10.0 -15.0 6.0
v 10.0 -15.0 6.000002
v 16.0 -15.0 6.000002
v 16.0 -8.0 6.000003
v 10.0 -8.0 6.000003
v 10.0 -8.0 6.0
v 11.0 -8.0 6.0
v 11.0 -7.0 6.0
v 10.0 -7.0 6.0
v 11.0 -16.0 6.0
v 12.0 -16.0 6.0
v 12.0 -15.0 6.0
v 11.0 -15.0 6.0
v 11.0 -8.0 6.0
v 12.0 -8.0 6.0
v 12.0 -7.0 6.0
v 11.0 -7.0 6.0
v 12.0 -16.0 6.0
v 13.0 -16.0 6.0
v 13.0 -15.0 6.0
v 12.0 -15.0 6.0
v 12.0 -8.0 6.0
v 13.0 -8.0 6.0
v 13.0 -7.0 6.0
v 12.0 -7.0 6.0
v 13.0 -16.0 6.0
v 14.0 -16.0 6.0
v 14.0 -15.0 6.0
v 13.0 -15.0 6.0
v 13.0 -8.0 6.0
v 14.0 -8.0 6.0
v 14.0 -7.0 6.0
v 13.0 -7.0 6.0
v 14.0 -16.0 6.0
v 15.0 -16.0 6.0
v 15.0 -15.0 6.0
v 14.0 -15.0 6.0
v 14.0 -8.0 6.0
v 15.0 -8.0 6.0
v 15.0 -7.0 6.0
v 14.0 -7.0 6.0
v 15.0 -16.0 6.000002
v 16.0 -16.0 6.000002
v 16.0 -15.0 6.000003
v 15.0 -15.0 6.000003
v 15.0 -8.0 6.0
v 16.0 -8.0 6.0
v 16.0 -7.0 6.0
v 15.0 -7.0 6.0
v -12.608398 -13.5 6.8554688
v -12.318359 -14.339844 6.8554688
v -12.013672 -13.972656 8.013672
v -12.176758 -13.5 8.013673
v -11.621094 -14.688477 6.8554688
v -12.40625 -14.4453125 6.063477
v -11.621094 -14.837891 6.063477
v -10.904297 -12.660156 6.8554688
v -10.904297 -12.5546875 6.063477
v -11.621094 -12.162109 6.063477
v -11.621094 -12.311523 6.8554688
v -12.40625 -12.5546875 6.063477
v -12.732422 -13.5 6.063477
v -12.318359 -12.660156 6.8554688
v -11.621094 -14.168945 8.013672
v -12.013672 -13.027344 8.013672
v -11.227539 -13.972656 8.013672
v -10.834961 -14.4453125 6.063477
v -10.545898 -13.5 6.063477
v -11.262695 -13.071289 7.299805
v -11.621094 -13.5 8.5390625
v -10.885136 -14.893795 6.1875
v -11.6897335 -13.5 6.187501
v -11.6897335 -15.109193 6.187501
v -12.494329 -14.893795 6.187502
v -13.08269 -14.304596 6.187502
v -13.298925 -13.5 6.187502
v -13.08269 -12.695404 6.187502
v -12.494329 -12.106205 6.187502
v -11.6897335 -11.890807 6.187501
v -10.885136 -12.106205 6.1875
v -10.295937 -12.695404 6.1875
v -10.080539 -13.5 6.1875
v -10.295937 -14.304596 6.1875
vt 0.0 0.0
vt 1.0 0.0
vt 1.0 1.0
vt 0.0 1.0
vt 0.0 1.0
vt 1.0 1.0
vt 1.0 2.0
vt 0.0 2.0
vt 0.0 2.0
vt 1.0 2.0
vt 1.0 3.0
vt 0.0 3.0
vt 0.0 3.0
vt 1.0 3.0
vt 1.0 4.0
vt 0.0 4.0
vt 0.0 4.0
vt 1.0 4.0
vt 1.0 5.0
vt 0.0 5.0
vt 0.0 5.0
vt 1.0 5.0
vt 1.0 6.0
vt 0.0 6.0
vt 0.0 6.0
vt 1.0 6.0
vt 1.0 7.0
vt 0.0 7.0
vt 0.0 7.0
vt 1.0 7.0
vt 1.0 8.0
vt 0.0 8.0
vt 0.0 8.0
vt 1.0 8.0
vt 1.0 9.0
vt 0.0 9.0
vt 0.0625 0.9375
vt 0.0625 0.9375
vt 0.0625 0.9375
vt 0.0625 0.9375
vt 1.0 8.0
vt 2.0 8.0
vt 2.0 9.0
vt 1.0 9.0
vt 2.0 0.0
vt 3.0 0.0
vt 3.0 1.0
vt 2.0 1.0
vt 2.0 1.0
vt 3.0 1.0
vt 3.0 2.0
vt 2.0 2.0
vt 2.0 2.0
vt 3.0 2.0
vt 3.0 3.0
vt 2.0 3.0
vt 2.0 3.0
vt 3.0 3.0
vt 3.0 4.0
vt 2.0 4.0
vt 2.0 4.0
vt 3.0 4.0
vt 3.0 5.0
vt 2.0 5.0
vt 0.0625 0.9375
vt 0.0625 0.9375
vt 0.0625 0.9375
vt 0.0625 0.9375
vt 2.0 8.0
vt 3.0 8.0
vt 3.0 9.0
vt 2.0 9.0
vt 3.0 0.0
vt 4.0 0.0
vt 4.0 1.0
vt 3.0 1.0
vt 0.75 0.25
vt 1.5 0.25
vt 1.5 1.0
vt 0.75 1.0
vt 3.0 4.0
vt 4.0 4.0
vt 4.0 5.0
vt 3.0 5.0
vt 3.0 8.0
vt 4.0 8.0
vt 4.0 9.0
vt 3.0 9.0
vt 4.0 0.0
vt 5.0 0.0
vt 5.0 1.0
vt 4.0 1.0
vt 4.0 4.0
vt 5.0 4.0
vt 5.0 5.0
vt 4.0 5.0
vt 4.0 8.0
vt 5.0 8.0
vt 5.0 9.0
vt 4.0 9.0
vt 5.0 0.0
vt 6.0 0.0
vt 6.0 1.0
vt 5.0 1.0
vt 5.0 4.0
vt 6.0 4.0
vt 6.0 5.0
vt 5.0 5.0
vt 5.0 8.0
vt 6.0 8.0
vt 6.0 9.0
vt 5.0 9.0
vt 6.0 0.0
vt 7.0 0.0
vt 7.0 1.0
vt 6.0 1.0
vt 6.0 1.0
vt 7.0 1.0
vt 7.0 2.0
vt 6.0 2.0
vt 6.0 2.0
vt 7.0 2.0
vt 7.0 3.0
vt 6.0 3.0
vt 6.0 3.0
vt 7.0 3.0
vt 7.0 4.0
vt 6.0 4.0
vt 6.0 4.0
vt 7.0 4.0
vt 7.0 5.0
vt 6.0 5.0
vt 6.0 8.0
vt 7.0 8.0
vt 7.0 9.0
vt 6.0 9.0
vt 0.0625 0.9375
vt 0.0625 0.9375
vt 0.0625 0.9375
vt 0.0625 0.9375
vt 7.0 8.0
vt 8.0 8.0
vt 8.0 9.0
vt 7.0 9.0
vt 8.0 8.0
vt 9.0 8.0
vt 9.0 9.0
vt 8.0 9.0
vt 9.0 8.0
vt 10.0 8.0
vt 10.0 9.0
vt 9.0 9.0
vt 0.0625 0.9375
vt 0.0625 0.9375
vt 0.0625 0.9375
vt 0.0625 0.9375
vt 10.0 8.0
vt 11.0 8.0
vt 11.0 9.0
vt 10.0 9.0
vt 11.0 8.0
vt 12.0 8.0
vt 12.0 9.0
vt 11.0 9.0
vt 12.0 8.0
vt 13.0 8.0
vt 13.0 9.0
vt 12.0 9.0
vt 13.0 8.0
vt 14.0 8.0
vt 14.0 9.0
vt 13.0 9.0
vt 14.0 8.0
vt 15.0 8.0
vt 15.0 9.0
vt 14.0 9.0
vt 0.0625 0.9375
vt 0.0625 0.9375
vt 0.0625 0.9375
vt 0.0625 0.9375
vt 15.0 8.0
vt 16.0 8.0
vt 16.0 9.0
vt 15.0 9.0
vt 16.0 8.0
vt 16.0 9.0
vt 17.0 8.0
vt 17.0 9.0
vt 18.0 8.0
vt 18.0 9.0
vt 17.0 8.0
vt 17.0 9.0
vt 0.0625 0.9375
vt 0.0625 0.9375
vt 0.0625 0.9375
vt 0.0625 0.9375
vt 18.0 8.0
vt 18.0 9.0
vt 19.0 8.0
vt 19.0 9.0
vt 20.0 8.0
vt 20.0 9.0
vt 19.0 8.0
vt 19.0 9.0
vt 20.0 8.0
vt 20.0 9.0
vt 21.0 8.0
vt 21.0 9.0
vt 22.0 8.0
vt 22.0 9.0
vt 21.0 8.0
vt 21.0 9.0
vt 22.0 8.0
vt 22.0 9.0
vt 23.0 8.0
vt 23.0 9.0
vt 0.0625 0.9375
vt 0.0625 0.9375
vt 0.0625 0.9375
vt 0.0625 0.9375
vt 24.0 8.0
vt 24.0 9.0
vt 23.0 8.0
vt 23.0 9.0
vt 24.0 8.0
vt 24.0 9.0
vt 25.0 8.0
vt 25.0 9.0
vt 26.0 8.0
vt 26.0 9.0
vt 25.0 8.0
vt 25.0 9.0
vt 26.0 0.0
vt 26.0 1.0
vt 27.0 0.0
vt 27.0 1.0
vt 0.0625 0.9375
vt 0.0625 0.9375
vt 0.0625 0.9375
vt 0.0625 0.9375
vt 26.0 8.0
vt 26.0 9.0
vt 27.0 8.0
vt 27.0 9.0
vt 28.0 0.0
vt 28.0 1.0
vt 27.0 0.0
vt 27.0 1.0
vt 28.0 8.0
vt 28.0 9.0
vt 27.0 8.0
vt 27.0 9.0
vt 28.0 0.0
vt 28.0 1.0
vt 29.0 0.0
vt 29.0 1.0
vt 28.0 8.0
vt 28.0 9.0
vt 29.0 8.0
vt 29.0 9.0
vt 30.0 0.0
vt 30.0 1.0
vt 29.0 0.0
vt 29.0 1.0
vt 30.0 8.0
vt 30.0 9.0
vt 29.0 8.0
vt 29.0 9.0
vt 30.0 0.0
vt 30.0 1.0
vt 31.0 0.0
vt 31.0 1.0
vt 30.0 8.0
vt 30.0 9.0
vt 31.0 8.0
vt 31.0 9.0
vt 0.0625 0.9375
vt 0.0625 0.9375
vt 0.0625 0.9375
vt 0.0625 0.9375
vt 32.0 8.0
vt 32.0 9.0
vt 31.0 8.0
vt 31.0 9.0
vt 0.542969 -0.62793
vt 0.189453 -0.62793
vt 0.34375 -0.1875
vt 0.542969 -0.1875
vt 0.042969 -0.62793
vt 0.144531 -0.977539
vt -0.019531 -0.977539
vt 0.895508 -0.62793
vt 0.94043 -0.977539
vt 1.105469 -0.977539
vt 1.106445 -0.457031
vt 0.94043 -0.977539
vt 0.542969 -0.977539
vt 0.895508 -0.62793
vt 0.261719 -0.1875
vt 0.741211 -0.1875
vt 0.34375 -0.1875
vt 0.144531 -0.977539
vt 0.542969 -0.977539
vt 0.722656 -0.442383
vt 0.542969 0.0
vt 1.000977 -0.420898
vt 0.99707 -0.575195
vt 0.685547 -0.015625
vt 0.321289 -0.06543
vt 0.420898 -0.204102
vt 1.004883 -0.558594
vt 0.879883 -0.181641
vt 1.0 -0.990234
vt 0.5 0.570312
vt 0.0 -0.990234
vt 1.0 -0.990234
vt 0.0 -0.990234
vt 1.0 -0.990234
vt 0.0 -0.990234
vt 1.0 -0.990234
vt 0.0 -0.990234
vt 1.0 -0.990234
vt 0.0 -0.990234
vt 1.0 -0.990234
vt 0.0 -0.990234
vt 1.0 -0.990234
vt 0.0 -0.990234
vt 1.0 -0.990234
vt 0.0 -0.990234
vt 1.0 -0.990234
vt 0.0 -0.990234
vt 1.0 -0.990234
vt 0.0 -0.990234
vt 1.0 -0.990234
vt 0.0 -0.990234
vt 1.0 -0.990234
vt 0.0 -0.990234
vn 0.0 -0.0 1.0
vn 0.0 -0.0 1.0
vn 0.0 -0.0 1.0
vn 0.0 -0.0 1.0
vn 0.0 -0.0 1.0
vn 0.0 -0.0 1.0
vn 0.0 -0.0 1.0
vn 0.0 -0.0 1.0
vn 0.0 -0.0 1.0
vn 0.0 -0.0 1.0
vn 0.0 -0.0 1.0
vn 0.0 -0.0 1.0
vn 0.0 -0.0 1.0
vn 0.0 -0.0 1.0
vn 0.0 -0.0 1.0
vn 0.0 -0.0 1.0
vn 0.0 -0.0 1.0
vn 0.0 -0.0 1.0
vn 0.0 -0.0 1.0
vn 0.0 -0.0 1.0
vn 0.0 -0.0 1.0
vn 0.0 -0.0 1.0
vn 0.0 -0.0 1.0
vn 0.0 -0.0 1.0
vn 0.0 -0.0 1.0
vn 0.0 -0.0 1.0
vn 0.0 -0.0 1.0
vn 0.0 -0.0 1.0
vn 0.0 -0.0 1.0
vn 0.0 -0.0 1.0
vn 0.0 -0.0 1.0
vn 0.0 -0.0 1.0
vn 0.0 -0.0 1.0
vn 0.0 -0.0 1.0
vn 0.0 -0.0 1.0
vn 0.0 -0.0 1.0
vn 0.0 -0.0 1.0
vn 0.0 -0.0 1.0
vn 0.0 -0.0 1.0
vn 0.0 -0.0 1.0
vn 0.0 -0.0 1.0
vn 0.0 -0.0 1.0
vn 0.0 -0.0 1.0
vn 0.0 -0.0 1.0
vn 0.0 -0.0 1.0
vn 0.0 -0.0 1.0
vn 0.0 -0.0 1.0
vn 0.0 -0.0 1.0
vn 0.0 -0.0 1.0
vn 0.0 -0.0 1.0
vn 0.0 -0.0 1.0
vn 0.0 -0.0 1.0
vn 0.0 -0.0 1.0
vn 0.0 -0.0 1.0
vn 0.0 -0.0 1.0
vn 0.0 -0.0 1.0
vn 0.0 -0.0 1.0
vn 0.0 -0.0 1.0
vn 0.0 -0.0 1.0
vn 0.0 -0.0 1.0
vn 0.0 -0.0 1.0
vn 0.0 -0.0 1.0
vn 0.0 -0.0 1.0
vn 0.0 -0.0 1.0
vn 0.0 -0.0 1.0
vn 0.0 -0.0 1.0
vn 0.0 -0.0 1.0
vn 0.0 -0.0 1.0
vn 0.0 -0.0 1.0
vn 0.0 -0.0 1.0
vn 0.0 -0.0 1.0
vn -0.9371 -0.0 0.3492
vn -0.6885 -0.6193 0.3775
vn -0.7069 -0.5992 0.3759
vn -0.441 -0.882 0.1664
vn -0.7456 -0.6447 0.1685
vn -0.7372 -0.6542 0.1688
vn 0.4547 0.8794 0.1415
vn -0.7372 0.6542 0.1688
vn -0.9351 0.3228 0.1466
vn -0.7456 0.6447 0.1685
vn -0.4151 -0.8301 0.3724
vn -0.441 0.882 0.1664
vn -0.9351 -0.3228 0.1466
vn -0.8916 0.3078 0.3322
vn 0.7978 -0.5292 0.2889
vn 0.7037 -0.6624 0.2571
vn 0.7168 -0.6464 0.2615
vn 0.4405 -0.8822 0.1664
vn 0.8737 0.3226 0.3643
vn 0.8033 0.0069 0.5955
vn 0.726 -0.1431 0.6726
vn 0.2944 -0.5903 0.7516
vn -0.2951 -0.5902 0.7514
vn -0.5171 -0.4073 0.7528
vn -0.4814 -0.4417 0.7571
vn -0.6685 -0.2307 0.707
vn 0.8323 -0.1484 0.534
vn 0.6669 0.1958 0.719
vn 0.6255 0.2526 0.7382
vn 0.2821 0.58 0.7642
vn -0.2091 0.4183 0.8839
vn 0.8606 0.3364 0.3823
vn 0.4311 0.8069 0.4038
vn -0.6685 0.2307 0.707
vn 0.2695 0.9361 0.2259
vn 0.4142 -0.8305 0.3725
vn 0.934 0.3541 0.0472
vn 0.0 0.0 1.0
c 1.0 1.0 1.0
c 0.050980393 0.050980393 0.050980393
c 1.0 1.0 1.0
c 0.050980393 0.050980393 0.050980393
c 1.0 1.0 1.0
c 0.050980393 0.050980393 0.050980393
c 1.0 1.0 1.0
c 0.050980393 0.050980393 0.050980393
c 1.0 1.0 1.0
c 0.050980393 0.050980393 0.050980393
c 1.0 1.0 1.0
c 0.050980393 0.050980393 0.050980393
c 1.0 1.0 1.0
c 0.050980393 0.050980393 0.050980393
c 1.0 1.0 1.0
c 0.050980393 0.050980393 0.050980393
c 1.0 1.0 1.0
c 0.0 0.0 0.0
c 1.0 1.0 1.0
c 0.0 0.0 0.0
c 1.0 1.0 1.0
c 0.019607844 0.019607844 0.019607844
c 0.0 0.0 0.0
c 1.0 1.0 1.0
c 0.019607844 0.019607844 0.019607844
c 1.0 1.0 1.0
c 0.011764706 0.011764706 0.011764706
c 1.0 1.0 1.0
c 0.011764706 0.011764706 0.011764706
c 1.0 1.0 1.0
c 0.011764706 0.011764706 0.011764706
c 0.0 0.0 0.0
c 1.0 1.0 1.0
c 1.0 1.0 1.0
c 0.0 0.0 0.0
c 1.0 1.0 1.0
c 0.019607844 0.019607844 0.019607844
c 0.0 0.0 0.0
c 1.0 1.0 1.0
c 0.019607844 0.019607844 0.019607844
c 1.0 1.0 1.0
c 1.0 1.0 1.0
c 0.019607844 0.019607844 0.019607844
c 0.0 0.0 0.0
c 1.0 1.0 1.0
c 0.019607844 0.019607844 0.019607844
c 0.0 0.0 0.0
c 1.0 1.0 1.0
c 0.019607844 0.019607844 0.019607844
c 1.0 1.0 1.0
c 0.019607844 0.019607844 0.019607844
c 0.0 0.0 0.0
c 1.0 1.0 1.0
c 0.019607844 0.019607844 0.019607844
c 0.0 0.0 0.0
c 1.0 1.0 1.0
c 0.019607844 0.019607844 0.019607844
c 1.0 1.0 1.0
c 0.019607844 0.019607844 0.019607844
c 0.0 0.0 0.0
c 1.0 1.0 1.0
c 0.019607844 0.019607844 0.019607844
c 0.0 0.0 0.0
c 1.0 1.0 1.0
c 0.019607844 0.019607844 0.019607844
c 1.0 1.0 1.0
c 0.050980393 0.050980393 0.050980393
c 1.0 1.0 1.0
c 0.050980393 0.050980393 0.050980393
c 1.0 1.0 1.0
c 0.050980393 0.050980393 0.050980393
c 1.0 1.0 1.0
c 0.019607844 0.019607844 0.019607844
c 0.0 0.0 0.0
c 1.0 1.0 1.0
c 0.019607844 0.019607844 0.019607844
c 1.0 1.0 1.0
c 0.0 0.0 0.0
c 1.0 1.0 1.0
c 0.019607844 0.019607844 0.019607844
c 0.0 0.0 0.0
c 1.0 1.0 1.0
c 0.019607844 0.019607844 0.019607844
c 0.0 0.0 0.0
c 1.0 1.0 1.0
c 0.019607844 0.019607844 0.019607844
c 1.0 1.0 1.0
c 0.0 0.0 0.0
c 1.0 1.0 1.0
c 0.019607844 0.019607844 0.019607844
c 0.0 0.0 0.0
c 1.0 1.0 1.0
c 0.019607844 0.019607844 0.019607844
c 0.0 0.0 0.0
c 1.0 1.0 1.0
c 0.019607844 0.019607844 0.019607844
c 0.0 0.0 0.0
c 1.0 1.0 1.0
c 0.019607844 0.019607844 0.019607844
c 0.0 0.0 0.0
c 1.0 1.0 1.0
c 0.019607844 0.019607844 0.019607844
c 1.0 1.0 1.0
c 0.0 0.0 0.0
c 1.0 1.0 1.0
c 0.019607844 0.019607844 0.019607844
c 0.0 0.0 0.0
c 1.0 1.0 1.0
c 0.019607844 0.019607844 0.019607844
c 0.0 0.0 0.0
c 1.0 1.0 1.0
c 0.019607844 0.019607844 0.019607844
c 1.0 1.0 1.0
c 0.0 0.0 0.0
c 1.0 1.0 1.0
c 0.019607844 0.019607844 0.019607844
c 0.0 0.0 0.0
c 1.0 1.0 1.0
c 0.019607844 0.019607844 0.019607844
c 0.0 0.0 0.0
c 1.0 1.0 1.0
c 0.019607844 0.019607844 0.019607844
c 0.0 0.0 0.0
c 1.0 1.0 1.0
c 0.019607844 0.019607844 0.019607844
c 0.0 0.0 0.0
c 1.0 1.0 1.0
c 0.019607844 0.019607844 0.019607844
c 1.0 1.0 1.0
c 0.0 0.0 0.0
c 1.0 1.0 1.0
c 0.019607844 0.019607844 0.019607844
c 0.0 0.0 0.0
c 1.0 1.0 1.0
c 0.019607844 0.019607844 0.019607844
c 0.0 0.0 0.0
c 1.0 1.0 1.0
c 0.019607844 0.019607844 0.019607844
c 0.0 0.0 0.0
c 1.0 1.0 1.0
c 1.0 1.0 1.0
c 0.0 0.0 0.0
c 1.0 1.0 1.0
c 0.019607844 0.019607844 0.019607844
c 1.0 1.0 1.0
c 0.019607844 0.019607844 0.019607844
c 0.0 0.0 0.0
c 1.0 1.0 1.0
c 0.019607844 0.019607844 0.019607844
c 1.0 1.0 1.0
c 0.019607844 0.019607844 0.019607844
c 0.0 0.0 0.0
c 1.0 1.0 1.0
c 0.019607844 0.019607844 0.019607844
c 1.0 1.0 1.0
c 0.019607844 0.019607844 0.019607844
c 0.0 0.0 0.0
c 1.0 1.0 1.0
c 0.019607844 0.019607844 0.019607844
c 1.0 1.0 1.0
c 0.019607844 0.019607844 0.019607844
c 0.0 0.0 0.0
c 1.0 1.0 1.0
c 0.019607844 0.019607844 0.019607844
c 1.0 1.0 1.0
c 0.0 0.0 0.0
c 1.0 1.0 1.0
c 0.019607844 0.019607844 0.019607844
c 1.0 1.0 1.0
usemtl gake_michi01
s off
f 1/1/1/1 2/2/1/2 3/3/1/2 4/4/1/1
f 5/5/2/3 6/6/2/4 7/7/2/4 8/8/2/3
f 9/9/3/5 10/10/3/6 11/11/3/6 12/12/3/5
f 13/13/4/7 14/14/4/8 15/15/4/8 16/16/4/7
f 17/17/5/9 18/18/5/10 19/19/5/10 20/20/5/9
f 21/21/6/11 22/22/6/12 23/23/6/12 24/24/6/11
f 25/25/7/13 26/26/7/14 27/27/7/14 28/28/7/13
f 29/29/8/15 30/30/8/16 31/31/8/16 32/32/8/15
f 33/33/9/17 34/34/9/18 35/35/9/17 36/36/9/17
f 41/41/11/22 42/42/11/20 43/43/11/21 44/44/11/21
f 45/45/12/25 46/46/12/23 47/47/12/24 48/48/12/25
f 49/49/13/27 50/50/13/26 51/51/13/26 52/52/13/27
f 53/53/14/29 54/54/14/28 55/55/14/28 56/56/14/29
f 57/57/15/31 58/58/15/30 59/59/15/30 60/60/15/31
f 61/61/16/32 62/62/16/33 63/63/16/32 64/64/16/32
f 69/69/18/37 70/70/18/35 71/71/18/36 72/72/18/36
f 73/73/19/40 74/74/19/38 75/75/19/39 76/76/19/39
f 81/81/21/42 82/82/21/42 83/83/21/43 84/84/21/43
f 85/85/22/46 86/86/22/44 87/87/22/45 88/88/22/45
f 89/89/23/49 90/90/23/47 91/91/23/48 92/92/23/48
f 93/93/24/50 94/94/24/50 95/95/24/51 96/96/24/51
f 97/97/25/54 98/98/25/52 99/99/25/53 100/100/25/53
f 101/101/26/57 102/102/26/55 103/103/26/56 104/104/26/56
f 105/105/27/58 106/106/27/58 107/107/27/59 108/108/27/59
f 109/109/28/62 110/110/28/60 111/111/28/61 112/112/28/61
f 113/113/29/65 114/114/29/63 115/115/29/65 116/116/29/64
f 117/117/30/66 118/118/30/67 119/119/30/67 120/120/30/66
f 121/121/31/68 122/122/31/69 123/123/31/69 124/124/31/68
f 125/125/32/70 126/126/32/71 127/127/32/71 128/128/32/70
f 129/129/33/72 130/130/33/73 131/131/33/73 132/132/33/73
f 133/133/34/76 134/134/34/74 135/135/34/75 136/136/34/75
f 141/141/36/80 142/142/36/78 143/143/36/79 144/144/36/79
f 145/145/37/83 146/146/37/81 147/147/37/82 148/148/37/82
f 149/149/38/86 150/150/38/84 151/151/38/85 152/152/38/85
f 157/157/40/90 158/158/40/88 159/159/40/89 160/160/40/89
f 161/161/41/93 162/162/41/91 163/163/41/92 164/164/41/92
f 165/165/42/96 166/166/42/94 167/167/42/95 168/168/42/95
f 169/169/43/99 170/170/43/97 171/171/43/98 172/172/43/98
f 173/173/44/102 174/174/44/100 175/175/44/101 176/176/44/101
f 181/181/46/106 182/182/46/104 183/183/46/105 184/184/46/105
f 185/185/47/109 186/187/47/107 187/188/47/108 188/186/47/108
f 189/191/48/112 190/189/48/110 191/190/48/111 192/192/48/111
f 197/197/50/116 198/199/50/114 199/200/50/115 200/198/50/115
f 201/203/51/119 202/201/51/117 203/202/51/118 204/204/51/118
f 205/205/52/122 206/207/52/120 207/208/52/121 208/206/52/121
f 209/211/53/125 210/209/53/123 211/210/53/124 212/212/53/124
f 213/213/54/128 214/215/54/126 215/216/54/127 216/214/54/127
f 221/223/56/132 222/221/56/130 223/222/56/131 224/224/56/131
f 225/225/57/135 226/227/57/133 227/228/57/134 228/226/57/134
f 229/231/58/138 230/229/58/136 231/230/58/137 232/232/58/137
f 233/233/59/139 234/235/59/140 235/236/59/139 236/234/59/139
f 241/241/61/144 242/243/61/142 243/244/61/143 244/242/61/143
f 245/247/62/145 246/245/62/145 247/246/62/146 248/248/62/146
f 249/251/63/149 250/249/63/147 251/250/63/148 252/252/63/148
f 253/253/64/150 254/255/64/150 255/256/64/151 256/254/64/151
f 257/257/65/154 258/259/65/152 259/260/65/153 260/258/65/153
f 261/263/66/155 262/261/66/155 263/262/66/156 264/264/66/156
f 265/267/67/159 266/265/67/157 267/266/67/158 268/268/67/158
f 269/269/68/160 270/271/68/161 271/272/68/161 272/270/68/161
f 273/273/69/164 274/275/69/162 275/276/69/163 276/274/69/163
f 281/283/71/168 282/281/71/166 283/282/71/167 284/284/71/167
usemtl gake_michi
s off
f 77/77/20/41 78/78/20/41 79/79/20/41 80/80/20/41
usemtl d0gake_heri
s off
f 37/37/10/19 38/38/10/19 39/39/10/19 40/40/10/19
f 65/65/17/34 66/66/17/34 67/67/17/34 68/68/17/34
f 137/137/35/77 138/138/35/77 139/139/35/77 140/140/35/77
f 153/153/39/87 154/154/39/87 155/155/39/87 156/156/39/87
f 177/177/45/103 178/178/45/103 179/179/45/103 180/180/45/103
f 193/193/49/113 194/194/49/113 195/195/49/113 196/196/49/113
f 217/217/55/129 218/218/55/129 219/219/55/129 220/220/55/129
f 237/237/60/141 238/238/60/141 239/239/60/141 240/240/60/141
f 277/277/70/165 278/278/70/165 279/279/70/165 280/280/70/165
usemtl ga_s01a_TRANS
s off
f 306/313/109/169 307/314/109/169 308/315/109/169
f 308/316/109/169 307/314/109/169 309/317/109/169
f 309/318/109/169 307/314/109/169 310/319/109/169
f 310/320/109/169 307/314/109/169 311/321/109/169
f 311/322/109/169 307/314/109/169 312/323/109/169
f 312/324/109/169 307/314/109/169 313/325/109/169
f 313/326/109/169 307/314/109/169 314/327/109/169
f 314/328/109/169 307/314/109/169 315/329/109/169
f 315/330/109/169 307/314/109/169 316/331/109/169
f 316/332/109/169 307/314/109/169 317/333/109/169
f 317/334/109/169 307/314/109/169 318/335/109/169
f 318/336/109/169 307/314/109/169 306/337/109/169
usemtl cliff02
s off
f 285/285/72/169 286/286/73/169 287/287/74/169 288/288/72/169
f 289/289/75/169 286/286/76/169 290/290/77/169 291/291/75/169
f 292/292/78/169 293/293/78/169 294/294/78/169 295/295/78/169
f 296/296/79/169 297/297/80/169 285/285/80/169 298/298/81/169
f 286/286/73/169 289/289/82/169 299/299/82/169 287/287/74/169
f 294/294/83/169 296/296/79/169 298/298/81/169 295/295/83/169
f 286/286/76/169 285/285/84/169 297/297/84/169 290/290/77/169
f 298/298/85/169 285/285/72/169 288/288/72/169 300/300/85/169
f 301/301/86/169 289/289/87/169 302/302/88/169 303/303/86/169
f 302/302/88/169 289/289/87/169 291/291/89/169
f 304/304/90/169 305/305/91/169 301/301/92/169
f 305/305/91/169 299/299/93/169 301/301/92/169
f 299/299/94/169 305/305/95/169 287/287/96/169
f 305/305/95/169 288/288/97/169 287/287/96/169
f 303/303/98/169 292/292/99/169 304/304/100/169
f 292/292/99/169 295/295/101/169 304/304/100/169
f 295/306/102/169 298/307/102/169 304/304/102/169
f 303/303/103/169 304/304/103/169 301/301/103/169
f 304/308/104/169 300/309/104/169 305/310/104/169
f 300/300/105/169 288/288/105/169 305/305/105/169
f 304/304/106/169 298/311/106/169 300/312/106/169
f 289/289/107/169 301/301/107/169 299/299/107/169
f 303/303/108/169 293/293/108/169 292/292/108/169
