mtllib Navel-Cave-East-1_00_00.mtl
o map
v -16.0 -16.0 6.000002
v -8.0 -16.0 6.000002
v -8.0 -8.0 6.000003
v -16.0 -8.0 6.000003
v -16.0 -8.0 6.000002
v -8.0 -8.0 6.000002
v -8.0 -7.0 6.000003
v -16.0 -7.0 6.000003
v -8.0 -16.0 6.000002
v 0.0 -16.0 6.000002
v 0.0 -8.0 6.000003
v -8.0 -8.0 6.000003
v -8.0 -8.0 6.000002
v 0.0 -8.0 6.000002
v 0.0 -7.0 6.000003
v -8.0 -7.0 6.000003
v 0.0 -16.0 6.000002
v 8.0 -16.0 6.000002
v 8.0 -8.0 6.000003
v 0.0 -8.0 6.000003
v 0.0 -8.0 6.000002
v 8.0 -8.0 6.000002
v 8.0 -7.0 6.000003
v 0.0 -7.0 6.000003
v 8.0 -16.0 6.000002
v 15.0 -16.0 6.000002
v 15.0 -8.0 6.000003
v 8.0 -8.0 6.000003
v 8.0 -8.0 6.000002
v 15.0 -8.0 6.000002
v 15.0 -7.0 6.000003
v 8.0 -7.0 6.000003
v 15.0 -16.0 6.0
v 16.0 -16.0 6.0
v 16.0 -15.0 6.0
v 15.0 -15.0 6.0
v 15.0 -15.0 6.0
v 16.0 -15.0 6.0
v 16.0 -14.0 6.0
v 15.0 -14.0 6.0
v 15.0 -14.0 6.0
v 16.0 -14.0 6.0
v 16.0 -13.0 6.0
v 15.0 -13.0 6.0
v 15.0 -13.0 6.0
v 16.0 -13.0 6.0
v 16.0 -12.0 6.0
v 15.0 -12.0 6.0
v 15.0 -12.0 6.0
v 16.0 -12.0 6.0
v 16.0 -11.0 6.0
v 15.0 -11.0 6.0
v 15.0 -11.0 6.0
v 16.0 -11.0 6.0
v 16.0 -10.0 6.0
v 15.0 -10.0 6.0
v 15.0 -10.0 6.0
v 16.0 -10.0 6.0
v 16.0 -9.0 6.0
v 15.0 -9.0 6.0
v 15.0 -9.0 6.0
v 16.0 -9.0 6.0
v 16.0 -8.0 6.0
v 15.0 -8.0 6.0
v 15.0 -8.0 6.0
v 16.0 -8.0 6.0
v 16.0 -7.0 6.0
v 15.0 -7.0 6.0
vt 0.0625 0.9375
vt 0.0625 0.9375
vt 0.0625 0.9375
vt 0.0625 0.9375
vt 0.0625 0.9375
vt 0.0625 0.9375
vt 0.0625 0.9375
vt 0.0625 0.9375
vt 0.0625 0.9375
vt 0.0625 0.9375
vt 0.0625 0.9375
vt 0.0625 0.9375
vt 0.0625 0.9375
vt 0.0625 0.9375
vt 0.0625 0.9375
vt 0.0625 0.9375
vt 0.0625 0.9375
vt 0.0625 0.9375
vt 0.0625 0.9375
vt 0.0625 0.9375
vt 0.0625 0.9375
vt 0.0625 0.9375
vt 0.0625 0.9375
vt 0.0625 0.9375
vt 0.0625 0.9375
vt 0.0625 0.9375
vt 0.0625 0.9375
vt 0.0625 0.9375
vt 0.0625 0.9375
vt 0.0625 0.9375
vt 0.0625 0.9375
vt 0.0625 0.9375
vt 32.0 0.0
vt 32.0 1.0
vt 31.0 0.0
vt 31.0 1.0
vt 32.0 1.0
vt 32.0 2.0
vt 31.0 1.0
vt 31.0 2.0
vt 32.0 2.0
vt 32.0 3.0
vt 31.0 2.0
vt 31.0 3.0
vt 32.0 3.0
vt 32.0 4.0
vt 31.0 3.0
vt 31.0 4.0
vt 32.0 4.0
vt 32.0 5.0
vt 31.0 4.0
vt 31.0 5.0
vt 32.0 5.0
vt 32.0 6.0
vt 31.0 5.0
vt 31.0 6.0
vt 32.0 6.0
vt 32.0 7.0
vt 31.0 6.0
vt 31.0 7.0
vt 32.0 7.0
vt 32.0 8.0
vt 31.0 7.0
vt 31.0 8.0
vt 32.0 8.0
vt 32.0 9.0
vt 31.0 8.0
vt 31.0 9.0
vn 0.0 -0.0 1.0
vn 0.0 -0.0 1.0
vn 0.0 -0.0 1.0
vn 0.0 -0.0 1.0
vn 0.0 -0.0 1.0
vn 0.0 -0.0 1.0
vn 0.0 -0.0 1.0
vn 0.0 -0.0 1.0
vn 0.0 -0.0 1.0
vn 0.0 -0.0 1.0
vn 0.0 -0.0 1.0
vn 0.0 -0.0 1.0
vn 0.0 -0.0 1.0
vn 0.0 -0.0 1.0
vn 0.0 -0.0 1.0
vn 0.0 -0.0 1.0
vn 0.0 -0.0 1.0
c 1.0 1.0 1.0
c 1.0 1.0 1.0
c 1.0 1.0 1.0
c 1.0 1.0 1.0
c 1.0 1.0 1.0
c 1.0 1.0 1.0
c 1.0 1.0 1.0
c 1.0 1.0 1.0
c 1.0 1.0 1.0
c 0.011764706 0.011764706 0.011764706
c 1.0 1.0 1.0
c 0.011764706 0.011764706 0.011764706
c 1.0 1.0 1.0
c 0.011764706 0.011764706 0.011764706
c 1.0 1.0 1.0
c 0.011764706 0.011764706 0.011764706
c 1.0 1.0 1.0
c 0.011764706 0.011764706 0.011764706
c 1.0 1.0 1.0
c 0.011764706 0.011764706 0.011764706
c 1.0 1.0 1.0
c 0.011764706 0.011764706 0.011764706
c 1.0 1.0 1.0
c 0.011764706 0.011764706 0.011764706
c 1.0 1.0 1.0
c 0.011764706 0.011764706 0.011764706
usemtl gake_michi01
s off
f 33/35/9/10 34/33/9/9 35/34/9/9 36/36/9/10
f 37/39/10/12 38/37/10/11 39/38/10/11 40/40/10/12
f 41/43/11/14 42/41/11/13 43/42/11/13 44/44/11/14
f 45/47/12/16 46/45/12/15 47/46/12/15 48/48/12/16
f 49/51/13/18 50/49/13/17 51/50/13/17 52/52/13/18
f 53/55/14/20 54/53/14/19 55/54/14/19 56/56/14/20
f 57/59/15/22 58/57/15/21 59/58/15/21 60/60/15/22
f 61/63/16/24 62/61/16/23 63/62/16/23 64/64/16/24
f 65/67/17/26 66/65/17/25 67/66/17/25 68/68/17/26
usemtl d0gake_heri
s off
f 1/1/1/1 2/2/1/1 3/3/1/1 4/4/1/1
f 5/5/2/2 6/6/2/2 7/7/2/2 8/8/2/2
f 9/9/3/3 10/10/3/3 11/11/3/3 12/12/3/3
f 13/13/4/4 14/14/4/4 15/15/4/4 16/16/4/4
f 17/17/5/5 18/18/5/5 19/19/5/5 20/20/5/5
f 21/21/6/6 22/22/6/6 23/23/6/6 24/24/6/6
f 25/25/7/7 26/26/7/7 27/27/7/7 28/28/7/7
f 29/29/8/8 30/30/8/8 31/31/8/8 32/32/8/8
