# Blender 4.0.0
# www.blender.org
mtllib GALHQ9-1.mtl
o m_dun2605_01_00c
v 112.000000 45.999992 -102.000000
v 80.000000 45.999992 -102.000000
v 80.000000 -2.000008 -102.000000
v 112.000000 -2.000008 -102.000000
v -96.000000 -1.000016 -213.000000
v -224.000000 -1.000016 -213.000000
v -224.000000 -1.000011 -149.000000
v -96.000000 -1.000011 -149.000000
v 216.000000 29.999985 -211.000000
v 248.000000 29.999985 -211.000000
v 248.000000 45.999985 -212.000000
v 216.000000 45.999985 -212.000000
v -80.000000 29.999992 -99.000000
v -48.000000 29.999992 -99.000000
v -48.000000 45.999992 -100.000000
v -80.000000 45.999992 -100.000000
v -80.000000 29.999985 -211.000000
v -48.000000 29.999985 -211.000000
v -48.000000 45.999985 -212.000000
v -80.000000 45.999985 -212.000000
v 216.000000 12.999984 -213.000000
v 248.000000 12.999984 -213.000000
v 248.000000 44.999985 -213.000000
v 216.000000 44.999985 -213.000000
v -80.000000 12.999984 -213.000000
v -48.000000 12.999984 -213.000000
v -48.000000 44.999985 -213.000000
v -80.000000 44.999985 -213.000000
v -80.000000 12.999992 -101.000000
v -48.000000 12.999992 -101.000000
v -48.000000 44.999992 -101.000000
v -80.000000 44.999992 -101.000000
v -176.437500 45.999992 -102.000000
v -112.000000 45.999989 -128.000000
v -208.000000 45.999992 -102.000000
v -256.000000 45.999989 -128.000000
v -208.000000 46.000000 -6.000003
v -256.000000 46.000000 -6.000003
v -176.437500 45.999992 -102.000000
v -160.000000 45.999992 -102.000000
v -112.000000 45.999989 -128.000000
v -112.000000 45.999992 -102.000000
v 112.000000 46.000004 63.999996
v 80.000000 46.000000 -6.000003
v -112.000000 46.000000 -6.000003
v -112.000000 46.000004 63.999996
v 80.000000 45.999992 -102.000000
v 80.000000 45.999989 -128.000000
v -112.000000 45.999989 -128.000000
v -112.000000 45.999992 -102.000000
v 256.000000 45.999992 -112.000000
v 176.000000 45.999992 -112.000000
v 176.000000 45.999992 -86.000000
v 256.000000 45.999992 -86.000000
v 112.000000 45.999985 -214.000000
v 80.000000 45.999985 -198.000000
v 80.000000 45.999989 -128.000000
v 112.000000 45.999992 -102.000000
v 256.000000 46.000004 63.999996
v 256.000000 46.000000 -6.000003
v 112.000000 46.000000 -6.000003
v 112.000000 46.000004 63.999996
v 112.000000 45.999985 -214.000000
v 80.000000 45.999985 -214.000000
v 80.000000 45.999985 -198.000000
v 112.000000 46.000004 63.999996
v 112.000000 46.000000 -6.000003
v 80.000000 46.000000 -6.000003
v 112.000000 45.999992 -102.000000
v 80.000000 45.999989 -128.000000
v 80.000000 45.999992 -102.000000
v 80.000000 -2.000008 -102.000000
v 80.000000 45.999992 -102.000000
v -112.000000 -2.000008 -102.000000
v -112.000000 45.999992 -102.000000
v -160.000000 -2.000008 -102.000000
v -160.000000 45.999992 -102.000000
v -176.312500 -2.000008 -102.000000
v -176.437500 45.999992 -102.000000
v -208.000000 -2.000008 -102.000000
v -208.000000 45.999992 -102.000000
v 112.000000 45.999985 -214.000000
v 112.000000 -2.000016 -214.000000
v 144.000000 45.999985 -214.000000
v 144.000000 -2.000016 -214.000000
v 176.000000 45.999985 -214.000000
v 176.000000 -2.000016 -214.000000
v 256.000000 45.999985 -214.000000
v 256.000000 -2.000016 -214.000000
v 80.000000 -2.000016 -214.000000
v 80.000000 45.999985 -214.000000
v 48.000000 -2.000016 -214.000000
v 48.000000 45.999985 -214.000000
v -112.000000 -2.000016 -214.000000
v -112.000000 45.999985 -214.000000
v -256.000000 -2.000016 -214.000000
v -256.000000 45.999985 -214.000000
v -112.000000 -2.000000 -6.000000
v -112.000000 46.000000 -6.000003
v 80.000000 -2.000000 -6.000000
v 80.000000 46.000000 -6.000003
v 112.000000 -2.000000 -6.000000
v 112.000000 46.000000 -6.000003
v 80.000000 45.999985 -214.000000
v 80.000000 -2.000016 -214.000000
v 80.000000 45.999985 -198.000000
v 80.000000 -2.000015 -198.046875
v 80.000000 45.999989 -128.000000
v 80.000000 -2.000010 -128.000000
v 256.000000 -1.999995 64.000000
v 256.000000 46.000004 63.999996
v 112.000000 -1.999995 64.000000
v 112.000000 46.000004 63.999996
v -112.000000 -1.999995 64.000000
v -112.000000 46.000004 63.999996
v 80.000000 45.999989 -128.000000
v 80.000000 -2.000010 -128.000000
v -112.000000 45.999989 -128.000000
v -112.000000 -2.000010 -128.000000
v -256.000000 45.999989 -128.000000
v -256.000000 -2.000010 -128.000000
v 176.000000 -2.000008 -112.000000
v 176.000000 45.999992 -112.000000
v 256.000000 45.999992 -112.000000
v 256.000000 -2.000008 -112.000000
v 176.000000 45.999992 -86.000000
v 176.000000 45.999992 -112.000000
v 176.000000 -2.000008 -112.000000
v 176.000000 -2.000006 -86.000000
v 256.000000 -2.000006 -86.000000
v 256.000000 45.999992 -86.000000
v 176.000000 45.999992 -86.000000
v 176.000000 -2.000006 -86.000000
v 176.000000 -2.000000 -6.000000
v 112.000000 46.000000 -6.000003
v 256.000000 46.000000 -6.000003
v 184.000000 -2.000000 -6.000000
v -112.000000 -1.999995 64.000000
v -112.000000 46.000004 63.999996
v -112.000000 46.000000 -6.000003
v -112.000000 -2.000000 -6.000000
v 112.000000 45.999985 -214.000000
v 112.000000 45.999992 -102.000000
v 112.000000 -2.000008 -102.000000
v 112.000000 -2.000016 -214.000000
v -256.000000 46.000000 -6.000003
v -256.000000 45.999989 -128.000000
v -256.000000 -2.000010 -128.000000
v -256.000000 -2.000000 -6.000000
v -208.000000 -2.000000 -6.000000
v -208.000000 46.000000 -6.000003
v -256.000000 46.000000 -6.000003
v -256.000000 -2.000000 -6.000000
v -208.000000 -2.000008 -102.000000
v -208.000000 45.999992 -102.000000
v -208.000000 46.000000 -6.000003
v -208.000000 -2.000000 -6.000000
v 256.000000 46.000000 -6.000003
v 256.000000 -2.000000 -6.000000
v 184.000000 -2.000000 -6.000000
v 112.000000 -2.000000 -6.000000
v 112.000000 46.000000 -6.000003
v 176.000000 -2.000000 -6.000000
v -176.312500 -2.000008 -102.000000
v -200.000000 -2.000007 -94.000000
v -160.000000 -2.000008 -102.000000
v -160.000000 -2.000007 -94.000000
v -112.000000 -2.000008 -102.000000
v -112.000000 -2.000007 -94.000000
v 80.000000 -2.000008 -102.000000
v 80.000000 -2.000007 -94.000000
v 112.000000 -2.000008 -102.000000
v 112.000000 -2.000007 -94.000000
v 119.984375 -2.000008 -102.000000
v 120.000000 -2.000007 -94.000000
v -200.000000 -2.000007 -94.000000
v -200.000000 -2.000000 -6.000000
v -160.000000 -2.000007 -94.000000
v -160.000000 -2.000000 -6.000000
v -112.000000 -2.000007 -94.000000
v -112.000000 -2.000000 -6.000000
v 80.000000 -2.000007 -94.000000
v 80.000000 -2.000000 -6.000000
v 112.000000 -2.000007 -94.000000
v 112.000000 -2.000000 -6.000000
v 120.000000 -2.000007 -94.000000
v 176.000000 -2.000000 -6.000000
v -192.000000 -1.999998 32.000000
v -192.000000 -2.000000 0.000000
v -200.000000 -1.999995 64.000000
v -200.000000 -2.000000 2.000000
v -208.000000 -1.999995 64.000000
v -208.000000 -2.000000 2.000000
v -256.000000 -1.999995 64.000000
v -256.000000 -2.000000 2.000000
v -128.000000 -1.999995 64.000000
v -137.000000 -1.999996 55.000000
v -160.000000 -1.999995 64.000000
v -160.000000 -1.999995 61.000000
v -192.000000 -1.999995 64.000000
v -183.000000 -1.999996 55.000000
v 120.000000 -2.000007 -94.000000
v 176.000000 -2.000006 -86.000000
v 119.984375 -2.000008 -102.000000
v 176.000000 -2.000008 -112.000000
v 120.000000 -2.000015 -198.000000
v 176.000000 -2.000015 -198.000000
v 80.000000 -2.000015 -198.046875
v 48.000000 -2.000016 -214.000000
v -112.000000 -2.000015 -198.031235
v -112.000000 -2.000016 -214.000000
v -256.000000 -2.000015 -198.062500
v -256.000000 -2.000016 -214.000000
v -200.000000 -2.000007 -94.000000
v -208.000000 -2.000008 -102.000000
v -200.000000 -2.000000 -6.000000
v -208.000000 -2.000000 -6.000000
v -200.000000 -2.000000 2.000000
v -208.000000 -2.000000 2.000000
v 80.000000 -2.000010 -128.000000
v 80.000000 -2.000015 -198.046875
v -112.000000 -2.000010 -128.000000
v -112.000000 -2.000015 -198.031235
v -256.000000 -2.000010 -128.000000
v -256.000000 -2.000015 -198.062500
v 144.000000 -2.000016 -214.000000
v 120.000000 -2.000015 -198.000000
v 176.000000 -2.000016 -214.000000
v 176.000000 -2.000015 -198.000000
v 256.000000 -2.000016 -214.000000
v 256.000000 -2.000015 -198.000000
v -112.000000 -2.000000 -6.000000
v -160.000000 -2.000000 -6.000000
v -128.000000 -2.000000 0.000000
v -160.000000 -2.000000 0.000000
v -137.000000 -1.999999 9.000000
v -160.000000 -1.999998 32.000000
v -128.000000 -1.999998 32.000000
v -137.000000 -1.999996 55.000000
v -128.000000 -1.999995 64.000000
v -160.000000 -2.000000 -6.000000
v -192.000000 -2.000000 0.000000
v -160.000000 -2.000000 0.000000
v -183.000000 -1.999999 9.000000
v -160.000000 -1.999998 32.000000
v -192.000000 -1.999998 32.000000
v -183.000000 -1.999996 55.000000
v -192.000000 -1.999995 64.000000
v -200.000000 -2.000000 2.000000
v -192.000000 -2.000000 0.000000
v -200.000000 -2.000000 -6.000000
v -160.000000 -2.000000 -6.000000
v -183.000000 -1.999996 55.000000
v -160.000000 -1.999995 61.000000
v -160.000000 -1.999998 32.000000
v -137.000000 -1.999996 55.000000
v 184.000000 -2.000000 -6.000000
v 256.000000 -2.000000 -6.000000
v 184.000000 -2.000006 -78.000000
v 256.000000 -2.000006 -78.000000
v -112.000000 -1.999995 64.000000
v -112.000000 -2.000000 -6.000000
v -128.000000 -2.000000 0.000000
v -128.000000 -1.999998 32.000000
v 176.000000 -2.000000 -6.000000
v 184.000000 -2.000000 -6.000000
v 184.000000 -2.000006 -78.000000
v 176.000000 -2.000006 -86.000000
v 119.984375 -2.000008 -102.000000
v 120.000000 -2.000015 -198.000000
v 112.000000 -2.000016 -214.000000
v 112.000000 -2.000008 -102.000000
v 256.000000 -2.000015 -198.000000
v 176.000000 -2.000015 -198.000000
v 176.000000 -2.000008 -112.000000
v 256.000000 -2.000008 -112.000000
v 256.000000 -2.000006 -86.000000
v 176.000000 -2.000006 -86.000000
v 184.000000 -2.000006 -78.000000
v 256.000000 -2.000006 -78.000000
v -208.000000 -2.000000 2.000000
v -208.000000 -2.000000 -6.000000
v -256.000000 -2.000000 -6.000000
v -256.000000 -2.000000 2.000000
v 112.000000 -2.000016 -214.000000
v 120.000000 -2.000015 -198.000000
v 144.000000 -2.000016 -214.000000
v 80.000000 -2.000016 -214.000000
v 48.000000 -2.000016 -214.000000
v 80.000000 -2.000015 -198.046875
v -128.000000 -1.999998 32.000000
v -128.000000 -2.000000 0.000000
v -137.000000 -1.999999 9.000000
v -192.000000 -1.999998 32.000000
v -183.000000 -1.999999 9.000000
v -192.000000 -2.000000 0.000000
v 120.000000 -2.000007 -94.000000
v 176.000000 -2.000000 -6.000000
v 176.000000 -2.000006 -86.000000
v -112.000000 -1.999995 64.000000
v -128.000000 -1.999998 32.000000
v -128.000000 -1.999995 64.000000
v -208.000000 -2.000008 -102.000000
v -200.000000 -2.000007 -94.000000
v -176.312500 -2.000008 -102.000000
v -200.000000 -1.999995 64.000000
v -192.000000 -1.999995 64.000000
v -192.000000 -1.999998 32.000000
vn -0.0000 -0.0000 1.0000
vn -0.0000 1.0000 -0.0000
vn -0.0000 0.0624 0.9981
vn -0.0000 -0.0000 -1.0000
vn -1.0000 -0.0000 -0.0000
vn 1.0000 -0.0000 -0.0000
vt 19.000000 17.000000
vt 18.000000 17.000000
vt 18.000000 16.000000
vt 19.000000 16.000000
vt 0.000000 0.000000
vt 1.000000 0.000000
vt 1.000000 1.000000
vt 0.000000 1.000000
vt 17.500000 16.000000
vt 17.500000 17.000000
vt 11.500000 17.000000
vt 11.500000 16.000000
vt 10.000000 17.000000
vt 10.000000 16.000000
vt 9.486328 17.000000
vt 9.490234 16.000000
vt 8.500000 17.000000
vt 8.500000 16.000000
vt 18.500000 17.000000
vt 18.500000 16.000000
vt 19.500000 16.000000
vt 19.500000 17.000000
vt 20.500000 16.000000
vt 20.500000 17.000000
vt 23.000000 16.000000
vt 23.000000 17.000000
vt 16.500000 17.000000
vt 16.500000 16.000000
vt 7.000000 17.000000
vt 7.000000 16.000000
vt 20.750000 16.000000
vt 3.980469 23.375002
vt 2.500000 22.875002
vt 5.000000 22.875002
vt 5.000000 23.375002
vt 8.000000 22.875002
vt 8.000000 23.375002
vt 20.000000 22.875002
vt 20.000000 23.375002
vt 22.000000 22.875002
vt 22.000000 23.375002
vt 22.500000 22.875002
vt 22.500000 23.375002
vt 2.500000 17.375000
vt 5.000000 17.375000
vt 8.000000 17.375000
vt 20.000000 17.375000
vt 22.000000 17.375000
vt 26.000000 17.375000
vt 3.000000 15.000000
vt 3.000000 17.000000
vt 2.500000 16.875000
vt 2.500000 13.000000
vt 2.000000 16.875000
vt 2.000000 13.000000
vt -1.000000 16.875000
vt -1.000000 13.000000
vt 7.000000 13.000000
vt 6.437500 13.562500
vt 5.000000 13.187500
vt 5.000000 13.000000
vt 3.562500 13.562500
vt 3.000000 13.000000
vt 26.000000 22.375002
vt 26.000000 24.000000
vt 26.000000 29.375002
vt 22.500000 29.375002
vt 20.000000 29.378906
vt 18.000000 30.375002
vt 8.000000 30.375002
vt 8.000000 29.375002
vt -1.000000 30.375002
vt -1.000000 29.378906
vt 2.000000 23.375002
vt 2.000000 17.375000
vt 20.000000 25.000000
vt 8.000000 25.000000
vt -1.000000 25.000000
vt 24.000000 30.375002
vt 26.000000 30.375002
vt 31.000000 29.375002
vt 31.000000 30.375002
vt 5.000000 17.000000
vt 6.437500 16.437500
vt 5.000000 15.000000
vt 7.000000 15.000000
vt 3.562500 16.437500
vt 26.500000 17.375000
vt 31.000000 17.375000
vt 26.500000 21.875002
vt 31.000000 21.875002
vt 8.000000 13.000000
vt 22.000000 30.375002
vt 31.000000 24.000000
vt 31.000000 22.375002
vt -1.000000 17.375000
vt 20.000000 30.375002
s 1
usemtl m_dun26_05_lm4
f 1/1/1 2/2/1 3/3/1 4/4/1
usemtl m_dun26_22_lm3
f 5/5/2 6/6/2 7/7/2 8/8/2
usemtl m_dun26_07_lm4
f 9/5/3 10/6/3 11/7/3 12/8/3
f 13/5/3 14/6/3 15/7/3 16/8/3
f 17/5/3 18/6/3 19/7/3 20/8/3
usemtl m_dun26_08_lm4
f 21/5/1 22/6/1 23/7/1 24/8/1
f 25/5/1 26/6/1 27/7/1 28/8/1
f 29/5/1 30/6/1 31/7/1 32/8/1
usemtl lambert1
f 33/5/2 34/5/2 36/5/2 35/5/2
f 35/5/2 36/5/2 38/5/2 37/5/2
f 39/5/2 40/5/2 41/5/2
f 40/5/2 42/5/2 41/5/2
f 43/5/2 44/5/2 45/5/2 46/5/2
f 47/5/2 48/5/2 49/5/2 50/5/2
f 51/5/2 52/5/2 53/5/2 54/5/2
f 55/5/2 56/5/2 57/5/2 58/5/2
f 59/5/2 60/5/2 61/5/2 62/5/2
f 63/5/2 64/5/2 65/5/2
f 66/5/2 67/5/2 68/5/2
f 69/5/2 70/5/2 71/5/2
usemtl m_dun26_06_lm4
f 72/9/1 73/10/1 75/11/1 74/12/1
f 74/12/1 75/11/1 77/13/1 76/14/1
f 76/14/1 77/13/1 79/15/1 78/16/1
f 78/16/1 79/15/1 81/17/1 80/18/1
f 82/19/1 83/20/1 85/21/1 84/22/1
f 84/22/1 85/21/1 87/23/1 86/24/1
f 86/24/1 87/23/1 89/25/1 88/26/1
f 90/9/1 91/10/1 93/27/1 92/28/1
f 92/28/1 93/27/1 95/11/1 94/12/1
f 94/12/1 95/11/1 97/29/1 96/30/1
f 98/12/4 99/11/4 101/10/4 100/9/4
f 100/9/4 101/10/4 103/19/4 102/20/4
f 104/10/5 105/9/5 107/9/5 106/10/5
f 106/10/5 107/9/5 109/9/5 108/10/5
f 110/25/1 111/26/1 113/19/1 112/20/1
f 112/20/1 113/19/1 115/11/1 114/12/1
f 116/10/4 117/9/4 119/12/4 118/11/4
f 118/11/4 119/12/4 121/30/4 120/29/4
f 122/23/4 123/24/4 124/26/4 125/25/4
f 126/24/5 127/24/5 128/23/5 129/23/5
f 130/25/1 131/26/1 132/24/1 133/23/1
f 134/23/4 135/19/4 136/26/4 137/31/4
f 138/12/5 139/11/5 140/11/5 141/12/5
f 142/19/6 143/19/6 144/20/6 145/20/6
f 146/29/5 147/29/5 148/30/5 149/30/5
f 150/18/1 151/17/1 152/29/1 153/30/1
f 154/18/6 155/17/6 156/17/6 157/18/6
f 158/26/4 159/25/4 160/31/4
f 161/20/4 162/19/4 163/23/4
usemtl m_dun26_11_lm4
f 164/32/2 165/33/2 167/34/2 166/35/2
f 166/35/2 167/34/2 169/36/2 168/37/2
f 168/37/2 169/36/2 171/38/2 170/39/2
f 170/39/2 171/38/2 173/40/2 172/41/2
f 172/41/2 173/40/2 175/42/2 174/43/2
f 176/33/2 177/44/2 179/45/2 178/34/2
f 178/34/2 179/45/2 181/46/2 180/36/2
f 180/36/2 181/46/2 183/47/2 182/38/2
f 182/38/2 183/47/2 185/48/2 184/40/2
f 184/40/2 185/48/2 187/49/2 186/42/2
f 188/50/2 189/51/2 191/52/2 190/53/2
f 190/53/2 191/52/2 193/54/2 192/55/2
f 192/55/2 193/54/2 195/56/2 194/57/2
f 196/58/2 197/59/2 199/60/2 198/61/2
f 198/61/2 199/60/2 201/62/2 200/63/2
f 202/42/2 203/64/2 205/65/2 204/43/2
f 204/43/2 205/65/2 207/66/2 206/67/2
f 208/68/2 209/69/2 211/70/2 210/71/2
f 210/71/2 211/70/2 213/72/2 212/73/2
f 214/33/2 215/74/2 217/75/2 216/44/2
f 216/44/2 217/75/2 219/54/2 218/52/2
f 220/76/2 221/68/2 223/71/2 222/77/2
f 222/77/2 223/71/2 225/73/2 224/78/2
f 226/79/2 227/67/2 229/66/2 228/80/2
f 228/80/2 229/66/2 231/81/2 230/82/2
f 232/46/2 233/45/2 234/29/2
f 233/45/2 235/83/2 234/29/2
f 234/29/2 235/83/2 236/84/2
f 235/83/2 237/85/2 236/84/2
f 236/84/2 237/85/2 238/86/2
f 237/85/2 239/59/2 238/86/2
f 238/86/2 239/59/2 240/58/2
f 241/45/2 242/51/2 243/83/2
f 242/51/2 244/87/2 243/83/2
f 243/83/2 244/87/2 245/85/2
f 244/87/2 246/50/2 245/85/2
f 245/85/2 246/50/2 247/62/2
f 246/50/2 248/63/2 247/62/2
f 249/52/2 250/51/2 251/44/2
f 250/51/2 252/45/2 251/44/2
f 253/62/2 254/60/2 255/85/2
f 254/60/2 256/59/2 255/85/2
f 257/88/2 258/89/2 259/90/2
f 258/89/2 260/91/2 259/90/2
f 261/92/2 262/46/2 263/29/2 264/86/2
f 265/49/2 266/88/2 267/90/2 268/64/2
f 269/43/2 270/67/2 271/93/2 272/41/2
f 273/81/2 274/66/2 275/65/2 276/94/2
f 277/95/2 278/64/2 279/90/2 280/91/2
f 281/54/2 282/75/2 283/96/2 284/56/2
f 285/93/2 286/67/2 287/79/2
f 288/97/2 289/69/2 290/68/2
f 291/86/2 292/29/2 293/84/2
f 294/50/2 295/87/2 296/51/2
f 297/42/2 298/49/2 299/64/2
f 300/92/2 301/86/2 302/58/2
f 303/74/2 304/33/2 305/32/2
f 306/53/2 307/63/2 308/50/2
