mtllib Voltic-Cave_06_05.mtl
o map
v -14.0 -15.0 5.0
v -16.0 -15.0 5.0
v -16.0 -16.0 5.0
v -14.0 -16.0 5.0
v -16.0 -15.0 4.0
v -14.0 -15.0 4.0
v -14.0 -14.0 4.0
v -16.0 -14.0 4.0
v -16.0 -14.0 3.0
v -15.0 -14.0 3.0
v -15.0 -6.0 3.0
v -16.0 -6.0 3.0
v -16.0 -6.0 3.0
v -15.0 -6.0 3.0
v -15.0 2.0 3.0
v -16.0 2.0 3.0
v -16.0 2.0 3.0
v -15.0 2.0 3.0
v -15.0 10.0 3.0
v -16.0 10.0 3.0
v -16.0 10.0 3.0
v -15.0 10.0 3.0
v -15.0 15.0 3.0
v -16.0 15.0 3.0
v -16.0 15.0 4.0
v -14.0 15.0 4.0
v -14.0 16.0 4.0
v -16.0 16.0 4.0
v -15.0 -14.0 4.0
v -14.0 -14.0 4.0
v -14.0 -6.0 4.0
v -15.0 -6.0 4.0
v -15.0 -6.0 4.0
v -14.0 -6.0 4.0
v -14.0 2.0 4.0
v -15.0 2.0 4.0
v -15.0 2.0 4.0
v -14.0 2.0 4.0
v -14.0 10.0 4.0
v -15.0 10.0 4.0
v -15.0 10.0 4.0
v -14.0 10.0 4.0
v -14.0 15.0 4.0
v -15.0 15.0 4.0
v -13.0 -15.0 5.0
v -14.0 -15.0 5.0
v -14.0 -16.0 5.0
v -13.0 -16.0 5.0
v -13.0 -7.0 5.0
v -14.0 -7.0 5.0
v -14.0 -15.0 5.0
v -13.0 -15.0 5.0
v -13.0 1.0 5.0
v -14.0 1.0 5.0
v -14.0 -7.0 5.0
v -13.0 -7.0 5.0
v -13.0 9.0 5.0
v -14.0 9.0 5.0
v -14.0 1.0 5.0
v -13.0 1.0 5.0
v -13.0 16.0 5.0
v -14.0 16.0 5.0
v -14.0 9.0 5.0
v -13.0 9.0 5.0
v -13.0 -16.0 5.000002
v -5.0 -16.0 5.000002
v -5.0 -8.0 5.000003
v -13.0 -8.0 5.000003
v -13.0 -8.0 5.000002
v -5.0 -8.0 5.000002
v -5.0 0.0 5.000003
v -13.0 0.0 5.000003
v -13.0 0.0 5.000002
v -5.0 0.0 5.000002
v -5.0 8.0 5.000003
v -13.0 8.0 5.000003
v -13.0 8.0 5.000002
v -5.0 8.0 5.000002
v -5.0 16.0 5.000003
v -13.0 16.0 5.000003
v -5.0 -16.0 5.000002
v 3.0 -16.0 5.000002
v 3.0 -8.0 5.000003
v -5.0 -8.0 5.000003
v -5.0 -8.0 5.000002
v 3.0 -8.0 5.000002
v 3.0 0.0 5.000003
v -5.0 0.0 5.000003
v -5.0 0.0 5.000002
v 3.0 0.0 5.000002
v 3.0 8.0 5.000003
v -5.0 8.0 5.000003
v -5.0 8.0 5.000002
v 3.0 8.0 5.000002
v 3.0 16.0 5.000003
v -5.0 16.0 5.000003
v 3.0 -16.0 5.000002
v 11.0 -16.0 5.000002
v 11.0 -8.0 5.000003
v 3.0 -8.0 5.000003
v 3.0 -8.0 5.000002
v 11.0 -8.0 5.000002
v 11.0 0.0 5.000003
v 3.0 0.0 5.000003
v 3.0 0.0 5.000002
v 11.0 0.0 5.000002
v 11.0 8.0 5.000003
v 3.0 8.0 5.000003
v 3.0 8.0 5.000002
v 11.0 8.0 5.000002
v 11.0 16.0 5.000003
v 3.0 16.0 5.000003
v 11.0 -16.0 5.000002
v 14.0 -16.0 5.000002
v 14.0 -8.0 5.000003
v 11.0 -8.0 5.000003
v 11.0 -8.0 5.000002
v 14.0 -8.0 5.000002
v 14.0 0.0 5.000003
v 11.0 0.0 5.000003
v 11.0 0.0 5.000002
v 14.0 0.0 5.000002
v 14.0 8.0 5.000003
v 11.0 8.0 5.000003
v 11.0 8.0 5.000002
v 14.0 8.0 5.000002
v 14.0 16.0 5.000003
v 11.0 16.0 5.000003
v 15.0 -15.0 5.0
v 14.0 -15.0 5.0
v 14.0 -16.0 5.0
v 15.0 -16.0 5.0
v 15.0 -7.0 5.0
v 14.0 -7.0 5.0
v 14.0 -15.0 5.0
v 15.0 -15.0 5.0
v 15.0 1.0 5.0
v 14.0 1.0 5.0
v 14.0 -7.0 5.0
v 15.0 -7.0 5.0
v 15.0 9.0 5.0
v 14.0 9.0 5.0
v 14.0 1.0 5.0
v 15.0 1.0 5.0
v 15.0 16.0 5.0
v 14.0 16.0 5.0
v 14.0 9.0 5.0
v 15.0 9.0 5.0
v 16.0 -15.0 5.0
v 15.0 -15.0 5.0
v 15.0 -16.0 5.0
v 16.0 -16.0 5.0
v -15.0 -14.0 4.0
v -15.0 -14.625 4.875
v -15.0 -15.0 5.0
v -16.0 -14.625 4.875
v -16.0 -14.0 4.0
v -16.0 -15.0 5.0
v -15.375 -13.0 3.875
v -15.375 -14.0 3.875
v -15.0 -14.0 4.0
v -15.0 -13.0 4.0
v -16.0 -13.0 3.0
v -16.0 -14.0 3.0
v -15.375 -14.0 3.875
v -15.375 -13.0 3.875
v -15.0 -13.625 3.875
v -16.0 -13.625 3.875
v -16.0 -14.0 4.0
v -15.0 -14.0 4.0
v -15.0 -13.0 3.0
v -16.0 -13.0 3.0
v -16.0 -13.625 3.875
v -15.0 -13.625 3.875
v -16.0 -5.0 3.0
v -15.375 -5.0 3.875
v -15.0 -5.0 4.0
v -15.375 -13.0 3.875
v -16.0 -13.0 3.0
v -15.0 -13.0 4.0
v -16.0 3.0 3.0
v -15.375 3.0 3.875
v -15.0 3.0 4.0
v -15.375 -5.0 3.875
v -16.0 -5.0 3.0
v -15.0 -5.0 4.0
v -16.0 11.0 3.0
v -15.375 11.0 3.875
v -15.0 11.0 4.0
v -15.375 3.0 3.875
v -16.0 3.0 3.0
v -15.0 3.0 4.0
v -16.0 14.0 3.0
v -15.375 14.0 3.875
v -15.0 14.0 4.0
v -15.375 11.0 3.875
v -16.0 11.0 3.0
v -15.0 11.0 4.0
v -16.0 14.625 3.875
v -15.0 14.625 3.875
v -15.0 15.0 4.0
v -16.0 15.0 4.0
v -16.0 14.0 3.0
v -15.0 14.0 3.0
v -15.0 14.625 3.875
v -16.0 14.625 3.875
v -15.375 15.0 3.875
v -15.375 14.0 3.875
v -15.0 14.0 4.0
v -15.0 15.0 4.0
v -16.0 15.0 3.0
v -16.0 14.0 3.0
v -15.375 14.0 3.875
v -15.375 15.0 3.875
v -16.0 15.0 4.0
v -16.0 15.625 4.875
v -16.0 16.0 5.0
v -15.0 15.625 4.875
v -15.0 15.0 4.0
v -15.0 16.0 5.0
v -14.375 -14.0 4.875
v -14.375 -15.0 4.875
v -14.0 -15.0 5.0
v -14.0 -14.0 5.0
v -15.0 -14.0 4.0
v -15.0 -15.0 4.0
v -14.375 -15.0 4.875
v -14.375 -14.0 4.875
v -14.0 -14.625 4.875
v -15.0 -14.625 4.875
v -15.0 -15.0 5.0
v -14.0 -15.0 5.0
v -14.0 -14.0 4.0
v -15.0 -14.0 4.0
v -15.0 -14.625 4.875
v -14.0 -14.625 4.875
v -15.0 -6.0 4.0
v -14.375 -6.0 4.875
v -14.0 -6.0 5.0
v -14.375 -14.0 4.875
v -15.0 -14.0 4.0
v -14.0 -14.0 5.0
v -15.0 2.0 4.0
v -14.375 2.0 4.875
v -14.0 2.0 5.0
v -14.375 -6.0 4.875
v -15.0 -6.0 4.0
v -14.0 -6.0 5.0
v -15.0 10.0 4.0
v -14.375 10.0 4.875
v -14.0 10.0 5.0
v -14.375 2.0 4.875
v -15.0 2.0 4.0
v -14.0 2.0 5.0
v -15.0 15.0 4.0
v -14.375 15.0 4.875
v -14.0 15.0 5.0
v -14.375 10.0 4.875
v -15.0 10.0 4.0
v -14.0 10.0 5.0
v -15.0 15.625 4.875
v -14.0 15.625 4.875
v -14.0 16.0 5.0
v -15.0 16.0 5.0
v -15.0 15.0 4.0
v -14.0 15.0 4.0
v -14.0 15.625 4.875
v -15.0 15.625 4.875
v -14.375 16.0 4.875
v -14.375 15.0 4.875
v -14.0 15.0 5.0
v -14.0 16.0 5.0
v -15.0 16.0 4.0
v -15.0 15.0 4.0
v -14.375 15.0 4.875
v -14.375 16.0 4.875
v 15.0 -14.625 4.875
v 15.0 -15.0 5.0
v 16.0 -15.0 5.0
v 16.0 -14.625 4.875
v 15.0 -14.0 4.0
v 16.0 -14.0 4.0
v 15.375 -14.0 4.875
v 15.0 -14.0 5.0
v 15.0 -15.0 5.0
v 15.375 -15.0 4.875
v 16.0 -14.0 4.0
v 16.0 -15.0 4.0
v 16.0 -14.0 4.0
v 15.375 -14.0 4.875
v 15.0 -14.0 5.0
v 15.375 -6.0 4.875
v 16.0 -6.0 4.0
v 15.0 -6.0 5.0
v 16.0 -6.0 4.0
v 15.375 -6.0 4.875
v 15.0 -6.0 5.0
v 15.375 2.0 4.875
v 16.0 2.0 4.0
v 15.0 2.0 5.0
v 16.0 2.0 4.0
v 15.375 2.0 4.875
v 15.0 2.0 5.0
v 15.375 10.0 4.875
v 16.0 10.0 4.0
v 15.0 10.0 5.0
v 16.0 10.0 4.0
v 15.375 10.0 4.875
v 15.0 10.0 5.0
v 15.375 15.0 4.875
v 16.0 15.0 4.0
v 15.0 15.0 5.0
v 15.375 16.0 4.875
v 15.0 16.0 5.0
v 15.0 15.0 5.0
v 15.375 15.0 4.875
v 16.0 16.0 4.0
v 16.0 15.0 4.0
v 16.0 15.625 4.875
v 16.0 16.0 5.0
v 15.0 16.0 5.0
v 15.0 15.625 4.875
v 16.0 15.0 4.0
v 15.0 15.0 4.0
vt 1.0 0.5
vt 0.0 0.5
vt 0.0 0.0
vt 1.0 0.0
vt 1.0 1.0
vt 0.0 1.0
vt 0.0 0.5
vt 1.0 0.5
vt 0.5 5.0
vt 0.0 5.0
vt 0.0 1.0
vt 0.5 1.0
vt 0.5 9.0
vt 0.0 9.0
vt 0.0 5.0
vt 0.5 5.0
vt 0.5 13.0
vt 0.0 13.0
vt 0.0 9.0
vt 0.5 9.0
vt 0.0 13.0
vt 0.5 13.0
vt 0.5 15.5
vt 0.0 15.5
vt 1.0 16.0
vt 0.0 16.0
vt 0.0 15.5
vt 1.0 15.5
vt 1.0 5.0
vt 0.5 5.0
vt 0.5 1.0
vt 1.0 1.0
vt 1.0 9.0
vt 0.5 9.0
vt 0.5 5.0
vt 1.0 5.0
vt 1.0 13.0
vt 0.5 13.0
vt 0.5 9.0
vt 1.0 9.0
vt 0.5 13.0
vt 1.0 13.0
vt 1.0 15.5
vt 0.5 15.5
vt 1.5 0.5
vt 1.0 0.5
vt 1.0 0.0
vt 1.5 0.0
vt 1.5 4.5
vt 1.0 4.5
vt 1.0 0.5
vt 1.5 0.5
vt 1.0 4.5
vt 1.5 4.5
vt 1.5 8.5
vt 1.0 8.5
vt 1.5 12.5
vt 1.0 12.5
vt 1.0 8.5
vt 1.5 8.5
vt 1.5 16.0
vt 1.0 16.0
vt 1.0 12.5
vt 1.5 12.5
vt 0.0625 0.9375
vt 0.0625 0.9375
vt 0.0625 0.9375
vt 0.0625 0.9375
vt 0.0625 0.9375
vt 0.0625 0.9375
vt 0.0625 0.9375
vt 0.0625 0.9375
vt 0.0625 0.9375
vt 0.0625 0.9375
vt 0.0625 0.9375
vt 0.0625 0.9375
vt 0.0625 0.9375
vt 0.0625 0.9375
vt 0.0625 0.9375
vt 0.0625 0.9375
vt 0.0625 0.9375
vt 0.0625 0.9375
vt 0.0625 0.9375
vt 0.0625 0.9375
vt 0.0625 0.9375
vt 0.0625 0.9375
vt 0.0625 0.9375
vt 0.0625 0.9375
vt 0.0625 0.9375
vt 0.0625 0.9375
vt 0.0625 0.9375
vt 0.0625 0.9375
vt 0.0625 0.9375
vt 0.0625 0.9375
vt 0.0625 0.9375
vt 0.0625 0.9375
vt 0.0625 0.9375
vt 0.0625 0.9375
vt 0.0625 0.9375
vt 0.0625 0.9375
vt 0.0625 0.9375
vt 0.0625 0.9375
vt 0.0625 0.9375
vt 0.0625 0.9375
vt 0.0625 0.9375
vt 0.0625 0.9375
vt 0.0625 0.9375
vt 0.0625 0.9375
vt 0.0625 0.9375
vt 0.0625 0.9375
vt 0.0625 0.9375
vt 0.0625 0.9375
vt 0.0625 0.9375
vt 0.0625 0.9375
vt 0.0625 0.9375
vt 0.0625 0.9375
vt 0.0625 0.9375
vt 0.0625 0.9375
vt 0.0625 0.9375
vt 0.0625 0.9375
vt 0.0625 0.9375
vt 0.0625 0.9375
vt 0.0625 0.9375
vt 0.0625 0.9375
vt 0.0625 0.9375
vt 0.0625 0.9375
vt 0.0625 0.9375
vt 0.0625 0.9375
vt 15.0 0.5
vt 15.0 0.0
vt 15.5 0.5
vt 15.5 0.0
vt 15.0 4.5
vt 15.0 0.5
vt 15.5 4.5
vt 15.5 0.5
vt 15.5 8.5
vt 15.0 4.5
vt 15.0 8.5
vt 15.5 4.5
vt 15.5 12.5
vt 15.5 8.5
vt 15.0 12.5
vt 15.0 8.5
vt 15.0 16.0
vt 15.5 12.5
vt 15.5 16.0
vt 15.0 12.5
vt 16.0 0.5
vt 16.0 0.0
vt 15.5 0.5
vt 15.5 0.0
vt -3.642857 -0.375
vt -3.642857 0.0
vt -4.0 0.0
vt -4.0 -0.375
vt -3.642857 -1.0
vt -4.0 -1.0
vt 0.25 -0.375
vt 0.0 -0.375
vt 0.0 0.0
vt 0.25 0.0
vt 0.25 -1.0
vt 0.0 -1.0
vt 0.0 -0.375
vt 0.25 -0.375
vt 0.25 -0.375
vt 0.0 -0.375
vt 0.0 0.0
vt 0.25 0.0
vt 0.25 -1.0
vt 0.0 -1.0
vt 0.0 -0.375
vt 0.25 -0.375
vt -29.142857 -0.375
vt -29.142857 0.0
vt -32.0 0.0
vt -32.0 -0.375
vt -29.142857 -1.0
vt -32.0 -1.0
vt -29.142857 -0.375
vt -29.142857 0.0
vt -32.0 0.0
vt -32.0 -0.375
vt -29.142857 -1.0
vt -32.0 -1.0
vt -29.142857 -0.375
vt -29.142857 0.0
vt -32.0 0.0
vt -32.0 -0.375
vt -29.142857 -1.0
vt -32.0 -1.0
vt -10.928572 -0.375
vt -10.928572 0.0
vt -12.0 0.0
vt -12.0 -0.375
vt -10.928572 -1.0
vt -12.0 -1.0
vt 0.25 -0.375
vt 0.0 -0.375
vt 0.0 0.0
vt 0.25 0.0
vt 0.25 -1.0
vt 0.0 -1.0
vt 0.0 -0.375
vt 0.25 -0.375
vt 0.25 -0.375
vt 0.0 -0.375
vt 0.0 0.0
vt 0.25 0.0
vt 0.25 -1.0
vt 0.0 -1.0
vt 0.0 -0.375
vt 0.25 -0.375
vt -3.642857 -0.375
vt -3.642857 0.0
vt -4.0 0.0
vt -4.0 -0.375
vt -3.642857 -1.0
vt -4.0 -1.0
vt 0.25 -0.375
vt 0.0 -0.375
vt 0.0 0.0
vt 0.25 0.0
vt 0.25 -1.0
vt 0.0 -1.0
vt 0.0 -0.375
vt 0.25 -0.375
vt 0.25 -0.375
vt 0.0 -0.375
vt 0.0 0.0
vt 0.25 0.0
vt 0.25 -1.0
vt 0.0 -1.0
vt 0.0 -0.375
vt 0.25 -0.375
vt -29.142857 -0.375
vt -29.142857 0.0
vt -32.0 0.0
vt -32.0 -0.375
vt -29.142857 -1.0
vt -32.0 -1.0
vt -29.142857 -0.375
vt -29.142857 0.0
vt -32.0 0.0
vt -32.0 -0.375
vt -29.142857 -1.0
vt -32.0 -1.0
vt -29.142857 -0.375
vt -29.142857 0.0
vt -32.0 0.0
vt -32.0 -0.375
vt -29.142857 -1.0
vt -32.0 -1.0
vt -18.214285 -0.375
vt -18.214285 0.0
vt -20.0 0.0
vt -20.0 -0.375
vt -18.214285 -1.0
vt -20.0 -1.0
vt 0.25 -0.375
vt 0.0 -0.375
vt 0.0 0.0
vt 0.25 0.0
vt 0.25 -1.0
vt 0.0 -1.0
vt 0.0 -0.375
vt 0.25 -0.375
vt 0.25 -0.375
vt 0.0 -0.375
vt 0.0 0.0
vt 0.25 0.0
vt 0.25 -1.0
vt 0.0 -1.0
vt 0.0 -0.375
vt 0.25 -0.375
vt -3.642857 -0.375
vt -3.642857 0.0
vt -4.0 0.0
vt -4.0 -0.375
vt -3.642857 -1.0
vt -4.0 -1.0
vt -3.642857 -0.375
vt -3.642857 0.0
vt -4.0 0.0
vt -4.0 -0.375
vt -3.642857 -1.0
vt -4.0 -1.0
vt -29.142857 -0.375
vt -29.142857 0.0
vt -32.0 0.0
vt -32.0 -0.375
vt -29.142857 -1.0
vt -32.0 -1.0
vt -29.142857 -0.375
vt -29.142857 0.0
vt -32.0 0.0
vt -32.0 -0.375
vt -29.142857 -1.0
vt -32.0 -1.0
vt -29.142857 -0.375
vt -29.142857 0.0
vt -32.0 0.0
vt -32.0 -0.375
vt -29.142857 -1.0
vt -32.0 -1.0
vt -18.214285 -0.375
vt -18.214285 0.0
vt -20.0 0.0
vt -20.0 -0.375
vt -18.214285 -1.0
vt -20.0 -1.0
vt -3.642857 -0.375
vt -3.642857 0.0
vt -4.0 0.0
vt -4.0 -0.375
vt -3.642857 -1.0
vt -4.0 -1.0
vt -3.642857 -0.375
vt -3.642857 0.0
vt -4.0 0.0
vt -4.0 -0.375
vt -3.642857 -1.0
vt -4.0 -1.0
vn 0.0 -0.0 1.0
vn 0.0 -0.0 1.0
vn 0.0 -0.0 1.0
vn 0.0 -0.0 1.0
vn 0.0 -0.0 1.0
vn 0.0 -0.0 1.0
vn 0.0 -0.0 1.0
vn 0.0 -0.0 1.0
vn 0.0 -0.0 1.0
vn 0.0 -0.0 1.0
vn 0.0 -0.0 1.0
vn 0.0 -0.0 1.0
vn 0.0 -0.0 1.0
vn 0.0 -0.0 1.0
vn 0.0 -0.0 1.0
vn 0.0 -0.0 1.0
vn 0.0 -0.0 1.0
vn 0.0 -0.0 1.0
vn 0.0 -0.0 1.0
vn 0.0 -0.0 1.0
vn 0.0 -0.0 1.0
vn 0.0 -0.0 1.0
vn 0.0 -0.0 1.0
vn 0.0 -0.0 1.0
vn 0.0 -0.0 1.0
vn 0.0 -0.0 1.0
vn 0.0 -0.0 1.0
vn 0.0 -0.0 1.0
vn 0.0 -0.0 1.0
vn 0.0 -0.0 1.0
vn 0.0 -0.0 1.0
vn 0.0 -0.0 1.0
vn 0.0 -0.0 1.0
vn 0.0 -0.0 1.0
vn 0.0 -0.0 1.0
vn 0.0 -0.0 1.0
vn 0.0 -0.0 1.0
vn 0.0 -0.0 1.0
vn -0.0 0.5941 0.8044
vn -0.0 0.3162 0.9487
vn -0.0 0.8137 0.5812
vn -0.3162 -0.0 0.9487
vn -0.8137 -0.0 0.5812
vn 0.0 0.3162 0.9487
vn 0.0 0.8137 0.5812
vn -0.5941 -0.0 0.8044
vn -0.3162 -0.0 0.9487
vn -0.8137 -0.0 0.5812
vn -0.5941 -0.0 0.8044
vn -0.3162 -0.0 0.9487
vn -0.8137 -0.0 0.5812
vn -0.5941 -0.0 0.8044
vn -0.3162 -0.0 0.9487
vn -0.8137 -0.0 0.5812
vn -0.5941 -0.0 0.8044
vn -0.3162 -0.0 0.9487
vn -0.8137 -0.0 0.5812
vn 0.0 -0.3162 0.9487
vn 0.0 -0.8137 0.5812
vn -0.3162 0.0 0.9487
vn -0.8137 0.0 0.5812
vn 0.0 -0.5941 0.8044
vn 0.0 -0.3162 0.9487
vn 0.0 -0.8137 0.5812
vn -0.3162 -0.0 0.9487
vn -0.8137 -0.0 0.5812
vn 0.0 0.3162 0.9487
vn 0.0 0.8137 0.5812
vn -0.5941 -0.0 0.8044
vn -0.3162 -0.0 0.9487
vn -0.8137 -0.0 0.5812
vn -0.5941 -0.0 0.8044
vn -0.3162 -0.0 0.9487
vn -0.8137 -0.0 0.5812
vn -0.5941 -0.0 0.8044
vn -0.3162 -0.0 0.9487
vn -0.8137 -0.0 0.5812
vn -0.5941 -0.0 0.8044
vn -0.3162 -0.0 0.9487
vn -0.8137 -0.0 0.5812
vn 0.0 -0.3162 0.9487
vn 0.0 -0.8137 0.5812
vn -0.3162 0.0 0.9487
vn -0.8137 0.0 0.5812
vn -0.0 0.5941 0.8044
vn -0.0 0.3162 0.9487
vn -0.0 0.8137 0.5812
vn 0.5941 -0.0 0.8044
vn 0.3162 -0.0 0.9487
vn 0.8137 -0.0 0.5812
vn 0.5941 0.0 0.8044
vn 0.3162 0.0 0.9487
vn 0.8137 0.0 0.5812
vn 0.5941 0.0 0.8044
vn 0.3162 0.0 0.9487
vn 0.8137 0.0 0.5812
vn 0.5941 0.0 0.8044
vn 0.3162 0.0 0.9487
vn 0.8137 0.0 0.5812
vn 0.5941 0.0 0.8044
vn 0.3162 0.0 0.9487
vn 0.8137 0.0 0.5812
vn 0.5941 0.0 0.8044
vn 0.3162 0.0 0.9487
vn 0.8137 0.0 0.5812
vn -0.0 -0.5941 0.8044
vn -0.0 -0.3162 0.9487
vn -0.0 -0.8137 0.5812
c 1.0 1.0 1.0
c 0.011764706 0.011764706 0.011764706
c 1.0 1.0 1.0
c 1.0 1.0 1.0
c 1.0 1.0 1.0
c 1.0 1.0 1.0
c 1.0 1.0 1.0
c 1.0 1.0 1.0
c 1.0 1.0 1.0
c 1.0 1.0 1.0
c 1.0 1.0 1.0
c 1.0 1.0 1.0
c 1.0 1.0 1.0
c 0.011764706 0.011764706 0.011764706
c 1.0 1.0 1.0
c 0.011764706 0.011764706 0.011764706
c 1.0 1.0 1.0
c 0.011764706 0.011764706 0.011764706
c 1.0 1.0 1.0
c 0.011764706 0.011764706 0.011764706
c 1.0 1.0 1.0
c 0.011764706 0.011764706 0.011764706
c 1.0 1.0 1.0
c 1.0 1.0 1.0
c 1.0 1.0 1.0
c 1.0 1.0 1.0
c 1.0 1.0 1.0
c 1.0 1.0 1.0
c 1.0 1.0 1.0
c 1.0 1.0 1.0
c 1.0 1.0 1.0
c 1.0 1.0 1.0
c 1.0 1.0 1.0
c 1.0 1.0 1.0
c 1.0 1.0 1.0
c 1.0 1.0 1.0
c 1.0 1.0 1.0
c 1.0 1.0 1.0
c 1.0 1.0 1.0
c 0.011764706 0.011764706 0.011764706
c 1.0 1.0 1.0
c 0.011764706 0.011764706 0.011764706
c 1.0 1.0 1.0
c 0.011764706 0.011764706 0.011764706
c 1.0 1.0 1.0
c 0.011764706 0.011764706 0.011764706
c 1.0 1.0 1.0
c 0.011764706 0.011764706 0.011764706
c 1.0 1.0 1.0
c 0.011764706 0.011764706 0.011764706
c 1.0 1.0 1.0
c 1.0 1.0 1.0
c 1.0 1.0 1.0
c 1.0 1.0 1.0
c 1.0 1.0 1.0
c 1.0 1.0 1.0
c 1.0 1.0 1.0
c 1.0 1.0 1.0
c 1.0 1.0 1.0
c 1.0 1.0 1.0
c 1.0 1.0 1.0
c 1.0 1.0 1.0
c 1.0 1.0 1.0
c 1.0 1.0 1.0
c 1.0 1.0 1.0
c 1.0 1.0 1.0
c 1.0 1.0 1.0
c 1.0 1.0 1.0
c 1.0 1.0 1.0
c 1.0 1.0 1.0
usemtl d0gake_heri
s off
f 65/65/17/23 66/66/17/23 67/67/17/23 68/68/17/23
f 69/69/18/24 70/70/18/24 71/71/18/24 72/72/18/24
f 73/73/19/25 74/74/19/25 75/75/19/25 76/76/19/25
f 77/77/20/26 78/78/20/26 79/79/20/26 80/80/20/26
f 81/81/21/27 82/82/21/27 83/83/21/27 84/84/21/27
f 85/85/22/28 86/86/22/28 87/87/22/28 88/88/22/28
f 89/89/23/29 90/90/23/29 91/91/23/29 92/92/23/29
f 93/93/24/30 94/94/24/30 95/95/24/30 96/96/24/30
f 97/97/25/31 98/98/25/31 99/99/25/31 100/100/25/31
f 101/101/26/32 102/102/26/32 103/103/26/32 104/104/26/32
f 105/105/27/33 106/106/27/33 107/107/27/33 108/108/27/33
f 109/109/28/34 110/110/28/34 111/111/28/34 112/112/28/34
f 113/113/29/35 114/114/29/35 115/115/29/35 116/116/29/35
f 117/117/30/36 118/118/30/36 119/119/30/36 120/120/30/36
f 121/121/31/37 122/122/31/37 123/123/31/37 124/124/31/37
f 125/125/32/38 126/126/32/38 127/127/32/38 128/128/32/38
usemtl yuka_001
s off
f 1/1/1/1 2/2/1/1 3/3/1/2 4/4/1/2
f 7/5/2/3 8/6/2/3 5/7/2/3 6/8/2/3
f 11/9/3/4 12/10/3/4 9/11/3/4 10/12/3/4
f 15/13/4/5 16/14/4/5 13/15/4/5 14/16/4/5
f 19/17/5/6 20/18/5/6 17/19/5/6 18/20/5/6
f 23/23/6/7 24/24/6/7 21/21/6/7 22/22/6/7
f 27/25/7/8 28/26/7/8 25/27/7/8 26/28/7/8
f 31/29/8/9 32/30/8/9 29/31/8/9 30/32/8/9
f 35/33/9/10 36/34/9/10 33/35/9/10 34/36/9/10
f 39/37/10/11 40/38/10/11 37/39/10/11 38/40/10/11
f 43/43/11/12 44/44/11/12 41/41/11/12 42/42/11/12
f 45/45/12/14 46/46/12/13 47/47/12/14 48/48/12/14
f 49/49/13/16 50/50/13/15 51/51/13/15 52/52/13/16
f 53/55/14/18 54/56/14/17 55/53/14/17 56/54/14/18
f 57/57/15/20 58/58/15/19 59/59/15/19 60/60/15/20
f 61/61/16/22 62/62/16/21 63/63/16/21 64/64/16/22
f 129/131/33/39 130/129/33/40 131/130/33/40 132/132/33/40
f 133/135/34/41 134/133/34/42 135/134/34/42 136/136/34/41
f 137/137/35/43 138/139/35/44 139/138/35/44 140/140/35/43
f 141/141/36/45 142/143/36/46 143/144/36/46 144/142/36/45
f 145/147/37/47 146/145/37/48 147/148/37/48 148/146/37/47
f 149/149/38/49 150/151/38/49 151/152/38/50 152/150/38/50
usemtl d6gake_002
s off
f 159/159/42/52 160/160/42/52 161/161/42/52 162/162/42/52
f 163/163/43/52 164/164/43/52 165/165/43/52 166/166/43/52
f 167/167/44/52 168/168/44/52 169/169/44/52 170/170/44/52
f 171/171/45/52 172/172/45/52 173/173/45/52 174/174/45/52
f 199/199/58/57 200/200/58/57 201/201/58/57 202/202/58/57
f 203/203/59/57 204/204/59/57 205/205/59/57 206/206/59/57
f 207/207/60/57 208/208/60/57 209/209/60/57 210/210/60/57
f 211/211/61/57 212/212/61/57 213/213/61/57 214/214/61/57
f 221/221/65/59 222/222/65/59 223/223/65/59 224/224/65/59
f 225/225/66/59 226/226/66/59 227/227/66/59 228/228/66/59
f 229/229/67/59 230/230/67/59 231/231/67/59 232/232/67/59
f 233/233/68/59 234/234/68/59 235/235/68/59 236/236/68/59
f 261/261/81/64 262/262/81/64 263/263/81/64 264/264/81/64
f 265/265/82/64 266/266/82/64 267/267/82/64 268/268/82/64
f 269/269/83/64 270/270/83/64 271/271/83/64 272/272/83/64
f 273/273/84/64 274/274/84/64 275/275/84/64 276/276/84/64
usemtl d6gake_03
s off
f 156/153/39/51 158/154/40/51 155/155/40/51 154/156/39/51
f 157/157/41/51 156/153/39/51 154/156/39/51 153/158/41/51
f 178/175/46/53 180/176/47/53 177/177/47/53 176/178/46/53
f 179/179/48/53 178/175/46/53 176/178/46/53 175/180/48/53
f 184/181/49/54 186/182/50/54 183/183/50/54 182/184/49/54
f 185/185/51/54 184/181/49/54 182/184/49/54 181/186/51/54
f 190/187/52/55 192/188/53/55 189/189/53/55 188/190/52/55
f 191/191/54/55 190/187/52/55 188/190/52/55 187/192/54/55
f 196/193/55/56 198/194/56/56 195/195/56/56 194/196/55/56
f 197/197/57/56 196/193/55/56 194/196/55/56 193/198/57/56
f 218/215/62/58 220/216/63/58 217/217/63/58 216/218/62/58
f 219/219/64/58 218/215/62/58 216/218/62/58 215/220/64/58
f 240/237/69/60 242/238/70/60 239/239/70/60 238/240/69/60
f 241/241/71/60 240/237/69/60 238/240/69/60 237/242/71/60
f 246/243/72/61 248/244/73/61 245/245/73/61 244/246/72/61
f 247/247/74/61 246/243/72/61 244/246/72/61 243/248/74/61
f 252/249/75/62 254/250/76/62 251/251/76/62 250/252/75/62
f 253/253/77/62 252/249/75/62 250/252/75/62 249/254/77/62
f 258/255/78/63 260/256/79/63 257/257/79/63 256/258/78/63
f 259/259/80/63 258/255/78/63 256/258/78/63 255/260/80/63
f 277/277/85/65 278/278/86/65 279/279/86/65 280/280/85/65
f 281/281/87/65 277/277/85/65 280/280/85/65 282/282/87/65
f 283/283/88/65 284/284/89/65 285/285/89/65 286/286/88/65
f 287/287/90/65 283/283/88/65 286/286/88/65 288/288/90/65
f 292/289/91/66 294/290/92/66 291/291/92/66 290/292/91/66
f 293/293/93/66 292/289/91/66 290/292/91/66 289/294/93/66
f 298/295/94/67 300/296/95/67 297/297/95/67 296/298/94/67
f 299/299/96/67 298/295/94/67 296/298/94/67 295/300/96/67
f 304/301/97/68 306/302/98/68 303/303/98/68 302/304/97/68
f 305/305/99/68 304/301/97/68 302/304/97/68 301/306/99/68
f 310/307/100/69 312/308/101/69 309/309/101/69 308/310/100/69
f 311/311/102/69 310/307/100/69 308/310/100/69 307/312/102/69
f 313/313/103/70 314/314/104/70 315/315/104/70 316/316/103/70
f 317/317/105/70 313/313/103/70 316/316/103/70 318/318/105/70
f 319/319/106/70 320/320/107/70 321/321/107/70 322/322/106/70
f 323/323/108/70 319/319/106/70 322/322/106/70 324/324/108/70
