mtllib Voltic-Cave_01_06.mtl
o map
v -16.0 -16.0 8.000002
v -8.0 -16.0 8.000002
v -8.0 -8.0 8.000003
v -16.0 -8.0 8.000003
v -16.0 -8.0 8.000002
v -8.0 -8.0 8.000002
v -8.0 0.0 8.000003
v -16.0 0.0 8.000003
v -16.0 0.0 8.000002
v -8.0 0.0 8.000002
v -8.0 8.0 8.000003
v -16.0 8.0 8.000003
v -16.0 8.0 8.000002
v -8.0 8.0 8.000002
v -8.0 15.0 8.000003
v -16.0 15.0 8.000003
v -8.0 16.0 8.0
v -16.0 16.0 8.0
v -16.0 15.0 8.0
v -8.0 15.0 8.0
v -8.0 -16.0 8.000002
v 0.0 -16.0 8.000002
v 0.0 -8.0 8.000003
v -8.0 -8.0 8.000003
v -8.0 -8.0 8.000002
v 0.0 -8.0 8.000002
v 0.0 0.0 8.000003
v -8.0 0.0 8.000003
v -8.0 0.0 8.000002
v 0.0 0.0 8.000002
v 0.0 8.0 8.000003
v -8.0 8.0 8.000003
v -8.0 8.0 8.000002
v 0.0 8.0 8.000002
v 0.0 15.0 8.000003
v -8.0 15.0 8.000003
v 0.0 16.0 8.0
v -8.0 16.0 8.0
v -8.0 15.0 8.0
v 0.0 15.0 8.0
v 0.0 -16.0 8.000002
v 8.0 -16.0 8.000002
v 8.0 -8.0 8.000003
v 0.0 -8.0 8.000003
v 0.0 -8.0 8.000002
v 8.0 -8.0 8.000002
v 8.0 0.0 8.000003
v 0.0 0.0 8.000003
v 0.0 0.0 8.000002
v 8.0 0.0 8.000002
v 8.0 8.0 8.000003
v 0.0 8.0 8.000003
v 0.0 8.0 8.000002
v 8.0 8.0 8.000002
v 8.0 15.0 8.000003
v 0.0 15.0 8.000003
v 4.0 16.0 8.0
v 0.0 16.0 8.0
v 0.0 15.0 8.0
v 4.0 15.0 8.0
v 5.0 16.0 8.0
v 4.0 16.0 8.0
v 4.0 15.0 8.0
v 5.0 15.0 8.0
v 5.0 15.0 8.000002
v 13.0 15.0 8.000002
v 13.0 16.0 8.000003
v 5.0 16.0 8.000003
v 8.0 -16.0 8.000002
v 16.0 -16.0 8.000002
v 16.0 -8.0 8.000003
v 8.0 -8.0 8.000003
v 8.0 -8.0 8.000002
v 16.0 -8.0 8.000002
v 16.0 0.0 8.000003
v 8.0 0.0 8.000003
v 8.0 0.0 8.000002
v 16.0 0.0 8.000002
v 16.0 8.0 8.000003
v 8.0 8.0 8.000003
v 8.0 8.0 8.000002
v 16.0 8.0 8.000002
v 16.0 15.0 8.000003
v 8.0 15.0 8.000003
v 13.0 15.0 8.000002
v 16.0 15.0 8.000002
v 16.0 16.0 8.000003
v 13.0 16.0 8.000003
vt 0.0625 0.9375
vt 0.0625 0.9375
vt 0.0625 0.9375
vt 0.0625 0.9375
vt 0.0625 0.9375
vt 0.0625 0.9375
vt 0.0625 0.9375
vt 0.0625 0.9375
vt 0.0625 0.9375
vt 0.0625 0.9375
vt 0.0625 0.9375
vt 0.0625 0.9375
vt 0.0625 0.9375
vt 0.0625 0.9375
vt 0.0625 0.9375
vt 0.0625 0.9375
vt 4.0 16.0
vt 0.0 16.0
vt 0.0 15.5
vt 4.0 15.5
vt 0.0625 0.9375
vt 0.0625 0.9375
vt 0.0625 0.9375
vt 0.0625 0.9375
vt 0.0625 0.9375
vt 0.0625 0.9375
vt 0.0625 0.9375
vt 0.0625 0.9375
vt 0.0625 0.9375
vt 0.0625 0.9375
vt 0.0625 0.9375
vt 0.0625 0.9375
vt 0.0625 0.9375
vt 0.0625 0.9375
vt 0.0625 0.9375
vt 0.0625 0.9375
vt 8.0 16.0
vt 4.0 16.0
vt 4.0 15.5
vt 8.0 15.5
vt 0.0625 0.9375
vt 0.0625 0.9375
vt 0.0625 0.9375
vt 0.0625 0.9375
vt 0.0625 0.9375
vt 0.0625 0.9375
vt 0.0625 0.9375
vt 0.0625 0.9375
vt 0.0625 0.9375
vt 0.0625 0.9375
vt 0.0625 0.9375
vt 0.0625 0.9375
vt 0.0625 0.9375
vt 0.0625 0.9375
vt 0.0625 0.9375
vt 0.0625 0.9375
vt 10.0 16.0
vt 8.0 16.0
vt 8.0 15.5
vt 10.0 15.5
vt 10.0 16.0
vt 10.5 15.5
vt 10.5 16.0
vt 10.0 15.5
vt 0.0625 0.9375
vt 0.0625 0.9375
vt 0.0625 0.9375
vt 0.0625 0.9375
vt 0.0625 0.9375
vt 0.0625 0.9375
vt 0.0625 0.9375
vt 0.0625 0.9375
vt 0.0625 0.9375
vt 0.0625 0.9375
vt 0.0625 0.9375
vt 0.0625 0.9375
vt 0.0625 0.9375
vt 0.0625 0.9375
vt 0.0625 0.9375
vt 0.0625 0.9375
vt 0.0625 0.9375
vt 0.0625 0.9375
vt 0.0625 0.9375
vt 0.0625 0.9375
vt 0.0625 0.9375
vt 0.0625 0.9375
vt 0.0625 0.9375
vt 0.0625 0.9375
vn 0.0 -0.0 1.0
vn 0.0 -0.0 1.0
vn 0.0 -0.0 1.0
vn 0.0 -0.0 1.0
vn 0.0 -0.0 1.0
vn 0.0 -0.0 1.0
vn 0.0 -0.0 1.0
vn 0.0 -0.0 1.0
vn 0.0 -0.0 1.0
vn 0.0 -0.0 1.0
vn 0.0 -0.0 1.0
vn 0.0 -0.0 1.0
vn 0.0 -0.0 1.0
vn 0.0 -0.0 1.0
vn 0.0 -0.0 1.0
vn 0.0 -0.0 1.0
vn 0.0 -0.0 1.0
vn 0.0 -0.0 1.0
vn 0.0 -0.0 1.0
vn 0.0 -0.0 1.0
vn 0.0 -0.0 1.0
vn 0.0 -0.0 1.0
c 1.0 1.0 1.0
c 1.0 1.0 1.0
c 1.0 1.0 1.0
c 1.0 1.0 1.0
c 1.0 1.0 1.0
c 0.011764706 0.011764706 0.011764706
c 1.0 1.0 1.0
c 1.0 1.0 1.0
c 1.0 1.0 1.0
c 1.0 1.0 1.0
c 1.0 1.0 1.0
c 0.011764706 0.011764706 0.011764706
c 1.0 1.0 1.0
c 1.0 1.0 1.0
c 1.0 1.0 1.0
c 1.0 1.0 1.0
c 1.0 1.0 1.0
c 0.011764706 0.011764706 0.011764706
c 1.0 1.0 1.0
c 0.011764706 0.011764706 0.011764706
c 1.0 1.0 1.0
c 1.0 1.0 1.0
c 1.0 1.0 1.0
c 1.0 1.0 1.0
c 1.0 1.0 1.0
c 1.0 1.0 1.0
usemtl d0gake_heri
s off
f 1/1/1/1 2/2/1/1 3/3/1/1 4/4/1/1
f 5/5/2/2 6/6/2/2 7/7/2/2 8/8/2/2
f 9/9/3/3 10/10/3/3 11/11/3/3 12/12/3/3
f 13/13/4/4 14/14/4/4 15/15/4/4 16/16/4/4
f 21/21/6/7 22/22/6/7 23/23/6/7 24/24/6/7
f 25/25/7/8 26/26/7/8 27/27/7/8 28/28/7/8
f 29/29/8/9 30/30/8/9 31/31/8/9 32/32/8/9
f 33/33/9/10 34/34/9/10 35/35/9/10 36/36/9/10
f 41/41/11/13 42/42/11/13 43/43/11/13 44/44/11/13
f 45/45/12/14 46/46/12/14 47/47/12/14 48/48/12/14
f 49/49/13/15 50/50/13/15 51/51/13/15 52/52/13/15
f 53/53/14/16 54/54/14/16 55/55/14/16 56/56/14/16
f 65/65/17/21 66/66/17/21 67/67/17/21 68/68/17/21
f 69/69/18/22 70/70/18/22 71/71/18/22 72/72/18/22
f 73/73/19/23 74/74/19/23 75/75/19/23 76/76/19/23
f 77/77/20/24 78/78/20/24 79/79/20/24 80/80/20/24
f 81/81/21/25 82/82/21/25 83/83/21/25 84/84/21/25
f 85/85/22/26 86/86/22/26 87/87/22/26 88/88/22/26
usemtl yuka_001
s off
f 17/17/5/5 18/18/5/5 19/19/5/6 20/20/5/6
f 37/37/10/11 38/38/10/11 39/39/10/12 40/40/10/12
f 57/57/15/17 58/58/15/17 59/59/15/18 60/60/15/18
f 61/63/16/20 62/61/16/19 63/64/16/20 64/62/16/20
