mtllib Voltic-Cave_06_03.mtl
o map
v -14.0 -15.0 5.0
v -16.0 -15.0 5.0
v -16.0 -16.0 5.0
v -14.0 -16.0 5.0
v -16.0 -15.0 4.0
v -14.0 -15.0 4.0
v -14.0 -14.0 4.0
v -16.0 -14.0 4.0
v -16.0 -14.0 3.0
v -15.0 -14.0 3.0
v -15.0 -6.0 3.0
v -16.0 -6.0 3.0
v -16.0 -6.0 3.0
v -15.0 -6.0 3.0
v -15.0 2.0 3.0
v -16.0 2.0 3.0
v -16.0 2.0 3.0
v -15.0 2.0 3.0
v -15.0 10.0 3.0
v -16.0 10.0 3.0
v -16.0 10.0 3.0
v -15.0 10.0 3.0
v -15.0 15.0 3.0
v -16.0 15.0 3.0
v -16.0 15.0 4.0
v -14.0 15.0 4.0
v -14.0 16.0 4.0
v -16.0 16.0 4.0
v -15.0 -14.0 4.0
v -14.0 -14.0 4.0
v -14.0 -6.0 4.0
v -15.0 -6.0 4.0
v -15.0 -6.0 4.0
v -14.0 -6.0 4.0
v -14.0 2.0 4.0
v -15.0 2.0 4.0
v -15.0 2.0 4.0
v -14.0 2.0 4.0
v -14.0 10.0 4.0
v -15.0 10.0 4.0
v -15.0 10.0 4.0
v -14.0 10.0 4.0
v -14.0 15.0 4.0
v -15.0 15.0 4.0
v -13.0 -15.0 5.0
v -14.0 -15.0 5.0
v -14.0 -16.0 5.0
v -13.0 -16.0 5.0
v -13.0 -7.0 5.0
v -14.0 -7.0 5.0
v -14.0 -15.0 5.0
v -13.0 -15.0 5.0
v -13.0 1.0 5.0
v -14.0 1.0 5.0
v -14.0 -7.0 5.0
v -13.0 -7.0 5.0
v -13.0 9.0 5.0
v -14.0 9.0 5.0
v -14.0 1.0 5.0
v -13.0 1.0 5.0
v -13.0 16.0 5.0
v -14.0 16.0 5.0
v -14.0 9.0 5.0
v -13.0 9.0 5.0
v -13.0 -16.0 5.000002
v -5.0 -16.0 5.000002
v -5.0 -8.0 5.000003
v -13.0 -8.0 5.000003
v -13.0 -8.0 5.000002
v -5.0 -8.0 5.000002
v -5.0 0.0 5.000003
v -13.0 0.0 5.000003
v -13.0 0.0 5.000002
v -5.0 0.0 5.000002
v -5.0 8.0 5.000003
v -13.0 8.0 5.000003
v -13.0 8.0 5.000002
v -5.0 8.0 5.000002
v -5.0 16.0 5.000003
v -13.0 16.0 5.000003
v -5.0 -16.0 5.000002
v 3.0 -16.0 5.000002
v 3.0 -8.0 5.000003
v -5.0 -8.0 5.000003
v -5.0 -8.0 5.000002
v 3.0 -8.0 5.000002
v 3.0 0.0 5.000003
v -5.0 0.0 5.000003
v -5.0 0.0 5.000002
v 3.0 0.0 5.000002
v 3.0 8.0 5.000003
v -5.0 8.0 5.000003
v -5.0 8.0 5.000002
v 3.0 8.0 5.000002
v 3.0 16.0 5.000003
v -5.0 16.0 5.000003
v 3.0 -16.0 5.000002
v 11.0 -16.0 5.000002
v 11.0 -8.0 5.000003
v 3.0 -8.0 5.000003
v 3.0 -8.0 5.000002
v 11.0 -8.0 5.000002
v 11.0 0.0 5.000003
v 3.0 0.0 5.000003
v 3.0 0.0 5.000002
v 11.0 0.0 5.000002
v 11.0 8.0 5.000003
v 3.0 8.0 5.000003
v 3.0 8.0 5.000002
v 11.0 8.0 5.000002
v 11.0 16.0 5.000003
v 3.0 16.0 5.000003
v 11.0 -16.0 5.000002
v 16.0 -16.0 5.000002
v 16.0 -8.0 5.000003
v 11.0 -8.0 5.000003
v 11.0 -8.0 5.000002
v 16.0 -8.0 5.000002
v 16.0 0.0 5.000003
v 11.0 0.0 5.000003
v 11.0 0.0 5.000002
v 16.0 0.0 5.000002
v 16.0 8.0 5.000003
v 11.0 8.0 5.000003
v 11.0 8.0 5.000002
v 16.0 8.0 5.000002
v 16.0 16.0 5.000003
v 11.0 16.0 5.000003
v -15.0 -14.0 4.0
v -15.0 -14.625 4.875
v -15.0 -15.0 5.0
v -16.0 -14.625 4.875
v -16.0 -14.0 4.0
v -16.0 -15.0 5.0
v -15.375 -13.0 3.875
v -15.375 -14.0 3.875
v -15.0 -14.0 4.0
v -15.0 -13.0 4.0
v -16.0 -13.0 3.0
v -16.0 -14.0 3.0
v -15.375 -14.0 3.875
v -15.375 -13.0 3.875
v -15.0 -13.625 3.875
v -16.0 -13.625 3.875
v -16.0 -14.0 4.0
v -15.0 -14.0 4.0
v -15.0 -13.0 3.0
v -16.0 -13.0 3.0
v -16.0 -13.625 3.875
v -15.0 -13.625 3.875
v -16.0 -5.0 3.0
v -15.375 -5.0 3.875
v -15.0 -5.0 4.0
v -15.375 -13.0 3.875
v -16.0 -13.0 3.0
v -15.0 -13.0 4.0
v -16.0 3.0 3.0
v -15.375 3.0 3.875
v -15.0 3.0 4.0
v -15.375 -5.0 3.875
v -16.0 -5.0 3.0
v -15.0 -5.0 4.0
v -16.0 11.0 3.0
v -15.375 11.0 3.875
v -15.0 11.0 4.0
v -15.375 3.0 3.875
v -16.0 3.0 3.0
v -15.0 3.0 4.0
v -16.0 14.0 3.0
v -15.375 14.0 3.875
v -15.0 14.0 4.0
v -15.375 11.0 3.875
v -16.0 11.0 3.0
v -15.0 11.0 4.0
v -16.0 14.625 3.875
v -15.0 14.625 3.875
v -15.0 15.0 4.0
v -16.0 15.0 4.0
v -16.0 14.0 3.0
v -15.0 14.0 3.0
v -15.0 14.625 3.875
v -16.0 14.625 3.875
v -15.375 15.0 3.875
v -15.375 14.0 3.875
v -15.0 14.0 4.0
v -15.0 15.0 4.0
v -16.0 15.0 3.0
v -16.0 14.0 3.0
v -15.375 14.0 3.875
v -15.375 15.0 3.875
v -16.0 15.0 4.0
v -16.0 15.625 4.875
v -16.0 16.0 5.0
v -15.0 15.625 4.875
v -15.0 15.0 4.0
v -15.0 16.0 5.0
v -14.375 -14.0 4.875
v -14.375 -15.0 4.875
v -14.0 -15.0 5.0
v -14.0 -14.0 5.0
v -15.0 -14.0 4.0
v -15.0 -15.0 4.0
v -14.375 -15.0 4.875
v -14.375 -14.0 4.875
v -14.0 -14.625 4.875
v -15.0 -14.625 4.875
v -15.0 -15.0 5.0
v -14.0 -15.0 5.0
v -14.0 -14.0 4.0
v -15.0 -14.0 4.0
v -15.0 -14.625 4.875
v -14.0 -14.625 4.875
v -15.0 -6.0 4.0
v -14.375 -6.0 4.875
v -14.0 -6.0 5.0
v -14.375 -14.0 4.875
v -15.0 -14.0 4.0
v -14.0 -14.0 5.0
v -15.0 2.0 4.0
v -14.375 2.0 4.875
v -14.0 2.0 5.0
v -14.375 -6.0 4.875
v -15.0 -6.0 4.0
v -14.0 -6.0 5.0
v -15.0 10.0 4.0
v -14.375 10.0 4.875
v -14.0 10.0 5.0
v -14.375 2.0 4.875
v -15.0 2.0 4.0
v -14.0 2.0 5.0
v -15.0 15.0 4.0
v -14.375 15.0 4.875
v -14.0 15.0 5.0
v -14.375 10.0 4.875
v -15.0 10.0 4.0
v -14.0 10.0 5.0
v -15.0 15.625 4.875
v -14.0 15.625 4.875
v -14.0 16.0 5.0
v -15.0 16.0 5.0
v -15.0 15.0 4.0
v -14.0 15.0 4.0
v -14.0 15.625 4.875
v -15.0 15.625 4.875
v -14.375 16.0 4.875
v -14.375 15.0 4.875
v -14.0 15.0 5.0
v -14.0 16.0 5.0
v -15.0 16.0 4.0
v -15.0 15.0 4.0
v -14.375 15.0 4.875
v -14.375 16.0 4.875
vt 1.0 0.5
vt 0.0 0.5
vt 0.0 0.0
vt 1.0 0.0
vt 1.0 1.0
vt 0.0 1.0
vt 0.0 0.5
vt 1.0 0.5
vt 0.5 5.0
vt 0.0 5.0
vt 0.0 1.0
vt 0.5 1.0
vt 0.5 9.0
vt 0.0 9.0
vt 0.0 5.0
vt 0.5 5.0
vt 0.5 13.0
vt 0.0 13.0
vt 0.0 9.0
vt 0.5 9.0
vt 0.0 13.0
vt 0.5 13.0
vt 0.5 15.5
vt 0.0 15.5
vt 1.0 16.0
vt 0.0 16.0
vt 0.0 15.5
vt 1.0 15.5
vt 1.0 5.0
vt 0.5 5.0
vt 0.5 1.0
vt 1.0 1.0
vt 1.0 9.0
vt 0.5 9.0
vt 0.5 5.0
vt 1.0 5.0
vt 1.0 13.0
vt 0.5 13.0
vt 0.5 9.0
vt 1.0 9.0
vt 0.5 13.0
vt 1.0 13.0
vt 1.0 15.5
vt 0.5 15.5
vt 1.5 0.5
vt 1.0 0.5
vt 1.0 0.0
vt 1.5 0.0
vt 1.5 4.5
vt 1.0 4.5
vt 1.0 0.5
vt 1.5 0.5
vt 1.0 4.5
vt 1.5 4.5
vt 1.5 8.5
vt 1.0 8.5
vt 1.5 12.5
vt 1.0 12.5
vt 1.0 8.5
vt 1.5 8.5
vt 1.5 16.0
vt 1.0 16.0
vt 1.0 12.5
vt 1.5 12.5
vt 0.0625 0.9375
vt 0.0625 0.9375
vt 0.0625 0.9375
vt 0.0625 0.9375
vt 0.0625 0.9375
vt 0.0625 0.9375
vt 0.0625 0.9375
vt 0.0625 0.9375
vt 0.0625 0.9375
vt 0.0625 0.9375
vt 0.0625 0.9375
vt 0.0625 0.9375
vt 0.0625 0.9375
vt 0.0625 0.9375
vt 0.0625 0.9375
vt 0.0625 0.9375
vt 0.0625 0.9375
vt 0.0625 0.9375
vt 0.0625 0.9375
vt 0.0625 0.9375
vt 0.0625 0.9375
vt 0.0625 0.9375
vt 0.0625 0.9375
vt 0.0625 0.9375
vt 0.0625 0.9375
vt 0.0625 0.9375
vt 0.0625 0.9375
vt 0.0625 0.9375
vt 0.0625 0.9375
vt 0.0625 0.9375
vt 0.0625 0.9375
vt 0.0625 0.9375
vt 0.0625 0.9375
vt 0.0625 0.9375
vt 0.0625 0.9375
vt 0.0625 0.9375
vt 0.0625 0.9375
vt 0.0625 0.9375
vt 0.0625 0.9375
vt 0.0625 0.9375
vt 0.0625 0.9375
vt 0.0625 0.9375
vt 0.0625 0.9375
vt 0.0625 0.9375
vt 0.0625 0.9375
vt 0.0625 0.9375
vt 0.0625 0.9375
vt 0.0625 0.9375
vt 0.0625 0.9375
vt 0.0625 0.9375
vt 0.0625 0.9375
vt 0.0625 0.9375
vt 0.0625 0.9375
vt 0.0625 0.9375
vt 0.0625 0.9375
vt 0.0625 0.9375
vt 0.0625 0.9375
vt 0.0625 0.9375
vt 0.0625 0.9375
vt 0.0625 0.9375
vt 0.0625 0.9375
vt 0.0625 0.9375
vt 0.0625 0.9375
vt 0.0625 0.9375
vt -3.642857 -0.375
vt -3.642857 0.0
vt -4.0 0.0
vt -4.0 -0.375
vt -3.642857 -1.0
vt -4.0 -1.0
vt 0.25 -0.375
vt 0.0 -0.375
vt 0.0 0.0
vt 0.25 0.0
vt 0.25 -1.0
vt 0.0 -1.0
vt 0.0 -0.375
vt 0.25 -0.375
vt 0.25 -0.375
vt 0.0 -0.375
vt 0.0 0.0
vt 0.25 0.0
vt 0.25 -1.0
vt 0.0 -1.0
vt 0.0 -0.375
vt 0.25 -0.375
vt -29.142857 -0.375
vt -29.142857 0.0
vt -32.0 0.0
vt -32.0 -0.375
vt -29.142857 -1.0
vt -32.0 -1.0
vt -29.142857 -0.375
vt -29.142857 0.0
vt -32.0 0.0
vt -32.0 -0.375
vt -29.142857 -1.0
vt -32.0 -1.0
vt -29.142857 -0.375
vt -29.142857 0.0
vt -32.0 0.0
vt -32.0 -0.375
vt -29.142857 -1.0
vt -32.0 -1.0
vt -10.928572 -0.375
vt -10.928572 0.0
vt -12.0 0.0
vt -12.0 -0.375
vt -10.928572 -1.0
vt -12.0 -1.0
vt 0.25 -0.375
vt 0.0 -0.375
vt 0.0 0.0
vt 0.25 0.0
vt 0.25 -1.0
vt 0.0 -1.0
vt 0.0 -0.375
vt 0.25 -0.375
vt 0.25 -0.375
vt 0.0 -0.375
vt 0.0 0.0
vt 0.25 0.0
vt 0.25 -1.0
vt 0.0 -1.0
vt 0.0 -0.375
vt 0.25 -0.375
vt -3.642857 -0.375
vt -3.642857 0.0
vt -4.0 0.0
vt -4.0 -0.375
vt -3.642857 -1.0
vt -4.0 -1.0
vt 0.25 -0.375
vt 0.0 -0.375
vt 0.0 0.0
vt 0.25 0.0
vt 0.25 -1.0
vt 0.0 -1.0
vt 0.0 -0.375
vt 0.25 -0.375
vt 0.25 -0.375
vt 0.0 -0.375
vt 0.0 0.0
vt 0.25 0.0
vt 0.25 -1.0
vt 0.0 -1.0
vt 0.0 -0.375
vt 0.25 -0.375
vt -29.142857 -0.375
vt -29.142857 0.0
vt -32.0 0.0
vt -32.0 -0.375
vt -29.142857 -1.0
vt -32.0 -1.0
vt -29.142857 -0.375
vt -29.142857 0.0
vt -32.0 0.0
vt -32.0 -0.375
vt -29.142857 -1.0
vt -32.0 -1.0
vt -29.142857 -0.375
vt -29.142857 0.0
vt -32.0 0.0
vt -32.0 -0.375
vt -29.142857 -1.0
vt -32.0 -1.0
vt -18.214285 -0.375
vt -18.214285 0.0
vt -20.0 0.0
vt -20.0 -0.375
vt -18.214285 -1.0
vt -20.0 -1.0
vt 0.25 -0.375
vt 0.0 -0.375
vt 0.0 0.0
vt 0.25 0.0
vt 0.25 -1.0
vt 0.0 -1.0
vt 0.0 -0.375
vt 0.25 -0.375
vt 0.25 -0.375
vt 0.0 -0.375
vt 0.0 0.0
vt 0.25 0.0
vt 0.25 -1.0
vt 0.0 -1.0
vt 0.0 -0.375
vt 0.25 -0.375
vn 0.0 -0.0 1.0
vn 0.0 -0.0 1.0
vn 0.0 -0.0 1.0
vn 0.0 -0.0 1.0
vn 0.0 -0.0 1.0
vn 0.0 -0.0 1.0
vn 0.0 -0.0 1.0
vn 0.0 -0.0 1.0
vn 0.0 -0.0 1.0
vn 0.0 -0.0 1.0
vn 0.0 -0.0 1.0
vn 0.0 -0.0 1.0
vn 0.0 -0.0 1.0
vn 0.0 -0.0 1.0
vn 0.0 -0.0 1.0
vn 0.0 -0.0 1.0
vn 0.0 -0.0 1.0
vn 0.0 -0.0 1.0
vn 0.0 -0.0 1.0
vn 0.0 -0.0 1.0
vn 0.0 -0.0 1.0
vn 0.0 -0.0 1.0
vn 0.0 -0.0 1.0
vn 0.0 -0.0 1.0
vn 0.0 -0.0 1.0
vn 0.0 -0.0 1.0
vn 0.0 -0.0 1.0
vn 0.0 -0.0 1.0
vn 0.0 -0.0 1.0
vn 0.0 -0.0 1.0
vn 0.0 -0.0 1.0
vn 0.0 -0.0 1.0
vn -0.0 0.5941 0.8044
vn -0.0 0.3162 0.9487
vn -0.0 0.8137 0.5812
vn -0.3162 -0.0 0.9487
vn -0.8137 -0.0 0.5812
vn 0.0 0.3162 0.9487
vn 0.0 0.8137 0.5812
vn -0.5941 -0.0 0.8044
vn -0.3162 -0.0 0.9487
vn -0.8137 -0.0 0.5812
vn -0.5941 -0.0 0.8044
vn -0.3162 -0.0 0.9487
vn -0.8137 -0.0 0.5812
vn -0.5941 -0.0 0.8044
vn -0.3162 -0.0 0.9487
vn -0.8137 -0.0 0.5812
vn -0.5941 -0.0 0.8044
vn -0.3162 -0.0 0.9487
vn -0.8137 -0.0 0.5812
vn 0.0 -0.3162 0.9487
vn 0.0 -0.8137 0.5812
vn -0.3162 0.0 0.9487
vn -0.8137 0.0 0.5812
vn 0.0 -0.5941 0.8044
vn 0.0 -0.3162 0.9487
vn 0.0 -0.8137 0.5812
vn -0.3162 -0.0 0.9487
vn -0.8137 -0.0 0.5812
vn 0.0 0.3162 0.9487
vn 0.0 0.8137 0.5812
vn -0.5941 -0.0 0.8044
vn -0.3162 -0.0 0.9487
vn -0.8137 -0.0 0.5812
vn -0.5941 -0.0 0.8044
vn -0.3162 -0.0 0.9487
vn -0.8137 -0.0 0.5812
vn -0.5941 -0.0 0.8044
vn -0.3162 -0.0 0.9487
vn -0.8137 -0.0 0.5812
vn -0.5941 -0.0 0.8044
vn -0.3162 -0.0 0.9487
vn -0.8137 -0.0 0.5812
vn 0.0 -0.3162 0.9487
vn 0.0 -0.8137 0.5812
vn -0.3162 0.0 0.9487
vn -0.8137 0.0 0.5812
c 1.0 1.0 1.0
c 0.011764706 0.011764706 0.011764706
c 1.0 1.0 1.0
c 1.0 1.0 1.0
c 1.0 1.0 1.0
c 1.0 1.0 1.0
c 1.0 1.0 1.0
c 1.0 1.0 1.0
c 1.0 1.0 1.0
c 1.0 1.0 1.0
c 1.0 1.0 1.0
c 1.0 1.0 1.0
c 1.0 1.0 1.0
c 0.011764706 0.011764706 0.011764706
c 1.0 1.0 1.0
c 0.011764706 0.011764706 0.011764706
c 1.0 1.0 1.0
c 0.011764706 0.011764706 0.011764706
c 1.0 1.0 1.0
c 0.011764706 0.011764706 0.011764706
c 1.0 1.0 1.0
c 0.011764706 0.011764706 0.011764706
c 1.0 1.0 1.0
c 1.0 1.0 1.0
c 1.0 1.0 1.0
c 1.0 1.0 1.0
c 1.0 1.0 1.0
c 1.0 1.0 1.0
c 1.0 1.0 1.0
c 1.0 1.0 1.0
c 1.0 1.0 1.0
c 1.0 1.0 1.0
c 1.0 1.0 1.0
c 1.0 1.0 1.0
c 1.0 1.0 1.0
c 1.0 1.0 1.0
c 1.0 1.0 1.0
c 1.0 1.0 1.0
c 1.0 1.0 1.0
c 1.0 1.0 1.0
c 1.0 1.0 1.0
c 1.0 1.0 1.0
c 1.0 1.0 1.0
c 1.0 1.0 1.0
c 1.0 1.0 1.0
c 1.0 1.0 1.0
c 1.0 1.0 1.0
c 1.0 1.0 1.0
c 1.0 1.0 1.0
c 1.0 1.0 1.0
c 1.0 1.0 1.0
c 1.0 1.0 1.0
usemtl d0gake_heri
s off
f 65/65/17/23 66/66/17/23 67/67/17/23 68/68/17/23
f 69/69/18/24 70/70/18/24 71/71/18/24 72/72/18/24
f 73/73/19/25 74/74/19/25 75/75/19/25 76/76/19/25
f 77/77/20/26 78/78/20/26 79/79/20/26 80/80/20/26
f 81/81/21/27 82/82/21/27 83/83/21/27 84/84/21/27
f 85/85/22/28 86/86/22/28 87/87/22/28 88/88/22/28
f 89/89/23/29 90/90/23/29 91/91/23/29 92/92/23/29
f 93/93/24/30 94/94/24/30 95/95/24/30 96/96/24/30
f 97/97/25/31 98/98/25/31 99/99/25/31 100/100/25/31
f 101/101/26/32 102/102/26/32 103/103/26/32 104/104/26/32
f 105/105/27/33 106/106/27/33 107/107/27/33 108/108/27/33
f 109/109/28/34 110/110/28/34 111/111/28/34 112/112/28/34
f 113/113/29/35 114/114/29/35 115/115/29/35 116/116/29/35
f 117/117/30/36 118/118/30/36 119/119/30/36 120/120/30/36
f 121/121/31/37 122/122/31/37 123/123/31/37 124/124/31/37
f 125/125/32/38 126/126/32/38 127/127/32/38 128/128/32/38
usemtl yuka_001
s off
f 1/1/1/1 2/2/1/1 3/3/1/2 4/4/1/2
f 7/5/2/3 8/6/2/3 5/7/2/3 6/8/2/3
f 11/9/3/4 12/10/3/4 9/11/3/4 10/12/3/4
f 15/13/4/5 16/14/4/5 13/15/4/5 14/16/4/5
f 19/17/5/6 20/18/5/6 17/19/5/6 18/20/5/6
f 23/23/6/7 24/24/6/7 21/21/6/7 22/22/6/7
f 27/25/7/8 28/26/7/8 25/27/7/8 26/28/7/8
f 31/29/8/9 32/30/8/9 29/31/8/9 30/32/8/9
f 35/33/9/10 36/34/9/10 33/35/9/10 34/36/9/10
f 39/37/10/11 40/38/10/11 37/39/10/11 38/40/10/11
f 43/43/11/12 44/44/11/12 41/41/11/12 42/42/11/12
f 45/45/12/14 46/46/12/13 47/47/12/14 48/48/12/14
f 49/49/13/16 50/50/13/15 51/51/13/15 52/52/13/16
f 53/55/14/18 54/56/14/17 55/53/14/17 56/54/14/18
f 57/57/15/20 58/58/15/19 59/59/15/19 60/60/15/20
f 61/61/16/22 62/62/16/21 63/63/16/21 64/64/16/22
usemtl d6gake_002
s off
f 135/135/36/40 136/136/36/40 137/137/36/40 138/138/36/40
f 139/139/37/40 140/140/37/40 141/141/37/40 142/142/37/40
f 143/143/38/40 144/144/38/40 145/145/38/40 146/146/38/40
f 147/147/39/40 148/148/39/40 149/149/39/40 150/150/39/40
f 175/175/52/45 176/176/52/45 177/177/52/45 178/178/52/45
f 179/179/53/45 180/180/53/45 181/181/53/45 182/182/53/45
f 183/183/54/45 184/184/54/45 185/185/54/45 186/186/54/45
f 187/187/55/45 188/188/55/45 189/189/55/45 190/190/55/45
f 197/197/59/47 198/198/59/47 199/199/59/47 200/200/59/47
f 201/201/60/47 202/202/60/47 203/203/60/47 204/204/60/47
f 205/205/61/47 206/206/61/47 207/207/61/47 208/208/61/47
f 209/209/62/47 210/210/62/47 211/211/62/47 212/212/62/47
f 237/237/75/52 238/238/75/52 239/239/75/52 240/240/75/52
f 241/241/76/52 242/242/76/52 243/243/76/52 244/244/76/52
f 245/245/77/52 246/246/77/52 247/247/77/52 248/248/77/52
f 249/249/78/52 250/250/78/52 251/251/78/52 252/252/78/52
usemtl d6gake_03
s off
f 132/129/33/39 134/130/34/39 131/131/34/39 130/132/33/39
f 133/133/35/39 132/129/33/39 130/132/33/39 129/134/35/39
f 154/151/40/41 156/152/41/41 153/153/41/41 152/154/40/41
f 155/155/42/41 154/151/40/41 152/154/40/41 151/156/42/41
f 160/157/43/42 162/158/44/42 159/159/44/42 158/160/43/42
f 161/161/45/42 160/157/43/42 158/160/43/42 157/162/45/42
f 166/163/46/43 168/164/47/43 165/165/47/43 164/166/46/43
f 167/167/48/43 166/163/46/43 164/166/46/43 163/168/48/43
f 172/169/49/44 174/170/50/44 171/171/50/44 170/172/49/44
f 173/173/51/44 172/169/49/44 170/172/49/44 169/174/51/44
f 194/191/56/46 196/192/57/46 193/193/57/46 192/194/56/46
f 195/195/58/46 194/191/56/46 192/194/56/46 191/196/58/46
f 216/213/63/48 218/214/64/48 215/215/64/48 214/216/63/48
f 217/217/65/48 216/213/63/48 214/216/63/48 213/218/65/48
f 222/219/66/49 224/220/67/49 221/221/67/49 220/222/66/49
f 223/223/68/49 222/219/66/49 220/222/66/49 219/224/68/49
f 228/225/69/50 230/226/70/50 227/227/70/50 226/228/69/50
f 229/229/71/50 228/225/69/50 226/228/69/50 225/230/71/50
f 234/231/72/51 236/232/73/51 233/233/73/51 232/234/72/51
f 235/235/74/51 234/231/72/51 232/234/72/51 231/236/74/51
