mtllib Voltic-Cave_04_03.mtl
o map
v -16.0 -16.0 5.000002
v -8.0 -16.0 5.000002
v -8.0 -8.0 5.000003
v -16.0 -8.0 5.000003
v -16.0 -8.0 5.000002
v -8.0 -8.0 5.000002
v -8.0 0.0 5.000003
v -16.0 0.0 5.000003
v -16.0 0.0 5.000002
v -8.0 0.0 5.000002
v -8.0 8.0 5.000003
v -16.0 8.0 5.000003
v -16.0 8.0 5.000002
v -8.0 8.0 5.000002
v -8.0 16.0 5.000003
v -16.0 16.0 5.000003
v -8.0 -16.0 5.000002
v 0.0 -16.0 5.000002
v 0.0 -8.0 5.000003
v -8.0 -8.0 5.000003
v -8.0 -8.0 5.000002
v 0.0 -8.0 5.000002
v 0.0 0.0 5.000003
v -8.0 0.0 5.000003
v -8.0 0.0 5.000002
v 0.0 0.0 5.000002
v 0.0 8.0 5.000003
v -8.0 8.0 5.000003
v -8.0 8.0 5.000002
v 0.0 8.0 5.000002
v 0.0 16.0 5.000003
v -8.0 16.0 5.000003
v 0.0 -16.0 5.000002
v 8.0 -16.0 5.000002
v 8.0 -8.0 5.000003
v 0.0 -8.0 5.000003
v 0.0 -8.0 5.000002
v 8.0 -8.0 5.000002
v 8.0 0.0 5.000003
v 0.0 0.0 5.000003
v 0.0 0.0 5.000002
v 8.0 0.0 5.000002
v 8.0 8.0 5.000003
v 0.0 8.0 5.000003
v 0.0 8.0 5.000002
v 8.0 8.0 5.000002
v 8.0 16.0 5.000003
v 0.0 16.0 5.000003
v 8.0 -16.0 5.000002
v 14.0 -16.0 5.000002
v 14.0 -8.0 5.000003
v 8.0 -8.0 5.000003
v 8.0 -8.0 5.000002
v 14.0 -8.0 5.000002
v 14.0 0.0 5.000003
v 8.0 0.0 5.000003
v 8.0 0.0 5.000002
v 14.0 0.0 5.000002
v 14.0 8.0 5.000003
v 8.0 8.0 5.000003
v 8.0 8.0 5.000002
v 14.0 8.0 5.000002
v 14.0 16.0 5.000003
v 8.0 16.0 5.000003
v 15.0 -15.0 5.0
v 14.0 -15.0 5.0
v 14.0 -16.0 5.0
v 15.0 -16.0 5.0
v 15.0 -7.0 5.0
v 14.0 -7.0 5.0
v 14.0 -15.0 5.0
v 15.0 -15.0 5.0
v 15.0 1.0 5.0
v 14.0 1.0 5.0
v 14.0 -7.0 5.0
v 15.0 -7.0 5.0
v 15.0 9.0 5.0
v 14.0 9.0 5.0
v 14.0 1.0 5.0
v 15.0 1.0 5.0
v 15.0 16.0 5.0
v 14.0 16.0 5.0
v 14.0 9.0 5.0
v 15.0 9.0 5.0
v 16.0 -15.0 5.0
v 15.0 -15.0 5.0
v 15.0 -16.0 5.0
v 16.0 -16.0 5.0
v 15.0 -15.0 4.0
v 16.0 -15.0 4.0
v 16.0 -7.0 4.0
v 15.0 -7.0 4.0
v 15.0 -7.0 4.0
v 16.0 -7.0 4.0
v 16.0 1.0 4.0
v 15.0 1.0 4.0
v 15.0 1.0 4.0
v 16.0 1.0 4.0
v 16.0 9.0 4.0
v 15.0 9.0 4.0
v 15.0 9.0 4.0
v 16.0 9.0 4.0
v 16.0 16.0 4.0
v 15.0 16.0 4.0
v 15.0 -14.625 4.875
v 15.0 -15.0 5.0
v 16.0 -15.0 5.0
v 16.0 -14.625 4.875
v 15.0 -14.0 4.0
v 16.0 -14.0 4.0
v 15.375 -14.0 4.875
v 15.0 -14.0 5.0
v 15.0 -15.0 5.0
v 15.375 -15.0 4.875
v 16.0 -14.0 4.0
v 16.0 -15.0 4.0
v 16.0 -14.0 4.0
v 15.375 -14.0 4.875
v 15.0 -14.0 5.0
v 15.375 -6.0 4.875
v 16.0 -6.0 4.0
v 15.0 -6.0 5.0
v 16.0 -6.0 4.0
v 15.375 -6.0 4.875
v 15.0 -6.0 5.0
v 15.375 2.0 4.875
v 16.0 2.0 4.0
v 15.0 2.0 5.0
v 16.0 2.0 4.0
v 15.375 2.0 4.875
v 15.0 2.0 5.0
v 15.375 10.0 4.875
v 16.0 10.0 4.0
v 15.0 10.0 5.0
v 16.0 10.0 4.0
v 15.375 10.0 4.875
v 15.0 10.0 5.0
v 15.375 15.0 4.875
v 16.0 15.0 4.0
v 15.0 15.0 5.0
v 15.375 16.0 4.875
v 15.0 16.0 5.0
v 15.0 15.0 5.0
v 15.375 15.0 4.875
v 16.0 16.0 4.0
v 16.0 15.0 4.0
v 16.0 15.625 4.875
v 16.0 16.0 5.0
v 15.0 16.0 5.0
v 15.0 15.625 4.875
v 16.0 15.0 4.0
v 15.0 15.0 4.0
vt 0.0625 0.9375
vt 0.0625 0.9375
vt 0.0625 0.9375
vt 0.0625 0.9375
vt 0.0625 0.9375
vt 0.0625 0.9375
vt 0.0625 0.9375
vt 0.0625 0.9375
vt 0.0625 0.9375
vt 0.0625 0.9375
vt 0.0625 0.9375
vt 0.0625 0.9375
vt 0.0625 0.9375
vt 0.0625 0.9375
vt 0.0625 0.9375
vt 0.0625 0.9375
vt 0.0625 0.9375
vt 0.0625 0.9375
vt 0.0625 0.9375
vt 0.0625 0.9375
vt 0.0625 0.9375
vt 0.0625 0.9375
vt 0.0625 0.9375
vt 0.0625 0.9375
vt 0.0625 0.9375
vt 0.0625 0.9375
vt 0.0625 0.9375
vt 0.0625 0.9375
vt 0.0625 0.9375
vt 0.0625 0.9375
vt 0.0625 0.9375
vt 0.0625 0.9375
vt 0.0625 0.9375
vt 0.0625 0.9375
vt 0.0625 0.9375
vt 0.0625 0.9375
vt 0.0625 0.9375
vt 0.0625 0.9375
vt 0.0625 0.9375
vt 0.0625 0.9375
vt 0.0625 0.9375
vt 0.0625 0.9375
vt 0.0625 0.9375
vt 0.0625 0.9375
vt 0.0625 0.9375
vt 0.0625 0.9375
vt 0.0625 0.9375
vt 0.0625 0.9375
vt 0.0625 0.9375
vt 0.0625 0.9375
vt 0.0625 0.9375
vt 0.0625 0.9375
vt 0.0625 0.9375
vt 0.0625 0.9375
vt 0.0625 0.9375
vt 0.0625 0.9375
vt 0.0625 0.9375
vt 0.0625 0.9375
vt 0.0625 0.9375
vt 0.0625 0.9375
vt 0.0625 0.9375
vt 0.0625 0.9375
vt 0.0625 0.9375
vt 0.0625 0.9375
vt 15.0 0.5
vt 15.0 0.0
vt 15.5 0.5
vt 15.5 0.0
vt 15.0 4.5
vt 15.0 0.5
vt 15.5 4.5
vt 15.5 0.5
vt 15.5 8.5
vt 15.0 4.5
vt 15.0 8.5
vt 15.5 4.5
vt 15.5 12.5
vt 15.5 8.5
vt 15.0 12.5
vt 15.0 8.5
vt 15.0 16.0
vt 15.5 12.5
vt 15.5 16.0
vt 15.0 12.5
vt 16.0 0.5
vt 16.0 0.0
vt 15.5 0.5
vt 15.5 0.0
vt 16.0 4.5
vt 16.0 0.5
vt 15.5 4.5
vt 15.5 0.5
vt 15.5 8.5
vt 16.0 4.5
vt 16.0 8.5
vt 15.5 4.5
vt 15.5 12.5
vt 15.5 8.5
vt 16.0 12.5
vt 16.0 8.5
vt 16.0 16.0
vt 15.5 12.5
vt 15.5 16.0
vt 16.0 12.5
vt -3.642857 -0.375
vt -3.642857 0.0
vt -4.0 0.0
vt -4.0 -0.375
vt -3.642857 -1.0
vt -4.0 -1.0
vt -3.642857 -0.375
vt -3.642857 0.0
vt -4.0 0.0
vt -4.0 -0.375
vt -3.642857 -1.0
vt -4.0 -1.0
vt -29.142857 -0.375
vt -29.142857 0.0
vt -32.0 0.0
vt -32.0 -0.375
vt -29.142857 -1.0
vt -32.0 -1.0
vt -29.142857 -0.375
vt -29.142857 0.0
vt -32.0 0.0
vt -32.0 -0.375
vt -29.142857 -1.0
vt -32.0 -1.0
vt -29.142857 -0.375
vt -29.142857 0.0
vt -32.0 0.0
vt -32.0 -0.375
vt -29.142857 -1.0
vt -32.0 -1.0
vt -18.214285 -0.375
vt -18.214285 0.0
vt -20.0 0.0
vt -20.0 -0.375
vt -18.214285 -1.0
vt -20.0 -1.0
vt -3.642857 -0.375
vt -3.642857 0.0
vt -4.0 0.0
vt -4.0 -0.375
vt -3.642857 -1.0
vt -4.0 -1.0
vt -3.642857 -0.375
vt -3.642857 0.0
vt -4.0 0.0
vt -4.0 -0.375
vt -3.642857 -1.0
vt -4.0 -1.0
vn 0.0 -0.0 1.0
vn 0.0 -0.0 1.0
vn 0.0 -0.0 1.0
vn 0.0 -0.0 1.0
vn 0.0 -0.0 1.0
vn 0.0 -0.0 1.0
vn 0.0 -0.0 1.0
vn 0.0 -0.0 1.0
vn 0.0 -0.0 1.0
vn 0.0 -0.0 1.0
vn 0.0 -0.0 1.0
vn 0.0 -0.0 1.0
vn 0.0 -0.0 1.0
vn 0.0 -0.0 1.0
vn 0.0 -0.0 1.0
vn 0.0 -0.0 1.0
vn 0.0 -0.0 1.0
vn 0.0 -0.0 1.0
vn 0.0 -0.0 1.0
vn 0.0 -0.0 1.0
vn 0.0 -0.0 1.0
vn 0.0 -0.0 1.0
vn 0.0 -0.0 1.0
vn 0.0 -0.0 1.0
vn 0.0 -0.0 1.0
vn 0.0 -0.0 1.0
vn -0.0 0.5941 0.8044
vn -0.0 0.3162 0.9487
vn -0.0 0.8137 0.5812
vn 0.5941 -0.0 0.8044
vn 0.3162 -0.0 0.9487
vn 0.8137 -0.0 0.5812
vn 0.5941 0.0 0.8044
vn 0.3162 0.0 0.9487
vn 0.8137 0.0 0.5812
vn 0.5941 0.0 0.8044
vn 0.3162 0.0 0.9487
vn 0.8137 0.0 0.5812
vn 0.5941 0.0 0.8044
vn 0.3162 0.0 0.9487
vn 0.8137 0.0 0.5812
vn 0.5941 0.0 0.8044
vn 0.3162 0.0 0.9487
vn 0.8137 0.0 0.5812
vn 0.5941 0.0 0.8044
vn 0.3162 0.0 0.9487
vn 0.8137 0.0 0.5812
vn -0.0 -0.5941 0.8044
vn -0.0 -0.3162 0.9487
vn -0.0 -0.8137 0.5812
c 1.0 1.0 1.0
c 1.0 1.0 1.0
c 1.0 1.0 1.0
c 1.0 1.0 1.0
c 1.0 1.0 1.0
c 1.0 1.0 1.0
c 1.0 1.0 1.0
c 1.0 1.0 1.0
c 1.0 1.0 1.0
c 1.0 1.0 1.0
c 1.0 1.0 1.0
c 1.0 1.0 1.0
c 1.0 1.0 1.0
c 1.0 1.0 1.0
c 1.0 1.0 1.0
c 1.0 1.0 1.0
c 1.0 1.0 1.0
c 0.011764706 0.011764706 0.011764706
c 1.0 1.0 1.0
c 0.011764706 0.011764706 0.011764706
c 1.0 1.0 1.0
c 0.011764706 0.011764706 0.011764706
c 1.0 1.0 1.0
c 0.011764706 0.011764706 0.011764706
c 1.0 1.0 1.0
c 0.011764706 0.011764706 0.011764706
c 1.0 1.0 1.0
c 0.011764706 0.011764706 0.011764706
c 1.0 1.0 1.0
c 1.0 1.0 1.0
c 1.0 1.0 1.0
c 1.0 1.0 1.0
c 1.0 1.0 1.0
c 1.0 1.0 1.0
c 1.0 1.0 1.0
c 1.0 1.0 1.0
c 1.0 1.0 1.0
c 1.0 1.0 1.0
usemtl d0gake_heri
s off
f 1/1/1/1 2/2/1/1 3/3/1/1 4/4/1/1
f 5/5/2/2 6/6/2/2 7/7/2/2 8/8/2/2
f 9/9/3/3 10/10/3/3 11/11/3/3 12/12/3/3
f 13/13/4/4 14/14/4/4 15/15/4/4 16/16/4/4
f 17/17/5/5 18/18/5/5 19/19/5/5 20/20/5/5
f 21/21/6/6 22/22/6/6 23/23/6/6 24/24/6/6
f 25/25/7/7 26/26/7/7 27/27/7/7 28/28/7/7
f 29/29/8/8 30/30/8/8 31/31/8/8 32/32/8/8
f 33/33/9/9 34/34/9/9 35/35/9/9 36/36/9/9
f 37/37/10/10 38/38/10/10 39/39/10/10 40/40/10/10
f 41/41/11/11 42/42/11/11 43/43/11/11 44/44/11/11
f 45/45/12/12 46/46/12/12 47/47/12/12 48/48/12/12
f 49/49/13/13 50/50/13/13 51/51/13/13 52/52/13/13
f 53/53/14/14 54/54/14/14 55/55/14/14 56/56/14/14
f 57/57/15/15 58/58/15/15 59/59/15/15 60/60/15/15
f 61/61/16/16 62/62/16/16 63/63/16/16 64/64/16/16
usemtl yuka_001
s off
f 65/67/17/17 66/65/17/18 67/66/17/18 68/68/17/18
f 69/71/18/19 70/69/18/20 71/70/18/20 72/72/18/19
f 73/73/19/21 74/75/19/22 75/74/19/22 76/76/19/21
f 77/77/20/23 78/79/20/24 79/80/20/24 80/78/20/23
f 81/83/21/25 82/81/21/26 83/84/21/26 84/82/21/25
f 85/85/22/27 86/87/22/27 87/88/22/28 88/86/22/28
f 91/89/23/29 92/91/23/29 89/92/23/29 90/90/23/29
f 95/95/24/30 96/93/24/30 93/96/24/30 94/94/24/30
f 99/99/25/31 100/97/25/31 97/98/25/31 98/100/25/31
f 103/101/26/32 104/103/26/32 101/102/26/32 102/104/26/32
usemtl d6gake_03
s off
f 105/105/27/33 106/106/28/33 107/107/28/33 108/108/27/33
f 109/109/29/33 105/105/27/33 108/108/27/33 110/110/29/33
f 111/111/30/33 112/112/31/33 113/113/31/33 114/114/30/33
f 115/115/32/33 111/111/30/33 114/114/30/33 116/116/32/33
f 120/117/33/34 122/118/34/34 119/119/34/34 118/120/33/34
f 121/121/35/34 120/117/33/34 118/120/33/34 117/122/35/34
f 126/123/36/35 128/124/37/35 125/125/37/35 124/126/36/35
f 127/127/38/35 126/123/36/35 124/126/36/35 123/128/38/35
f 132/129/39/36 134/130/40/36 131/131/40/36 130/132/39/36
f 133/133/41/36 132/129/39/36 130/132/39/36 129/134/41/36
f 138/135/42/37 140/136/43/37 137/137/43/37 136/138/42/37
f 139/139/44/37 138/135/42/37 136/138/42/37 135/140/44/37
f 141/141/45/38 142/142/46/38 143/143/46/38 144/144/45/38
f 145/145/47/38 141/141/45/38 144/144/45/38 146/146/47/38
f 147/147/48/38 148/148/49/38 149/149/49/38 150/150/48/38
f 151/151/50/38 147/147/48/38 150/150/48/38 152/152/50/38
