# Blender 4.0.0
# www.blender.org
mtllib GYMSTAGELESS1-2.mtl
o polygon2
v 1.125000 0.250000 2.098665
v 1.125000 1.500000 2.098665
v 0.812500 0.250000 1.786165
v 0.812500 1.500000 1.786165
v 0.375000 0.250000 1.786165
v 0.375000 1.500000 1.786165
v -0.625000 0.250000 1.786165
v -0.625000 1.500000 1.786165
v -1.062500 0.250000 1.786165
v -1.062500 1.500000 1.786165
v -1.375000 0.250000 2.098665
v -1.375000 1.500000 2.098665
v 1.125000 0.250000 2.098665
v 1.125000 0.250000 2.786165
v 1.125000 1.500000 2.786165
v 1.125000 1.500000 2.098665
v -1.375000 0.250000 2.098665
v -1.375000 1.500000 2.098665
v -1.375000 1.500000 2.786165
v -1.375000 0.250000 2.786165
vn 0.7071 -0.0000 -0.7071
vn -0.0000 -0.0000 -1.0000
vn -0.7071 -0.0000 -0.7071
vn 1.0000 -0.0000 -0.0000
vn -1.0000 -0.0000 -0.0000
vt -3.000000 -0.617188
vt -2.000000 -0.617188
vt -3.000000 -0.335938
vt -2.000000 -0.335938
vt -1.000000 -0.617188
vt -1.000000 -0.335938
s 0
usemtl c4g_kabe02
f 1/1/1 3/2/1 2/3/1
f 2/3/1 3/2/1 4/4/1
f 3/2/2 5/5/2 4/4/2
f 4/4/2 5/5/2 6/6/2
f 7/5/2 9/2/2 8/6/2
f 8/6/2 9/2/2 10/4/2
f 9/2/3 11/1/3 10/4/3
f 10/4/3 11/1/3 12/3/3
f 13/2/4 15/3/4 14/1/4
f 15/3/4 13/2/4 16/4/4
f 17/2/5 19/3/5 18/4/5
f 19/3/5 17/2/5 20/1/5
o polygon3
v 1.125000 1.500000 2.098665
v 1.000000 1.500000 2.161165
v 0.750000 1.500000 1.911165
v 0.812500 1.500000 1.786165
v -1.062500 1.500000 1.786165
v -1.000000 1.500000 1.911165
v -1.250000 1.500000 2.161165
v -1.375000 1.500000 2.098665
v 0.250000 1.500000 1.786165
v 0.250000 1.500000 1.911165
v 0.250000 1.250000 1.911165
v 0.250000 1.250000 1.661165
v -0.500000 1.500000 1.911165
v -0.500000 1.500000 1.786165
v -0.500000 1.250000 1.661165
v -0.500000 1.250000 1.911165
v 0.250000 1.250000 1.661165
v 0.375000 1.250000 1.661165
v 0.375000 1.500000 1.786165
v 0.250000 1.500000 1.786165
v -0.625000 1.250000 1.661165
v -0.500000 1.250000 1.661165
v -0.500000 1.500000 1.786165
v -0.625000 1.500000 1.786165
v 1.125000 1.500000 2.786165
v 1.000000 1.500000 2.911165
v 1.000000 1.500000 2.161165
v 1.125000 1.500000 2.098665
v -1.375000 1.500000 2.098665
v -1.250000 1.500000 2.161165
v -1.250000 1.500000 2.911165
v -1.375000 1.500000 2.786165
v 0.812500 1.500000 1.786165
v 0.750000 1.500000 1.911165
v 0.250000 1.500000 1.911165
v 0.375000 1.500000 1.786165
v -0.625000 1.500000 1.786165
v -0.500000 1.500000 1.911165
v -1.000000 1.500000 1.911165
v -1.062500 1.500000 1.786165
v -0.625000 0.750000 1.161165
v -0.500000 0.750000 1.161165
v -0.500000 1.250000 1.661165
v -0.625000 1.250000 1.661165
v 0.250000 0.750000 1.161165
v 0.375000 0.750000 1.161165
v 0.375000 1.250000 1.661165
v 0.250000 1.250000 1.661165
v 0.250000 1.500000 1.786165
v 0.375000 1.500000 1.786165
v 0.250000 1.500000 1.911165
v -0.625000 1.500000 1.786165
v -0.500000 1.500000 1.786165
v -0.500000 1.500000 1.911165
vn -0.0000 1.0000 -0.0000
vn -1.0000 -0.0000 -0.0000
vn 1.0000 -0.0000 -0.0000
vn -0.0000 0.4472 -0.8944
vn -0.0000 0.7071 -0.7071
vt 0.000000 -3.875000
vt 0.500000 -3.062500
vt 0.500000 -3.875000
vt 0.000000 -3.062500
vt 0.000000 -3.964844
vt 0.500000 -3.964844
vt 0.500000 0.000000
vt 0.500000 -1.000000
vt 1.000000 0.000000
vt 1.000000 -1.000000
vt 0.000000 -1.000000
vt 0.000000 0.000000
vt 0.000000 -1.500000
vt 0.500000 -4.000000
vt 0.000000 -4.250000
vt 0.500000 -2.000000
vt 0.000000 -2.500000
vt 0.000000 -4.500000
vt 0.500000 -3.000000
vt 0.500000 -5.000000
vt 0.000000 -2.750000
vt 0.500000 -0.500000
vt 1.000000 -0.500000
vt 0.000000 -0.500000
s 0
usemtl c4g_stage1b
f 21/7/6 23/8/6 22/9/6
f 23/8/6 21/7/6 24/10/6
f 25/11/6 27/8/6 26/12/6
f 27/8/6 25/11/6 28/10/6
f 29/13/7 31/14/7 30/13/7
f 31/14/7 29/13/7 32/14/7
f 33/13/8 35/14/8 34/13/8
f 35/14/8 33/13/8 36/14/8
f 37/14/9 39/15/9 38/16/9
f 39/15/9 37/14/9 40/13/9
f 41/17/9 43/13/9 42/14/9
f 43/13/9 41/17/9 44/18/9
f 45/19/6 47/20/6 46/14/6
f 47/20/6 45/19/6 48/21/6
f 49/21/6 51/14/6 50/20/6
f 51/14/6 49/21/6 52/19/6
f 53/21/6 55/22/6 54/20/6
f 55/22/6 53/21/6 56/23/6
f 57/24/6 59/25/6 58/26/6
f 59/25/6 57/24/6 60/27/6
f 61/17/10 63/13/10 62/14/10
f 63/13/10 61/17/10 64/18/10
f 65/14/10 67/15/10 66/16/10
f 67/15/10 65/14/10 68/13/10
f 69/28/6 71/13/6 70/29/6
f 72/30/6 74/13/6 73/28/6
o polygon4
v 0.250000 1.500000 1.911165
v 0.750000 1.500000 1.911165
v 1.000000 1.500000 2.161165
v 0.250000 1.500000 2.911165
v -1.250000 1.500000 2.161165
v -1.000000 1.500000 1.911165
v -0.500000 1.500000 1.911165
v -0.500000 1.500000 2.911165
v -0.500000 1.500000 1.911165
v 0.250000 1.500000 1.911165
v 0.250000 1.500000 2.911165
v -0.500000 1.500000 2.911165
v 0.250000 1.500000 2.911165
v 1.000000 1.500000 2.161165
v 1.000000 1.500000 2.911165
v -1.250000 1.500000 2.161165
v -0.500000 1.500000 2.911165
v -1.250000 1.500000 2.911165
vn -0.0000 1.0000 -0.0000
vt -1.000000 0.000000
vt 2.000000 1.000000
vt 1.000000 0.000000
vt -1.000000 4.000000
vt -1.000000 1.000000
vt 2.000000 0.000000
vt 0.000000 0.000000
vt 2.000000 4.000000
s 0
usemtl c4g_stage1
f 75/31/11 77/32/11 76/33/11
f 77/32/11 75/31/11 78/34/11
f 79/35/11 81/36/11 80/37/11
f 81/36/11 79/35/11 82/38/11
f 83/31/11 85/38/11 84/36/11
f 85/38/11 83/31/11 86/34/11
f 87/34/11 89/38/11 88/32/11
f 90/35/11 92/34/11 91/38/11
o polygon5
v 0.250000 1.500000 1.911165
v -0.500000 1.500000 1.911165
v 0.250000 1.250000 1.661165
v -0.500000 1.250000 1.661165
v 0.250000 0.750000 1.161165
v -0.500000 0.750000 1.161165
vn -0.0000 0.7071 -0.7071
vt 1.000000 3.000000
vt 1.000000 0.500000
vt 0.000000 3.000000
vt 0.000000 0.500000
vt 1.000000 -4.500000
vt 0.000000 -4.500000
s 0
usemtl c4g_kaidan1
f 93/39/12 95/40/12 94/41/12
f 94/41/12 95/40/12 96/42/12
f 95/40/12 97/43/12 96/42/12
f 96/42/12 97/43/12 98/44/12
o polygon8
v 0.375000 0.250000 1.786165
v 0.375000 1.500000 1.786165
v 0.375000 0.250000 1.661165
v 0.375000 1.250000 1.661165
v 0.375000 0.250000 1.161165
v 0.375000 0.750000 1.161165
v -0.625000 1.500000 1.786165
v -0.625000 0.250000 1.786165
v -0.625000 1.250000 1.661165
v -0.625000 0.250000 1.661165
v -0.625000 0.750000 1.161165
v -0.625000 0.250000 1.161165
vn 1.0000 -0.0000 -0.0000
vn -1.0000 -0.0000 -0.0000
vt -1.000000 0.000000
vt -0.625000 0.000000
vt -1.000000 2.500000
vt -0.625000 2.000000
vt 1.000000 0.000000
vt 1.000000 1.000000
s 0
usemtl c4g_kabe01
f 99/45/13 101/46/13 100/47/13
f 100/47/13 101/46/13 102/48/13
f 101/46/13 103/49/13 102/48/13
f 102/48/13 103/49/13 104/50/13
f 105/47/14 107/48/14 106/45/14
f 106/45/14 107/48/14 108/46/14
f 107/48/14 109/50/14 108/46/14
f 108/46/14 109/50/14 110/49/14
