mtllib Map_Darkness_1_00_08.mtl
o map
v -16.000008 -8.0 7.1
v -16.000008 -16.0 7.1
v -8.000008 -16.0 7.1
v -8.000008 -8.0 7.1
v -16.000008 0.0 7.1
v -16.000008 -8.0 7.1
v -8.000008 -8.0 7.1
v -8.000008 0.0 7.1
v -16.000008 8.0 7.1
v -16.000008 0.0 7.1
v -8.000008 0.0 7.1
v -8.000008 8.0 7.1
v -16.000008 16.0 7.1
v -16.000008 8.0 7.1
v -8.000008 8.0 7.1
v -8.000008 16.0 7.1
v -8.000008 -8.0 7.1
v -8.000008 -16.0 7.1
v -8.106232E-6 -16.0 7.1
v -8.106232E-6 -8.0 7.1
v -8.000008 0.0 7.1
v -8.000008 -8.0 7.1
v -8.106232E-6 -8.0 7.1
v -8.106232E-6 0.0 7.1
v -8.000008 8.0 7.1
v -8.000008 0.0 7.1
v -8.106232E-6 0.0 7.1
v -8.106232E-6 8.0 7.1
v -8.000008 16.0 7.1
v -8.000008 8.0 7.1
v -8.106232E-6 8.0 7.1
v -8.106232E-6 16.0 7.1
v -8.106232E-6 -8.0 7.1
v -8.106232E-6 -16.0 7.1
v 7.999992 -16.0 7.1
v 7.999992 -8.0 7.1
v -8.106232E-6 0.0 7.1
v -8.106232E-6 -8.0 7.1
v 7.999992 -8.0 7.1
v 7.999992 0.0 7.1
v -8.106232E-6 8.0 7.1
v -8.106232E-6 0.0 7.1
v 7.999992 0.0 7.1
v 7.999992 8.0 7.1
v -8.106232E-6 16.0 7.1
v -8.106232E-6 8.0 7.1
v 7.999992 8.0 7.1
v 7.999992 16.0 7.1
v 7.999992 -8.0 7.1
v 7.999992 -16.0 7.1
v 15.999992 -16.0 7.1
v 15.999992 -8.0 7.1
v 7.999992 0.0 7.1
v 7.999992 -8.0 7.1
v 15.999992 -8.0 7.1
v 15.999992 0.0 7.1
v 7.999992 8.0 7.1
v 7.999992 0.0 7.1
v 15.999992 0.0 7.1
v 15.999992 8.0 7.1
v 7.999992 16.0 7.1
v 7.999992 8.0 7.1
v 15.999992 8.0 7.1
v 15.999992 16.0 7.1
v -16.000008 -8.0 8.1
v -16.000008 -16.0 8.1
v -8.000008 -16.0 8.1
v -8.000008 -8.0 8.1
v -16.000008 0.0 8.1
v -16.000008 -8.0 8.1
v -8.000008 -8.0 8.1
v -8.000008 0.0 8.1
v -16.000008 8.0 8.1
v -16.000008 0.0 8.1
v -8.000008 0.0 8.1
v -8.000008 8.0 8.1
v -16.000008 16.0 8.1
v -16.000008 8.0 8.1
v -8.000008 8.0 8.1
v -8.000008 16.0 8.1
v -8.000008 -8.0 8.1
v -8.000008 -16.0 8.1
v -8.106232E-6 -16.0 8.1
v -8.106232E-6 -8.0 8.1
v -8.000008 0.0 8.1
v -8.000008 -8.0 8.1
v -8.106232E-6 -8.0 8.1
v -8.106232E-6 0.0 8.1
v -8.000008 8.0 8.1
v -8.000008 0.0 8.1
v -8.106232E-6 0.0 8.1
v -8.106232E-6 8.0 8.1
v -8.000008 16.0 8.1
v -8.000008 8.0 8.1
v -8.106232E-6 8.0 8.1
v -8.106232E-6 16.0 8.1
v -8.106232E-6 -8.0 8.1
v -8.106232E-6 -16.0 8.1
v 7.999992 -16.0 8.1
v 7.999992 -8.0 8.1
v -8.106232E-6 0.0 8.1
v -8.106232E-6 -8.0 8.1
v 7.999992 -8.0 8.1
v 7.999992 0.0 8.1
v -8.106232E-6 8.0 8.1
v -8.106232E-6 0.0 8.1
v 7.999992 0.0 8.1
v 7.999992 8.0 8.1
v -8.106232E-6 16.0 8.1
v -8.106232E-6 8.0 8.1
v 7.999992 8.0 8.1
v 7.999992 16.0 8.1
v 7.999992 -8.0 8.1
v 7.999992 -16.0 8.1
v 15.999992 -16.0 8.1
v 15.999992 -8.0 8.1
v 7.999992 0.0 8.1
v 7.999992 -8.0 8.1
v 15.999992 -8.0 8.1
v 15.999992 0.0 8.1
v 7.999992 8.0 8.1
v 7.999992 0.0 8.1
v 15.999992 0.0 8.1
v 15.999992 8.0 8.1
v 7.999992 16.0 8.1
v 7.999992 8.0 8.1
v 15.999992 8.0 8.1
v 15.999992 16.0 8.1
v -16.000008 -8.0 9.1
v -16.000008 -16.0 9.1
v -8.000008 -16.0 9.1
v -8.000008 -8.0 9.1
v -16.000008 0.0 9.1
v -16.000008 -8.0 9.1
v -8.000008 -8.0 9.1
v -8.000008 0.0 9.1
v -16.000008 8.0 9.1
v -16.000008 0.0 9.1
v -8.000008 0.0 9.1
v -8.000008 8.0 9.1
v -16.000008 16.0 9.1
v -16.000008 8.0 9.1
v -8.000008 8.0 9.1
v -8.000008 16.0 9.1
v -8.000008 -8.0 9.1
v -8.000008 -16.0 9.1
v -8.106232E-6 -16.0 9.1
v -8.106232E-6 -8.0 9.1
v -8.000008 0.0 9.1
v -8.000008 -8.0 9.1
v -8.106232E-6 -8.0 9.1
v -8.106232E-6 0.0 9.1
v -8.000008 8.0 9.1
v -8.000008 0.0 9.1
v -8.106232E-6 0.0 9.1
v -8.106232E-6 8.0 9.1
v -8.000008 16.0 9.1
v -8.000008 8.0 9.1
v -8.106232E-6 8.0 9.1
v -8.106232E-6 16.0 9.1
v -8.106232E-6 -8.0 9.1
v -8.106232E-6 -16.0 9.1
v 7.999992 -16.0 9.1
v 7.999992 -8.0 9.1
v -8.106232E-6 0.0 9.1
v -8.106232E-6 -8.0 9.1
v 7.999992 -8.0 9.1
v 7.999992 0.0 9.1
v -8.106232E-6 8.0 9.1
v -8.106232E-6 0.0 9.1
v 7.999992 0.0 9.1
v 7.999992 8.0 9.1
v -8.106232E-6 16.0 9.1
v -8.106232E-6 8.0 9.1
v 7.999992 8.0 9.1
v 7.999992 16.0 9.1
v 7.999992 -8.0 9.1
v 7.999992 -16.0 9.1
v 15.999992 -16.0 9.1
v 15.999992 -8.0 9.1
v 7.999992 0.0 9.1
v 7.999992 -8.0 9.1
v 15.999992 -8.0 9.1
v 15.999992 0.0 9.1
v 7.999992 8.0 9.1
v 7.999992 0.0 9.1
v 15.999992 0.0 9.1
v 15.999992 8.0 9.1
v 7.999992 16.0 9.1
v 7.999992 8.0 9.1
v 15.999992 8.0 9.1
v 15.999992 16.0 9.1
v -16.000008 -8.0 10.1
v -16.000008 -16.0 10.1
v -8.000008 -16.0 10.1
v -8.000008 -8.0 10.1
v -16.000008 0.0 10.1
v -16.000008 -8.0 10.1
v -8.000008 -8.0 10.1
v -8.000008 0.0 10.1
v -16.000008 8.0 10.1
v -16.000008 0.0 10.1
v -8.000008 0.0 10.1
v -8.000008 8.0 10.1
v -16.000008 16.0 10.1
v -16.000008 8.0 10.1
v -8.000008 8.0 10.1
v -8.000008 16.0 10.1
v -8.000008 -8.0 10.1
v -8.000008 -16.0 10.1
v -8.106232E-6 -16.0 10.1
v -8.106232E-6 -8.0 10.1
v -8.000008 0.0 10.1
v -8.000008 -8.0 10.1
v -8.106232E-6 -8.0 10.1
v -8.106232E-6 0.0 10.1
v -8.000008 8.0 10.1
v -8.000008 0.0 10.1
v -8.106232E-6 0.0 10.1
v -8.106232E-6 8.0 10.1
v -8.000008 16.0 10.1
v -8.000008 8.0 10.1
v -8.106232E-6 8.0 10.1
v -8.106232E-6 16.0 10.1
v -8.106232E-6 -8.0 10.1
v -8.106232E-6 -16.0 10.1
v 7.999992 -16.0 10.1
v 7.999992 -8.0 10.1
v -8.106232E-6 0.0 10.1
v -8.106232E-6 -8.0 10.1
v 7.999992 -8.0 10.1
v 7.999992 0.0 10.1
v -8.106232E-6 8.0 10.1
v -8.106232E-6 0.0 10.1
v 7.999992 0.0 10.1
v 7.999992 8.0 10.1
v -8.106232E-6 16.0 10.1
v -8.106232E-6 8.0 10.1
v 7.999992 8.0 10.1
v 7.999992 16.0 10.1
v 7.999992 -8.0 10.1
v 7.999992 -16.0 10.1
v 15.999992 -16.0 10.1
v 15.999992 -8.0 10.1
v 7.999992 0.0 10.1
v 7.999992 -8.0 10.1
v 15.999992 -8.0 10.1
v 15.999992 0.0 10.1
v 7.999992 8.0 10.1
v 7.999992 0.0 10.1
v 15.999992 0.0 10.1
v 15.999992 8.0 10.1
v 7.999992 16.0 10.1
v 7.999992 8.0 10.1
v 15.999992 8.0 10.1
v 15.999992 16.0 10.1
v -16.000008 -8.0 11.1
v -16.000008 -16.0 11.1
v -8.000008 -16.0 11.1
v -8.000008 -8.0 11.1
v -16.000008 0.0 11.1
v -16.000008 -8.0 11.1
v -8.000008 -8.0 11.1
v -8.000008 0.0 11.1
v -16.000008 8.0 11.1
v -16.000008 0.0 11.1
v -8.000008 0.0 11.1
v -8.000008 8.0 11.1
v -16.000008 16.0 11.1
v -16.000008 8.0 11.1
v -8.000008 8.0 11.1
v -8.000008 16.0 11.1
v -8.000008 -8.0 11.1
v -8.000008 -16.0 11.1
v -8.106232E-6 -16.0 11.1
v -8.106232E-6 -8.0 11.1
v -8.000008 0.0 11.1
v -8.000008 -8.0 11.1
v -8.106232E-6 -8.0 11.1
v -8.106232E-6 0.0 11.1
v -8.000008 8.0 11.1
v -8.000008 0.0 11.1
v -8.106232E-6 0.0 11.1
v -8.106232E-6 8.0 11.1
v -8.000008 16.0 11.1
v -8.000008 8.0 11.1
v -8.106232E-6 8.0 11.1
v -8.106232E-6 16.0 11.1
v -8.106232E-6 -8.0 11.1
v -8.106232E-6 -16.0 11.1
v 7.999992 -16.0 11.1
v 7.999992 -8.0 11.1
v -8.106232E-6 0.0 11.1
v -8.106232E-6 -8.0 11.1
v 7.999992 -8.0 11.1
v 7.999992 0.0 11.1
v -8.106232E-6 8.0 11.1
v -8.106232E-6 0.0 11.1
v 7.999992 0.0 11.1
v 7.999992 8.0 11.1
v -8.106232E-6 16.0 11.1
v -8.106232E-6 8.0 11.1
v 7.999992 8.0 11.1
v 7.999992 16.0 11.1
v 7.999992 -8.0 11.1
v 7.999992 -16.0 11.1
v 15.999992 -16.0 11.1
v 15.999992 -8.0 11.1
v 7.999992 0.0 11.1
v 7.999992 -8.0 11.1
v 15.999992 -8.0 11.1
v 15.999992 0.0 11.1
v 7.999992 8.0 11.1
v 7.999992 0.0 11.1
v 15.999992 0.0 11.1
v 15.999992 8.0 11.1
v 7.999992 16.0 11.1
v 7.999992 8.0 11.1
v 15.999992 8.0 11.1
v 15.999992 16.0 11.1
v -16.000008 -8.0 12.1
v -16.000008 -16.0 12.1
v -8.000008 -16.0 12.1
v -8.000008 -8.0 12.1
v -16.000008 0.0 12.1
v -16.000008 -8.0 12.1
v -8.000008 -8.0 12.1
v -8.000008 0.0 12.1
v -16.000008 8.0 12.1
v -16.000008 0.0 12.1
v -8.000008 0.0 12.1
v -8.000008 8.0 12.1
v -16.000008 16.0 12.1
v -16.000008 8.0 12.1
v -8.000008 8.0 12.1
v -8.000008 16.0 12.1
v -8.000008 -8.0 12.1
v -8.000008 -16.0 12.1
v -8.106232E-6 -16.0 12.1
v -8.106232E-6 -8.0 12.1
v -8.000008 0.0 12.1
v -8.000008 -8.0 12.1
v -8.106232E-6 -8.0 12.1
v -8.106232E-6 0.0 12.1
v -8.000008 8.0 12.1
v -8.000008 0.0 12.1
v -8.106232E-6 0.0 12.1
v -8.106232E-6 8.0 12.1
v -8.000008 16.0 12.1
v -8.000008 8.0 12.1
v -8.106232E-6 8.0 12.1
v -8.106232E-6 16.0 12.1
v -8.106232E-6 -8.0 12.1
v -8.106232E-6 -16.0 12.1
v 7.999992 -16.0 12.1
v 7.999992 -8.0 12.1
v -8.106232E-6 0.0 12.1
v -8.106232E-6 -8.0 12.1
v 7.999992 -8.0 12.1
v 7.999992 0.0 12.1
v -8.106232E-6 8.0 12.1
v -8.106232E-6 0.0 12.1
v 7.999992 0.0 12.1
v 7.999992 8.0 12.1
v -8.106232E-6 16.0 12.1
v -8.106232E-6 8.0 12.1
v 7.999992 8.0 12.1
v 7.999992 16.0 12.1
v 7.999992 -8.0 12.1
v 7.999992 -16.0 12.1
v 15.999992 -16.0 12.1
v 15.999992 -8.0 12.1
v 7.999992 0.0 12.1
v 7.999992 -8.0 12.1
v 15.999992 -8.0 12.1
v 15.999992 0.0 12.1
v 7.999992 8.0 12.1
v 7.999992 0.0 12.1
v 15.999992 0.0 12.1
v 15.999992 8.0 12.1
v 7.999992 16.0 12.1
v 7.999992 8.0 12.1
v 15.999992 8.0 12.1
v 15.999992 16.0 12.1
v -16.000008 -8.0 13.1
v -16.000008 -16.0 13.1
v -8.000008 -16.0 13.1
v -8.000008 -8.0 13.1
v -16.000008 0.0 13.1
v -16.000008 -8.0 13.1
v -8.000008 -8.0 13.1
v -8.000008 0.0 13.1
v -16.000008 8.0 13.1
v -16.000008 0.0 13.1
v -8.000008 0.0 13.1
v -8.000008 8.0 13.1
v -16.000008 16.0 13.1
v -16.000008 8.0 13.1
v -8.000008 8.0 13.1
v -8.000008 16.0 13.1
v -8.000008 -8.0 13.1
v -8.000008 -16.0 13.1
v -8.106232E-6 -16.0 13.1
v -8.106232E-6 -8.0 13.1
v -8.000008 0.0 13.1
v -8.000008 -8.0 13.1
v -8.106232E-6 -8.0 13.1
v -8.106232E-6 0.0 13.1
v -8.000008 8.0 13.1
v -8.000008 0.0 13.1
v -8.106232E-6 0.0 13.1
v -8.106232E-6 8.0 13.1
v -8.000008 16.0 13.1
v -8.000008 8.0 13.1
v -8.106232E-6 8.0 13.1
v -8.106232E-6 16.0 13.1
v -8.106232E-6 -8.0 13.1
v -8.106232E-6 -16.0 13.1
v 7.999992 -16.0 13.1
v 7.999992 -8.0 13.1
v -8.106232E-6 0.0 13.1
v -8.106232E-6 -8.0 13.1
v 7.999992 -8.0 13.1
v 7.999992 0.0 13.1
v -8.106232E-6 8.0 13.1
v -8.106232E-6 0.0 13.1
v 7.999992 0.0 13.1
v 7.999992 8.0 13.1
v -8.106232E-6 16.0 13.1
v -8.106232E-6 8.0 13.1
v 7.999992 8.0 13.1
v 7.999992 16.0 13.1
v 7.999992 -8.0 13.1
v 7.999992 -16.0 13.1
v 15.999992 -16.0 13.1
v 15.999992 -8.0 13.1
v 7.999992 0.0 13.1
v 7.999992 -8.0 13.1
v 15.999992 -8.0 13.1
v 15.999992 0.0 13.1
v 7.999992 8.0 13.1
v 7.999992 0.0 13.1
v 15.999992 0.0 13.1
v 15.999992 8.0 13.1
v 7.999992 16.0 13.1
v 7.999992 8.0 13.1
v 15.999992 8.0 13.1
v 15.999992 16.0 13.1
vt 0.0 8.0
vt 0.0 0.0
vt 8.0 0.0
vt 8.0 8.0
vt 0.0 8.0
vt 0.0 0.0
vt 8.0 0.0
vt 8.0 8.0
vt 0.0 8.0
vt 0.0 0.0
vt 8.0 0.0
vt 8.0 8.0
vt 0.0 8.0
vt 0.0 0.0
vt 8.0 0.0
vt 8.0 8.0
vt 0.0 8.0
vt 0.0 0.0
vt 8.0 0.0
vt 8.0 8.0
vt 0.0 8.0
vt 0.0 0.0
vt 8.0 0.0
vt 8.0 8.0
vt 0.0 8.0
vt 0.0 0.0
vt 8.0 0.0
vt 8.0 8.0
vt 0.0 8.0
vt 0.0 0.0
vt 8.0 0.0
vt 8.0 8.0
vt 0.0 8.0
vt 0.0 0.0
vt 8.0 0.0
vt 8.0 8.0
vt 0.0 8.0
vt 0.0 0.0
vt 8.0 0.0
vt 8.0 8.0
vt 0.0 8.0
vt 0.0 0.0
vt 8.0 0.0
vt 8.0 8.0
vt 0.0 8.0
vt 0.0 0.0
vt 8.0 0.0
vt 8.0 8.0
vt 0.0 8.0
vt 0.0 0.0
vt 8.0 0.0
vt 8.0 8.0
vt 0.0 8.0
vt 0.0 0.0
vt 8.0 0.0
vt 8.0 8.0
vt 0.0 8.0
vt 0.0 0.0
vt 8.0 0.0
vt 8.0 8.0
vt 0.0 8.0
vt 0.0 0.0
vt 8.0 0.0
vt 8.0 8.0
vt 0.0 8.0
vt 0.0 0.0
vt 8.0 0.0
vt 8.0 8.0
vt 0.0 8.0
vt 0.0 0.0
vt 8.0 0.0
vt 8.0 8.0
vt 0.0 8.0
vt 0.0 0.0
vt 8.0 0.0
vt 8.0 8.0
vt 0.0 8.0
vt 0.0 0.0
vt 8.0 0.0
vt 8.0 8.0
vt 0.0 8.0
vt 0.0 0.0
vt 8.0 0.0
vt 8.0 8.0
vt 0.0 8.0
vt 0.0 0.0
vt 8.0 0.0
vt 8.0 8.0
vt 0.0 8.0
vt 0.0 0.0
vt 8.0 0.0
vt 8.0 8.0
vt 0.0 8.0
vt 0.0 0.0
vt 8.0 0.0
vt 8.0 8.0
vt 0.0 8.0
vt 0.0 0.0
vt 8.0 0.0
vt 8.0 8.0
vt 0.0 8.0
vt 0.0 0.0
vt 8.0 0.0
vt 8.0 8.0
vt 0.0 8.0
vt 0.0 0.0
vt 8.0 0.0
vt 8.0 8.0
vt 0.0 8.0
vt 0.0 0.0
vt 8.0 0.0
vt 8.0 8.0
vt 0.0 8.0
vt 0.0 0.0
vt 8.0 0.0
vt 8.0 8.0
vt 0.0 8.0
vt 0.0 0.0
vt 8.0 0.0
vt 8.0 8.0
vt 0.0 8.0
vt 0.0 0.0
vt 8.0 0.0
vt 8.0 8.0
vt 0.0 8.0
vt 0.0 0.0
vt 8.0 0.0
vt 8.0 8.0
vt 0.0 8.0
vt 0.0 0.0
vt 8.0 0.0
vt 8.0 8.0
vt 0.0 8.0
vt 0.0 0.0
vt 8.0 0.0
vt 8.0 8.0
vt 0.0 8.0
vt 0.0 0.0
vt 8.0 0.0
vt 8.0 8.0
vt 0.0 8.0
vt 0.0 0.0
vt 8.0 0.0
vt 8.0 8.0
vt 0.0 8.0
vt 0.0 0.0
vt 8.0 0.0
vt 8.0 8.0
vt 0.0 8.0
vt 0.0 0.0
vt 8.0 0.0
vt 8.0 8.0
vt 0.0 8.0
vt 0.0 0.0
vt 8.0 0.0
vt 8.0 8.0
vt 0.0 8.0
vt 0.0 0.0
vt 8.0 0.0
vt 8.0 8.0
vt 0.0 8.0
vt 0.0 0.0
vt 8.0 0.0
vt 8.0 8.0
vt 0.0 8.0
vt 0.0 0.0
vt 8.0 0.0
vt 8.0 8.0
vt 0.0 8.0
vt 0.0 0.0
vt 8.0 0.0
vt 8.0 8.0
vt 0.0 8.0
vt 0.0 0.0
vt 8.0 0.0
vt 8.0 8.0
vt 0.0 8.0
vt 0.0 0.0
vt 8.0 0.0
vt 8.0 8.0
vt 0.0 8.0
vt 0.0 0.0
vt 8.0 0.0
vt 8.0 8.0
vt 0.0 8.0
vt 0.0 0.0
vt 8.0 0.0
vt 8.0 8.0
vt 0.0 8.0
vt 0.0 0.0
vt 8.0 0.0
vt 8.0 8.0
vt 0.0 8.0
vt 0.0 0.0
vt 8.0 0.0
vt 8.0 8.0
vt 0.0 8.0
vt 0.0 0.0
vt 8.0 0.0
vt 8.0 8.0
vt 0.0 8.0
vt 0.0 0.0
vt 8.0 0.0
vt 8.0 8.0
vt 0.0 8.0
vt 0.0 0.0
vt 8.0 0.0
vt 8.0 8.0
vt 0.0 8.0
vt 0.0 0.0
vt 8.0 0.0
vt 8.0 8.0
vt 0.0 8.0
vt 0.0 0.0
vt 8.0 0.0
vt 8.0 8.0
vt 0.0 8.0
vt 0.0 0.0
vt 8.0 0.0
vt 8.0 8.0
vt 0.0 8.0
vt 0.0 0.0
vt 8.0 0.0
vt 8.0 8.0
vt 0.0 8.0
vt 0.0 0.0
vt 8.0 0.0
vt 8.0 8.0
vt 0.0 8.0
vt 0.0 0.0
vt 8.0 0.0
vt 8.0 8.0
vt 0.0 8.0
vt 0.0 0.0
vt 8.0 0.0
vt 8.0 8.0
vt 0.0 8.0
vt 0.0 0.0
vt 8.0 0.0
vt 8.0 8.0
vt 0.0 8.0
vt 0.0 0.0
vt 8.0 0.0
vt 8.0 8.0
vt 0.0 8.0
vt 0.0 0.0
vt 8.0 0.0
vt 8.0 8.0
vt 0.0 8.0
vt 0.0 0.0
vt 8.0 0.0
vt 8.0 8.0
vt 0.0 8.0
vt 0.0 0.0
vt 8.0 0.0
vt 8.0 8.0
vt 0.0 8.0
vt 0.0 0.0
vt 8.0 0.0
vt 8.0 8.0
vt 0.0 8.0
vt 0.0 0.0
vt 8.0 0.0
vt 8.0 8.0
vt 0.0 8.0
vt 0.0 0.0
vt 8.0 0.0
vt 8.0 8.0
vt 0.0 8.0
vt 0.0 0.0
vt 8.0 0.0
vt 8.0 8.0
vt 0.0 8.0
vt 0.0 0.0
vt 8.0 0.0
vt 8.0 8.0
vt 0.0 8.0
vt 0.0 0.0
vt 8.0 0.0
vt 8.0 8.0
vt 0.0 8.0
vt 0.0 0.0
vt 8.0 0.0
vt 8.0 8.0
vt 0.0 8.0
vt 0.0 0.0
vt 8.0 0.0
vt 8.0 8.0
vt 0.0 8.0
vt 0.0 0.0
vt 8.0 0.0
vt 8.0 8.0
vt 0.0 8.0
vt 0.0 0.0
vt 8.0 0.0
vt 8.0 8.0
vt 0.0 8.0
vt 0.0 0.0
vt 8.0 0.0
vt 8.0 8.0
vt 0.0 8.0
vt 0.0 0.0
vt 8.0 0.0
vt 8.0 8.0
vt 0.0 8.0
vt 0.0 0.0
vt 8.0 0.0
vt 8.0 8.0
vt 0.0 8.0
vt 0.0 0.0
vt 8.0 0.0
vt 8.0 8.0
vt 0.0 8.0
vt 0.0 0.0
vt 8.0 0.0
vt 8.0 8.0
vt 0.0 8.0
vt 0.0 0.0
vt 8.0 0.0
vt 8.0 8.0
vt 0.0 8.0
vt 0.0 0.0
vt 8.0 0.0
vt 8.0 8.0
vt 0.0 8.0
vt 0.0 0.0
vt 8.0 0.0
vt 8.0 8.0
vt 0.0 8.0
vt 0.0 0.0
vt 8.0 0.0
vt 8.0 8.0
vt 0.0 8.0
vt 0.0 0.0
vt 8.0 0.0
vt 8.0 8.0
vt 0.0 8.0
vt 0.0 0.0
vt 8.0 0.0
vt 8.0 8.0
vt 0.0 8.0
vt 0.0 0.0
vt 8.0 0.0
vt 8.0 8.0
vt 0.0 8.0
vt 0.0 0.0
vt 8.0 0.0
vt 8.0 8.0
vt 0.0 8.0
vt 0.0 0.0
vt 8.0 0.0
vt 8.0 8.0
vt 0.0 8.0
vt 0.0 0.0
vt 8.0 0.0
vt 8.0 8.0
vt 0.0 8.0
vt 0.0 0.0
vt 8.0 0.0
vt 8.0 8.0
vt 0.0 8.0
vt 0.0 0.0
vt 8.0 0.0
vt 8.0 8.0
vt 0.0 8.0
vt 0.0 0.0
vt 8.0 0.0
vt 8.0 8.0
vt 0.0 8.0
vt 0.0 0.0
vt 8.0 0.0
vt 8.0 8.0
vt 0.0 8.0
vt 0.0 0.0
vt 8.0 0.0
vt 8.0 8.0
vt 0.0 8.0
vt 0.0 0.0
vt 8.0 0.0
vt 8.0 8.0
vt 0.0 8.0
vt 0.0 0.0
vt 8.0 0.0
vt 8.0 8.0
vt 0.0 8.0
vt 0.0 0.0
vt 8.0 0.0
vt 8.0 8.0
vt 0.0 8.0
vt 0.0 0.0
vt 8.0 0.0
vt 8.0 8.0
vt 0.0 8.0
vt 0.0 0.0
vt 8.0 0.0
vt 8.0 8.0
vt 0.0 8.0
vt 0.0 0.0
vt 8.0 0.0
vt 8.0 8.0
vt 0.0 8.0
vt 0.0 0.0
vt 8.0 0.0
vt 8.0 8.0
vt 0.0 8.0
vt 0.0 0.0
vt 8.0 0.0
vt 8.0 8.0
vt 0.0 8.0
vt 0.0 0.0
vt 8.0 0.0
vt 8.0 8.0
vt 0.0 8.0
vt 0.0 0.0
vt 8.0 0.0
vt 8.0 8.0
vt 0.0 8.0
vt 0.0 0.0
vt 8.0 0.0
vt 8.0 8.0
vt 0.0 8.0
vt 0.0 0.0
vt 8.0 0.0
vt 8.0 8.0
vt 0.0 8.0
vt 0.0 0.0
vt 8.0 0.0
vt 8.0 8.0
vt 0.0 8.0
vt 0.0 0.0
vt 8.0 0.0
vt 8.0 8.0
vt 0.0 8.0
vt 0.0 0.0
vt 8.0 0.0
vt 8.0 8.0
vt 0.0 8.0
vt 0.0 0.0
vt 8.0 0.0
vt 8.0 8.0
vt 0.0 8.0
vt 0.0 0.0
vt 8.0 0.0
vt 8.0 8.0
vt 0.0 8.0
vt 0.0 0.0
vt 8.0 0.0
vt 8.0 8.0
vn 0.0 0.0 1.0
vn 0.0 0.0 1.0
vn 0.0 0.0 1.0
vn 0.0 0.0 1.0
vn 0.0 0.0 1.0
vn 0.0 0.0 1.0
vn 0.0 0.0 1.0
vn 0.0 0.0 1.0
vn 0.0 0.0 1.0
vn 0.0 0.0 1.0
vn 0.0 0.0 1.0
vn 0.0 0.0 1.0
vn 0.0 0.0 1.0
vn 0.0 0.0 1.0
vn 0.0 0.0 1.0
vn 0.0 0.0 1.0
vn 0.0 0.0 1.0
vn 0.0 0.0 1.0
vn 0.0 0.0 1.0
vn 0.0 0.0 1.0
vn 0.0 0.0 1.0
vn 0.0 0.0 1.0
vn 0.0 0.0 1.0
vn 0.0 0.0 1.0
vn 0.0 0.0 1.0
vn 0.0 0.0 1.0
vn 0.0 0.0 1.0
vn 0.0 0.0 1.0
vn 0.0 0.0 1.0
vn 0.0 0.0 1.0
vn 0.0 0.0 1.0
vn 0.0 0.0 1.0
vn 0.0 0.0 1.0
vn 0.0 0.0 1.0
vn 0.0 0.0 1.0
vn 0.0 0.0 1.0
vn 0.0 0.0 1.0
vn 0.0 0.0 1.0
vn 0.0 0.0 1.0
vn 0.0 0.0 1.0
vn 0.0 0.0 1.0
vn 0.0 0.0 1.0
vn 0.0 0.0 1.0
vn 0.0 0.0 1.0
vn 0.0 0.0 1.0
vn 0.0 0.0 1.0
vn 0.0 0.0 1.0
vn 0.0 0.0 1.0
vn 0.0 0.0 1.0
vn 0.0 0.0 1.0
vn 0.0 0.0 1.0
vn 0.0 0.0 1.0
vn 0.0 0.0 1.0
vn 0.0 0.0 1.0
vn 0.0 0.0 1.0
vn 0.0 0.0 1.0
vn 0.0 0.0 1.0
vn 0.0 0.0 1.0
vn 0.0 0.0 1.0
vn 0.0 0.0 1.0
vn 0.0 0.0 1.0
vn 0.0 0.0 1.0
vn 0.0 0.0 1.0
vn 0.0 0.0 1.0
vn 0.0 0.0 1.0
vn 0.0 0.0 1.0
vn 0.0 0.0 1.0
vn 0.0 0.0 1.0
vn 0.0 0.0 1.0
vn 0.0 0.0 1.0
vn 0.0 0.0 1.0
vn 0.0 0.0 1.0
vn 0.0 0.0 1.0
vn 0.0 0.0 1.0
vn 0.0 0.0 1.0
vn 0.0 0.0 1.0
vn 0.0 0.0 1.0
vn 0.0 0.0 1.0
vn 0.0 0.0 1.0
vn 0.0 0.0 1.0
vn 0.0 0.0 1.0
vn 0.0 0.0 1.0
vn 0.0 0.0 1.0
vn 0.0 0.0 1.0
vn 0.0 0.0 1.0
vn 0.0 0.0 1.0
vn 0.0 0.0 1.0
vn 0.0 0.0 1.0
vn 0.0 0.0 1.0
vn 0.0 0.0 1.0
vn 0.0 0.0 1.0
vn 0.0 0.0 1.0
vn 0.0 0.0 1.0
vn 0.0 0.0 1.0
vn 0.0 0.0 1.0
vn 0.0 0.0 1.0
vn 0.0 0.0 1.0
vn 0.0 0.0 1.0
vn 0.0 0.0 1.0
vn 0.0 0.0 1.0
vn 0.0 0.0 1.0
vn 0.0 0.0 1.0
vn 0.0 0.0 1.0
vn 0.0 0.0 1.0
vn 0.0 0.0 1.0
vn 0.0 0.0 1.0
vn 0.0 0.0 1.0
vn 0.0 0.0 1.0
vn 0.0 0.0 1.0
vn 0.0 0.0 1.0
vn 0.0 0.0 1.0
vn 0.0 0.0 1.0
c 1.0 1.0 1.0
c 1.0 1.0 1.0
c 1.0 1.0 1.0
c 1.0 1.0 1.0
c 1.0 1.0 1.0
c 1.0 1.0 1.0
c 1.0 1.0 1.0
c 1.0 1.0 1.0
c 1.0 1.0 1.0
c 1.0 1.0 1.0
c 1.0 1.0 1.0
c 1.0 1.0 1.0
c 1.0 1.0 1.0
c 1.0 1.0 1.0
c 1.0 1.0 1.0
c 1.0 1.0 1.0
c 1.0 1.0 1.0
c 1.0 1.0 1.0
c 1.0 1.0 1.0
c 1.0 1.0 1.0
c 1.0 1.0 1.0
c 1.0 1.0 1.0
c 1.0 1.0 1.0
c 1.0 1.0 1.0
c 1.0 1.0 1.0
c 1.0 1.0 1.0
c 1.0 1.0 1.0
c 1.0 1.0 1.0
c 1.0 1.0 1.0
c 1.0 1.0 1.0
c 1.0 1.0 1.0
c 1.0 1.0 1.0
c 1.0 1.0 1.0
c 1.0 1.0 1.0
c 1.0 1.0 1.0
c 1.0 1.0 1.0
c 1.0 1.0 1.0
c 1.0 1.0 1.0
c 1.0 1.0 1.0
c 1.0 1.0 1.0
c 1.0 1.0 1.0
c 1.0 1.0 1.0
c 1.0 1.0 1.0
c 1.0 1.0 1.0
c 1.0 1.0 1.0
c 1.0 1.0 1.0
c 1.0 1.0 1.0
c 1.0 1.0 1.0
c 1.0 1.0 1.0
c 1.0 1.0 1.0
c 1.0 1.0 1.0
c 1.0 1.0 1.0
c 1.0 1.0 1.0
c 1.0 1.0 1.0
c 1.0 1.0 1.0
c 1.0 1.0 1.0
c 1.0 1.0 1.0
c 1.0 1.0 1.0
c 1.0 1.0 1.0
c 1.0 1.0 1.0
c 1.0 1.0 1.0
c 1.0 1.0 1.0
c 1.0 1.0 1.0
c 1.0 1.0 1.0
c 1.0 1.0 1.0
c 1.0 1.0 1.0
c 1.0 1.0 1.0
c 1.0 1.0 1.0
c 1.0 1.0 1.0
c 1.0 1.0 1.0
c 1.0 1.0 1.0
c 1.0 1.0 1.0
c 1.0 1.0 1.0
c 1.0 1.0 1.0
c 1.0 1.0 1.0
c 1.0 1.0 1.0
c 1.0 1.0 1.0
c 1.0 1.0 1.0
c 1.0 1.0 1.0
c 1.0 1.0 1.0
c 1.0 1.0 1.0
c 1.0 1.0 1.0
c 1.0 1.0 1.0
c 1.0 1.0 1.0
c 1.0 1.0 1.0
c 1.0 1.0 1.0
c 1.0 1.0 1.0
c 1.0 1.0 1.0
c 1.0 1.0 1.0
c 1.0 1.0 1.0
c 1.0 1.0 1.0
c 1.0 1.0 1.0
c 1.0 1.0 1.0
c 1.0 1.0 1.0
c 1.0 1.0 1.0
c 1.0 1.0 1.0
c 1.0 1.0 1.0
c 1.0 1.0 1.0
c 1.0 1.0 1.0
c 1.0 1.0 1.0
c 1.0 1.0 1.0
c 1.0 1.0 1.0
c 1.0 1.0 1.0
c 1.0 1.0 1.0
c 1.0 1.0 1.0
c 1.0 1.0 1.0
c 1.0 1.0 1.0
c 1.0 1.0 1.0
c 1.0 1.0 1.0
c 1.0 1.0 1.0
c 1.0 1.0 1.0
c 1.0 1.0 1.0
usemtl f_kage
s off
f 1/1/1/1 2/2/1/1 3/3/1/1 4/4/1/1
f 5/5/2/2 6/6/2/2 7/7/2/2 8/8/2/2
f 9/9/3/3 10/10/3/3 11/11/3/3 12/12/3/3
f 13/13/4/4 14/14/4/4 15/15/4/4 16/16/4/4
f 17/17/5/5 18/18/5/5 19/19/5/5 20/20/5/5
f 21/21/6/6 22/22/6/6 23/23/6/6 24/24/6/6
f 25/25/7/7 26/26/7/7 27/27/7/7 28/28/7/7
f 29/29/8/8 30/30/8/8 31/31/8/8 32/32/8/8
f 33/33/9/9 34/34/9/9 35/35/9/9 36/36/9/9
f 37/37/10/10 38/38/10/10 39/39/10/10 40/40/10/10
f 41/41/11/11 42/42/11/11 43/43/11/11 44/44/11/11
f 45/45/12/12 46/46/12/12 47/47/12/12 48/48/12/12
f 49/49/13/13 50/50/13/13 51/51/13/13 52/52/13/13
f 53/53/14/14 54/54/14/14 55/55/14/14 56/56/14/14
f 57/57/15/15 58/58/15/15 59/59/15/15 60/60/15/15
f 61/61/16/16 62/62/16/16 63/63/16/16 64/64/16/16
f 65/65/17/17 66/66/17/17 67/67/17/17 68/68/17/17
f 69/69/18/18 70/70/18/18 71/71/18/18 72/72/18/18
f 73/73/19/19 74/74/19/19 75/75/19/19 76/76/19/19
f 77/77/20/20 78/78/20/20 79/79/20/20 80/80/20/20
f 81/81/21/21 82/82/21/21 83/83/21/21 84/84/21/21
f 85/85/22/22 86/86/22/22 87/87/22/22 88/88/22/22
f 89/89/23/23 90/90/23/23 91/91/23/23 92/92/23/23
f 93/93/24/24 94/94/24/24 95/95/24/24 96/96/24/24
f 97/97/25/25 98/98/25/25 99/99/25/25 100/100/25/25
f 101/101/26/26 102/102/26/26 103/103/26/26 104/104/26/26
f 105/105/27/27 106/106/27/27 107/107/27/27 108/108/27/27
f 109/109/28/28 110/110/28/28 111/111/28/28 112/112/28/28
f 113/113/29/29 114/114/29/29 115/115/29/29 116/116/29/29
f 117/117/30/30 118/118/30/30 119/119/30/30 120/120/30/30
f 121/121/31/31 122/122/31/31 123/123/31/31 124/124/31/31
f 125/125/32/32 126/126/32/32 127/127/32/32 128/128/32/32
f 129/129/33/33 130/130/33/33 131/131/33/33 132/132/33/33
f 133/133/34/34 134/134/34/34 135/135/34/34 136/136/34/34
f 137/137/35/35 138/138/35/35 139/139/35/35 140/140/35/35
f 141/141/36/36 142/142/36/36 143/143/36/36 144/144/36/36
f 145/145/37/37 146/146/37/37 147/147/37/37 148/148/37/37
f 149/149/38/38 150/150/38/38 151/151/38/38 152/152/38/38
f 153/153/39/39 154/154/39/39 155/155/39/39 156/156/39/39
f 157/157/40/40 158/158/40/40 159/159/40/40 160/160/40/40
f 161/161/41/41 162/162/41/41 163/163/41/41 164/164/41/41
f 165/165/42/42 166/166/42/42 167/167/42/42 168/168/42/42
f 169/169/43/43 170/170/43/43 171/171/43/43 172/172/43/43
f 173/173/44/44 174/174/44/44 175/175/44/44 176/176/44/44
f 177/177/45/45 178/178/45/45 179/179/45/45 180/180/45/45
f 181/181/46/46 182/182/46/46 183/183/46/46 184/184/46/46
f 185/185/47/47 186/186/47/47 187/187/47/47 188/188/47/47
f 189/189/48/48 190/190/48/48 191/191/48/48 192/192/48/48
f 193/193/49/49 194/194/49/49 195/195/49/49 196/196/49/49
f 197/197/50/50 198/198/50/50 199/199/50/50 200/200/50/50
f 201/201/51/51 202/202/51/51 203/203/51/51 204/204/51/51
f 205/205/52/52 206/206/52/52 207/207/52/52 208/208/52/52
f 209/209/53/53 210/210/53/53 211/211/53/53 212/212/53/53
f 213/213/54/54 214/214/54/54 215/215/54/54 216/216/54/54
f 217/217/55/55 218/218/55/55 219/219/55/55 220/220/55/55
f 221/221/56/56 222/222/56/56 223/223/56/56 224/224/56/56
f 225/225/57/57 226/226/57/57 227/227/57/57 228/228/57/57
f 229/229/58/58 230/230/58/58 231/231/58/58 232/232/58/58
f 233/233/59/59 234/234/59/59 235/235/59/59 236/236/59/59
f 237/237/60/60 238/238/60/60 239/239/60/60 240/240/60/60
f 241/241/61/61 242/242/61/61 243/243/61/61 244/244/61/61
f 245/245/62/62 246/246/62/62 247/247/62/62 248/248/62/62
f 249/249/63/63 250/250/63/63 251/251/63/63 252/252/63/63
f 253/253/64/64 254/254/64/64 255/255/64/64 256/256/64/64
f 257/257/65/65 258/258/65/65 259/259/65/65 260/260/65/65
f 261/261/66/66 262/262/66/66 263/263/66/66 264/264/66/66
f 265/265/67/67 266/266/67/67 267/267/67/67 268/268/67/67
f 269/269/68/68 270/270/68/68 271/271/68/68 272/272/68/68
f 273/273/69/69 274/274/69/69 275/275/69/69 276/276/69/69
f 277/277/70/70 278/278/70/70 279/279/70/70 280/280/70/70
f 281/281/71/71 282/282/71/71 283/283/71/71 284/284/71/71
f 285/285/72/72 286/286/72/72 287/287/72/72 288/288/72/72
f 289/289/73/73 290/290/73/73 291/291/73/73 292/292/73/73
f 293/293/74/74 294/294/74/74 295/295/74/74 296/296/74/74
f 297/297/75/75 298/298/75/75 299/299/75/75 300/300/75/75
f 301/301/76/76 302/302/76/76 303/303/76/76 304/304/76/76
f 305/305/77/77 306/306/77/77 307/307/77/77 308/308/77/77
f 309/309/78/78 310/310/78/78 311/311/78/78 312/312/78/78
f 313/313/79/79 314/314/79/79 315/315/79/79 316/316/79/79
f 317/317/80/80 318/318/80/80 319/319/80/80 320/320/80/80
f 321/321/81/81 322/322/81/81 323/323/81/81 324/324/81/81
f 325/325/82/82 326/326/82/82 327/327/82/82 328/328/82/82
f 329/329/83/83 330/330/83/83 331/331/83/83 332/332/83/83
f 333/333/84/84 334/334/84/84 335/335/84/84 336/336/84/84
f 337/337/85/85 338/338/85/85 339/339/85/85 340/340/85/85
f 341/341/86/86 342/342/86/86 343/343/86/86 344/344/86/86
f 345/345/87/87 346/346/87/87 347/347/87/87 348/348/87/87
f 349/349/88/88 350/350/88/88 351/351/88/88 352/352/88/88
f 353/353/89/89 354/354/89/89 355/355/89/89 356/356/89/89
f 357/357/90/90 358/358/90/90 359/359/90/90 360/360/90/90
f 361/361/91/91 362/362/91/91 363/363/91/91 364/364/91/91
f 365/365/92/92 366/366/92/92 367/367/92/92 368/368/92/92
f 369/369/93/93 370/370/93/93 371/371/93/93 372/372/93/93
f 373/373/94/94 374/374/94/94 375/375/94/94 376/376/94/94
f 377/377/95/95 378/378/95/95 379/379/95/95 380/380/95/95
f 381/381/96/96 382/382/96/96 383/383/96/96 384/384/96/96
f 385/385/97/97 386/386/97/97 387/387/97/97 388/388/97/97
f 389/389/98/98 390/390/98/98 391/391/98/98 392/392/98/98
f 393/393/99/99 394/394/99/99 395/395/99/99 396/396/99/99
f 397/397/100/100 398/398/100/100 399/399/100/100 400/400/100/100
f 401/401/101/101 402/402/101/101 403/403/101/101 404/404/101/101
f 405/405/102/102 406/406/102/102 407/407/102/102 408/408/102/102
f 409/409/103/103 410/410/103/103 411/411/103/103 412/412/103/103
f 413/413/104/104 414/414/104/104 415/415/104/104 416/416/104/104
f 417/417/105/105 418/418/105/105 419/419/105/105 420/420/105/105
f 421/421/106/106 422/422/106/106 423/423/106/106 424/424/106/106
f 425/425/107/107 426/426/107/107 427/427/107/107 428/428/107/107
f 429/429/108/108 430/430/108/108 431/431/108/108 432/432/108/108
f 433/433/109/109 434/434/109/109 435/435/109/109 436/436/109/109
f 437/437/110/110 438/438/110/110 439/439/110/110 440/440/110/110
f 441/441/111/111 442/442/111/111 443/443/111/111 444/444/111/111
f 445/445/112/112 446/446/112/112 447/447/112/112 448/448/112/112
