# Blender 4.0.0
# www.blender.org
mtllib GYMBATTLE1-2.mtl
o polygon0
o polygon1
o polygon10
o polygon11
o polygon12
v -0.062500 0.019531 0.393311
v -0.062500 0.019531 0.366455
v -0.087402 0.019531 0.389404
v -0.079102 0.019531 0.363770
v -0.110107 0.019531 0.377930
v -0.094238 0.019531 0.356201
v -0.127930 0.019531 0.360107
v -0.106201 0.019531 0.344238
v -0.139404 0.019531 0.337402
v -0.113770 0.019531 0.329102
v -0.143311 0.019531 0.312500
v -0.116455 0.019531 0.312500
v -0.139404 0.019531 0.287598
v -0.113770 0.019531 0.295898
v -0.127930 0.019531 0.264893
v -0.106201 0.019531 0.280762
v -0.110107 0.019531 0.247070
v -0.094238 0.019531 0.268799
v -0.087402 0.019531 0.235596
v -0.079102 0.019531 0.261230
v -0.062500 0.019531 0.231689
v -0.062500 0.019531 0.258545
v -0.037598 0.019531 0.235596
v -0.045898 0.019531 0.261230
v -0.014893 0.019531 0.247070
v -0.030762 0.019531 0.268799
v 0.002930 0.019531 0.264893
v -0.018799 0.019531 0.280762
v 0.014404 0.019531 0.287598
v -0.011230 0.019531 0.295898
v 0.018311 0.019531 0.312500
v -0.008545 0.019531 0.312500
v 0.014404 0.019531 0.337402
v -0.011230 0.019531 0.329102
v 0.002930 0.019531 0.360107
v -0.018799 0.019531 0.344238
v -0.014893 0.019531 0.377930
v -0.030762 0.019531 0.356201
v -0.037598 0.019531 0.389404
v -0.045898 0.019531 0.363770
v -0.062500 0.019531 0.393311
v -0.062500 0.019531 0.366455
v -0.241943 0.019531 0.254150
v -0.267578 0.019531 0.245850
v -0.251221 0.019531 0.312500
v -0.278320 0.019531 0.312500
v -0.241943 0.019531 0.370850
v -0.267578 0.019531 0.379150
v -0.215332 0.019531 0.423340
v -0.237061 0.019531 0.439209
v -0.173340 0.019531 0.465332
v -0.189209 0.019531 0.487061
v -0.120850 0.019531 0.491943
v -0.129150 0.019531 0.517578
v -0.062500 0.019531 0.501221
v -0.062500 0.019531 0.528320
v -0.004150 0.019531 0.491943
v 0.004150 0.019531 0.517578
v 0.048340 0.019531 0.465332
v 0.064209 0.019531 0.487061
v 0.090332 0.019531 0.423340
v 0.112061 0.019531 0.439209
v 0.116943 0.019531 0.370850
v 0.142578 0.019531 0.379150
v 0.126221 0.019531 0.312500
v 0.153320 0.019531 0.312500
v 0.116943 0.019531 0.254150
v 0.142578 0.019531 0.245850
v -0.267578 0.019531 0.245850
v -0.241943 0.019531 0.254150
v -0.237061 0.019531 0.185791
v -0.215332 0.019531 0.201660
v -0.189209 0.019531 0.137939
v -0.173340 0.019531 0.159668
v -0.129150 0.019531 0.107422
v -0.120850 0.019531 0.133057
v -0.062500 0.019531 0.096680
v -0.062500 0.019531 0.123779
v 0.004150 0.019531 0.107422
v -0.004150 0.019531 0.133057
v 0.064209 0.019531 0.137939
v 0.048340 0.019531 0.159668
v 0.112061 0.019531 0.185791
v 0.090332 0.019531 0.201660
v 0.142578 0.019531 0.245850
v 0.116943 0.019531 0.254150
v -0.062500 0.015625 -0.125000
v -0.750000 0.015625 -0.125000
v -0.718750 0.015625 -0.093750
v -0.078125 0.015625 -0.093750
v -0.062500 0.015625 0.750000
v -0.078125 0.015625 0.718750
v -0.718750 0.015625 0.718750
v -0.750000 0.015625 0.750000
v -0.750000 0.015625 0.750000
v -0.718750 0.015625 0.718750
v -0.718750 0.015625 0.500000
v -0.750000 0.015625 0.500000
v 0.625000 0.015625 0.468750
v 0.625000 0.015625 0.156250
v 0.593750 0.015625 0.125000
v 0.593750 0.015625 0.500000
v 0.625000 0.015625 0.125000
v 0.625000 0.015625 -0.125000
v 0.593750 0.015625 -0.093750
v 0.593750 0.015625 0.125000
v -0.062500 0.015625 -0.125000
v -0.046875 0.015625 -0.093750
v 0.593750 0.015625 -0.093750
v 0.625000 0.015625 -0.125000
v -0.062500 0.015625 0.750000
v 0.625000 0.015625 0.750000
v 0.593750 0.015625 0.718750
v -0.046875 0.015625 0.718750
v 0.625000 0.015625 0.750000
v 0.625000 0.015625 0.500000
v 0.593750 0.015625 0.500000
v 0.593750 0.015625 0.718750
v -0.078125 0.015625 0.718750
v -0.046875 0.015625 0.718750
v -0.046875 0.015625 0.375000
v -0.078125 0.015625 0.375000
v -0.078125 0.015625 0.250000
v -0.046875 0.015625 0.250000
v -0.046875 0.015625 -0.093750
v -0.078125 0.015625 -0.093750
v -0.750000 0.015625 0.468750
v -0.718750 0.015625 0.500000
v -0.718750 0.015625 0.125000
v -0.750000 0.015625 0.156250
v -0.750000 0.015625 0.125000
v -0.718750 0.015625 0.125000
v -0.718750 0.015625 -0.093750
v -0.750000 0.015625 -0.125000
v 0.625000 0.015625 0.156250
v 0.625000 0.015625 0.125000
v 0.593750 0.015625 0.125000
v -0.062500 0.015625 0.750000
v -0.046875 0.015625 0.718750
v -0.078125 0.015625 0.718750
v -0.078125 0.015625 -0.093750
v -0.046875 0.015625 -0.093750
v -0.062500 0.015625 -0.125000
v 0.625000 0.015625 0.500000
v 0.625000 0.015625 0.468750
v 0.593750 0.015625 0.500000
v -0.750000 0.015625 0.500000
v -0.718750 0.015625 0.500000
v -0.750000 0.015625 0.468750
v -0.750000 0.015625 0.156250
v -0.718750 0.015625 0.125000
v -0.750000 0.015625 0.125000
vn -0.0000 1.0000 -0.0000
vt 1.000000 -0.508301
vt 1.000000 -0.470215
vt 1.140625 -0.502930
vt 1.093750 -0.466797
vt 1.273438 -0.486328
vt 1.179688 -0.455566
vt 1.375000 -0.461426
vt 1.250000 -0.438965
vt 1.437500 -0.429688
vt 1.289062 -0.417480
vt 1.460938 -0.394043
vt 1.304688 -0.394043
vt 1.437500 -0.358887
vt 1.289062 -0.370605
vt 1.375000 -0.327148
vt 1.250000 -0.349609
vt 1.273438 -0.301758
vt 1.179688 -0.332520
vt 1.140625 -0.285645
vt 1.093750 -0.321777
vt 1.000000 -0.279785
vt 1.000000 -0.317871
vt -2.312500 -0.293945
vt -2.195312 -0.293945
vt -2.312500 -0.367188
vt -2.195312 -0.373535
vt -2.312500 -0.464844
vt -2.195312 -0.466309
vt -2.312500 -0.551758
vt -2.195312 -0.553711
vt -2.312500 -0.631348
vt -2.195312 -0.629883
vt -2.312500 -0.707520
vt -2.195312 -0.707520
vt -2.312500 -0.771973
vt -2.195312 -0.779785
vt -1.851562 -0.617676
vt -1.960938 -0.610352
vt -1.851562 -0.540527
vt -1.960938 -0.538574
vt -1.851562 -0.446289
vt -1.960938 -0.449219
vt -1.851562 -0.356934
vt -1.960938 -0.359863
vt -1.851562 -0.283203
vt -1.960938 -0.292480
vt -2.593750 -0.212891
vt -2.593750 -0.810059
vt -2.804688 -0.770996
vt -2.804688 -0.224609
vt -3.804688 -0.801270
vt -4.054688 -0.785156
vt -4.054688 -0.128906
vt -3.804688 -0.096191
vt -5.179688 -1.668945
vt -5.335938 -1.629395
vt -5.335938 -1.355957
vt -5.179688 -1.355957
vt -5.179688 -0.652344
vt -5.179688 -0.261230
vt -5.335938 -0.222168
vt -5.335938 -0.691406
vt -5.179688 0.436523
vt -5.179688 0.749512
vt -5.335938 0.710449
vt -5.335938 0.436523
vt 1.171875 -0.814453
vt 1.328125 -0.814453
vt 1.328125 -0.279785
vt 1.171875 -0.279785
vt 1.171875 0.192383
vt 1.328125 0.192383
vt 1.328125 0.727051
vt 1.171875 0.727051
vt -5.179688 0.397461
vt 1.250000 -0.861816
vt 1.250000 0.774414
vt -5.179688 -1.316895
s 0
usemtl out_65_sen
f 1/1/1 2/2/1 3/3/1
f 2/2/1 4/4/1 3/3/1
f 3/3/1 4/4/1 5/5/1
f 4/4/1 6/6/1 5/5/1
f 5/5/1 6/6/1 7/7/1
f 6/6/1 8/8/1 7/7/1
f 7/7/1 8/8/1 9/9/1
f 8/8/1 10/10/1 9/9/1
f 9/9/1 10/10/1 11/11/1
f 10/10/1 12/12/1 11/11/1
f 11/11/1 12/12/1 13/13/1
f 12/12/1 14/14/1 13/13/1
f 13/13/1 14/14/1 15/15/1
f 14/14/1 16/16/1 15/15/1
f 15/15/1 16/16/1 17/17/1
f 16/16/1 18/18/1 17/17/1
f 17/17/1 18/18/1 19/19/1
f 18/18/1 20/20/1 19/19/1
f 19/19/1 20/20/1 21/21/1
f 20/20/1 22/22/1 21/21/1
f 21/21/1 22/22/1 23/19/1
f 22/22/1 24/20/1 23/19/1
f 23/19/1 24/20/1 25/17/1
f 24/20/1 26/18/1 25/17/1
f 25/17/1 26/18/1 27/15/1
f 26/18/1 28/16/1 27/15/1
f 27/15/1 28/16/1 29/13/1
f 28/16/1 30/14/1 29/13/1
f 29/13/1 30/14/1 31/11/1
f 30/14/1 32/12/1 31/11/1
f 31/11/1 32/12/1 33/9/1
f 32/12/1 34/10/1 33/9/1
f 33/9/1 34/10/1 35/7/1
f 34/10/1 36/8/1 35/7/1
f 35/7/1 36/8/1 37/5/1
f 36/8/1 38/6/1 37/5/1
f 37/5/1 38/6/1 39/3/1
f 38/6/1 40/4/1 39/3/1
f 39/3/1 40/4/1 41/1/1
f 40/4/1 42/2/1 41/1/1
f 43/23/1 44/24/1 45/25/1
f 44/24/1 46/26/1 45/25/1
f 45/25/1 46/26/1 47/27/1
f 46/26/1 48/28/1 47/27/1
f 47/27/1 48/28/1 49/29/1
f 48/28/1 50/30/1 49/29/1
f 49/29/1 50/30/1 51/31/1
f 50/30/1 52/32/1 51/31/1
f 51/31/1 52/32/1 53/33/1
f 52/32/1 54/34/1 53/33/1
f 53/33/1 54/34/1 55/35/1
f 54/34/1 56/36/1 55/35/1
f 55/35/1 56/36/1 57/33/1
f 56/36/1 58/34/1 57/33/1
f 57/33/1 58/34/1 59/31/1
f 58/34/1 60/32/1 59/31/1
f 59/31/1 60/32/1 61/29/1
f 60/32/1 62/30/1 61/29/1
f 61/29/1 62/30/1 63/27/1
f 62/30/1 64/28/1 63/27/1
f 63/27/1 64/28/1 65/25/1
f 64/28/1 66/26/1 65/25/1
f 65/25/1 66/26/1 67/23/1
f 66/26/1 68/24/1 67/23/1
f 69/37/1 70/38/1 71/39/1
f 70/38/1 72/40/1 71/39/1
f 71/39/1 72/40/1 73/41/1
f 72/40/1 74/42/1 73/41/1
f 73/41/1 74/42/1 75/43/1
f 74/42/1 76/44/1 75/43/1
f 75/43/1 76/44/1 77/45/1
f 76/44/1 78/46/1 77/45/1
f 77/45/1 78/46/1 79/43/1
f 78/46/1 80/44/1 79/43/1
f 79/43/1 80/44/1 81/41/1
f 80/44/1 82/42/1 81/41/1
f 81/41/1 82/42/1 83/39/1
f 82/42/1 84/40/1 83/39/1
f 83/39/1 84/40/1 85/37/1
f 84/40/1 86/38/1 85/37/1
f 87/47/1 88/48/1 89/49/1
f 89/49/1 90/50/1 87/47/1
f 91/51/1 92/52/1 93/53/1
f 93/53/1 94/54/1 91/51/1
f 95/55/1 96/56/1 97/57/1
f 97/57/1 98/58/1 95/55/1
f 99/59/1 100/60/1 101/61/1
f 101/61/1 102/62/1 99/59/1
f 103/63/1 104/64/1 105/65/1
f 105/65/1 106/66/1 103/63/1
f 107/47/1 108/50/1 109/49/1
f 109/49/1 110/48/1 107/47/1
f 111/51/1 112/54/1 113/53/1
f 113/53/1 114/52/1 111/51/1
f 115/55/1 116/58/1 117/57/1
f 117/57/1 118/56/1 115/55/1
f 119/67/1 120/68/1 121/69/1
f 121/69/1 122/70/1 119/67/1
f 123/71/1 124/72/1 125/73/1
f 125/73/1 126/74/1 123/71/1
f 127/59/1 128/62/1 129/61/1
f 129/61/1 130/60/1 127/59/1
f 131/63/1 132/66/1 133/65/1
f 133/65/1 134/64/1 131/63/1
f 135/75/1 136/63/1 137/66/1
f 138/76/1 139/68/1 140/67/1
f 141/74/1 142/73/1 143/77/1
f 144/58/1 145/78/1 146/57/1
f 147/58/1 148/57/1 149/78/1
f 150/75/1 151/66/1 152/63/1
o polygon13
o polygon14
o polygon15
o polygon16
o polygon17
o polygon18
o polygon19
o polygon2
o polygon20
o polygon21
o polygon22
o polygon23
o polygon24
o polygon25
o polygon26
o polygon27
o polygon3
o polygon4
o polygon5
o polygon6
o polygon7
o polygon8
o polygon9
