mtllib 1Wall1.mtl
o map
v 1.0 0.99723494 1.15
v 0.0 0.99723494 1.15
v 1.0 0.682745 0.66133
v 0.0 0.682745 0.66133
v 0.0 0.633085 0.495246
v 1.0 0.633085 0.495246
v 1.0 0.786988 1.15
v 0.0 0.786988 1.15
v 0.0 0.31461406 0.0
v 1.0 0.31461406 0.0
v 1.0 1.066138 0.983446
v 0.0 1.066138 0.983446
v 1.0 0.48662102 0.662857
v 0.0 0.48662102 0.662857
vt 0.5 0.0
vt 0.5 -1.0
vt 0.03125 -1.0
vt 0.03125 0.0
vt 0.96875 0.0
vt 0.96875 -1.0
vn 0.0 0.0 1.0
vn 0.0 0.0117 0.9999
vn 0.0 -0.9689 0.2475
vn 0.0 0.8933 0.4495
vn 1.0E-4 -0.9739 0.2268
c 1.0 1.0 1.0
c 0.73333335 0.73333335 0.73333335
usemtl m_lab01_06_1
s off
f 13/1/2/1 3/5/2/2 4/6/2/2 14/2/2/1
f 13/1/3/1 14/2/3/1 9/3/3/2 10/4/3/2
f 7/1/1/1 1/5/1/2 2/6/1/2 8/2/1/1
f 7/1/5/1 8/2/5/1 5/3/5/2 6/4/5/2
f 2/2/4/2 1/1/4/2 11/4/4/2 12/3/4/2
