mtllib 2WallCorner1.mtl
o map
v 1.001822 0.513379 0.662857
v 0.48662102 -0.00112 0.662857
v 0.682745 -0.00112 0.66133
v 1.003349 0.317255 0.66133
v 0.67394197 0.3226 0.66133
v 0.318128 0.684376 0.0
v 1.001822 0.685386 0.0
v 0.783051 0.211028 1.15
v 0.314614 -0.00112 0.0
v 0.48757702 0.514078 0.662857
v 1.000874 1.9E-5 1.15
v 1.001822 0.213012 1.15
v 0.630539 0.366915 0.495246
v 0.786988 -0.00112 1.15
v 0.633085 -0.00112 0.495246
v 1.003349 0.366915 0.495246
v 0.633085 0.369687 0.495246
vt 0.5 0.0
vt 0.5 -1.0
vt 0.03125 -1.0
vt 0.03125 0.0
vt 0.96875 -1.0
vt 0.96875 0.0
vn 9.0E-4 -0.0116 0.9999
vn 0.0119 1.0E-4 0.9999
vn 0.0119 2.0E-4 0.9999
vn -1.0E-4 -0.0117 0.9999
vn -0.001 0.9689 0.2476
vn -0.9688 0.0025 0.2478
vn 0.0108 -0.0027 0.9999
vn -0.9741 -0.0043 0.2263
vn 0.0 -0.0 1.0
vn 0.0118 -8.0E-4 0.9999
vn 0.0 -0.0117 0.9999
vn -1.0E-4 0.9689 0.2475
vn -4.0E-4 0.9689 0.2475
vn -0.9688 0.0016 0.2477
vn -0.9688 0.0019 0.2477
vn -0.974 -0.0043 0.2263
vn 0.0027 -0.0106 0.9999
vn -0.0025 0.9738 0.2273
vn -0.0021 0.9738 0.2272
vn -0.974 -0.0037 0.2264
vn -0.0023 0.9738 0.2272
vn -0.974 -0.0042 0.2263
c 1.0 1.0 1.0
c 0.73333335 0.73333335 0.73333335
usemtl m_lab01_06_1
s off
f 2/1/2/1 3/6/3/2 5/5/10/2 10/2/7/1
f 2/1/14/1 10/2/6/1 6/3/15/2 9/4/14/2
f 14/1/16/1 8/2/20/1 17/3/22/2 15/4/8/2
f 10/1/17/1 5/6/1/2 4/5/4/2 1/2/11/1
f 10/1/5/1 1/2/12/1 7/3/12/2 6/4/13/2
f 8/1/18/1 12/2/19/1 16/3/19/2 13/4/21/2
f 14/1/9/1 11/5/9/2 8/2/9/1
f 8/1/9/1 11/5/9/2 12/2/9/1
