# Blender 4.0.0
# www.blender.org
mtllib 3Wall1.mtl
o map
v 1.000000 1.000000 -0.000000
v 1.000000 1.000000 3.000001
v 1.000000 0.000001 3.000001
v 1.000000 0.000002 -0.000000
v 1.000000 0.000000 0.000000
v 1.000000 0.000000 3.000001
v 0.000001 0.000000 3.000001
v 0.000002 0.000000 0.000000
v 1.000000 1.000000 3.000000
v 1.000000 1.000000 6.000001
v 1.000000 0.000001 6.000001
v 1.000000 0.000002 3.000000
v 1.000000 0.000000 5.997751
v 1.000000 1.000000 5.997751
v 0.286375 0.000000 5.991638
v 0.286375 1.000000 5.991638
v 1.000000 0.000000 3.000000
v 1.000000 0.000000 6.000001
v 0.000001 0.000000 6.000001
v 0.000002 0.000000 3.000000
v 0.000000 0.000000 5.997751
v 1.000000 0.000000 5.997751
v 0.000000 0.713625 5.991638
v 1.000000 0.713625 5.991638
vn -0.0086 -0.0000 1.0000
vn -0.0000 0.0086 1.0000
vn 1.0000 -0.0000 -0.0000
vn -0.0000 -1.0000 -0.0000
vt 0.000000 0.000000
vt 1.000000 0.000000
vt 1.000000 1.000000
vt 0.000000 1.000000
vt 4.486563 1.000000
vt 4.486563 0.000000
vt 4.929688 0.000000
vt 4.929688 1.000000
s 0
usemtl black
f 13/1/1 14/2/1 16/3/1 15/4/1
f 21/1/2 22/2/2 24/3/2 23/4/2
usemtl azt_wall02_1
f 3/5/3 4/6/3 1/7/3 2/8/3
f 7/5/4 8/6/4 5/7/4 6/8/4
f 11/5/3 12/6/3 9/7/3 10/8/3
f 19/5/4 20/6/4 17/7/4 18/8/4
