# Blender 4.0.0
# www.blender.org
mtllib 4Wall1.mtl
o map
v 1.000000 1.000000 3.000000
v 1.000000 1.000000 6.000001
v 1.000000 0.000001 6.000001
v 1.000000 0.000002 3.000000
v 1.000000 0.000000 3.000000
v 1.000000 0.000000 6.000001
v 0.000001 0.000000 6.000001
v 0.000002 0.000000 3.000000
v 1.000000 1.000000 6.000000
v 1.000000 1.000001 9.000001
v 1.000000 0.000002 9.000001
v 1.000000 0.000002 6.000000
v 1.000000 0.000001 8.997751
v 1.000000 1.000001 8.997751
v 0.286375 0.000001 8.991638
v 0.286375 1.000001 8.991638
v 1.000000 0.000000 6.000000
v 1.000000 0.000001 9.000001
v 0.000001 0.000001 9.000001
v 0.000002 0.000000 6.000000
v 0.000000 0.000001 8.997751
v 1.000000 0.000001 8.997751
v 0.000000 0.713626 8.991638
v 1.000000 0.713626 8.991638
v 1.000000 1.000000 -0.000000
v 1.000000 1.000000 3.000001
v 1.000000 0.000001 3.000001
v 1.000000 0.000002 -0.000000
v 1.000000 0.000000 0.000000
v 1.000000 0.000000 3.000001
v 0.000001 0.000000 3.000001
v 0.000002 0.000000 0.000000
v 1.000000 1.000000 3.000000
v 1.000000 1.000000 6.000001
v 1.000000 0.000001 6.000001
v 1.000000 0.000002 3.000000
v 1.000000 0.000000 3.000000
v 1.000000 0.000000 6.000001
v 0.000001 0.000000 6.000001
v 0.000002 0.000000 3.000000
vn 1.0000 -0.0000 -0.0000
vn -0.0000 -1.0000 -0.0000
vn -0.0086 -0.0000 1.0000
vn -0.0000 0.0086 1.0000
vt 4.486563 1.000000
vt 4.486563 0.000000
vt 4.929688 0.000000
vt 4.929688 1.000000
vt 0.000000 0.000000
vt 1.000000 0.000000
vt 1.000000 1.000000
vt 0.000000 1.000000
s 0
usemtl azt_wall02_1
f 3/1/1 4/2/1 1/3/1 2/4/1
f 7/1/2 8/2/2 5/3/2 6/4/2
f 11/1/1 12/2/1 9/3/1 10/4/1
f 19/1/2 20/2/2 17/3/2 18/4/2
f 27/1/1 28/2/1 25/3/1 26/4/1
f 31/1/2 32/2/2 29/3/2 30/4/2
f 35/1/1 36/2/1 33/3/1 34/4/1
f 39/1/2 40/2/2 37/3/2 38/4/2
usemtl black
f 13/5/3 14/6/3 16/7/3 15/8/3
f 21/5/4 22/6/4 24/7/4 23/8/4
