# Blender 4.0.0
# www.blender.org
mtllib 5Wall1.mtl
o map
v 1.000000 0.000000 6.000000
v 1.000000 0.000001 9.000001
v 0.000001 0.000001 9.000001
v 0.000002 0.000000 6.000000
v 0.000000 0.000001 8.997751
v 1.000000 0.000001 8.997751
v 0.000000 0.713626 8.991638
v 1.000000 0.713626 8.991638
v 1.000000 0.000000 0.000000
v 1.000000 0.000000 3.000001
v 0.000001 0.000000 3.000001
v 0.000002 0.000000 0.000000
v 1.000000 0.000000 3.000000
v 1.000000 0.000000 6.000001
v 0.000001 0.000000 6.000001
v 0.000002 0.000000 3.000000
vn -0.0000 0.0086 1.0000
vn -0.0000 -1.0000 -0.0000
vt 0.000000 0.000000
vt 1.000000 0.000000
vt 1.000000 1.000000
vt 0.000000 1.000000
vt 4.486563 1.000000
vt 4.486563 0.000000
vt 4.929688 0.000000
vt 4.929688 1.000000
s 0
usemtl black
f 5/1/1 6/2/1 8/3/1 7/4/1
usemtl azt_wall02_1
f 3/5/2 4/6/2 1/7/2 2/8/2
f 11/5/2 12/6/2 9/7/2 10/8/2
f 15/5/2 16/6/2 13/7/2 14/8/2
