mtllib Cross Walk 2.mtl
o map
v 2.0 2.0 0.0
v 2.0 2.625 0.0
v 1.0 2.625 0.0
v 1.0 2.0 0.0
v -1.0 2.0 0.0
v -1.0 2.625 0.0
v 1.625 -0.625 0.0
v 2.0 -0.625 0.0
v 2.0 0.0 0.0
v 1.625 0.0 0.0
v 1.0 -1.0 0.0
v 1.625 -1.0 0.0
v 1.0 -0.625 0.0
v -1.625 -1.0 0.0
v -1.0 -1.0 0.0
v -1.625 2.0 0.0
v -1.625 2.625 0.0
v 1.0 0.0 0.0
v -2.0 3.0 0.0
v -2.0 3.0 -0.5
v -2.0 -1.0 -0.5
v -2.0 -1.0 0.0
v 1.0 2.5 1.5
v 1.0 3.0 1.5
v -2.0 3.0 1.5
v -1.5 2.5 1.5
v 2.0 2.5 1.5
v 2.0 3.0 1.5
v -2.0 -1.0 1.5
v -1.5 -1.0 1.5
v 2.0 -1.0 1.5
v 2.0 -0.5 1.5
v 1.5 -0.5 1.5
v 1.5 -1.0 1.5
v 1.0 -0.5 0.0
v 1.0 2.5 0.0
v 1.0 2.5 1.0
v -1.0 2.5 0.0
v 2.0 2.5 0.0
v 2.0 2.5 1.0
v -1.5 2.5 1.0
v -1.5 2.5 0.0
v -1.5 2.0 0.0
v -1.5 -1.0 0.0
v -1.5 -1.0 1.0
v 1.5 -0.5 0.0
v 1.5 -1.0 0.0
v 1.5 -1.0 1.0
v 1.5 -0.5 1.0
v -2.0 3.0 1.0
v -2.0 -1.0 1.0
v 3.0 0.0 0.0
v 2.0 0.0 0.0
v 2.0 -0.625 0.0
v 3.0 -0.625 0.0
v 3.0 2.625 0.0
v 2.0 2.625 0.0
v 2.0 2.0 0.0
v 3.0 2.0 0.0
v 3.0 -1.0 0.0
v 2.0 -1.0 0.0
v 2.0 -1.0 -0.50000006
v 3.0 -1.0 -0.50000006
v 3.0 -0.5 1.5
v 2.0 -0.5 1.5
v 2.0 -1.0 1.5
v 3.0 -1.0 1.5
v 3.0 3.0 1.5
v 2.0 3.0 1.5
v 2.0 2.5 1.5
v 3.0 2.5 1.5
v 3.0 2.5 1.0
v 2.0 2.5 1.0
v 2.0 2.5 0.0
v 3.0 2.5 0.0
v 3.0 -1.0 1.0
v 2.0 -1.0 1.0
v 4.0 0.0 0.0
v 3.0 0.0 0.0
v 3.0 -0.625 0.0
v 4.0 -0.625 0.0
v 4.0 2.625 0.0
v 3.0 2.625 0.0
v 3.0 2.0 0.0
v 4.0 2.0 0.0
v 4.0 -1.0 0.0
v 3.0 -1.0 0.0
v 3.0 -1.0 -0.50000006
v 4.0 -1.0 -0.50000006
v 4.0 -0.5 1.5
v 3.0 -0.5 1.5
v 3.0 -1.0 1.5
v 4.0 -1.0 1.5
v 4.0 3.0 1.5
v 3.0 3.0 1.5
v 3.0 2.5 1.5
v 4.0 2.5 1.5
v 4.0 2.5 1.0
v 3.0 2.5 1.0
v 3.0 2.5 0.0
v 4.0 2.5 0.0
v 4.0 -1.0 1.0
v 3.0 -1.0 1.0
v 5.0 0.0 0.0
v 4.0 0.0 0.0
v 4.0 -0.625 0.0
v 5.0 -0.625 0.0
v 5.0 2.625 0.0
v 4.0 2.625 0.0
v 4.0 2.0 0.0
v 5.0 2.0 0.0
v 5.0 -1.0 0.0
v 4.0 -1.0 0.0
v 4.0 -1.0 -0.50000006
v 5.0 -1.0 -0.50000006
v 5.0 -0.5 1.5
v 4.0 -0.5 1.5
v 4.0 -1.0 1.5
v 5.0 -1.0 1.5
v 5.0 3.0 1.5
v 4.0 3.0 1.5
v 4.0 2.5 1.5
v 5.0 2.5 1.5
v 5.0 2.5 1.0
v 4.0 2.5 1.0
v 4.0 2.5 0.0
v 5.0 2.5 0.0
v 5.0 -1.0 1.0
v 4.0 -1.0 1.0
v 6.0 0.0 0.0
v 5.0 0.0 0.0
v 5.0 -0.625 0.0
v 6.0 -0.625 0.0
v 6.0 2.625 0.0
v 5.0 2.625 0.0
v 5.0 2.0 0.0
v 6.0 2.0 0.0
v 6.0 -1.0 0.0
v 5.0 -1.0 0.0
v 5.0 -1.0 -0.50000006
v 6.0 -1.0 -0.50000006
v 6.0 -0.5 1.5
v 5.0 -0.5 1.5
v 5.0 -1.0 1.5
v 6.0 -1.0 1.5
v 6.0 3.0 1.5
v 5.0 3.0 1.5
v 5.0 2.5 1.5
v 6.0 2.5 1.5
v 6.0 2.5 1.0
v 5.0 2.5 1.0
v 5.0 2.5 0.0
v 6.0 2.5 0.0
v 6.0 -1.0 1.0
v 5.0 -1.0 1.0
v 7.0 0.0 0.0
v 6.0 0.0 0.0
v 6.0 -0.625 0.0
v 7.0 -0.625 0.0
v 7.0 2.625 0.0
v 6.0 2.625 0.0
v 6.0 2.0 0.0
v 7.0 2.0 0.0
v 7.0 -1.0 0.0
v 6.0 -1.0 0.0
v 6.0 -1.0 -0.50000006
v 7.0 -1.0 -0.50000006
v 7.0 -0.5 1.5
v 6.0 -0.5 1.5
v 6.0 -1.0 1.5
v 7.0 -1.0 1.5
v 7.0 3.0 1.5
v 6.0 3.0 1.5
v 6.0 2.5 1.5
v 7.0 2.5 1.5
v 7.0 2.5 1.0
v 6.0 2.5 1.0
v 6.0 2.5 0.0
v 7.0 2.5 0.0
v 7.0 -1.0 1.0
v 6.0 -1.0 1.0
v 8.0 0.0 0.0
v 7.0 0.0 0.0
v 7.0 -0.625 0.0
v 8.0 -0.625 0.0
v 8.0 2.625 0.0
v 7.0 2.625 0.0
v 7.0 2.0 0.0
v 8.0 2.0 0.0
v 8.0 -1.0 0.0
v 7.0 -1.0 0.0
v 7.0 -1.0 -0.50000006
v 8.0 -1.0 -0.50000006
v 8.0 -0.5 1.5
v 7.0 -0.5 1.5
v 7.0 -1.0 1.5
v 8.0 -1.0 1.5
v 8.0 3.0 1.5
v 7.0 3.0 1.5
v 7.0 2.5 1.5
v 8.0 2.5 1.5
v 8.0 2.5 1.0
v 7.0 2.5 1.0
v 7.0 2.5 0.0
v 8.0 2.5 0.0
v 8.0 -1.0 1.0
v 7.0 -1.0 1.0
v 9.0 0.0 0.0
v 8.0 0.0 0.0
v 8.0 -0.625 0.0
v 9.0 -0.625 0.0
v 9.0 2.625 0.0
v 8.0 2.625 0.0
v 8.0 2.0 0.0
v 9.0 2.0 0.0
v 9.0 -1.0 0.0
v 8.0 -1.0 0.0
v 8.0 -1.0 -0.50000006
v 9.0 -1.0 -0.50000006
v 9.0 -0.5 1.5
v 8.0 -0.5 1.5
v 8.0 -1.0 1.5
v 9.0 -1.0 1.5
v 9.0 3.0 1.5
v 8.0 3.0 1.5
v 8.0 2.5 1.5
v 9.0 2.5 1.5
v 9.0 2.5 1.0
v 8.0 2.5 1.0
v 8.0 2.5 0.0
v 9.0 2.5 0.0
v 9.0 -1.0 1.0
v 8.0 -1.0 1.0
v 10.0 0.0 0.0
v 9.0 0.0 0.0
v 9.0 -0.625 0.0
v 10.0 -0.625 0.0
v 10.0 2.625 0.0
v 9.0 2.625 0.0
v 9.0 2.0 0.0
v 10.0 2.0 0.0
v 10.0 -1.0 0.0
v 9.0 -1.0 0.0
v 9.0 -1.0 -0.50000006
v 10.0 -1.0 -0.50000006
v 10.0 -0.5 1.5
v 9.0 -0.5 1.5
v 9.0 -1.0 1.5
v 10.0 -1.0 1.5
v 10.0 3.0 1.5
v 9.0 3.0 1.5
v 9.0 2.5 1.5
v 10.0 2.5 1.5
v 10.0 2.5 1.0
v 9.0 2.5 1.0
v 9.0 2.5 0.0
v 10.0 2.5 0.0
v 10.0 -1.0 1.0
v 9.0 -1.0 1.0
v 11.0 0.0 0.0
v 10.0 0.0 0.0
v 10.0 -0.625 0.0
v 11.0 -0.625 0.0
v 11.0 2.625 0.0
v 10.0 2.625 0.0
v 10.0 2.0 0.0
v 11.0 2.0 0.0
v 11.0 -1.0 0.0
v 10.0 -1.0 0.0
v 10.0 -1.0 -0.50000006
v 11.0 -1.0 -0.50000006
v 11.0 -0.5 1.5
v 10.0 -0.5 1.5
v 10.0 -1.0 1.5
v 11.0 -1.0 1.5
v 11.0 3.0 1.5
v 10.0 3.0 1.5
v 10.0 2.5 1.5
v 11.0 2.5 1.5
v 11.0 2.5 1.0
v 10.0 2.5 1.0
v 10.0 2.5 0.0
v 11.0 2.5 0.0
v 11.0 -1.0 1.0
v 10.0 -1.0 1.0
v 12.0 0.0 0.0
v 11.0 0.0 0.0
v 11.0 -0.625 0.0
v 12.0 -0.625 0.0
v 12.0 2.625 0.0
v 11.0 2.625 0.0
v 11.0 2.0 0.0
v 12.0 2.0 0.0
v 12.0 -1.0 0.0
v 11.0 -1.0 0.0
v 11.0 -1.0 -0.50000006
v 12.0 -1.0 -0.50000006
v 12.0 -0.5 1.5
v 11.0 -0.5 1.5
v 11.0 -1.0 1.5
v 12.0 -1.0 1.5
v 12.0 3.0 1.5
v 11.0 3.0 1.5
v 11.0 2.5 1.5
v 12.0 2.5 1.5
v 12.0 2.5 1.0
v 11.0 2.5 1.0
v 11.0 2.5 0.0
v 12.0 2.5 0.0
v 12.0 -1.0 1.0
v 11.0 -1.0 1.0
v 13.0 0.0 0.0
v 12.0 0.0 0.0
v 12.0 -0.625 0.0
v 13.0 -0.625 0.0
v 13.0 2.625 0.0
v 12.0 2.625 0.0
v 12.0 2.0 0.0
v 13.0 2.0 0.0
v 13.0 -1.0 0.0
v 12.0 -1.0 0.0
v 12.0 -1.0 -0.50000006
v 13.0 -1.0 -0.50000006
v 13.0 -0.5 1.5
v 12.0 -0.5 1.5
v 12.0 -1.0 1.5
v 13.0 -1.0 1.5
v 13.0 3.0 1.5
v 12.0 3.0 1.5
v 12.0 2.5 1.5
v 13.0 2.5 1.5
v 13.0 2.5 1.0
v 12.0 2.5 1.0
v 12.0 2.5 0.0
v 13.0 2.5 0.0
v 13.0 -1.0 1.0
v 12.0 -1.0 1.0
v 14.0 0.0 0.0
v 13.0 0.0 0.0
v 13.0 -0.625 0.0
v 14.0 -0.625 0.0
v 14.0 2.625 0.0
v 13.0 2.625 0.0
v 13.0 2.0 0.0
v 14.0 2.0 0.0
v 14.0 -1.0 0.0
v 13.0 -1.0 0.0
v 13.0 -1.0 -0.50000006
v 14.0 -1.0 -0.50000006
v 14.0 -0.5 1.5
v 13.0 -0.5 1.5
v 13.0 -1.0 1.5
v 14.0 -1.0 1.5
v 14.0 3.0 1.5
v 13.0 3.0 1.5
v 13.0 2.5 1.5
v 14.0 2.5 1.5
v 14.0 2.5 1.0
v 13.0 2.5 1.0
v 13.0 2.5 0.0
v 14.0 2.5 0.0
v 14.0 -1.0 1.0
v 13.0 -1.0 1.0
vt -7.0 -1.0
vt -7.0 7.10543E-15
vt -8.0 7.10543E-15
vt -8.0 -1.0
vt -8.0 -1.06581E-14
vt -10.0 -1.0
vt -8.0 -3.55271E-15
vt -10.0 -3.55271E-15
vt -9.5 3.55271E-15
vt -9.10526 3.55271E-15
vt -9.10526 -1.0
vt -9.5 -1.0
vt 1.0 1.0
vt 3.55271E-15 1.0
vt 1.0 1.5
vt 0.0 1.0
vt 0.0 1.5
vt 0.0 -2.0
vt 1.0 -2.0
vt -3.55271E-15 1.0
vt 1.0 -1.0
vt 1.0 7.10543E-15
vt 3.55271E-15 7.10543E-15
vt -3.55271E-15 0.0
vt -3.55271E-15 -1.0
vt 0.0 -1.0
vt 1.0 3.55271E-15
vt 0.0 3.55271E-15
vt -13.7795 4.92126
vt -13.7795 4.42913
vt -9.84252 4.42913
vt -9.84252 4.92126
vt 12.7953 13.2874
vt 12.7953 13.7795
vt 9.84252 13.7795
vt 10.3346 13.2874
vt 13.2874 13.2874
vt 13.2874 13.7795
vt 12.3031 13.7795
vt 12.3031 13.2874
vt 9.84252 9.84252
vt 10.3346 9.84252
vt 13.7795 9.84252
vt 13.7795 10.3346
vt 13.2874 10.3346
vt 13.2874 9.84252
vt -4.0 -3.0
vt -4.0 -6.0
vt -2.0 -3.0
vt -2.0 -5.0
vt -2.0 -5.5
vt -2.0 -6.0
vt -1.0 -5.0
vt -1.0 -3.0
vt -2.0 -1.0
vt -2.0 0.0
vt -4.0 -1.0
vt -1.0 -1.0
vt -1.0 0.0
vt -2.0 8.88178E-16
vt -4.5 8.88178E-16
vt -4.5 2.66454E-15
vt -4.5 -1.0
vt 0.5 0.0
vt -3.0 -1.0
vt 0.5 -8.88178E-16
vt -1.77636E-15 -1.0
vt 0.5 -1.0
vt 0.5 8.88178E-16
vt -3.0 8.88178E-16
vt 0.6875 -1.0
vt 0.875 -1.0
vt 0.875 -8.88178E-16
vt 0.875 8.88178E-16
vt 0.6875 8.88178E-16
vt 12.5 8.88178E-16
vt 12.5 -1.0
vt 8.5 -1.0
vt 8.5 8.88178E-16
vt 0.476563 -1.0
vt 0.476563 1.24345E-14
vt 0.414063 -1.0
vt 0.492187 -1.0
vt 0.492187 -1.04805E-13
vt 0.476562 -1.04805E-13
vt 0.476562 -1.0
vt 0.476563 0.0
vt 0.414063 0.0
vt 9.84252 5.90551
vt 13.2874 5.90551
vt 13.2874 6.39764
vt 9.84252 6.39764
vt -9.84252 5.90551
vt -9.84252 6.39764
vt -10.3346 5.90551
vt -10.3346 6.39764
vt 12.0 -1.0
vt 11.0 -1.0
vt 11.0 -1.11022E-16
vt 12.0 -1.11022E-16
vt 12.0 8.88178E-16
vt 11.0 8.88178E-16
vt 0.820313 -7.10543E-15
vt 0.792969 -7.10543E-15
vt 0.792969 -1.0
vt 0.820313 -1.0
vt 0.867187 0.109375
vt 0.835937 0.109375
vt 0.835937 -3.33067E-16
vt 0.867187 -3.33067E-16
vt 0.867188 1.0
vt 0.835938 1.0
vt 0.835938 0.835937
vt 0.867188 0.835937
vt 11.0 18.0
vt 10.0 18.0
vt 10.0 16.0
vt 11.0 16.0
vt 11.0 3.55271E-15
vt 10.0 3.55271E-15
vt 10.0 -1.0
vt 10.0 8.88178E-16
vt 0.796875 -1.24345E-14
vt 0.773437 -1.24345E-14
vt 0.773437 -1.0
vt 0.796875 -1.0
vt 0.796875 -1.77636E-15
vt 0.773437 -1.77636E-15
vt 12.0 -1.0
vt 11.0 -1.0
vt 11.0 -1.11022E-16
vt 12.0 -1.11022E-16
vt 12.0 8.88178E-16
vt 11.0 8.88178E-16
vt 0.820313 -7.10543E-15
vt 0.792969 -7.10543E-15
vt 0.792969 -1.0
vt 0.820313 -1.0
vt 0.867187 0.109375
vt 0.835937 0.109375
vt 0.835937 -3.33067E-16
vt 0.867187 -3.33067E-16
vt 0.867188 1.0
vt 0.835938 1.0
vt 0.835938 0.835937
vt 0.867188 0.835937
vt 11.0 18.0
vt 10.0 18.0
vt 10.0 16.0
vt 11.0 16.0
vt 11.0 3.55271E-15
vt 10.0 3.55271E-15
vt 10.0 -1.0
vt 10.0 8.88178E-16
vt 0.796875 -1.24345E-14
vt 0.773437 -1.24345E-14
vt 0.773437 -1.0
vt 0.796875 -1.0
vt 0.796875 -1.77636E-15
vt 0.773437 -1.77636E-15
vt 12.0 -1.0
vt 11.0 -1.0
vt 11.0 -1.11022E-16
vt 12.0 -1.11022E-16
vt 12.0 8.88178E-16
vt 11.0 8.88178E-16
vt 0.820313 -7.10543E-15
vt 0.792969 -7.10543E-15
vt 0.792969 -1.0
vt 0.820313 -1.0
vt 0.867187 0.109375
vt 0.835937 0.109375
vt 0.835937 -3.33067E-16
vt 0.867187 -3.33067E-16
vt 0.867188 1.0
vt 0.835938 1.0
vt 0.835938 0.835937
vt 0.867188 0.835937
vt 11.0 18.0
vt 10.0 18.0
vt 10.0 16.0
vt 11.0 16.0
vt 11.0 3.55271E-15
vt 10.0 3.55271E-15
vt 10.0 -1.0
vt 10.0 8.88178E-16
vt 0.796875 -1.24345E-14
vt 0.773437 -1.24345E-14
vt 0.773437 -1.0
vt 0.796875 -1.0
vt 0.796875 -1.77636E-15
vt 0.773437 -1.77636E-15
vt 12.0 -1.0
vt 11.0 -1.0
vt 11.0 -1.11022E-16
vt 12.0 -1.11022E-16
vt 12.0 8.88178E-16
vt 11.0 8.88178E-16
vt 0.820313 -7.10543E-15
vt 0.792969 -7.10543E-15
vt 0.792969 -1.0
vt 0.820313 -1.0
vt 0.867187 0.109375
vt 0.835937 0.109375
vt 0.835937 -3.33067E-16
vt 0.867187 -3.33067E-16
vt 0.867188 1.0
vt 0.835938 1.0
vt 0.835938 0.835937
vt 0.867188 0.835937
vt 11.0 18.0
vt 10.0 18.0
vt 10.0 16.0
vt 11.0 16.0
vt 11.0 3.55271E-15
vt 10.0 3.55271E-15
vt 10.0 -1.0
vt 10.0 8.88178E-16
vt 0.796875 -1.24345E-14
vt 0.773437 -1.24345E-14
vt 0.773437 -1.0
vt 0.796875 -1.0
vt 0.796875 -1.77636E-15
vt 0.773437 -1.77636E-15
vt 12.0 -1.0
vt 11.0 -1.0
vt 11.0 -1.11022E-16
vt 12.0 -1.11022E-16
vt 12.0 8.88178E-16
vt 11.0 8.88178E-16
vt 0.820313 -7.10543E-15
vt 0.792969 -7.10543E-15
vt 0.792969 -1.0
vt 0.820313 -1.0
vt 0.867187 0.109375
vt 0.835937 0.109375
vt 0.835937 -3.33067E-16
vt 0.867187 -3.33067E-16
vt 0.867188 1.0
vt 0.835938 1.0
vt 0.835938 0.835937
vt 0.867188 0.835937
vt 11.0 18.0
vt 10.0 18.0
vt 10.0 16.0
vt 11.0 16.0
vt 11.0 3.55271E-15
vt 10.0 3.55271E-15
vt 10.0 -1.0
vt 10.0 8.88178E-16
vt 0.796875 -1.24345E-14
vt 0.773437 -1.24345E-14
vt 0.773437 -1.0
vt 0.796875 -1.0
vt 0.796875 -1.77636E-15
vt 0.773437 -1.77636E-15
vt 12.0 -1.0
vt 11.0 -1.0
vt 11.0 -1.11022E-16
vt 12.0 -1.11022E-16
vt 12.0 8.88178E-16
vt 11.0 8.88178E-16
vt 0.820313 -7.10543E-15
vt 0.792969 -7.10543E-15
vt 0.792969 -1.0
vt 0.820313 -1.0
vt 0.867187 0.109375
vt 0.835937 0.109375
vt 0.835937 -3.33067E-16
vt 0.867187 -3.33067E-16
vt 0.867188 1.0
vt 0.835938 1.0
vt 0.835938 0.835937
vt 0.867188 0.835937
vt 11.0 18.0
vt 10.0 18.0
vt 10.0 16.0
vt 11.0 16.0
vt 11.0 3.55271E-15
vt 10.0 3.55271E-15
vt 10.0 -1.0
vt 10.0 8.88178E-16
vt 0.796875 -1.24345E-14
vt 0.773437 -1.24345E-14
vt 0.773437 -1.0
vt 0.796875 -1.0
vt 0.796875 -1.77636E-15
vt 0.773437 -1.77636E-15
vt 12.0 -1.0
vt 11.0 -1.0
vt 11.0 -1.11022E-16
vt 12.0 -1.11022E-16
vt 12.0 8.88178E-16
vt 11.0 8.88178E-16
vt 0.820313 -7.10543E-15
vt 0.792969 -7.10543E-15
vt 0.792969 -1.0
vt 0.820313 -1.0
vt 0.867187 0.109375
vt 0.835937 0.109375
vt 0.835937 -3.33067E-16
vt 0.867187 -3.33067E-16
vt 0.867188 1.0
vt 0.835938 1.0
vt 0.835938 0.835937
vt 0.867188 0.835937
vt 11.0 18.0
vt 10.0 18.0
vt 10.0 16.0
vt 11.0 16.0
vt 11.0 3.55271E-15
vt 10.0 3.55271E-15
vt 10.0 -1.0
vt 10.0 8.88178E-16
vt 0.796875 -1.24345E-14
vt 0.773437 -1.24345E-14
vt 0.773437 -1.0
vt 0.796875 -1.0
vt 0.796875 -1.77636E-15
vt 0.773437 -1.77636E-15
vt 12.0 -1.0
vt 11.0 -1.0
vt 11.0 -1.11022E-16
vt 12.0 -1.11022E-16
vt 12.0 8.88178E-16
vt 11.0 8.88178E-16
vt 0.820313 -7.10543E-15
vt 0.792969 -7.10543E-15
vt 0.792969 -1.0
vt 0.820313 -1.0
vt 0.867187 0.109375
vt 0.835937 0.109375
vt 0.835937 -3.33067E-16
vt 0.867187 -3.33067E-16
vt 0.867188 1.0
vt 0.835938 1.0
vt 0.835938 0.835937
vt 0.867188 0.835937
vt 11.0 18.0
vt 10.0 18.0
vt 10.0 16.0
vt 11.0 16.0
vt 11.0 3.55271E-15
vt 10.0 3.55271E-15
vt 10.0 -1.0
vt 10.0 8.88178E-16
vt 0.796875 -1.24345E-14
vt 0.773437 -1.24345E-14
vt 0.773437 -1.0
vt 0.796875 -1.0
vt 0.796875 -1.77636E-15
vt 0.773437 -1.77636E-15
vt 12.0 -1.0
vt 11.0 -1.0
vt 11.0 -1.11022E-16
vt 12.0 -1.11022E-16
vt 12.0 8.88178E-16
vt 11.0 8.88178E-16
vt 0.820313 -7.10543E-15
vt 0.792969 -7.10543E-15
vt 0.792969 -1.0
vt 0.820313 -1.0
vt 0.867187 0.109375
vt 0.835937 0.109375
vt 0.835937 -3.33067E-16
vt 0.867187 -3.33067E-16
vt 0.867188 1.0
vt 0.835938 1.0
vt 0.835938 0.835937
vt 0.867188 0.835937
vt 11.0 18.0
vt 10.0 18.0
vt 10.0 16.0
vt 11.0 16.0
vt 11.0 3.55271E-15
vt 10.0 3.55271E-15
vt 10.0 -1.0
vt 10.0 8.88178E-16
vt 0.796875 -1.24345E-14
vt 0.773437 -1.24345E-14
vt 0.773437 -1.0
vt 0.796875 -1.0
vt 0.796875 -1.77636E-15
vt 0.773437 -1.77636E-15
vt 12.0 -1.0
vt 11.0 -1.0
vt 11.0 -1.11022E-16
vt 12.0 -1.11022E-16
vt 12.0 8.88178E-16
vt 11.0 8.88178E-16
vt 0.820313 -7.10543E-15
vt 0.792969 -7.10543E-15
vt 0.792969 -1.0
vt 0.820313 -1.0
vt 0.867187 0.109375
vt 0.835937 0.109375
vt 0.835937 -3.33067E-16
vt 0.867187 -3.33067E-16
vt 0.867188 1.0
vt 0.835938 1.0
vt 0.835938 0.835937
vt 0.867188 0.835937
vt 11.0 18.0
vt 10.0 18.0
vt 10.0 16.0
vt 11.0 16.0
vt 11.0 3.55271E-15
vt 10.0 3.55271E-15
vt 10.0 -1.0
vt 10.0 8.88178E-16
vt 0.796875 -1.24345E-14
vt 0.773437 -1.24345E-14
vt 0.773437 -1.0
vt 0.796875 -1.0
vt 0.796875 -1.77636E-15
vt 0.773437 -1.77636E-15
vt 12.0 -1.0
vt 11.0 -1.0
vt 11.0 -1.11022E-16
vt 12.0 -1.11022E-16
vt 12.0 8.88178E-16
vt 11.0 8.88178E-16
vt 0.820313 -7.10543E-15
vt 0.792969 -7.10543E-15
vt 0.792969 -1.0
vt 0.820313 -1.0
vt 0.867187 0.109375
vt 0.835937 0.109375
vt 0.835937 -3.33067E-16
vt 0.867187 -3.33067E-16
vt 0.867188 1.0
vt 0.835938 1.0
vt 0.835938 0.835937
vt 0.867188 0.835937
vt 11.0 18.0
vt 10.0 18.0
vt 10.0 16.0
vt 11.0 16.0
vt 11.0 3.55271E-15
vt 10.0 3.55271E-15
vt 10.0 -1.0
vt 10.0 8.88178E-16
vt 0.796875 -1.24345E-14
vt 0.773437 -1.24345E-14
vt 0.773437 -1.0
vt 0.796875 -1.0
vt 0.796875 -1.77636E-15
vt 0.773437 -1.77636E-15
vt 12.0 -1.0
vt 11.0 -1.0
vt 11.0 -1.11022E-16
vt 12.0 -1.11022E-16
vt 12.0 8.88178E-16
vt 11.0 8.88178E-16
vt 0.820313 -7.10543E-15
vt 0.792969 -7.10543E-15
vt 0.792969 -1.0
vt 0.820313 -1.0
vt 0.867187 0.109375
vt 0.835937 0.109375
vt 0.835937 -3.33067E-16
vt 0.867187 -3.33067E-16
vt 0.867188 1.0
vt 0.835938 1.0
vt 0.835938 0.835937
vt 0.867188 0.835937
vt 11.0 18.0
vt 10.0 18.0
vt 10.0 16.0
vt 11.0 16.0
vt 11.0 3.55271E-15
vt 10.0 3.55271E-15
vt 10.0 -1.0
vt 10.0 8.88178E-16
vt 0.796875 -1.24345E-14
vt 0.773437 -1.24345E-14
vt 0.773437 -1.0
vt 0.796875 -1.0
vt 0.796875 -1.77636E-15
vt 0.773437 -1.77636E-15
vn 0.0 0.0 1.0
vn -1.0 0.0 0.0
vn 0.0 -1.0 0.0
vn 1.0 0.0 0.0
vn 0.0 0.0 1.0
vn 0.0 -1.0 0.0
vn 0.0 0.0 1.0
vn 0.0 -1.0 0.0
vn 0.0 0.0 1.0
vn 0.0 -1.0 0.0
vn 0.0 0.0 1.0
vn 0.0 -1.0 0.0
vn 0.0 0.0 1.0
vn 0.0 -1.0 0.0
vn 0.0 0.0 1.0
vn 0.0 -1.0 0.0
vn 0.0 0.0 1.0
vn 0.0 -1.0 0.0
vn 0.0 0.0 1.0
vn 0.0 -1.0 0.0
vn 0.0 0.0 1.0
vn 0.0 -1.0 0.0
vn 0.0 0.0 1.0
vn 0.0 -1.0 0.0
vn 0.0 0.0 1.0
vn 0.0 -1.0 0.0
vn 0.0 0.0 1.0
vn 0.0 -1.0 0.0
c 1.0 1.0 1.0
c 1.0 1.0 1.0
c 1.0 1.0 1.0
c 1.0 1.0 1.0
c 1.0 1.0 1.0
c 1.0 1.0 1.0
c 1.0 1.0 1.0
c 1.0 1.0 1.0
c 1.0 1.0 1.0
c 1.0 1.0 1.0
c 1.0 1.0 1.0
c 1.0 1.0 1.0
c 1.0 1.0 1.0
usemtl a8_sora_e_lm1
s off
f 5/21/1/1 6/22/1/1 17/23/1/1
f 17/24/1/1 16/25/1/1 5/21/1/1
f 13/26/1/1 7/21/1/1 10/27/1/1
f 10/27/1/1 18/28/1/1 13/26/1/1
usemtl a8_sora_b__lm1
s off
f 43/25/4/1 41/64/4/1 44/65/4/1
f 41/66/4/1 43/67/4/1 42/68/4/1
f 41/69/4/1 45/70/4/1 44/65/4/1
f 46/71/2/1 47/72/2/1 48/73/2/1
f 48/74/2/1 49/75/2/1 46/71/2/1
f 50/76/2/1 19/77/2/1 22/78/2/1
f 22/78/2/1 51/79/2/1 50/76/2/1
usemtl a8_sora_b_lm1
s off
f 36/55/3/1 39/58/3/1 40/59/3/1 37/56/3/1
f 72/119/6/2 73/120/6/2 74/121/6/2 75/98/6/2
f 76/102/6/2 77/122/6/2 61/121/6/2 60/98/6/2
f 98/151/8/3 99/152/8/3 100/153/8/3 101/130/8/3
f 102/134/8/3 103/154/8/3 87/153/8/3 86/130/8/3
f 124/183/10/4 125/184/10/4 126/185/10/4 127/162/10/4
f 128/166/10/4 129/186/10/4 113/185/10/4 112/162/10/4
f 150/215/12/5 151/216/12/5 152/217/12/5 153/194/12/5
f 154/198/12/5 155/218/12/5 139/217/12/5 138/194/12/5
f 176/247/14/6 177/248/14/6 178/249/14/6 179/226/14/6
f 180/230/14/6 181/250/14/6 165/249/14/6 164/226/14/6
f 202/279/16/7 203/280/16/7 204/281/16/7 205/258/16/7
f 206/262/16/7 207/282/16/7 191/281/16/7 190/258/16/7
f 228/311/18/8 229/312/18/8 230/313/18/8 231/290/18/8
f 232/294/18/8 233/314/18/8 217/313/18/8 216/290/18/8
f 254/343/20/9 255/344/20/9 256/345/20/9 257/322/20/9
f 258/326/20/9 259/346/20/9 243/345/20/9 242/322/20/9
f 280/375/22/10 281/376/22/10 282/377/22/10 283/354/22/10
f 284/358/22/10 285/378/22/10 269/377/22/10 268/354/22/10
f 306/407/24/11 307/408/24/11 308/409/24/11 309/386/24/11
f 310/390/24/11 311/410/24/11 295/409/24/11 294/386/24/11
f 332/439/26/12 333/440/26/12 334/441/26/12 335/418/26/12
f 336/422/26/12 337/442/26/12 321/441/26/12 320/418/26/12
f 358/471/28/13 359/472/28/13 360/473/28/13 361/450/28/13
f 362/454/28/13 363/474/28/13 347/473/28/13 346/450/28/13
f 36/55/3/1 37/56/3/1 38/57/3/1
f 37/60/3/1 41/61/3/1 38/57/3/1
f 38/57/3/1 41/62/3/1 42/63/3/1
usemtl a8_sora_g_lm1
s off
f 40/83/3/1 27/84/3/1 23/85/3/1 37/86/3/1
f 71/123/6/2 70/124/6/2 73/125/6/2 72/126/6/2
f 67/127/6/2 66/128/6/2 77/125/6/2 76/126/6/2
f 97/155/8/3 96/156/8/3 99/157/8/3 98/158/8/3
f 93/159/8/3 92/160/8/3 103/157/8/3 102/158/8/3
f 123/187/10/4 122/188/10/4 125/189/10/4 124/190/10/4
f 119/191/10/4 118/192/10/4 129/189/10/4 128/190/10/4
f 149/219/12/5 148/220/12/5 151/221/12/5 150/222/12/5
f 145/223/12/5 144/224/12/5 155/221/12/5 154/222/12/5
f 175/251/14/6 174/252/14/6 177/253/14/6 176/254/14/6
f 171/255/14/6 170/256/14/6 181/253/14/6 180/254/14/6
f 201/283/16/7 200/284/16/7 203/285/16/7 202/286/16/7
f 197/287/16/7 196/288/16/7 207/285/16/7 206/286/16/7
f 227/315/18/8 226/316/18/8 229/317/18/8 228/318/18/8
f 223/319/18/8 222/320/18/8 233/317/18/8 232/318/18/8
f 253/347/20/9 252/348/20/9 255/349/20/9 254/350/20/9
f 249/351/20/9 248/352/20/9 259/349/20/9 258/350/20/9
f 279/379/22/10 278/380/22/10 281/381/22/10 280/382/22/10
f 275/383/22/10 274/384/22/10 285/381/22/10 284/382/22/10
f 305/411/24/11 304/412/24/11 307/413/24/11 306/414/24/11
f 301/415/24/11 300/416/24/11 311/413/24/11 310/414/24/11
f 331/443/26/12 330/444/26/12 333/445/26/12 332/446/26/12
f 327/447/26/12 326/448/26/12 337/445/26/12 336/446/26/12
f 357/475/28/13 356/476/28/13 359/477/28/13 358/478/28/13
f 353/479/28/13 352/480/28/13 363/477/28/13 362/478/28/13
f 37/80/3/1 23/81/3/1 41/82/3/1
f 23/87/3/1 26/88/3/1 41/82/3/1
f 45/89/4/1 41/90/4/1 26/91/4/1
f 30/92/4/1 45/89/4/1 26/91/4/1
f 48/93/2/1 34/94/2/1 49/95/2/1
f 34/94/2/1 33/96/2/1 49/95/2/1
usemtl a8_sora_f_lm1
s off
f 23/33/1/1 24/34/1/1 25/35/1/1 26/36/1/1
f 27/37/1/1 28/38/1/1 24/39/1/1 23/40/1/1
f 26/36/1/1 25/35/1/1 29/41/1/1 30/42/1/1
f 31/43/1/1 32/44/1/1 33/45/1/1 34/46/1/1
f 64/107/5/2 65/108/5/2 66/109/5/2 67/110/5/2
f 68/111/5/2 69/112/5/2 70/113/5/2 71/114/5/2
f 90/139/7/3 91/140/7/3 92/141/7/3 93/142/7/3
f 94/143/7/3 95/144/7/3 96/145/7/3 97/146/7/3
f 116/171/9/4 117/172/9/4 118/173/9/4 119/174/9/4
f 120/175/9/4 121/176/9/4 122/177/9/4 123/178/9/4
f 142/203/11/5 143/204/11/5 144/205/11/5 145/206/11/5
f 146/207/11/5 147/208/11/5 148/209/11/5 149/210/11/5
f 168/235/13/6 169/236/13/6 170/237/13/6 171/238/13/6
f 172/239/13/6 173/240/13/6 174/241/13/6 175/242/13/6
f 194/267/15/7 195/268/15/7 196/269/15/7 197/270/15/7
f 198/271/15/7 199/272/15/7 200/273/15/7 201/274/15/7
f 220/299/17/8 221/300/17/8 222/301/17/8 223/302/17/8
f 224/303/17/8 225/304/17/8 226/305/17/8 227/306/17/8
f 246/331/19/9 247/332/19/9 248/333/19/9 249/334/19/9
f 250/335/19/9 251/336/19/9 252/337/19/9 253/338/19/9
f 272/363/21/10 273/364/21/10 274/365/21/10 275/366/21/10
f 276/367/21/10 277/368/21/10 278/369/21/10 279/370/21/10
f 298/395/23/11 299/396/23/11 300/397/23/11 301/398/23/11
f 302/399/23/11 303/400/23/11 304/401/23/11 305/402/23/11
f 324/427/25/12 325/428/25/12 326/429/25/12 327/430/25/12
f 328/431/25/12 329/432/25/12 330/433/25/12 331/434/25/12
f 350/459/27/13 351/460/27/13 352/461/27/13 353/462/27/13
f 354/463/27/13 355/464/27/13 356/465/27/13 357/466/27/13
usemtl a8_sora_c_lm1
s off
f 1/1/1/1 2/2/1/1 3/3/1/1 4/4/1/1
f 7/9/1/1 8/10/1/1 9/11/1/1 10/12/1/1
f 52/97/5/2 53/98/5/2 54/99/5/2 55/100/5/2
f 56/101/5/2 57/102/5/2 58/98/5/2 59/97/5/2
f 78/129/7/3 79/130/7/3 80/131/7/3 81/132/7/3
f 82/133/7/3 83/134/7/3 84/130/7/3 85/129/7/3
f 104/161/9/4 105/162/9/4 106/163/9/4 107/164/9/4
f 108/165/9/4 109/166/9/4 110/162/9/4 111/161/9/4
f 130/193/11/5 131/194/11/5 132/195/11/5 133/196/11/5
f 134/197/11/5 135/198/11/5 136/194/11/5 137/193/11/5
f 156/225/13/6 157/226/13/6 158/227/13/6 159/228/13/6
f 160/229/13/6 161/230/13/6 162/226/13/6 163/225/13/6
f 182/257/15/7 183/258/15/7 184/259/15/7 185/260/15/7
f 186/261/15/7 187/262/15/7 188/258/15/7 189/257/15/7
f 208/289/17/8 209/290/17/8 210/291/17/8 211/292/17/8
f 212/293/17/8 213/294/17/8 214/290/17/8 215/289/17/8
f 234/321/19/9 235/322/19/9 236/323/19/9 237/324/19/9
f 238/325/19/9 239/326/19/9 240/322/19/9 241/321/19/9
f 260/353/21/10 261/354/21/10 262/355/21/10 263/356/21/10
f 264/357/21/10 265/358/21/10 266/354/21/10 267/353/21/10
f 286/385/23/11 287/386/23/11 288/387/23/11 289/388/23/11
f 290/389/23/11 291/390/23/11 292/386/23/11 293/385/23/11
f 312/417/25/12 313/418/25/12 314/419/25/12 315/420/25/12
f 316/421/25/12 317/422/25/12 318/418/25/12 319/417/25/12
f 338/449/27/13 339/450/27/13 340/451/27/13 341/452/27/13
f 342/453/27/13 343/454/27/13 344/450/27/13 345/449/27/13
f 4/4/1/1 3/5/1/1 5/6/1/1
f 3/7/1/1 6/8/1/1 5/6/1/1
usemtl a8_sora_i_lm1
s off
f 60/103/6/2 61/104/6/2 62/105/6/2 63/106/6/2
f 86/135/8/3 87/136/8/3 88/137/8/3 89/138/8/3
f 112/167/10/4 113/168/10/4 114/169/10/4 115/170/10/4
f 138/199/12/5 139/200/12/5 140/201/12/5 141/202/12/5
f 164/231/14/6 165/232/14/6 166/233/14/6 167/234/14/6
f 190/263/16/7 191/264/16/7 192/265/16/7 193/266/16/7
f 216/295/18/8 217/296/18/8 218/297/18/8 219/298/18/8
f 242/327/20/9 243/328/20/9 244/329/20/9 245/330/20/9
f 268/359/22/10 269/360/22/10 270/361/22/10 271/362/22/10
f 294/391/24/11 295/392/24/11 296/393/24/11 297/394/24/11
f 320/423/26/12 321/424/26/12 322/425/26/12 323/426/26/12
f 346/455/28/13 347/456/28/13 348/457/28/13 349/458/28/13
f 19/29/2/1 20/30/2/1 21/31/2/1
f 21/31/2/1 22/32/2/1 19/29/2/1
usemtl a8_sora_a_lm1
s off
f 4/49/1/1 18/50/1/1 9/53/1/1 1/54/1/1
f 59/115/5/2 58/116/5/2 53/117/5/2 52/118/5/2
f 85/147/7/3 84/148/7/3 79/149/7/3 78/150/7/3
f 111/179/9/4 110/180/9/4 105/181/9/4 104/182/9/4
f 137/211/11/5 136/212/11/5 131/213/11/5 130/214/11/5
f 163/243/13/6 162/244/13/6 157/245/13/6 156/246/13/6
f 189/275/15/7 188/276/15/7 183/277/15/7 182/278/15/7
f 215/307/17/8 214/308/17/8 209/309/17/8 208/310/17/8
f 241/339/19/9 240/340/19/9 235/341/19/9 234/342/19/9
f 267/371/21/10 266/372/21/10 261/373/21/10 260/374/21/10
f 293/403/23/11 292/404/23/11 287/405/23/11 286/406/23/11
f 319/435/25/12 318/436/25/12 313/437/25/12 312/438/25/12
f 345/467/27/13 344/468/27/13 339/469/27/13 338/470/27/13
f 5/47/1/1 15/48/1/1 4/49/1/1
f 15/48/1/1 18/50/1/1 4/49/1/1
f 18/50/1/1 15/48/1/1 35/51/1/1
f 15/48/1/1 11/52/1/1 35/51/1/1
usemtl a8_sora_d_lm1
s off
f 11/13/1/1 12/14/1/1 13/15/1/1
f 12/16/1/1 7/17/1/1 13/15/1/1
f 14/18/1/1 15/19/1/1 16/16/1/1
f 15/19/1/1 5/13/1/1 16/20/1/1
