mtllib Pasture-Place_00_01.mtl
o map
v -16.0 -16.0 5.000002
v -8.0 -16.0 5.000002
v -8.0 -8.0 5.000003
v -16.0 -8.0 5.000003
v -16.0 -8.0 5.000002
v -8.0 -8.0 5.000002
v -8.0 0.0 5.000003
v -16.0 0.0 5.000003
v -16.0 0.0 5.000002
v -8.0 0.0 5.000002
v -8.0 8.0 5.000003
v -16.0 8.0 5.000003
v -16.0 8.0 5.000002
v -8.0 8.0 5.000002
v -8.0 16.0 5.000003
v -16.0 16.0 5.000003
v -8.0 -16.0 5.000002
v 0.0 -16.0 5.000002
v 0.0 -8.0 5.000003
v -8.0 -8.0 5.000003
v -8.0 -8.0 5.000002
v 0.0 -8.0 5.000002
v 0.0 0.0 5.000003
v -8.0 0.0 5.000003
v -8.0 0.0 5.000002
v 0.0 0.0 5.000002
v 0.0 8.0 5.000003
v -8.0 8.0 5.000003
v -8.0 8.0 5.000002
v 0.0 8.0 5.000002
v 0.0 16.0 5.000003
v -8.0 16.0 5.000003
v 0.0 -16.0 5.000002
v 8.0 -16.0 5.000002
v 8.0 -8.0 5.000003
v 0.0 -8.0 5.000003
v 0.0 -8.0 5.000002
v 8.0 -8.0 5.000002
v 8.0 0.0 5.000003
v 0.0 0.0 5.000003
v 0.0 0.0 5.000002
v 8.0 0.0 5.000002
v 8.0 8.0 5.000003
v 0.0 8.0 5.000003
v 0.0 8.0 5.000002
v 8.0 8.0 5.000002
v 8.0 16.0 5.000003
v 0.0 16.0 5.000003
v 8.0 -16.0 5.000002
v 13.0 -16.0 5.000002
v 13.0 -8.0 5.000003
v 8.0 -8.0 5.000003
v 8.0 -8.0 5.000002
v 11.0 -8.0 5.000002
v 11.0 0.0 5.000003
v 8.0 0.0 5.000003
v 8.0 0.0 5.000002
v 11.0 0.0 5.000002
v 11.0 8.0 5.000003
v 8.0 8.0 5.000003
v 8.0 8.0 5.000002
v 13.0 8.0 5.000002
v 13.0 16.0 5.000003
v 8.0 16.0 5.000003
v 11.0 -8.0 5.000002
v 12.0 -8.0 5.000002
v 12.0 -6.0 5.000003
v 11.0 -6.0 5.000003
v 12.0 -5.0 5.0
v 11.0 -5.0 5.0
v 11.0 -6.0 5.0
v 12.0 -6.0 5.0
v 12.0 -5.0 5.0
v 12.0 1.0 5.0
v 11.0 1.0 5.0
v 11.0 -5.0 5.0
v 12.0 1.0 5.0
v 12.0 2.0 5.0
v 11.0 2.0 5.0
v 11.0 1.0 5.0
v 11.0 2.0 5.000002
v 12.0 2.0 5.000002
v 12.0 8.0 5.000003
v 11.0 8.0 5.000003
v 13.0 -7.0 5.0
v 12.0 -7.0 5.0
v 12.0 -8.0 5.0
v 13.0 -8.0 5.0
v 13.0 -7.0 5.0
v 13.0 -6.0 5.0
v 12.0 -6.0 5.0
v 12.0 -7.0 5.0
v 12.0 -5.0 5.0
v 12.0 -6.0 5.0
v 13.0 -6.0 5.0
v 13.0 -5.0 5.0
v 14.0 1.0 5.000001
v 12.0 1.0 5.000001
v 12.0 -5.0 5.000001
v 14.0 -5.0 5.000001
v 13.0 2.0 5.0
v 12.0 2.0 5.0
v 12.0 1.0 5.0
v 13.0 1.0 5.0
v 13.0 2.0 5.0
v 13.0 7.0 5.0
v 12.0 7.0 5.0
v 12.0 2.0 5.0
v 13.0 7.0 5.0
v 13.0 8.0 5.0
v 12.0 8.0 5.0
v 12.0 7.0 5.0
v 13.0 -16.0 5.000002
v 16.0 -16.0 5.000002
v 16.0 -13.0 5.000003
v 13.0 -13.0 5.000003
v 14.0 -12.0 5.0
v 13.0 -12.0 5.0
v 13.0 -13.0 5.0
v 14.0 -13.0 5.0
v 14.0 -12.0 5.0
v 14.0 -8.0 5.0
v 13.0 -8.0 5.0
v 13.0 -12.0 5.0
v 13.0 -7.0 5.0
v 13.0 -8.0 5.0
v 14.0 -8.0 5.0
v 14.0 -7.0 5.0
v 16.0 -5.0 5.000001
v 13.0 -5.0 5.000001
v 13.0 -7.0 5.000001
v 16.0 -7.0 5.000001
v 14.0 7.0 5.000001
v 13.0 7.0 5.000001
v 13.0 1.0 5.000001
v 14.0 1.0 5.000001
v 14.0 8.0 5.0
v 13.0 8.0 5.0
v 13.0 7.0 5.0
v 14.0 7.0 5.0
v 14.0 8.0 5.0
v 14.0 10.0 5.0
v 13.0 10.0 5.0
v 13.0 8.0 5.0
v 14.0 10.0 5.0
v 14.0 11.0 5.0
v 13.0 11.0 5.0
v 13.0 10.0 5.0
v 13.0 11.0 5.000002
v 16.0 11.0 5.000002
v 16.0 16.0 5.000003
v 13.0 16.0 5.000003
v 16.0 -12.0 5.0
v 14.0 -12.0 5.0
v 14.0 -13.0 5.0
v 16.0 -13.0 5.0
v 16.0 -7.0 5.000001
v 14.0 -7.0 5.000001
v 14.0 -12.0 5.000001
v 16.0 -12.0 5.000001
v 14.0 -5.0 4.0
v 15.0 -5.0 4.0
v 14.0 3.0 4.0
v 15.0 3.0 4.0
v 14.0 3.0 4.0
v 16.0 3.0 4.0
v 14.0 4.0 4.0
v 16.0 4.0 4.0
v 16.0 10.0 5.000001
v 14.0 10.0 5.000001
v 14.0 4.0 5.000001
v 16.0 4.0 5.000001
v 14.0 10.0 5.0
v 16.0 10.0 5.0
v 16.0 11.0 5.0
v 14.0 11.0 5.0
v 15.0 -5.0 4.0
v 16.0 -5.0 4.0
v 15.0 -4.0 4.0
v 16.0 -4.0 4.0
v 15.0 -4.0 3.0
v 16.0 -4.0 3.0
v 15.0 3.0 3.0
v 16.0 3.0 3.0
v 14.501563 -5.001953 4.75
v 15.001563 -5.001953 4.0
v 15.001563 -4.001953 4.0
v 14.501563 -4.001953 4.75
v 15.001563 -4.501953 4.75
v 14.001563 -4.001953 4.0
v 14.001563 -4.501952 4.75
v 14.001563 -5.001953 5.0
v 14.001563 -4.001953 5.0
v 15.001563 -5.001953 5.0
v 14.5 -4.0 4.75
v 15.0 -4.0 4.0
v 15.0 3.0 4.0
v 14.500001 3.0 4.75
v 14.0 -4.0 5.0
v 14.0 3.0 5.0
v 13.998047 3.498437 4.75
v 13.998047 2.998437 4.0
v 14.998047 2.998437 4.0
v 14.998047 3.498437 4.75
v 14.498047 2.998437 4.75
v 14.998047 3.998437 4.0
v 14.498048 3.998437 4.75
v 13.998047 3.998437 5.0
v 14.998047 3.998437 5.0
v 13.998047 2.998437 5.0
v 16.0 -4.5 4.75
v 16.0 -4.0 4.0
v 15.0 -4.0 4.0
v 15.0 -4.499999 4.75
v 16.0 -5.0 5.0
v 15.0 -5.0 5.0
v 15.501563 -4.001953 3.75
v 16.001562 -4.001953 3.0
v 16.001562 -3.0019531 3.0
v 15.501563 -3.0019531 3.75
v 16.001562 -3.5019531 3.75
v 15.001563 -3.0019531 3.0
v 15.001563 -3.501952 3.75
v 15.001563 -4.001953 4.0
v 15.001563 -3.0019531 4.0
v 16.001562 -4.001953 4.0
v 15.5 -3.0 3.75
v 16.0 -3.0 3.0
v 16.0 2.0 3.0
v 15.500001 2.0 3.75
v 15.0 -3.0 4.0
v 15.0 2.0 4.0
v 14.998047 2.498437 3.75
v 14.998047 1.9984369 3.0
v 15.998047 1.9984369 3.0
v 15.998047 2.498437 3.75
v 15.498047 1.9984369 3.75
v 15.998047 2.998437 3.0
v 15.498048 2.998437 3.75
v 14.998047 2.998437 4.0
v 15.998047 2.998437 4.0
v 14.998047 1.9984369 4.0
v 15.0 3.5 4.75
v 15.0 3.0 4.0
v 16.0 3.0 4.0
v 16.0 3.499999 4.75
v 15.0 4.0 5.0
v 16.0 4.0 5.0
vt 0.0625 0.9375
vt 0.0625 0.9375
vt 0.0625 0.9375
vt 0.0625 0.9375
vt 0.0625 0.9375
vt 0.0625 0.9375
vt 0.0625 0.9375
vt 0.0625 0.9375
vt 0.0625 0.9375
vt 0.0625 0.9375
vt 0.0625 0.9375
vt 0.0625 0.9375
vt 0.0625 0.9375
vt 0.0625 0.9375
vt 0.0625 0.9375
vt 0.0625 0.9375
vt 0.0625 0.9375
vt 0.0625 0.9375
vt 0.0625 0.9375
vt 0.0625 0.9375
vt 0.0625 0.9375
vt 0.0625 0.9375
vt 0.0625 0.9375
vt 0.0625 0.9375
vt 0.0625 0.9375
vt 0.0625 0.9375
vt 0.0625 0.9375
vt 0.0625 0.9375
vt 0.0625 0.9375
vt 0.0625 0.9375
vt 0.0625 0.9375
vt 0.0625 0.9375
vt 0.0625 0.9375
vt 0.0625 0.9375
vt 0.0625 0.9375
vt 0.0625 0.9375
vt 0.0625 0.9375
vt 0.0625 0.9375
vt 0.0625 0.9375
vt 0.0625 0.9375
vt 0.0625 0.9375
vt 0.0625 0.9375
vt 0.0625 0.9375
vt 0.0625 0.9375
vt 0.0625 0.9375
vt 0.0625 0.9375
vt 0.0625 0.9375
vt 0.0625 0.9375
vt 0.0625 0.9375
vt 0.0625 0.9375
vt 0.0625 0.9375
vt 0.0625 0.9375
vt 0.0625 0.9375
vt 0.0625 0.9375
vt 0.0625 0.9375
vt 0.0625 0.9375
vt 0.0625 0.9375
vt 0.0625 0.9375
vt 0.0625 0.9375
vt 0.0625 0.9375
vt 0.0625 0.9375
vt 0.0625 0.9375
vt 0.0625 0.9375
vt 0.0625 0.9375
vt 0.0625 0.9375
vt 0.0625 0.9375
vt 0.0625 0.9375
vt 0.0625 0.9375
vt 28.0 11.0
vt 28.0 10.0
vt 27.0 11.0
vt 27.0 10.0
vt 28.0 11.0
vt 27.0 17.0
vt 28.0 17.0
vt 27.0 11.0
vt 28.0 18.0
vt 27.0 17.0
vt 28.0 17.0
vt 27.0 18.0
vt 0.0625 0.9375
vt 0.0625 0.9375
vt 0.0625 0.9375
vt 0.0625 0.9375
vt 28.0 9.0
vt 28.0 8.0
vt 29.0 9.0
vt 29.0 8.0
vt 28.0 10.0
vt 28.0 9.0
vt 29.0 9.0
vt 29.0 10.0
vt 28.0 11.0
vt 28.0 10.0
vt 29.0 10.0
vt 29.0 11.0
vt 0.0 0.0
vt 2.0 0.0
vt 2.0 6.0
vt 0.0 6.0
vt 28.0 18.0
vt 29.0 17.0
vt 29.0 18.0
vt 28.0 17.0
vt 29.0 23.0
vt 28.0 18.0
vt 29.0 18.0
vt 28.0 23.0
vt 29.0 23.0
vt 28.0 24.0
vt 29.0 24.0
vt 28.0 23.0
vt 0.0625 0.9375
vt 0.0625 0.9375
vt 0.0625 0.9375
vt 0.0625 0.9375
vt 30.0 4.0
vt 30.0 3.0
vt 29.0 4.0
vt 29.0 3.0
vt 30.0 4.0
vt 30.0 8.0
vt 29.0 8.0
vt 29.0 4.0
vt 30.0 8.0
vt 30.0 9.0
vt 29.0 9.0
vt 29.0 8.0
vt 0.0 0.0
vt 3.0 0.0
vt 3.0 2.0
vt 0.0 2.0
vt 0.0 0.0
vt 1.0 0.0
vt 1.0 6.0
vt 0.0 6.0
vt 30.0 24.0
vt 29.0 23.0
vt 29.0 24.0
vt 30.0 23.0
vt 30.0 24.0
vt 30.0 26.0
vt 29.0 26.0
vt 29.0 24.0
vt 30.0 26.0
vt 29.0 27.0
vt 30.0 27.0
vt 29.0 26.0
vt 0.0625 0.9375
vt 0.0625 0.9375
vt 0.0625 0.9375
vt 0.0625 0.9375
vt 32.0 4.0
vt 30.0 4.0
vt 30.0 3.0
vt 32.0 3.0
vt 0.0 0.0
vt 2.0 0.0
vt 2.0 5.0
vt 0.0 5.0
vt 7.5 2.75
vt 7.75 4.75
vt 7.75 2.75
vt 7.5 4.75
vt 8.0 5.0
vt 7.5 5.0
vt 7.5 4.75
vt 8.0 4.75
vt 0.0 0.0
vt 2.0 0.0
vt 2.0 6.0
vt 0.0 6.0
vt 30.0 26.0
vt 32.0 26.0
vt 32.0 27.0
vt 30.0 27.0
vt 8.0 2.75
vt 8.0 3.0
vt 7.75 2.75
vt 7.75 3.0
vt 8.0 3.0
vt 7.75 4.75
vt 7.75 3.0
vt 8.0 4.75
vt 0.0 0.0
vt 0.0 -1.0
vt 1.0 -1.0
vt 1.0 0.0
vt 0.0 0.0
vt 0.0 -1.0
vt 1.0 -1.0
vt 1.0 0.0
vt 5.3E-5 0.0
vt 5.4E-5 -0.999978
vt 1.000053 -0.999978
vt 1.000003 0.0
vt 5.3E-5 0.0
vt 5.4E-5 -0.999978
vt 1.000053 -0.999978
vt 1.000003 0.0
vt 0.0 0.0
vt 0.0 -1.0
vt 7.0 -1.0
vt 7.0 0.0
vt 0.0 -6.0E-5
vt 0.0 -1.0
vt 7.0003715 -1.0
vt 7.000021 -6.0E-5
vt 0.0 0.0
vt 0.0 -1.0
vt 1.0 -1.0
vt 1.0 0.0
vt 0.0 0.0
vt 0.0 -1.0
vt 1.0 -1.0
vt 1.0 0.0
vt 5.3E-5 0.0
vt 5.4E-5 -0.999978
vt 1.000053 -0.999978
vt 1.000003 0.0
vt 5.3E-5 0.0
vt 5.4E-5 -0.999978
vt 1.000053 -0.999978
vt 1.000003 0.0
vt 0.0 0.0
vt 0.0 -1.0
vt 1.0 -1.0
vt 1.0 0.0
vt 0.0 -6.0E-5
vt 0.0 -1.0
vt 1.000053 -1.0
vt 1.000003 -6.0E-5
vt 0.0 0.0
vt 0.0 -1.0
vt 1.0 -1.0
vt 1.0 0.0
vt 0.0 0.0
vt 0.0 -1.0
vt 1.0 -1.0
vt 1.0 0.0
vt 5.3E-5 0.0
vt 5.4E-5 -0.999978
vt 1.000053 -0.999978
vt 1.000003 0.0
vt 5.3E-5 0.0
vt 5.4E-5 -0.999978
vt 1.000053 -0.999978
vt 1.000003 0.0
vt 0.0 0.0
vt 0.0 -1.0
vt 5.0 -1.0
vt 5.0 0.0
vt 0.0 -6.0E-5
vt 0.0 -1.0
vt 5.000265 -1.0
vt 5.000015 -6.0E-5
vt 0.0 0.0
vt 0.0 -1.0
vt 1.0 -1.0
vt 1.0 0.0
vt 0.0 0.0
vt 0.0 -1.0
vt 1.0 -1.0
vt 1.0 0.0
vt 5.3E-5 0.0
vt 5.4E-5 -0.999978
vt 1.000053 -0.999978
vt 1.000003 0.0
vt 5.3E-5 0.0
vt 5.4E-5 -0.999978
vt 1.000053 -0.999978
vt 1.000003 0.0
vt 0.0 0.0
vt 0.0 -1.0
vt 1.0 -1.0
vt 1.0 0.0
vt 0.0 -6.0E-5
vt 0.0 -1.0
vt 1.000053 -1.0
vt 1.000003 -6.0E-5
vn 0.0 -0.0 1.0
vn 0.0 -0.0 1.0
vn 0.0 -0.0 1.0
vn 0.0 -0.0 1.0
vn 0.0 -0.0 1.0
vn 0.0 -0.0 1.0
vn 0.0 -0.0 1.0
vn 0.0 -0.0 1.0
vn 0.0 -0.0 1.0
vn 0.0 -0.0 1.0
vn 0.0 -0.0 1.0
vn 0.0 -0.0 1.0
vn 0.0 -0.0 1.0
vn 0.0 -0.0 1.0
vn 0.0 -0.0 1.0
vn 0.0 -0.0 1.0
vn 0.0 -0.0 1.0
vn -0.0 0.0 1.0
vn 0.0 0.0 1.0
vn 0.0 0.0 1.0
vn 0.0 -0.0 1.0
vn -0.0 0.0 1.0
vn 0.0 0.0 1.0
vn -0.0 -0.0 1.0
vn 0.0 -0.0 1.0
vn -0.0 0.0 1.0
vn 0.0 0.0 1.0
vn 0.0 0.0 1.0
vn 0.0 -0.0 1.0
vn -0.0 0.0 1.0
vn 0.0 0.0 1.0
vn -0.0 -0.0 1.0
vn 0.0 -0.0 1.0
vn 0.0 -0.0 1.0
vn -0.0 0.0 1.0
vn 0.0 0.0 1.0
vn 0.0 0.0 1.0
vn 0.0 -0.0 1.0
vn -0.0 0.0 1.0
vn 0.0 -0.0 1.0
vn 0.0 -0.0 1.0
vn 0.0 -0.0 1.0
vn 0.0 -0.0 1.0
vn 0.0 -0.0 1.0
vn 0.0 -0.0 1.0
vn 0.0 -0.0 1.0
vn 0.0 -0.0 1.0
vn 0.0 -0.0 1.0
vn 0.0 -0.0 1.0
vn 0.0 -0.0 1.0
vn 0.0 -0.0 1.0
vn 0.0 -0.0 1.0
vn 0.0 -0.0 1.0
vn 0.0 -0.0 1.0
vn 0.0 -0.0 1.0
vn 0.0 -0.0 1.0
vn 0.0 -0.0 1.0
vn 0.0 -0.0 1.0
vn -0.0189 -0.0 0.9998
vn -0.0188 -0.0 0.9998
vn 0.8321 0.0 0.5547
vn 0.7071 0.0 0.7071
vn 0.0 0.7071 0.7071
vn 0.1841 -0.0188 0.9827
vn 0.1841 -0.0187 0.9827
vn 0.7071 -0.0 0.7071
vn 0.8321 -0.0 0.5547
vn 0.0434 0.0 0.9991
vn -0.0 0.0189 0.9998
vn -0.0 0.0188 0.9998
vn 0.0 -0.8321 0.5547
vn 0.0 -0.7071 0.7071
vn 0.7071 -0.0 0.7071
vn -0.0188 -0.1841 0.9827
vn -0.0187 -0.1841 0.9827
vn 0.0 0.7071 0.7071
vn 0.0 0.8321 0.5547
vn -0.0 0.0434 0.9991
vn -0.0189 -0.0 0.9998
vn -0.0188 -0.0 0.9998
vn 0.8321 0.0 0.5547
vn 0.7071 0.0 0.7071
vn 0.0 0.7071 0.7071
vn 0.1841 -0.0188 0.9827
vn 0.1841 -0.0187 0.9827
vn 0.7071 -0.0 0.7071
vn 0.8321 -0.0 0.5547
vn 0.0434 0.0 0.9991
vn -0.0 0.0189 0.9998
vn -0.0 0.0188 0.9998
vn 0.0 -0.8321 0.5547
vn 0.0 -0.7071 0.7071
vn 0.7071 -0.0 0.7071
vn -0.0188 -0.1841 0.9827
vn -0.0187 -0.1841 0.9827
vn -0.0 -0.7071 0.7071
vn -0.0 -0.8321 0.5547
vn 0.0 -0.0434 0.9991
c 1.0 1.0 1.0
c 1.0 1.0 1.0
c 1.0 1.0 1.0
c 1.0 1.0 1.0
c 1.0 1.0 1.0
c 1.0 1.0 1.0
c 1.0 1.0 1.0
c 1.0 1.0 1.0
c 1.0 1.0 1.0
c 1.0 1.0 1.0
c 1.0 1.0 1.0
c 1.0 1.0 1.0
c 1.0 1.0 1.0
c 1.0 1.0 1.0
c 1.0 1.0 1.0
c 1.0 1.0 1.0
c 1.0 1.0 1.0
c 1.0 1.0 1.0
c 0.0 0.0 0.0
c 1.0 1.0 1.0
c 0.0 0.0 0.0
c 1.0 1.0 1.0
c 0.0 0.0 0.0
c 1.0 1.0 1.0
c 1.0 1.0 1.0
c 0.0 0.0 0.0
c 1.0 1.0 1.0
c 0.0 0.0 0.0
c 1.0 1.0 1.0
c 0.0 0.0 0.0
c 1.0 1.0 1.0
c 1.0 1.0 1.0
c 0.0 0.0 0.0
c 1.0 1.0 1.0
c 0.0 0.0 0.0
c 1.0 1.0 1.0
c 0.0 0.0 0.0
c 1.0 1.0 1.0
c 1.0 1.0 1.0
c 0.0 0.0 0.0
c 1.0 1.0 1.0
c 0.0 0.0 0.0
c 1.0 1.0 1.0
c 0.0 0.0 0.0
c 1.0 1.0 1.0
c 1.0 1.0 1.0
c 1.0 1.0 1.0
c 0.0 0.0 0.0
c 1.0 1.0 1.0
c 0.0 0.0 0.0
c 1.0 1.0 1.0
c 0.0 0.0 0.0
c 1.0 1.0 1.0
c 1.0 1.0 1.0
c 0.0 0.0 0.0
c 1.0 1.0 1.0
c 1.0 1.0 1.0
c 1.0 1.0 1.0
c 1.0 1.0 1.0
c 1.0 1.0 1.0
c 0.0 0.0 0.0
c 1.0 1.0 1.0
c 1.0 1.0 1.0
c 1.0 1.0 1.0
c 1.0 1.0 1.0
c 1.0 1.0 1.0
c 1.0 1.0 1.0
c 1.0 1.0 1.0
c 1.0 1.0 1.0
c 1.0 1.0 1.0
c 1.0 1.0 1.0
usemtl gake01
s off
f 185/185/59/64 186/186/60/64 187/187/61/64 188/188/62/64
f 189/189/62/64 187/190/61/64 190/191/63/64 191/192/64/64
f 195/201/66/65 196/202/67/65 197/203/67/65 198/204/66/65
f 201/209/69/66 202/210/70/66 203/211/71/66 204/212/72/66
f 205/213/72/66 203/214/71/66 206/215/73/66 207/216/74/66
f 211/225/76/67 212/226/77/67 213/227/77/67 214/228/76/67
f 217/233/79/68 218/234/80/68 219/235/81/68 220/236/82/68
f 221/237/82/68 219/238/81/68 222/239/83/68 223/240/84/68
f 227/249/86/69 228/250/87/69 229/251/87/69 230/252/86/69
f 233/257/89/70 234/258/90/70 235/259/91/70 236/260/92/70
f 237/261/92/70 235/262/91/70 238/263/93/70 239/264/94/70
f 243/273/96/71 244/274/97/71 245/275/97/71 246/276/96/71
usemtl gake1_0
s off
f 192/193/65/64 185/194/59/64 188/195/62/64 193/196/65/64
f 194/197/61/64 189/198/62/64 191/199/64/64 192/200/65/64
f 199/205/68/65 195/206/66/65 198/207/66/65 200/208/68/65
f 208/217/75/66 201/218/69/66 204/219/72/66 209/220/75/66
f 210/221/71/66 205/222/72/66 207/223/74/66 208/224/75/66
f 215/229/78/67 211/230/76/67 214/231/76/67 216/232/78/67
f 247/277/98/71 243/278/96/71 246/279/96/71 248/280/98/71
usemtl gake1_3
s off
f 224/241/85/68 217/242/79/68 220/243/82/68 225/244/85/68
f 226/245/81/68 221/246/82/68 223/247/84/68 224/248/85/68
f 231/253/88/69 227/254/86/69 230/255/86/69 232/256/88/69
f 240/265/95/70 233/266/89/70 236/267/92/70 241/268/95/70
f 242/269/91/70 237/270/92/70 239/271/94/70 240/272/95/70
usemtl gake_futa
s off
f 69/69/18/18 70/71/18/19 71/72/18/19 72/70/18/19
f 73/73/19/20 74/75/19/20 75/74/19/21 76/76/19/21
f 77/79/20/22 78/77/20/23 79/80/20/23 80/78/20/23
f 85/87/22/25 86/85/22/26 87/86/22/26 88/88/22/26
f 89/91/23/27 90/92/23/27 91/89/23/28 92/90/23/28
f 93/93/24/29 94/94/24/30 95/95/24/29 96/96/24/29
f 101/103/26/32 102/101/26/33 103/104/26/32 104/102/26/32
f 105/107/27/34 106/105/27/34 107/108/27/35 108/106/27/35
f 109/109/28/36 110/111/28/37 111/110/28/37 112/112/28/37
f 117/117/30/39 118/119/30/40 119/120/30/40 120/118/30/40
f 121/121/31/41 122/122/31/41 123/123/31/42 124/124/31/42
f 125/127/32/43 126/128/32/44 127/125/32/43 128/126/32/43
f 137/137/35/47 138/139/35/48 139/138/35/47 140/140/35/47
f 141/141/36/49 142/142/36/49 143/143/36/50 144/144/36/50
f 145/145/37/51 146/147/37/52 147/146/37/52 148/148/37/52
f 153/153/39/54 154/154/39/54 155/155/39/55 156/156/39/55
f 173/173/50/60 174/174/50/60 175/175/50/61 176/176/50/61
usemtl gake_michi
s off
f 161/161/41/57 162/163/42/57 164/162/44/57 163/164/43/57
f 165/167/45/58 166/168/46/58 168/165/48/58 167/166/47/58
f 177/179/51/62 178/177/52/62 180/178/54/62 179/180/53/62
f 181/183/55/63 182/181/56/63 184/184/58/63 183/182/57/63
usemtl d0gake_heri
s off
f 1/1/1/1 2/2/1/1 3/3/1/1 4/4/1/1
f 5/5/2/2 6/6/2/2 7/7/2/2 8/8/2/2
f 9/9/3/3 10/10/3/3 11/11/3/3 12/12/3/3
f 13/13/4/4 14/14/4/4 15/15/4/4 16/16/4/4
f 17/17/5/5 18/18/5/5 19/19/5/5 20/20/5/5
f 21/21/6/6 22/22/6/6 23/23/6/6 24/24/6/6
f 25/25/7/7 26/26/7/7 27/27/7/7 28/28/7/7
f 29/29/8/8 30/30/8/8 31/31/8/8 32/32/8/8
f 33/33/9/9 34/34/9/9 35/35/9/9 36/36/9/9
f 37/37/10/10 38/38/10/10 39/39/10/10 40/40/10/10
f 41/41/11/11 42/42/11/11 43/43/11/11 44/44/11/11
f 45/45/12/12 46/46/12/12 47/47/12/12 48/48/12/12
f 49/49/13/13 50/50/13/13 51/51/13/13 52/52/13/13
f 53/53/14/14 54/54/14/14 55/55/14/14 56/56/14/14
f 57/57/15/15 58/58/15/15 59/59/15/15 60/60/15/15
f 61/61/16/16 62/62/16/16 63/63/16/16 64/64/16/16
f 65/65/17/17 66/66/17/17 67/67/17/17 68/68/17/17
f 81/81/21/24 82/82/21/24 83/83/21/24 84/84/21/24
f 113/113/29/38 114/114/29/38 115/115/29/38 116/116/29/38
f 149/149/38/53 150/150/38/53 151/151/38/53 152/152/38/53
usemtl gake_futa_2
s off
f 99/97/25/31 100/98/25/31 97/99/25/31 98/100/25/31
f 131/129/33/45 132/130/33/45 129/131/33/45 130/132/33/45
f 135/133/34/46 136/134/34/46 133/135/34/46 134/136/34/46
f 159/157/40/56 160/158/40/56 157/159/40/56 158/160/40/56
f 171/169/49/59 172/170/49/59 169/171/49/59 170/172/49/59
