mtllib 2Wall&Door5.mtl
o map
v 0.5 0.75 2.25
v 1.5 1.0 2.25
v 0.8125 2.0 0.0
v 0.8125 2.0 2.0
v 0.25000095 1.0 2.325235
v 2.185547 2.0 0.0
v 2.185547 2.0 2.0
v 1.539062 2.0 3.0
v 3.0 1.0 0.354955
v 1.5 1.0 0.0
v 3.0 1.0 0.0
v 0.5 0.75 0.0
v 2.161133 0.87988305 2.536133
v 0.943359 0.875 2.635742
v 2.026558E-6 1.0 3.0
v 0.81347704 1.0 0.0
v 0.81347704 1.0 2.0
v 2.186523 1.0 0.0
v 2.186523 1.0 2.0
v 2.5 0.75 2.25
v 0.84863305 0.87988305 2.536133
v 2.256836 1.0 3.0
v 0.943359 0.875 2.939453
v 3.0 1.0 1.913063
v 3.0 1.0 2.4
v 2.5 0.75 0.0
v 2.161133 0.87988305 3.010742
v 0.943359 0.62011695 2.635742
v 2.069336 0.875 2.635742
v 2.026558E-6 1.0 2.40047
v 0.5 1.0 2.25
v 1.0 1.0 2.25
v 2.0 1.0 2.25
v 1.5136721 1.0 3.0
v 2.026558E-6 1.0 2.700235
v 0.943359 0.62011695 2.939453
v 2.069336 0.875 2.939453
v 2.069336 0.62011695 2.939453
v 3.0 1.0 3.0
v 0.5 1.0 0.0
v 2.026558E-6 1.0 0.355809
v 2.026558E-6 1.0 0.0
v 0.81347704 0.75 0.0
v 0.81347704 0.75 2.0
v 3.000002 2.0 3.0
v 2.9802322E-6 2.0 3.0
v 2.75 1.0 2.325
v 2.069336 0.62011695 2.635742
v 2.186523 0.75 2.0
v 2.186523 0.75 0.0
v 0.84863305 0.87988305 3.010742
v 2.5 1.0 2.25
v 1.5068359 1.0 2.625
v 0.756837 1.0 3.0
v 3.0 1.0 2.7
v 2.5 1.0 0.0
v 2.026558E-6 1.0 1.912253
v 2.026558E-6 1.0 0.355808
vt 0.5 0.007812
vt 8.754818 1.0
vt 3.992188 0.988281
vt 1.902344 0.992188
vt 0.821289 0.012695
vt 0.988281 0.609375
vt 4.355469 0.996094
vt 8.152123 0.010742
vt 7.667969 1.261719
vt 3.105469 0.691406
vt 1.984375 0.988281
vt 1.398438 0.949219
vt 0.550781 0.550781
vt 8.153979 1.0
vt 8.153008 0.124228
vt 7.191406 0.652344
vt 0.320312 0.84375
vt 5.242188 0.996094
vt 1.902344 0.949219
vt 8.950792 0.637312
vt 0.039062 0.011719
vt 7.191406 0.726562
vt 1.398438 0.992188
vt 1.023438 0.699219
vt 8.218836 0.7742
vt 8.416992 0.749023
vt 8.556641 1.0
vt 0.988281 0.007812
vt 1.023438 0.011719
vt 8.35531 1.0
vt 8.153008 0.634936
vt 0.679688 0.976562
vt 8.819336 0.010742
vt 2.984375 0.988281
vt 2.828125 0.691406
vt 0.755508 0.012695
vt 0.0 0.012695
vt -0.023438 0.011719
vt 6.191406 0.652344
vt 0.011719 0.007812
vt 7.667969 1.355469
vt 8.951954 0.799219
vt 8.683594 0.749023
vt 6.191406 0.726562
vt 0.960938 0.011719
vt 8.153248 0.899688
vt 0.679688 0.84375
vt 0.449219 0.550781
vt 3.105469 0.988281
vt 8.552734 0.874512
vt 0.550781 0.449219
vt 7.335938 1.355469
vt 8.952734 0.010742
vt 5.242188 0.691406
vt 0.320312 0.976562
vt 0.888751 0.012695
vt 0.960938 0.699219
vt 8.285156 0.010742
vt 4.105469 0.691406
vt 8.951953 0.799219
vt -0.023438 0.699219
vt 8.952475 0.899609
vt 7.335938 1.261719
vt 0.039062 0.992188
vt 8.885157 0.774121
vt 1.652344 0.992188
vt 8.952995 1.0
vt 8.548828 0.749023
vt 8.285156 0.749023
vt 2.140625 0.691406
vt 4.242188 0.691406
vt 8.951468 0.126058
vt 0.039062 0.699219
vt 0.449219 0.449219
vt 0.011719 0.609375
vt 0.960938 0.992188
vt 8.818359 0.749023
vt 8.152515 0.799376
vn -0.0 -0.0 1.0
vn -0.0 -1.0 -0.0
vn -1.0 -0.0 -0.0
vn 1.0 -0.0 -0.0
vn 1.0 0.001 -0.0
vn -1.0 -0.001 -0.0
c 1.0 1.0 1.0
c 0.69411767 0.69411767 0.69411767
c 0.0 0.0 0.0
c 0.40784314 0.40784314 0.40784314
usemtl h_kage
s off
f 21/17/2/4 13/47/2/1 27/32/2/1 51/55/2/1
usemtl 17door
s off
f 1/22/3/4 31/16/3/1 40/39/3/2 12/44/3/2
f 43/63/4/2 16/52/4/2 17/41/4/2 44/9/4/2
f 49/9/3/2 19/41/3/2 18/52/3/2 50/63/3/2
f 26/44/4/2 56/39/4/2 52/16/4/1 20/22/4/4
f 1/11/2/4 44/70/2/2 49/35/2/2 20/34/2/4
f 12/10/2/2 43/49/2/2 44/3/2/2 1/59/2/4
f 26/54/2/2 20/71/2/4 49/7/2/2 50/18/2/2
f 17/74/5/2 16/74/5/2 3/48/5/4 4/48/5/3
f 4/48/2/3 3/48/2/4 6/13/2/4 7/13/2/1
f 7/13/6/1 6/13/6/4 18/51/6/2 19/51/6/2
f 31/23/1/1 1/12/1/4 2/66/1/1
f 1/12/1/4 20/19/1/4 2/66/1/1
f 2/66/1/1 20/19/1/4 52/4/1/1
f 18/28/1/2 6/6/1/4 10/1/1/2
f 6/6/1/4 3/75/1/4 10/1/1/2
f 10/1/1/2 3/75/1/4 16/40/1/2
usemtl 17kabe00
s off
f 39/36/1/3 45/37/1/3 8/37/1/3 34/5/1/3
f 34/5/1/3 8/37/1/3 46/37/1/3 15/56/1/3
f 52/77/2/1 47/65/2/1 22/2/2/3 33/43/2/1
f 47/65/2/1 25/42/2/2 55/62/2/2 22/2/2/3
f 32/26/2/1 53/50/2/1 34/27/2/3 54/30/2/4
f 31/69/2/1 32/26/2/1 54/30/2/4 5/25/2/1
f 53/50/2/1 33/43/2/1 22/2/2/3 34/27/2/3
f 54/30/2/4 35/46/2/2 30/78/2/2 5/25/2/1
f 9/72/2/2 24/20/2/2 52/77/2/1 56/33/2/2
f 57/31/2/2 58/15/2/2 40/58/2/2 31/69/2/1
f 54/30/2/4 15/14/2/3 35/46/2/2
f 32/26/2/1 2/68/2/1 53/50/2/1
f 53/50/2/1 2/68/2/1 33/43/2/1
f 55/62/2/2 39/67/2/3 22/2/2/3
f 11/53/2/2 9/72/2/2 56/33/2/2
f 24/20/2/2 25/60/2/2 52/77/2/1
f 41/15/2/2 42/8/2/2 40/58/2/2
f 30/78/2/2 57/31/2/2 31/69/2/1
usemtl 17light
s off
f 36/73/1/1 38/57/1/1 37/76/1/1 23/64/1/1
f 23/61/3/1 14/38/3/1 28/21/3/1 36/73/3/1
f 36/73/2/1 28/21/2/1 48/45/2/1 38/57/2/1
f 38/57/4/1 48/45/4/1 29/29/4/1 37/24/4/1
