# Blender 4.0.0
# www.blender.org
mtllib SWALLCORN2.mtl
o map
v 0.000000 0.502765 1.150000
v 0.504428 0.505353 1.150000
v 0.000000 0.817255 0.661330
v 0.822600 0.826058 0.661330
v 0.869687 0.866915 0.495246
v 0.000000 0.866915 0.495246
v 0.000000 0.713012 1.150000
v 0.711028 0.716949 1.150000
v 1.184376 1.181872 -0.000000
v 0.000000 1.185386 -0.000000
v 0.000000 0.433862 0.983446
v 0.433820 0.438684 0.983446
v 0.000000 1.013379 0.662857
v 1.014078 1.012423 0.662857
v 0.502765 0.000000 1.150000
v 0.817255 0.000000 0.661330
v 0.866915 0.000000 0.495246
v 0.866915 0.869461 0.495246
v 0.713012 0.000000 1.150000
v 1.185386 0.000000 0.000000
v 0.433862 0.000000 0.983446
v 1.013379 0.000000 0.662857
vn -0.0000 -0.0119 0.9999
vn 0.0001 -0.0119 0.9999
vn -0.0009 -0.0118 0.9999
vn -0.0027 -0.0108 0.9999
vn -0.0000 0.9689 0.2476
vn 0.0009 0.9689 0.2476
vn 0.0003 0.9689 0.2475
vn -0.0000 0.9689 0.2475
vn -0.0000 -0.0000 1.0000
vn -0.0001 0.9739 0.2268
vn 0.0004 0.9739 0.2269
vn -0.0000 0.9739 0.2268
vn 0.0094 -0.8935 0.4489
vn -0.0000 -0.8933 0.4495
vn 0.0275 -0.8953 0.4446
vn -0.0106 -0.0027 0.9999
vn -0.0115 -0.0010 0.9999
vn -0.0117 -0.0000 0.9999
vn 0.9689 0.0009 0.2476
vn 0.9689 -0.0000 0.2475
vn 0.9689 0.0003 0.2475
vn 0.9739 0.0005 0.2271
vn 0.9739 0.0001 0.2270
vn 0.9739 0.0003 0.2270
vn -0.8933 -0.0000 0.4494
vn -0.8935 0.0084 0.4491
vn -0.8949 0.0249 0.4455
vn -0.8933 -0.0000 0.4495
vt 0.500000 0.000000
vt 0.968750 0.000000
vt 0.968750 -1.000000
vt 0.500000 -1.000000
vt 0.031250 -1.000000
vt 0.031250 0.000000
s 0
usemtl gym03_06
f 13/1/1 3/2/2 4/3/3 14/4/4
f 13/1/5 14/4/6 9/5/7 10/6/8
f 7/1/9 1/2/9 2/3/9 8/4/9
f 7/1/10 8/4/11 5/5/12 6/6/10
f 2/4/13 1/1/14 11/6/14 12/5/15
f 14/1/16 4/2/17 16/3/18 22/4/18
f 14/1/19 22/4/20 20/5/20 9/6/21
f 8/1/9 2/2/9 15/3/9 19/4/9
f 8/1/22 19/4/23 17/5/23 18/6/24
f 15/4/25 2/1/26 12/6/27 21/5/28
