# Blender 4.0.0
# www.blender.org
mtllib SWALLCORN4.mtl
o map
v 0.000019 -0.000874 1.150000
v -0.001120 0.317255 0.661330
v 0.322600 0.326058 0.661330
v 0.369687 0.366915 0.495246
v -0.001120 0.366915 0.495246
v -0.001120 0.213012 1.150000
v 0.211028 0.216949 1.150000
v 0.684376 0.681872 -0.000000
v -0.001120 0.685386 -0.000000
v -0.001120 0.513379 0.662857
v 0.514078 0.512423 0.662857
v 0.317255 -0.003349 0.661330
v 0.366915 -0.003349 0.495246
v 0.366915 0.369461 0.495246
v 0.213012 -0.001822 1.150000
v 0.685386 -0.001822 0.000000
v 0.513379 -0.001822 0.662857
vn 0.0001 -0.0119 0.9999
vn 0.0002 -0.0119 0.9999
vn -0.0008 -0.0118 0.9999
vn -0.0027 -0.0108 0.9999
vn 0.0016 0.9688 0.2477
vn 0.0025 0.9688 0.2478
vn 0.0019 0.9688 0.2477
vn -0.0000 -0.0000 1.0000
vn -0.0043 0.9740 0.2263
vn -0.0037 0.9740 0.2264
vn -0.0042 0.9740 0.2263
vn -0.0043 0.9741 0.2263
vn -0.0106 -0.0027 0.9999
vn -0.0116 -0.0009 0.9999
vn -0.0117 0.0001 0.9999
vn -0.0117 -0.0000 0.9999
vn 0.9689 0.0010 0.2476
vn 0.9689 0.0001 0.2475
vn 0.9689 0.0004 0.2475
vn 0.9738 0.0025 0.2273
vn 0.9738 0.0021 0.2272
vn 0.9738 0.0023 0.2272
vt 0.500000 0.000000
vt 0.968750 0.000000
vt 0.968750 -1.000000
vt 0.500000 -1.000000
vt 0.031250 -1.000000
vt 0.031250 0.000000
s 0
usemtl gym03_06
f 10/1/1 2/2/2 3/3/3 11/4/4
f 10/1/5 11/4/6 8/5/7 9/6/5
f 6/1/8 1/3/8 7/4/8
f 6/1/9 7/4/10 4/5/11 5/6/12
f 11/1/13 3/2/14 12/3/15 17/4/16
f 11/1/17 17/4/18 16/5/18 8/6/19
f 7/1/8 1/3/8 15/4/8
f 7/1/20 15/4/21 13/5/21 14/6/22
