# Blender 4.0.0
# www.blender.org
mtllib WallStairs1.mtl
o map
v 2.875000 -0.218750 0.112501
v 3.000000 -0.218750 0.112501
v 3.000000 0.843750 1.175001
v 2.875000 0.843750 1.175001
v 0.000000 1.500000 1.050002
v 0.000000 0.843750 1.175002
v 0.125000 0.843750 1.175002
v 0.125000 1.500000 1.050002
v 2.875000 1.500000 1.050001
v 1.500000 1.500000 1.050002
v 1.500000 1.000000 1.050002
v 2.875000 1.000000 1.050001
v 2.875000 1.000000 1.050001
v 1.500000 1.000000 1.050002
v 1.500000 0.000000 0.050002
v 2.875000 0.000000 0.050001
v 2.875000 0.437500 -0.012499
v 2.875000 -0.218750 0.112501
v 2.875000 0.843750 1.175001
v 2.875000 1.500000 1.050001
v 3.000000 -0.218750 0.112501
v 3.000000 0.437500 -0.012499
v 3.000000 1.500000 1.050001
v 3.000000 0.843750 1.175001
v 2.875000 1.500000 1.050001
v 2.875000 0.843750 1.175001
v 3.000000 0.843750 1.175001
v 3.000000 1.500000 1.050001
v 0.125000 0.843750 1.175002
v 0.000000 0.843750 1.175002
v 0.000000 -0.218750 0.112502
v 0.125000 -0.218750 0.112502
v 0.000000 0.843750 1.175002
v 0.000000 1.500000 1.050002
v 0.000000 0.437500 -0.012498
v 0.000000 -0.218750 0.112502
v 0.125000 1.500000 1.050002
v 0.125000 0.843750 1.175002
v 0.125000 -0.218750 0.112502
v 0.125000 0.437500 -0.012498
v 0.125000 1.000000 1.050002
v 0.125000 0.000000 0.050002
v 0.125000 1.500000 1.050002
v 0.125000 1.000000 1.050002
v 0.000000 1.000001 3.500001
v 0.000000 0.000001 3.000001
v 0.000000 0.000000 2.997751
v 0.000000 1.000000 3.497751
v -0.713625 0.000000 2.991638
v -0.713625 1.000000 3.491638
v 0.000000 2.000000 1.000000
v 0.000000 2.000000 4.000001
v 0.000000 0.000002 1.500000
v 0.000000 1.000002 1.000000
v 0.000000 0.500001 3.250001
v 0.000000 2.000000 3.997751
v 0.000000 1.000000 1.750000
v -0.713625 2.000000 3.991638
v 3.000000 0.000000 0.000000
v 3.000000 0.000000 3.000001
v 3.000000 0.999999 3.000001
v 3.000000 0.999998 -0.000000
v 3.000000 1.000000 2.997751
v 3.000000 0.000000 2.997751
v 3.713625 1.000000 2.991638
v 3.713625 0.000000 2.991638
v 3.000000 1.000000 1.000000
v 3.000000 1.000000 4.000001
v 3.000000 1.999999 4.000001
v 3.000000 1.999998 1.000000
v 3.000000 2.000000 3.997751
v 3.000000 1.000000 3.997751
v 3.713625 2.000000 3.991638
v 3.713625 1.000000 3.991638
v 0.000000 0.062502 0.378906
v 0.000000 0.500001 1.625000
v 0.000000 0.000002 0.750000
v 0.000000 1.000000 0.875000
v 0.000000 0.000002 0.375000
v 0.000000 0.750001 1.687500
v 0.000000 0.250001 1.562500
v 0.000000 0.500001 0.812500
v 0.000000 0.250001 0.781250
v 0.000000 0.750001 0.843750
v 0.000000 0.000002 0.187500
v 0.000000 0.500001 0.406250
v 0.000000 0.375001 0.796875
v 0.000000 0.125002 0.765625
v 0.000000 0.250001 0.390625
v 0.000000 0.125002 0.382813
v 0.000000 0.375001 0.398438
v 0.000000 0.062502 0.189453
vn -0.0000 -0.6618 0.7497
vn -0.0000 0.3162 0.9487
vn -0.0000 -0.0000 1.0000
vn -1.0000 -0.0000 -0.0000
vn 1.0000 -0.0000 -0.0000
vn -0.0069 -0.0000 1.0000
vn -0.0085 -0.0000 1.0000
vn -0.0086 -0.0000 1.0000
vn 0.0086 -0.0000 1.0000
vt -1.890625 -0.062500
vt -1.984375 -0.062500
vt -1.984375 -0.437500
vt -1.890625 -0.437500
vt -1.980469 -0.546875
vt -1.980469 -0.703125
vt -1.894531 -0.703125
vt -1.894531 -0.546875
vt -0.835938 0.000000
vt -0.375000 0.000000
vt -0.375000 -0.437500
vt -0.835938 -0.437500
vt -0.375000 -4.000000
vt -0.835938 -4.000000
vt -1.937500 -0.875000
vt 0.000000 0.000000
vt 1.000000 0.000000
vt 1.000000 1.000000
vt 0.000000 1.000000
vt 4.486563 0.250000
vt 4.486563 0.125000
vt 4.514258 0.125000
vt 4.541954 0.125000
vt 4.541954 0.250000
vt 4.486563 1.000000
vt 4.486563 0.000000
vt 4.929688 0.000000
vt 4.929688 1.000000
vt 4.708126 1.000000
vt 4.708126 0.500000
vt 4.818907 0.500000
vt 4.929688 0.500000
vt 4.486563 0.500000
vt 4.597344 0.500000
vt 4.597344 0.250000
vt 4.652735 0.250000
vt 4.708126 0.250000
vt 4.486563 0.062500
vt 4.514258 0.062500
vt 4.818907 0.250000
vt 4.929688 0.250000
vt 4.597344 0.125000
vt 4.652735 0.125000
vt 4.708126 0.125000
s 0
usemtl kaidan01a
f 1/1/1 2/2/1 3/3/1 4/4/1
f 5/5/2 6/6/2 7/7/2 8/8/2
f 9/9/3 10/10/3 11/11/3 12/12/3
f 13/12/3 14/11/3 15/13/3 16/14/3
f 17/15/4 18/15/4 19/15/4 20/15/4
f 21/15/5 22/15/5 23/15/5 24/15/5
f 25/5/2 26/6/2 27/7/2 28/8/2
f 29/1/1 30/2/1 31/3/1 32/4/1
f 33/15/4 34/15/4 35/15/4 36/15/4
f 37/15/5 38/15/5 39/15/5 40/15/5
f 14/11/3 41/12/3 42/14/3 15/13/3
f 10/10/3 43/9/3 44/12/3 11/11/3
usemtl black
f 47/16/6 48/17/7 50/18/8 49/19/8
f 48/16/6 56/17/8 58/18/8 50/19/8
f 63/16/9 64/17/9 66/18/9 65/19/9
f 71/16/9 72/17/9 74/18/9 73/19/9
usemtl azt_wall02_1
f 77/20/5 79/21/5 75/22/5 90/23/5 88/24/5
f 45/25/5 54/26/5 51/27/5 52/28/5
f 61/25/4 62/26/4 59/27/4 60/28/4
f 69/25/4 70/26/4 67/27/4 68/28/4
f 55/29/5 76/30/5 80/31/5 57/32/5 45/28/5
f 46/25/5 53/33/5 81/34/5 76/30/5 55/29/5
f 81/34/5 83/35/5 87/36/5 82/37/5 76/30/5
f 53/33/5 77/20/5 88/24/5 83/35/5 81/34/5
f 79/21/5 85/38/5 92/39/5 75/22/5
f 80/31/5 84/40/5 78/41/5 57/32/5
f 76/30/5 82/37/5 84/40/5 80/31/5
f 88/24/5 90/23/5 89/42/5 83/35/5
f 87/36/5 91/43/5 86/44/5 82/37/5
f 83/35/5 89/42/5 91/43/5 87/36/5
