mtllib Wall&Roof8.mtl
o map
v 1.0 0.0 0.0
v 1.0 0.0 3.000001
v 1.013279E-6 0.0 3.000001
v 2.026558E-6 0.0 0.0
v 0.0 0.0 2.997751
v 1.0 0.0 2.997751
v 0.0 0.713625 2.991638
v 1.0 0.713625 2.991638
v 0.0 0.0 0.0
v 0.0 0.0 3.000001
v 0.0 0.999999 3.000001
v 0.0 0.999998 0.0
v 0.0 1.0 2.997751
v 0.0 0.0 2.997751
v 0.713625 1.0 2.991638
v 0.713625 0.0 2.991638
vt 4.486563 1.0
vt 4.486563 0.0
vt 4.929688 0.0
vt 4.929688 1.0
vt 0.0 0.0
vt 1.0 0.0
vt 1.0 1.0
vt 0.0 1.0
vt 4.486563 1.0
vt 4.486563 0.0
vt 4.929688 0.0
vt 4.929688 1.0
vt 0.0 0.0
vt 1.0 0.0
vt 1.0 1.0
vt 0.0 1.0
vn -0.0 -1.0 -0.0
vn -0.0 0.0086 1.0
vn -1.0 0.0 -0.0
vn 0.0086 0.0 1.0
c 1.0 1.0 1.0
c 1.0 1.0 1.0
usemtl black
s off
f 5/5/2/1 6/6/2/1 8/7/2/1 7/8/2/1
f 13/13/4/2 14/14/4/2 16/15/4/2 15/16/4/2
usemtl azt_wall02_1
s off
f 3/1/1/1 4/2/1/1 1/3/1/1 2/4/1/1
f 11/9/3/2 12/10/3/2 9/11/3/2 10/12/3/2
