# Blender 4.0.0
# www.blender.org
mtllib Wall&Door4.mtl
o map
v 4.000000 -2.000000 0.000000
v 4.000000 -1.286375 2.991638
v 1.000000 -1.286375 2.991638
v 4.000000 -2.000000 3.000001
v 1.000000 -2.000000 2.997751
v 4.000000 -2.000000 2.997751
v 1.000006 -2.000000 0.000000
v 1.000003 -2.000000 3.000001
v 1.743750 -0.206250 -0.006254
v 3.306250 -2.081250 2.415622
v 1.509375 -2.081250 2.649997
v 1.509375 -2.237500 2.649997
v 3.306250 -2.237500 2.415622
v 1.509375 -2.081250 -0.006254
v 1.509375 -2.237500 -0.006254
v 3.306250 -0.206250 -0.006254
v 3.540625 -2.081250 2.649997
v 3.540625 -2.237500 2.649997
v 1.743750 -0.206250 2.415621
v 3.540625 -2.237500 -0.006254
v 3.540625 -2.081250 -0.006254
v 1.743750 -2.081250 2.415622
v 1.743750 -2.237500 2.415622
v 3.306250 -2.081250 -0.006254
v 3.306250 -2.237500 -0.006254
v 3.306250 -0.206250 2.415621
v 1.743750 -2.081250 -0.006254
v 1.743750 -2.237500 -0.006254
v 3.399745 -2.000000 0.000000
v 1.601812 -2.000000 0.000000
v 1.647323 -2.000000 2.532028
v 3.402343 -2.000000 2.502439
vn -0.0000 0.0086 1.0000
vn 1.0000 -0.0000 -0.0000
vn 0.7071 -0.7071 -0.0000
vn -0.7071 -0.7071 -0.0000
vn -1.0000 -0.0000 -0.0000
vn -0.0000 -0.0000 1.0000
vn 0.7071 -0.0000 0.7071
vn 0.7071 0.0003 0.7071
vn 0.7071 -0.0003 0.7071
vn -0.7071 -0.0000 0.7071
vn -0.7071 0.0003 0.7071
vn -0.7071 -0.0003 0.7071
vn -0.0000 -0.0000 -1.0000
vn -0.0000 -0.8321 -0.5547
vn 0.0003 -0.8321 -0.5547
vn -0.0000 -1.0000 -0.0000
vt 0.000000 0.000000
vt 3.000000 0.000000
vt 3.000000 1.000000
vt 0.000000 1.000000
vt 0.468750 2.343750
vt 0.484375 3.000000
vt 0.640625 3.000000
vt 0.621094 2.341797
vt 0.667969 3.000000
vt 0.640625 2.292969
vt 0.449219 2.292969
vt 0.453125 3.000000
vt 0.621094 2.339844
vt 13.459690 1.000000
vt 13.459690 0.000000
vt 13.726366 0.000000
vt 13.746533 0.844009
vt 14.524228 0.834146
vt 14.523076 0.000000
vt 14.789064 0.000000
vt 14.789064 1.000000
s 0
usemtl black
f 5/1/1 6/2/1 2/3/1 3/4/1
usemtl m_dun26_23
f 22/5/2 27/6/2 9/6/3 19/5/3
f 19/5/3 9/6/3 16/7/4 26/8/4
f 26/8/4 16/7/4 24/7/5 10/8/5
f 10/8/6 26/8/6 19/5/6 22/5/6
usemtl labo04_yuka_1
f 20/9/2 21/9/2 17/10/7 18/10/8
f 18/10/7 17/10/9 11/11/10 12/11/11
f 12/11/10 11/11/12 14/12/5 15/12/5
f 22/5/13 10/13/13 13/13/14 23/5/15
f 23/5/14 13/13/14 18/10/16 12/11/16
f 13/13/5 10/13/5 24/7/5 25/7/5
f 28/6/2 27/6/2 22/5/2 23/5/2
f 25/7/16 20/9/16 18/10/16 13/13/16
f 15/12/16 28/6/16 23/5/16 12/11/16
usemtl in48_hkabe1
f 8/14/16 7/15/16 30/16/16 31/17/16 32/18/16 29/19/16 1/20/16 4/21/16
