mtllib WallUpstairs1.mtl
o map
v 0.0 8.360353 6.860351
v 0.0 2.9501948 2.728515
v 4.0 9.500001 7.999999
v -1.0 9.500001 7.999999
v 0.0 9.500001 7.999999
v 3.0 9.5 4.999999
v 0.5 4.0 -1.0E-6
v 0.2548828 1.5351558 2.728515
v 0.0 1.5351558 2.311523
v 3.0 0.0 0.0
v 4.0 1.0 3.0
v -1.0 1.0 3.0
v 0.2548828 1.5351558 2.311523
v 0.0 0.0 3.0
v 3.0 6.4746094 1.974608
v 0.0 8.451172 3.951171
v 2.4970703 2.2792969 -1.0E-6
v 0.0 10.5 7.999999
v 3.0 8.432618 6.932616
v 0.0 1.5351558 2.728515
v 2.4994726 0.0 0.0
v 0.0 10.5 4.999999
v 0.5 2.2529302 -1.0E-6
v 3.0 2.25 1.499999
v 0.0 0.0 1.923828
v 3.0 4.5 -1.0E-6
v 3.0 2.25 -1.0E-6
v 3.0 4.5 2.999999
v 0.2548828 2.9501948 2.311523
v 3.0 9.500001 7.999999
v 0.0 9.5 4.999999
v 0.0 0.0 0.0
v 3.0 0.0 3.0
v 4.0 1.0 0.0
v -1.0 1.0 0.0
v 0.5 0.0 0.0
v 3.0 8.449219 3.949218
v 3.0 10.5 7.999999
v -1.0 2.75 -1.0E-6
v -1.0 2.75 2.999999
v 0.0 6.475586 1.975585
v 0.0 2.25 3.0
v 0.2548828 2.9501948 2.728515
v 0.0 2.9501948 2.311523
v 0.0 5.225586 3.725585
v 4.0 11.295898 6.2041
v -1.0 11.295898 6.2041
v 3.0 10.5 4.999999
v 2.4951172 4.0 -1.0E-6
v 0.0 4.5 1.499999
v 0.0 4.5 -1.0E-6
v 0.0 2.25 -1.0E-6
v 4.0 4.5 -1.0E-6
v -1.0 4.5 -1.0E-6
v -1.0 4.5 2.999999
v 0.0 4.5 2.999999
v 4.0 4.5 2.999999
vt 0.0 -5.542969
vt 2.0 -5.546875
vt -0.299805 0.834961
vt 15.591797 0.980469
vt 5.186523 0.0
vt 11.128536 0.023438
vt 13.90625 0.023438
vt 12.798828 0.027344
vt 1.0 1.250977
vt 0.0 1.250977
vt 0.039062 0.011719
vt 0.0 0.641602
vt 6.827423 14.494705
vt 5.180664 1.0
vt 1.023438 0.699219
vt 11.128906 0.976562
vt 6.824219 16.304688
vt 1.0 1.15625
vt 0.0 1.15625
vt 1.023438 0.011719
vt 5.186523 0.012695
vt 1.0 0.572266
vt 5.15918 1.0
vt 6.824219 17.671875
vt 12.449219 0.980469
vt 14.019531 0.957031
vt 1.0 0.012695
vt 1.0 1.0
vt 1.0 0.5
vt 1.0 0.25
vt 0.5 0.012695
vt 4.0 0.0
vt 0.5 0.5
vt 0.5 1.0
vt 0.0 0.012695
vt 0.0 1.0
vt 4.0 0.012695
vt 0.0 0.0
vt 4.0 0.5
vt 4.0 1.0
vt -0.023438 0.011719
vt 1.0 0.0
vt 0.5 0.0
vt 5.210938 14.494961
vt 1.0 1.048828
vt 0.0 1.048828
vt 14.0 0.027344
vt 12.691406 0.976562
vt 0.960938 0.011719
vt 14.253906 0.976562
vt 1.0 1.09375
vt 0.0 1.09375
vt 2.0 4.417969
vt 0.0 4.417969
vt 5.501953 0.012695
vt 14.572266 0.023438
vt 0.0 0.455078
vt 0.0 0.441406
vt 0.0 0.220703
vt 4.217773 1.0
vt 1.0 0.480469
vt 0.0 0.480469
vt 0.0 0.960938
vt 1.0 0.885742
vt 0.0 0.883789
vt 0.960938 0.699219
vt -0.023438 0.699219
vt 15.592144 0.027344
vt 2.0 0.957031
vt 12.896484 0.976562
vt 0.039062 0.992188
vt 13.232422 0.023438
vt 5.210938 16.285156
vt 5.501953 1.0
vt 5.501953 0.0
vt 1.0 0.389648
vt 12.693359 0.023438
vt 1.299805 0.834961
vt 0.039062 0.699219
vt 5.210938 17.671875
vt 0.0 -12.050781
vt 2.0 -12.050781
vt 14.912109 0.976562
vt 0.960938 0.992188
vn 1.0 -0.0 -0.0
vn -1.0 -0.0 -0.0
vn -0.0 -0.0 1.0
vn -0.0 -1.0 -0.0
vn -0.0 1.0 -0.0
vn -0.0 -0.7071 0.7071
c 0.0 0.0 0.0
c 1.0 1.0 1.0
c 0.69411767 0.69411767 0.69411767
c 0.40784314 0.40784314 0.40784314
c 0.011764706 0.011764706 0.011764706
c 0.019607844 0.019607844 0.019607844
usemtl 17kabe00
s off
f 6/38/2/2 30/42/2/6 38/9/2/1 48/10/2/5
f 57/38/1/1 11/42/1/1 34/51/1/1 53/52/1/1
f 3/38/1/1 57/42/1/1 53/78/1/1 46/36/1/5
f 5/35/1/1 31/27/1/2 22/45/1/1 18/46/1/1
f 55/35/2/1 4/27/2/1 47/28/2/1 54/3/2/1
f 55/58/6/1 45/22/6/1 1/64/6/1 4/36/6/1
f 40/35/2/1 55/27/2/1 54/18/2/1 39/19/2/1
f 12/35/2/1 40/27/2/1 39/18/2/1 35/19/2/1
f 5/74/1/1 1/23/1/1 16/21/1/4 31/55/1/2
f 14/36/1/1 25/12/1/3 52/31/1/2 42/34/1/4
f 42/34/1/4 52/31/1/2 50/29/1/4 56/28/1/1
f 56/29/3/1 55/58/3/1 40/59/3/1 42/30/3/4
f 42/30/3/4 40/59/3/1 12/35/3/1 14/27/3/1
f 3/28/6/1 19/65/6/1 28/57/6/1 57/76/6/1
f 57/76/3/1 28/57/3/1 33/38/3/6 11/42/3/1
f 26/32/2/4 28/40/2/1 19/14/2/1 37/5/2/4
f 37/5/2/4 19/14/2/1 30/74/2/6 6/75/2/2
f 1/23/1/1 45/60/1/1 16/21/1/4
f 51/27/1/2 50/29/1/4 52/31/1/2
f 52/31/1/2 25/12/1/3 32/35/1/3
f 19/65/6/1 3/28/6/1 30/36/6/6
f 4/36/6/1 1/64/6/1 5/28/6/1
f 55/58/6/1 56/29/6/1 45/22/6/1
f 51/37/1/2 16/21/1/4 50/39/1/4
f 16/21/1/4 45/60/1/1 50/39/1/4
f 50/39/1/4 45/60/1/1 56/40/1/1
f 26/42/2/4 27/43/2/4 24/33/2/4
f 27/43/2/4 10/38/2/3 24/33/2/4
f 24/33/2/4 10/38/2/3 33/36/2/6
f 26/42/2/4 24/33/2/4 28/28/2/1
f 24/33/2/4 33/36/2/6 28/28/2/1
usemtl 17kaidan00
s off
f 31/38/3/2 6/42/3/2 48/61/3/5 22/62/3/1
f 51/81/6/2 26/82/6/4 15/2/6/4 41/1/6/4
f 41/1/6/4 15/2/6/4 37/69/6/4 16/63/6/4
f 16/63/6/4 37/69/6/4 6/53/6/2 31/54/6/2
usemtl 17light
s off
f 8/79/3/2 43/66/3/2 2/84/3/2 20/71/3/2
f 20/67/4/2 9/41/4/2 13/11/4/2 8/79/4/2
f 8/79/1/2 13/11/1/2 29/49/1/2 43/66/1/2
f 43/66/5/2 29/49/5/2 44/20/5/2 2/15/5/2
usemtl 17miti00
s off
f 23/73/3/2 17/17/3/2 49/24/3/2 7/80/3/2
f 36/44/3/3 21/13/3/3 17/17/3/2 23/73/3/2
usemtl 17miti01
s off
f 49/56/3/2 26/83/3/4 51/70/3/2 7/72/3/2
f 17/47/3/2 27/26/3/4 26/25/3/4 49/8/3/2
f 32/16/3/3 36/6/3/3 23/77/3/2 52/48/3/2
f 52/48/3/2 23/77/3/2 7/7/3/2 51/50/3/2
f 21/68/3/3 10/4/3/3 27/26/3/4 17/47/3/2
