mtllib Wall&Door1.mtl
o map
v 4.0 -2.0 0.0
v 4.0 -1.286375 2.991638
v 1.0 -1.286375 2.991638
v 4.0 -2.0 3.000001
v 1.0 -2.0 2.997751
v 4.0 -2.0 2.997751
v 1.0000061 -2.0 0.0
v 1.000003 -2.0 3.000001
v 1.74375 -0.20625001 -0.0062541664
v 3.30625 -2.08125 2.4156215
v 1.509375 -2.08125 2.6499965
v 1.509375 -2.2375 2.6499965
v 3.30625 -2.2375 2.4156215
v 1.509375 -2.08125 -0.0062536895
v 1.509375 -2.2375 -0.0062536895
v 3.30625 -0.20625001 -0.0062541664
v 3.540625 -2.08125 2.6499965
v 3.540625 -2.2375 2.6499965
v 1.74375 -0.20625001 2.415621
v 3.540625 -2.2375 -0.0062536895
v 3.540625 -2.08125 -0.0062536895
v 1.74375 -2.08125 2.4156215
v 1.74375 -2.2375 2.4156215
v 3.30625 -2.08125 -0.0062536895
v 3.30625 -2.2375 -0.0062536895
v 3.30625 -0.20625001 2.415621
v 1.74375 -2.08125 -0.0062536895
v 1.74375 -2.2375 -0.0062536895
vt 0.0 0.0
vt 3.0 0.0
vt 3.0 1.0
vt 0.0 1.0
vt 13.45969 1.0
vt 13.45969 0.0
vt 14.789064 0.0
vt 14.789064 1.0
vt 0.46875 2.34375
vt 0.449219 2.292969
vt 0.621094 2.341797
vt 0.621094 2.339844
vt 0.484375 3.0
vt 0.453125 3.0
vt 0.667969 3.0
vt 0.640625 2.292969
vt 0.640625 3.0
vn -0.0 -1.0 -0.0
vn -0.0 0.0086 1.0
vn 1.0 0.0 -0.0
vn -1.0 0.0 -0.0
vn -0.0 0.0 1.0
vn -0.0 0.0 -1.0
vn -0.0 -1.0 -0.0
vn 0.7071 -0.7071 -0.0
vn -0.7071 -0.7071 -0.0
vn 0.7071 0.0 0.7071
vn -0.7071 0.0 0.7071
vn -0.0 -0.8321 -0.5547
c 1.0 1.0 1.0
c 1.0 1.0 1.0
c 0.019607844 0.019607844 0.019607844
usemtl black
s off
f 5/1/2/1 6/2/2/1 2/3/2/1 3/4/2/1
usemtl m_dun26_23
s off
f 22/9/3/2 27/13/3/2 9/13/8/3 19/9/8/3
f 19/9/8/3 9/13/8/3 16/17/9/3 26/11/9/3
f 26/11/9/3 16/17/9/3 24/17/4/2 10/11/4/2
f 10/11/5/2 26/11/5/3 19/9/5/3 22/9/5/2
usemtl labo04_yuka_1
s off
f 20/15/3/2 21/15/3/2 17/16/10/2 18/16/10/2
f 18/16/10/2 17/16/10/2 11/10/11/2 12/10/11/2
f 12/10/11/2 11/10/11/2 14/14/4/2 15/14/4/2
f 22/9/6/2 10/12/6/2 13/12/12/2 23/9/12/2
f 23/9/12/2 13/12/12/2 18/16/7/2 12/10/7/2
f 13/12/4/2 10/12/4/2 24/17/4/2 25/17/4/2
f 28/13/3/2 27/13/3/2 22/9/3/2 23/9/3/2
f 25/17/7/2 20/15/7/2 18/16/7/2 13/12/7/2
f 15/14/7/2 28/13/7/2 23/9/7/2 12/10/7/2
usemtl in48_hkabe1
s off
f 8/5/1/1 7/6/1/1 1/7/1/1 4/8/1/1
