# Blender 4.0.0
# www.blender.org
mtllib Wall&Roof1.mtl
o map
v 0.000000 0.000000 2.997751
v 1.000000 0.000000 2.997751
v 0.000000 1.000000 2.991638
v 1.000000 1.000000 2.991638
vn -0.0000 0.0061 1.0000
vt 0.000000 0.000000
vt 1.000000 0.000000
vt 1.000000 1.000000
vt 0.000000 1.000000
s 0
usemtl in38_tile03
f 1/1/1 2/2/1 4/3/1 3/4/1
o map.001
v 1.000000 0.000000 0.000000
v 1.000000 0.000000 3.000001
v 0.000001 0.000000 3.000001
v 0.000002 0.000000 0.000000
vn -0.0000 -1.0000 -0.0000
vt 4.486563 1.000000
vt 4.486563 0.000000
vt 4.929688 0.000000
vt 4.929688 1.000000
s 0
usemtl 17kabe01
f 7/5/2 8/6/2 5/7/2 6/8/2
