mtllib Uluru-Cave-3_04_02.mtl
o map
v -16.0 -16.0 3.0
v -15.0 -16.0 3.0
v -15.0 -15.0 3.0
v -16.0 -15.0 3.0
v -16.0 -15.0 3.0
v -15.0 -15.0 3.0
v -15.0 -14.0 3.0
v -16.0 -14.0 3.0
v -16.0 -14.0 3.0
v -15.0 -14.0 3.0
v -15.0 -13.0 3.0
v -16.0 -13.0 3.0
v -16.0 -13.0 3.0
v -15.0 -13.0 3.0
v -15.0 -12.0 3.0
v -16.0 -12.0 3.0
v -16.0 -12.0 3.0
v -15.0 -12.0 3.0
v -15.0 -11.0 3.0
v -16.0 -11.0 3.0
v -16.0 -11.0 3.0
v -15.0 -11.0 3.0
v -15.0 -10.0 3.0
v -16.0 -10.0 3.0
v -16.0 -10.0 3.0
v -15.0 -10.0 3.0
v -15.0 -9.0 3.0
v -16.0 -9.0 3.0
v -16.0 -9.0 3.0
v -15.0 -9.0 3.0
v -15.0 -8.0 3.0
v -16.0 -8.0 3.0
v -16.0 -8.0 3.0
v -15.0 -8.0 3.0
v -15.0 -7.0 3.0
v -16.0 -7.0 3.0
v -16.0 -7.0 3.0
v -15.0 -7.0 3.0
v -15.0 -6.0 3.0
v -16.0 -6.0 3.0
v -16.0 -6.0 3.0
v -15.0 -6.0 3.0
v -15.0 -5.0 3.0
v -16.0 -5.0 3.0
v -16.0 -5.0 3.0
v -15.0 -5.0 3.0
v -15.0 -4.0 3.0
v -16.0 -4.0 3.0
v -16.0 -4.0 3.0
v -15.0 -4.0 3.0
v -15.0 -3.0 3.0
v -16.0 -3.0 3.0
v -16.0 -3.0 3.0
v -15.0 -3.0 3.0
v -15.0 -2.0 3.0
v -16.0 -2.0 3.0
v -16.0 -2.0 3.0
v -15.0 -2.0 3.0
v -15.0 -1.0 3.0
v -16.0 -1.0 3.0
v -16.0 -1.0 3.0
v -15.0 -1.0 3.0
v -15.0 0.0 3.0
v -16.0 0.0 3.0
v -16.0 0.0 3.0
v -15.0 0.0 3.0
v -15.0 1.0 3.0
v -16.0 1.0 3.0
v -16.0 1.0 3.0
v -15.0 1.0 3.0
v -15.0 2.0 3.0
v -16.0 2.0 3.0
v -16.0 2.0 3.0
v -15.0 2.0 3.0
v -15.0 3.0 3.0
v -16.0 3.0 3.0
v -16.0 3.0 3.0
v -15.0 3.0 3.0
v -15.0 4.0 3.0
v -16.0 4.0 3.0
v -16.0 4.0 3.0
v -15.0 4.0 3.0
v -15.0 5.0 3.0
v -16.0 5.0 3.0
v -16.0 5.0 3.0
v -15.0 5.0 3.0
v -15.0 6.0 3.0
v -16.0 6.0 3.0
v -16.0 6.0 3.0
v -15.0 6.0 3.0
v -15.0 7.0 3.0
v -16.0 7.0 3.0
v -16.0 7.0 3.0
v -15.0 7.0 3.0
v -15.0 8.0 3.0
v -16.0 8.0 3.0
v -16.0 8.0 3.0
v -15.0 8.0 3.0
v -15.0 9.0 3.0
v -16.0 9.0 3.0
v -16.0 9.0 3.000002
v -9.0 9.0 3.000002
v -9.0 16.0 3.0000029
v -16.0 16.0 3.0000029
v -15.0 -16.0 3.000002
v -9.0 -16.0 3.000002
v -9.0 -8.0 3.0000029
v -15.0 -8.0 3.0000029
v -15.0 -8.0 3.000002
v -9.0 -8.0 3.000002
v -9.0 0.0 3.0000029
v -15.0 0.0 3.0000029
v -15.0 0.0 3.000002
v -9.0 0.0 3.000002
v -9.0 8.0 3.0000029
v -15.0 8.0 3.0000029
v -15.0 8.0 3.000002
v -9.0 8.0 3.000002
v -9.0 9.0 3.0000029
v -15.0 9.0 3.0000029
vt 0.0 0.0
vt 1.0 0.0
vt 1.0 1.0
vt 0.0 1.0
vt 0.0 1.0
vt 1.0 1.0
vt 1.0 2.0
vt 0.0 2.0
vt 0.0 2.0
vt 1.0 2.0
vt 1.0 3.0
vt 0.0 3.0
vt 0.0 3.0
vt 1.0 3.0
vt 1.0 4.0
vt 0.0 4.0
vt 0.0 4.0
vt 1.0 4.0
vt 1.0 5.0
vt 0.0 5.0
vt 0.0 5.0
vt 1.0 5.0
vt 1.0 6.0
vt 0.0 6.0
vt 0.0 6.0
vt 1.0 6.0
vt 1.0 7.0
vt 0.0 7.0
vt 0.0 7.0
vt 1.0 7.0
vt 1.0 8.0
vt 0.0 8.0
vt 0.0 8.0
vt 1.0 8.0
vt 1.0 9.0
vt 0.0 9.0
vt 0.0 9.0
vt 1.0 9.0
vt 1.0 10.0
vt 0.0 10.0
vt 0.0 10.0
vt 1.0 10.0
vt 1.0 11.0
vt 0.0 11.0
vt 0.0 11.0
vt 1.0 11.0
vt 1.0 12.0
vt 0.0 12.0
vt 0.0 12.0
vt 1.0 12.0
vt 1.0 13.0
vt 0.0 13.0
vt 0.0 13.0
vt 1.0 13.0
vt 1.0 14.0
vt 0.0 14.0
vt 0.0 14.0
vt 1.0 14.0
vt 1.0 15.0
vt 0.0 15.0
vt 0.0 15.0
vt 1.0 15.0
vt 1.0 16.0
vt 0.0 16.0
vt 0.0 16.0
vt 1.0 16.0
vt 1.0 17.0
vt 0.0 17.0
vt 1.0 18.0
vt 0.0 18.0
vt 0.0 17.0
vt 1.0 17.0
vt 0.0 18.0
vt 1.0 18.0
vt 1.0 19.0
vt 0.0 19.0
vt 1.0 20.0
vt 0.0 20.0
vt 0.0 19.0
vt 1.0 19.0
vt 0.0 20.0
vt 1.0 20.0
vt 1.0 21.0
vt 0.0 21.0
vt 1.0 22.0
vt 0.0 22.0
vt 0.0 21.0
vt 1.0 21.0
vt 0.0 22.0
vt 1.0 22.0
vt 1.0 23.0
vt 0.0 23.0
vt 1.0 24.0
vt 0.0 24.0
vt 0.0 23.0
vt 1.0 23.0
vt 0.0 24.0
vt 1.0 24.0
vt 1.0 25.0
vt 0.0 25.0
vt 0.0625 0.9375
vt 0.0625 0.9375
vt 0.0625 0.9375
vt 0.0625 0.9375
vt 0.0625 0.9375
vt 0.0625 0.9375
vt 0.0625 0.9375
vt 0.0625 0.9375
vt 0.0625 0.9375
vt 0.0625 0.9375
vt 0.0625 0.9375
vt 0.0625 0.9375
vt 0.0625 0.9375
vt 0.0625 0.9375
vt 0.0625 0.9375
vt 0.0625 0.9375
vt 0.0625 0.9375
vt 0.0625 0.9375
vt 0.0625 0.9375
vt 0.0625 0.9375
vn 0.0 -0.0 1.0
vn 0.0 -0.0 1.0
vn 0.0 -0.0 1.0
vn 0.0 -0.0 1.0
vn 0.0 -0.0 1.0
vn 0.0 -0.0 1.0
vn 0.0 -0.0 1.0
vn 0.0 -0.0 1.0
vn 0.0 -0.0 1.0
vn 0.0 -0.0 1.0
vn 0.0 -0.0 1.0
vn 0.0 -0.0 1.0
vn 0.0 -0.0 1.0
vn 0.0 -0.0 1.0
vn 0.0 -0.0 1.0
vn 0.0 -0.0 1.0
vn 0.0 -0.0 1.0
vn 0.0 -0.0 1.0
vn 0.0 -0.0 1.0
vn 0.0 -0.0 1.0
vn 0.0 -0.0 1.0
vn 0.0 -0.0 1.0
vn 0.0 -0.0 1.0
vn 0.0 -0.0 1.0
vn 0.0 -0.0 1.0
vn 0.0 -0.0 1.0
vn 0.0 -0.0 1.0
vn 0.0 -0.0 1.0
vn 0.0 -0.0 1.0
vn 0.0 -0.0 1.0
c 1.0 1.0 1.0
c 0.050980393 0.050980393 0.050980393
c 1.0 1.0 1.0
c 0.050980393 0.050980393 0.050980393
c 1.0 1.0 1.0
c 0.050980393 0.050980393 0.050980393
c 1.0 1.0 1.0
c 0.050980393 0.050980393 0.050980393
c 1.0 1.0 1.0
c 0.050980393 0.050980393 0.050980393
c 1.0 1.0 1.0
c 0.050980393 0.050980393 0.050980393
c 1.0 1.0 1.0
c 0.050980393 0.050980393 0.050980393
c 1.0 1.0 1.0
c 0.050980393 0.050980393 0.050980393
c 1.0 1.0 1.0
c 0.050980393 0.050980393 0.050980393
c 1.0 1.0 1.0
c 0.050980393 0.050980393 0.050980393
c 1.0 1.0 1.0
c 0.050980393 0.050980393 0.050980393
c 1.0 1.0 1.0
c 0.050980393 0.050980393 0.050980393
c 1.0 1.0 1.0
c 0.050980393 0.050980393 0.050980393
c 1.0 1.0 1.0
c 0.050980393 0.050980393 0.050980393
c 1.0 1.0 1.0
c 0.050980393 0.050980393 0.050980393
c 1.0 1.0 1.0
c 0.050980393 0.050980393 0.050980393
c 1.0 1.0 1.0
c 0.050980393 0.050980393 0.050980393
c 1.0 1.0 1.0
c 0.050980393 0.050980393 0.050980393
c 1.0 1.0 1.0
c 0.050980393 0.050980393 0.050980393
c 1.0 1.0 1.0
c 0.050980393 0.050980393 0.050980393
c 1.0 1.0 1.0
c 0.050980393 0.050980393 0.050980393
c 1.0 1.0 1.0
c 0.050980393 0.050980393 0.050980393
c 1.0 1.0 1.0
c 0.050980393 0.050980393 0.050980393
c 1.0 1.0 1.0
c 0.050980393 0.050980393 0.050980393
c 1.0 1.0 1.0
c 0.019607844 0.019607844 0.019607844
c 1.0 1.0 1.0
c 1.0 1.0 1.0
c 1.0 1.0 1.0
c 1.0 1.0 1.0
c 1.0 1.0 1.0
usemtl gake_michi01
s off
f 1/1/1/1 2/2/1/2 3/3/1/2 4/4/1/1
f 5/5/2/3 6/6/2/4 7/7/2/4 8/8/2/3
f 9/9/3/5 10/10/3/6 11/11/3/6 12/12/3/5
f 13/13/4/7 14/14/4/8 15/15/4/8 16/16/4/7
f 17/17/5/9 18/18/5/10 19/19/5/10 20/20/5/9
f 21/21/6/11 22/22/6/12 23/23/6/12 24/24/6/11
f 25/25/7/13 26/26/7/14 27/27/7/14 28/28/7/13
f 29/29/8/15 30/30/8/16 31/31/8/16 32/32/8/15
f 33/33/9/17 34/34/9/18 35/35/9/18 36/36/9/17
f 37/37/10/19 38/38/10/20 39/39/10/20 40/40/10/19
f 41/41/11/21 42/42/11/22 43/43/11/22 44/44/11/21
f 45/45/12/23 46/46/12/24 47/47/12/24 48/48/12/23
f 49/49/13/25 50/50/13/26 51/51/13/26 52/52/13/25
f 53/53/14/27 54/54/14/28 55/55/14/28 56/56/14/27
f 57/57/15/29 58/58/15/30 59/59/15/30 60/60/15/29
f 61/61/16/31 62/62/16/32 63/63/16/32 64/64/16/31
f 65/65/17/33 66/66/17/34 67/67/17/34 68/68/17/33
f 69/71/18/35 70/72/18/36 71/69/18/36 72/70/18/35
f 73/73/19/37 74/74/19/38 75/75/19/38 76/76/19/37
f 77/79/20/39 78/80/20/40 79/77/20/40 80/78/20/39
f 81/81/21/41 82/82/21/42 83/83/21/42 84/84/21/41
f 85/87/22/43 86/88/22/44 87/85/22/44 88/86/22/43
f 89/89/23/45 90/90/23/46 91/91/23/46 92/92/23/45
f 93/95/24/47 94/96/24/48 95/93/24/48 96/94/24/47
f 97/97/25/49 98/98/25/50 99/99/25/50 100/100/25/50
usemtl d0gake_heri
s off
f 101/101/26/51 102/102/26/51 103/103/26/51 104/104/26/51
f 105/105/27/52 106/106/27/52 107/107/27/52 108/108/27/52
f 109/109/28/53 110/110/28/53 111/111/28/53 112/112/28/53
f 113/113/29/54 114/114/29/54 115/115/29/54 116/116/29/54
f 117/117/30/55 118/118/30/55 119/119/30/55 120/120/30/55
