mtllib Uluru-Cave-3_04_03.mtl
o map
v -16.0 9.0 3.000002
v -9.0 9.0 3.000002
v -9.0 15.0 3.0000029
v -16.0 15.0 3.0000029
v -16.0 15.0 3.0
v -15.0 15.0 3.0
v -15.0 16.0 3.0
v -16.0 16.0 3.0
v -15.0 15.0 3.000002
v -9.0 15.0 3.000002
v -9.0 16.0 3.0000029
v -15.0 16.0 3.0000029
vt 0.0625 0.9375
vt 0.0625 0.9375
vt 0.0625 0.9375
vt 0.0625 0.9375
vt 1.0 32.0
vt 0.0 32.0
vt 0.0 31.0
vt 1.0 31.0
vt 0.0625 0.9375
vt 0.0625 0.9375
vt 0.0625 0.9375
vt 0.0625 0.9375
vn 0.0 -0.0 1.0
vn 0.0 -0.0 1.0
vn 0.0 -0.0 1.0
c 1.0 1.0 1.0
c 0.0 0.0 0.0
c 1.0 1.0 1.0
c 0.019607844 0.019607844 0.019607844
c 1.0 1.0 1.0
usemtl gake_michi01
s off
f 5/7/2/4 6/8/2/2 7/5/2/4 8/6/2/3
usemtl d0gake_heri
s off
f 1/1/1/1 2/2/1/1 3/3/1/1 4/4/1/1
f 9/9/3/5 10/10/3/5 11/11/3/5 12/12/3/5
