mtllib Victory-Road-2_00_04.mtl
o map
v -8.0 -8.0 3.0
v -16.0 -8.0 3.0
v -16.0 -16.0 2.999999
v -8.0 -16.0 2.999999
v -8.0 0.0 3.0
v -16.0 0.0 3.0
v -16.0 -8.0 2.999999
v -8.0 -8.0 2.999999
v -8.0 8.0 3.0
v -16.0 8.0 3.0
v -16.0 0.0 2.999999
v -8.0 0.0 2.999999
v -8.0 16.0 3.0
v -16.0 16.0 3.0
v -16.0 8.0 2.999999
v -8.0 8.0 2.999999
v 0.0 -8.0 3.0
v -8.0 -8.0 3.0
v -8.0 -16.0 2.999999
v 0.0 -16.0 2.999999
v 0.0 0.0 3.0
v -8.0 0.0 3.0
v -8.0 -8.0 2.999999
v 0.0 -8.0 2.999999
v 0.0 8.0 3.0
v -8.0 8.0 3.0
v -8.0 0.0 2.999999
v 0.0 0.0 2.999999
v -7.0 16.0 3.0
v -8.0 16.0 3.0
v -8.0 8.0 2.999999
v -7.0 8.0 2.999999
v 1.0 12.0 3.0
v -7.0 12.0 3.0
v -7.0 8.0 2.999999
v 1.0 8.0 2.999999
v -7.0 12.0 3.000003
v -6.0 12.0 3.000003
v -7.0 13.0 3.000002
v -6.0 13.0 3.000002
v -7.0 13.0 3.000003
v -7.0 16.0 3.000003
v -6.0 13.0 3.000002
v -6.0 16.0 3.000002
v 2.0 12.0 3.000003
v -6.0 12.0 3.000003
v 2.0 13.0 3.000002
v -6.0 13.0 3.000002
v -6.0 13.0 3.0
v -5.0 13.0 3.0
v -5.669922 13.330078 2.99707
v -5.0 13.330078 2.99707
v -5.1054688 13.894531 2.0986319
v -5.0 13.7890625 2.0986319
v -5.0 14.0 1.999999
v -5.210938 14.0 2.0986319
v -5.669922 14.0 2.99707
v -6.0 14.0 2.999999
v -5.669922 14.0 2.997072
v -5.669922 16.0 2.997072
v -5.210937 14.0 2.098634
v -5.210937 16.0 2.098634
v -6.0 14.0 3.000001
v -6.0 16.0 3.000001
v -5.0 14.0 2.000001
v -5.0 16.0 2.000001
v 3.0 13.330078 2.997072
v -5.0 13.330078 2.997072
v 3.0 13.7890625 2.098634
v -5.0 13.7890625 2.098634
v 3.0 13.0 3.000001
v -5.0 13.0 3.000001
v 3.0 14.0 2.000001
v -5.0 14.0 2.000001
v -5.0 14.0 2.0
v -4.0 14.0 2.0
v -4.669922 14.330078 1.9970701
v -4.0 14.330078 1.9970701
v -4.1054688 14.894531 1.098632
v -4.0 14.7890625 1.098632
v -4.0 15.0 0.999999
v -4.210938 15.0 1.098632
v -4.669922 15.0 1.9970701
v -5.0 15.0 1.999999
v -4.669922 15.0 1.997072
v -4.669922 16.0 1.997072
v -4.210937 15.0 1.098634
v -4.210937 16.0 1.098634
v -5.0 15.0 2.000001
v -5.0 16.0 2.000001
v -4.0 15.0 1.000001
v -4.0 16.0 1.000001
v 4.0 14.330078 1.997072
v -4.0 14.330078 1.997072
v 4.0 14.7890625 1.098634
v -4.0 14.7890625 1.098634
v 4.0 14.0 2.000001
v -4.0 14.0 2.000001
v 4.0 15.0 1.000001
v -4.0 15.0 1.000001
v -4.0 15.0 1.0
v -3.0 15.0 1.0
v -3.6699219 15.330078 0.99707
v -3.0 15.330078 0.99707
v -3.105469 15.894531 0.09863198
v -3.0 15.7890625 0.09863198
v -3.0 16.0 -1.013279E-6
v -3.210938 16.0 0.09863198
v -3.6699219 16.0 0.99707
v -4.0 16.0 0.999999
v 5.0 15.330078 0.997072
v -3.0 15.330078 0.997072
v 5.0 15.7890625 0.098634005
v -3.0 15.7890625 0.098634005
v 5.0 15.0 1.000001
v -3.0 15.0 1.000001
v 5.0 16.0 1.013279E-6
v -3.0 16.0 1.013279E-6
v 8.0 -8.0 3.0
v 0.0 -8.0 3.0
v 0.0 -16.0 2.999999
v 8.0 -16.0 2.999999
v 8.0 0.0 3.0
v 0.0 0.0 3.0
v 0.0 -8.0 2.999999
v 8.0 -8.0 2.999999
v 8.0 8.0 3.0
v 0.0 8.0 3.0
v 0.0 0.0 2.999999
v 8.0 0.0 2.999999
v 9.0 12.0 3.0
v 1.0 12.0 3.0
v 1.0 8.0 2.999999
v 9.0 8.0 2.999999
v 9.0 12.0 3.000003
v 2.0 12.0 3.000003
v 9.0 13.0 3.000002
v 2.0 13.0 3.000002
v 8.0 13.330078 2.997072
v 3.0 13.330078 2.997072
v 8.0 13.7890625 2.098634
v 3.0 13.7890625 2.098634
v 8.0 13.0 3.000001
v 3.0 13.0 3.000001
v 8.0 14.0 2.000001
v 3.0 14.0 2.000001
v 7.0 14.330078 1.997072
v 4.0 14.330078 1.997072
v 7.0 14.7890625 1.098634
v 4.0 14.7890625 1.098634
v 7.0 14.0 2.000001
v 4.0 14.0 2.000001
v 7.0 15.0 1.000001
v 4.0 15.0 1.000001
v 6.0 15.330078 0.997072
v 5.0 15.330078 0.997072
v 6.0 15.7890625 0.098634005
v 5.0 15.7890625 0.098634005
v 6.0 15.0 1.000001
v 5.0 15.0 1.000001
v 6.0 16.0 1.013279E-6
v 5.0 16.0 1.013279E-6
v 7.0 15.0 1.0
v 7.0 16.0 1.0
v 6.210937 16.0 0.09863198
v 6.669922 15.330078 0.99707
v 6.669922 16.0 0.99707
v 6.0 15.330078 0.99707
v 6.1054688 15.894531 0.09863198
v 6.0 15.7890625 0.09863198
v 6.0 16.0 -1.013279E-6
v 6.0 15.0 0.999999
v 8.0 14.0 2.0
v 8.0 15.0 2.0
v 7.210937 15.0 1.098632
v 7.669922 14.330078 1.9970701
v 7.669922 15.0 1.9970701
v 7.0 14.330078 1.9970701
v 7.1054688 14.894531 1.098632
v 7.0 14.7890625 1.098632
v 7.0 15.0 0.999999
v 7.0 14.0 1.999999
v 7.669922 16.0 1.997072
v 7.669922 15.0 1.997072
v 8.0 16.0 2.000001
v 8.0 15.0 2.000001
v 7.0 16.0 1.000001
v 7.0 15.0 1.000001
v 7.210937 16.0 1.098634
v 7.210937 15.0 1.098634
v 16.0 -8.0 3.0
v 8.0 -8.0 3.0
v 8.0 -16.0 2.999999
v 16.0 -16.0 2.999999
v 16.0 0.0 3.0
v 8.0 0.0 3.0
v 8.0 -8.0 2.999999
v 16.0 -8.0 2.999999
v 16.0 8.0 3.0
v 8.0 8.0 3.0
v 8.0 0.0 2.999999
v 16.0 0.0 2.999999
v 9.0 13.0 3.0
v 9.0 14.0 3.0
v 8.2109375 14.0 2.0986319
v 8.669922 13.330078 2.99707
v 8.669922 14.0 2.99707
v 8.0 13.330078 2.99707
v 8.105469 13.894531 2.0986319
v 8.0 13.7890625 2.0986319
v 8.0 14.0 1.999999
v 8.0 13.0 2.999999
v 8.669922 16.0 2.997072
v 8.669922 14.0 2.997072
v 9.0 16.0 3.000001
v 9.0 14.0 3.000001
v 8.0 16.0 2.000001
v 8.0 14.0 2.000001
v 8.2109375 16.0 2.098634
v 8.2109375 14.0 2.098634
v 16.0 12.0 3.0
v 9.0 12.0 3.0
v 9.0 8.0 2.999999
v 16.0 8.0 2.999999
v 10.0 12.0 3.000003
v 10.0 13.0 3.000003
v 9.0 12.0 3.000002
v 9.0 13.0 3.000002
v 10.0 16.0 3.000003
v 10.0 13.0 3.000003
v 9.0 16.0 3.000002
v 9.0 13.0 3.000002
v 16.0 16.0 3.0
v 10.0 16.0 3.0
v 10.0 12.0 2.999999
v 16.0 12.0 2.999999
vt 0.0 0.0
vt 8.0 0.0
vt 8.0 8.0
vt 0.0 8.0
vt 0.0 0.0
vt 8.0 0.0
vt 8.0 8.0
vt 0.0 8.0
vt 0.0 0.0
vt 8.0 0.0
vt 8.0 8.0
vt 0.0 8.0
vt 0.0 0.0
vt 8.0 0.0
vt 8.0 8.0
vt 0.0 8.0
vt 0.0 0.0
vt 8.0 0.0
vt 8.0 8.0
vt 0.0 8.0
vt 0.0 0.0
vt 8.0 0.0
vt 8.0 8.0
vt 0.0 8.0
vt 0.0 0.0
vt 8.0 0.0
vt 8.0 8.0
vt 0.0 8.0
vt 0.0 0.0
vt 1.0 0.0
vt 1.0 8.0
vt 0.0 8.0
vt 0.0 0.0
vt 8.0 0.0
vt 8.0 4.0
vt 0.0 4.0
vt 0.986328 -0.007812
vt 0.507812 -0.492188
vt 0.507812 -0.007812
vt 0.986328 -0.492188
vt 0.011719 -3.0
vt 0.011719 -4.5
vt 0.488281 -3.0
vt 0.488281 -4.5
vt 0.011719 -8.0
vt 0.011719 -12.0
vt 0.488281 -8.0
vt 0.488281 -12.0
vt 1.0 -0.25
vt 0.8125 -0.8125
vt 0.5 -0.25
vt 0.5 -0.8125
vt 0.1875 -0.8125
vt 0.0 -0.25
vt 0.5 -0.972656
vt 0.5 -0.023438
vt 1.0 -0.023438
vt 0.0 -0.023438
vt -4.0 -0.015625
vt -4.0 -0.25
vt -3.0 -0.25
vt -3.0 -0.015625
vt -4.0 -0.8125
vt -3.0 -0.8125
vt -4.0 -0.984375
vt -3.0 -0.984375
vt -16.0 -0.015625
vt -16.0 -0.25
vt -12.0 -0.25
vt -12.0 -0.015625
vt -16.0 -0.8125
vt -12.0 -0.8125
vt -16.0 -0.984375
vt -12.0 -0.984375
vt 1.0 -0.25
vt 0.8125 -0.8125
vt 0.5 -0.25
vt 0.5 -0.8125
vt 0.1875 -0.8125
vt 0.0 -0.25
vt 0.5 -0.972656
vt 0.5 -0.023438
vt 1.0 -0.023438
vt 0.0 -0.023438
vt -2.0 -0.015625
vt -2.0 -0.25
vt -1.5 -0.25
vt -1.5 -0.015625
vt -2.0 -0.8125
vt -1.5 -0.8125
vt -2.0 -0.984375
vt -1.5 -0.984375
vt -16.0 -0.015625
vt -16.0 -0.25
vt -12.0 -0.25
vt -12.0 -0.015625
vt -16.0 -0.8125
vt -12.0 -0.8125
vt -16.0 -0.984375
vt -12.0 -0.984375
vt 1.0 -0.25
vt 0.8125 -0.8125
vt 0.5 -0.25
vt 0.5 -0.8125
vt 0.1875 -0.8125
vt 0.0 -0.25
vt 0.5 -0.972656
vt 0.5 -0.023438
vt 1.0 -0.023438
vt 0.0 -0.023438
vt -16.0 -0.015625
vt -16.0 -0.25
vt -12.0 -0.25
vt -12.0 -0.015625
vt -16.0 -0.8125
vt -12.0 -0.8125
vt -16.0 -0.984375
vt -12.0 -0.984375
vt 0.0 0.0
vt 8.0 0.0
vt 8.0 8.0
vt 0.0 8.0
vt 0.0 0.0
vt 8.0 0.0
vt 8.0 8.0
vt 0.0 8.0
vt 0.0 0.0
vt 8.0 0.0
vt 8.0 8.0
vt 0.0 8.0
vt 0.0 0.0
vt 8.0 0.0
vt 8.0 4.0
vt 0.0 4.0
vt 0.011719 -7.0
vt 0.011719 -10.5
vt 0.488281 -7.0
vt 0.488281 -10.5
vt -10.0 -0.015625
vt -10.0 -0.25
vt -7.5 -0.25
vt -7.5 -0.015625
vt -10.0 -0.8125
vt -7.5 -0.8125
vt -10.0 -0.984375
vt -7.5 -0.984375
vt -6.0 -0.015625
vt -6.0 -0.25
vt -4.5 -0.25
vt -4.5 -0.015625
vt -6.0 -0.8125
vt -4.5 -0.8125
vt -6.0 -0.984375
vt -4.5 -0.984375
vt -2.0 -0.015625
vt -2.0 -0.25
vt -1.5 -0.25
vt -1.5 -0.015625
vt -2.0 -0.8125
vt -1.5 -0.8125
vt -2.0 -0.984375
vt -1.5 -0.984375
vt 1.0 -0.25
vt 0.8125 -0.8125
vt 0.5 -0.25
vt 0.5 -0.8125
vt 0.1875 -0.8125
vt 0.0 -0.25
vt 0.5 -0.972656
vt 0.5 -0.023438
vt 1.0 -0.023438
vt 0.0 -0.023438
vt 1.0 -0.25
vt 0.8125 -0.8125
vt 0.5 -0.25
vt 0.5 -0.8125
vt 0.1875 -0.8125
vt 0.0 -0.25
vt 0.5 -0.972656
vt 0.5 -0.023438
vt 1.0 -0.023438
vt 0.0 -0.023438
vt -2.0 -0.015625
vt -2.0 -0.25
vt -1.5 -0.25
vt -1.5 -0.015625
vt -2.0 -0.8125
vt -1.5 -0.8125
vt -2.0 -0.984375
vt -1.5 -0.984375
vt 0.0 0.0
vt 8.0 0.0
vt 8.0 8.0
vt 0.0 8.0
vt 0.0 0.0
vt 8.0 0.0
vt 8.0 8.0
vt 0.0 8.0
vt 0.0 0.0
vt 8.0 0.0
vt 8.0 8.0
vt 0.0 8.0
vt 1.0 -0.25
vt 0.8125 -0.8125
vt 0.5 -0.25
vt 0.5 -0.8125
vt 0.1875 -0.8125
vt 0.0 -0.25
vt 0.5 -0.972656
vt 0.5 -0.023438
vt 1.0 -0.023438
vt 0.0 -0.023438
vt -4.0 -0.015625
vt -4.0 -0.25
vt -3.0 -0.25
vt -3.0 -0.015625
vt -4.0 -0.8125
vt -3.0 -0.8125
vt -4.0 -0.984375
vt -3.0 -0.984375
vt 0.0 0.0
vt 7.0 0.0
vt 7.0 4.0
vt 0.0 4.0
vt 0.986328 -0.007812
vt 0.507812 -0.492188
vt 0.507812 -0.007812
vt 0.986328 -0.492188
vt 0.011719 -3.0
vt 0.011719 -4.5
vt 0.488281 -3.0
vt 0.488281 -4.5
vt 0.0 0.0
vt 6.0 0.0
vt 6.0 4.0
vt 0.0 4.0
vn 0.0 -0.0 1.0
vn 0.0 -0.0 1.0
vn 0.0 -0.0 1.0
vn 0.0 -0.0 1.0
vn 0.0 -0.0 1.0
vn 0.0 -0.0 1.0
vn 0.0 -0.0 1.0
vn 0.0 -0.0 1.0
vn 0.0 -0.0 1.0
vn -0.0 0.0 1.0
vn 0.0 0.0 1.0
vn -0.0 0.0 1.0
vn 0.3985 0.5864 0.7052
vn 0.0044 0.0044 1.0
vn 0.5258 0.0 0.8506
vn 0.5864 0.3985 0.7052
vn -0.0 0.0089 1.0
vn 0.1727 0.1727 0.9697
vn 0.4632 0.4632 0.7555
vn 0.39 0.39 0.8341
vn 0.0089 0.0 1.0
vn -0.0 0.5258 0.8506
vn 0.6947 0.0 0.7193
vn 0.5258 0.0 0.8506
vn 0.4236 0.0 0.9059
vn 0.0089 0.0 1.0
vn -0.0 0.0089 1.0
vn -0.0 0.4236 0.9059
vn -0.0 0.5258 0.8506
vn -0.0 0.6947 0.7193
vn 0.3985 0.5864 0.7052
vn 0.0044 0.0044 1.0
vn 0.5258 0.0 0.8506
vn 0.5864 0.3985 0.7052
vn -0.0 0.0089 1.0
vn 0.1727 0.1727 0.9697
vn 0.4632 0.4632 0.7555
vn 0.39 0.39 0.8341
vn 0.0089 0.0 1.0
vn -0.0 0.5258 0.8506
vn 0.6947 0.0 0.7193
vn 0.5258 0.0 0.8506
vn 0.4236 0.0 0.9059
vn 0.0089 0.0 1.0
vn -0.0 0.0089 1.0
vn -0.0 0.4236 0.9059
vn -0.0 0.5258 0.8506
vn -0.0 0.6947 0.7193
vn 0.3985 0.5864 0.7052
vn 0.0044 0.0044 1.0
vn 0.5258 0.0 0.8506
vn 0.5864 0.3985 0.7052
vn -0.0 0.0089 1.0
vn 0.1727 0.1727 0.9697
vn 0.4632 0.4632 0.7555
vn 0.39 0.39 0.8341
vn 0.0089 0.0 1.0
vn -0.0 0.5258 0.8506
vn -0.0 0.0089 1.0
vn -0.0 0.4236 0.9059
vn -0.0 0.5258 0.8506
vn -0.0 0.6947 0.7193
vn 0.0 -0.0 1.0
vn 0.0 -0.0 1.0
vn 0.0 -0.0 1.0
vn 0.0 -0.0 1.0
vn -0.0 0.0 1.0
vn -0.0 0.0089 1.0
vn -0.0 0.4236 0.9059
vn -0.0 0.5258 0.8506
vn -0.0 0.6947 0.7193
vn -0.0 0.0089 1.0
vn -0.0 0.4236 0.9059
vn -0.0 0.5258 0.8506
vn -0.0 0.6947 0.7193
vn -0.0 0.0089 1.0
vn -0.0 0.4236 0.9059
vn -0.0 0.5258 0.8506
vn -0.0 0.6947 0.7193
vn -0.3985 0.5864 0.7052
vn -0.0044 0.0044 1.0
vn -0.5258 -0.0 0.8506
vn -0.5864 0.3985 0.7052
vn -0.0 0.0089 1.0
vn -0.1727 0.1727 0.9697
vn -0.4632 0.4632 0.7555
vn -0.39 0.39 0.8341
vn -0.0089 -0.0 1.0
vn -0.0 0.5258 0.8506
vn -0.3985 0.5864 0.7052
vn -0.0044 0.0044 1.0
vn -0.5258 -0.0 0.8506
vn -0.5864 0.3985 0.7052
vn -0.0 0.0089 1.0
vn -0.1727 0.1727 0.9697
vn -0.4632 0.4632 0.7555
vn -0.39 0.39 0.8341
vn -0.0089 -0.0 1.0
vn -0.0 0.5258 0.8506
vn -0.6947 -0.0 0.7193
vn -0.5258 -0.0 0.8506
vn -0.4236 -0.0 0.9059
vn -0.0089 -0.0 1.0
vn 0.0 -0.0 1.0
vn 0.0 -0.0 1.0
vn 0.0 -0.0 1.0
vn -0.3985 0.5864 0.7052
vn -0.0044 0.0044 1.0
vn -0.5258 -0.0 0.8506
vn -0.5864 0.3985 0.7052
vn -0.0 0.0089 1.0
vn -0.1727 0.1727 0.9697
vn -0.4632 0.4632 0.7555
vn -0.39 0.39 0.8341
vn -0.0089 -0.0 1.0
vn -0.0 0.5258 0.8506
vn -0.6947 -0.0 0.7193
vn -0.5258 -0.0 0.8506
vn -0.4236 -0.0 0.9059
vn -0.0089 -0.0 1.0
vn 0.0 -0.0 1.0
vn -0.0 -0.0 1.0
vn -0.0 -0.0 1.0
vn 0.0 -0.0 1.0
c 0.0 0.0 0.0
c 0.0 0.0 0.0
c 0.0 0.0 0.0
c 0.0 0.0 0.0
c 0.0 0.0 0.0
c 0.0 0.0 0.0
c 0.0 0.0 0.0
c 0.0 0.0 0.0
c 0.0 0.0 0.0
c 0.0 0.0 0.0
c 1.0 1.0 1.0
c 0.0 0.0 0.0
c 1.0 1.0 1.0
c 0.0 0.0 0.0
c 1.0 1.0 1.0
c 0.8392157 0.8392157 0.8392157
c 1.0 1.0 1.0
c 0.72156864 0.72156864 0.72156864
c 1.0 1.0 1.0
c 0.8392157 0.8392157 0.8392157
c 0.72156864 0.72156864 0.72156864
c 1.0 1.0 1.0
c 0.8392157 0.8392157 0.8392157
c 0.72156864 0.72156864 0.72156864
c 0.8392157 0.8392157 0.8392157
c 1.0 1.0 1.0
c 0.72156864 0.72156864 0.72156864
c 1.0 1.0 1.0
c 0.8392157 0.8392157 0.8392157
c 0.72156864 0.72156864 0.72156864
c 1.0 1.0 1.0
c 0.8392157 0.8392157 0.8392157
c 0.72156864 0.72156864 0.72156864
c 0.8392157 0.8392157 0.8392157
c 1.0 1.0 1.0
c 0.72156864 0.72156864 0.72156864
c 1.0 1.0 1.0
c 0.8392157 0.8392157 0.8392157
c 0.72156864 0.72156864 0.72156864
c 0.0 0.0 0.0
c 0.0 0.0 0.0
c 0.0 0.0 0.0
c 0.0 0.0 0.0
c 0.0 0.0 0.0
c 1.0 1.0 1.0
c 1.0 1.0 1.0
c 0.8392157 0.8392157 0.8392157
c 0.72156864 0.72156864 0.72156864
c 1.0 1.0 1.0
c 0.8392157 0.8392157 0.8392157
c 0.72156864 0.72156864 0.72156864
c 1.0 1.0 1.0
c 0.8392157 0.8392157 0.8392157
c 0.72156864 0.72156864 0.72156864
c 0.8392157 0.8392157 0.8392157
c 1.0 1.0 1.0
c 0.72156864 0.72156864 0.72156864
c 0.8392157 0.8392157 0.8392157
c 1.0 1.0 1.0
c 0.72156864 0.72156864 0.72156864
c 1.0 1.0 1.0
c 0.8392157 0.8392157 0.8392157
c 0.72156864 0.72156864 0.72156864
c 0.0 0.0 0.0
c 0.0 0.0 0.0
c 0.0 0.0 0.0
c 0.8392157 0.8392157 0.8392157
c 1.0 1.0 1.0
c 0.72156864 0.72156864 0.72156864
c 1.0 1.0 1.0
c 0.8392157 0.8392157 0.8392157
c 0.72156864 0.72156864 0.72156864
c 0.0 0.0 0.0
c 0.0 0.0 0.0
c 1.0 1.0 1.0
c 0.0 0.0 0.0
c 1.0 1.0 1.0
c 0.0 0.0 0.0
usemtl d7bedrock4
s off
f 3/1/1/1 4/2/1/1 1/3/1/1 2/4/1/1
f 7/5/2/2 8/6/2/2 5/7/2/2 6/8/2/2
f 11/9/3/3 12/10/3/3 9/11/3/3 10/12/3/3
f 15/13/4/4 16/14/4/4 13/15/4/4 14/16/4/4
f 19/17/5/5 20/18/5/5 17/19/5/5 18/20/5/5
f 23/21/6/6 24/22/6/6 21/23/6/6 22/24/6/6
f 27/25/7/7 28/26/7/7 25/27/7/7 26/28/7/7
f 31/29/8/8 32/30/8/8 29/31/8/8 30/32/8/8
f 35/33/9/9 36/34/9/9 33/35/9/9 34/36/9/9
f 121/119/63/40 122/120/63/40 119/121/63/40 120/122/63/40
f 125/123/64/41 126/124/64/41 123/125/64/41 124/126/64/41
f 129/127/65/42 130/128/65/42 127/129/65/42 128/130/65/42
f 133/131/66/43 134/132/66/43 131/133/66/43 132/134/66/43
f 193/191/104/64 194/192/104/64 191/193/104/64 192/194/104/64
f 197/195/105/65 198/196/105/65 195/197/105/65 196/198/105/65
f 201/199/106/66 202/200/106/66 199/201/106/66 200/202/106/66
f 223/221/121/73 224/222/121/73 221/223/121/73 222/224/121/73
f 235/233/124/78 236/234/124/78 233/235/124/78 234/236/124/78
usemtl dcliff01_r
s off
f 39/37/10/10 37/39/10/10 38/38/10/10 40/40/10/11
f 41/43/11/12 43/41/11/13 44/42/11/13 42/44/11/12
f 45/47/12/14 47/45/12/15 48/46/12/15 46/48/12/14
f 135/137/67/44 137/135/67/45 138/136/67/45 136/138/67/44
f 227/225/122/74 225/227/122/74 226/226/122/74 228/228/122/75
f 229/231/123/76 231/229/123/77 232/230/123/77 230/232/123/76
usemtl dwall01_n
s off
f 63/59/26/19 59/60/24/20 60/61/24/20 64/62/26/19
f 59/60/24/20 61/63/23/21 62/64/23/21 60/61/24/20
f 61/63/23/21 65/65/25/19 66/66/25/19 62/64/23/21
f 71/67/27/22 67/68/29/23 68/69/29/23 72/70/27/22
f 67/68/29/23 69/71/30/24 70/72/30/24 68/69/29/23
f 69/71/30/24 73/73/28/22 74/74/28/22 70/72/30/24
f 89/85/44/28 85/86/42/29 86/87/42/29 90/88/44/28
f 85/86/42/29 87/89/41/30 88/90/41/30 86/87/42/29
f 87/89/41/30 91/91/43/28 92/92/43/28 88/90/41/30
f 97/93/45/31 93/94/47/32 94/95/47/32 98/96/45/31
f 93/94/47/32 95/97/48/33 96/98/48/33 94/95/47/32
f 95/97/48/33 99/99/46/31 100/100/46/31 96/98/48/33
f 115/111/59/37 111/112/61/38 112/113/61/38 116/114/59/37
f 111/112/61/38 113/115/62/39 114/116/62/39 112/113/61/38
f 113/115/62/39 117/117/60/37 118/118/60/37 114/116/62/39
f 143/139/68/46 139/140/70/47 140/141/70/47 144/142/68/46
f 139/140/70/47 141/143/71/48 142/144/71/48 140/141/70/47
f 141/143/71/48 145/145/69/46 146/146/69/46 142/144/71/48
f 151/147/72/49 147/148/74/50 148/149/74/50 152/150/72/49
f 147/148/74/50 149/151/75/51 150/152/75/51 148/149/74/50
f 149/151/75/51 153/153/73/49 154/154/73/49 150/152/75/51
f 159/155/76/52 155/156/78/53 156/157/78/53 160/158/76/52
f 155/156/78/53 157/159/79/54 158/160/79/54 156/157/78/53
f 157/159/79/54 161/161/77/52 162/162/77/52 158/160/79/54
f 185/183/103/61 183/184/101/62 184/185/101/62 186/186/103/61
f 183/184/101/62 189/187/100/63 190/188/100/63 184/185/101/62
f 189/187/100/63 187/189/102/61 188/190/102/61 190/188/100/63
f 215/213/120/70 213/214/118/71 214/215/118/71 216/216/120/70
f 213/214/118/71 219/217/117/72 220/218/117/72 214/215/118/71
f 219/217/117/72 217/219/119/70 218/220/119/70 220/218/117/72
usemtl dwall_ne
s off
f 49/56/14/17 50/57/17/17 52/49/22/16 51/51/18/16
f 58/58/21/17 49/56/14/17 51/51/18/16 57/54/15/16
f 75/82/32/26 76/83/35/26 78/75/40/25 77/77/36/25
f 84/84/39/26 75/82/32/26 77/77/36/25 83/80/33/25
f 101/108/50/35 102/109/53/35 104/101/58/34 103/103/54/34
f 110/110/57/35 101/108/50/35 103/103/54/34 109/106/51/34
f 163/170/81/56 164/171/88/56 167/163/82/55 166/165/85/55
f 172/172/84/56 163/170/81/56 166/165/85/55 168/168/89/55
f 173/180/91/59 174/181/98/59 177/173/92/58 176/175/95/58
f 182/182/94/59 173/180/91/59 176/175/95/58 178/178/99/58
f 203/210/108/68 204/211/115/68 207/203/109/67 206/205/112/67
f 212/212/111/68 203/210/108/68 206/205/112/67 208/208/116/67
f 52/49/22/16 54/50/13/18 51/51/18/16
f 54/50/13/18 53/52/19/18 51/51/18/16
f 51/51/18/16 53/52/19/18 56/53/16/18
f 53/52/19/18 55/55/20/17 56/53/16/18
f 57/54/15/16 51/51/18/16 56/53/16/18
f 55/55/20/17 53/52/19/18 54/50/13/18
f 78/75/40/25 80/76/31/27 77/77/36/25
f 80/76/31/27 79/78/37/27 77/77/36/25
f 77/77/36/25 79/78/37/27 82/79/34/27
f 79/78/37/27 81/81/38/26 82/79/34/27
f 83/80/33/25 77/77/36/25 82/79/34/27
f 81/81/38/26 79/78/37/27 80/76/31/27
f 104/101/58/34 106/102/49/36 103/103/54/34
f 106/102/49/36 105/104/55/36 103/103/54/34
f 103/103/54/34 105/104/55/36 108/105/52/36
f 105/104/55/36 107/107/56/35 108/105/52/36
f 109/106/51/34 103/103/54/34 108/105/52/36
f 107/107/56/35 105/104/55/36 106/102/49/36
f 167/163/82/55 165/164/83/57 166/165/85/55
f 165/164/83/57 169/166/86/57 166/165/85/55
f 166/165/85/55 169/166/86/57 170/167/80/57
f 169/166/86/57 171/169/87/56 170/167/80/57
f 168/168/89/55 166/165/85/55 170/167/80/57
f 171/169/87/56 169/166/86/57 165/164/83/57
f 177/173/92/58 175/174/93/60 176/175/95/58
f 175/174/93/60 179/176/96/60 176/175/95/58
f 176/175/95/58 179/176/96/60 180/177/90/60
f 179/176/96/60 181/179/97/59 180/177/90/60
f 178/178/99/58 176/175/95/58 180/177/90/60
f 181/179/97/59 179/176/96/60 175/174/93/60
f 207/203/109/67 205/204/110/69 206/205/112/67
f 205/204/110/69 209/206/113/69 206/205/112/67
f 206/205/112/67 209/206/113/69 210/207/107/69
f 209/206/113/69 211/209/114/68 210/207/107/69
f 208/208/116/67 206/205/112/67 210/207/107/69
f 211/209/114/68 209/206/113/69 205/204/110/69
