mtllib Victory-Road-2_02_04.mtl
o map
v -8.0 -8.0 3.0
v -16.0 -8.0 3.0
v -16.0 -16.0 2.999999
v -8.0 -16.0 2.999999
v -8.0 0.0 3.0
v -16.0 0.0 3.0
v -16.0 -8.0 2.999999
v -8.0 -8.0 2.999999
v -8.0 8.0 3.0
v -16.0 8.0 3.0
v -16.0 0.0 2.999999
v -8.0 0.0 2.999999
v -8.0 16.0 3.0
v -16.0 16.0 3.0
v -16.0 8.0 2.999999
v -8.0 8.0 2.999999
v 0.0 -8.0 3.0
v -8.0 -8.0 3.0
v -8.0 -16.0 2.999999
v 0.0 -16.0 2.999999
v 0.0 0.0 3.0
v -8.0 0.0 3.0
v -8.0 -8.0 2.999999
v 0.0 -8.0 2.999999
v 0.0 8.0 3.0
v -8.0 8.0 3.0
v -8.0 0.0 2.999999
v 0.0 0.0 2.999999
v 0.0 16.0 3.0
v -8.0 16.0 3.0
v -8.0 8.0 2.999999
v 0.0 8.0 2.999999
v 8.0 -8.0 3.0
v 0.0 -8.0 3.0
v 0.0 -16.0 2.999999
v 8.0 -16.0 2.999999
v 8.0 0.0 3.0
v 0.0 0.0 3.0
v 0.0 -8.0 2.999999
v 8.0 -8.0 2.999999
v 8.0 8.0 3.0
v 0.0 8.0 3.0
v 0.0 0.0 2.999999
v 8.0 0.0 2.999999
v 8.0 16.0 3.0
v 0.0 16.0 3.0
v 0.0 8.0 2.999999
v 8.0 8.0 2.999999
v 16.0 -8.0 3.0
v 8.0 -8.0 3.0
v 8.0 -16.0 2.999999
v 16.0 -16.0 2.999999
v 16.0 0.0 3.0
v 8.0 0.0 3.0
v 8.0 -8.0 2.999999
v 16.0 -8.0 2.999999
v 16.0 8.0 3.0
v 8.0 8.0 3.0
v 8.0 0.0 2.999999
v 16.0 0.0 2.999999
v 15.0 16.0 3.0
v 8.0 16.0 3.0
v 8.0 8.0 2.999999
v 15.0 8.0 2.999999
v 16.0 15.0 3.0
v 15.0 15.0 3.0
v 15.0 8.0 2.999999
v 16.0 8.0 2.999999
v 15.0 15.0 3.000002
v 16.0 15.0 3.000002
v 16.0 16.0 3.0000029
v 15.0 16.0 3.0000029
vt 0.0 0.0
vt 8.0 0.0
vt 8.0 8.0
vt 0.0 8.0
vt 0.0 0.0
vt 8.0 0.0
vt 8.0 8.0
vt 0.0 8.0
vt 0.0 0.0
vt 8.0 0.0
vt 8.0 8.0
vt 0.0 8.0
vt 0.0 0.0
vt 8.0 0.0
vt 8.0 8.0
vt 0.0 8.0
vt 0.0 0.0
vt 8.0 0.0
vt 8.0 8.0
vt 0.0 8.0
vt 0.0 0.0
vt 8.0 0.0
vt 8.0 8.0
vt 0.0 8.0
vt 0.0 0.0
vt 8.0 0.0
vt 8.0 8.0
vt 0.0 8.0
vt 0.0 0.0
vt 8.0 0.0
vt 8.0 8.0
vt 0.0 8.0
vt 0.0 0.0
vt 8.0 0.0
vt 8.0 8.0
vt 0.0 8.0
vt 0.0 0.0
vt 8.0 0.0
vt 8.0 8.0
vt 0.0 8.0
vt 0.0 0.0
vt 8.0 0.0
vt 8.0 8.0
vt 0.0 8.0
vt 0.0 0.0
vt 8.0 0.0
vt 8.0 8.0
vt 0.0 8.0
vt 0.0 0.0
vt 8.0 0.0
vt 8.0 8.0
vt 0.0 8.0
vt 0.0 0.0
vt 8.0 0.0
vt 8.0 8.0
vt 0.0 8.0
vt 0.0 0.0
vt 8.0 0.0
vt 8.0 8.0
vt 0.0 8.0
vt 0.0 0.0
vt 7.0 0.0
vt 7.0 8.0
vt 0.0 8.0
vt 0.0 0.0
vt 1.0 0.0
vt 1.0 7.0
vt 0.0 7.0
vt 0.0625 0.9375
vt 0.0625 0.9375
vt 0.0625 0.9375
vt 0.0625 0.9375
vn 0.0 -0.0 1.0
vn 0.0 -0.0 1.0
vn 0.0 -0.0 1.0
vn 0.0 -0.0 1.0
vn 0.0 -0.0 1.0
vn 0.0 -0.0 1.0
vn 0.0 -0.0 1.0
vn 0.0 -0.0 1.0
vn 0.0 -0.0 1.0
vn 0.0 -0.0 1.0
vn 0.0 -0.0 1.0
vn 0.0 -0.0 1.0
vn 0.0 -0.0 1.0
vn 0.0 -0.0 1.0
vn 0.0 -0.0 1.0
vn 0.0 -0.0 1.0
vn 0.0 -0.0 1.0
vn 0.0 -0.0 1.0
c 0.0 0.0 0.0
c 0.0 0.0 0.0
c 0.0 0.0 0.0
c 0.0 0.0 0.0
c 0.0 0.0 0.0
c 0.0 0.0 0.0
c 0.0 0.0 0.0
c 0.0 0.0 0.0
c 0.0 0.0 0.0
c 0.0 0.0 0.0
c 0.0 0.0 0.0
c 0.0 0.0 0.0
c 0.0 0.0 0.0
c 0.0 0.0 0.0
c 0.0 0.0 0.0
c 0.0 0.0 0.0
c 0.0 0.0 0.0
c 1.0 1.0 1.0
usemtl d7bedrock4
s off
f 3/1/1/1 4/2/1/1 1/3/1/1 2/4/1/1
f 7/5/2/2 8/6/2/2 5/7/2/2 6/8/2/2
f 11/9/3/3 12/10/3/3 9/11/3/3 10/12/3/3
f 15/13/4/4 16/14/4/4 13/15/4/4 14/16/4/4
f 19/17/5/5 20/18/5/5 17/19/5/5 18/20/5/5
f 23/21/6/6 24/22/6/6 21/23/6/6 22/24/6/6
f 27/25/7/7 28/26/7/7 25/27/7/7 26/28/7/7
f 31/29/8/8 32/30/8/8 29/31/8/8 30/32/8/8
f 35/33/9/9 36/34/9/9 33/35/9/9 34/36/9/9
f 39/37/10/10 40/38/10/10 37/39/10/10 38/40/10/10
f 43/41/11/11 44/42/11/11 41/43/11/11 42/44/11/11
f 47/45/12/12 48/46/12/12 45/47/12/12 46/48/12/12
f 51/49/13/13 52/50/13/13 49/51/13/13 50/52/13/13
f 55/53/14/14 56/54/14/14 53/55/14/14 54/56/14/14
f 59/57/15/15 60/58/15/15 57/59/15/15 58/60/15/15
f 63/61/16/16 64/62/16/16 61/63/16/16 62/64/16/16
f 67/65/17/17 68/66/17/17 65/67/17/17 66/68/17/17
usemtl d0gake_heri
s off
f 69/69/18/18 70/70/18/18 71/71/18/18 72/72/18/18
