mtllib Victory-Road-2_05_01.mtl
o map
v -16.0 -16.0 2.000002
v -8.0 -16.0 2.000002
v -16.0 -15.0 2.000002
v -8.0 -15.0 2.000002
v -16.0 -14.0 3.0000029
v -16.0 -15.0 3.000002
v -8.0 -14.0 3.0000029
v -8.0 -15.0 3.000002
v -8.0 -16.0 2.000002
v 0.0 -16.0 2.000002
v -8.0 -15.0 2.000002
v 0.0 -15.0 2.000002
v -8.0 -14.0 3.0000029
v -8.0 -15.0 3.000002
v 0.0 -14.0 3.0000029
v 0.0 -15.0 3.000002
v 0.0 -16.0 2.000002
v 8.0 -16.0 2.000002
v 0.0 -15.0 2.000002
v 8.0 -15.0 2.000002
v 0.0 -14.0 3.0000029
v 0.0 -15.0 3.000002
v 8.0 -14.0 3.0000029
v 8.0 -15.0 3.000002
v 8.0 -16.0 2.000002
v 16.0 -16.0 2.000002
v 8.0 -15.0 2.000002
v 16.0 -15.0 2.000002
v 8.0 -14.0 3.0000029
v 8.0 -15.0 3.000002
v 16.0 -14.0 3.0000029
v 16.0 -15.0 3.000002
v -16.0 -15.0 3.000002
v -16.0 -15.375 2.875002
v -16.0 -15.375 2.875002
v -16.0 -15.625 2.250002
v -16.0 -15.625 2.250002
v -16.0 -16.0 2.000002
v -8.0 -16.0 2.000002
v -8.0 -15.625 2.250002
v -8.0 -15.375 2.875002
v -8.0 -15.0 3.000002
v -8.0 -15.375 2.875002
v -8.0 -15.625 2.250002
v -8.0 -15.0 3.000002
v -8.0 -15.375 2.875002
v -8.0 -15.375 2.875002
v -8.0 -15.625 2.250002
v -8.0 -15.625 2.250002
v -8.0 -16.0 2.000002
v 0.0 -16.0 2.000002
v 0.0 -15.625 2.250002
v 0.0 -15.375 2.875002
v 0.0 -15.0 3.000002
v 0.0 -15.375 2.875002
v 0.0 -15.625 2.250002
v 0.0 -15.0 3.000002
v 0.0 -15.375 2.875002
v 0.0 -15.375 2.875002
v 0.0 -15.625 2.250002
v 0.0 -15.625 2.250002
v 0.0 -16.0 2.000002
v 8.0 -16.0 2.000002
v 8.0 -15.625 2.250002
v 8.0 -15.375 2.875002
v 8.0 -15.0 3.000002
v 8.0 -15.375 2.875002
v 8.0 -15.625 2.250002
v 8.0 -15.0 3.000002
v 8.0 -15.375 2.875002
v 8.0 -15.375 2.875002
v 8.0 -15.625 2.250002
v 8.0 -15.625 2.250002
v 8.0 -16.0 2.000002
v 16.0 -16.0 2.000002
v 16.0 -15.625 2.250002
v 16.0 -15.375 2.875002
v 16.0 -15.0 3.000002
v 16.0 -15.375 2.875002
v 16.0 -15.625 2.250002
vt -8.0 14.0
vt -16.0 14.0
vt -16.0 13.0
vt -8.0 13.0
vt -8.0 -1.0
vt 0.0 -1.0
vt 0.0 0.0
vt -8.0 0.0
vt -8.0 14.0
vt -16.0 14.0
vt -16.0 13.0
vt -8.0 13.0
vt -8.0 -1.0
vt 0.0 -1.0
vt 0.0 0.0
vt -8.0 0.0
vt -8.0 14.0
vt -16.0 14.0
vt -16.0 13.0
vt -8.0 13.0
vt -8.0 -1.0
vt 0.0 -1.0
vt 0.0 0.0
vt -8.0 0.0
vt -8.0 14.0
vt -16.0 14.0
vt -16.0 13.0
vt -8.0 13.0
vt -8.0 -1.0
vt 0.0 -1.0
vt 0.0 0.0
vt -8.0 0.0
vt -20.0 -1.0
vt -16.0 -1.0
vt -16.0 0.0
vt -20.0 0.0
vt -20.0 -0.5625
vt -16.0 -0.5625
vt -16.0 0.0
vt -20.0 0.0
vt -20.0 -1.0
vt -16.0 -1.0
vt -16.0 -0.5625
vt -20.0 -0.5625
vt -20.0 -1.0
vt -16.0 -1.0
vt -16.0 0.0
vt -20.0 0.0
vt -20.0 -0.5625
vt -16.0 -0.5625
vt -16.0 0.0
vt -20.0 0.0
vt -20.0 -1.0
vt -16.0 -1.0
vt -16.0 -0.5625
vt -20.0 -0.5625
vt -20.0 -1.0
vt -16.0 -1.0
vt -16.0 0.0
vt -20.0 0.0
vt -20.0 -0.5625
vt -16.0 -0.5625
vt -16.0 0.0
vt -20.0 0.0
vt -20.0 -1.0
vt -16.0 -1.0
vt -16.0 -0.5625
vt -20.0 -0.5625
vt -20.0 -1.0
vt -16.0 -1.0
vt -16.0 0.0
vt -20.0 0.0
vt -20.0 -0.5625
vt -16.0 -0.5625
vt -16.0 0.0
vt -20.0 0.0
vt -20.0 -1.0
vt -16.0 -1.0
vt -16.0 -0.5625
vt -20.0 -0.5625
vn 0.0 -0.0 1.0
vn 0.0 -0.0 1.0
vn 0.0 -0.0 1.0
vn 0.0 -0.0 1.0
vn 0.0 -0.0 1.0
vn 0.0 -0.0 1.0
vn 0.0 -0.0 1.0
vn 0.0 -0.0 1.0
vn 0.0 -0.3162 0.9487
vn 0.0 -0.9285 0.3714
vn 0.0 -0.5547 0.8321
vn 0.0 -0.3162 0.9487
vn 0.0 -0.9285 0.3714
vn 0.0 -0.5547 0.8321
vn 0.0 -0.3162 0.9487
vn 0.0 -0.9285 0.3714
vn 0.0 -0.5547 0.8321
vn 0.0 -0.3162 0.9487
vn 0.0 -0.9285 0.3714
vn 0.0 -0.5547 0.8321
c 1.0 1.0 1.0
c 1.0 1.0 1.0
c 1.0 1.0 1.0
c 1.0 1.0 1.0
c 1.0 1.0 1.0
c 1.0 1.0 1.0
c 1.0 1.0 1.0
c 1.0 1.0 1.0
c 1.0 1.0 1.0
c 1.0 1.0 1.0
c 1.0 1.0 1.0
c 1.0 1.0 1.0
usemtl d0yuka_002
s off
f 4/1/1/1 3/2/1/1 1/3/1/1 2/4/1/1
f 12/9/3/3 11/10/3/3 9/11/3/3 10/12/3/3
f 20/17/5/5 19/18/5/5 17/19/5/5 18/20/5/5
f 28/25/7/7 27/26/7/7 25/27/7/7 26/28/7/7
usemtl d0gake_001b
s off
f 36/37/10/9 44/38/10/9 43/39/10/9 35/40/10/9
f 48/49/13/10 56/50/13/10 55/51/13/10 47/52/13/10
f 60/61/16/11 68/62/16/11 67/63/16/11 59/64/16/11
f 72/73/19/12 80/74/19/12 79/75/19/12 71/76/19/12
usemtl d0gake_001
s off
f 38/41/11/9 39/42/11/9 40/43/11/9 37/44/11/9
f 50/53/14/10 51/54/14/10 52/55/14/10 49/56/14/10
f 62/65/17/11 63/66/17/11 64/67/17/11 61/68/17/11
f 74/77/20/12 75/78/20/12 76/79/20/12 73/80/20/12
usemtl d0gake_002b
s off
f 34/33/9/9 41/34/9/9 42/35/9/9 33/36/9/9
f 46/45/12/10 53/46/12/10 54/47/12/10 45/48/12/10
f 58/57/15/11 65/58/15/11 66/59/15/11 57/60/15/11
f 70/69/18/12 77/70/18/12 78/71/18/12 69/72/18/12
usemtl d0gake_heri
s off
f 6/5/2/2 8/6/2/2 7/7/2/2 5/8/2/2
f 14/13/4/4 16/14/4/4 15/15/4/4 13/16/4/4
f 22/21/6/6 24/22/6/6 23/23/6/6 21/24/6/6
f 30/29/8/8 32/30/8/8 31/31/8/8 29/32/8/8
