mtllib DOOR4-1.mtl
o map
v 0.875 1.875 -0.12500337
v 2.125 0.375 1.8124971
v 0.6875 0.375 1.9999971
v 0.6875 0.25 1.9999971
v 2.125 0.25 1.8124971
v 0.6875 0.375 -0.125003
v 0.6875 0.25 -0.125003
v 2.125 1.875 -0.12500337
v 2.3125 0.375 1.9999971
v 2.3125 0.25 1.9999971
v 0.875 1.875 1.8124968
v 2.3125 0.25 -0.125003
v 2.3125 0.375 -0.125003
v 0.875 0.375 1.8124971
v 0.875 0.25 1.8124971
v 2.125 0.375 -0.125003
v 2.125 0.25 -0.125003
v 2.125 1.875 1.8124968
v 0.875 0.375 -0.125003
v 0.875 0.25 -0.125003
vt 0.46875 2.34375
vt 0.449219 2.292969
vt 0.621094 2.341797
vt 0.621094 2.339844
vt 0.484375 3.0
vt 0.453125 3.0
vt 0.667969 3.0
vt 0.640625 2.292969
vt 0.640625 3.0
vn 1.0 0.0 -0.0
vn -1.0 0.0 -0.0
vn -0.0 0.0 1.0
vn -0.0 0.0 -1.0
vn -0.0 -1.0 -0.0
vn 0.7071 -0.7071 -0.0
vn -0.7071 -0.7071 -0.0
vn 0.7071 0.0 0.7071
vn -0.7071 0.0 0.7071
vn -0.0 -0.8321 -0.5547
c 1.0 1.0 1.0
c 0.019607844 0.019607844 0.019607844
usemtl m_dun26_23
s off
f 14/1/1/1 19/5/1/1 1/5/6/2 11/1/6/2
f 11/1/6/2 1/5/6/2 8/9/7/2 18/3/7/2
f 18/3/7/2 8/9/7/2 16/9/2/1 2/3/2/1
f 2/3/3/1 18/3/3/2 11/1/3/2 14/1/3/1
usemtl m_dun26_24
s off
f 12/7/1/1 13/7/1/1 9/8/8/1 10/8/8/1
f 10/8/8/1 9/8/8/1 3/2/9/1 4/2/9/1
f 4/2/9/1 3/2/9/1 6/6/2/1 7/6/2/1
f 14/1/4/1 2/4/4/1 5/4/10/1 15/1/10/1
f 15/1/10/1 5/4/10/1 10/8/5/1 4/2/5/1
f 5/4/2/1 2/4/2/1 16/9/2/1 17/9/2/1
f 20/5/1/1 19/5/1/1 14/1/1/1 15/1/1/1
f 17/9/5/1 12/7/5/1 10/8/5/1 5/4/5/1
f 7/6/5/1 20/5/5/1 15/1/5/1 4/2/5/1
