mtllib Asteria_05_35.mtl
o map
v 0.671875 14.0 -15.125
v -3.0 14.0 -15.125
v 0.65234375 11.458984 -15.125
v -3.0 14.0 -15.125
v -6.6816406 14.0 -15.125
v 0.65234375 11.458984 -15.125
v -14.0 11.458984 -15.125
v 0.65234375 11.458984 -15.125
v -6.6816406 14.0 -15.125
v -14.130859 14.0 -15.125
v 2.4492188 21.705078 -7.294922
v -6.7402344 17.421875 -11.578125
v 2.8691406 19.453125 -9.546875
v -6.6816406 14.0 -15.125
v -6.716797 15.904297 -13.095703
v -8.751953 15.888672 -13.111328
v 1.8027344 17.410156 -11.589844
v -6.7402344 17.421875 -11.578125
v -6.716797 15.904297 -13.095703
v -14.130859 14.0 -15.125
v -12.046875 15.931641 -13.068359
v -14.126953 17.43164 -11.568359
v -3.0 14.0 -15.125
v 0.671875 14.0 -15.125
v 1.8027344 17.410156 -11.589844
v -14.125 21.767578 -7.2304688
v -9.375 21.785156 -7.2148438
v -11.578125 24.0 -5.0
v -14.125 24.0 -5.0
v -6.7402344 17.421875 -11.578125
v -14.126953 17.43164 -11.568359
v -12.046875 15.931641 -13.068359
v -8.751953 15.888672 -13.111328
v 2.6289062 19.0 -10.0
v 8.109375 19.453125 -9.546875
v 2.8691406 19.453125 -9.546875
v 2.4492188 21.705078 -7.294922
v 3.9941406 23.648438 -5.3515625
v -0.74609375 24.0 -5.0
v 3.9941406 23.648438 -5.3515625
v 3.0292969 24.0 -5.0
v -0.74609375 24.0 -5.0
v 6.9492188 23.642578 -5.3554688
v 3.9941406 23.648438 -5.3515625
v 2.4492188 21.705078 -7.294922
v 7.6875 21.705078 -7.294922
v 7.6875 21.705078 -7.294922
v 2.4492188 21.705078 -7.294922
v 2.8691406 19.453125 -9.546875
v 8.109375 19.453125 -9.546875
v 0.671875 14.0 -15.125
v 4.4335938 14.0 -15.125
v 5.578125 17.410156 -11.589844
v 1.8027344 17.410156 -11.589844
v 1.8027344 17.410156 -11.589844
v 5.578125 17.410156 -11.589844
v 8.109375 19.453125 -9.546875
v 2.6289062 19.0 -10.0
v 1.09375 -5.2871094 -15.125
v -14.0 -5.2871094 -15.125
v -1.9023438 -8.068359 -15.125
v -16.0 -9.644531 -15.125
v -9.1875 -9.582031 -15.125
v -14.0 -5.2871094 -15.125
v -9.1875 -9.582031 -15.125
v -4.7734375 -9.169922 -15.125
v -14.0 -5.2871094 -15.125
v -14.0 -5.2871094 -15.125
v -4.7734375 -9.169922 -15.125
v -1.9023438 -8.068359 -15.125
v 0.65234375 11.458984 -15.125
v -14.0 11.458984 -15.125
v -14.0 9.482422 -15.125
v 1.0722656 9.482422 -15.125
v 1.0722656 9.482422 -15.125
v -14.0 9.482422 -15.125
v -14.0 6.2109375 -15.125
v 2.4804688 6.2109375 -15.125
v 2.4804688 6.2109375 -15.125
v -14.0 6.2109375 -15.125
v -13.5 2.5644531 -15.125
v 3.1289062 2.8144531 -15.125
v 3.1289062 2.8144531 -15.125
v -13.5 2.5644531 -15.125
v -13.5 -0.9199219 -15.125
v 2.6972656 -0.9199219 -15.125
v 2.6972656 -0.9199219 -15.125
v -13.5 -0.9199219 -15.125
v -14.0 -5.2871094 -15.125
v 1.09375 -5.2871094 -15.125
v -0.9453125 -10.064453 -15.125
v 0.7363281 -9.191406 -15.125
v -1.9023438 -8.068359 -15.125
v 32.0 -13.000001 -19.125
v 32.0 24.0 -19.125
v -20.0 24.0 -19.125
v -20.0 -13.000001 -19.125
v -1.9023438 -8.068359 -15.125
v 0.7363281 -9.191406 -15.125
v 3.4472656 -5.8085938 -15.125
v 1.09375 -5.2871094 -15.125
v 1.09375 -5.2871094 -15.125
v 3.4472656 -5.8085938 -15.125
v 5.0039062 -0.9199219 -15.125
v 2.6972656 -0.9199219 -15.125
v 2.6972656 -0.9199219 -15.125
v 5.0039062 -0.9199219 -15.125
v 5.533203 3.6035156 -15.125
v 3.1289062 2.8144531 -15.125
v 3.1289062 2.8144531 -15.125
v 5.533203 3.6035156 -15.125
v 4.5546875 7.017578 -15.125
v 2.4804688 6.2109375 -15.125
v 2.4804688 6.2109375 -15.125
v 4.5546875 7.017578 -15.125
v 3.4394531 10.3671875 -15.125
v 1.0722656 9.482422 -15.125
v 1.0722656 9.482422 -15.125
v 3.4394531 10.3671875 -15.125
v 3.0839844 11.458984 -15.125
v 0.65234375 11.458984 -15.125
v -16.0 -9.644531 -15.125
v -16.0 -11.640626 -15.125
v -9.1875 -11.701173 -15.125
v -9.1875 -9.582031 -15.125
v -9.1875 -9.582031 -15.125
v -9.1875 -11.701173 -15.125
v -4.4589844 -11.212891 -15.125
v -4.7734375 -9.169922 -15.125
v -4.7734375 -9.169922 -15.125
v -4.4589844 -11.212891 -15.125
v -0.9453125 -10.064453 -15.125
v -1.9023438 -8.068359 -15.125
v -6.7402344 17.421875 -11.578125
v -6.8125 21.794922 -7.205078
v -9.375 21.785156 -7.2148438
v -6.7402344 17.421875 -11.578125
v 1.8027344 17.410156 -11.589844
v 2.6289062 19.0 -10.0
v 2.8691406 19.453125 -9.546875
v -6.7402344 17.421875 -11.578125
v 2.6289062 19.0 -10.0
v -6.716797 15.904297 -13.095703
v -6.7402344 17.421875 -11.578125
v -8.751953 15.888672 -13.111328
v -6.8476562 24.0 -5.0
v -6.8125 21.794922 -7.205078
v -1.1933594 24.0 -5.0
v -6.8125 21.794922 -7.205078
v -0.74609375 24.0 -5.0
v -1.1933594 24.0 -5.0
v -6.7402344 17.421875 -11.578125
v 2.4492188 21.705078 -7.294922
v -6.8125 21.794922 -7.205078
v 2.4492188 21.705078 -7.294922
v -0.74609375 24.0 -5.0
v -6.8125 21.794922 -7.205078
v -14.126953 17.43164 -11.568359
v -6.7402344 17.421875 -11.578125
v -9.375 21.785156 -7.2148438
v -14.125 21.767578 -7.2304688
v -6.6816406 14.0 -15.125
v -3.0 14.0 -15.125
v 1.8027344 17.410156 -11.589844
v -6.716797 15.904297 -13.095703
v -14.130859 14.0 -15.125
v -6.6816406 14.0 -15.125
v -8.751953 15.888672 -13.111328
v -12.046875 15.931641 -13.068359
v -9.375 21.785156 -7.2148438
v -6.8125 21.794922 -7.205078
v -6.8476562 24.0 -5.0
v -11.578125 24.0 -5.0
v 5.8085938 11.25 -15.125
v 3.0839844 11.458984 -15.125
v 3.4394531 10.3671875 -15.125
v 0.65234375 11.458984 -15.125
v 3.0839844 11.458984 -15.125
v 2.5058594 14.0 -15.125
v 0.671875 14.0 -15.125
v 2.5058594 14.0 -15.125
v 3.0839844 11.458984 -15.125
v 5.8085938 11.25 -15.125
v 4.4335938 14.0 -15.125
v 5.8085938 11.25 -15.125
v 3.4394531 10.3671875 -15.125
v 4.5546875 7.017578 -15.125
v 6.263672 7.6835938 -15.125
v 6.263672 7.6835938 -15.125
v 4.5546875 7.017578 -15.125
v 5.533203 3.6035156 -15.125
v 7.9375 4.3945312 -15.125
v 7.9375 4.3945312 -15.125
v 5.533203 3.6035156 -15.125
v 5.0039062 -0.9199219 -15.125
v 7.310547 -0.9199219 -15.125
v 7.310547 -0.9199219 -15.125
v 5.0039062 -0.9199219 -15.125
v 3.4472656 -5.8085938 -15.125
v 5.8027344 -6.3320312 -15.125
v 5.8027344 -6.3320312 -15.125
v 3.4472656 -5.8085938 -15.125
v 0.7363281 -9.191406 -15.125
v 2.8847656 -10.107422 -15.125
v 2.8847656 -10.107422 -15.125
v 0.7363281 -9.191406 -15.125
v -0.9453125 -10.064453 -15.125
v 0.17578125 -12.406251 -15.125
v 0.17578125 -12.406251 -15.125
v -0.9453125 -10.064453 -15.125
v -4.4589844 -11.212891 -15.125
v -4.142578 -13.25586 -15.125
v -4.142578 -13.25586 -15.125
v -4.4589844 -11.212891 -15.125
v -9.1875 -11.701173 -15.125
v -9.1875 -13.81836 -15.125
v -9.1875 -13.81836 -15.125
v -9.1875 -11.701173 -15.125
v -16.0 -11.640626 -15.125
v -16.0 -13.63672 -15.125
v 16.46875 23.822266 2.671875
v 12.394531 28.316406 3.8457031
v 8.339844 24.794922 2.3808594
v 7.9746094 12.634766 -1.453125
v 16.783203 16.345703 0.40429688
v 12.341797 19.144531 0.1640625
v 16.783203 16.345703 0.40429688
v 16.46875 23.822266 2.671875
v 12.341797 19.144531 0.1640625
v 12.341797 19.144531 0.1640625
v 16.46875 23.822266 2.671875
v 8.339844 24.794922 2.3808594
v 5.361328 28.029297 4.7265625
v 8.339844 24.794922 2.3808594
v 7.716797 28.125 4.4316406
v 8.339844 24.794922 2.3808594
v 12.394531 28.316406 3.8457031
v 7.716797 28.125 4.4316406
v 7.982422 13.009766 -2.9472656
v 13.708984 9.755859 -0.63671875
v 16.783203 16.345703 -0.22070312
v 12.349609 19.519531 -1.3320312
v 7.9746094 12.634766 -1.453125
v 8.175781 9.308594 -1.5273438
v 13.708984 9.755859 -0.01171875
v 16.783203 16.345703 0.40429688
v 9.974609 -7.7851562 -5.6757812
v 7.060547 -14.279298 -6.1816406
v 11.111328 -16.140625 -5.486328
v 13.962891 -9.076172 -4.46875
v 7.060547 -14.279298 -6.1816406
v 3.0175781 -19.623047 -6.4121094
v 6.2402344 -23.69336 -6.3691406
v 11.111328 -16.140625 -5.486328
v 10.673828 -0.9199219 -3.6601562
v 9.974609 -7.7851562 -5.6757812
v 13.962891 -9.076172 -4.46875
v 13.234375 -2.4199219 -2.4179688
v 9.302734 4.3945312 -1.6367188
v 10.673828 -0.9199219 -3.6601562
v 13.234375 -2.4199219 -2.4179688
v 14.947266 2.0078125 -0.34570312
v 8.175781 9.308594 -1.5273438
v 9.302734 4.3945312 -1.6367188
v 14.947266 2.0078125 -0.34570312
v 13.708984 9.755859 -0.01171875
v -16.0 -29.28125 -6.4472656
v -16.0 -33.91211 -6.4472656
v -9.310547 -33.82422 -6.4140625
v -9.310547 -28.625 -6.4121094
v -9.310547 -28.625 -6.4121094
v -9.310547 -33.82422 -6.4140625
v -2.5117188 -33.248047 -6.4023438
v -3.4609375 -27.855469 -6.3984375
v -3.4609375 -27.855469 -6.3984375
v -2.5117188 -33.248047 -6.4023438
v 9.990234 -29.310547 -6.3691406
v 6.2402344 -23.69336 -6.3691406
v 6.2402344 -23.69336 -6.3691406
v 9.990234 -29.310547 -6.3691406
v 12.128906 -26.621094 -5.986328
v 11.111328 -16.140625 -5.486328
v -16.0 -23.480469 -6.236328
v -16.0 -29.28125 -6.4472656
v -9.310547 -28.625 -6.4121094
v -9.1875 -22.966797 -6.3183594
v -9.1875 -22.966797 -6.3183594
v -9.310547 -28.625 -6.4121094
v -3.4609375 -27.855469 -6.3984375
v -4.142578 -22.554688 -6.3496094
v -4.142578 -22.554688 -6.3496094
v -3.4609375 -27.855469 -6.3984375
v 6.2402344 -23.69336 -6.3691406
v 3.0175781 -19.623047 -6.4121094
v 8.109375 19.453125 -9.546875
v 6.4140625 16.480469 -9.175781
v 8.830078 19.25586 -6.6777344
v 6.4140625 16.480469 -9.175781
v 8.353516 15.275391 -3.3730469
v 8.830078 19.25586 -6.6777344
v 8.830078 19.25586 -6.6777344
v 8.353516 15.275391 -3.3730469
v 10.1640625 19.25586 -3.4277344
v 8.353516 15.275391 -3.3730469
v 12.341797 19.144531 0.1640625
v 10.1640625 19.25586 -3.4277344
v 10.1640625 19.25586 -3.4277344
v 12.341797 19.144531 0.1640625
v 8.380859 21.748047 -0.099609375
v 12.341797 19.144531 0.1640625
v 8.339844 24.794922 2.3808594
v 8.380859 21.748047 -0.099609375
v 8.109375 19.453125 -9.546875
v 5.578125 17.410156 -11.589844
v 6.4140625 16.480469 -9.175781
v 5.578125 17.410156 -11.589844
v 4.4335938 14.0 -15.125
v 6.4140625 16.480469 -9.175781
v 6.4140625 16.480469 -9.175781
v 4.4335938 14.0 -15.125
v 6.189453 11.949219 -11.347656
v 4.4335938 14.0 -15.125
v 5.8085938 11.25 -15.125
v 6.189453 11.949219 -11.347656
v 6.4140625 16.480469 -9.175781
v 6.189453 11.949219 -11.347656
v 8.353516 15.275391 -3.3730469
v 6.189453 11.949219 -11.347656
v 7.9746094 12.634766 -1.453125
v 8.353516 15.275391 -3.3730469
v 8.353516 15.275391 -3.3730469
v 7.9746094 12.634766 -1.453125
v 12.341797 19.144531 0.1640625
v 7.9746094 12.634766 -1.453125
v 6.189453 11.949219 -11.347656
v 8.175781 9.308594 -1.5273438
v 6.189453 11.949219 -11.347656
v 7.6152344 8.005859 -11.347656
v 8.175781 9.308594 -1.5273438
v 5.8085938 11.25 -15.125
v 6.263672 7.6835938 -15.125
v 7.6152344 8.005859 -11.347656
v 6.189453 11.949219 -11.347656
v 8.175781 9.308594 -1.5273438
v 7.6152344 8.005859 -11.347656
v 9.1953125 4.3945312 -11.050781
v 9.302734 4.3945312 -1.6367188
v 9.302734 4.3945312 -1.6367188
v 9.1953125 4.3945312 -11.050781
v 8.519531 -0.9199219 -10.953125
v 10.673828 -0.9199219 -3.6601562
v 10.673828 -0.9199219 -3.6601562
v 8.519531 -0.9199219 -10.953125
v 7.8496094 -7.0585938 -10.886719
v 9.974609 -7.7851562 -5.6757812
v 9.974609 -7.7851562 -5.6757812
v 7.8496094 -7.0585938 -10.886719
v 5.0429688 -12.41211 -10.861328
v 7.060547 -14.279298 -6.1816406
v 7.060547 -14.279298 -6.1816406
v 5.0429688 -12.41211 -10.861328
v 1.6542969 -15.748048 -10.78125
v 3.0175781 -19.623047 -6.4121094
v 3.0175781 -19.623047 -6.4121094
v 1.6542969 -15.748048 -10.78125
v -4.142578 -18.138672 -10.6640625
v -4.142578 -22.554688 -6.3496094
v -4.142578 -22.554688 -6.3496094
v -4.142578 -18.138672 -10.6640625
v -9.1875 -18.46289 -10.599609
v -9.1875 -22.966797 -6.3183594
v -9.1875 -22.966797 -6.3183594
v -9.1875 -18.46289 -10.599609
v -16.0 -18.408203 -10.441406
v -16.0 -23.480469 -6.236328
v 7.6152344 8.005859 -11.347656
v 6.263672 7.6835938 -15.125
v 7.9375 4.3945312 -15.125
v 9.1953125 4.3945312 -11.050781
v 9.1953125 4.3945312 -11.050781
v 7.9375 4.3945312 -15.125
v 7.310547 -0.9199219 -15.125
v 8.519531 -0.9199219 -10.953125
v 8.519531 -0.9199219 -10.953125
v 7.310547 -0.9199219 -15.125
v 5.8027344 -6.3320312 -15.125
v 7.8496094 -7.0585938 -10.886719
v 7.8496094 -7.0585938 -10.886719
v 5.8027344 -6.3320312 -15.125
v 2.8847656 -10.107422 -15.125
v 5.0429688 -12.41211 -10.861328
v 5.0429688 -12.41211 -10.861328
v 2.8847656 -10.107422 -15.125
v 0.17578125 -12.406251 -15.125
v 1.6542969 -15.748048 -10.78125
v 1.6542969 -15.748048 -10.78125
v 0.17578125 -12.406251 -15.125
v -4.142578 -13.25586 -15.125
v -4.142578 -18.138672 -10.6640625
v -4.142578 -18.138672 -10.6640625
v -4.142578 -13.25586 -15.125
v -9.1875 -13.81836 -15.125
v -9.1875 -18.46289 -10.599609
v -9.1875 -18.46289 -10.599609
v -9.1875 -13.81836 -15.125
v -16.0 -13.63672 -15.125
v -16.0 -18.408203 -10.441406
v 8.830078 19.25586 -6.6777344
v 10.1640625 19.25586 -3.4277344
v 8.380859 21.748047 -0.099609375
v 7.923828 21.88086 -4.4726562
v 7.923828 21.88086 -4.4726562
v 8.380859 21.748047 -0.099609375
v 8.339844 24.794922 2.3808594
v 6.7460938 23.691406 -2.0253906
v 8.109375 19.453125 -9.546875
v 8.830078 19.25586 -6.6777344
v 7.923828 21.88086 -4.4726562
v 7.6875 21.705078 -7.294922
v 7.6875 21.705078 -7.294922
v 7.923828 21.88086 -4.4726562
v 6.7460938 23.691406 -2.0253906
v 6.9492188 23.642578 -5.3554688
vt -2.9667969 4.6972656
vt -2.9667969 5.267578
vt -2.2617188 4.6972656
vt -2.9667969 5.267578
vt -2.9667969 5.9316406
vt -2.2617188 4.6972656
vt -2.2617188 7.234375
vt -2.2617188 4.6972656
vt -2.9667969 5.9316406
vt -2.9667969 7.2597656
vt 2.1572266 -6.6445312
vt 2.1572266 -8.582031
vt 2.1572266 -7.6621094
vt 1.3173828 -10.128906
vt 1.3291016 -9.267578
vt 2.116211 -9.275391
vt -1.7998047 -8.587891
vt 1.3378906 -8.582031
vt 1.3291016 -9.267578
vt 4.1972656 -10.128906
vt 3.3916016 -9.255859
vt 4.196289 -8.576172
vt -0.109375 -10.128906
vt -1.3623047 -10.128906
vt -1.7998047 -8.587891
vt 4.1953125 -6.6152344
vt 2.3583984 -6.607422
vt 3.209961 -5.6054688
vt 4.1953125 -5.6054688
vt 1.3378906 -8.582031
vt 4.196289 -8.576172
vt 3.3916016 -9.255859
vt 2.116211 -9.275391
vt -1.703125 -7.8671875
vt -1.984375 -7.6621094
vt -1.71875 -7.6621094
vt -1.6953125 -6.6445312
vt -1.7890625 -5.765625
vt -1.546875 -5.6054688
vt -1.7890625 -5.765625
vt -1.75 -5.6054688
vt -1.546875 -5.6054688
vt -1.9296875 -5.767578
vt -1.7890625 -5.765625
vt -1.6953125 -6.6445312
vt -1.96875 -6.6445312
vt -1.96875 -6.6445312
vt -1.6953125 -6.6445312
vt -1.71875 -7.6621094
vt -1.984375 -7.6621094
vt -1.6171875 -10.128906
vt -1.8125 -10.128906
vt -1.8671875 -8.587891
vt -1.6640625 -8.587891
vt -1.6640625 -8.587891
vt -1.8671875 -8.587891
vt -1.9921875 -7.6621094
vt -1.703125 -7.8671875
vt -0.7324219 -0.7207031
vt 2.6933594 -0.7207031
vt -0.052734375 -1.3515625
vt 3.1464844 -1.7089844
vt 1.5996094 -1.6953125
vt 2.6933594 -0.7207031
vt 1.5996094 -1.6953125
vt 0.5996094 -1.6015625
vt 2.6933594 -0.7207031
vt 2.6933594 -0.7207031
vt 0.5996094 -1.6015625
vt -0.052734375 -1.3515625
vt -0.6328125 3.1464844
vt 2.6933594 3.171875
vt 2.6933594 2.6777344
vt -0.7285156 2.6308594
vt -0.7285156 2.6308594
vt 2.6933594 2.6777344
vt 2.6933594 1.9003906
vt -1.046875 1.8886719
vt -1.046875 1.8886719
vt 2.6933594 1.9003906
vt 2.5800781 1.0605469
vt -1.1953125 1.1191406
vt -1.1953125 1.1191406
vt 2.5800781 1.0605469
vt 2.5800781 0.26953125
vt -1.0976562 0.27148438
vt -1.0976562 0.27148438
vt 2.5800781 0.26953125
vt 2.6933594 -0.7207031
vt -0.7324219 -0.7207031
vt -0.26953125 -1.8046875
vt -0.65234375 -1.6074219
vt -0.052734375 -1.3515625
vt 0.0 0.0
vt 0.0 1.0
vt 1.0 1.0
vt 1.0 0.0
vt -0.052734375 -1.3515625
vt -0.65234375 -1.6074219
vt -1.2675781 -0.83984375
vt -0.7324219 -0.7207031
vt -0.7324219 -0.7207031
vt -1.2675781 -0.83984375
vt -1.6210938 0.27148438
vt -1.0976562 0.27148438
vt -1.0976562 0.27148438
vt -1.6210938 0.27148438
vt -1.7402344 1.296875
vt -1.1953125 1.1191406
vt -1.1953125 1.1191406
vt -1.7402344 1.296875
vt -1.5175781 2.0722656
vt -1.046875 1.8886719
vt -1.046875 1.8886719
vt -1.5175781 2.0722656
vt -1.265625 2.8320312
vt -0.7285156 2.6308594
vt -0.7285156 2.6308594
vt -1.265625 2.8320312
vt -1.1855469 3.1464844
vt -0.6328125 3.1464844
vt 3.1464844 -1.7089844
vt 3.1464844 -2.1621094
vt 1.5996094 -2.1757812
vt 1.5996094 -1.6953125
vt 1.5996094 -1.6953125
vt 1.5996094 -2.1757812
vt 0.52734375 -2.0644531
vt 0.5996094 -1.6015625
vt 0.5996094 -1.6015625
vt 0.52734375 -2.0644531
vt -0.26953125 -1.8046875
vt -0.052734375 -1.3515625
vt 2.1523438 -8.582031
vt 2.1523438 -6.6035156
vt 2.1523438 -6.607422
vt 0.0859375 -8.582031
vt 0.03515625 -8.587891
vt 0.02734375 -7.8671875
vt 2.15625 -7.6621094
vt 2.15625 -8.582031
vt 2.15625 -7.8671875
vt 0.0859375 -9.267578
vt 0.0859375 -8.582031
vt 0.09765625 -9.275391
vt 0.0859375 -5.6054688
vt 0.0859375 -6.6035156
vt 0.05078125 -5.6054688
vt 0.0859375 -6.6035156
vt 0.05078125 -5.6054688
vt 0.05078125 -5.6054688
vt 0.0859375 -8.582031
vt 0.03125 -6.6445312
vt 0.0859375 -6.6035156
vt 0.03125 -6.6445312
vt 0.05078125 -5.6054688
vt 0.0859375 -6.6035156
vt 2.1523438 -8.576172
vt 2.1523438 -8.582031
vt 2.1523438 -6.607422
vt 2.1523438 -6.6152344
vt 0.0859375 -10.128906
vt 0.0625 -10.128906
vt 0.03515625 -8.587891
vt 0.0859375 -9.267578
vt 0.1328125 -10.128906
vt 0.0859375 -10.128906
vt 0.09765625 -9.275391
vt 0.1171875 -9.255859
vt 2.1523438 -6.607422
vt 2.1523438 -6.6035156
vt 2.1523438 -5.6054688
vt 2.1523438 -5.6054688
vt -2.9667969 3.0898438
vt -2.3515625 3.1464844
vt -2.3515625 2.8320312
vt -2.2617188 4.6972656
vt -2.2617188 4.1875
vt -2.9667969 4.1875
vt -2.9667969 4.6972656
vt -2.9667969 4.1035156
vt -2.2617188 3.7421875
vt -2.9667969 3.1464844
vt -2.9667969 3.6679688
vt -2.9667969 3.0332031
vt -2.3515625 2.8320312
vt -2.3515625 2.0722656
vt -2.9667969 2.2226562
vt -2.9667969 2.2226562
vt -2.3515625 2.0722656
vt -2.3515625 1.296875
vt -2.9667969 1.4765625
vt -2.9667969 1.4765625
vt -2.3515625 1.296875
vt -2.3515625 0.27148438
vt -2.9667969 0.27148438
vt -2.9667969 0.27148438
vt -2.3515625 0.27148438
vt -2.3515625 -0.83984375
vt -2.9667969 -0.95703125
vt -2.9667969 -0.95703125
vt -2.3515625 -0.83984375
vt -2.3515625 -1.6074219
vt -2.9667969 -1.59375
vt -2.9667969 -1.59375
vt -2.3515625 -1.6074219
vt -2.3515625 -2.1679688
vt -2.9667969 -2.1679688
vt -2.9667969 -2.1679688
vt -2.3515625 -2.1679688
vt -2.3515625 -3.0234375
vt -2.9667969 -3.0234375
vt -2.9667969 -3.0234375
vt -2.3515625 -3.0234375
vt -2.3515625 -4.107422
vt -2.9667969 -4.107422
vt -2.9667969 -4.107422
vt -2.3515625 -4.107422
vt -2.3515625 -5.736328
vt -2.9667969 -5.736328
vt 0.98828125 0.041992188
vt -0.24707031 0.11621094
vt 0.58984375 0.9873047
vt -0.27539062 0.9873047
vt -0.27539062 0.0234375
vt -1.6132812 0.8544922
vt -0.27539062 0.0234375
vt -3.0839844 0.0234375
vt -1.6132812 0.8544922
vt -1.6132812 0.8544922
vt -3.0839844 0.0234375
vt -3.0839844 0.9873047
vt -0.24707031 0.9873047
vt 0.58984375 0.9873047
vt -0.24707031 0.6953125
vt 0.58984375 0.9873047
vt -0.24707031 0.11621094
vt -0.24707031 0.6953125
vt -1.5976562 0.9394531
vt -1.5976562 0.9394531
vt -1.5976562 0.9394531
vt -1.5976562 0.9394531
vt 1.0 0.9873047
vt 0.0 0.9873047
vt 0.0 0.0234375
vt 1.0 0.0234375
vt 1.0 0.9873047
vt 0.0 0.9873047
vt 0.0 0.0234375
vt 1.0 0.0234375
vt 1.0 0.9873047
vt 0.0 0.9873047
vt 0.0 0.0234375
vt 1.0 0.0234375
vt 1.0 0.9873047
vt 0.0 0.9873047
vt 0.0 0.0234375
vt 1.0 0.0234375
vt 1.0 0.9873047
vt 0.0 0.9873047
vt 0.0 0.0234375
vt 1.0 0.0234375
vt 1.0 0.9873047
vt 0.0 0.9873047
vt 0.0 0.0234375
vt 1.0 0.0234375
vt 0.016601562 0.083984375
vt 0.016601562 0.083984375
vt 0.016601562 0.083984375
vt 0.016601562 0.083984375
vt 0.016601562 0.083984375
vt 0.016601562 0.083984375
vt 0.016601562 0.083984375
vt 0.016601562 0.083984375
vt 0.016601562 0.083984375
vt 0.016601562 0.083984375
vt 0.016601562 0.083984375
vt 0.016601562 0.083984375
vt 0.016601562 0.083984375
vt 0.016601562 0.083984375
vt 0.016601562 0.083984375
vt 0.016601562 0.083984375
vt 0.0 0.9873047
vt 0.0 0.0234375
vt 0.44140625 0.0234375
vt 0.46191406 0.9873047
vt 0.46191406 0.9873047
vt 0.44140625 0.0234375
vt 0.6191406 0.0234375
vt 0.6484375 0.9873047
vt 0.6484375 0.9873047
vt 0.6191406 0.0234375
vt 1.0 0.0234375
vt 1.0 0.9873047
vt 1.4355469 0.021484375
vt 1.2089844 0.41210938
vt 1.4101562 0.5126953
vt 1.2089844 0.41210938
vt 1.1210938 0.7294922
vt 1.4101562 0.5126953
vt 1.4101562 0.5126953
vt 1.1210938 0.7294922
vt 1.4101562 0.72558594
vt 1.1210938 0.7294922
vt 1.4013672 0.98535156
vt 1.4101562 0.72558594
vt 1.4101562 0.72558594
vt 1.4013672 0.98535156
vt 1.5898438 0.8222656
vt 1.4013672 0.98535156
vt 1.8105469 0.9892578
vt 1.5898438 0.8222656
vt 1.4355469 0.021484375
vt 1.2792969 0.021484375
vt 1.2089844 0.41210938
vt 1.2792969 0.021484375
vt 1.0273438 0.021484375
vt 1.2089844 0.41210938
vt 1.2089844 0.41210938
vt 1.0273438 0.021484375
vt 0.8808594 0.28515625
vt 1.0273438 0.021484375
vt 0.82910156 0.021484375
vt 0.8808594 0.28515625
vt 1.2089844 0.41210938
vt 0.8808594 0.28515625
vt 1.1210938 0.7294922
vt 0.8808594 0.28515625
vt 1.0302734 0.9746094
vt 1.1210938 0.7294922
vt 1.1210938 0.7294922
vt 1.0302734 0.9746094
vt 1.4013672 0.98535156
vt 1.0302734 0.9746094
vt 0.8808594 0.28515625
vt 0.82421875 0.99609375
vt 0.8808594 0.28515625
vt 0.71777344 0.28515625
vt 0.82421875 0.99609375
vt 0.82910156 0.021484375
vt 0.6933594 0.022460938
vt 0.71777344 0.28515625
vt 0.8808594 0.28515625
vt 0.82421875 0.99609375
vt 0.71777344 0.28515625
vt 0.34179688 0.30664062
vt 0.34179688 0.98828125
vt 0.34179688 0.98828125
vt 0.34179688 0.30664062
vt -0.051757812 0.31347656
vt -0.051757812 0.8417969
vt -0.051757812 0.8417969
vt -0.051757812 0.31347656
vt -0.44335938 0.31835938
vt -0.44335938 0.6953125
vt -0.44335938 0.6953125
vt -0.44335938 0.31835938
vt -0.7480469 0.3203125
vt -0.7480469 0.6591797
vt -0.7480469 0.6591797
vt -0.7480469 0.3203125
vt -1.0673828 0.32617188
vt -1.0673828 0.6425781
vt -1.0673828 0.6425781
vt -1.0673828 0.32617188
vt -1.4453125 0.33398438
vt -1.4453125 0.6464844
vt -1.4453125 0.6464844
vt -1.4453125 0.33398438
vt -1.7353516 0.3388672
vt -1.7353516 0.64941406
vt -1.7353516 0.64941406
vt -1.7353516 0.3388672
vt -2.1875 0.35058594
vt -2.1875 0.65527344
vt 0.71777344 0.28515625
vt 0.6933594 0.022460938
vt 0.34179688 0.021484375
vt 0.34179688 0.30664062
vt 0.34179688 0.30664062
vt 0.34179688 0.021484375
vt -0.051757812 0.016601562
vt -0.051757812 0.31347656
vt -0.051757812 0.31347656
vt -0.051757812 0.016601562
vt -0.44335938 0.01953125
vt -0.44335938 0.31835938
vt -0.44335938 0.31835938
vt -0.44335938 0.01953125
vt -0.7480469 0.01953125
vt -0.7480469 0.3203125
vt -0.7480469 0.3203125
vt -0.7480469 0.01953125
vt -1.0673828 0.016601562
vt -1.0673828 0.32617188
vt -1.0673828 0.32617188
vt -1.0673828 0.016601562
vt -1.4453125 0.025390625
vt -1.4453125 0.33398438
vt -1.4453125 0.33398438
vt -1.4453125 0.025390625
vt -1.7353516 0.03125
vt -1.7353516 0.3388672
vt -1.7353516 0.3388672
vt -1.7353516 0.03125
vt -2.1875 0.043945312
vt -2.1875 0.35058594
vt 1.4101562 0.5126953
vt 1.4101562 0.72558594
vt 1.5898438 0.8222656
vt 1.5996094 0.6015625
vt 1.5996094 0.6015625
vt 1.5898438 0.8222656
vt 1.8105469 0.9892578
vt 1.7304688 0.6347656
vt 1.4355469 0.021484375
vt 1.4101562 0.5126953
vt 1.5996094 0.6015625
vt 1.5810547 0.021484375
vt 1.5810547 0.021484375
vt 1.5996094 0.6015625
vt 1.7304688 0.6347656
vt 1.7089844 0.021484375
vn 0.0 -0.0 0.9980469
vn 0.0 -0.0 0.9980469
vn 0.0 -0.0 0.9980469
vn 0.0 -0.0 0.9980469
vn 0.0 -0.0 0.9980469
vn 0.0 -0.0 0.9980469
vn 0.0 -0.0 0.9980469
vn 0.0 -0.0 0.9980469
vn 0.0 -0.0 0.9980469
vn 0.0 -0.0 0.9980469
vn 0.0 -0.70703125 0.70703125
vn 0.0 -0.70703125 0.70703125
vn 0.0 -0.70703125 0.70703125
vn 0.0 -0.70703125 0.70703125
vn 0.0 -0.70703125 0.70703125
vn 0.0 -0.70703125 0.70703125
vn 0.0 -0.70703125 0.70703125
vn 0.0 -0.70703125 0.70703125
vn 0.0 -0.70703125 0.70703125
vn 0.0 -0.70703125 0.70703125
vn 0.0 -0.70703125 0.70703125
vn 0.0 -0.70703125 0.70703125
vn 0.0 -0.70703125 0.70703125
vn 0.0 -0.70703125 0.70703125
vn 0.0 -0.70703125 0.70703125
vn 0.0 -0.70703125 0.70703125
vn 0.0 -0.70703125 0.70703125
vn 0.0 -0.70703125 0.70703125
vn 0.0 -0.70703125 0.70703125
vn 0.0 -0.70703125 0.70703125
vn 0.0 -0.70703125 0.70703125
vn 0.0 -0.70703125 0.70703125
vn 0.0 -0.70703125 0.70703125
vn 0.0 -0.70703125 0.70703125
vn 0.0 -0.70703125 0.70703125
vn 0.0 -0.70703125 0.70703125
vn 0.0 -0.70703125 0.70703125
vn 0.0 -0.70703125 0.70703125
vn 0.0 -0.70703125 0.70703125
vn 0.0 -0.70703125 0.70703125
vn 0.0 -0.70703125 0.70703125
vn 0.0 -0.70703125 0.70703125
vn 0.0 -0.70703125 0.70703125
vn 0.0 -0.70703125 0.70703125
vn 0.0 -0.70703125 0.70703125
vn 0.0 -0.70703125 0.70703125
vn 0.0 -0.70703125 0.70703125
vn 0.0 -0.70703125 0.70703125
vn 0.0 -0.70703125 0.70703125
vn 0.0 -0.70703125 0.70703125
vn 0.0 -0.70703125 0.70703125
vn 0.0 -0.70703125 0.70703125
vn 0.0 -0.70703125 0.70703125
vn 0.0 -0.70703125 0.70703125
vn 0.0 -0.70703125 0.70703125
vn 0.0 -0.70703125 0.70703125
vn 0.0 -0.70703125 0.70703125
vn 0.0 -0.70703125 0.70703125
vn 0.0 -0.0 0.9980469
vn 0.0 -0.0 0.9980469
vn 0.0 -0.0 0.9980469
vn 0.0 -0.0 0.9980469
vn 0.0 -0.0 0.9980469
vn 0.0 -0.0 0.9980469
vn 0.0 -0.0 0.9980469
vn 0.0 -0.0 0.9980469
vn 0.0 -0.0 0.9980469
vn 0.0 -0.0 0.9980469
vn 0.0 -0.0 0.9980469
vn 0.0 -0.0 0.9980469
vn 0.0 -0.0 0.9980469
vn 0.0 -0.0 0.9980469
vn 0.0 -0.0 0.9980469
vn 0.0 -0.0 0.9980469
vn 0.0 -0.0 0.9980469
vn 0.0 -0.0 0.9980469
vn 0.0 -0.0 0.9980469
vn 0.0 -0.0 0.9980469
vn 0.0 -0.0 0.9980469
vn 0.0 -0.0 0.9980469
vn 0.0 -0.0 0.9980469
vn 0.0 -0.0 0.9980469
vn 0.0 -0.0 0.9980469
vn 0.0 -0.0 0.9980469
vn 0.0 -0.0 0.9980469
vn 0.0 -0.0 0.9980469
vn 0.0 -0.0 0.9980469
vn 0.0 -0.0 0.9980469
vn 0.0 -0.0 0.9980469
vn 0.0 -0.0 0.9980469
vn 0.0 -0.0 0.9980469
vn 0.0 -0.0 0.9980469
vn 0.0 -0.0 0.9980469
vn 0.0 -0.0 0.9980469
vn 0.0 -0.0 0.9980469
vn 0.0 -0.0 0.9980469
vn 0.0 -0.0 0.9980469
vn 0.0 -0.0 0.9980469
vn 0.0 -0.0 0.9980469
vn 0.0 -0.0 0.9980469
vn 0.0 -0.0 0.9980469
vn 0.0 -0.0 0.9980469
vn 0.0 -0.0 0.9980469
vn 0.0 -0.0 0.9980469
vn 0.0 -0.0 0.9980469
vn 0.0 -0.0 0.9980469
vn 0.0 -0.0 0.9980469
vn 0.0 -0.0 0.9980469
vn 0.0 -0.0 0.9980469
vn 0.0 -0.0 0.9980469
vn 0.0 -0.0 0.9980469
vn 0.0 -0.0 0.9980469
vn 0.0 -0.0 0.9980469
vn 0.0 -0.0 0.9980469
vn 0.0 -0.0 0.9980469
vn 0.0 -0.0 0.9980469
vn 0.0 -0.0 0.9980469
vn 0.0 -0.0 0.9980469
vn 0.0 -0.0 0.9980469
vn 0.0 -0.0 0.9980469
vn 0.0 -0.0 0.9980469
vn 0.0 -0.0 0.9980469
vn 0.0 -0.0 0.9980469
vn 0.0 -0.0 0.9980469
vn 0.0 -0.0 0.9980469
vn 0.0 -0.0 0.9980469
vn 0.0 -0.0 0.9980469
vn 0.0 -0.0 0.9980469
vn 0.0 -0.0 0.9980469
vn 0.0 -0.0 0.9980469
vn 0.0 -0.0 0.9980469
vn 0.0 -0.0 0.9980469
vn 0.0 -0.0 0.9980469
vn 0.0 -0.70703125 0.70703125
vn 0.0 -0.70703125 0.70703125
vn 0.0 -0.70703125 0.70703125
vn 0.0 -0.70703125 0.70703125
vn 0.0 -0.70703125 0.70703125
vn 0.0 -0.70703125 0.70703125
vn 0.0 -0.70703125 0.70703125
vn 0.0 -0.70703125 0.70703125
vn 0.0 -0.70703125 0.70703125
vn 0.0 -0.70703125 0.70703125
vn 0.0 -0.70703125 0.70703125
vn 0.0 -0.70703125 0.70703125
vn 0.0 -0.70703125 0.70703125
vn 0.0 -0.70703125 0.70703125
vn 0.0 -0.70703125 0.70703125
vn 0.0 -0.70703125 0.70703125
vn 0.0 -0.70703125 0.70703125
vn 0.0 -0.70703125 0.70703125
vn 0.0 -0.70703125 0.70703125
vn 0.0 -0.70703125 0.70703125
vn 0.0 -0.70703125 0.70703125
vn 0.0 -0.70703125 0.70703125
vn 0.0 -0.70703125 0.70703125
vn 0.0 -0.70703125 0.70703125
vn 0.0 -0.70703125 0.70703125
vn 0.0 -0.70703125 0.70703125
vn 0.0 -0.70703125 0.70703125
vn 0.0 -0.70703125 0.70703125
vn 0.0 -0.70703125 0.70703125
vn 0.0 -0.70703125 0.70703125
vn 0.0 -0.70703125 0.70703125
vn 0.0 -0.70703125 0.70703125
vn 0.0 -0.70703125 0.70703125
vn 0.0 -0.70703125 0.70703125
vn 0.0 -0.70703125 0.70703125
vn 0.0 -0.70703125 0.70703125
vn 0.0 -0.70703125 0.70703125
vn 0.0 -0.70703125 0.70703125
vn 0.0 -0.70703125 0.70703125
vn 0.0 -0.70703125 0.70703125
vn 0.0 -0.0 0.9980469
vn 0.0 -0.0 0.9980469
vn 0.0 -0.0 0.9980469
vn 0.0 -0.0 0.9980469
vn 0.0 -0.0 0.9980469
vn 0.0 -0.0 0.9980469
vn 0.0 -0.0 0.9980469
vn 0.0 -0.0 0.9980469
vn 0.0 -0.0 0.9980469
vn 0.0 -0.0 0.9980469
vn 0.0 -0.0 0.9980469
vn 0.0 -0.0 0.9980469
vn 0.0 -0.0 0.9980469
vn 0.0 -0.0 0.9980469
vn 0.0 -0.0 0.9980469
vn 0.0 -0.0 0.9980469
vn 0.0 -0.0 0.9980469
vn 0.0 -0.0 0.9980469
vn 0.0 -0.0 0.9980469
vn 0.0 -0.0 0.9980469
vn 0.0 -0.0 0.9980469
vn 0.0 -0.0 0.9980469
vn 0.0 -0.0 0.9980469
vn 0.0 -0.0 0.9980469
vn 0.0 -0.0 0.9980469
vn 0.0 -0.0 0.9980469
vn 0.0 -0.0 0.9980469
vn 0.0 -0.0 0.9980469
vn 0.0 -0.0 0.9980469
vn 0.0 -0.0 0.9980469
vn 0.0 -0.0 0.9980469
vn 0.0 -0.0 0.9980469
vn 0.0 -0.0 0.9980469
vn 0.0 -0.0 0.9980469
vn 0.0 -0.0 0.9980469
vn 0.0 -0.0 0.9980469
vn 0.0 -0.0 0.9980469
vn 0.0 -0.0 0.9980469
vn 0.0 -0.0 0.9980469
vn 0.0 -0.0 0.9980469
vn 0.0 -0.0 0.9980469
vn 0.0 -0.0 0.9980469
vn 0.0 -0.0 0.9980469
vn 0.0 -0.0 0.9980469
vn 0.0 -0.0 0.9980469
vn 0.0 -0.0 0.9980469
vn 0.0 -0.0 0.9980469
vn 0.0 -0.0 0.9980469
vn 0.0 -0.0 0.9980469
vn 0.0 -0.0 0.9980469
vn 0.0 -0.0 0.9980469
vn 0.0 -0.0 0.9980469
vn 0.0 -0.0 0.9980469
vn 0.0 -0.0 0.9980469
vn 0.0 -0.0 0.9980469
vn 0.0 -0.0 0.9980469
vn 0.0 -0.0 0.9980469
vn 0.0 -0.0 0.9980469
vn 0.0 -0.0 0.9980469
vn 0.0 -0.0 0.9980469
vn 0.0 -0.0 0.9980469
vn 0.12695312 -0.5019531 0.85546875
vn 0.0 -0.0 0.9980469
vn 0.0 -0.0 0.9980469
vn 0.12695312 -0.5019531 0.85546875
vn 0.0 -0.0 0.9980469
vn 0.0 -0.0 0.9980469
vn 0.0 -0.0 0.9980469
vn 0.0 -0.0 0.9980469
vn 0.0 -0.0 0.9980469
vn 0.0 -0.0 0.9980469
vn 0.0 -0.0 0.9980469
vn 0.0 -0.0 0.9980469
vn 0.0 -0.0 0.9980469
vn 0.0 -0.0 0.9980469
vn 0.0 -0.0 0.9980469
vn 0.0 -0.0 0.9980469
vn 0.0 -0.0 0.9980469
vn 0.0 -0.0 0.9980469
vn 0.0 -0.0 0.9980469
vn 0.0 -0.0 0.9980469
vn 0.0 -0.0 0.9980469
vn 0.0 -0.0 0.9980469
vn 0.0 -0.0 0.9980469
vn 0.0 -0.0 0.9980469
vn 0.0 -0.0 0.9980469
vn 0.0 -0.0 0.9980469
vn 0.0 -0.0 0.9980469
vn 0.0 -0.0 0.9980469
vn 0.0 -0.0 0.9980469
vn 0.0 -0.0 0.9980469
vn 0.0 -0.0 0.9980469
vn 0.0 -0.0 0.9980469
vn 0.0 -0.0 0.9980469
vn 0.0 -0.0 0.9980469
vn 0.0 -0.0 0.9980469
vn 0.0 -0.0 0.9980469
vn 0.0 -0.0 0.9980469
vn 0.0 -0.0 0.9980469
vn 0.0 -0.0 0.9980469
vn 0.0 -0.0 0.9980469
vn 0.0 -0.0 0.9980469
vn 0.0 -0.0 0.9980469
vn 0.0 -0.0 0.9980469
vn 0.0 -0.0 0.9980469
vn 0.0 -0.0 0.9980469
vn 0.0 -0.0 0.9980469
vn 0.0 -0.0 0.9980469
vn 0.0 -0.0 0.9980469
vn 0.0 -0.0 0.9980469
vn 0.0 -0.0 0.9980469
vn 0.0 -0.0 0.9980469
vn 0.0 -0.0 0.9980469
vn 0.0 -0.0 0.9980469
vn 0.0 -0.0 0.9980469
vn 0.0 -0.0 0.9980469
vn 0.0 -0.0 0.9980469
vn 0.0 -0.0 0.9980469
vn 0.0 -0.0 0.9980469
vn 0.0 -0.0 0.9980469
vn 0.0 -0.0 0.9980469
vn -0.8300781 0.50390625 0.2421875
vn 0.0 -0.0 0.9980469
vn 0.0 -0.0 0.9980469
vn 0.0 -0.0 0.9980469
vn 0.0 -0.0 0.9980469
vn 0.0 -0.0 0.9980469
vn 0.0 -0.0 0.9980469
vn 0.0 -0.0 0.9980469
vn 0.0 -0.0 0.9980469
vn 0.0 -0.0 0.9980469
vn 0.0 -0.0 0.9980469
vn 0.0 -0.0 0.9980469
vn 0.0 -0.0 0.9980469
vn 0.0 -0.0 0.9980469
vn 0.0 -0.0 0.9980469
vn 0.0 -0.0 0.9980469
vn 0.0 -0.0 0.9980469
vn 0.0 -0.0 0.9980469
vn -0.7519531 0.484375 0.44726562
vn 0.0 -0.0 0.9980469
vn 0.0 -0.0 0.9980469
vn 0.0 -0.0 0.9980469
vn 0.0 -0.0 0.9980469
vn 0.0 -0.0 0.9980469
vn 0.0 -0.0 0.9980469
vn 0.0 -0.0 0.9980469
vn 0.0 -0.0 0.9980469
vn 0.0 -0.0 0.9980469
vn 0.0 -0.0 0.9980469
vn 0.0 -0.0 0.9980469
vn 0.0 -0.0 0.9980469
vn 0.0 -0.0 0.9980469
vn 0.0 -0.0 0.9980469
vn 0.0 -0.0 0.9980469
vn 0.0 -0.0 0.9980469
vn 0.0 -0.0 0.9980469
vn 0.0 -0.0 0.9980469
vn 0.0 -0.0 0.9980469
vn 0.0 -0.0 0.9980469
vn 0.0 -0.0 0.9980469
vn 0.0 -0.0 0.9980469
vn 0.0 -0.0 0.9980469
vn 0.0 -0.0 0.9980469
vn 0.0 -0.0 0.9980469
vn 0.0 -0.0 0.9980469
vn 0.0 -0.0 0.9980469
vn 0.0 -0.0 0.9980469
vn 0.0 -0.0 0.9980469
vn 0.0 -0.0 0.9980469
vn 0.0 -0.0 0.9980469
vn 0.0 -0.0 0.9980469
vn 0.0 -0.0 0.9980469
vn 0.0 -0.0 0.9980469
vn 0.0 -0.0 0.9980469
vn 0.0 -0.0 0.9980469
vn 0.0 -0.0 0.9980469
vn 0.0 -0.0 0.9980469
vn 0.0 -0.0 0.9980469
vn 0.0 -0.0 0.9980469
vn 0.0 -0.0 0.9980469
vn 0.0 -0.0 0.9980469
vn 0.0 -0.0 0.9980469
vn 0.0 -0.0 0.9980469
vn 0.0 -0.0 0.9980469
vn 0.0 -0.0 0.9980469
vn 0.0 -0.0 0.9980469
vn 0.0 -0.0 0.9980469
vn 0.0 -0.0 0.9980469
vn 0.0 -0.0 0.9980469
vn 0.0 -0.0 0.9980469
vn 0.0 -0.0 0.9980469
vn -0.13671875 0.6933594 0.7089844
vn -0.13671875 0.6933594 0.7089844
vn -0.13671875 0.6933594 0.7089844
vn -0.13671875 0.6933594 0.7089844
vn -0.017578125 0.6933594 0.7207031
vn -0.017578125 0.6933594 0.7207031
vn -0.017578125 0.6933594 0.7207031
vn -0.017578125 0.6933594 0.7207031
vn 0.0 -0.0 0.9980469
vn 0.0 -0.0 0.9980469
vn 0.0 -0.0 0.9980469
vn 0.0 -0.0 0.9980469
vn 0.0 -0.0 0.9980469
vn 0.0 -0.0 0.9980469
vn 0.0 -0.0 0.9980469
vn 0.0 -0.0 0.9980469
vn 0.0 -0.0 0.9980469
vn 0.0 -0.0 0.9980469
vn 0.0 -0.0 0.9980469
vn 0.0 -0.0 0.9980469
vn 0.0 -0.0 0.9980469
vn 0.0 -0.0 0.9980469
vn 0.0 -0.0 0.9980469
vn 0.0 -0.0 0.9980469
vn 0.0 -0.0 0.9980469
vn 0.0 -0.0 0.9980469
vn 0.0 -0.0 0.9980469
vn 0.0 -0.0 0.9980469
vn 0.0 -0.0 0.9980469
vn 0.0 -0.0 0.9980469
vn 0.0 -0.0 0.9980469
vn 0.0 -0.0 0.9980469
vn -0.13671875 0.6933594 0.7089844
vn -0.13671875 0.6933594 0.7089844
vn -0.13671875 0.6933594 0.7089844
vn -0.13671875 0.6933594 0.7089844
vn -0.017578125 0.6933594 0.7207031
vn -0.017578125 0.6933594 0.7207031
vn -0.017578125 0.6933594 0.7207031
vn -0.017578125 0.6933594 0.7207031
vn 0.0 -0.0 0.9980469
vn 0.0 -0.0 0.9980469
vn 0.0 -0.0 0.9980469
vn 0.0 -0.0 0.9980469
vn 0.0 -0.0 0.9980469
vn 0.0 -0.0 0.9980469
vn 0.0 -0.0 0.9980469
vn 0.0 -0.0 0.9980469
vn 0.0 -0.0 0.9980469
vn 0.0 -0.0 0.9980469
vn 0.0 -0.0 0.9980469
vn 0.0 -0.0 0.9980469
vn 0.0 -0.0 0.9980469
vn 0.0 -0.0 0.9980469
vn 0.0 -0.0 0.9980469
vn 0.0 -0.0 0.9980469
vn 0.0 -0.0 0.9980469
vn 0.0 -0.0 0.9980469
c 1.0 1.0 1.0
usemtl out32_u_kaida
s off
f 158/158/158/1 159/159/159/1 160/160/160/1 161/161/161/1
f 162/162/162/1 163/163/163/1 164/164/164/1 165/165/165/1
f 166/166/166/1 167/167/167/1 168/168/168/1 169/169/169/1
f 170/170/170/1 171/171/171/1 172/172/172/1 173/173/173/1
f 134/134/134/1 135/135/135/1 136/136/136/1
f 137/137/137/1 138/138/138/1 139/139/139/1
f 140/140/140/1 141/141/141/1 142/142/142/1
f 143/143/143/1 144/144/144/1 145/145/145/1
f 146/146/146/1 147/147/147/1 148/148/148/1
f 149/149/149/1 150/150/150/1 151/151/151/1
f 152/152/152/1 153/153/153/1 154/154/154/1
f 155/155/155/1 156/156/156/1 157/157/157/1
usemtl out32_u_k6
s off
f 26/26/26/1 27/27/27/1 28/28/28/1 29/29/29/1
f 30/30/30/1 31/31/31/1 32/32/32/1 33/33/33/1
f 11/11/11/1 12/12/12/1 13/13/13/1
f 14/14/14/1 15/15/15/1 16/16/16/1
f 17/17/17/1 18/18/18/1 19/19/19/1
f 20/20/20/1 21/21/21/1 22/22/22/1
f 23/23/23/1 24/24/24/1 25/25/25/1
usemtl pk_l_iwa3
s off
f 340/340/340/1 341/341/341/1 342/342/342/1 343/343/343/1
f 344/344/344/1 345/345/345/1 346/346/346/1 347/347/347/1
f 348/348/348/1 349/349/349/1 350/350/350/1 351/351/351/1
f 352/352/352/1 353/353/353/1 354/354/354/1 355/355/355/1
f 356/356/356/1 357/357/357/1 358/358/358/1 359/359/359/1
f 360/360/360/1 361/361/361/1 362/362/362/1 363/363/363/1
f 364/364/364/1 365/365/365/1 366/366/366/1 367/367/367/1
f 368/368/368/1 369/369/369/1 370/370/370/1 371/371/371/1
f 372/372/372/1 373/373/373/1 374/374/374/1 375/375/375/1
f 376/376/376/1 377/377/377/1 378/378/378/1 379/379/379/1
f 380/380/380/1 381/381/381/1 382/382/382/1 383/383/383/1
f 384/384/384/1 385/385/385/1 386/386/386/1 387/387/387/1
f 388/388/388/1 389/389/389/1 390/390/390/1 391/391/391/1
f 392/392/392/1 393/393/393/1 394/394/394/1 395/395/395/1
f 396/396/396/1 397/397/397/1 398/398/398/1 399/399/399/1
f 400/400/400/1 401/401/401/1 402/402/402/1 403/403/403/1
f 404/404/404/1 405/405/405/1 406/406/406/1 407/407/407/1
f 408/408/408/1 409/409/409/1 410/410/410/1 411/411/411/1
f 412/412/412/1 413/413/413/1 414/414/414/1 415/415/415/1
f 416/416/416/1 417/417/417/1 418/418/418/1 419/419/419/1
f 420/420/420/1 421/421/421/1 422/422/422/1 423/423/423/1
f 295/295/295/1 296/296/296/1 297/297/297/1
f 298/298/298/1 299/299/299/1 300/300/300/1
f 301/301/301/1 302/302/302/1 303/303/303/1
f 304/304/304/1 305/305/305/1 306/306/306/1
f 307/307/307/1 308/308/308/1 309/309/309/1
f 310/310/310/1 311/311/311/1 312/312/312/1
f 313/313/313/1 314/314/314/1 315/315/315/1
f 316/316/316/1 317/317/317/1 318/318/318/1
f 319/319/319/1 320/320/320/1 321/321/321/1
f 322/322/322/1 323/323/323/1 324/324/324/1
f 325/325/325/1 326/326/326/1 327/327/327/1
f 328/328/328/1 329/329/329/1 330/330/330/1
f 331/331/331/1 332/332/332/1 333/333/333/1
f 334/334/334/1 335/335/335/1 336/336/336/1
f 337/337/337/1 338/338/338/1 339/339/339/1
usemtl out38_t04w
s off
f 7/7/7/1 8/8/8/1 9/9/9/1 10/10/10/1
f 1/1/1/1 2/2/2/1 3/3/3/1
f 4/4/4/1 5/5/5/1 6/6/6/1
usemtl out32_u_k7
s off
f 43/43/43/1 44/44/44/1 45/45/45/1 46/46/46/1
f 47/47/47/1 48/48/48/1 49/49/49/1 50/50/50/1
f 51/51/51/1 52/52/52/1 53/53/53/1 54/54/54/1
f 55/55/55/1 56/56/56/1 57/57/57/1 58/58/58/1
f 34/34/34/1 35/35/35/1 36/36/36/1
f 37/37/37/1 38/38/38/1 39/39/39/1
f 40/40/40/1 41/41/41/1 42/42/42/1
usemtl out38_t04k
s off
f 94/94/94/1 95/95/95/1 96/96/96/1 97/97/97/1
f 98/98/98/1 99/99/99/1 100/100/100/1 101/101/101/1
f 102/102/102/1 103/103/103/1 104/104/104/1 105/105/105/1
f 106/106/106/1 107/107/107/1 108/108/108/1 109/109/109/1
f 110/110/110/1 111/111/111/1 112/112/112/1 113/113/113/1
f 114/114/114/1 115/115/115/1 116/116/116/1 117/117/117/1
f 118/118/118/1 119/119/119/1 120/120/120/1 121/121/121/1
f 122/122/122/1 123/123/123/1 124/124/124/1 125/125/125/1
f 126/126/126/1 127/127/127/1 128/128/128/1 129/129/129/1
f 130/130/130/1 131/131/131/1 132/132/132/1 133/133/133/1
f 91/91/91/1 92/92/92/1 93/93/93/1
usemtl out38_t04kw
s off
f 177/177/177/1 178/178/178/1 179/179/179/1 180/180/180/1
f 181/181/181/1 182/182/182/1 183/183/183/1 184/184/184/1
f 185/185/185/1 186/186/186/1 187/187/187/1 188/188/188/1
f 189/189/189/1 190/190/190/1 191/191/191/1 192/192/192/1
f 193/193/193/1 194/194/194/1 195/195/195/1 196/196/196/1
f 197/197/197/1 198/198/198/1 199/199/199/1 200/200/200/1
f 201/201/201/1 202/202/202/1 203/203/203/1 204/204/204/1
f 205/205/205/1 206/206/206/1 207/207/207/1 208/208/208/1
f 209/209/209/1 210/210/210/1 211/211/211/1 212/212/212/1
f 213/213/213/1 214/214/214/1 215/215/215/1 216/216/216/1
f 217/217/217/1 218/218/218/1 219/219/219/1 220/220/220/1
f 174/174/174/1 175/175/175/1 176/176/176/1
usemtl pk_l_iwa5
s off
f 239/239/239/1 240/240/240/1 241/241/241/1 242/242/242/1
f 243/243/243/1 244/244/244/1 245/245/245/1 246/246/246/1
f 247/247/247/1 248/248/248/1 249/249/249/1 250/250/250/1
f 251/251/251/1 252/252/252/1 253/253/253/1 254/254/254/1
f 255/255/255/1 256/256/256/1 257/257/257/1 258/258/258/1
f 259/259/259/1 260/260/260/1 261/261/261/1 262/262/262/1
f 263/263/263/1 264/264/264/1 265/265/265/1 266/266/266/1
f 267/267/267/1 268/268/268/1 269/269/269/1 270/270/270/1
f 271/271/271/1 272/272/272/1 273/273/273/1 274/274/274/1
f 275/275/275/1 276/276/276/1 277/277/277/1 278/278/278/1
f 279/279/279/1 280/280/280/1 281/281/281/1 282/282/282/1
f 283/283/283/1 284/284/284/1 285/285/285/1 286/286/286/1
f 287/287/287/1 288/288/288/1 289/289/289/1 290/290/290/1
f 291/291/291/1 292/292/292/1 293/293/293/1 294/294/294/1
f 221/221/221/1 222/222/222/1 223/223/223/1
f 224/224/224/1 225/225/225/1 226/226/226/1
f 227/227/227/1 228/228/228/1 229/229/229/1
f 230/230/230/1 231/231/231/1 232/232/232/1
f 233/233/233/1 234/234/234/1 235/235/235/1
f 236/236/236/1 237/237/237/1 238/238/238/1
usemtl out38_t04
s off
f 71/71/71/1 72/72/72/1 73/73/73/1 74/74/74/1
f 75/75/75/1 76/76/76/1 77/77/77/1 78/78/78/1
f 79/79/79/1 80/80/80/1 81/81/81/1 82/82/82/1
f 83/83/83/1 84/84/84/1 85/85/85/1 86/86/86/1
f 87/87/87/1 88/88/88/1 89/89/89/1 90/90/90/1
f 59/59/59/1 60/60/60/1 61/61/61/1
f 62/62/62/1 63/63/63/1 64/64/64/1
f 65/65/65/1 66/66/66/1 67/67/67/1
f 68/68/68/1 69/69/69/1 70/70/70/1
