mtllib Asteria_04_35.mtl
o map
v 18.0 11.458984 -15.125
v 17.86914 14.0 -15.125
v 16.0 14.0 -15.125
v 18.0 11.458984 -15.125
v 16.0 14.0 -15.125
v 14.130859 14.0 -15.125
v -0.23632812 14.0 -15.125
v -0.65234375 11.458984 -15.125
v 3.0 14.0 -15.125
v -0.65234375 11.458984 -15.125
v 6.6816406 14.0 -15.125
v 3.0 14.0 -15.125
v 18.0 11.458984 -15.125
v 14.130859 14.0 -15.125
v 6.6816406 14.0 -15.125
v -0.65234375 11.458984 -15.125
v -0.23632812 14.0 -15.125
v -1.3671875 17.410156 -11.589844
v -2.5195312 14.0 -15.125
v -2.2246094 20.580078 -8.419922
v -2.0136719 21.705078 -7.294922
v -7.6875 21.705078 -7.294922
v -2.3300781 19.0 -10.0
v -2.4335938 19.453125 -9.546875
v -8.109375 19.453125 -9.546875
v -3.9941406 23.648438 -5.3515625
v -2.0136719 21.705078 -7.294922
v 0.58984375 23.648438 -5.3515625
v -3.9941406 23.648438 -5.3515625
v -6.9492188 23.642578 -5.3554688
v -7.6875 21.705078 -7.294922
v -2.0136719 21.705078 -7.294922
v 0.58984375 23.648438 -5.3515625
v 2.6464844 24.0 -5.0
v -3.0292969 24.0 -5.0
v -3.9941406 23.648438 -5.3515625
v -2.4335938 19.453125 -9.546875
v -2.2246094 20.580078 -8.419922
v -7.6875 21.705078 -7.294922
v -8.109375 19.453125 -9.546875
v -4.4335938 14.0 -15.125
v -2.5195312 14.0 -15.125
v -1.3671875 17.410156 -11.589844
v -5.578125 17.410156 -11.589844
v -5.578125 17.410156 -11.589844
v -1.3671875 17.410156 -11.589844
v -2.3300781 19.0 -10.0
v -8.109375 19.453125 -9.546875
v 6.6816406 14.0 -15.125
v 8.751953 15.888672 -13.111328
v 6.716797 15.904297 -13.095703
v -1.3671875 17.410156 -11.589844
v 6.716797 15.904297 -13.095703
v 6.7402344 17.421875 -11.578125
v 14.130859 14.0 -15.125
v 14.126953 17.43164 -11.568359
v 12.046875 15.931641 -13.068359
v 3.0 14.0 -15.125
v -1.3671875 17.410156 -11.589844
v -0.23632812 14.0 -15.125
v -2.4335938 19.453125 -9.546875
v 6.7402344 17.421875 -11.578125
v -2.2246094 20.580078 -8.419922
v 6.7402344 17.421875 -11.578125
v -2.0136719 21.705078 -7.294922
v -2.2246094 20.580078 -8.419922
v 14.125 21.767578 -7.2304688
v 14.125 24.0 -5.0
v 11.578125 24.0 -5.0
v 9.375 21.785156 -7.2148438
v 6.7402344 17.421875 -11.578125
v 8.751953 15.888672 -13.111328
v 12.046875 15.931641 -13.068359
v 14.126953 17.43164 -11.568359
v 17.873047 17.43164 -11.568359
v 17.875 21.767578 -7.2304688
v 16.0 20.658203 -8.339844
v 16.0 17.433594 -11.564453
v 16.0 17.433594 -11.564453
v 16.0 20.658203 -8.339844
v 14.125 21.767578 -7.2304688
v 14.126953 17.43164 -11.568359
v 0.9453125 -10.064453 -15.125
v 1.9023438 -8.068359 -15.125
v -0.7363281 -9.191406 -15.125
v 12.0 -13.0 -19.125
v 12.0 24.0 -19.125
v -36.0 24.0 -19.125
v -36.0 -13.0 -19.125
v -0.7363281 -9.191406 -15.125
v 1.9023438 -8.068359 -15.125
v -1.09375 -5.2871094 -15.125
v -3.4472656 -5.8085938 -15.125
v -3.4472656 -5.8085938 -15.125
v -1.09375 -5.2871094 -15.125
v -2.6972656 -0.9199219 -15.125
v -5.0039062 -0.9199219 -15.125
v -5.0039062 -0.9199219 -15.125
v -2.6972656 -0.9199219 -15.125
v -3.1289062 2.8144531 -15.125
v -5.533203 3.6035156 -15.125
v -5.533203 3.6035156 -15.125
v -3.1289062 2.8144531 -15.125
v -2.4804688 6.2109375 -15.125
v -4.5546875 7.017578 -15.125
v -4.5546875 7.017578 -15.125
v -2.4804688 6.2109375 -15.125
v -1.0722656 9.482422 -15.125
v -3.4394531 10.3671875 -15.125
v -3.4394531 10.3671875 -15.125
v -1.0722656 9.482422 -15.125
v -0.65234375 11.458984 -15.125
v -3.0839844 11.458984 -15.125
v 16.0 -11.640625 -15.125
v 16.0 -9.644531 -15.125
v 9.1875 -9.582031 -15.125
v 9.1875 -11.701172 -15.125
v 9.1875 -11.701172 -15.125
v 9.1875 -9.582031 -15.125
v 4.7734375 -9.169922 -15.125
v 4.4589844 -11.212891 -15.125
v 4.4589844 -11.212891 -15.125
v 4.7734375 -9.169922 -15.125
v 1.9023438 -8.068359 -15.125
v 0.9453125 -10.064453 -15.125
v -5.8085938 11.25 -15.125
v -3.4394531 10.3671875 -15.125
v -3.0839844 11.458984 -15.125
v -0.65234375 11.458984 -15.125
v -0.23632812 14.0 -15.125
v -2.5195312 14.0 -15.125
v -3.0839844 11.458984 -15.125
v -2.5195312 14.0 -15.125
v -4.4335938 14.0 -15.125
v -5.8085938 11.25 -15.125
v -3.0839844 11.458984 -15.125
v -3.4394531 10.3671875 -15.125
v -5.8085938 11.25 -15.125
v -6.263672 7.6835938 -15.125
v -4.5546875 7.017578 -15.125
v -4.5546875 7.017578 -15.125
v -6.263672 7.6835938 -15.125
v -7.9375 4.3945312 -15.125
v -5.533203 3.6035156 -15.125
v -5.533203 3.6035156 -15.125
v -7.9375 4.3945312 -15.125
v -7.310547 -0.9199219 -15.125
v -5.0039062 -0.9199219 -15.125
v -5.0039062 -0.9199219 -15.125
v -7.310547 -0.9199219 -15.125
v -5.8027344 -6.3320312 -15.125
v -3.4472656 -5.8085938 -15.125
v -3.4472656 -5.8085938 -15.125
v -5.8027344 -6.3320312 -15.125
v -2.8847656 -10.107422 -15.125
v -0.7363281 -9.191406 -15.125
v -0.7363281 -9.191406 -15.125
v -2.8847656 -10.107422 -15.125
v -0.17578125 -12.40625 -15.125
v 0.9453125 -10.064453 -15.125
v 0.9453125 -10.064453 -15.125
v -0.17578125 -12.40625 -15.125
v 4.142578 -13.255859 -15.125
v 4.4589844 -11.212891 -15.125
v 4.4589844 -11.212891 -15.125
v 4.142578 -13.255859 -15.125
v 9.1875 -13.818359 -15.125
v 9.1875 -11.701172 -15.125
v 9.1875 -11.701172 -15.125
v 9.1875 -13.818359 -15.125
v 16.0 -13.636719 -15.125
v 16.0 -11.640625 -15.125
v 6.7402344 17.421875 -11.578125
v 9.375 21.785156 -7.2148438
v 6.8125 21.794922 -7.205078
v 6.7402344 17.421875 -11.578125
v -2.3300781 19.0 -10.0
v -1.3671875 17.410156 -11.589844
v -2.4335938 19.453125 -9.546875
v -2.3300781 19.0 -10.0
v 6.7402344 17.421875 -11.578125
v 6.716797 15.904297 -13.095703
v 8.751953 15.888672 -13.111328
v 6.7402344 17.421875 -11.578125
v 14.125 24.0 -5.0
v 14.125 21.767578 -7.2304688
v 16.0 24.0 -5.0
v 14.125 21.767578 -7.2304688
v 16.0 21.771484 -7.2285156
v 16.0 24.0 -5.0
v 16.0 24.0 -5.0
v 16.0 21.771484 -7.2285156
v 17.875 24.0 -5.0
v 16.0 21.771484 -7.2285156
v 17.875 21.767578 -7.2304688
v 17.875 24.0 -5.0
v 17.875 21.767578 -7.2304688
v 16.0 21.771484 -7.2285156
v 16.0 20.658203 -8.339844
v 16.0 21.771484 -7.2285156
v 14.125 21.767578 -7.2304688
v 16.0 20.658203 -8.339844
v 6.7402344 17.421875 -11.578125
v 6.8125 21.794922 -7.205078
v -2.0136719 21.705078 -7.294922
v 6.8125 21.794922 -7.205078
v 0.58984375 23.648438 -5.3515625
v -2.0136719 21.705078 -7.294922
v 6.8476562 24.0 -5.0
v 2.6464844 24.0 -5.0
v 6.8125 21.794922 -7.205078
v 2.6464844 24.0 -5.0
v 0.58984375 23.648438 -5.3515625
v 6.8125 21.794922 -7.205078
v 14.126953 17.43164 -11.568359
v 14.125 21.767578 -7.2304688
v 9.375 21.785156 -7.2148438
v 6.7402344 17.421875 -11.578125
v 6.6816406 14.0 -15.125
v 6.716797 15.904297 -13.095703
v -1.3671875 17.410156 -11.589844
v 3.0 14.0 -15.125
v 14.130859 14.0 -15.125
v 12.046875 15.931641 -13.068359
v 8.751953 15.888672 -13.111328
v 6.6816406 14.0 -15.125
v 9.375 21.785156 -7.2148438
v 11.578125 24.0 -5.0
v 6.8476562 24.0 -5.0
v 6.8125 21.794922 -7.205078
v 17.86914 14.0 -15.125
v 17.873047 17.43164 -11.568359
v 16.0 17.433594 -11.564453
v 16.0 14.0 -15.125
v 16.0 14.0 -15.125
v 16.0 17.433594 -11.564453
v 14.126953 17.43164 -11.568359
v 14.130859 14.0 -15.125
v -7.7148438 28.125 4.4316406
v -8.339844 24.794922 2.3808594
v -5.361328 28.029297 4.7265625
v -8.339844 24.794922 2.3808594
v -16.46875 23.822266 2.671875
v -12.341796 19.144531 0.1640625
v -7.9746094 12.634766 -1.453125
v -12.341796 19.144531 0.1640625
v -16.783203 16.345703 0.40429688
v -12.341796 19.144531 0.1640625
v -16.46875 23.822266 2.671875
v -16.783203 16.345703 0.40429688
v -16.46875 23.822266 2.671875
v -8.339844 24.794922 2.3808594
v -12.39453 28.316406 3.8457031
v -8.339844 24.794922 2.3808594
v -7.7148438 28.125 4.4316406
v -12.39453 28.316406 3.8457031
v -7.9746094 12.634766 -1.953125
v -12.341796 19.144531 -0.3359375
v -16.783203 16.345703 -0.095703125
v -13.708983 9.755859 -0.8984375
v -7.9746094 12.634766 -1.453125
v -16.783203 16.345703 0.40429688
v -13.708983 9.755859 -0.3984375
v -8.175781 9.308594 -1.5273438
v -9.974609 -7.7851562 -5.6757812
v -13.96289 -9.076172 -4.46875
v -11.111327 -16.140625 -5.486328
v -7.060547 -14.279297 -6.1816406
v -7.060547 -14.279297 -6.1816406
v -11.111327 -16.140625 -5.486328
v -6.2402344 -23.69336 -6.3691406
v -3.0175781 -19.623047 -6.4121094
v -10.673827 -0.9199219 -3.1445312
v -13.234374 -2.4199219 -2.4179688
v -13.96289 -9.076172 -4.46875
v -9.974609 -7.7851562 -5.6757812
v -9.302734 4.3945312 -1.6367188
v -14.947265 2.0078125 -0.34570312
v -13.234374 -2.4199219 -2.4179688
v -10.673827 -0.9199219 -3.1445312
v -8.175781 9.308594 -1.5273438
v -13.708983 9.755859 -0.3984375
v -14.947265 2.0078125 -0.34570312
v -9.302734 4.3945312 -1.6367188
v 16.0 -33.91211 -6.4472656
v 16.0 -29.28125 -6.4472656
v 9.310547 -28.625 -6.4121094
v 9.310547 -33.82422 -6.4140625
v 9.310547 -33.82422 -6.4140625
v 9.310547 -28.625 -6.4121094
v 3.4609375 -27.855469 -6.3984375
v 2.5117188 -33.248047 -6.4023438
v 2.5117188 -33.248047 -6.4023438
v 3.4609375 -27.855469 -6.3984375
v -6.2402344 -23.69336 -6.3691406
v -9.990234 -29.310547 -6.3691406
v -9.990234 -29.310547 -6.3691406
v -6.2402344 -23.69336 -6.3691406
v -11.111327 -16.140625 -5.486328
v -12.128905 -26.621094 -5.986328
v 16.0 -29.28125 -6.4472656
v 16.0 -23.480469 -6.236328
v 9.1875 -22.966797 -6.3183594
v 9.310547 -28.625 -6.4121094
v 9.310547 -28.625 -6.4121094
v 9.1875 -22.966797 -6.3183594
v 4.142578 -22.554688 -6.3496094
v 3.4609375 -27.855469 -6.3984375
v 3.4609375 -27.855469 -6.3984375
v 4.142578 -22.554688 -6.3496094
v -3.0175781 -19.623047 -6.4121094
v -6.2402344 -23.69336 -6.3691406
v 11.394531 3.2558594 -15.125
v -3.1289062 2.8144531 -15.125
v 10.849609 2.1855469 -15.125
v 18.5 2.5644531 -15.125
v 17.607422 3.2519531 -15.125
v 18.15039 2.1855469 -15.125
v 13.314453 -2.6503906 -15.125
v 12.244141 -2.1054688 -15.125
v -1.09375 -5.2871094 -15.125
v 12.244141 4.1054688 -15.125
v 13.314453 4.6503906 -15.125
v -2.4804688 6.2109375 -15.125
v 13.314453 4.6503906 -15.125
v 14.5 4.8378906 -15.125
v -2.4804688 6.2109375 -15.125
v -2.4804688 6.2109375 -15.125
v 14.5 4.8378906 -15.125
v 18.0 6.2109375 -15.125
v 14.5 4.8378906 -15.125
v 15.685547 4.6503906 -15.125
v 18.0 6.2109375 -15.125
v 18.0 6.2109375 -15.125
v 15.685547 4.6503906 -15.125
v 16.75586 4.1054688 -15.125
v 16.0 -9.644531 -15.125
v 18.0 -5.2871094 -15.125
v 9.1875 -9.582031 -15.125
v 18.0 -5.2871094 -15.125
v 4.7734375 -9.169922 -15.125
v 9.1875 -9.582031 -15.125
v 4.7734375 -9.169922 -15.125
v 18.0 -5.2871094 -15.125
v 1.9023438 -8.068359 -15.125
v 18.0 -5.2871094 -15.125
v -1.09375 -5.2871094 -15.125
v 1.9023438 -8.068359 -15.125
v 17.605469 -1.2558594 -15.125
v 18.5 -0.9199219 -15.125
v 18.15039 -0.18554688 -15.125
v 18.5 -0.9199219 -15.125
v 18.285156 1.0 -15.125
v 18.15039 -0.18554688 -15.125
v 16.75586 4.1054688 -15.125
v 17.607422 3.2519531 -15.125
v 18.0 6.2109375 -15.125
v 17.607422 3.2519531 -15.125
v 18.5 2.5644531 -15.125
v 18.0 6.2109375 -15.125
v 14.5 -2.8378906 -15.125
v 18.0 -5.2871094 -15.125
v 15.685547 -2.6503906 -15.125
v 18.0 -5.2871094 -15.125
v 16.75586 -2.1054688 -15.125
v 15.685547 -2.6503906 -15.125
v 10.662109 1.0 -15.125
v -2.6972656 -0.9199219 -15.125
v 10.849609 -0.18554688 -15.125
v -2.6972656 -0.9199219 -15.125
v 11.394531 -1.2558594 -15.125
v 10.849609 -0.18554688 -15.125
v 18.5 -0.9199219 -15.125
v 18.5 2.5644531 -15.125
v 18.15039 2.1855469 -15.125
v 18.285156 1.0 -15.125
v 17.605469 -1.2558594 -15.125
v 16.75586 -2.1054688 -15.125
v 18.0 -5.2871094 -15.125
v 18.5 -0.9199219 -15.125
v 11.394531 3.2558594 -15.125
v 12.244141 4.1054688 -15.125
v -2.4804688 6.2109375 -15.125
v -3.1289062 2.8144531 -15.125
v 10.849609 2.1855469 -15.125
v -3.1289062 2.8144531 -15.125
v -2.6972656 -0.9199219 -15.125
v 10.662109 1.0 -15.125
v -2.6972656 -0.9199219 -15.125
v -1.09375 -5.2871094 -15.125
v 12.244141 -2.1054688 -15.125
v 11.394531 -1.2558594 -15.125
v 14.5 -2.8378906 -15.125
v 13.314453 -2.6503906 -15.125
v -1.09375 -5.2871094 -15.125
v 18.0 -5.2871094 -15.125
v 18.0 11.458984 -15.125
v -0.65234375 11.458984 -15.125
v -1.0722656 9.482422 -15.125
v 18.0 9.482422 -15.125
v 18.0 9.482422 -15.125
v -1.0722656 9.482422 -15.125
v -2.4804688 6.2109375 -15.125
v 18.0 6.2109375 -15.125
v -8.830078 19.25586 -6.6777344
v -5.578125 17.410156 -11.589844
v -8.109375 19.453125 -9.546875
v -10.1640625 19.25586 -3.4277344
v -12.341796 19.144531 0.1640625
v -8.353516 15.275391 -3.3730469
v -12.341796 19.144531 0.1640625
v -7.9746094 12.634766 -1.453125
v -8.353516 15.275391 -3.3730469
v -8.353516 15.275391 -3.3730469
v -7.9746094 12.634766 -1.453125
v -6.189453 11.949219 -11.347656
v -7.9746094 12.634766 -1.453125
v -8.175781 9.308594 -1.5273438
v -6.189453 11.949219 -11.347656
v -6.189453 11.949219 -11.347656
v -8.175781 9.308594 -1.5273438
v -7.6152344 8.005859 -11.347656
v -5.8085938 11.25 -15.125
v -4.4335938 14.0 -15.125
v -6.189453 11.949219 -11.347656
v -4.4335938 14.0 -15.125
v -6.4140625 16.480469 -9.175781
v -6.189453 11.949219 -11.347656
v -6.189453 11.949219 -11.347656
v -6.4140625 16.480469 -9.175781
v -8.353516 15.275391 -3.3730469
v -8.519531 -0.9199219 -10.953125
v -9.1953125 4.3945312 -11.050781
v -10.673827 -0.9199219 -3.1445312
v -9.1953125 4.3945312 -11.050781
v -9.302734 4.3945312 -1.6367188
v -10.673827 -0.9199219 -3.1445312
v -4.4335938 14.0 -15.125
v -5.578125 17.410156 -11.589844
v -6.4140625 16.480469 -9.175781
v -5.578125 17.410156 -11.589844
v -8.830078 19.25586 -6.6777344
v -6.4140625 16.480469 -9.175781
v -8.339844 24.794922 2.3808594
v -12.341796 19.144531 0.1640625
v -8.380859 21.748047 -0.099609375
v -12.341796 19.144531 0.1640625
v -10.1640625 19.25586 -3.4277344
v -8.380859 21.748047 -0.099609375
v -5.8085938 11.25 -15.125
v -6.189453 11.949219 -11.347656
v -7.6152344 8.005859 -11.347656
v -6.263672 7.6835938 -15.125
v -7.9375 4.3945312 -15.125
v -9.1953125 4.3945312 -11.050781
v -8.519531 -0.9199219 -10.953125
v -7.310547 -0.9199219 -15.125
v -7.310547 -0.9199219 -15.125
v -8.519531 -0.9199219 -10.953125
v -7.8496094 -7.0585938 -10.886719
v -5.8027344 -6.3320312 -15.125
v -5.8027344 -6.3320312 -15.125
v -7.8496094 -7.0585938 -10.886719
v -5.0429688 -12.412109 -10.861328
v -2.8847656 -10.107422 -15.125
v -2.8847656 -10.107422 -15.125
v -5.0429688 -12.412109 -10.861328
v -1.6542969 -15.748047 -10.78125
v -0.17578125 -12.40625 -15.125
v -0.17578125 -12.40625 -15.125
v -1.6542969 -15.748047 -10.78125
v 4.142578 -18.138672 -10.6640625
v 4.142578 -13.255859 -15.125
v 4.142578 -13.255859 -15.125
v 4.142578 -18.138672 -10.6640625
v 9.1875 -18.46289 -10.599609
v 9.1875 -13.818359 -15.125
v 9.1875 -13.818359 -15.125
v 9.1875 -18.46289 -10.599609
v 16.0 -18.408203 -10.441406
v 16.0 -13.636719 -15.125
v -8.519531 -0.9199219 -10.953125
v -10.673827 -0.9199219 -3.1445312
v -9.974609 -7.7851562 -5.6757812
v -7.8496094 -7.0585938 -10.886719
v -7.8496094 -7.0585938 -10.886719
v -9.974609 -7.7851562 -5.6757812
v -7.060547 -14.279297 -6.1816406
v -5.0429688 -12.412109 -10.861328
v -5.0429688 -12.412109 -10.861328
v -7.060547 -14.279297 -6.1816406
v -3.0175781 -19.623047 -6.4121094
v -1.6542969 -15.748047 -10.78125
v -1.6542969 -15.748047 -10.78125
v -3.0175781 -19.623047 -6.4121094
v 4.142578 -22.554688 -6.3496094
v 4.142578 -18.138672 -10.6640625
v 4.142578 -18.138672 -10.6640625
v 4.142578 -22.554688 -6.3496094
v 9.1875 -22.966797 -6.3183594
v 9.1875 -18.46289 -10.599609
v 9.1875 -18.46289 -10.599609
v 9.1875 -22.966797 -6.3183594
v 16.0 -23.480469 -6.236328
v 16.0 -18.408203 -10.441406
v -8.353516 15.275391 -3.3730469
v -6.4140625 16.480469 -9.175781
v -8.830078 19.25586 -6.6777344
v -10.1640625 19.25586 -3.4277344
v -10.1640625 19.25586 -3.4277344
v -8.830078 19.25586 -6.6777344
v -7.923828 21.88086 -4.4726562
v -8.380859 21.748047 -0.099609375
v -8.380859 21.748047 -0.099609375
v -7.923828 21.88086 -4.4726562
v -6.7460938 23.691406 -2.0253906
v -8.339844 24.794922 2.3808594
v -8.175781 9.308594 -1.5273438
v -9.302734 4.3945312 -1.6367188
v -9.1953125 4.3945312 -11.050781
v -7.6152344 8.005859 -11.347656
v -7.6152344 8.005859 -11.347656
v -9.1953125 4.3945312 -11.050781
v -7.9375 4.3945312 -15.125
v -6.263672 7.6835938 -15.125
v -8.830078 19.25586 -6.6777344
v -8.109375 19.453125 -9.546875
v -7.6875 21.705078 -7.294922
v -7.923828 21.88086 -4.4726562
v -7.923828 21.88086 -4.4726562
v -7.6875 21.705078 -7.294922
v -6.9492188 23.642578 -5.3554688
v -6.7460938 23.691406 -2.0253906
v 14.5 1.0 -16.671875
v 17.035156 2.8417969 -16.671875
v 16.341797 3.5351562 -16.671875
v 12.658203 -1.5351562 -16.671875
v 13.53125 -1.9804688 -16.671875
v 14.5 1.0 -16.671875
v 13.53125 -1.9804688 -16.671875
v 14.5 -2.1347656 -16.671875
v 14.5 1.0 -16.671875
v 14.5 1.0 -16.671875
v 14.5 -2.1347656 -16.671875
v 15.46875 -1.9804688 -16.671875
v 15.46875 -1.9804688 -16.671875
v 16.341797 -1.5351562 -16.671875
v 14.5 1.0 -16.671875
v 16.341797 -1.5351562 -16.671875
v 17.035156 -0.8417969 -16.671875
v 14.5 1.0 -16.671875
v 14.5 1.0 -16.671875
v 17.035156 -0.8417969 -16.671875
v 17.480469 0.03125 -16.671875
v 17.480469 0.03125 -16.671875
v 17.634766 1.0 -16.671875
v 14.5 1.0 -16.671875
v 17.634766 1.0 -16.671875
v 17.480469 1.96875 -16.671875
v 14.5 1.0 -16.671875
v 14.5 1.0 -16.671875
v 17.480469 1.96875 -16.671875
v 17.035156 2.8417969 -16.671875
v 12.658203 -1.5351562 -16.671875
v 14.5 1.0 -16.671875
v 11.964844 -0.8417969 -16.671875
v 14.5 1.0 -16.671875
v 11.519531 0.03125 -16.671875
v 11.964844 -0.8417969 -16.671875
v 11.519531 0.03125 -16.671875
v 14.5 1.0 -16.671875
v 11.365234 1.0 -16.671875
v 14.5 1.0 -16.671875
v 11.519531 1.96875 -16.671875
v 11.365234 1.0 -16.671875
v 11.519531 1.96875 -16.671875
v 14.5 1.0 -16.671875
v 11.964844 2.8417969 -16.671875
v 14.5 1.0 -16.671875
v 12.658203 3.5351562 -16.671875
v 11.964844 2.8417969 -16.671875
v 12.658203 3.5351562 -16.671875
v 14.5 1.0 -16.671875
v 13.53125 3.9804688 -16.671875
v 14.5 1.0 -16.671875
v 14.5 4.1347656 -16.671875
v 13.53125 3.9804688 -16.671875
v 14.5 4.1347656 -16.671875
v 14.5 1.0 -16.671875
v 15.46875 3.9804688 -16.671875
v 14.5 1.0 -16.671875
v 16.341797 3.5351562 -16.671875
v 15.46875 3.9804688 -16.671875
v 14.5 -2.1347656 -15.125
v 14.5 -2.8378906 -15.125
v 15.685547 -2.6503906 -15.125
v 15.46875 -1.9804688 -15.125
v 11.964844 2.8417969 -15.125
v 11.394531 3.2558594 -15.125
v 10.849609 2.1855469 -15.125
v 11.519531 1.96875 -15.125
v 12.658203 3.5351562 -15.125
v 12.244141 4.1054688 -15.125
v 11.394531 3.2558594 -15.125
v 11.964844 2.8417969 -15.125
v 11.964844 -0.8417969 -15.125
v 11.394531 -1.2558594 -15.125
v 12.244141 -2.1054688 -15.125
v 12.658203 -1.5351562 -15.125
v 11.519531 0.03125 -15.125
v 10.849609 -0.18554688 -15.125
v 11.394531 -1.2558594 -15.125
v 11.964844 -0.8417969 -15.125
v 11.365234 1.0 -15.125
v 10.662109 1.0 -15.125
v 10.849609 -0.18554688 -15.125
v 11.519531 0.03125 -15.125
v 11.519531 1.96875 -15.125
v 10.849609 2.1855469 -15.125
v 10.662109 1.0 -15.125
v 11.365234 1.0 -15.125
v 13.53125 -1.9804688 -15.125
v 13.314453 -2.6503906 -15.125
v 14.5 -2.8378906 -15.125
v 14.5 -2.1347656 -15.125
v 12.658203 -1.5351562 -15.125
v 12.244141 -2.1054688 -15.125
v 13.314453 -2.6503906 -15.125
v 13.53125 -1.9804688 -15.125
v 17.039062 2.8359375 -15.125
v 17.607422 3.2519531 -15.125
v 16.75586 4.1054688 -15.125
v 16.341797 3.5351562 -15.125
v 17.480469 1.96875 -15.125
v 18.15039 2.1855469 -15.125
v 17.607422 3.2519531 -15.125
v 17.039062 2.8359375 -15.125
v 17.634766 1.0 -15.125
v 18.285156 1.0 -15.125
v 18.15039 2.1855469 -15.125
v 17.480469 1.96875 -15.125
v 17.480469 0.03125 -15.125
v 18.15039 -0.18554688 -15.125
v 18.285156 1.0 -15.125
v 17.634766 1.0 -15.125
v 17.035156 -0.8417969 -15.125
v 17.605469 -1.2558594 -15.125
v 18.15039 -0.18554688 -15.125
v 17.480469 0.03125 -15.125
v 14.5 4.1347656 -15.125
v 14.5 4.8378906 -15.125
v 13.314453 4.6503906 -15.125
v 13.53125 3.9804688 -15.125
v 15.46875 3.9804688 -15.125
v 15.685547 4.6503906 -15.125
v 14.5 4.8378906 -15.125
v 14.5 4.1347656 -15.125
v 16.341797 3.5351562 -15.125
v 16.75586 4.1054688 -15.125
v 15.685547 4.6503906 -15.125
v 15.46875 3.9804688 -15.125
v 13.53125 3.9804688 -15.125
v 13.314453 4.6503906 -15.125
v 12.244141 4.1054688 -15.125
v 12.658203 3.5351562 -15.125
v 16.341797 -1.5351562 -15.125
v 16.75586 -2.1054688 -15.125
v 17.605469 -1.2558594 -15.125
v 17.035156 -0.8417969 -15.125
v 15.46875 -1.9804688 -15.125
v 15.685547 -2.6503906 -15.125
v 16.75586 -2.1054688 -15.125
v 16.341797 -1.5351562 -15.125
v 11.964844 -0.8417969 -15.125
v 12.658203 -1.5351562 -15.125
v 12.658203 -1.5351562 -16.671875
v 11.964844 -0.8417969 -16.671875
v 11.964844 -0.8417969 -15.125
v 11.964844 -0.8417969 -16.671875
v 11.519531 0.03125 -16.671875
v 11.519531 0.03125 -15.125
v 11.519531 0.03125 -15.125
v 11.519531 0.03125 -16.671875
v 11.365234 1.0 -16.671875
v 11.365234 1.0 -15.125
v 11.365234 1.0 -15.125
v 11.365234 1.0 -16.671875
v 11.519531 1.96875 -16.671875
v 11.519531 1.96875 -15.125
v 11.519531 1.96875 -15.125
v 11.519531 1.96875 -16.671875
v 11.964844 2.8417969 -16.671875
v 11.964844 2.8417969 -15.125
v 11.964844 2.8417969 -15.125
v 11.964844 2.8417969 -16.671875
v 12.658203 3.5351562 -16.671875
v 12.658203 3.5351562 -15.125
v 12.658203 3.5351562 -15.125
v 12.658203 3.5351562 -16.671875
v 13.53125 3.9804688 -16.671875
v 13.53125 3.9804688 -15.125
v 13.53125 3.9804688 -15.125
v 13.53125 3.9804688 -16.671875
v 14.5 4.1347656 -16.671875
v 14.5 4.1347656 -15.125
v 14.5 4.1347656 -15.125
v 14.5 4.1347656 -16.671875
v 15.46875 3.9804688 -16.671875
v 15.46875 3.9804688 -15.125
v 15.46875 3.9804688 -15.125
v 15.46875 3.9804688 -16.671875
v 16.341797 3.5351562 -16.671875
v 16.341797 3.5351562 -15.125
v 16.341797 3.5351562 -15.125
v 16.341797 3.5351562 -16.671875
v 17.035156 2.8417969 -16.671875
v 17.039062 2.8359375 -15.125
v 17.039062 2.8359375 -15.125
v 17.035156 2.8417969 -16.671875
v 17.480469 1.96875 -16.671875
v 17.480469 1.96875 -15.125
v 17.480469 1.96875 -15.125
v 17.480469 1.96875 -16.671875
v 17.634766 1.0 -16.671875
v 17.634766 1.0 -15.125
v 17.634766 1.0 -15.125
v 17.634766 1.0 -16.671875
v 17.480469 0.03125 -16.671875
v 17.480469 0.03125 -15.125
v 17.480469 0.03125 -15.125
v 17.480469 0.03125 -16.671875
v 17.035156 -0.8417969 -16.671875
v 17.035156 -0.8417969 -15.125
v 17.035156 -0.8417969 -15.125
v 17.035156 -0.8417969 -16.671875
v 16.341797 -1.5351562 -16.671875
v 16.341797 -1.5351562 -15.125
v 16.341797 -1.5351562 -15.125
v 16.341797 -1.5351562 -16.671875
v 15.46875 -1.9804688 -16.671875
v 15.46875 -1.9804688 -15.125
v 15.46875 -1.9804688 -15.125
v 15.46875 -1.9804688 -16.671875
v 14.5 -2.1347656 -16.671875
v 14.5 -2.1347656 -15.125
v 14.5 -2.1347656 -15.125
v 14.5 -2.1347656 -16.671875
v 13.53125 -1.9804688 -16.671875
v 13.53125 -1.9804688 -15.125
v 13.53125 -1.9804688 -15.125
v 13.53125 -1.9804688 -16.671875
v 12.658203 -1.5351562 -16.671875
v 12.658203 -1.5351562 -15.125
vt -2.2617188 7.234375
vt -2.9667969 7.2597656
vt -2.9667969 7.59375
vt -2.2617188 7.9628906
vt -2.9667969 7.59375
vt -2.9667969 7.2597656
vt -2.9667969 4.765625
vt -2.2617188 4.6972656
vt -2.9667969 5.267578
vt -2.2617188 4.6972656
vt -2.9667969 5.9316406
vt -2.9667969 5.267578
vt -2.2617188 7.9628906
vt -2.9667969 7.2597656
vt -2.9667969 5.9316406
vt -2.2617188 4.6972656
vt -1.6171875 -10.128906
vt -1.6640625 -8.587891
vt -1.71875 -10.128906
vt -1.7109375 -7.154297
vt -1.6953125 -6.6445312
vt -1.96875 -6.6445312
vt -1.7109375 -7.8671875
vt -1.71875 -7.6621094
vt -1.984375 -7.6621094
vt -1.7890625 -5.765625
vt -1.6953125 -6.6445312
vt -1.5703125 -5.765625
vt -1.7890625 -5.765625
vt -1.9296875 -5.767578
vt -1.96875 -6.6445312
vt -1.6953125 -6.6445312
vt -1.5703125 -5.765625
vt -1.4765625 -5.6054688
vt -1.75 -5.6054688
vt -1.7890625 -5.765625
vt -1.71875 -7.6621094
vt -1.7109375 -7.154297
vt -1.96875 -6.6445312
vt -1.984375 -7.6621094
vt -1.8125 -10.128906
vt -1.71875 -10.128906
vt -1.6640625 -8.587891
vt -1.8671875 -8.587891
vt -1.8671875 -8.587891
vt -1.6640625 -8.587891
vt -1.7109375 -7.8671875
vt -1.984375 -7.6621094
vt 1.3173828 -10.128906
vt 2.116211 -9.275391
vt 1.3291016 -9.267578
vt -1.7998047 -8.587891
vt 1.3291016 -9.267578
vt 1.3378906 -8.582031
vt 4.1972656 -10.128906
vt 4.196289 -8.576172
vt 3.3916016 -9.255859
vt -0.109375 -10.128906
vt -1.7998047 -8.587891
vt -1.3623047 -10.128906
vt 2.1572266 -7.6621094
vt 2.1572266 -8.582031
vt 2.1572266 -7.154297
vt 2.1572266 -8.582031
vt 2.1572266 -6.6445312
vt 2.1572266 -7.154297
vt 4.1953125 -6.6152344
vt 4.1953125 -5.6054688
vt 3.209961 -5.6054688
vt 2.3583984 -6.607422
vt 1.3378906 -8.582031
vt 2.116211 -9.275391
vt 3.3916016 -9.255859
vt 4.196289 -8.576172
vt 4.196289 -8.576172
vt 4.1953125 -6.6152344
vt 4.9208984 -7.1171875
vt 4.9208984 -8.576172
vt 4.9208984 -8.576172
vt 4.9208984 -7.1171875
vt 4.1953125 -6.6152344
vt 4.196289 -8.576172
vt -0.26953125 -1.8046875
vt -0.052734375 -1.3515625
vt -0.65234375 -1.6074219
vt 0.0 0.0
vt 0.0 1.0
vt 1.0 1.0
vt 1.0 0.0
vt -0.65234375 -1.6074219
vt -0.052734375 -1.3515625
vt -0.7324219 -0.7207031
vt -1.2675781 -0.83984375
vt -1.2675781 -0.83984375
vt -0.7324219 -0.7207031
vt -1.0976562 0.27148438
vt -1.6210938 0.27148438
vt -1.6210938 0.27148438
vt -1.0976562 0.27148438
vt -1.1953125 1.1191406
vt -1.7402344 1.296875
vt -1.7402344 1.296875
vt -1.1953125 1.1191406
vt -1.046875 1.8886719
vt -1.5175781 2.0722656
vt -1.5175781 2.0722656
vt -1.046875 1.8886719
vt -0.7285156 2.6308594
vt -1.265625 2.8320312
vt -1.265625 2.8320312
vt -0.7285156 2.6308594
vt -0.6328125 3.1464844
vt -1.1855469 3.1464844
vt 3.1464844 -2.1621094
vt 3.1464844 -1.7089844
vt 1.5996094 -1.6953125
vt 1.5996094 -2.1757812
vt 1.5996094 -2.1757812
vt 1.5996094 -1.6953125
vt 0.5996094 -1.6015625
vt 0.52734375 -2.0644531
vt 0.52734375 -2.0644531
vt 0.5996094 -1.6015625
vt -0.052734375 -1.3515625
vt -0.26953125 -1.8046875
vt -2.9667969 3.0332031
vt -2.3515625 2.8320312
vt -2.3515625 3.1464844
vt -2.2617188 4.6972656
vt -2.9667969 4.8027344
vt -2.9667969 4.1875
vt -2.2617188 4.1875
vt -2.9667969 4.1035156
vt -2.9667969 3.6679688
vt -2.9667969 3.0332031
vt -2.2617188 3.7421875
vt -2.3515625 2.8320312
vt -2.9667969 3.0332031
vt -2.9667969 2.2226562
vt -2.3515625 2.0722656
vt -2.3515625 2.0722656
vt -2.9667969 2.2226562
vt -2.9667969 1.4765625
vt -2.3515625 1.296875
vt -2.3515625 1.296875
vt -2.9667969 1.4765625
vt -2.9667969 0.27148438
vt -2.3515625 0.27148438
vt -2.3515625 0.27148438
vt -2.9667969 0.27148438
vt -2.9667969 -0.95703125
vt -2.3515625 -0.83984375
vt -2.3515625 -0.83984375
vt -2.9667969 -0.95703125
vt -2.9667969 -1.59375
vt -2.3515625 -1.6074219
vt -2.3515625 -1.6074219
vt -2.9667969 -1.59375
vt -2.9667969 -2.1679688
vt -2.3515625 -2.1679688
vt -2.3515625 -2.1679688
vt -2.9667969 -2.1679688
vt -2.9667969 -3.0234375
vt -2.3515625 -3.0234375
vt -2.3515625 -3.0234375
vt -2.9667969 -3.0234375
vt -2.9667969 -4.107422
vt -2.3515625 -4.107422
vt -2.3515625 -4.107422
vt -2.9667969 -4.107422
vt -2.9667969 -5.736328
vt -2.3515625 -5.736328
vt 2.1523438 -8.582031
vt 2.1523438 -6.607422
vt 2.1523438 -6.6035156
vt 0.0859375 -8.582031
vt 0.02734375 -7.8671875
vt 0.03515625 -8.587891
vt 2.15625 -7.6621094
vt 2.15625 -7.8671875
vt 2.15625 -8.582031
vt 0.0859375 -9.267578
vt 0.09765625 -9.275391
vt 0.0859375 -8.582031
vt 0.1328125 -5.6054688
vt 0.1328125 -6.6152344
vt 0.14453125 -5.6054688
vt 0.1328125 -6.6152344
vt 0.14453125 -6.6132812
vt 0.14453125 -5.6054688
vt 0.14453125 -5.6054688
vt 0.14453125 -6.6132812
vt 0.1328125 -5.6054688
vt 0.14453125 -6.6132812
vt 0.1328125 -6.6152344
vt 0.1328125 -5.6054688
vt 0.1328125 -6.6152344
vt 0.14453125 -6.6132812
vt 0.14453125 -7.1171875
vt 0.14453125 -6.6132812
vt 0.1328125 -6.6152344
vt 0.14453125 -7.1171875
vt 0.0859375 -8.582031
vt 0.0859375 -6.6035156
vt 0.03125 -6.6445312
vt 0.0859375 -6.6035156
vt 0.046875 -5.765625
vt 0.03125 -6.6445312
vt 0.0859375 -5.6054688
vt 0.05859375 -5.6054688
vt 0.0859375 -6.6035156
vt 0.05859375 -5.6054688
vt 0.046875 -5.765625
vt 0.0859375 -6.6035156
vt 2.1523438 -8.576172
vt 2.1523438 -6.6152344
vt 2.1523438 -6.607422
vt 2.1523438 -8.582031
vt 0.0859375 -10.128906
vt 0.0859375 -9.267578
vt 0.03515625 -8.587891
vt 0.0625 -10.128906
vt 0.1328125 -10.128906
vt 0.1171875 -9.255859
vt 0.09765625 -9.275391
vt 0.0859375 -10.128906
vt 2.1523438 -6.607422
vt 2.1523438 -5.6054688
vt 2.1523438 -5.6054688
vt 2.1523438 -6.6035156
vt 0.1328125 -10.128906
vt 0.1328125 -8.576172
vt 0.14453125 -8.576172
vt 0.14453125 -10.128906
vt 0.14453125 -10.128906
vt 0.14453125 -8.576172
vt 0.1328125 -8.576172
vt 0.1328125 -10.128906
vt 0.45898438 0.9550781
vt -0.3779297 0.9550781
vt 0.45898438 0.8154297
vt -3.0839844 0.9873047
vt -3.0839844 0.021484375
vt -1.6132812 0.8544922
vt -0.27539062 0.9873047
vt -1.6132812 0.8544922
vt -0.27539062 0.021484375
vt -1.6132812 0.8544922
vt -3.0839844 0.021484375
vt -0.27539062 0.021484375
vt 0.98828125 0.040039062
vt -0.3779297 0.9550781
vt 0.43066406 0.040039062
vt -0.3779297 0.9550781
vt 0.45898438 0.9550781
vt 0.43066406 0.040039062
vt -1.640625 0.9316406
vt -1.640625 0.9316406
vt -1.640625 0.9316406
vt -1.640625 0.9316406
vt 1.0 0.9550781
vt 1.0 0.021484375
vt 0.0 0.021484375
vt 0.0 0.9550781
vt 1.0 0.9550781
vt 1.0 0.021484375
vt 0.0 0.021484375
vt 0.0 0.9550781
vt 1.0 0.9550781
vt 1.0 0.021484375
vt 0.0 0.021484375
vt 0.0 0.9550781
vt 1.0 0.9550781
vt 1.0 0.021484375
vt 0.0 0.021484375
vt 0.0 0.9550781
vt 1.0 0.9550781
vt 1.0 0.021484375
vt 0.0 0.021484375
vt 0.0 0.9550781
vt 1.0 0.9550781
vt 1.0 0.021484375
vt 0.0 0.021484375
vt 0.0 0.9550781
vt 0.016601562 0.083984375
vt 0.016601562 0.083984375
vt 0.016601562 0.083984375
vt 0.016601562 0.083984375
vt 0.016601562 0.083984375
vt 0.016601562 0.083984375
vt 0.016601562 0.083984375
vt 0.016601562 0.083984375
vt 0.016601562 0.083984375
vt 0.016601562 0.083984375
vt 0.016601562 0.083984375
vt 0.016601562 0.083984375
vt 0.016601562 0.083984375
vt 0.016601562 0.083984375
vt 0.016601562 0.083984375
vt 0.016601562 0.083984375
vt 0.0 0.021484375
vt 0.0 0.9550781
vt 0.46191406 0.9550781
vt 0.44140625 0.021484375
vt 0.44140625 0.021484375
vt 0.46191406 0.9550781
vt 0.6484375 0.9550781
vt 0.6191406 0.021484375
vt 0.6191406 0.021484375
vt 0.6484375 0.9550781
vt 1.0 0.9550781
vt 1.0 0.021484375
vt 2.2285156 1.1171875
vt -1.1953125 1.1191406
vt 2.1308594 0.9199219
vt 3.7675781 1.1210938
vt 3.515625 1.1816406
vt 3.6269531 0.9902344
vt 2.5742188 0.033203125
vt 2.4082031 0.12109375
vt -0.7324219 -0.7207031
vt 2.3867188 1.2734375
vt 2.5859375 1.3984375
vt -1.046875 1.8886719
vt 2.5859375 1.3984375
vt 2.8046875 1.4335938
vt -1.046875 1.8886719
vt -1.046875 1.8886719
vt 2.8046875 1.4335938
vt 3.5996094 1.9023438
vt 2.8046875 1.4335938
vt 3.0214844 1.4082031
vt 3.5996094 1.9023438
vt 3.5996094 1.9023438
vt 3.0214844 1.4082031
vt 3.2246094 1.3125
vt 3.1464844 -1.7089844
vt 3.5996094 -0.7207031
vt 1.5996094 -1.6953125
vt 3.5996094 -0.7207031
vt 0.5996094 -1.6015625
vt 1.5996094 -1.6953125
vt 0.5996094 -1.6015625
vt 3.5996094 -0.7207031
vt -0.052734375 -1.3515625
vt 3.5996094 -0.7207031
vt -0.7324219 -0.7207031
vt -0.052734375 -1.3515625
vt 3.4882812 0.22851562
vt 3.7304688 0.24609375
vt 3.6035156 0.41992188
vt 3.7304688 0.24609375
vt 3.7890625 0.69140625
vt 3.6035156 0.41992188
vt 3.2246094 1.3125
vt 3.453125 1.1757812
vt 3.5996094 1.9023438
vt 3.453125 1.1757812
vt 3.7675781 1.1210938
vt 3.5996094 1.9023438
vt 2.796875 -0.001953125
vt 3.5996094 -0.7207031
vt 3.0039062 0.03125
vt 3.5996094 -0.7207031
vt 3.3105469 0.080078125
vt 3.0039062 0.03125
vt 2.0976562 0.7011719
vt -1.0976562 0.27148438
vt 2.1210938 0.48828125
vt -1.0976562 0.27148438
vt 2.2402344 0.28125
vt 2.1210938 0.48828125
vt 3.7304688 0.24609375
vt 3.7675781 1.1210938
vt 3.6269531 0.9902344
vt 3.7890625 0.69140625
vt 3.4882812 0.22851562
vt 3.3105469 0.080078125
vt 3.5996094 -0.7207031
vt 3.7304688 0.24609375
vt 2.2285156 1.1171875
vt 2.3886719 1.2734375
vt -1.046875 1.8886719
vt -1.1953125 1.1191406
vt 2.1308594 0.9199219
vt -1.1953125 1.1191406
vt -1.0976562 0.27148438
vt 2.0976562 0.7011719
vt -1.0976562 0.27148438
vt -0.7324219 -0.7207031
vt 2.4082031 0.12109375
vt 2.2402344 0.28125
vt 2.796875 -0.001953125
vt 2.5742188 0.033203125
vt -0.7324219 -0.7207031
vt 3.5996094 -0.7207031
vt 3.5996094 3.1757812
vt -0.6328125 3.1464844
vt -0.7285156 2.6308594
vt 3.5996094 2.6835938
vt 3.5996094 2.6835938
vt -0.7285156 2.6308594
vt -1.046875 1.8886719
vt 3.5996094 1.9023438
vt 1.4101562 0.5126953
vt 1.2792969 0.021484375
vt 1.4355469 0.021484375
vt 1.4101562 0.72558594
vt 1.4013672 0.98535156
vt 1.1210938 0.7294922
vt 1.4013672 0.98535156
vt 1.0302734 0.9746094
vt 1.1210938 0.7294922
vt 1.1210938 0.7294922
vt 1.0302734 0.9746094
vt 0.8808594 0.28515625
vt 1.0302734 0.9746094
vt 0.82421875 0.99609375
vt 0.8808594 0.28515625
vt 0.8808594 0.28515625
vt 0.82421875 0.99609375
vt 0.71777344 0.28515625
vt 0.82910156 0.021484375
vt 1.0273438 0.021484375
vt 0.8808594 0.28515625
vt 1.0273438 0.021484375
vt 1.2089844 0.41210938
vt 0.8808594 0.28515625
vt 0.8808594 0.28515625
vt 1.2089844 0.41210938
vt 1.1210938 0.7294922
vt -0.051757812 0.31347656
vt 0.34179688 0.30664062
vt -0.051757812 0.8417969
vt 0.34179688 0.30664062
vt 0.34179688 0.98828125
vt -0.051757812 0.8417969
vt 1.0273438 0.021484375
vt 1.2792969 0.021484375
vt 1.2089844 0.41210938
vt 1.2792969 0.021484375
vt 1.4101562 0.5126953
vt 1.2089844 0.41210938
vt 1.8105469 0.9892578
vt 1.4013672 0.98535156
vt 1.5898438 0.8222656
vt 1.4013672 0.98535156
vt 1.4101562 0.72558594
vt 1.5898438 0.8222656
vt 0.82910156 0.021484375
vt 0.8808594 0.28515625
vt 0.71777344 0.28515625
vt 0.6933594 0.022460938
vt 0.34179688 0.021484375
vt 0.34179688 0.30664062
vt -0.051757812 0.31347656
vt -0.051757812 0.016601562
vt -0.051757812 0.016601562
vt -0.051757812 0.31347656
vt -0.44335938 0.31835938
vt -0.44335938 0.01953125
vt -0.44335938 0.01953125
vt -0.44335938 0.31835938
vt -0.7480469 0.3203125
vt -0.7480469 0.01953125
vt -0.7480469 0.01953125
vt -0.7480469 0.3203125
vt -1.0673828 0.32617188
vt -1.0673828 0.016601562
vt -1.0673828 0.016601562
vt -1.0673828 0.32617188
vt -1.4453125 0.33398438
vt -1.4453125 0.025390625
vt -1.4453125 0.025390625
vt -1.4453125 0.33398438
vt -1.7353516 0.3388672
vt -1.7353516 0.03125
vt -1.7353516 0.03125
vt -1.7353516 0.3388672
vt -2.1875 0.35058594
vt -2.1875 0.043945312
vt -0.051757812 0.31347656
vt -0.051757812 0.8417969
vt -0.44335938 0.6953125
vt -0.44335938 0.31835938
vt -0.44335938 0.31835938
vt -0.44335938 0.6953125
vt -0.7480469 0.6591797
vt -0.7480469 0.3203125
vt -0.7480469 0.3203125
vt -0.7480469 0.6591797
vt -1.0673828 0.6425781
vt -1.0673828 0.32617188
vt -1.0673828 0.32617188
vt -1.0673828 0.6425781
vt -1.4453125 0.6464844
vt -1.4453125 0.33398438
vt -1.4453125 0.33398438
vt -1.4453125 0.6464844
vt -1.7353516 0.64941406
vt -1.7353516 0.3388672
vt -1.7353516 0.3388672
vt -1.7353516 0.64941406
vt -2.1875 0.65527344
vt -2.1875 0.35058594
vt 1.1210938 0.7294922
vt 1.2089844 0.41210938
vt 1.4101562 0.5126953
vt 1.4101562 0.72558594
vt 1.4101562 0.72558594
vt 1.4101562 0.5126953
vt 1.5996094 0.6015625
vt 1.5898438 0.8222656
vt 1.5898438 0.8222656
vt 1.5996094 0.6015625
vt 1.7304688 0.6347656
vt 1.8105469 0.9892578
vt 0.82421875 0.99609375
vt 0.34179688 0.98828125
vt 0.34179688 0.30664062
vt 0.71777344 0.28515625
vt 0.71777344 0.28515625
vt 0.34179688 0.30664062
vt 0.34179688 0.021484375
vt 0.6933594 0.022460938
vt 1.4101562 0.5126953
vt 1.4355469 0.021484375
vt 1.5810547 0.021484375
vt 1.5996094 0.6015625
vt 1.5996094 0.6015625
vt 1.5810547 0.021484375
vt 1.7089844 0.021484375
vt 1.7304688 0.6347656
vt 1.2890625 0.734375
vt 2.546875 0.7441406
vt 2.546875 0.7421875
vt 2.546875 0.7285156
vt 2.546875 0.73046875
vt 1.2890625 0.734375
vt 2.546875 0.73046875
vt 2.546875 0.734375
vt 1.2890625 0.734375
vt 1.2890625 0.734375
vt 2.546875 0.734375
vt 2.546875 0.73828125
vt 2.546875 0.73828125
vt 2.546875 0.7421875
vt 1.2890625 0.734375
vt 2.546875 0.7421875
vt 2.546875 0.7441406
vt 1.2890625 0.734375
vt 1.2890625 0.734375
vt 2.546875 0.7441406
vt 2.546875 0.74609375
vt 2.546875 0.74609375
vt 2.546875 0.74609375
vt 1.2890625 0.734375
vt 2.546875 0.74609375
vt 2.546875 0.74609375
vt 1.2890625 0.734375
vt 1.2890625 0.734375
vt 2.546875 0.74609375
vt 2.546875 0.7441406
vt 2.546875 0.7285156
vt 1.2890625 0.734375
vt 2.546875 0.7246094
vt 1.2890625 0.734375
vt 2.546875 0.7246094
vt 2.546875 0.7246094
vt 2.546875 0.7246094
vt 1.2890625 0.734375
vt 2.546875 0.72265625
vt 1.2890625 0.734375
vt 2.546875 0.7246094
vt 2.546875 0.72265625
vt 2.546875 0.7246094
vt 1.2890625 0.734375
vt 2.546875 0.7265625
vt 1.2890625 0.734375
vt 2.546875 0.7285156
vt 2.546875 0.7265625
vt 2.546875 0.7285156
vt 1.2890625 0.734375
vt 2.546875 0.7324219
vt 1.2890625 0.734375
vt 2.546875 0.7363281
vt 2.546875 0.7324219
vt 2.546875 0.7363281
vt 1.2890625 0.734375
vt 2.546875 0.73828125
vt 1.2890625 0.734375
vt 2.546875 0.7421875
vt 2.546875 0.73828125
vt 0.0 0.0
vt 0.0 1.0
vt 1.0 1.0
vt 1.0 0.0
vt 0.0 0.0
vt 0.0 1.0
vt 1.0 1.0
vt 1.0 0.0
vt 0.0 0.0
vt 0.0 1.0
vt 1.0 1.0
vt 1.0 0.0
vt 0.0 0.0
vt 0.0 1.0
vt 1.0 1.0
vt 1.0 0.0
vt 0.0 0.0
vt 0.0 1.0
vt 1.0 1.0
vt 1.0 0.0
vt 0.0 0.0
vt 0.0 1.0
vt 1.0 1.0
vt 1.0 0.0
vt 0.0 0.0
vt 0.0 1.0
vt 1.0 1.0
vt 1.0 0.0
vt 0.0 0.0
vt 0.0 1.0
vt 1.0 1.0
vt 1.0 0.0
vt 0.0 0.0
vt 0.0 1.0
vt 1.0 1.0
vt 1.0 0.0
vt 0.0 0.0
vt 0.0 1.0
vt 1.0 1.0
vt 1.0 0.0
vt 0.0 0.0
vt 0.0 1.0
vt 1.0 1.0
vt 1.0 0.0
vt 0.0 0.0
vt 0.0 1.0
vt 1.0 1.0
vt 1.0 0.0
vt 0.0 0.0
vt 0.0 1.0
vt 1.0 1.0
vt 1.0 0.0
vt 0.0 0.0
vt 0.0 1.0
vt 1.0 1.0
vt 1.0 0.0
vt 0.0 0.0
vt 0.0 1.0
vt 1.0 1.0
vt 1.0 0.0
vt 0.0 0.0
vt 0.0 1.0
vt 1.0 1.0
vt 1.0 0.0
vt 0.0 0.0
vt 0.0 1.0
vt 1.0 1.0
vt 1.0 0.0
vt 0.0 0.0
vt 0.0 1.0
vt 1.0 1.0
vt 1.0 0.0
vt 0.0 0.0
vt 0.0 1.0
vt 1.0 1.0
vt 1.0 0.0
vt 0.0 0.0
vt 0.0 1.0
vt 1.0 1.0
vt 1.0 0.0
vt 0.5625 0.9160156
vt 0.44921875 0.9160156
vt 0.44921875 1.015625
vt 0.5625 1.015625
vt 0.5625 0.9160156
vt 0.5625 1.015625
vt 0.671875 1.015625
vt 0.671875 0.9160156
vt 0.671875 0.9160156
vt 0.671875 1.015625
vt 0.77734375 1.015625
vt 0.77734375 0.9160156
vt 0.77734375 0.9160156
vt 0.77734375 1.015625
vt 0.87109375 1.015625
vt 0.8671875 0.9160156
vt 0.8671875 0.9160156
vt 0.87109375 1.015625
vt 0.9453125 1.015625
vt 0.9453125 0.9160156
vt 0.9453125 0.9160156
vt 0.9453125 1.015625
vt 0.9921875 1.015625
vt 0.9921875 0.9160156
vt 0.9921875 0.9160156
vt 0.9921875 1.015625
vt 1.0 1.015625
vt 0.99609375 0.9160156
vt 0.99609375 0.9160156
vt 1.0 1.015625
vt 0.94921875 1.015625
vt 0.9453125 0.9160156
vt 0.9453125 0.9160156
vt 0.94921875 1.015625
vt 0.83203125 1.015625
vt 0.828125 0.9160156
vt 0.828125 0.9160156
vt 0.83203125 1.015625
vt 0.6484375 1.015625
vt 0.6484375 0.9160156
vt 0.6484375 0.9160156
vt 0.6484375 1.015625
vt 0.43359375 1.015625
vt 0.4375 0.9160156
vt 0.4375 0.9160156
vt 0.43359375 1.015625
vt 0.23046875 1.015625
vt 0.234375 0.9160156
vt 0.234375 0.9160156
vt 0.23046875 1.015625
vt 0.08203125 1.015625
vt 0.08984375 0.9160156
vt 0.08984375 0.9160156
vt 0.08203125 1.015625
vt 0.0078125 1.015625
vt 0.015625 0.9160156
vt 0.015625 0.9160156
vt 0.0078125 1.015625
vt 0.0 1.015625
vt 0.0078125 0.9160156
vt 0.0078125 0.9160156
vt 0.0 1.015625
vt 0.046875 1.015625
vt 0.05078125 0.9160156
vt 0.05078125 0.9160156
vt 0.046875 1.015625
vt 0.125 1.015625
vt 0.12890625 0.9160156
vt 0.12890625 0.9160156
vt 0.125 1.015625
vt 0.22265625 1.015625
vt 0.2265625 0.9160156
vt 0.2265625 0.9160156
vt 0.22265625 1.015625
vt 0.33203125 1.015625
vt 0.3359375 0.9160156
vt 0.3359375 0.9160156
vt 0.33203125 1.015625
vt 0.44921875 1.015625
vt 0.44921875 0.9160156
vn 0.0 -0.0 0.9980469
vn 0.0 -0.0 0.9980469
vn 0.0 -0.0 0.9980469
vn 0.0 -0.0 0.9980469
vn 0.0 -0.0 0.9980469
vn 0.0 -0.0 0.9980469
vn 0.0 -0.0 0.9980469
vn 0.0 -0.0 0.9980469
vn 0.0 -0.0 0.9980469
vn 0.0 -0.0 0.9980469
vn 0.0 -0.0 0.9980469
vn 0.0 -0.0 0.9980469
vn 0.0 -0.0 0.9980469
vn 0.0 -0.0 0.9980469
vn 0.0 -0.0 0.9980469
vn 0.0 -0.0 0.9980469
vn 0.0 -0.71875 0.6933594
vn 0.0 -0.71875 0.6933594
vn 0.0 -0.71875 0.6933594
vn 0.0 -0.71875 0.6933594
vn 0.0 -0.71875 0.6933594
vn 0.0 -0.71875 0.6933594
vn 0.0 -0.71875 0.6933594
vn 0.0 -0.71875 0.6933594
vn 0.0 -0.71875 0.6933594
vn 0.0 -0.71875 0.6933594
vn 0.0 -0.71875 0.6933594
vn 0.0 -0.71875 0.6933594
vn 0.0 -0.71875 0.6933594
vn 0.0 -0.71875 0.6933594
vn 0.0 -0.71875 0.6933594
vn 0.0 -0.71875 0.6933594
vn 0.0 -0.71875 0.6933594
vn 0.0 -0.71875 0.6933594
vn 0.0 -0.71875 0.6933594
vn 0.0 -0.71875 0.6933594
vn 0.0 -0.71875 0.6933594
vn 0.0 -0.71875 0.6933594
vn 0.0 -0.71875 0.6933594
vn 0.0 -0.71875 0.6933594
vn 0.0 -0.71875 0.6933594
vn 0.0 -0.71875 0.6933594
vn 0.0 -0.71875 0.6933594
vn 0.0 -0.71875 0.6933594
vn 0.0 -0.71875 0.6933594
vn 0.0 -0.71875 0.6933594
vn 0.0 -0.71875 0.6933594
vn 0.0 -0.71875 0.6933594
vn 0.0 -0.71875 0.6933594
vn 0.0 -0.71875 0.6933594
vn 0.0 -0.71875 0.6933594
vn 0.0 -0.71875 0.6933594
vn 0.0 -0.71875 0.6933594
vn 0.0 -0.71875 0.6933594
vn 0.0 -0.71875 0.6933594
vn 0.0 -0.71875 0.6933594
vn 0.0 -0.71875 0.6933594
vn 0.0 -0.71875 0.6933594
vn 0.0 -0.71875 0.6933594
vn 0.0 -0.71875 0.6933594
vn 0.0 -0.71875 0.6933594
vn 0.0 -0.71875 0.6933594
vn 0.0 -0.71875 0.6933594
vn 0.0 -0.71875 0.6933594
vn 0.0 -0.71875 0.6933594
vn 0.0 -0.71875 0.6933594
vn 0.0 -0.71875 0.6933594
vn 0.0 -0.71875 0.6933594
vn 0.0 -0.71875 0.6933594
vn 0.0 -0.71875 0.6933594
vn 0.0 -0.71875 0.6933594
vn 0.0 -0.71875 0.6933594
vn 0.0 -0.71875 0.6933594
vn 0.0 -0.71875 0.6933594
vn 0.0 -0.71875 0.6933594
vn 0.0 -0.71875 0.6933594
vn 0.0 -0.71875 0.6933594
vn 0.0 -0.71875 0.6933594
vn 0.0 -0.71875 0.6933594
vn 0.0 -0.71875 0.6933594
vn 0.0 -0.71875 0.6933594
vn 0.0 -0.71875 0.6933594
vn 0.0 -0.0 0.9980469
vn 0.0 -0.0 0.9980469
vn 0.0 -0.0 0.9980469
vn 0.0 -0.0 0.9980469
vn 0.0 -0.0 0.9980469
vn 0.0 -0.0 0.9980469
vn 0.0 -0.0 0.9980469
vn 0.0 -0.0 0.9980469
vn 0.0 -0.0 0.9980469
vn 0.0 -0.0 0.9980469
vn 0.0 -0.0 0.9980469
vn 0.0 -0.0 0.9980469
vn 0.0 -0.0 0.9980469
vn 0.0 -0.0 0.9980469
vn 0.0 -0.0 0.9980469
vn 0.0 -0.0 0.9980469
vn 0.0 -0.0 0.9980469
vn 0.0 -0.0 0.9980469
vn 0.0 -0.0 0.9980469
vn 0.0 -0.0 0.9980469
vn 0.0 -0.0 0.9980469
vn 0.0 -0.0 0.9980469
vn 0.0 -0.0 0.9980469
vn 0.0 -0.0 0.9980469
vn 0.0 -0.0 0.9980469
vn 0.0 -0.0 0.9980469
vn 0.0 -0.0 0.9980469
vn 0.0 -0.0 0.9980469
vn 0.0 -0.0 0.9980469
vn 0.0 -0.0 0.9980469
vn 0.0 -0.0 0.9980469
vn 0.0 -0.0 0.9980469
vn 0.0 -0.0 0.9980469
vn 0.0 -0.0 0.9980469
vn 0.0 -0.0 0.9980469
vn 0.0 -0.0 0.9980469
vn 0.0 -0.0 0.9980469
vn 0.0 -0.0 0.9980469
vn 0.0 -0.0 0.9980469
vn 0.0 -0.0 0.9980469
vn 0.0 -0.0 0.9980469
vn 0.0 -0.0 0.9980469
vn 0.0 -0.0 0.9980469
vn 0.0 -0.0 0.9980469
vn 0.0 -0.0 0.9980469
vn 0.0 -0.0 0.9980469
vn 0.0 -0.0 0.9980469
vn 0.0 -0.0 0.9980469
vn 0.0 -0.0 0.9980469
vn 0.0 -0.0 0.9980469
vn 0.0 -0.0 0.9980469
vn 0.0 -0.0 0.9980469
vn 0.0 -0.0 0.9980469
vn 0.0 -0.0 0.9980469
vn 0.0 -0.0 0.9980469
vn 0.0 -0.0 0.9980469
vn 0.0 -0.0 0.9980469
vn 0.0 -0.0 0.9980469
vn 0.0 -0.0 0.9980469
vn 0.0 -0.0 0.9980469
vn 0.0 -0.0 0.9980469
vn 0.0 -0.0 0.9980469
vn 0.0 -0.0 0.9980469
vn 0.0 -0.0 0.9980469
vn 0.0 -0.0 0.9980469
vn 0.0 -0.0 0.9980469
vn 0.0 -0.0 0.9980469
vn 0.0 -0.0 0.9980469
vn 0.0 -0.0 0.9980469
vn 0.0 -0.0 0.9980469
vn 0.0 -0.0 0.9980469
vn 0.0 -0.0 0.9980469
vn 0.0 -0.0 0.9980469
vn 0.0 -0.0 0.9980469
vn 0.0 -0.0 0.9980469
vn 0.0 -0.0 0.9980469
vn 0.0 -0.0 0.9980469
vn 0.0 -0.0 0.9980469
vn 0.0 -0.0 0.9980469
vn 0.0 -0.0 0.9980469
vn 0.0 -0.0 0.9980469
vn 0.0 -0.0 0.9980469
vn 0.0 -0.0 0.9980469
vn 0.0 -0.0 0.9980469
vn 0.0 -0.0 0.9980469
vn 0.0 -0.0 0.9980469
vn 0.0 -0.0 0.9980469
vn 0.0 -0.0 0.9980469
vn 0.0 -0.0 0.9980469
vn 0.0 -0.0 0.9980469
vn 0.0 -0.71875 0.6933594
vn 0.0 -0.71875 0.6933594
vn 0.0 -0.71875 0.6933594
vn 0.0 -0.71875 0.6933594
vn 0.0 -0.71875 0.6933594
vn 0.0 -0.71875 0.6933594
vn 0.0 -0.71875 0.6933594
vn 0.0 -0.71875 0.6933594
vn 0.0 -0.71875 0.6933594
vn 0.0 -0.71875 0.6933594
vn 0.0 -0.71875 0.6933594
vn 0.0 -0.71875 0.6933594
vn 0.0 -0.71875 0.6933594
vn 0.0 -0.71875 0.6933594
vn 0.0 -0.71875 0.6933594
vn 0.0 -0.71875 0.6933594
vn 0.0 -0.71875 0.6933594
vn 0.0 -0.71875 0.6933594
vn 0.0 -0.71875 0.6933594
vn 0.0 -0.71875 0.6933594
vn 0.0 -0.71875 0.6933594
vn 0.0 -0.71875 0.6933594
vn 0.0 -0.71875 0.6933594
vn 0.0 -0.71875 0.6933594
vn 0.0 -0.71875 0.6933594
vn 0.0 -0.71875 0.6933594
vn 0.0 -0.71875 0.6933594
vn 0.0 -0.71875 0.6933594
vn 0.0 -0.71875 0.6933594
vn 0.0 -0.71875 0.6933594
vn 0.0 -0.71875 0.6933594
vn 0.0 -0.71875 0.6933594
vn 0.0 -0.71875 0.6933594
vn 0.0 -0.71875 0.6933594
vn 0.0 -0.71875 0.6933594
vn 0.0 -0.71875 0.6933594
vn 0.0 -0.71875 0.6933594
vn 0.0 -0.71875 0.6933594
vn 0.0 -0.71875 0.6933594
vn 0.0 -0.71875 0.6933594
vn 0.0 -0.71875 0.6933594
vn 0.0 -0.71875 0.6933594
vn 0.0 -0.71875 0.6933594
vn 0.0 -0.71875 0.6933594
vn 0.0 -0.71875 0.6933594
vn 0.0 -0.71875 0.6933594
vn 0.0 -0.71875 0.6933594
vn 0.0 -0.71875 0.6933594
vn 0.0 -0.71875 0.6933594
vn 0.0 -0.71875 0.6933594
vn 0.0 -0.71875 0.6933594
vn 0.0 -0.71875 0.6933594
vn 0.0 -0.71875 0.6933594
vn 0.0 -0.71875 0.6933594
vn 0.0 -0.71875 0.6933594
vn 0.0 -0.71875 0.6933594
vn 0.0 -0.71875 0.6933594
vn 0.0 -0.71875 0.6933594
vn 0.0 -0.71875 0.6933594
vn 0.0 -0.71875 0.6933594
vn 0.0 -0.71875 0.6933594
vn 0.0 -0.71875 0.6933594
vn 0.0 -0.71875 0.6933594
vn 0.0 -0.71875 0.6933594
vn 0.0 -0.71875 0.6933594
vn 0.0 -0.71875 0.6933594
vn -0.12695312 -0.5019531 0.85546875
vn 0.0 -0.0 0.9980469
vn 0.0 -0.0 0.9980469
vn 0.0 -0.0 0.9980469
vn 0.0 -0.0 0.9980469
vn 0.0 -0.0 0.9980469
vn 0.0 -0.0 0.9980469
vn 0.0 -0.0 0.9980469
vn 0.0 -0.0 0.9980469
vn 0.0 -0.0 0.9980469
vn 0.0 -0.0 0.9980469
vn 0.0 -0.0 0.9980469
vn 0.0 -0.0 0.9980469
vn 0.0 -0.0 0.9980469
vn 0.0 -0.0 0.9980469
vn 0.0 -0.0 0.9980469
vn -0.12695312 -0.5019531 0.85546875
vn 0.0 -0.0 0.9980469
vn 0.0 -0.0 0.9980469
vn 0.0 -0.0 0.9980469
vn 0.0 -0.0 0.9980469
vn 0.0 -0.0 0.9980469
vn 0.0 -0.0 0.9980469
vn 0.0 -0.0 0.9980469
vn 0.0 -0.0 0.9980469
vn 0.0 -0.0 0.9980469
vn 0.0 -0.0 0.9980469
vn 0.0 -0.0 0.9980469
vn 0.0 -0.0 0.9980469
vn 0.0 -0.0 0.9980469
vn 0.0 -0.0 0.9980469
vn 0.0 -0.0 0.9980469
vn 0.0 -0.0 0.9980469
vn 0.0 -0.0 0.9980469
vn 0.0 -0.0 0.9980469
vn 0.0 -0.0 0.9980469
vn 0.0 -0.0 0.9980469
vn 0.0 -0.0 0.9980469
vn 0.0 -0.0 0.9980469
vn 0.0 -0.0 0.9980469
vn 0.0 -0.0 0.9980469
vn 0.0 -0.0 0.9980469
vn 0.0 -0.0 0.9980469
vn 0.0 -0.0 0.9980469
vn 0.0 -0.0 0.9980469
vn 0.0 -0.0 0.9980469
vn 0.0 -0.0 0.9980469
vn 0.0 -0.0 0.9980469
vn 0.0 -0.0 0.9980469
vn 0.0 -0.0 0.9980469
vn 0.0 -0.0 0.9980469
vn 0.0 -0.0 0.9980469
vn 0.0 -0.0 0.9980469
vn 0.0 -0.0 0.9980469
vn 0.0 -0.0 0.9980469
vn 0.0 -0.0 0.9980469
vn 0.0 -0.0 0.9980469
vn 0.0 -0.0 0.9980469
vn 0.0 -0.0 0.9980469
vn 0.0 -0.0 0.9980469
vn 0.0 -0.0 0.9980469
vn 0.0 -0.0 0.9980469
vn 0.0 -0.0 0.9980469
vn 0.0 -0.0 0.9980469
vn 0.0 -0.0 0.9980469
vn 0.0 -0.0 0.9980469
vn 0.0 -0.0 0.9980469
vn 0.0 -0.0 0.9980469
vn 0.0 -0.0 0.9980469
vn 0.0 -0.0 0.9980469
vn 0.0 -0.0 0.9980469
vn 0.0 -0.0 0.9980469
vn 0.0 -0.0 0.9980469
vn 0.0 -0.0 0.9980469
vn 0.0 -0.0 0.9980469
vn 0.0 -0.0 0.9980469
vn 0.0 -0.0 0.9980469
vn 0.0 -0.0 0.9980469
vn 0.0 -0.0 0.9980469
vn 0.0 -0.0 0.9980469
vn 0.0 -0.0 0.9980469
vn 0.0 -0.0 0.9980469
vn 0.0 -0.0 0.9980469
vn 0.0 -0.0 0.9980469
vn 0.0 -0.0 0.9980469
vn 0.0 -0.0 0.9980469
vn 0.0 -0.0 0.9980469
vn 0.0 -0.0 0.9980469
vn 0.0 -0.0 0.9980469
vn 0.0 -0.0 0.9980469
vn 0.0 -0.0 0.9980469
vn 0.0 -0.0 0.9980469
vn 0.0 -0.0 0.9980469
vn 0.0 -0.0 0.9980469
vn 0.0 -0.0 0.9980469
vn 0.0 -0.0 0.9980469
vn 0.0 -0.0 0.9980469
vn 0.0 -0.0 0.9980469
vn 0.0 -0.0 0.9980469
vn 0.0 -0.0 0.9980469
vn 0.0 -0.0 0.9980469
vn 0.0 -0.0 0.9980469
vn 0.0 -0.0 0.9980469
vn 0.0 -0.0 0.9980469
vn 0.0 -0.0 0.9980469
vn 0.0 -0.0 0.9980469
vn 0.0 -0.0 0.9980469
vn 0.0 -0.0 0.9980469
vn 0.0 -0.0 0.9980469
vn 0.0 -0.0 0.9980469
vn 0.0 -0.0 0.9980469
vn 0.0 -0.0 0.9980469
vn 0.0 -0.0 0.9980469
vn 0.0 -0.0 0.9980469
vn 0.0 -0.0 0.9980469
vn 0.0 -0.0 0.9980469
vn 0.0 -0.0 0.9980469
vn 0.0 -0.0 0.9980469
vn 0.0 -0.0 0.9980469
vn 0.0 -0.0 0.9980469
vn 0.0 -0.0 0.9980469
vn 0.0 -0.0 0.9980469
vn 0.0 -0.0 0.9980469
vn 0.0 -0.0 0.9980469
vn 0.0 -0.0 0.9980469
vn 0.0 -0.0 0.9980469
vn 0.0 -0.0 0.9980469
vn 0.0 -0.0 0.9980469
vn 0.0 -0.0 0.9980469
vn 0.0 -0.0 0.9980469
vn 0.0 -0.0 0.9980469
vn 0.0 -0.0 0.9980469
vn 0.0 -0.0 0.9980469
vn 0.0 -0.0 0.9980469
vn 0.0 -0.0 0.9980469
vn 0.0 -0.0 0.9980469
vn 0.0 -0.0 0.9980469
vn 0.0 -0.0 0.9980469
vn 0.0 -0.0 0.9980469
vn 0.0 -0.0 0.9980469
vn 0.0 -0.0 0.9980469
vn 0.0 -0.0 0.9980469
vn 0.0 -0.0 0.9980469
vn 0.0 -0.0 0.9980469
vn 0.0 -0.0 0.9980469
vn 0.0 -0.0 0.9980469
vn 0.0 -0.0 0.9980469
vn 0.0 -0.0 0.9980469
vn 0.0 -0.0 0.9980469
vn 0.0 -0.0 0.9980469
vn 0.0 -0.0 0.9980469
vn 0.0 -0.0 0.9980469
vn 0.0 -0.0 0.9980469
vn 0.0 -0.0 0.9980469
vn 0.0 -0.0 0.9980469
vn 0.0 -0.0 0.9980469
vn 0.0 -0.0 0.9980469
vn 0.0 -0.0 0.9980469
vn 0.0 -0.0 0.9980469
vn 0.0 -0.0 0.9980469
vn 0.0 -0.0 0.9980469
vn 0.0 -0.0 0.9980469
vn 0.0 -0.0 0.9980469
vn 0.0 -0.0 0.9980469
vn 0.0 -0.0 0.9980469
vn 0.0 -0.0 0.9980469
vn 0.0 -0.0 0.9980469
vn 0.0 -0.0 0.9980469
vn 0.0 -0.0 0.9980469
vn 0.0 -0.0 0.9980469
vn 0.0 -0.0 0.9980469
vn 0.0 -0.0 0.9980469
vn 0.0 -0.0 0.9980469
vn 0.0 -0.0 0.9980469
vn 0.0 -0.0 0.9980469
vn 0.0 -0.0 0.9980469
vn 0.0 -0.0 0.9980469
vn 0.0 -0.0 0.9980469
vn 0.0 -0.0 0.9980469
vn 0.0 -0.0 0.9980469
vn 0.0 -0.0 0.9980469
vn 0.0 -0.0 0.9980469
vn 0.0 -0.0 0.9980469
vn 0.0 -0.0 0.9980469
vn 0.0 -0.0 0.9980469
vn 0.0 -0.0 0.9980469
vn 0.0 -0.0 0.9980469
vn 0.0 -0.0 0.9980469
vn 0.0 -0.0 0.9980469
vn 0.0 -0.0 0.9980469
vn 0.0 -0.0 0.9980469
vn 0.0 -0.0 0.9980469
vn 0.0 -0.0 0.9980469
vn 0.0 -0.0 0.9980469
vn 0.0 -0.0 0.9980469
vn 0.0 -0.0 0.9980469
vn 0.0 -0.0 0.9980469
vn 0.0 -0.0 0.9980469
vn 0.0 -0.0 0.9980469
vn 0.0 -0.0 0.9980469
vn 0.0 -0.0 0.9980469
vn 0.0 -0.0 0.9980469
vn 0.0 -0.0 0.9980469
vn 0.0 -0.0 0.9980469
vn 0.0 -0.0 0.9980469
vn 0.0 -0.0 0.9980469
vn 0.0 -0.0 0.9980469
vn 0.0 -0.0 0.9980469
vn 0.0 -0.0 0.9980469
vn 0.0 -0.0 0.9980469
vn 0.0 -0.0 0.9980469
vn 0.0 -0.0 0.9980469
vn 0.0 -0.0 0.9980469
vn 0.0 -0.0 0.9980469
vn 0.0 -0.0 0.9980469
vn 0.0 -0.0 0.9980469
vn 0.0 -0.0 0.9980469
vn 0.0 -0.0 0.9980469
vn 0.0 -0.0 0.9980469
vn 0.0 -0.0 0.9980469
vn 0.0 -0.0 0.9980469
vn 0.0 -0.0 0.9980469
vn 0.0 -0.0 0.9980469
vn 0.0 -0.0 0.9980469
vn 0.0 -0.0 0.9980469
vn 0.0 -0.0 0.9980469
vn 0.0 -0.0 0.9980469
vn 0.0 -0.0 0.9980469
vn 0.0 -0.0 0.9980469
vn 0.0 -0.0 0.9980469
vn 0.0 -0.0 0.9980469
vn 0.0 -0.0 0.9980469
vn 0.0 -0.0 0.9980469
vn 0.14648438 0.69140625 0.7089844
vn 0.14648438 0.69140625 0.7089844
vn 0.14648438 0.69140625 0.7089844
vn 0.14648438 0.69140625 0.7089844
vn 0.017578125 0.6933594 0.7207031
vn 0.017578125 0.6933594 0.7207031
vn 0.017578125 0.6933594 0.7207031
vn 0.017578125 0.6933594 0.7207031
vn 0.0 -0.0 0.9980469
vn 0.0 -0.0 0.9980469
vn 0.0 -0.0 0.9980469
vn 0.0 -0.0 0.9980469
vn 0.0 -0.0 0.9980469
vn 0.0 -0.0 0.9980469
vn 0.0 -0.0 0.9980469
vn 0.0 -0.0 0.9980469
vn 0.0 -0.0 0.9980469
vn 0.0 -0.0 0.9980469
vn 0.0 -0.0 0.9980469
vn 0.0 -0.0 0.9980469
vn 0.0 -0.0 0.9980469
vn 0.0 -0.0 0.9980469
vn 0.0 -0.0 0.9980469
vn 0.0 -0.0 0.9980469
vn 0.14648438 0.69140625 0.7089844
vn 0.14648438 0.69140625 0.7089844
vn 0.14648438 0.69140625 0.7089844
vn 0.14648438 0.69140625 0.7089844
vn 0.017578125 0.6933594 0.7207031
vn 0.017578125 0.6933594 0.7207031
vn 0.017578125 0.6933594 0.7207031
vn 0.017578125 0.6933594 0.7207031
vn 0.0 -0.0 0.9980469
vn 0.0 -0.0 0.9980469
vn 0.0 -0.0 0.9980469
vn 0.0 -0.0 0.9980469
vn 0.0 -0.0 0.9980469
vn 0.0 -0.0 0.9980469
vn 0.0 -0.0 0.9980469
vn 0.0 -0.0 0.9980469
vn 0.0 -0.0 0.9980469
vn 0.0 -0.0 0.9980469
vn 0.0 -0.0 0.9980469
vn 0.0 -0.0 0.9980469
vn 0.0 -0.0 0.9980469
vn 0.0 -0.0 0.9980469
vn 0.0 -0.0 0.9980469
vn 0.0 -0.0 0.9980469
vn 0.0 -0.0 0.9980469
vn 0.0 -0.0 0.9980469
vn 0.0 -0.0 0.9980469
vn 0.0 -0.0 0.9980469
vn 0.0 -0.0 0.9980469
vn 0.0 -0.0 0.9980469
vn 0.0 -0.0 0.9980469
vn 0.0 -0.0 0.9980469
vn 0.0 -0.0 0.9980469
vn 0.0 -0.0 0.9980469
vn 0.0 -0.0 0.9980469
vn 0.0 -0.0 0.9980469
vn 0.0 -0.0 0.9980469
vn 0.0 -0.0 0.9980469
vn 0.0 -0.0 0.9980469
vn 0.0 -0.0 0.9980469
vn 0.0 -0.0 0.9980469
vn 0.0 -0.0 0.9980469
vn 0.0 -0.0 0.9980469
vn 0.0 -0.0 0.9980469
vn 0.0 -0.0 0.9980469
vn 0.0 -0.0 0.9980469
vn 0.0 -0.0 0.9980469
vn 0.0 -0.0 0.9980469
vn 0.0 -0.0 0.9980469
vn 0.0 -0.0 0.9980469
vn 0.0 -0.0 0.9980469
vn 0.0 -0.0 0.9980469
vn 0.0 -0.0 0.9980469
vn 0.0 -0.0 0.9980469
vn 0.0 -0.0 0.9980469
vn 0.0 -0.0 0.9980469
vn 0.0 -0.0 0.9980469
vn 0.0 -0.0 0.9980469
vn 0.0 -0.0 0.9980469
vn 0.0 -0.0 0.9980469
vn 0.0 -0.0 0.9980469
vn 0.0 -0.0 0.9980469
vn 0.0 -0.0 0.9980469
vn 0.0 -0.0 0.9980469
vn 0.0 -0.0 0.9980469
vn 0.0 -0.0 0.9980469
vn 0.0 -0.0 0.9980469
vn 0.0 -0.0 0.9980469
vn 0.0 -0.0 0.9980469
vn 0.0 -0.0 0.9980469
vn 0.0 -0.0 0.9980469
vn 0.0 -0.0 0.9980469
vn 0.0 -0.0 0.9980469
vn 0.0 -0.0 0.9980469
vn 0.0 -0.0 0.9980469
vn 0.0 -0.0 0.9980469
vn 0.0 -0.0 0.9980469
vn 0.0 -0.0 0.9980469
vn 0.0 -0.0 0.9980469
vn 0.0 -0.0 0.9980469
vn 0.0 -0.0 0.9980469
vn 0.0 -0.0 0.9980469
vn 0.0 -0.0 0.9980469
vn 0.0 -0.0 0.9980469
vn 0.0 -0.0 0.9980469
vn 0.0 -0.0 0.9980469
vn 0.0 -0.0 0.9980469
vn 0.0 -0.0 0.9980469
vn 0.0 -0.0 0.9980469
vn 0.0 -0.0 0.9980469
vn 0.0 -0.0 0.9980469
vn 0.0 -0.0 0.9980469
vn 0.0 -0.0 0.9980469
vn 0.0 -0.0 0.9980469
vn 0.0 -0.0 0.9980469
vn 0.0 -0.0 0.9980469
vn 0.0 -0.0 0.9980469
vn 0.0 -0.0 0.9980469
vn 0.0 -0.0 0.9980469
vn 0.0 -0.0 0.9980469
vn 0.0 -0.0 0.9980469
vn 0.0 -0.0 0.9980469
vn 0.0 -0.0 0.9980469
vn 0.0 -0.0 0.9980469
vn 0.0 -0.0 0.9980469
vn 0.0 -0.0 0.9980469
vn 0.0 -0.0 0.9980469
vn 0.0 -0.0 0.9980469
vn 0.0 -0.0 0.9980469
vn 0.0 -0.0 0.9980469
vn 0.0 -0.0 0.9980469
vn 0.0 -0.0 0.9980469
vn 0.0 -0.0 0.9980469
vn 0.0 -0.0 0.9980469
vn 0.0 -0.0 0.9980469
vn 0.0 -0.0 0.9980469
vn 0.0 -0.0 0.9980469
vn 0.0 -0.0 0.9980469
vn 0.0 -0.0 0.9980469
vn 0.0 -0.0 0.9980469
vn 0.0 -0.0 0.9980469
vn 0.0 -0.0 0.9980469
vn 0.0 -0.0 0.9980469
vn 0.0 -0.0 0.9980469
vn 0.0 -0.0 0.9980469
vn 0.0 -0.0 0.9980469
vn 0.0 -0.0 0.9980469
vn 0.0 -0.0 0.9980469
vn 0.0 -0.0 0.9980469
vn 0.0 -0.0 0.9980469
vn 0.0 -0.0 0.9980469
vn 0.0 -0.0 0.9980469
vn 0.0 -0.0 0.9980469
vn 0.0 -0.0 0.9980469
vn 0.0 -0.0 0.9980469
vn 0.0 -0.0 0.9980469
vn 0.0 -0.0 0.9980469
vn 0.0 -0.0 0.9980469
vn 0.0 -0.0 0.9980469
vn 0.0 -0.0 0.9980469
vn 0.0 -0.0 0.9980469
vn 0.0 -0.0 0.9980469
vn 0.0 -0.0 0.9980469
vn 0.0 -0.0 0.9980469
vn 0.0 -0.0 0.9980469
vn 0.0 -0.0 0.9980469
vn 0.0 -0.0 0.9980469
vn 0.0 -0.0 0.9980469
vn 0.0 -0.0 0.9980469
vn 0.0 -0.0 0.9980469
vn 0.0 -0.0 0.9980469
vn 0.0 -0.0 0.9980469
vn 0.0 -0.0 0.9980469
vn 0.0 -0.0 0.9980469
vn 0.0 -0.0 0.9980469
vn 0.0 -0.0 0.9980469
vn 0.0 -0.0 0.9980469
vn 0.0 -0.0 0.9980469
vn 0.0 -0.0 0.9980469
vn 0.0 -0.0 0.9980469
vn 0.0 -0.0 0.9980469
vn 0.0 -0.0 0.9980469
vn 0.0 -0.0 0.9980469
vn 0.0 -0.0 0.9980469
vn 0.0 -0.0 0.9980469
vn 0.0 -0.0 0.9980469
vn 0.0 -0.0 0.9980469
vn 0.0 -0.0 0.9980469
vn 0.0 -0.0 0.9980469
vn 0.0 -0.0 0.9980469
vn 0.0 -0.0 0.9980469
vn 0.0 -0.0 0.9980469
vn 0.0 -0.0 0.9980469
vn 0.0 -0.0 0.9980469
vn 0.0 -0.0 0.9980469
vn 0.0 -0.0 0.9980469
vn 0.0 -0.0 0.9980469
vn 0.0 -0.0 0.9980469
vn 0.70703125 0.70703125 0.0
vn 0.70703125 0.70703125 0.0
vn 0.70703125 0.70703125 0.0
vn 0.70703125 0.70703125 0.0
vn 0.890625 0.453125 0.0
vn 0.890625 0.453125 0.0
vn 0.9511719 0.30859375 0.0
vn 0.9511719 0.30859375 0.0
vn 0.9511719 0.30859375 0.0
vn 0.9511719 0.30859375 0.0
vn 0.9980469 -0.0 0.0
vn 0.9980469 -0.0 0.0
vn 0.9980469 -0.0 0.0
vn 0.9980469 -0.0 0.0
vn 0.9511719 -0.30859375 0.0
vn 0.9511719 -0.30859375 0.0
vn 0.9511719 -0.30859375 0.0
vn 0.9511719 -0.30859375 0.0
vn 0.80859375 -0.5878906 0.0
vn 0.80859375 -0.5878906 0.0
vn 0.80859375 -0.5878906 0.0
vn 0.80859375 -0.5878906 0.0
vn 0.5878906 -0.80859375 0.0
vn 0.5878906 -0.80859375 0.0
vn 0.5878906 -0.80859375 0.0
vn 0.5878906 -0.80859375 0.0
vn 0.30859375 -0.9511719 0.0
vn 0.30859375 -0.9511719 0.0
vn 0.30859375 -0.9511719 0.0
vn 0.30859375 -0.9511719 0.0
vn 0.0 -0.9980469 0.0
vn 0.0 -0.9980469 0.0
vn 0.0 -0.9980469 0.0
vn 0.0 -0.9980469 0.0
vn -0.30859375 -0.9511719 0.0
vn -0.30859375 -0.9511719 0.0
vn -0.30859375 -0.9511719 0.0
vn -0.30859375 -0.9511719 0.0
vn -0.5878906 -0.80859375 0.0
vn -0.5878906 -0.80859375 0.0
vn -0.5878906 -0.80859375 0.0
vn -0.5878906 -0.80859375 0.0
vn -0.80859375 -0.5878906 0.0
vn -0.80859375 -0.5878906 0.0
vn -0.80859375 -0.5878906 0.0
vn -0.80859375 -0.5878906 0.0
vn -0.9511719 -0.30859375 0.0
vn -0.9511719 -0.30859375 0.0
vn -0.9511719 -0.30859375 0.0
vn -0.9511719 -0.30859375 0.0
vn -1.0 -0.0 0.0
vn -1.0 -0.0 0.0
vn -1.0 -0.0 0.0
vn -1.0 -0.0 0.0
vn -0.9511719 0.30859375 0.0
vn -0.9511719 0.30859375 0.0
vn -0.9511719 0.30859375 0.0
vn -0.9511719 0.30859375 0.0
vn -0.80859375 0.5878906 0.0
vn -0.80859375 0.5878906 0.0
vn -0.80859375 0.5878906 0.0
vn -0.80859375 0.5878906 0.0
vn -0.5878906 0.80859375 0.0
vn -0.5878906 0.80859375 0.0
vn -0.5878906 0.80859375 0.0
vn -0.5878906 0.80859375 0.0
vn -0.30859375 0.9511719 0.0
vn -0.30859375 0.9511719 0.0
vn -0.30859375 0.9511719 0.0
vn -0.30859375 0.9511719 0.0
vn 0.0 1.0 0.0
vn 0.0 1.0 0.0
vn 0.0 1.0 0.0
vn 0.0 1.0 0.0
vn 0.30859375 0.9511719 0.0
vn 0.30859375 0.9511719 0.0
vn 0.30859375 0.9511719 0.0
vn 0.30859375 0.9511719 0.0
vn 0.453125 0.890625 0.0
vn 0.453125 0.890625 0.0
c 1.0 1.0 1.0
usemtl out32_u_kaida
s off
f 215/215/215/1 216/216/216/1 217/217/217/1 218/218/218/1
f 219/219/219/1 220/220/220/1 221/221/221/1 222/222/222/1
f 223/223/223/1 224/224/224/1 225/225/225/1 226/226/226/1
f 227/227/227/1 228/228/228/1 229/229/229/1 230/230/230/1
f 231/231/231/1 232/232/232/1 233/233/233/1 234/234/234/1
f 235/235/235/1 236/236/236/1 237/237/237/1 238/238/238/1
f 173/173/173/1 174/174/174/1 175/175/175/1
f 176/176/176/1 177/177/177/1 178/178/178/1
f 179/179/179/1 180/180/180/1 181/181/181/1
f 182/182/182/1 183/183/183/1 184/184/184/1
f 185/185/185/1 186/186/186/1 187/187/187/1
f 188/188/188/1 189/189/189/1 190/190/190/1
f 191/191/191/1 192/192/192/1 193/193/193/1
f 194/194/194/1 195/195/195/1 196/196/196/1
f 197/197/197/1 198/198/198/1 199/199/199/1
f 200/200/200/1 201/201/201/1 202/202/202/1
f 203/203/203/1 204/204/204/1 205/205/205/1
f 206/206/206/1 207/207/207/1 208/208/208/1
f 209/209/209/1 210/210/210/1 211/211/211/1
f 212/212/212/1 213/213/213/1 214/214/214/1
usemtl out32_u_k6
s off
f 67/67/67/1 68/68/68/1 69/69/69/1 70/70/70/1
f 71/71/71/1 72/72/72/1 73/73/73/1 74/74/74/1
f 75/75/75/1 76/76/76/1 77/77/77/1 78/78/78/1
f 79/79/79/1 80/80/80/1 81/81/81/1 82/82/82/1
f 49/49/49/1 50/50/50/1 51/51/51/1
f 52/52/52/1 53/53/53/1 54/54/54/1
f 55/55/55/1 56/56/56/1 57/57/57/1
f 58/58/58/1 59/59/59/1 60/60/60/1
f 61/61/61/1 62/62/62/1 63/63/63/1
f 64/64/64/1 65/65/65/1 66/66/66/1
usemtl pk_l_iwa3
s off
f 450/450/450/1 451/451/451/1 452/452/452/1 453/453/453/1
f 454/454/454/1 455/455/455/1 456/456/456/1 457/457/457/1
f 458/458/458/1 459/459/459/1 460/460/460/1 461/461/461/1
f 462/462/462/1 463/463/463/1 464/464/464/1 465/465/465/1
f 466/466/466/1 467/467/467/1 468/468/468/1 469/469/469/1
f 470/470/470/1 471/471/471/1 472/472/472/1 473/473/473/1
f 474/474/474/1 475/475/475/1 476/476/476/1 477/477/477/1
f 478/478/478/1 479/479/479/1 480/480/480/1 481/481/481/1
f 482/482/482/1 483/483/483/1 484/484/484/1 485/485/485/1
f 486/486/486/1 487/487/487/1 488/488/488/1 489/489/489/1
f 490/490/490/1 491/491/491/1 492/492/492/1 493/493/493/1
f 494/494/494/1 495/495/495/1 496/496/496/1 497/497/497/1
f 498/498/498/1 499/499/499/1 500/500/500/1 501/501/501/1
f 502/502/502/1 503/503/503/1 504/504/504/1 505/505/505/1
f 506/506/506/1 507/507/507/1 508/508/508/1 509/509/509/1
f 510/510/510/1 511/511/511/1 512/512/512/1 513/513/513/1
f 514/514/514/1 515/515/515/1 516/516/516/1 517/517/517/1
f 518/518/518/1 519/519/519/1 520/520/520/1 521/521/521/1
f 522/522/522/1 523/523/523/1 524/524/524/1 525/525/525/1
f 526/526/526/1 527/527/527/1 528/528/528/1 529/529/529/1
f 530/530/530/1 531/531/531/1 532/532/532/1 533/533/533/1
f 405/405/405/1 406/406/406/1 407/407/407/1
f 408/408/408/1 409/409/409/1 410/410/410/1
f 411/411/411/1 412/412/412/1 413/413/413/1
f 414/414/414/1 415/415/415/1 416/416/416/1
f 417/417/417/1 418/418/418/1 419/419/419/1
f 420/420/420/1 421/421/421/1 422/422/422/1
f 423/423/423/1 424/424/424/1 425/425/425/1
f 426/426/426/1 427/427/427/1 428/428/428/1
f 429/429/429/1 430/430/430/1 431/431/431/1
f 432/432/432/1 433/433/433/1 434/434/434/1
f 435/435/435/1 436/436/436/1 437/437/437/1
f 438/438/438/1 439/439/439/1 440/440/440/1
f 441/441/441/1 442/442/442/1 443/443/443/1
f 444/444/444/1 445/445/445/1 446/446/446/1
f 447/447/447/1 448/448/448/1 449/449/449/1
usemtl out38_t04w
s off
f 13/13/13/1 14/14/14/1 15/15/15/1 16/16/16/1
f 1/1/1/1 2/2/2/1 3/3/3/1
f 4/4/4/1 5/5/5/1 6/6/6/1
f 7/7/7/1 8/8/8/1 9/9/9/1
f 10/10/10/1 11/11/11/1 12/12/12/1
usemtl out32_u_k7
s off
f 29/29/29/1 30/30/30/1 31/31/31/1 32/32/32/1
f 33/33/33/1 34/34/34/1 35/35/35/1 36/36/36/1
f 37/37/37/1 38/38/38/1 39/39/39/1 40/40/40/1
f 41/41/41/1 42/42/42/1 43/43/43/1 44/44/44/1
f 45/45/45/1 46/46/46/1 47/47/47/1 48/48/48/1
f 17/17/17/1 18/18/18/1 19/19/19/1
f 20/20/20/1 21/21/21/1 22/22/22/1
f 23/23/23/1 24/24/24/1 25/25/25/1
f 26/26/26/1 27/27/27/1 28/28/28/1
usemtl out38_t04k
s off
f 86/86/86/1 87/87/87/1 88/88/88/1 89/89/89/1
f 90/90/90/1 91/91/91/1 92/92/92/1 93/93/93/1
f 94/94/94/1 95/95/95/1 96/96/96/1 97/97/97/1
f 98/98/98/1 99/99/99/1 100/100/100/1 101/101/101/1
f 102/102/102/1 103/103/103/1 104/104/104/1 105/105/105/1
f 106/106/106/1 107/107/107/1 108/108/108/1 109/109/109/1
f 110/110/110/1 111/111/111/1 112/112/112/1 113/113/113/1
f 114/114/114/1 115/115/115/1 116/116/116/1 117/117/117/1
f 118/118/118/1 119/119/119/1 120/120/120/1 121/121/121/1
f 122/122/122/1 123/123/123/1 124/124/124/1 125/125/125/1
f 83/83/83/1 84/84/84/1 85/85/85/1
usemtl out38_t04kw
s off
f 129/129/129/1 130/130/130/1 131/131/131/1 132/132/132/1
f 133/133/133/1 134/134/134/1 135/135/135/1 136/136/136/1
f 137/137/137/1 138/138/138/1 139/139/139/1 140/140/140/1
f 141/141/141/1 142/142/142/1 143/143/143/1 144/144/144/1
f 145/145/145/1 146/146/146/1 147/147/147/1 148/148/148/1
f 149/149/149/1 150/150/150/1 151/151/151/1 152/152/152/1
f 153/153/153/1 154/154/154/1 155/155/155/1 156/156/156/1
f 157/157/157/1 158/158/158/1 159/159/159/1 160/160/160/1
f 161/161/161/1 162/162/162/1 163/163/163/1 164/164/164/1
f 165/165/165/1 166/166/166/1 167/167/167/1 168/168/168/1
f 169/169/169/1 170/170/170/1 171/171/171/1 172/172/172/1
f 126/126/126/1 127/127/127/1 128/128/128/1
usemtl pk_l_iwa5
s off
f 257/257/257/1 258/258/258/1 259/259/259/1 260/260/260/1
f 261/261/261/1 262/262/262/1 263/263/263/1 264/264/264/1
f 265/265/265/1 266/266/266/1 267/267/267/1 268/268/268/1
f 269/269/269/1 270/270/270/1 271/271/271/1 272/272/272/1
f 273/273/273/1 274/274/274/1 275/275/275/1 276/276/276/1
f 277/277/277/1 278/278/278/1 279/279/279/1 280/280/280/1
f 281/281/281/1 282/282/282/1 283/283/283/1 284/284/284/1
f 285/285/285/1 286/286/286/1 287/287/287/1 288/288/288/1
f 289/289/289/1 290/290/290/1 291/291/291/1 292/292/292/1
f 293/293/293/1 294/294/294/1 295/295/295/1 296/296/296/1
f 297/297/297/1 298/298/298/1 299/299/299/1 300/300/300/1
f 301/301/301/1 302/302/302/1 303/303/303/1 304/304/304/1
f 305/305/305/1 306/306/306/1 307/307/307/1 308/308/308/1
f 309/309/309/1 310/310/310/1 311/311/311/1 312/312/312/1
f 239/239/239/1 240/240/240/1 241/241/241/1
f 242/242/242/1 243/243/243/1 244/244/244/1
f 245/245/245/1 246/246/246/1 247/247/247/1
f 248/248/248/1 249/249/249/1 250/250/250/1
f 251/251/251/1 252/252/252/1 253/253/253/1
f 254/254/254/1 255/255/255/1 256/256/256/1
usemtl out38_t04
s off
f 373/373/373/1 374/374/374/1 375/375/375/1 376/376/376/1
f 377/377/377/1 378/378/378/1 379/379/379/1 380/380/380/1
f 381/381/381/1 382/382/382/1 383/383/383/1 384/384/384/1
f 385/385/385/1 386/386/386/1 387/387/387/1 388/388/388/1
f 389/389/389/1 390/390/390/1 391/391/391/1 392/392/392/1
f 393/393/393/1 394/394/394/1 395/395/395/1 396/396/396/1
f 397/397/397/1 398/398/398/1 399/399/399/1 400/400/400/1
f 401/401/401/1 402/402/402/1 403/403/403/1 404/404/404/1
f 313/313/313/1 314/314/314/1 315/315/315/1
f 316/316/316/1 317/317/317/1 318/318/318/1
f 319/319/319/1 320/320/320/1 321/321/321/1
f 322/322/322/1 323/323/323/1 324/324/324/1
f 325/325/325/1 326/326/326/1 327/327/327/1
f 328/328/328/1 329/329/329/1 330/330/330/1
f 331/331/331/1 332/332/332/1 333/333/333/1
f 334/334/334/1 335/335/335/1 336/336/336/1
f 337/337/337/1 338/338/338/1 339/339/339/1
f 340/340/340/1 341/341/341/1 342/342/342/1
f 343/343/343/1 344/344/344/1 345/345/345/1
f 346/346/346/1 347/347/347/1 348/348/348/1
f 349/349/349/1 350/350/350/1 351/351/351/1
f 352/352/352/1 353/353/353/1 354/354/354/1
f 355/355/355/1 356/356/356/1 357/357/357/1
f 358/358/358/1 359/359/359/1 360/360/360/1
f 361/361/361/1 362/362/362/1 363/363/363/1
f 364/364/364/1 365/365/365/1 366/366/366/1
f 367/367/367/1 368/368/368/1 369/369/369/1
f 370/370/370/1 371/371/371/1 372/372/372/1
usemtl out32_han1
s off
f 594/594/594/1 595/595/595/1 596/596/596/1 597/597/597/1
f 598/598/598/1 599/599/599/1 600/600/600/1 601/601/601/1
f 602/602/602/1 603/603/603/1 604/604/604/1 605/605/605/1
f 606/606/606/1 607/607/607/1 608/608/608/1 609/609/609/1
f 610/610/610/1 611/611/611/1 612/612/612/1 613/613/613/1
f 614/614/614/1 615/615/615/1 616/616/616/1 617/617/617/1
f 618/618/618/1 619/619/619/1 620/620/620/1 621/621/621/1
f 622/622/622/1 623/623/623/1 624/624/624/1 625/625/625/1
f 626/626/626/1 627/627/627/1 628/628/628/1 629/629/629/1
f 630/630/630/1 631/631/631/1 632/632/632/1 633/633/633/1
f 634/634/634/1 635/635/635/1 636/636/636/1 637/637/637/1
f 638/638/638/1 639/639/639/1 640/640/640/1 641/641/641/1
f 642/642/642/1 643/643/643/1 644/644/644/1 645/645/645/1
f 646/646/646/1 647/647/647/1 648/648/648/1 649/649/649/1
f 650/650/650/1 651/651/651/1 652/652/652/1 653/653/653/1
f 654/654/654/1 655/655/655/1 656/656/656/1 657/657/657/1
f 658/658/658/1 659/659/659/1 660/660/660/1 661/661/661/1
f 662/662/662/1 663/663/663/1 664/664/664/1 665/665/665/1
f 666/666/666/1 667/667/667/1 668/668/668/1 669/669/669/1
f 670/670/670/1 671/671/671/1 672/672/672/1 673/673/673/1
f 674/674/674/1 675/675/675/1 676/676/676/1 677/677/677/1
f 678/678/678/1 679/679/679/1 680/680/680/1 681/681/681/1
f 682/682/682/1 683/683/683/1 684/684/684/1 685/685/685/1
f 686/686/686/1 687/687/687/1 688/688/688/1 689/689/689/1
f 690/690/690/1 691/691/691/1 692/692/692/1 693/693/693/1
f 694/694/694/1 695/695/695/1 696/696/696/1 697/697/697/1
f 698/698/698/1 699/699/699/1 700/700/700/1 701/701/701/1
f 702/702/702/1 703/703/703/1 704/704/704/1 705/705/705/1
f 706/706/706/1 707/707/707/1 708/708/708/1 709/709/709/1
f 710/710/710/1 711/711/711/1 712/712/712/1 713/713/713/1
f 714/714/714/1 715/715/715/1 716/716/716/1 717/717/717/1
f 718/718/718/1 719/719/719/1 720/720/720/1 721/721/721/1
f 722/722/722/1 723/723/723/1 724/724/724/1 725/725/725/1
f 726/726/726/1 727/727/727/1 728/728/728/1 729/729/729/1
f 730/730/730/1 731/731/731/1 732/732/732/1 733/733/733/1
f 734/734/734/1 735/735/735/1 736/736/736/1 737/737/737/1
f 738/738/738/1 739/739/739/1 740/740/740/1 741/741/741/1
f 742/742/742/1 743/743/743/1 744/744/744/1 745/745/745/1
f 746/746/746/1 747/747/747/1 748/748/748/1 749/749/749/1
f 750/750/750/1 751/751/751/1 752/752/752/1 753/753/753/1
f 534/534/534/1 535/535/535/1 536/536/536/1
f 537/537/537/1 538/538/538/1 539/539/539/1
f 540/540/540/1 541/541/541/1 542/542/542/1
f 543/543/543/1 544/544/544/1 545/545/545/1
f 546/546/546/1 547/547/547/1 548/548/548/1
f 549/549/549/1 550/550/550/1 551/551/551/1
f 552/552/552/1 553/553/553/1 554/554/554/1
f 555/555/555/1 556/556/556/1 557/557/557/1
f 558/558/558/1 559/559/559/1 560/560/560/1
f 561/561/561/1 562/562/562/1 563/563/563/1
f 564/564/564/1 565/565/565/1 566/566/566/1
f 567/567/567/1 568/568/568/1 569/569/569/1
f 570/570/570/1 571/571/571/1 572/572/572/1
f 573/573/573/1 574/574/574/1 575/575/575/1
f 576/576/576/1 577/577/577/1 578/578/578/1
f 579/579/579/1 580/580/580/1 581/581/581/1
f 582/582/582/1 583/583/583/1 584/584/584/1
f 585/585/585/1 586/586/586/1 587/587/587/1
f 588/588/588/1 589/589/589/1 590/590/590/1
f 591/591/591/1 592/592/592/1 593/593/593/1
