mtllib Asteria_21_12.mtl
o map
v 3.5 15.0 0.75
v 4.0 15.0 0.0
v 4.0 16.0 0.0
v 3.5 16.0 0.75
v 4.0 15.5 0.75
v 3.0 16.0 0.0
v 3.0 15.500001 0.75
v 3.5 16.0 4.75
v 3.5 15.0 4.75
v 3.0 15.500001 4.75
v 4.0 15.5 4.75
v 3.0 15.0 5.0
v 3.0 16.0 5.0
v 4.0 15.0 5.0
v 6.0 15.5 0.75
v 6.0 16.0 0.0
v 4.0 16.0 0.0
v 4.0 15.500001 0.75
v 4.0 15.500001 4.75
v 6.0 15.5 4.75
v 6.0 15.0 5.0
v 4.0 15.0 5.0
v 6.5 13.0 0.75
v 7.0 13.0 0.0
v 7.0 14.0 0.0
v 6.5 14.0 0.75
v 7.0 13.5 0.75
v 6.0 14.0 0.0
v 6.0 13.500001 0.75
v 6.5 14.0 4.75
v 6.5 13.0 4.75
v 6.0 13.500001 4.75
v 7.0 13.5 4.75
v 6.0 13.0 5.0
v 6.0 14.0 5.0
v 7.0 13.0 5.0
v 6.5 14.0 0.75
v 7.0 14.0 0.0
v 7.0 15.0 0.0
v 6.500001 15.0 0.75
v 6.500001 15.0 4.75
v 6.5 14.0 4.75
v 6.0 14.0 5.0
v 6.0 15.0 5.0
v 6.5 15.0 0.75
v 6.75 15.75 0.0
v 6.0 15.5 0.75
v 7.0 15.0 0.0
v 6.0 16.0 0.0
v 6.0 15.5 4.75
v 6.5 15.0 4.75
v 6.0 15.0 5.0
v 10.0 13.5 0.75
v 10.0 14.0 0.0
v 7.0 14.0 0.0
v 7.0 13.500001 0.75
v 7.0 13.500001 4.75
v 10.0 13.5 4.75
v 10.0 13.0 5.0
v 7.0 13.0 5.0
v 7.501563 13.998047 0.75
v 8.001563 13.998047 0.0
v 8.001563 14.998047 0.0
v 7.501563 14.998047 0.75
v 8.001563 14.498047 0.75
v 7.001563 14.998047 0.0
v 7.001563 14.498048 0.75
v 7.001563 13.998047 1.0
v 7.001563 14.998047 1.0
v 8.001563 13.998047 1.0
v 7.5 15.0 0.75
v 8.0 15.0 0.0
v 8.0 16.0 0.0
v 7.500001 16.0 0.75
v 7.0 15.0 1.0
v 7.0 16.0 1.0
v 11.0 14.5 0.75
v 11.0 15.0 0.0
v 8.0 15.0 0.0
v 8.0 14.500001 0.75
v 11.0 14.0 1.0
v 8.0 14.0 1.0
v 8.501563 14.998047 0.75
v 9.001563 14.998047 0.0
v 9.001563 15.998047 0.0
v 8.501563 15.998047 0.75
v 9.001563 15.498047 0.75
v 8.001563 15.998047 0.0
v 8.001563 15.498048 0.75
v 8.001563 14.998047 1.0
v 8.001563 15.998047 1.0
v 9.001563 14.998047 1.0
v 12.0 15.5 0.75
v 12.0 16.0 0.0
v 9.0 16.0 0.0
v 9.0 15.500001 0.75
v 12.0 15.0 1.0
v 9.0 15.0 1.0
v 10.5 9.0 0.75
v 11.0 9.0 0.0
v 11.0 10.0 0.0
v 10.5 10.0 0.75
v 11.0 9.5 0.75
v 10.0 10.0 0.0
v 10.0 9.500001 0.75
v 10.5 10.0 4.75
v 10.5 9.0 4.75
v 10.0 9.500001 4.75
v 11.0 9.5 4.75
v 10.0 9.0 5.0
v 10.0 10.0 5.0
v 11.0 9.0 5.0
v 10.5 10.0 0.75
v 11.0 10.0 0.0
v 11.0 13.0 0.0
v 10.500001 13.0 0.75
v 10.500001 13.0 4.75
v 10.5 10.0 4.75
v 10.0 10.0 5.0
v 10.0 13.0 5.0
v 10.5 13.0 0.75
v 10.75 13.75 0.0
v 10.0 13.5 0.75
v 11.0 13.0 0.0
v 10.0 14.0 0.0
v 10.0 13.5 4.75
v 10.5 13.0 4.75
v 10.0 13.0 5.0
v 16.0 9.5 0.75
v 16.0 10.0 0.0
v 11.0 10.0 0.0
v 11.0 9.500001 0.75
v 11.0 9.500001 4.75
v 16.0 9.5 4.75
v 16.0 9.0 5.0
v 11.0 9.0 5.0
v 11.501563 9.998047 0.75
v 12.001563 9.998047 0.0
v 12.001563 10.998047 0.0
v 11.501563 10.998047 0.75
v 12.001563 10.498047 0.75
v 11.001563 10.998047 0.0
v 11.001563 10.498048 0.75
v 11.001563 9.998047 1.0
v 11.001563 10.998047 1.0
v 12.001563 9.998047 1.0
v 11.5 11.0 0.75
v 12.0 11.0 0.0
v 12.0 14.0 0.0
v 11.500001 14.0 0.75
v 11.0 11.0 1.0
v 11.0 14.0 1.0
v 11.501172 13.998047 0.75
v 11.751172 14.748047 0.0
v 11.001172 14.498047 0.75
v 12.001172 13.998047 0.0
v 11.001172 14.998047 0.0
v 11.001172 13.998047 1.0
v 16.0 10.5 0.75
v 16.0 11.0 0.0
v 12.0 11.0 0.0
v 12.0 10.500001 0.75
v 16.0 10.0 1.0
v 12.0 10.0 1.0
v 12.501563 10.998047 0.75
v 13.001563 10.998047 0.0
v 13.001563 11.998047 0.0
v 12.501563 11.998047 0.75
v 13.001563 11.498047 0.75
v 12.001563 11.998047 0.0
v 12.001563 11.498048 0.75
v 12.001563 10.998047 1.0
v 12.001563 11.998047 1.0
v 13.001563 10.998047 1.0
v 12.5 12.0 0.75
v 13.0 12.0 0.0
v 13.0 15.0 0.0
v 12.500001 15.0 0.75
v 12.0 12.0 1.0
v 12.0 15.0 1.0
v 12.501172 14.998047 0.75
v 12.751172 15.748047 0.0
v 12.001172 15.498047 0.75
v 13.001172 14.998047 0.0
v 12.001172 15.998047 0.0
v 12.001172 14.998047 1.0
v 16.0 11.5 0.75
v 16.0 12.0 0.0
v 13.0 12.0 0.0
v 13.0 11.500001 0.75
v 16.0 11.0 1.0
v 13.0 11.0 1.0
v 16.75 15.75 0.23437381
v 13.0 15.75 0.23437381
v 13.0 12.0 0.23437381
v 16.75 12.0 0.23437381
v 13.0 13.874999 5.9375
v 16.75 13.874999 5.9375
v 16.75 13.875 0.23437381
v 13.0 13.875 0.23437381
v 14.875 11.999999 5.937499
v 14.875 15.749999 5.9375
v 14.875 15.75 0.23437381
v 14.875 12.0 0.23437381
v 16.75 12.0 2.0312488
v 16.75 15.75 2.0312488
v 13.0 15.75 2.0312488
v 13.0 12.0 2.0312488
vt 0.0 0.0
vt 0.0 -1.0
vt 1.0 -1.0
vt 1.0 0.0
vt 0.0 0.0
vt 0.0 -1.0
vt 1.0 -1.0
vt 1.0 0.0
vt 5.3E-5 2.2E-5
vt 5.4E-5 -0.999978
vt 1.000053 -0.999978
vt 1.000003 -1.42E-4
vt 5.3E-5 2.2E-5
vt 5.4E-5 -0.999978
vt 1.000053 -0.999978
vt 1.000003 -1.42E-4
vt 0.001343 0.001992
vt 1.00034 0.001992
vt 1.00034 0.998008
vt 0.001343 0.998008
vt -0.0 0.001992
vt 1.0 0.001992
vt 1.0 0.998008
vt -0.0 0.998008
vt 0.0 0.0
vt 0.0 -1.0
vt 2.0 -1.0
vt 2.0 0.0
vt 1.06E-4 2.2E-5
vt 1.08E-4 -0.999978
vt 2.000106 -0.999978
vt 2.000006 -1.42E-4
vt 0.0 0.001992
vt 2.0 0.001992
vt 2.0 0.998008
vt 0.0 0.998008
vt 0.0 0.0
vt 0.0 -1.0
vt 1.0 -1.0
vt 1.0 0.0
vt 0.0 0.0
vt 0.0 -1.0
vt 1.0 -1.0
vt 1.0 0.0
vt 5.3E-5 2.2E-5
vt 5.4E-5 -0.999978
vt 1.000053 -0.999978
vt 1.000003 -1.42E-4
vt 5.3E-5 2.2E-5
vt 5.4E-5 -0.999978
vt 1.000053 -0.999978
vt 1.000003 -1.42E-4
vt 0.001343 0.001992
vt 1.00034 0.001992
vt 1.00034 0.998008
vt 0.001343 0.998008
vt -0.0 0.001992
vt 1.0 0.001992
vt 1.0 0.998008
vt -0.0 0.998008
vt 0.0 0.0
vt 0.0 -1.0
vt 1.0 -1.0
vt 1.0 0.0
vt 5.3E-5 2.2E-5
vt 5.4E-5 -0.999978
vt 1.000053 -0.999978
vt 1.000003 -1.42E-4
vt 0.0 0.001992
vt 1.0 0.001992
vt 1.0 0.998008
vt 0.0 0.998008
vt 0.0 0.0
vt 0.5 -1.0
vt 1.0 0.0
vt 0.0 -1.0
vt 1.0 -1.0
vt 0.500579 -8.2E-5
vt 0.0 -0.999918
vt 1.0 -0.999918
vt 0.0 0.001992
vt 1.0 0.001992
vt 1.0 0.998008
vt 0.0 0.998008
vt 0.0 0.0
vt 0.0 -1.0
vt 3.0 -1.0
vt 3.0 0.0
vt 1.59E-4 2.2E-5
vt 1.62E-4 -0.999978
vt 3.0001593 -0.999978
vt 3.000009 -1.42E-4
vt 0.0 0.001992
vt 3.0 0.001992
vt 3.0 0.998008
vt 0.0 0.998008
vt 0.0 0.0
vt 0.0 -1.0
vt 1.0 -1.0
vt 1.0 0.0
vt 0.0 0.0
vt 0.0 -1.0
vt 1.0 -1.0
vt 1.0 0.0
vt 5.3E-5 0.0
vt 5.4E-5 -0.999978
vt 1.000053 -0.999978
vt 1.000003 0.0
vt 5.3E-5 0.0
vt 5.4E-5 -0.999978
vt 1.000053 -0.999978
vt 1.000003 0.0
vt 0.0 0.0
vt 0.0 -1.0
vt 1.0 -1.0
vt 1.0 0.0
vt 0.0 -6.0E-5
vt 0.0 -1.0
vt 1.000053 -1.0
vt 1.000003 -6.0E-5
vt 0.0 0.0
vt 0.0 -1.0
vt 3.0 -1.0
vt 3.0 0.0
vt 0.0 -6.0E-5
vt 0.0 -1.0
vt 3.0001593 -1.0
vt 3.000009 -6.0E-5
vt 0.0 0.0
vt 0.0 -1.0
vt 1.0 -1.0
vt 1.0 0.0
vt 0.0 0.0
vt 0.0 -1.0
vt 1.0 -1.0
vt 1.0 0.0
vt 5.3E-5 0.0
vt 5.4E-5 -0.999978
vt 1.000053 -0.999978
vt 1.000003 0.0
vt 5.3E-5 0.0
vt 5.4E-5 -0.999978
vt 1.000053 -0.999978
vt 1.000003 0.0
vt 0.0 0.0
vt 0.0 -1.0
vt 3.0 -1.0
vt 3.0 0.0
vt 0.0 -6.0E-5
vt 0.0 -1.0
vt 3.0001593 -1.0
vt 3.000009 -6.0E-5
vt 0.0 0.0
vt 0.0 -1.0
vt 1.0 -1.0
vt 1.0 0.0
vt 0.0 0.0
vt 0.0 -1.0
vt 1.0 -1.0
vt 1.0 0.0
vt 5.3E-5 2.2E-5
vt 5.4E-5 -0.999978
vt 1.000053 -0.999978
vt 1.000003 -1.42E-4
vt 5.3E-5 2.2E-5
vt 5.4E-5 -0.999978
vt 1.000053 -0.999978
vt 1.000003 -1.42E-4
vt 0.001343 0.001992
vt 1.00034 0.001992
vt 1.00034 0.998008
vt 0.001343 0.998008
vt -0.0 0.001992
vt 1.0 0.001992
vt 1.0 0.998008
vt -0.0 0.998008
vt 0.0 0.0
vt 0.0 -1.0
vt 3.0 -1.0
vt 3.0 0.0
vt 1.59E-4 2.2E-5
vt 1.62E-4 -0.999978
vt 3.0001593 -0.999978
vt 3.000009 -1.42E-4
vt 0.0 0.001992
vt 3.0 0.001992
vt 3.0 0.998008
vt 0.0 0.998008
vt 0.0 0.0
vt 0.5 -1.0
vt 1.0 0.0
vt 0.0 -1.0
vt 1.0 -1.0
vt 0.500579 -8.2E-5
vt 0.0 -0.999918
vt 1.0 -0.999918
vt 0.0 0.001992
vt 1.0 0.001992
vt 1.0 0.998008
vt 0.0 0.998008
vt 0.0 0.0
vt 0.0 -1.0
vt 5.0 -1.0
vt 5.0 0.0
vt 2.65E-4 2.2E-5
vt 2.7E-4 -0.999978
vt 5.000265 -0.999978
vt 5.000015 -1.42E-4
vt 0.0 0.001992
vt 5.0 0.001992
vt 5.0 0.998008
vt 0.0 0.998008
vt 0.0 0.0
vt 0.0 -1.0
vt 1.0 -1.0
vt 1.0 0.0
vt 0.0 0.0
vt 0.0 -1.0
vt 1.0 -1.0
vt 1.0 0.0
vt 5.3E-5 0.0
vt 5.4E-5 -0.999978
vt 1.000053 -0.999978
vt 1.000003 0.0
vt 5.3E-5 0.0
vt 5.4E-5 -0.999978
vt 1.000053 -0.999978
vt 1.000003 0.0
vt 0.0 0.0
vt 0.0 -1.0
vt 3.0 -1.0
vt 3.0 0.0
vt 0.0 -6.0E-5
vt 0.0 -1.0
vt 3.0001593 -1.0
vt 3.000009 -6.0E-5
vt 0.0 0.0
vt 0.5 -1.0
vt 1.0 0.0
vt 0.0 -1.0
vt 1.0 -1.0
vt 0.500579 -8.2E-5
vt 0.0 -0.999918
vt 1.0 -0.999918
vt 0.0 0.0
vt 0.0 -1.0
vt 4.0 -1.0
vt 4.0 0.0
vt 0.0 -6.0E-5
vt 0.0 -1.0
vt 4.000212 -1.0
vt 4.000012 -6.0E-5
vt 0.0 0.0
vt 0.0 -1.0
vt 1.0 -1.0
vt 1.0 0.0
vt 0.0 0.0
vt 0.0 -1.0
vt 1.0 -1.0
vt 1.0 0.0
vt 5.3E-5 0.0
vt 5.4E-5 -0.999978
vt 1.000053 -0.999978
vt 1.000003 0.0
vt 5.3E-5 0.0
vt 5.4E-5 -0.999978
vt 1.000053 -0.999978
vt 1.000003 0.0
vt 0.0 0.0
vt 0.0 -1.0
vt 3.0 -1.0
vt 3.0 0.0
vt 0.0 -6.0E-5
vt 0.0 -1.0
vt 3.0001593 -1.0
vt 3.000009 -6.0E-5
vt 0.0 0.0
vt 0.5 -1.0
vt 1.0 0.0
vt 0.0 -1.0
vt 1.0 -1.0
vt 0.500579 -8.2E-5
vt 0.0 -0.999918
vt 1.0 -0.999918
vt 0.0 0.0
vt 0.0 -1.0
vt 3.0 -1.0
vt 3.0 0.0
vt 0.0 -6.0E-5
vt 0.0 -1.0
vt 3.0001593 -1.0
vt 3.000009 -6.0E-5
vt 0.0 -1.0
vt -1.0 -1.0
vt -1.0 -2.0
vt 0.0 -2.0
vt 0.0 0.0
vt 0.0 -1.0
vt -1.0 -1.0
vt -1.0 0.0
vt 0.0 0.0
vt -1.0 0.0
vt -1.0 -1.0
vt 0.0 -1.0
vt 0.0 -2.0
vt 0.0 -1.0
vt -1.0 -1.0
vt -1.0 -2.0
vn 0.9571 0.0 0.2898
vn 0.8321 0.0 0.5547
vn 0.5145 0.5145 0.686
vn 0.0 0.9571 0.2898
vn 0.0 0.8321 0.5547
vn 0.2357 0.2357 0.9428
vn 0.8507 0.0 0.5257
vn 0.4472 0.0 0.8944
vn 0.0 0.4472 0.8944
vn 0.0 0.8507 0.5257
vn 0.0 0.9945 0.1047
vn 0.0 0.8321 0.5547
vn -0.0237 -0.0314 0.9992
vn 0.0 0.9932 0.1168
vn 0.9571 0.0 0.2898
vn 0.8321 0.0 0.5547
vn 0.5145 0.5145 0.686
vn 0.0 0.9571 0.2898
vn 0.0 0.8321 0.5547
vn 0.2357 0.2357 0.9428
vn 0.8507 0.0 0.5257
vn 0.4472 0.0 0.8944
vn 0.0 0.4472 0.8944
vn 0.0 0.8507 0.5257
vn 0.9945 -0.0 0.1047
vn 0.8321 -0.0 0.5547
vn -0.0314 0.0237 0.9992
vn 0.9932 -0.0 0.1168
vn 0.9894 0.0355 0.1406
vn 0.5609 0.5609 0.609
vn 0.0781 0.9832 0.1648
vn 0.8498 0.0198 0.5267
vn 0.056 0.7882 0.6129
vn -0.0237 -0.0314 0.9992
vn 0.7069 0.7069 0.0245
vn 0.0 0.9945 0.1047
vn 0.0 0.8321 0.5547
vn -0.0237 -0.0314 0.9992
vn 0.0 0.9932 0.1168
vn -0.0189 -0.0 0.9998
vn -0.0188 -0.0 0.9998
vn 0.8321 0.0 0.5547
vn 0.7071 0.0 0.7071
vn 0.0 0.7071 0.7071
vn 0.1841 -0.0188 0.9827
vn 0.1841 -0.0187 0.9827
vn 0.7071 -0.0 0.7071
vn 0.8321 -0.0 0.5547
vn 0.0434 0.0 0.9991
vn 0.0 0.7071 0.7071
vn 0.0 0.8321 0.5547
vn -0.0 0.0434 0.9991
vn -0.0189 -0.0 0.9998
vn -0.0188 -0.0 0.9998
vn 0.8321 0.0 0.5547
vn 0.7071 0.0 0.7071
vn 0.0 0.7071 0.7071
vn 0.1841 -0.0188 0.9827
vn 0.1841 -0.0187 0.9827
vn 0.0 0.7071 0.7071
vn 0.0 0.8321 0.5547
vn -0.0 0.0434 0.9991
vn 0.9571 0.0 0.2898
vn 0.8321 0.0 0.5547
vn 0.5145 0.5145 0.686
vn 0.0 0.9571 0.2898
vn 0.0 0.8321 0.5547
vn 0.2357 0.2357 0.9428
vn 0.8507 0.0 0.5257
vn 0.4472 0.0 0.8944
vn 0.0 0.4472 0.8944
vn 0.0 0.8507 0.5257
vn 0.9945 -0.0 0.1047
vn 0.8321 -0.0 0.5547
vn -0.0314 0.0237 0.9992
vn 0.9932 -0.0 0.1168
vn 0.9894 0.0355 0.1406
vn 0.5609 0.5609 0.609
vn 0.0781 0.9832 0.1648
vn 0.8498 0.0198 0.5267
vn 0.056 0.7882 0.6129
vn -0.0237 -0.0314 0.9992
vn 0.7069 0.7069 0.0245
vn 0.0 0.9945 0.1047
vn 0.0 0.8321 0.5547
vn -0.0237 -0.0314 0.9992
vn 0.0 0.9932 0.1168
vn -0.0189 -0.0 0.9998
vn -0.0188 -0.0 0.9998
vn 0.8321 0.0 0.5547
vn 0.7071 0.0 0.7071
vn 0.0 0.7071 0.7071
vn 0.1841 -0.0188 0.9827
vn 0.1841 -0.0187 0.9827
vn 0.7071 -0.0 0.7071
vn 0.8321 -0.0 0.5547
vn 0.0434 0.0 0.9991
vn 0.6947 0.0309 0.7186
vn 0.5609 0.5609 0.609
vn 0.028 0.7246 0.6886
vn 0.8515 0.0338 0.5233
vn -0.0025 0.844 0.5364
vn 0.0062 0.0149 0.9999
vn 0.0 0.7071 0.7071
vn 0.0 0.8321 0.5547
vn -0.0 0.0434 0.9991
vn -0.0189 -0.0 0.9998
vn -0.0188 -0.0 0.9998
vn 0.8321 0.0 0.5547
vn 0.7071 0.0 0.7071
vn 0.0 0.7071 0.7071
vn 0.1841 -0.0188 0.9827
vn 0.1841 -0.0187 0.9827
vn 0.7071 -0.0 0.7071
vn 0.8321 -0.0 0.5547
vn 0.0434 0.0 0.9991
vn 0.6947 0.0309 0.7186
vn 0.5609 0.5609 0.609
vn 0.028 0.7246 0.6886
vn 0.8515 0.0338 0.5233
vn -0.0025 0.844 0.5364
vn 0.0062 0.0149 0.9999
vn 0.0 0.7071 0.7071
vn 0.0 0.8321 0.5547
vn -0.0 0.0434 0.9991
vn 0.0 0.0 1.0
vn -1.0 0.0 -0.0
vn 1.0 0.0 0.0
c 1.0 1.0 1.0
c 1.0 1.0 1.0
c 1.0 1.0 1.0
c 1.0 1.0 1.0
c 1.0 1.0 1.0
c 1.0 1.0 1.0
c 1.0 1.0 1.0
c 1.0 1.0 1.0
c 1.0 1.0 1.0
c 1.0 1.0 1.0
c 1.0 1.0 1.0
c 1.0 1.0 1.0
c 1.0 1.0 1.0
c 1.0 1.0 1.0
c 1.0 1.0 1.0
c 1.0 1.0 1.0
c 1.0 1.0 1.0
c 1.0 1.0 1.0
c 1.0 1.0 1.0
c 1.0 1.0 1.0
c 1.0 1.0 1.0
c 1.0 1.0 1.0
c 1.0 1.0 1.0
c 1.0 1.0 1.0
usemtl ki02ax
s off
f 197/297/127/24 200/298/128/24 199/299/127/24 198/300/128/24
f 201/301/126/24 202/302/126/24 203/303/126/24 204/304/126/24
usemtl ki02c
s off
f 193/293/126/24 194/294/126/24 195/295/126/24 196/296/126/24
usemtl ki02bx
s off
f 205/305/126/24 206/306/126/24 207/307/126/24 208/308/126/24
usemtl gake01
s off
f 61/97/40/7 62/98/41/7 63/99/42/7 64/100/43/7
f 65/101/43/7 63/102/42/7 66/103/44/7 67/104/45/7
f 71/113/47/8 72/114/48/8 73/115/48/8 74/116/47/8
f 77/121/50/9 78/122/51/9 79/123/51/9 80/124/50/9
f 83/129/53/10 84/130/54/10 85/131/55/10 86/132/56/10
f 87/133/56/10 85/134/55/10 88/135/57/10 89/136/58/10
f 93/145/60/11 94/146/61/11 95/147/61/11 96/148/60/11
f 137/213/88/16 138/214/89/16 139/215/90/16 140/216/91/16
f 141/217/91/16 139/218/90/16 142/219/92/16 143/220/93/16
f 147/229/95/17 148/230/96/17 149/231/96/17 150/232/95/17
f 159/245/104/19 160/246/105/19 161/247/105/19 162/248/104/19
f 165/253/107/20 166/254/108/20 167/255/109/20 168/256/110/20
f 169/257/110/20 167/258/109/20 170/259/111/20 171/260/112/20
f 175/269/114/21 176/270/115/21 177/271/115/21 178/272/114/21
f 187/285/123/23 188/286/124/23 189/287/124/23 190/288/123/23
f 153/237/98/18 154/238/99/18 155/239/100/18
f 153/237/98/18 156/240/101/18 154/238/99/18
f 155/239/100/18 154/238/99/18 157/241/102/18
f 181/277/117/22 182/278/118/22 183/279/119/22
f 181/277/117/22 184/280/120/22 182/278/118/22
f 183/279/119/22 182/278/118/22 185/281/121/22
usemtl ga_s01a
s off
f 1/1/1/1 2/2/2/1 3/3/3/1 4/4/1/1
f 5/5/4/1 3/6/3/1 6/7/5/1 7/8/4/1
f 15/25/11/2 16/26/12/2 17/27/12/2 18/28/11/2
f 23/37/15/3 24/38/16/3 25/39/17/3 26/40/15/3
f 27/41/18/3 25/42/17/3 28/43/19/3 29/44/18/3
f 37/61/25/4 38/62/26/4 39/63/26/4 40/64/25/4
f 53/85/36/6 54/86/37/6 55/87/37/6 56/88/36/6
f 99/153/63/12 100/154/64/12 101/155/65/12 102/156/63/12
f 103/157/66/12 101/158/65/12 104/159/67/12 105/160/66/12
f 113/177/73/13 114/178/74/13 115/179/74/13 116/180/73/13
f 129/201/84/15 130/202/85/15 131/203/85/15 132/204/84/15
f 45/73/29/5 46/74/30/5 47/75/31/5
f 45/73/29/5 48/76/32/5 46/74/30/5
f 47/75/31/5 46/74/30/5 49/77/33/5
f 121/189/77/14 122/190/78/14 123/191/79/14
f 121/189/77/14 124/192/80/14 122/190/78/14
f 123/191/79/14 122/190/78/14 125/193/81/14
usemtl ga_s1_0
s off
f 12/9/6/1 9/10/7/1 8/11/7/1 13/12/8/1
f 14/13/9/1 11/14/10/1 10/15/10/1 12/16/6/1
f 21/29/13/2 20/30/14/2 19/31/14/2 22/32/13/2
f 34/45/20/3 31/46/21/3 30/47/21/3 35/48/22/3
f 36/49/23/3 33/50/24/3 32/51/24/3 34/52/20/3
f 43/65/27/4 42/66/28/4 41/67/28/4 44/68/27/4
f 59/89/38/6 58/90/39/6 57/91/39/6 60/92/38/6
f 110/161/68/12 107/162/69/12 106/163/69/12 111/164/70/12
f 112/165/71/12 109/166/72/12 108/167/72/12 110/168/68/12
f 119/181/75/13 118/182/76/13 117/183/76/13 120/184/75/13
f 135/205/86/15 134/206/87/15 133/207/87/15 136/208/86/15
f 52/78/34/5 51/79/35/5 50/80/35/5
f 128/194/82/14 127/195/83/14 126/196/83/14
usemtl yamaga_s01
s off
f 1/17/1/1 4/18/1/1 8/19/7/1 9/20/7/1
f 5/21/4/1 7/22/4/1 10/23/10/1 11/24/10/1
f 15/33/11/2 18/34/11/2 19/35/14/2 20/36/14/2
f 23/53/15/3 26/54/15/3 30/55/21/3 31/56/21/3
f 27/57/18/3 29/58/18/3 32/59/24/3 33/60/24/3
f 37/69/25/4 40/70/25/4 41/71/28/4 42/72/28/4
f 45/81/29/5 47/82/31/5 50/83/35/5 51/84/35/5
f 53/93/36/6 56/94/36/6 57/95/39/6 58/96/39/6
f 99/169/63/12 102/170/63/12 106/171/69/12 107/172/69/12
f 103/173/66/12 105/174/66/12 108/175/72/12 109/176/72/12
f 113/185/73/13 116/186/73/13 117/187/76/13 118/188/76/13
f 121/197/77/14 123/198/79/14 126/199/83/14 127/200/83/14
f 129/209/84/15 132/210/84/15 133/211/87/15 134/212/87/15
usemtl gake1_4
s off
f 68/105/46/7 61/106/40/7 64/107/43/7 69/108/46/7
f 70/109/42/7 65/110/43/7 67/111/45/7 68/112/46/7
f 75/117/49/8 71/118/47/8 74/119/47/8 76/120/49/8
f 81/125/52/9 77/126/50/9 80/127/50/9 82/128/52/9
f 90/137/59/10 83/138/53/10 86/139/56/10 91/140/59/10
f 92/141/55/10 87/142/56/10 89/143/58/10 90/144/59/10
f 97/149/62/11 93/150/60/11 96/151/60/11 98/152/62/11
f 144/221/94/16 137/222/88/16 140/223/91/16 145/224/94/16
f 146/225/90/16 141/226/91/16 143/227/93/16 144/228/94/16
f 151/233/97/17 147/234/95/17 150/235/95/17 152/236/97/17
f 163/249/106/19 159/250/104/19 162/251/104/19 164/252/106/19
f 172/261/113/20 165/262/107/20 168/263/110/20 173/264/113/20
f 174/265/109/20 169/266/110/20 171/267/112/20 172/268/113/20
f 179/273/116/21 175/274/114/21 178/275/114/21 180/276/116/21
f 191/289/125/23 187/290/123/23 190/291/123/23 192/292/125/23
f 158/242/103/18 153/243/98/18 155/244/100/18
f 186/282/122/22 181/283/117/22 183/284/119/22
