mtllib Asteria_05_34.mtl
o map
v -13.072266 -2.6855469 -4.798828
v -13.072266 -3.6875 -4.798828
v -12.572266 -4.1875 -4.798828
v -12.572266 -3.1855469 -4.798828
v -13.072266 -3.6875 -4.798828
v -14.072266 -3.6875 -4.798828
v -13.572266 -4.1875 -4.798828
v -12.572266 -4.1875 -4.798828
v -9.072266 -2.6855469 -4.798828
v -9.072266 -3.6875 -4.798828
v -8.572266 -4.1875 -4.798828
v -8.572266 -3.1855469 -4.798828
v -9.072266 -3.6875 -4.798828
v -10.072266 -3.6875 -4.798828
v -9.572266 -4.1875 -4.798828
v -8.572266 -4.1875 -4.798828
v -16.0 12.058594 7.0585938
v -16.0 9.302734 4.3027344
v -15.060547 9.306641 4.3066406
v -13.214844 12.052734 7.0527344
v -13.464844 2.6425781 -2.3574219
v -6.4101562 2.6640625 -2.3359375
v -6.7128906 3.8222656 -1.1777344
v -13.7109375 3.8144531 -1.1855469
v -11.388672 8.701172 3.7011719
v -12.927734 5.876953 0.87890625
v -5.8554688 5.9140625 0.9140625
v -5.404297 9.328125 4.328125
v -13.671875 16.857422 11.857422
v -16.0 16.847656 11.847656
v -16.0 15.490234 10.4921875
v -12.658203 15.5234375 10.5234375
v 5.5859375 3.1210938 6.4609375
v -2.2285156 3.1210938 6.4609375
v -1.6523438 -1.0644531 6.8535156
v 5.361328 -0.91015625 5.8007812
v 5.5859375 3.1210938 6.4609375
v 1.4824219 -1.5371094 6.3652344
v 1.4824219 -1.5371094 6.3652344
v 5.5859375 3.1210938 6.4609375
v -1.6523438 -1.0644531 6.8535156
v -2.3535156 3.1210938 6.2109375
v 0.4609375 3.1210938 6.2109375
v 0.23242188 10.208984 12.357422
v -0.7675781 10.208984 12.357422
v -1.0429688 15.277344 18.09375
v 4.9570312 15.277344 18.09375
v 5.408203 18.126953 20.675781
v -1.5175781 18.126953 20.675781
v -0.6425781 10.208984 12.607422
v 5.357422 10.208984 12.607422
v 4.9570312 15.277344 18.09375
v -1.0429688 15.277344 18.09375
v -2.2285156 3.1210938 6.4609375
v 5.5859375 3.1210938 6.4609375
v 5.357422 10.208984 12.607422
v -0.6425781 10.208984 12.607422
v 3.9941406 -8.3515625 -5.3515625
v 4.0703125 -7.6308594 -2.1757812
v 3.0292969 -8.0 -5.0
v 4.0703125 -7.6308594 -2.1757812
v 2.4042969 -7.2089844 -5.0
v 3.0292969 -8.0 -5.0
v 1.3339844 -5.2246094 -5.0
v 2.4042969 -7.2089844 -5.0
v 1.4160156 -4.5664062 -2.1757812
v 2.4042969 -7.2089844 -5.0
v 4.0703125 -7.6308594 -2.1757812
v 1.4160156 -4.5664062 -2.1757812
v 1.4824219 -3.0253906 5.0878906
v 4.0703125 -6.1152344 3.0996094
v 5.361328 -3.9707031 4.7265625
v 4.0703125 -6.1152344 3.0996094
v 8.339844 -7.205078 2.3808594
v 5.361328 -3.9707031 4.7265625
v 6.7460938 -8.308594 -2.0253906
v 4.0703125 -7.6308594 -2.1757812
v 3.9941406 -8.3515625 -5.3515625
v 6.9492188 -8.357422 -5.3554688
v 1.4824219 -3.0253906 5.0878906
v 1.4160156 -4.5664062 -2.1757812
v 4.0703125 -7.6308594 -2.1757812
v 4.0703125 -6.1152344 3.0996094
v 4.0703125 -6.1152344 3.0996094
v 4.0703125 -7.6308594 -2.1757812
v 6.7460938 -8.308594 -2.0253906
v 8.339844 -7.205078 2.3808594
v -4.1054688 19.0 14.0
v -5.779297 19.0 14.0
v -5.875 17.44336 12.4453125
v -4.107422 17.44336 12.4453125
v -4.107422 17.44336 12.4453125
v -5.875 17.44336 12.4453125
v -6.0839844 16.873047 11.875
v -4.6933594 16.873047 11.875
v -4.6933594 16.873047 11.875
v -6.0839844 16.873047 11.875
v -6.3125 15.544922 10.544922
v -4.7539062 15.544922 10.544922
v -4.7539062 15.544922 10.544922
v -6.3125 15.544922 10.544922
v -5.8242188 14.552734 9.552734
v -4.4960938 14.552734 9.552734
v -4.4960938 14.552734 9.552734
v -5.8242188 14.552734 9.552734
v -5.501953 14.082031 9.083984
v -3.828125 14.082031 9.083984
v -3.828125 14.082031 9.083984
v -5.501953 14.082031 9.083984
v -5.4609375 12.042969 7.0429688
v -4.029297 12.064453 7.064453
v -4.029297 12.064453 7.064453
v -5.4609375 12.042969 7.0429688
v -5.404297 9.328125 4.328125
v -3.7285156 9.328125 4.328125
v -3.7285156 9.328125 4.328125
v -5.404297 9.328125 4.328125
v -5.8554688 5.9140625 0.9140625
v -4.1816406 5.9140625 0.9140625
v -4.1816406 5.9140625 0.9140625
v -5.8554688 5.9140625 0.9140625
v -6.7128906 3.8222656 -1.1777344
v -5.326172 3.8222656 -1.1777344
v -5.326172 3.8222656 -1.1777344
v -6.7128906 3.8222656 -1.1777344
v -6.4101562 2.6640625 -2.3359375
v -4.9785156 2.6640625 -2.3359375
v -4.9785156 2.6640625 -2.3359375
v -6.4101562 2.6640625 -2.3359375
v -6.658203 0.0 -5.0
v -5.1757812 0.0 -5.0
v -2.2265625 -5.5585938 -5.0
v -2.8828125 -4.6035156 -5.0
v -4.404297 -4.7597656 -5.0
v 1.3339844 -5.2246094 -5.0
v 0.09765625 -5.8828125 -5.0
v 2.4042969 -7.2089844 -5.0
v -0.74609375 -8.0 -5.0
v 0.09765625 -5.8828125 -5.0
v -1.1816406 -8.0 -5.0
v 0.09765625 -5.8828125 -5.0
v -0.9628906 -5.9921875 -5.0
v -1.1816406 -8.0 -5.0
v -1.1816406 -8.0 -5.0
v -0.9628906 -5.9921875 -5.0
v -3.6875 -7.546875 -5.0
v -0.9628906 -5.9921875 -5.0
v -2.2265625 -5.5585938 -5.0
v -3.6875 -7.546875 -5.0
v -0.74609375 -8.0 -5.0
v 3.0292969 -8.0 -5.0
v 2.4042969 -7.2089844 -5.0
v 0.09765625 -5.8828125 -5.0
v -3.6875 -7.546875 -5.0
v -2.2265625 -5.5585938 -5.0
v -4.404297 -4.7597656 -5.0
v -5.6210938 -5.986328 -5.0
v -5.6210938 -5.986328 -5.0
v -4.404297 -4.7597656 -5.0
v -5.171875 -4.607422 -5.0
v -6.8964844 -4.607422 -5.0
v -6.8964844 -4.607422 -5.0
v -5.171875 -4.607422 -5.0
v -5.919922 -3.4160156 -5.0
v -7.6445312 -3.4160156 -5.0
v -7.6445312 -3.4160156 -5.0
v -5.919922 -3.4160156 -5.0
v -6.0078125 -2.2773438 -5.0
v -7.732422 -2.2773438 -5.0
v -7.732422 -2.2773438 -5.0
v -6.0078125 -2.2773438 -5.0
v -5.1757812 0.0 -5.0
v -6.658203 0.0 -5.0
v -16.0 0.0 -5.0
v -16.0 -4.4746094 -5.0
v -9.666016 -3.7226562 -5.0
v -7.6445312 -3.4160156 -5.0
v -7.732422 -2.2773438 -5.0
v -8.449219 -3.0449219 -5.0
v -8.449219 -3.0449219 -5.0
v -9.666016 -3.7226562 -5.0
v -6.1308594 -6.0839844 -5.0
v -7.732422 -2.2773438 -5.0
v -6.658203 0.0 -5.0
v -16.0 0.0 -5.0
v -1.1816406 -8.0 -5.0
v -3.6875 -7.546875 -5.0
v -16.0 -8.0 -5.0
v -3.6875 -7.546875 -5.0
v -6.1308594 -6.0839844 -5.0
v -16.0 -8.0 -5.0
v -16.0 -8.0 -5.0
v -6.1308594 -6.0839844 -5.0
v -16.0 -4.4746094 -5.0
v -6.1308594 -6.0839844 -5.0
v -9.666016 -3.7226562 -5.0
v -16.0 -4.4746094 -5.0
v -7.732422 -2.2773438 -5.0
v -16.0 0.0 -5.0
v -8.449219 -3.0449219 -5.0
v -16.0 0.0 -5.0
v -9.666016 -3.7226562 -5.0
v -8.449219 -3.0449219 -5.0
v -6.8964844 -4.607422 -5.0
v -6.1308594 -6.0839844 -5.0
v -5.6210938 -5.986328 -5.0
v -6.1308594 -6.0839844 -5.0
v -3.6875 -7.546875 -5.0
v -5.6210938 -5.986328 -5.0
v -6.8964844 -4.607422 -5.0
v -7.6445312 -3.4160156 -5.0
v -8.449219 -3.0449219 -5.0
v -6.1308594 -6.0839844 -5.0
v -5.8242188 14.552734 9.552734
v -6.3125 15.544922 10.544922
v -12.658203 15.5234375 10.5234375
v -11.388672 8.701172 3.7011719
v -5.404297 9.328125 4.328125
v -15.060547 9.306641 4.3066406
v -16.0 2.625 -2.375
v -16.0 0.0 -5.0
v -13.464844 2.6425781 -2.3574219
v -13.214844 12.052734 7.0527344
v -5.4609375 12.042969 7.0429688
v -5.501953 14.082031 9.083984
v -6.0839844 16.873047 11.875
v -5.875 17.44336 12.4453125
v -13.671875 16.857422 11.857422
v -16.0 16.847656 11.847656
v -13.671875 16.857422 11.857422
v -16.0 17.410156 12.410156
v -13.671875 16.857422 11.857422
v -5.875 17.44336 12.4453125
v -16.0 17.410156 12.410156
v -6.0839844 16.873047 11.875
v -13.671875 16.857422 11.857422
v -12.658203 15.5234375 10.5234375
v -6.3125 15.544922 10.544922
v -13.214844 12.052734 7.0527344
v -15.060547 9.306641 4.3066406
v -5.404297 9.328125 4.328125
v -5.4609375 12.042969 7.0429688
v -16.0 0.0 -5.0
v -6.658203 0.0 -5.0
v -6.4101562 2.6640625 -2.3359375
v -13.464844 2.6425781 -2.3574219
v -16.0 3.8066406 -1.1914062
v -16.0 2.625 -2.375
v -13.464844 2.6425781 -2.3574219
v -13.7109375 3.8144531 -1.1855469
v -5.875 17.44336 12.4453125
v -5.779297 19.0 14.0
v -16.0 19.0 14.0
v -16.0 17.410156 12.410156
v -16.0 12.058594 7.0585938
v -13.214844 12.052734 7.0527344
v -5.501953 14.082031 9.083984
v -16.0 14.025391 9.025391
v -16.0 14.025391 9.025391
v -5.501953 14.082031 9.083984
v -5.8242188 14.552734 9.552734
v -16.0 14.509766 9.511719
v -16.0 14.509766 9.511719
v -5.8242188 14.552734 9.552734
v -12.658203 15.5234375 10.5234375
v -16.0 15.490234 10.4921875
v -6.7128906 3.8222656 -1.1777344
v -5.8554688 5.9140625 0.9140625
v -12.927734 5.876953 0.87890625
v -13.7109375 3.8144531 -1.1855469
v -13.7109375 3.8144531 -1.1855469
v -12.927734 5.876953 0.87890625
v -16.0 5.8398438 0.8417969
v -16.0 3.8066406 -1.1914062
v -16.0 5.8398438 0.8417969
v -12.927734 5.876953 0.87890625
v -11.388672 8.701172 3.7011719
v -16.0 8.669922 3.671875
v -16.0 8.669922 3.671875
v -11.388672 8.701172 3.7011719
v -15.060547 9.306641 4.3066406
v -16.0 9.302734 4.3027344
v -2.9042969 -3.9042969 -2.1757812
v -3.53125 -1.8203125 2.2578125
v -4.9765625 -4.095703 -2.1757812
v -5.919922 -3.4160156 -5.0
v -5.171875 -4.607422 -5.0
v -4.9765625 -4.095703 -2.1757812
v -5.171875 -4.607422 -5.0
v -4.404297 -4.7597656 -5.0
v -4.9765625 -4.095703 -2.1757812
v -4.9765625 -4.095703 -2.1757812
v -4.404297 -4.7597656 -5.0
v -2.9042969 -3.9042969 -2.1757812
v -4.404297 -4.7597656 -5.0
v -2.8828125 -4.6035156 -5.0
v -2.9042969 -3.9042969 -2.1757812
v -2.9042969 -3.9042969 -2.1757812
v -2.8828125 -4.6035156 -5.0
v -2.2265625 -5.5585938 -5.0
v 1.3339844 -5.2246094 -5.0
v 1.4160156 -4.5664062 -2.1757812
v 0.09765625 -5.8828125 -5.0
v 1.4160156 -4.5664062 -2.1757812
v -0.9765625 -5.267578 -2.1757812
v 0.09765625 -5.8828125 -5.0
v 0.09765625 -5.8828125 -5.0
v -0.9765625 -5.267578 -2.1757812
v -0.9628906 -5.9921875 -5.0
v -0.9765625 -5.267578 -2.1757812
v -2.2265625 -5.5585938 -5.0
v -0.9628906 -5.9921875 -5.0
v -6.0078125 -2.2773438 -5.0
v -5.919922 -3.4160156 -5.0
v -5.7597656 -2.1191406 -2.1757812
v -5.919922 -3.4160156 -5.0
v -4.9765625 -4.095703 -2.1757812
v -5.7597656 -2.1191406 -2.1757812
v -5.7597656 -2.1191406 -2.1757812
v -4.9765625 -4.095703 -2.1757812
v -4.828125 -1.7460938 1.5292969
v -4.9765625 -4.095703 -2.1757812
v -3.53125 -1.8203125 2.2578125
v -4.828125 -1.7460938 1.5292969
v -2.2265625 -5.5585938 -5.0
v -0.9765625 -5.267578 -2.1757812
v -2.9042969 -3.9042969 -2.1757812
v -0.9765625 -5.267578 -2.1757812
v -0.38671875 -2.7753906 6.689453
v -2.9042969 -3.9042969 -2.1757812
v -2.9042969 -3.9042969 -2.1757812
v -0.38671875 -2.7753906 6.689453
v -3.53125 -1.8203125 2.2578125
v -0.38671875 -2.7753906 6.689453
v -1.6523438 -1.0644531 6.8535156
v -3.53125 -1.8203125 2.2578125
v -0.38671875 -2.7753906 6.689453
v -0.9765625 -5.267578 -2.1757812
v 1.4824219 -3.0253906 5.0878906
v -0.9765625 -5.267578 -2.1757812
v 1.4160156 -4.5664062 -2.1757812
v 1.4824219 -3.0253906 5.0878906
v -0.38671875 -2.7753906 6.689453
v 1.4824219 -3.0253906 5.0878906
v 2.9453125 -2.5 5.638672
v 1.4824219 -3.0253906 5.0878906
v 5.361328 -3.9707031 4.7265625
v 2.9453125 -2.5 5.638672
v 2.9453125 -2.5 5.638672
v 1.4824219 -1.5371094 6.3652344
v -0.38671875 -2.7753906 6.689453
v 1.4824219 -1.5371094 6.3652344
v -1.6523438 -1.0644531 6.8535156
v -0.38671875 -2.7753906 6.689453
v 5.361328 -3.9707031 4.7265625
v 7.7148438 -3.875 4.4316406
v 5.857422 -2.5 5.513672
v 2.9453125 -2.5 5.638672
v 2.9453125 -2.5 5.638672
v 5.857422 -2.5 5.513672
v 5.361328 -0.91015625 5.8007812
v 1.4824219 -1.5371094 6.3652344
v -3.4023438 3.359375 5.796875
v -2.2285156 3.1210938 6.4609375
v -2.9824219 4.8984375 6.5976562
v -3.7285156 9.328125 4.328125
v -2.8671875 9.3671875 6.8242188
v -4.029297 12.064453 7.064453
v -2.8671875 9.3671875 6.8242188
v -3.2402344 13.826172 11.855469
v -4.029297 12.064453 7.064453
v -4.029297 12.064453 7.064453
v -3.2402344 13.826172 11.855469
v -3.828125 14.082031 9.083984
v -3.2402344 13.826172 11.855469
v -4.4960938 14.552734 9.552734
v -3.828125 14.082031 9.083984
v -4.6933594 16.873047 11.875
v -4.7539062 15.544922 10.544922
v -4.5039062 15.183594 13.324219
v -4.7539062 15.544922 10.544922
v -4.4960938 14.552734 9.552734
v -4.5039062 15.183594 13.324219
v -4.5039062 15.183594 13.324219
v -4.4960938 14.552734 9.552734
v -3.2402344 13.826172 11.855469
v -2.9824219 4.8984375 6.5976562
v -4.2871094 3.6816406 4.8964844
v -3.4023438 3.359375 5.796875
v -4.2871094 3.6816406 4.8964844
v -3.5703125 2.5332031 4.0058594
v -3.4023438 3.359375 5.796875
v -3.4023438 3.359375 5.796875
v -3.5703125 2.5332031 4.0058594
v -2.2285156 3.1210938 6.4609375
v -5.326172 3.8222656 -1.1777344
v -5.0859375 3.7636719 2.3242188
v -4.1816406 5.9140625 0.9140625
v -5.0859375 3.7636719 2.3242188
v -3.5253906 5.435547 3.3242188
v -4.1816406 5.9140625 0.9140625
v -5.7597656 -2.1191406 -2.1757812
v -4.828125 -1.7460938 1.5292969
v -4.705078 0.060546875 -1.3867188
v -4.828125 -1.7460938 1.5292969
v -3.7714844 -0.2421875 2.3183594
v -4.705078 0.060546875 -1.3867188
v -4.107422 17.44336 12.4453125
v -4.6933594 16.873047 11.875
v -3.3300781 17.101562 15.1328125
v -4.6933594 16.873047 11.875
v -4.5039062 15.183594 13.324219
v -3.3300781 17.101562 15.1328125
v -3.2402344 13.826172 11.855469
v -2.5175781 13.455078 15.298828
v -4.5039062 15.183594 13.324219
v -2.5175781 13.455078 15.298828
v -3.0371094 14.8125 17.029297
v -4.5039062 15.183594 13.324219
v -2.4726562 18.988281 18.960938
v -2.3964844 16.730469 17.615234
v -1.5175781 18.126953 20.675781
v -2.3964844 16.730469 17.615234
v -1.0429688 15.277344 18.09375
v -1.5175781 18.126953 20.675781
v -2.5175781 13.455078 15.298828
v -1.0429688 15.277344 18.09375
v -3.0371094 14.8125 17.029297
v -1.0429688 15.277344 18.09375
v -2.3964844 16.730469 17.615234
v -3.0371094 14.8125 17.029297
v -4.828125 -1.7460938 1.5292969
v -3.53125 -1.8203125 2.2578125
v -3.7714844 -0.2421875 2.3183594
v -3.53125 -1.8203125 2.2578125
v -1.6523438 -1.0644531 6.8535156
v -3.7714844 -0.2421875 2.3183594
v -5.0859375 3.7636719 2.3242188
v -4.2871094 3.6816406 4.8964844
v -3.5253906 5.435547 3.3242188
v -4.2871094 3.6816406 4.8964844
v -2.9824219 4.8984375 6.5976562
v -3.5253906 5.435547 3.3242188
v 16.0 -13.0 -17.125
v 16.0 19.0 -15.125
v -16.0 19.0 -15.125
v -16.0 -13.0 -17.125
v -5.7597656 -2.1191406 -2.1757812
v -4.705078 0.060546875 -1.3867188
v -5.1757812 0.0 -5.0
v -6.0078125 -2.2773438 -5.0
v -3.0371094 14.8125 17.029297
v -2.3964844 16.730469 17.615234
v -3.3300781 17.101562 15.1328125
v -4.5039062 15.183594 13.324219
v -1.6523438 -1.0644531 6.8535156
v -2.2285156 3.1210938 6.4609375
v -3.5703125 2.5332031 4.0058594
v -3.7714844 -0.2421875 2.3183594
v -3.7714844 -0.2421875 2.3183594
v -3.5703125 2.5332031 4.0058594
v -4.482422 2.4628906 0.9941406
v -4.705078 0.060546875 -1.3867188
v -4.705078 0.060546875 -1.3867188
v -4.482422 2.4628906 0.9941406
v -4.9785156 2.6640625 -2.3359375
v -5.1757812 0.0 -5.0
v -3.7285156 9.328125 4.328125
v -4.1816406 5.9140625 0.9140625
v -3.5253906 5.435547 3.3242188
v -2.8671875 9.3671875 6.8242188
v -2.8671875 9.3671875 6.8242188
v -3.5253906 5.435547 3.3242188
v -2.9824219 4.8984375 6.5976562
v -2.1445312 9.253906 10.529297
v -2.1445312 9.253906 10.529297
v -2.9824219 4.8984375 6.5976562
v -2.2285156 3.1210938 6.4609375
v -0.6425781 10.208984 12.607422
v -4.1054688 19.0 14.0
v -4.107422 17.44336 12.4453125
v -3.3300781 17.101562 15.1328125
v -3.4003906 18.988281 17.138672
v -3.4003906 18.988281 17.138672
v -3.3300781 17.101562 15.1328125
v -2.3964844 16.730469 17.615234
v -2.4726562 18.988281 18.960938
v -3.5703125 2.5332031 4.0058594
v -4.2871094 3.6816406 4.8964844
v -5.0859375 3.7636719 2.3242188
v -4.482422 2.4628906 0.9941406
v -4.482422 2.4628906 0.9941406
v -5.0859375 3.7636719 2.3242188
v -5.326172 3.8222656 -1.1777344
v -4.9785156 2.6640625 -2.3359375
v -3.2402344 13.826172 11.855469
v -2.8671875 9.3671875 6.8242188
v -2.1445312 9.253906 10.529297
v -2.5175781 13.455078 15.298828
v -2.5175781 13.455078 15.298828
v -2.1445312 9.253906 10.529297
v -0.6425781 10.208984 12.607422
v -1.0429688 15.277344 18.09375
v -13.322266 -3.4394531 0.20117188
v -13.822266 -3.4394531 0.20117188
v -14.072266 -3.6875 0.20117188
v -13.072266 -3.6875 0.20117188
v -13.2265625 -3.546875 -0.59375
v -13.2265625 -3.546875 -0.8027344
v -13.2265625 -2.8359375 -0.8027344
v -13.2265625 -2.8359375 -0.59375
v -13.2265625 -2.8359375 -0.59375
v -13.2265625 -2.8359375 -0.8027344
v -13.919922 -2.8359375 -0.8027344
v -13.919922 -2.8359375 -0.59375
v -13.2265625 -3.546875 -0.22460938
v -13.2265625 -3.546875 -0.59375
v -13.2265625 -2.8359375 -0.59375
v -13.2265625 -2.8359375 -0.22460938
v -13.2265625 -2.8359375 -0.22460938
v -13.2265625 -2.8359375 -0.59375
v -13.919922 -2.8359375 -0.59375
v -13.919922 -2.8359375 -0.22460938
v -13.919922 -2.8359375 -0.59375
v -13.919922 -2.8359375 -0.8027344
v -13.919922 -3.546875 -0.8027344
v -13.919922 -3.546875 -0.59375
v -13.919922 -3.546875 -0.59375
v -13.919922 -3.546875 -0.8027344
v -13.2265625 -3.546875 -0.8027344
v -13.2265625 -3.546875 -0.59375
v -13.919922 -2.8359375 -0.22460938
v -13.919922 -2.8359375 -0.59375
v -13.919922 -3.546875 -0.59375
v -13.919922 -3.546875 -0.22460938
v -13.919922 -3.546875 -0.22460938
v -13.919922 -3.546875 -0.59375
v -13.2265625 -3.546875 -0.59375
v -13.2265625 -3.546875 -0.22460938
v -13.072266 -3.6875 0.20117188
v -13.072266 -3.6875 -0.22460938
v -13.072266 -2.6855469 -0.22460938
v -13.072266 -2.6855469 0.20117188
v -13.072266 -2.6855469 0.20117188
v -13.072266 -2.6855469 -0.22460938
v -14.072266 -2.6855469 -0.22460938
v -14.072266 -2.6855469 0.20117188
v -14.072266 -2.6855469 0.20117188
v -14.072266 -2.6855469 -0.22460938
v -14.072266 -3.6875 -0.22460938
v -14.072266 -3.6875 0.20117188
v -14.072266 -3.6875 0.20117188
v -14.072266 -3.6875 -0.22460938
v -13.072266 -3.6875 -0.22460938
v -13.072266 -3.6875 0.20117188
v -13.2265625 -3.546875 -4.0058594
v -13.2265625 -2.8359375 -4.0058594
v -13.2265625 -2.8359375 -3.796875
v -13.2265625 -3.546875 -3.796875
v -13.2265625 -2.8359375 -4.0058594
v -13.919922 -2.8359375 -4.0058594
v -13.919922 -2.8359375 -3.796875
v -13.2265625 -2.8359375 -3.796875
v -13.2265625 -3.546875 -4.373047
v -13.2265625 -2.8359375 -4.373047
v -13.2265625 -2.8359375 -4.0058594
v -13.2265625 -3.546875 -4.0058594
v -13.2265625 -2.8359375 -4.373047
v -13.919922 -2.8359375 -4.373047
v -13.919922 -2.8359375 -4.0058594
v -13.2265625 -2.8359375 -4.0058594
v -13.919922 -2.8359375 -4.0058594
v -13.919922 -3.546875 -4.0058594
v -13.919922 -3.546875 -3.796875
v -13.919922 -2.8359375 -3.796875
v -13.919922 -3.546875 -4.0058594
v -13.2265625 -3.546875 -4.0058594
v -13.2265625 -3.546875 -3.796875
v -13.919922 -3.546875 -3.796875
v -13.919922 -2.8359375 -4.373047
v -13.919922 -3.546875 -4.373047
v -13.919922 -3.546875 -4.0058594
v -13.919922 -2.8359375 -4.0058594
v -13.919922 -3.546875 -4.373047
v -13.2265625 -3.546875 -4.373047
v -13.2265625 -3.546875 -4.0058594
v -13.919922 -3.546875 -4.0058594
v -13.072266 -3.6875 -4.798828
v -13.072266 -2.6855469 -4.798828
v -13.072266 -2.6855469 -4.373047
v -13.072266 -3.6875 -4.373047
v -13.072266 -2.6855469 -4.798828
v -14.072266 -2.6855469 -4.798828
v -14.072266 -2.6855469 -4.373047
v -13.072266 -2.6855469 -4.373047
v -13.228516 -3.546875 -4.373047
v -13.072266 -3.6875 -4.373047
v -13.072266 -2.6855469 -4.373047
v -13.2265625 -2.8359375 -4.373047
v -13.2265625 -2.8359375 -4.373047
v -13.072266 -2.6855469 -4.373047
v -14.072266 -2.6855469 -4.373047
v -13.919922 -2.8359375 -4.373047
v -14.072266 -2.6855469 -4.798828
v -14.072266 -3.6875 -4.798828
v -14.072266 -3.6875 -4.373047
v -14.072266 -2.6855469 -4.373047
v -14.072266 -3.6875 -4.798828
v -13.072266 -3.6875 -4.798828
v -13.072266 -3.6875 -4.373047
v -14.072266 -3.6875 -4.373047
v -13.919922 -2.8359375 -4.373047
v -14.072266 -2.6855469 -4.373047
v -14.072266 -3.6875 -4.373047
v -13.919922 -3.546875 -4.373047
v -13.919922 -3.546875 -4.373047
v -14.072266 -3.6875 -4.373047
v -13.072266 -3.6875 -4.373047
v -13.2265625 -3.546875 -4.373047
v -9.822266 -2.9394531 0.20117188
v -9.822266 -3.4394531 0.20117188
v -9.322266 -3.4394531 0.20117188
v -9.322266 -2.9394531 0.20117188
v -9.322266 -2.9394531 0.20117188
v -9.322266 -3.4394531 0.20117188
v -9.072266 -3.6875 0.20117188
v -9.072266 -2.6855469 0.20117188
v -9.822266 -2.9394531 0.20117188
v -9.322266 -2.9394531 0.20117188
v -9.072266 -2.6855469 0.20117188
v -10.072266 -2.6855469 0.20117188
v -9.822266 -3.4394531 0.20117188
v -9.822266 -2.9394531 0.20117188
v -10.072266 -2.6855469 0.20117188
v -10.072266 -3.6875 0.20117188
v -9.322266 -3.4394531 0.20117188
v -9.822266 -3.4394531 0.20117188
v -10.072266 -3.6875 0.20117188
v -9.072266 -3.6875 0.20117188
v -9.2265625 -3.546875 -0.59375
v -9.2265625 -3.546875 -0.8027344
v -9.2265625 -2.8359375 -0.8027344
v -9.2265625 -2.8359375 -0.59375
v -9.2265625 -2.8359375 -0.59375
v -9.2265625 -2.8359375 -0.8027344
v -9.919922 -2.8359375 -0.8027344
v -9.919922 -2.8359375 -0.59375
v -13.822266 -2.9394531 0.20117188
v -13.822266 -3.4394531 0.20117188
v -13.322266 -3.4394531 0.20117188
v -13.322266 -2.9394531 0.20117188
v -13.322266 -2.9394531 0.20117188
v -13.322266 -3.4394531 0.20117188
v -13.072266 -3.6875 0.20117188
v -13.072266 -2.6855469 0.20117188
v -9.2265625 -3.546875 -0.22460938
v -9.2265625 -3.546875 -0.59375
v -9.2265625 -2.8359375 -0.59375
v -9.2265625 -2.8359375 -0.22460938
v -9.2265625 -2.8359375 -0.22460938
v -9.2265625 -2.8359375 -0.59375
v -9.919922 -2.8359375 -0.59375
v -9.919922 -2.8359375 -0.22460938
v -9.919922 -2.8359375 -0.59375
v -9.919922 -2.8359375 -0.8027344
v -9.919922 -3.546875 -0.8027344
v -9.919922 -3.546875 -0.59375
v -9.919922 -3.546875 -0.59375
v -9.919922 -3.546875 -0.8027344
v -9.2265625 -3.546875 -0.8027344
v -9.2265625 -3.546875 -0.59375
v -13.822266 -2.9394531 0.20117188
v -13.322266 -2.9394531 0.20117188
v -13.072266 -2.6855469 0.20117188
v -14.072266 -2.6855469 0.20117188
v -13.822266 -3.4394531 0.20117188
v -13.822266 -2.9394531 0.20117188
v -14.072266 -2.6855469 0.20117188
v -14.072266 -3.6875 0.20117188
v -9.919922 -2.8359375 -0.22460938
v -9.919922 -2.8359375 -0.59375
v -9.919922 -3.546875 -0.59375
v -9.919922 -3.546875 -0.22460938
v -9.919922 -3.546875 -0.22460938
v -9.919922 -3.546875 -0.59375
v -9.2265625 -3.546875 -0.59375
v -9.2265625 -3.546875 -0.22460938
v -9.072266 -3.6875 0.20117188
v -9.072266 -3.6875 -0.22460938
v -9.072266 -2.6855469 -0.22460938
v -9.072266 -2.6855469 0.20117188
v -9.072266 -2.6855469 0.20117188
v -9.072266 -2.6855469 -0.22460938
v -10.072266 -2.6855469 -0.22460938
v -10.072266 -2.6855469 0.20117188
v -10.072266 -2.6855469 0.20117188
v -10.072266 -2.6855469 -0.22460938
v -10.072266 -3.6875 -0.22460938
v -10.072266 -3.6875 0.20117188
v -10.072266 -3.6875 0.20117188
v -10.072266 -3.6875 -0.22460938
v -9.072266 -3.6875 -0.22460938
v -9.072266 -3.6875 0.20117188
v -9.2265625 -3.546875 -4.0058594
v -9.2265625 -2.8359375 -4.0058594
v -9.2265625 -2.8359375 -3.796875
v -9.2265625 -3.546875 -3.796875
v -9.2265625 -2.8359375 -4.0058594
v -9.919922 -2.8359375 -4.0058594
v -9.919922 -2.8359375 -3.796875
v -9.2265625 -2.8359375 -3.796875
v -9.2265625 -3.546875 -4.373047
v -9.2265625 -2.8359375 -4.373047
v -9.2265625 -2.8359375 -4.0058594
v -9.2265625 -3.546875 -4.0058594
v -9.2265625 -2.8359375 -4.373047
v -9.919922 -2.8359375 -4.373047
v -9.919922 -2.8359375 -4.0058594
v -9.2265625 -2.8359375 -4.0058594
v -9.919922 -2.8359375 -4.0058594
v -9.919922 -3.546875 -4.0058594
v -9.919922 -3.546875 -3.796875
v -9.919922 -2.8359375 -3.796875
v -9.919922 -3.546875 -4.0058594
v -9.2265625 -3.546875 -4.0058594
v -9.2265625 -3.546875 -3.796875
v -9.919922 -3.546875 -3.796875
v -9.919922 -2.8359375 -4.373047
v -9.919922 -3.546875 -4.373047
v -9.919922 -3.546875 -4.0058594
v -9.919922 -2.8359375 -4.0058594
v -9.919922 -3.546875 -4.373047
v -9.2265625 -3.546875 -4.373047
v -9.2265625 -3.546875 -4.0058594
v -9.919922 -3.546875 -4.0058594
v -9.072266 -3.6875 -4.798828
v -9.072266 -2.6855469 -4.798828
v -9.072266 -2.6855469 -4.373047
v -9.072266 -3.6875 -4.373047
v -9.072266 -2.6855469 -4.798828
v -10.072266 -2.6855469 -4.798828
v -10.072266 -2.6855469 -4.373047
v -9.072266 -2.6855469 -4.373047
v -9.228516 -3.546875 -4.373047
v -9.072266 -3.6875 -4.373047
v -9.072266 -2.6855469 -4.373047
v -9.2265625 -2.8359375 -4.373047
v -9.2265625 -2.8359375 -4.373047
v -9.072266 -2.6855469 -4.373047
v -10.072266 -2.6855469 -4.373047
v -9.919922 -2.8359375 -4.373047
v -10.072266 -2.6855469 -4.798828
v -10.072266 -3.6875 -4.798828
v -10.072266 -3.6875 -4.373047
v -10.072266 -2.6855469 -4.373047
v -10.072266 -3.6875 -4.798828
v -9.072266 -3.6875 -4.798828
v -9.072266 -3.6875 -4.373047
v -10.072266 -3.6875 -4.373047
v -9.919922 -2.8359375 -4.373047
v -10.072266 -2.6855469 -4.373047
v -10.072266 -3.6875 -4.373047
v -9.919922 -3.546875 -4.373047
v -9.919922 -3.546875 -4.373047
v -10.072266 -3.6875 -4.373047
v -9.072266 -3.6875 -4.373047
v -9.2265625 -3.546875 -4.373047
v -13.919922 -2.8359375 -0.8027344
v -13.2265625 -2.8359375 -0.8027344
v -13.2265625 -2.8359375 -2.8867188
v -13.919922 -2.8359375 -2.8867188
v -13.919922 -2.8359375 -2.8867188
v -13.2265625 -2.8359375 -2.8867188
v -13.2265625 -2.8359375 -3.796875
v -13.919922 -2.8359375 -3.796875
v -13.919922 -3.546875 -0.8027344
v -13.919922 -2.8359375 -0.8027344
v -13.919922 -2.8359375 -2.8867188
v -13.919922 -3.546875 -2.8867188
v -13.919922 -3.546875 -2.8867188
v -13.919922 -2.8359375 -2.8867188
v -13.919922 -2.8359375 -3.796875
v -13.919922 -3.546875 -3.796875
v -13.2265625 -3.546875 -0.8027344
v -13.919922 -3.546875 -0.8027344
v -13.919922 -3.546875 -2.8867188
v -13.2265625 -3.546875 -2.8867188
v -13.2265625 -3.546875 -2.8867188
v -13.919922 -3.546875 -2.8867188
v -13.919922 -3.546875 -3.796875
v -13.2265625 -3.546875 -3.796875
v -13.2265625 -2.8359375 -0.8027344
v -13.2265625 -3.546875 -0.8027344
v -13.2265625 -3.546875 -2.8867188
v -13.2265625 -2.8359375 -2.8867188
v -13.2265625 -2.8359375 -2.8867188
v -13.2265625 -3.546875 -2.8867188
v -13.2265625 -3.546875 -3.796875
v -13.2265625 -2.8359375 -3.796875
v -9.2265625 -2.8359375 -0.8027344
v -9.2265625 -3.546875 -0.8027344
v -9.2265625 -3.546875 -2.8867188
v -9.2265625 -2.8359375 -2.8867188
v -9.2265625 -2.8359375 -2.8867188
v -9.2265625 -3.546875 -2.8867188
v -9.2265625 -3.546875 -3.796875
v -9.2265625 -2.8359375 -3.796875
v -9.919922 -2.8359375 -0.8027344
v -9.2265625 -2.8359375 -0.8027344
v -9.2265625 -2.8359375 -2.8867188
v -9.919922 -2.8359375 -2.8867188
v -9.919922 -2.8359375 -2.8867188
v -9.2265625 -2.8359375 -2.8867188
v -9.2265625 -2.8359375 -3.796875
v -9.919922 -2.8359375 -3.796875
v -9.919922 -3.546875 -0.8027344
v -9.919922 -2.8359375 -0.8027344
v -9.919922 -2.8359375 -2.8867188
v -9.919922 -3.546875 -2.8867188
v -9.919922 -3.546875 -2.8867188
v -9.919922 -2.8359375 -2.8867188
v -9.919922 -2.8359375 -3.796875
v -9.919922 -3.546875 -3.796875
v -9.2265625 -3.546875 -0.8027344
v -9.919922 -3.546875 -0.8027344
v -9.919922 -3.546875 -2.8867188
v -9.2265625 -3.546875 -2.8867188
v -9.2265625 -3.546875 -2.8867188
v -9.919922 -3.546875 -2.8867188
v -9.919922 -3.546875 -3.796875
v -9.2265625 -3.546875 -3.796875
vt 0.0 1.0
vt 1.0 1.0
vt 1.0 0.0
vt 0.0 0.0
vt 0.0 1.0
vt 1.0 1.0
vt 1.0 0.0
vt 0.0 0.0
vt 0.0 1.0
vt 1.0 1.0
vt 1.0 0.0
vt 0.0 0.0
vt 0.0 1.0
vt 1.0 1.0
vt 1.0 0.0
vt 0.0 0.0
vt 4.9208984 -0.15234375
vt 4.9208984 -1.3984375
vt 4.557617 -1.3964844
vt 3.84375 -0.15429688
vt 3.9394531 -4.4101562
vt 2.7578125 -4.4003906
vt 2.875 -3.8769531
vt 4.0351562 -3.8808594
vt 3.1367188 -1.671875
vt 3.7324219 -2.9472656
vt 2.5439453 -2.9316406
vt 2.3691406 -1.3867188
vt 4.020508 2.0195312
vt 4.9208984 2.0136719
vt 4.9208984 1.4003906
vt 3.6289062 1.4140625
vt 0.0 0.8828125
vt 0.98828125 0.9375
vt 0.98828125 0.8203125
vt 0.98828125 0.8046875
vt 0.0 0.90625
vt 0.98828125 1.0
vt 0.98828125 0.8046875
vt 0.0 0.90625
vt 0.98828125 1.0
vt 0.0234375 1.0703125
vt 0.0234375 1.0703125
vt 0.0234375 1.0703125
vt 0.0234375 1.0703125
vt 0.984375 1.8125
vt 0.0234375 1.8125
vt 0.0234375 1.890625
vt 0.984375 1.890625
vt 0.984375 1.8125
vt 0.0234375 1.8125
vt 0.0234375 1.890625
vt 0.984375 1.890625
vt 0.984375 1.8125
vt 0.0234375 1.8125
vt 0.0234375 1.890625
vt 0.984375 1.890625
vt 2.0791016 0.018554688
vt 2.086914 0.38964844
vt 2.1699219 0.018554688
vt 2.086914 0.38964844
vt 2.2597656 0.018554688
vt 2.1699219 0.018554688
vt 2.3779297 0.018554688
vt 2.2597656 0.018554688
vt 2.3759766 0.41503906
vt 2.2597656 0.018554688
vt 2.086914 0.38964844
vt 2.3759766 0.41503906
vt 2.3779297 0.9453125
vt 2.102539 0.74121094
vt 2.0458984 0.90722656
vt 2.102539 0.74121094
vt 1.8105469 0.9892578
vt 2.0458984 0.90722656
vt 1.7304688 0.6347656
vt 2.086914 0.38964844
vt 2.0791016 0.018554688
vt 1.7177734 0.018554688
vt 2.3779297 0.9453125
vt 2.3759766 0.41503906
vt 2.086914 0.38964844
vt 2.102539 0.74121094
vt 2.102539 0.74121094
vt 2.086914 0.38964844
vt 1.7304688 0.6347656
vt 1.8105469 0.9892578
vt 2.0429688 2.9882812
vt 2.6914062 2.9882812
vt 2.6914062 2.2832031
vt 2.0429688 2.2832031
vt 2.0429688 2.2832031
vt 2.6914062 2.2832031
vt 2.6914062 2.0253906
vt 2.0429688 2.0253906
vt 2.0429688 2.0253906
vt 2.6914062 2.0253906
vt 2.6914062 1.4257812
vt 2.0429688 1.4257812
vt 2.0429688 1.4257812
vt 2.6914062 1.4257812
vt 2.6914062 0.9765625
vt 2.0429688 0.9765625
vt 2.0429688 0.9765625
vt 2.6914062 0.9765625
vt 2.6914062 0.7636719
vt 2.0429688 0.7636719
vt 2.0429688 0.7636719
vt 2.6914062 0.7636719
vt 2.6914062 -0.15820312
vt 2.0429688 -0.1484375
vt 2.0429688 -0.1484375
vt 2.6914062 -0.15820312
vt 2.6914062 -1.3867188
vt 2.0429688 -1.3867188
vt 2.0429688 -1.3867188
vt 2.6914062 -1.3867188
vt 2.6914062 -2.9316406
vt 2.0429688 -2.9316406
vt 2.0429688 -2.9316406
vt 2.6914062 -2.9316406
vt 2.6914062 -3.8769531
vt 2.0429688 -3.8769531
vt 2.0429688 -3.8769531
vt 2.6914062 -3.8769531
vt 2.6914062 -4.4003906
vt 2.0429688 -4.4003906
vt 2.0429688 -4.4003906
vt 2.6914062 -4.4003906
vt 2.6914062 -5.6054688
vt 2.0429688 -5.6054688
vt 0.24609375 0.2265625
vt 0.26953125 0.31640625
vt 0.31640625 0.30078125
vt 0.13671875 0.2578125
vt 0.17578125 0.19726562
vt 0.05859375 0.07421875
vt 0.87109375 0.0
vt 0.17578125 0.19726562
vt 0.984375 0.0
vt 0.17578125 0.19726562
vt 0.20703125 0.1875
vt 0.984375 0.0
vt 0.984375 0.0
vt 0.20703125 0.1875
vt 0.984375 0.04296875
vt 0.20703125 0.1875
vt 0.24609375 0.2265625
vt 0.984375 0.04296875
vt 0.87109375 0.0
vt 0.0 0.0
vt 0.05859375 0.07421875
vt 0.17578125 0.19726562
vt 0.984375 0.04296875
vt 0.24609375 0.2265625
vt 0.31640625 0.30078125
vt 0.984375 0.1875
vt 0.984375 0.1875
vt 0.31640625 0.30078125
vt 0.33984375 0.31445312
vt 0.984375 0.31445312
vt 0.984375 0.31445312
vt 0.33984375 0.31445312
vt 0.359375 0.42578125
vt 0.984375 0.42578125
vt 0.984375 0.42578125
vt 0.359375 0.42578125
vt 0.36328125 0.53125
vt 0.984375 0.53125
vt 0.984375 0.53125
vt 0.36328125 0.53125
vt 0.33984375 0.7441406
vt 0.984375 0.7441406
vt 0.9667969 0.9941406
vt 0.9667969 0.44726562
vt -0.27148438 0.53515625
vt -0.6660156 0.57421875
vt -0.6484375 0.7109375
vt -0.5078125 0.6191406
vt -0.5078125 0.6191406
vt -0.27148438 0.5371094
vt -0.9609375 0.25390625
vt -0.6484375 0.7109375
vt -0.8535156 0.9941406
vt 0.9667969 0.9941406
vt -1.9296875 0.0234375
vt -1.4394531 0.078125
vt 0.9667969 0.0234375
vt -1.4394531 0.078125
vt -0.9609375 0.25390625
vt 0.9667969 0.0234375
vt 0.9667969 0.0234375
vt -0.9609375 0.25390625
vt 0.9667969 0.44726562
vt -0.9609375 0.25390625
vt -0.27148438 0.5371094
vt 0.9667969 0.44726562
vt -0.6484375 0.7050781
vt 0.9667969 0.9941406
vt -0.5078125 0.61328125
vt 0.9667969 0.9941406
vt -0.27148438 0.5332031
vt -0.5078125 0.61328125
vt -0.8125 0.43164062
vt -0.9609375 0.25390625
vt -1.0605469 0.265625
vt -0.9609375 0.25390625
vt -1.4394531 0.078125
vt -1.0605469 0.265625
vt -0.8125 0.43164062
vt -0.6660156 0.57421875
vt -0.5078125 0.6191406
vt -0.9609375 0.25390625
vt 2.53125 0.9765625
vt 2.7207031 1.4257812
vt 3.6289062 1.4140625
vt 3.1367188 -1.671875
vt 2.3691406 -1.3867188
vt 4.557617 -1.3964844
vt 4.9208984 -4.4179688
vt 4.9208984 -5.6054688
vt 3.9394531 -4.4101562
vt 3.84375 -0.15429688
vt 2.390625 -0.15820312
vt 2.4072266 0.7636719
vt 2.631836 2.0253906
vt 2.5507812 2.2832031
vt 4.020508 2.0195312
vt 4.9208984 2.0136719
vt 4.020508 2.0195312
vt 4.9208984 2.2695312
vt 4.020508 2.0195312
vt 2.5507812 2.2832031
vt 4.9208984 2.2695312
vt 2.631836 2.0253906
vt 4.020508 2.0195312
vt 3.6289062 1.4140625
vt 2.7207031 1.4257812
vt 3.84375 -0.15429688
vt 4.557617 -1.3964844
vt 2.3691406 -1.3867188
vt 2.390625 -0.15820312
vt 4.9208984 -5.6054688
vt 2.8447266 -5.6054688
vt 2.7578125 -4.4003906
vt 3.9394531 -4.4101562
vt 4.9208984 -3.8847656
vt 4.9208984 -4.4179688
vt 3.9394531 -4.4101562
vt 4.0351562 -3.8808594
vt 2.5507812 2.2832031
vt 2.5146484 2.9882812
vt 4.9208984 2.9882812
vt 4.9208984 2.2695312
vt 4.9208984 -0.15234375
vt 3.84375 -0.15429688
vt 2.4072266 0.7636719
vt 4.9208984 0.73828125
vt 4.9208984 0.73828125
vt 2.4072266 0.7636719
vt 2.53125 0.9765625
vt 4.9208984 0.95703125
vt 4.9208984 0.95703125
vt 2.53125 0.9765625
vt 3.6289062 1.4140625
vt 4.9208984 1.4003906
vt 2.875 -3.8769531
vt 2.5439453 -2.9316406
vt 3.7324219 -2.9472656
vt 4.0351562 -3.8808594
vt 4.0351562 -3.8808594
vt 3.7324219 -2.9472656
vt 4.9208984 -2.9648438
vt 4.9208984 -3.8847656
vt 4.9208984 -2.9648438
vt 3.7324219 -2.9472656
vt 3.1367188 -1.671875
vt 4.9208984 -1.6835938
vt 4.9208984 -1.6835938
vt 3.1367188 -1.671875
vt 4.557617 -1.3964844
vt 4.9208984 -1.3984375
vt 2.7333984 0.3486328
vt 2.9101562 0.5078125
vt 2.8964844 0.20410156
vt 2.961914 0.018554688
vt 2.9111328 0.018554688
vt 2.8964844 0.20410156
vt 2.9111328 0.018554688
vt 2.8417969 0.018554688
vt 2.8964844 0.20410156
vt 2.8964844 0.20410156
vt 2.8417969 0.018554688
vt 2.7333984 0.3486328
vt 2.8417969 0.018554688
vt 2.725586 0.018554688
vt 2.7333984 0.3486328
vt 2.7333984 0.3486328
vt 2.725586 0.018554688
vt 2.6523438 0.018554688
vt 2.3779297 0.018554688
vt 2.3759766 0.41503906
vt 2.4570312 0.018554688
vt 2.3759766 0.41503906
vt 2.555664 0.35546875
vt 2.4570312 0.018554688
vt 2.4570312 0.018554688
vt 2.555664 0.35546875
vt 2.5478516 0.018554688
vt 2.555664 0.35546875
vt 2.6523438 0.018554688
vt 2.5478516 0.018554688
vt 2.9990234 0.018554688
vt 2.961914 0.018554688
vt 2.9990234 0.20996094
vt 2.961914 0.018554688
vt 2.8964844 0.20410156
vt 2.9990234 0.20996094
vt 2.9990234 0.20996094
vt 2.8964844 0.20410156
vt 2.9990234 0.51660156
vt 2.8964844 0.20410156
vt 2.9101562 0.5078125
vt 2.9990234 0.51660156
vt 2.6523438 0.018554688
vt 2.555664 0.35546875
vt 2.7333984 0.3486328
vt 2.555664 0.35546875
vt 2.5283203 0.9824219
vt 2.7333984 0.3486328
vt 2.7333984 0.3486328
vt 2.5283203 0.9824219
vt 2.9101562 0.5078125
vt 2.5283203 0.9824219
vt 2.9707031 0.96972656
vt 2.9101562 0.5078125
vt 2.5283203 0.9824219
vt 2.555664 0.35546875
vt 2.3779297 0.9453125
vt 2.555664 0.35546875
vt 2.3759766 0.41503906
vt 2.3779297 0.9453125
vt 2.3759766 0.99316406
vt 2.3779297 0.99316406
vt 2.555664 0.99316406
vt 2.3779297 0.99316406
vt 2.5283203 0.99316406
vt 2.555664 0.99316406
vt 2.5283203 0.9951172
vt 2.9707031 0.9951172
vt 2.5283203 0.9873047
vt 2.9707031 0.9951172
vt 2.9707031 0.9873047
vt 2.5283203 0.9873047
vt 2.3779297 0.99316406
vt 2.5283203 0.99316406
vt 2.555664 0.99316406
vt 2.3759766 0.99316406
vt 2.5283203 0.9873047
vt 2.5283203 0.9951172
vt 2.9707031 0.9951172
vt 2.9707031 0.9873047
vt 3.5742188 0.7714844
vt 3.5742188 0.96972656
vt 3.7714844 0.6796875
vt 4.1552734 0.015625
vt 4.256836 0.2109375
vt 4.8935547 0.015625
vt 4.256836 0.2109375
vt 5.3007812 0.20996094
vt 4.8935547 0.015625
vt 4.8935547 0.015625
vt 5.3007812 0.20996094
vt 5.265625 0.015625
vt 5.3007812 0.20996094
vt 5.3671875 0.015625
vt 5.265625 0.015625
vt 5.6689453 0.015625
vt 5.5 0.015625
vt 5.5253906 0.20996094
vt 5.5 0.015625
vt 5.3671875 0.015625
vt 5.5253906 0.20996094
vt 5.5253906 0.20996094
vt 5.3671875 0.015625
vt 5.3007812 0.20996094
vt 3.7714844 0.6796875
vt 3.5742188 0.6796875
vt 3.5742188 0.7714844
vt 3.5742188 0.6796875
vt 3.5058594 0.6796875
vt 3.5742188 0.7714844
vt 3.5742188 0.7714844
vt 3.5058594 0.6796875
vt 3.5742188 0.96972656
vt 3.5683594 0.015625
vt 3.5742188 0.20996094
vt 3.788086 0.015625
vt 3.5742188 0.20996094
vt 3.7763672 0.20996094
vt 3.788086 0.015625
vt 3.0058594 0.20996094
vt 3.0058594 0.51660156
vt 3.1953125 0.20996094
vt 3.0058594 0.51660156
vt 3.1347656 0.6796875
vt 3.1953125 0.20996094
vt 5.8916016 0.015625
vt 5.6689453 0.015625
vt 5.9140625 0.20996094
vt 5.6689453 0.015625
vt 5.5253906 0.20996094
vt 5.9140625 0.20996094
vt 5.3007812 0.20996094
vt 5.3515625 0.6796875
vt 5.5253906 0.20996094
vt 5.3515625 0.6796875
vt 5.5654297 0.78515625
vt 5.5253906 0.20996094
vt 6.165039 0.6796875
vt 5.935547 0.6796875
vt 6.165039 0.96972656
vt 5.935547 0.6796875
vt 5.591797 0.96972656
vt 6.165039 0.96972656
vt 5.3515625 0.6796875
vt 5.591797 0.96972656
vt 5.5654297 0.78515625
vt 5.591797 0.96972656
vt 5.935547 0.6796875
vt 5.5654297 0.78515625
vt 3.0058594 0.51660156
vt 2.9101562 0.5078125
vt 3.1347656 0.6796875
vt 2.9101562 0.5078125
vt 2.9707031 0.96972656
vt 3.1347656 0.6796875
vt 3.5742188 0.20996094
vt 3.5742188 0.6796875
vt 3.7763672 0.20996094
vt 3.5742188 0.6796875
vt 3.7714844 0.6796875
vt 3.7763672 0.20996094
vt 0.12792969 0.25878906
vt 0.12792969 0.25878906
vt 0.12792969 0.25878906
vt 0.12792969 0.25878906
vt 3.0058594 0.20996094
vt 3.1953125 0.20996094
vt 3.1953125 0.015625
vt 3.0058594 0.015625
vt 5.5654297 0.78515625
vt 5.935547 0.6796875
vt 5.9140625 0.20996094
vt 5.5253906 0.20996094
vt 2.9707031 0.96972656
vt 3.5742188 0.96972656
vt 3.5058594 0.6796875
vt 3.1347656 0.6796875
vt 3.1347656 0.6796875
vt 3.5058594 0.6796875
vt 3.5058594 0.20996094
vt 3.1953125 0.20996094
vt 3.1953125 0.20996094
vt 3.5058594 0.20996094
vt 3.5058594 0.015625
vt 3.1953125 0.015625
vt 4.1552734 0.015625
vt 3.788086 0.015625
vt 3.7763672 0.20996094
vt 4.256836 0.2109375
vt 4.256836 0.2109375
vt 3.7763672 0.20996094
vt 3.7714844 0.6796875
vt 4.4248047 0.5439453
vt 4.4248047 0.5439453
vt 3.7714844 0.6796875
vt 3.5742188 0.96972656
vt 4.6435547 0.96972656
vt 6.165039 0.015625
vt 5.8916016 0.015625
vt 5.9140625 0.20996094
vt 6.165039 0.20996094
vt 6.165039 0.20996094
vt 5.9140625 0.20996094
vt 5.935547 0.6796875
vt 6.165039 0.6796875
vt 3.5058594 0.6796875
vt 3.5742188 0.6796875
vt 3.5742188 0.20996094
vt 3.5058594 0.20996094
vt 3.5058594 0.20996094
vt 3.5742188 0.20996094
vt 3.5683594 0.015625
vt 3.5058594 0.015625
vt 5.3007812 0.20996094
vt 4.256836 0.2109375
vt 4.4248047 0.5439453
vt 5.3515625 0.6796875
vt 5.3515625 0.6796875
vt 4.4248047 0.5439453
vt 4.6435547 0.96972656
vt 5.591797 0.96972656
vt -0.29296875 -0.33398438
vt -0.79296875 -0.33398438
vt -0.94921875 -0.20507812
vt -0.13476562 -0.20507812
vt -0.2890625 0.421875
vt -0.2890625 0.015625
vt 1.2890625 0.015625
vt 1.2890625 0.421875
vt -0.2890625 0.421875
vt -0.2890625 0.015625
vt 1.2890625 0.015625
vt 1.2890625 0.421875
vt 1.2285156 0.9707031
vt 1.2285156 0.9707031
vt 1.2285156 0.9707031
vt 1.2285156 0.9707031
vt 1.2285156 0.9707031
vt 1.2285156 0.9707031
vt 1.046875 0.9707031
vt 1.046875 0.9707031
vt -0.2890625 0.421875
vt -0.2890625 0.015625
vt 1.2890625 0.015625
vt 1.2890625 0.421875
vt -0.2890625 0.421875
vt -0.2890625 0.015625
vt 1.2890625 0.015625
vt 1.2890625 0.421875
vt 1.2285156 0.9707031
vt 1.2285156 0.9707031
vt 1.2285156 0.9707031
vt 1.2285156 0.9707031
vt 1.2285156 0.9707031
vt 1.2285156 0.9707031
vt 1.046875 0.9707031
vt 1.046875 0.9707031
vt 2.953125 0.5
vt 2.953125 0.984375
vt 2.0351562 0.984375
vt 2.0351562 0.5
vt 2.953125 0.5
vt 2.953125 0.984375
vt 2.0351562 0.984375
vt 2.0351562 0.5
vt 2.953125 0.5
vt 2.953125 0.984375
vt 2.0351562 0.984375
vt 2.0351562 0.5
vt 2.953125 0.5
vt 2.953125 0.984375
vt 2.0351562 0.984375
vt 2.0351562 0.5
vt -0.2890625 0.421875
vt 1.2890625 0.421875
vt 1.2890625 0.015625
vt -0.2890625 0.015625
vt -0.2890625 0.421875
vt 1.2890625 0.421875
vt 1.2890625 0.015625
vt -0.2890625 0.015625
vt 1.2285156 0.9707031
vt 1.2285156 0.9707031
vt 1.2285156 0.9707031
vt 1.2285156 0.9707031
vt 1.2285156 0.9707031
vt 1.046875 0.9707031
vt 1.046875 0.9707031
vt 1.2285156 0.9707031
vt -0.2890625 0.421875
vt 1.2890625 0.421875
vt 1.2890625 0.015625
vt -0.2890625 0.015625
vt -0.2890625 0.421875
vt 1.2890625 0.421875
vt 1.2890625 0.015625
vt -0.2890625 0.015625
vt 1.2285156 0.9707031
vt 1.2285156 0.9707031
vt 1.2285156 0.9707031
vt 1.2285156 0.9707031
vt 1.2285156 0.9707031
vt 1.046875 0.9707031
vt 1.046875 0.9707031
vt 1.2285156 0.9707031
vt 2.953125 0.984375
vt 2.0351562 0.984375
vt 2.0351562 0.46484375
vt 2.953125 0.46484375
vt 2.953125 0.984375
vt 2.0351562 0.984375
vt 2.0351562 0.46484375
vt 2.953125 0.46484375
vt -0.29296875 -0.33398438
vt -0.13476562 -0.20507812
vt -0.94921875 -0.20507812
vt -0.79296875 -0.33398438
vt -0.29296875 -0.33398438
vt -0.13476562 -0.20507812
vt -0.94921875 -0.20507812
vt -0.79296875 -0.33398438
vt 2.953125 0.984375
vt 2.0351562 0.984375
vt 2.0351562 0.46484375
vt 2.953125 0.46484375
vt 2.953125 0.984375
vt 2.0351562 0.984375
vt 2.0351562 0.46484375
vt 2.953125 0.46484375
vt -0.29296875 -0.33398438
vt -0.13476562 -0.20507812
vt -0.94921875 -0.20507812
vt -0.79296875 -0.33398438
vt -0.29296875 -0.33398438
vt -0.13476562 -0.20507812
vt -0.94921875 -0.20507812
vt -0.79296875 -0.33398438
vt 0.13085938 -0.26953125
vt 0.13085938 -0.26953125
vt 0.6308594 -0.26953125
vt 0.6308594 -0.26953125
vt -0.29296875 -0.33398438
vt -0.79296875 -0.33398438
vt -0.94921875 -0.20507812
vt -0.13476562 -0.20507812
vt -0.29296875 -0.33398438
vt -0.79296875 -0.33398438
vt -0.94921875 -0.20507812
vt -0.13476562 -0.20507812
vt -0.29296875 -0.33398438
vt -0.79296875 -0.33398438
vt -0.94921875 -0.20507812
vt -0.13476562 -0.20507812
vt -0.29296875 -0.33398438
vt -0.79296875 -0.33398438
vt -0.94921875 -0.20507812
vt -0.13476562 -0.20507812
vt -0.2890625 0.421875
vt -0.2890625 0.015625
vt 1.2890625 0.015625
vt 1.2890625 0.421875
vt -0.2890625 0.421875
vt -0.2890625 0.015625
vt 1.2890625 0.015625
vt 1.2890625 0.421875
vt 0.13085938 -0.26953125
vt 0.13085938 -0.26953125
vt 0.6308594 -0.26953125
vt 0.6308594 -0.26953125
vt -0.29296875 -0.33398438
vt -0.79296875 -0.33398438
vt -0.94921875 -0.20507812
vt -0.13476562 -0.20507812
vt 1.2285156 0.9707031
vt 1.2285156 0.9707031
vt 1.2285156 0.9707031
vt 1.2285156 0.9707031
vt 1.2285156 0.9707031
vt 1.2285156 0.9707031
vt 1.046875 0.9707031
vt 1.046875 0.9707031
vt -0.2890625 0.421875
vt -0.2890625 0.015625
vt 1.2890625 0.015625
vt 1.2890625 0.421875
vt -0.2890625 0.421875
vt -0.2890625 0.015625
vt 1.2890625 0.015625
vt 1.2890625 0.421875
vt -0.29296875 -0.33398438
vt -0.79296875 -0.33398438
vt -0.94921875 -0.20507812
vt -0.13476562 -0.20507812
vt -0.29296875 -0.33398438
vt -0.79296875 -0.33398438
vt -0.94921875 -0.20507812
vt -0.13476562 -0.20507812
vt 1.2285156 0.9707031
vt 1.2285156 0.9707031
vt 1.2285156 0.9707031
vt 1.2285156 0.9707031
vt 1.2285156 0.9707031
vt 1.2285156 0.9707031
vt 1.046875 0.9707031
vt 1.046875 0.9707031
vt 2.953125 0.5
vt 2.953125 0.984375
vt 2.0351562 0.984375
vt 2.0351562 0.5
vt 2.953125 0.5
vt 2.953125 0.984375
vt 2.0351562 0.984375
vt 2.0351562 0.5
vt 2.953125 0.5
vt 2.953125 0.984375
vt 2.0351562 0.984375
vt 2.0351562 0.5
vt 2.953125 0.5
vt 2.953125 0.984375
vt 2.0351562 0.984375
vt 2.0351562 0.5
vt -0.2890625 0.421875
vt 1.2890625 0.421875
vt 1.2890625 0.015625
vt -0.2890625 0.015625
vt -0.2890625 0.421875
vt 1.2890625 0.421875
vt 1.2890625 0.015625
vt -0.2890625 0.015625
vt 1.2285156 0.9707031
vt 1.2285156 0.9707031
vt 1.2285156 0.9707031
vt 1.2285156 0.9707031
vt 1.2285156 0.9707031
vt 1.046875 0.9707031
vt 1.046875 0.9707031
vt 1.2285156 0.9707031
vt -0.2890625 0.421875
vt 1.2890625 0.421875
vt 1.2890625 0.015625
vt -0.2890625 0.015625
vt -0.2890625 0.421875
vt 1.2890625 0.421875
vt 1.2890625 0.015625
vt -0.2890625 0.015625
vt 1.2285156 0.9707031
vt 1.2285156 0.9707031
vt 1.2285156 0.9707031
vt 1.2285156 0.9707031
vt 1.2285156 0.9707031
vt 1.046875 0.9707031
vt 1.046875 0.9707031
vt 1.2285156 0.9707031
vt 2.953125 0.984375
vt 2.0351562 0.984375
vt 2.0351562 0.46484375
vt 2.953125 0.46484375
vt 2.953125 0.984375
vt 2.0351562 0.984375
vt 2.0351562 0.46484375
vt 2.953125 0.46484375
vt -0.29296875 -0.33398438
vt -0.13476562 -0.20507812
vt -0.94921875 -0.20507812
vt -0.79296875 -0.33398438
vt -0.29296875 -0.33398438
vt -0.13476562 -0.20507812
vt -0.94921875 -0.20507812
vt -0.79296875 -0.33398438
vt 2.953125 0.984375
vt 2.0351562 0.984375
vt 2.0351562 0.46484375
vt 2.953125 0.46484375
vt 2.953125 0.984375
vt 2.0351562 0.984375
vt 2.0351562 0.46484375
vt 2.953125 0.46484375
vt -0.29296875 -0.33398438
vt -0.13476562 -0.20507812
vt -0.94921875 -0.20507812
vt -0.79296875 -0.33398438
vt -0.29296875 -0.33398438
vt -0.13476562 -0.20507812
vt -0.94921875 -0.20507812
vt -0.79296875 -0.33398438
vt 1.2890625 0.056640625
vt -0.2890625 0.056640625
vt -0.2890625 0.056640625
vt 1.2890625 0.056640625
vt 1.2890625 0.056640625
vt -0.2890625 0.056640625
vt -0.2890625 0.056640625
vt 1.2890625 0.056640625
vt 1.2890625 0.056640625
vt -0.2890625 0.056640625
vt -0.2890625 0.056640625
vt 1.2890625 0.056640625
vt 1.2890625 0.056640625
vt -0.2890625 0.056640625
vt -0.2890625 0.056640625
vt 1.2890625 0.056640625
vt 1.2890625 0.056640625
vt -0.2890625 0.056640625
vt -0.2890625 0.056640625
vt 1.2890625 0.056640625
vt 1.2890625 0.056640625
vt -0.2890625 0.056640625
vt -0.2890625 0.056640625
vt 1.2890625 0.056640625
vt 1.2890625 0.056640625
vt -0.2890625 0.056640625
vt -0.2890625 0.056640625
vt 1.2890625 0.056640625
vt 1.2890625 0.056640625
vt -0.2890625 0.056640625
vt -0.2890625 0.056640625
vt 1.2890625 0.056640625
vt 1.2890625 0.056640625
vt -0.2890625 0.056640625
vt -0.2890625 0.056640625
vt 1.2890625 0.056640625
vt 1.2890625 0.056640625
vt -0.2890625 0.056640625
vt -0.2890625 0.056640625
vt 1.2890625 0.056640625
vt 1.2890625 0.056640625
vt -0.2890625 0.056640625
vt -0.2890625 0.056640625
vt 1.2890625 0.056640625
vt 1.2890625 0.056640625
vt -0.2890625 0.056640625
vt -0.2890625 0.056640625
vt 1.2890625 0.056640625
vt 1.2890625 0.056640625
vt -0.2890625 0.056640625
vt -0.2890625 0.056640625
vt 1.2890625 0.056640625
vt 1.2890625 0.056640625
vt -0.2890625 0.056640625
vt -0.2890625 0.056640625
vt 1.2890625 0.056640625
vt 1.2890625 0.056640625
vt -0.2890625 0.056640625
vt -0.2890625 0.056640625
vt 1.2890625 0.056640625
vt 1.2890625 0.056640625
vt -0.2890625 0.056640625
vt -0.2890625 0.056640625
vt 1.2890625 0.056640625
vn 0.0 -0.0 0.9980469
vn 0.0 -0.0 0.9980469
vn 0.0 -0.0 0.9980469
vn 0.0 -0.0 0.9980469
vn 0.0 -0.0 0.9980469
vn 0.0 -0.0 0.9980469
vn 0.0 -0.0 0.9980469
vn 0.0 -0.0 0.9980469
vn 0.0 -0.0 0.9980469
vn 0.0 -0.0 0.9980469
vn 0.0 -0.0 0.9980469
vn 0.0 -0.0 0.9980469
vn 0.0 -0.0 0.9980469
vn 0.0 -0.0 0.9980469
vn 0.0 -0.0 0.9980469
vn 0.0 -0.0 0.9980469
vn 0.0 -0.70703125 0.70703125
vn 0.0 -0.70703125 0.70703125
vn 0.0 -0.70703125 0.70703125
vn 0.0 -0.70703125 0.70703125
vn 0.0 -0.70703125 0.70703125
vn 0.0 -0.70703125 0.70703125
vn 0.0 -0.70703125 0.70703125
vn 0.0 -0.70703125 0.70703125
vn 0.0 -0.70703125 0.70703125
vn 0.0 -0.70703125 0.70703125
vn 0.0 -0.70703125 0.70703125
vn 0.0 -0.70703125 0.70703125
vn 0.0 -0.70703125 0.70703125
vn 0.0 -0.70703125 0.70703125
vn 0.0 -0.70703125 0.70703125
vn 0.0 -0.70703125 0.70703125
vn 0.0 -0.0 0.9980469
vn 0.0 -0.0 0.9980469
vn 0.0 -0.0 0.9980469
vn 0.103515625 -0.17382812 0.9785156
vn 0.0 -0.0 0.9980469
vn 0.119140625 -0.099609375 0.98828125
vn 0.119140625 -0.099609375 0.98828125
vn 0.0 -0.0 0.9980469
vn 0.0 -0.0 0.9980469
vn 0.0 -0.0 0.9980469
vn 0.0 -0.0 0.9980469
vn 0.0 -0.0 0.9980469
vn 0.0 -0.0 0.9980469
vn 0.0 -0.0 0.9980469
vn 0.0 -0.0 0.9980469
vn 0.0 -0.0 0.9980469
vn 0.0 -0.0 0.9980469
vn 0.0 -0.0 0.9980469
vn 0.0 -0.0 0.9980469
vn 0.0 -0.0 0.9980469
vn 0.0 -0.0 0.9980469
vn 0.0 -0.0 0.9980469
vn 0.0 -0.0 0.9980469
vn 0.0 -0.0 0.9980469
vn 0.0 -0.0 0.9980469
vn 0.0 -0.0 0.9980469
vn 0.0 -0.0 0.9980469
vn 0.0 -0.0 0.9980469
vn 0.0 -0.0 0.9980469
vn 0.0 -0.0 0.9980469
vn 0.0 -0.0 0.9980469
vn 0.0 -0.0 0.9980469
vn 0.0 -0.0 0.9980469
vn 0.0 -0.0 0.9980469
vn 0.0 -0.0 0.9980469
vn 0.0 -0.0 0.9980469
vn 0.0 -0.0 0.9980469
vn 0.0 -0.25195312 0.9667969
vn 0.0 -0.0 0.9980469
vn 0.0 -0.25195312 0.9667969
vn 0.0 -0.0 0.9980469
vn 0.0 -0.0 0.9980469
vn 0.0 -0.25195312 0.9667969
vn 0.0 -0.0 0.9980469
vn 0.0 -0.0 0.9980469
vn 0.0 -0.0 0.9980469
vn 0.0 -0.0 0.9980469
vn 0.0 -0.25195312 0.9667969
vn 0.0 -0.0 0.9980469
vn 0.0 -0.0 0.9980469
vn 0.0 -0.0 0.9980469
vn 0.0 -0.0 0.9980469
vn 0.0 -0.0 0.9980469
vn 0.0 -0.0 0.9980469
vn 0.0 -0.0 0.9980469
vn 0.0 -0.3828125 0.9238281
vn 0.0 -0.70703125 0.70703125
vn 0.0 -0.70703125 0.70703125
vn 0.0 -0.3828125 0.9238281
vn 0.0 -0.3828125 0.9238281
vn 0.0 -0.70703125 0.70703125
vn 0.0 -0.70703125 0.70703125
vn 0.0 -0.3046875 0.953125
vn 0.0 -0.3046875 0.953125
vn 0.0 -0.70703125 0.70703125
vn 0.0 -0.70703125 0.70703125
vn 0.0 -0.3828125 0.9238281
vn 0.0 -0.3828125 0.9238281
vn 0.0 -0.70703125 0.70703125
vn 0.0 -0.70703125 0.70703125
vn 0.0 -0.3046875 0.953125
vn 0.0 -0.3046875 0.953125
vn 0.0 -0.70703125 0.70703125
vn 0.0 -0.70703125 0.70703125
vn 0.0 -0.3828125 0.9238281
vn 0.0 -0.3828125 0.9238281
vn 0.0 -0.70703125 0.70703125
vn 0.0 -0.70703125 0.70703125
vn -0.6464844 -0.5527344 0.52734375
vn -0.6464844 -0.5527344 0.52734375
vn 0.0 -0.70703125 0.70703125
vn 0.0 -0.70703125 0.70703125
vn 0.0 -0.3828125 0.9238281
vn 0.0 -0.3828125 0.9238281
vn 0.0 -0.70703125 0.70703125
vn 0.0 -0.70703125 0.70703125
vn 0.0 -0.3046875 0.953125
vn 0.0 -0.3046875 0.953125
vn 0.0 -0.70703125 0.70703125
vn 0.0 -0.70703125 0.70703125
vn 0.0 -0.3828125 0.9238281
vn 0.0 -0.3828125 0.9238281
vn 0.0 -0.70703125 0.70703125
vn 0.0 -0.70703125 0.70703125
vn 0.0 -0.3828125 0.9238281
vn 0.0 -0.3828125 0.9238281
vn 0.0 -0.70703125 0.70703125
vn 0.0 -0.3828125 0.9238281
vn 0.0 -0.1875 0.9824219
vn 0.0 -0.0 0.9980469
vn 0.0 -0.0 0.9980469
vn 0.0 -0.0 0.9980469
vn 0.0 -0.0 0.9980469
vn 0.0 -0.0 0.9980469
vn 0.0 -0.0 0.9980469
vn 0.0 -0.0 0.9980469
vn 0.0 -0.0 0.9980469
vn 0.0 -0.0 0.9980469
vn 0.0 -0.0 0.9980469
vn 0.0 -0.0 0.9980469
vn 0.0 -0.0 0.9980469
vn 0.0 -0.0 0.9980469
vn 0.0 -0.0 0.9980469
vn 0.0 -0.0 0.9980469
vn 0.0 -0.0 0.9980469
vn 0.0 -0.0 0.9980469
vn 0.0 -0.0 0.9980469
vn 0.0 -0.0 0.9980469
vn 0.0 -0.0 0.9980469
vn 0.0 -0.0 0.9980469
vn 0.0 -0.0 0.9980469
vn 0.0 -0.0 0.9980469
vn 0.0 -0.0 0.9980469
vn 0.0 -0.0 0.9980469
vn 0.0 -0.0 0.9980469
vn 0.0 -0.0 0.9980469
vn 0.0 -0.0 0.9980469
vn 0.0 -0.0 0.9980469
vn 0.0 -0.0 0.9980469
vn 0.0 -0.0 0.9980469
vn 0.0 -0.0 0.9980469
vn 0.0 -0.0 0.9980469
vn 0.0 -0.0 0.9980469
vn 0.0 -0.0 0.9980469
vn 0.0 -0.0 0.9980469
vn 0.0 -0.0 0.9980469
vn 0.0 -0.0 0.9980469
vn 0.0 -0.0 0.9980469
vn 0.0 -0.0 0.9980469
vn 0.0 -0.1875 0.9824219
vn 0.0 -0.3828125 0.9238281
vn 0.0 -0.25195312 0.9667969
vn 0.0 -0.0 0.9980469
vn 0.0 -0.0 0.9980469
vn 0.0 -0.0 0.9980469
vn 0.0 -0.0 0.9980469
vn 0.0 -0.0 0.9980469
vn 0.0 -0.0 0.9980469
vn 0.0 -0.0 0.9980469
vn 0.0 -0.0 0.9980469
vn 0.0 -0.0 0.9980469
vn 0.0 -0.3828125 0.9238281
vn 0.0 -0.25195312 0.9667969
vn 0.0 -0.0 0.9980469
vn 0.0 -0.0 0.9980469
vn 0.0 -0.0 0.9980469
vn 0.0 -0.0 0.9980469
vn 0.0 -0.0 0.9980469
vn 0.0 -0.0 0.9980469
vn 0.0 -0.0 0.9980469
vn 0.0 -0.0 0.9980469
vn 0.0 -0.0 0.9980469
vn 0.0 -0.0 0.9980469
vn 0.0 -0.0 0.9980469
vn 0.0 -0.0 0.9980469
vn 0.0 -0.0 0.9980469
vn 0.0 -0.25195312 0.9667969
vn 0.0 -0.0 0.9980469
vn 0.0 -0.25195312 0.9667969
vn 0.0 -0.0 0.9980469
vn 0.0 -0.0 0.9980469
vn 0.0 -0.0 0.9980469
vn 0.0 -0.0 0.9980469
vn 0.0 -0.0 0.9980469
vn 0.0 -0.0 0.9980469
vn 0.0 -0.0 0.9980469
vn 0.0 -0.0 0.9980469
vn 0.0 -0.0 0.9980469
vn 0.0 -0.0 0.9980469
vn 0.0 -0.0 0.9980469
vn 0.0 -0.0 0.9980469
vn 0.0 -0.70703125 0.70703125
vn 0.0 -0.70703125 0.70703125
vn 0.0 -0.70703125 0.70703125
vn 0.0 -0.70703125 0.70703125
vn 0.0 -0.70703125 0.70703125
vn 0.0 -0.70703125 0.70703125
vn 0.0 -0.70703125 0.70703125
vn 0.0 -0.25195312 0.9667969
vn 0.0 -0.70703125 0.70703125
vn 0.0 -0.70703125 0.70703125
vn 0.0 -0.70703125 0.70703125
vn 0.0 -0.70703125 0.70703125
vn 0.0 -0.70703125 0.70703125
vn 0.0 -0.70703125 0.70703125
vn 0.0 -0.70703125 0.70703125
vn 0.0 -0.70703125 0.70703125
vn 0.0 -0.70703125 0.70703125
vn 0.0 -0.70703125 0.70703125
vn 0.0 -0.70703125 0.70703125
vn 0.0 -0.70703125 0.70703125
vn 0.0 -0.70703125 0.70703125
vn 0.0 -0.70703125 0.70703125
vn 0.0 -0.70703125 0.70703125
vn 0.0 -0.70703125 0.70703125
vn 0.0 -0.70703125 0.70703125
vn 0.0 -0.70703125 0.70703125
vn 0.0 -0.70703125 0.70703125
vn 0.0 -0.70703125 0.70703125
vn 0.0 -0.70703125 0.70703125
vn 0.0 -0.25195312 0.9667969
vn 0.0 -0.3828125 0.9238281
vn 0.0 -0.70703125 0.70703125
vn 0.0 -0.70703125 0.70703125
vn 0.0 -0.70703125 0.70703125
vn 0.0 -0.70703125 0.70703125
vn 0.0 -0.70703125 0.70703125
vn 0.0 -0.70703125 0.70703125
vn 0.0 -0.70703125 0.70703125
vn 0.0 -0.70703125 0.70703125
vn 0.0 -0.70703125 0.70703125
vn 0.0 -0.70703125 0.70703125
vn 0.0 -0.70703125 0.70703125
vn 0.0 -0.70703125 0.70703125
vn 0.0 -0.70703125 0.70703125
vn 0.0 -0.70703125 0.70703125
vn 0.0 -0.70703125 0.70703125
vn 0.0 -0.70703125 0.70703125
vn 0.0 -0.70703125 0.70703125
vn 0.0 -0.70703125 0.70703125
vn 0.0 -0.70703125 0.70703125
vn 0.0 -0.70703125 0.70703125
vn 0.0 -0.70703125 0.70703125
vn 0.0 -0.70703125 0.70703125
vn 0.0 -0.70703125 0.70703125
vn 0.0 -0.70703125 0.70703125
vn 0.0 -0.70703125 0.70703125
vn 0.0 -0.70703125 0.70703125
vn 0.0 -0.70703125 0.70703125
vn 0.0 -0.70703125 0.70703125
vn 0.0 -0.70703125 0.70703125
vn 0.0 -0.70703125 0.70703125
vn 0.0 -0.70703125 0.70703125
vn 0.0 -0.70703125 0.70703125
vn 0.0 -0.70703125 0.70703125
vn 0.0 -0.70703125 0.70703125
vn 0.0 -0.70703125 0.70703125
vn 0.0 -0.70703125 0.70703125
vn 0.0 -0.70703125 0.70703125
vn 0.0 -0.70703125 0.70703125
vn 0.0 -0.0 0.9980469
vn 0.0 -0.0 0.9980469
vn 0.0 -0.0 0.9980469
vn 0.0 -0.0 0.9980469
vn 0.0 -0.0 0.9980469
vn 0.0 -0.0 0.9980469
vn 0.0 -0.0 0.9980469
vn 0.0 -0.0 0.9980469
vn 0.0 -0.0 0.9980469
vn 0.0 -0.0 0.9980469
vn 0.0 -0.0 0.9980469
vn 0.0 -0.0 0.9980469
vn 0.0 -0.0 0.9980469
vn 0.0 -0.0 0.9980469
vn 0.0 -0.0 0.9980469
vn 0.0 -0.0 0.9980469
vn 0.0 -0.0 0.9980469
vn 0.0 -0.0 0.9980469
vn 0.0 -0.0 0.9980469
vn 0.0 -0.0 0.9980469
vn 0.0 -0.0 0.9980469
vn 0.0 -0.0 0.9980469
vn 0.0 -0.0 0.9980469
vn 0.0 -0.0 0.9980469
vn 0.0 -0.0 0.9980469
vn 0.0 -0.0 0.9980469
vn 0.0 -0.0 0.9980469
vn 0.0 -0.0 0.9980469
vn 0.0 -0.0 0.9980469
vn 0.0 -0.0 0.9980469
vn 0.0 -0.0 0.9980469
vn 0.0 -0.0 0.9980469
vn 0.0 -0.0 0.9980469
vn 0.0 -0.0 0.9980469
vn 0.0 -0.0 0.9980469
vn 0.0 -0.0 0.9980469
vn 0.0 -0.0 0.9980469
vn 0.0 -0.0 0.9980469
vn 0.0 -0.0 0.9980469
vn 0.0 -0.0 0.9980469
vn 0.0 -0.0 0.9980469
vn 0.0 -0.0 0.9980469
vn 0.0 -0.0 0.9980469
vn 0.0 -0.0 0.9980469
vn 0.0 -0.0 0.9980469
vn 0.0 -0.0 0.9980469
vn 0.103515625 -0.17382812 0.9785156
vn 0.0 -0.0 0.9980469
vn 0.0 -0.0 0.9980469
vn 0.103515625 -0.17382812 0.9785156
vn 0.0 -0.0 0.9980469
vn 0.103515625 -0.17382812 0.9785156
vn 0.0 -0.0 0.9980469
vn 0.0 -0.0 0.9980469
vn 0.103515625 -0.17382812 0.9785156
vn 0.0 -0.0 0.9980469
vn 0.0 -0.25195312 0.9667969
vn 0.0 -0.0 0.9980469
vn 0.0 -0.0 0.9980469
vn 0.0 -0.25195312 0.9667969
vn 0.103515625 -0.17382812 0.9785156
vn 0.0 -0.25195312 0.9667969
vn 0.1328125 -0.5390625 0.83203125
vn 0.0 -0.25195312 0.9667969
vn 0.0 -0.25195312 0.9667969
vn 0.1328125 -0.5390625 0.83203125
vn 0.1328125 -0.5390625 0.83203125
vn 0.119140625 -0.099609375 0.98828125
vn 0.103515625 -0.17382812 0.9785156
vn 0.119140625 -0.099609375 0.98828125
vn 0.0 -0.0 0.9980469
vn 0.103515625 -0.17382812 0.9785156
vn 0.0 -0.25195312 0.9667969
vn 0.078125 -0.49023438 0.8671875
vn 0.1015625 -0.38867188 0.9160156
vn 0.1328125 -0.5390625 0.83203125
vn 0.1328125 -0.5390625 0.83203125
vn 0.1015625 -0.38867188 0.9160156
vn 0.103515625 -0.17382812 0.9785156
vn 0.119140625 -0.099609375 0.98828125
vn 0.0 -0.0 0.9980469
vn 0.0 -0.0 0.9980469
vn 0.0 -0.0 0.9980469
vn 0.0 -0.3828125 0.9238281
vn 0.0 -0.0 0.9980469
vn -0.6464844 -0.5527344 0.52734375
vn 0.0 -0.0 0.9980469
vn 0.0 -0.0 0.9980469
vn -0.6464844 -0.5527344 0.52734375
vn -0.6464844 -0.5527344 0.52734375
vn 0.0 -0.0 0.9980469
vn 0.0 -0.3828125 0.9238281
vn 0.0 -0.0 0.9980469
vn 0.0 -0.3046875 0.953125
vn 0.0 -0.3828125 0.9238281
vn 0.0 -0.3046875 0.953125
vn 0.0 -0.3828125 0.9238281
vn 0.0 -0.0 0.9980469
vn 0.0 -0.3828125 0.9238281
vn 0.0 -0.3046875 0.953125
vn 0.0 -0.0 0.9980469
vn 0.0 -0.0 0.9980469
vn 0.0 -0.3046875 0.953125
vn 0.0 -0.0 0.9980469
vn 0.0 -0.0 0.9980469
vn 0.0 -0.0 0.9980469
vn 0.0 -0.0 0.9980469
vn 0.0 -0.0 0.9980469
vn 0.0 -0.0 0.9980469
vn 0.0 -0.0 0.9980469
vn 0.0 -0.0 0.9980469
vn 0.0 -0.0 0.9980469
vn 0.0 -0.0 0.9980469
vn 0.0 -0.3828125 0.9238281
vn 0.0 -0.0 0.9980469
vn 0.0 -0.3046875 0.953125
vn 0.0 -0.0 0.9980469
vn 0.0 -0.0 0.9980469
vn 0.0 -0.3046875 0.953125
vn 0.0 -0.0 0.9980469
vn 0.0 -0.0 0.9980469
vn 0.0 -0.0 0.9980469
vn 0.0 -0.0 0.9980469
vn 0.0 -0.0 0.9980469
vn 0.0 -0.0 0.9980469
vn 0.0 -0.3828125 0.9238281
vn 0.0 -0.3046875 0.953125
vn 0.0 -0.0 0.9980469
vn 0.0 -0.3046875 0.953125
vn 0.0 -0.0 0.9980469
vn 0.0 -0.0 0.9980469
vn 0.0 -0.0 0.9980469
vn 0.0 -0.0 0.9980469
vn 0.0 -0.0 0.9980469
vn 0.0 -0.0 0.9980469
vn 0.0 -0.0 0.9980469
vn 0.0 -0.0 0.9980469
vn 0.0 -0.0 0.9980469
vn 0.0 -0.0 0.9980469
vn 0.0 -0.0 0.9980469
vn 0.0 -0.0 0.9980469
vn 0.0 -0.0 0.9980469
vn 0.0 -0.0 0.9980469
vn 0.0 -0.0 0.9980469
vn 0.0 -0.0 0.9980469
vn 0.0 -0.0 0.9980469
vn 0.0 -0.0 0.9980469
vn 0.0 -0.0 0.9980469
vn 0.0 -0.0 0.9980469
vn 0.0 -0.0 0.9980469
vn 0.0 -0.0 0.9980469
vn 0.0 -0.0 0.9980469
vn 0.0 -0.0 0.9980469
vn 0.0 -0.0 0.9980469
vn 0.0 -0.0 0.9980469
vn 0.0 -0.0 0.9980469
vn 0.0 -0.0 0.9980469
vn 0.0 -0.0 0.9980469
vn 0.0 -0.0 0.9980469
vn 0.0 -0.0 0.9980469
vn 0.0 -0.0 0.9980469
vn 0.0 -0.0625 0.9980469
vn 0.0 -0.0625 0.9980469
vn 0.0 -0.0625 0.9980469
vn 0.0 -0.0625 0.9980469
vn 0.0 -0.0 0.9980469
vn 0.0 -0.0 0.9980469
vn 0.0 -0.1875 0.9824219
vn 0.0 -0.0 0.9980469
vn 0.0 -0.0 0.9980469
vn 0.0 -0.0 0.9980469
vn 0.0 -0.0 0.9980469
vn 0.0 -0.0 0.9980469
vn 0.0 -0.0 0.9980469
vn 0.0 -0.0 0.9980469
vn 0.0 -0.0 0.9980469
vn 0.0 -0.0 0.9980469
vn 0.0 -0.0 0.9980469
vn 0.0 -0.0 0.9980469
vn 0.0 -0.0 0.9980469
vn 0.0 -0.0 0.9980469
vn 0.0 -0.0 0.9980469
vn 0.0 -0.0 0.9980469
vn 0.0 -0.3828125 0.9238281
vn 0.0 -0.1875 0.9824219
vn 0.0 -0.3828125 0.9238281
vn 0.0 -0.3046875 0.953125
vn 0.0 -0.0 0.9980469
vn 0.0 -0.0 0.9980469
vn 0.0 -0.0 0.9980469
vn 0.0 -0.0 0.9980469
vn 0.0 -0.0 0.9980469
vn 0.0 -0.0 0.9980469
vn 0.0 -0.0 0.9980469
vn 0.0 -0.0 0.9980469
vn 0.0 -0.0 0.9980469
vn 0.0 -0.0 0.9980469
vn 0.0 -0.3828125 0.9238281
vn 0.0 -0.3828125 0.9238281
vn 0.0 -0.0 0.9980469
vn 0.0 -0.0 0.9980469
vn 0.0 -0.0 0.9980469
vn 0.0 -0.0 0.9980469
vn 0.0 -0.0 0.9980469
vn 0.0 -0.0 0.9980469
vn 0.0 -0.0 0.9980469
vn 0.0 -0.0 0.9980469
vn 0.0 -0.0 0.9980469
vn 0.0 -0.0 0.9980469
vn 0.0 -0.0 0.9980469
vn 0.0 -0.0 0.9980469
vn 0.0 -0.3828125 0.9238281
vn 0.0 -0.3828125 0.9238281
vn 0.0 -0.0 0.9980469
vn 0.0 -0.0 0.9980469
vn 0.0 -0.0 0.9980469
vn 0.0 -0.0 0.9980469
vn 0.0 -0.0 0.9980469
vn 0.0 -0.0 0.9980469
vn 0.0 -0.0 0.9980469
vn 0.0 -0.0 0.9980469
vn 0.0 -0.0 0.9980469
vn 0.0 -0.0 0.9980469
vn 0.0 -0.0 0.9980469
vn 0.0 -0.0 0.9980469
vn 0.9980469 -0.0 0.0
vn 0.9980469 -0.0 0.0
vn 0.9980469 -0.0 0.0
vn 0.9980469 -0.0 0.0
vn 0.0 1.0 0.0
vn 0.0 1.0 0.0
vn 0.0 1.0 0.0
vn 0.0 1.0 0.0
vn 0.9980469 -0.0 0.0
vn 0.9980469 -0.0 0.0
vn 0.9980469 -0.0 0.0
vn 0.9980469 -0.0 0.0
vn 0.0 1.0 0.0
vn 0.0 1.0 0.0
vn 0.0 1.0 0.0
vn 0.0 1.0 0.0
vn -1.0 -0.0 0.0
vn -1.0 -0.0 0.0
vn -1.0 -0.0 0.0
vn -1.0 -0.0 0.0
vn 0.0 -0.9980469 0.0
vn 0.0 -0.9980469 0.0
vn 0.0 -0.9980469 0.0
vn 0.0 -0.9980469 0.0
vn -1.0 -0.0 0.0
vn -1.0 -0.0 0.0
vn -1.0 -0.0 0.0
vn -1.0 -0.0 0.0
vn 0.0 -0.9980469 0.0
vn 0.0 -0.9980469 0.0
vn 0.0 -0.9980469 0.0
vn 0.0 -0.9980469 0.0
vn 0.9980469 -0.0 0.0
vn 0.9980469 -0.0 0.0
vn 0.9980469 -0.0 0.0
vn 0.9980469 -0.0 0.0
vn 0.0 1.0 0.0
vn 0.0 1.0 0.0
vn 0.0 1.0 0.0
vn 0.0 1.0 0.0
vn -1.0 -0.0 0.0
vn -1.0 -0.0 0.0
vn -1.0 -0.0 0.0
vn -1.0 -0.0 0.0
vn 0.0 -0.9980469 0.0
vn 0.0 -0.9980469 0.0
vn 0.0 -0.9980469 0.0
vn 0.0 -0.9980469 0.0
vn 0.9980469 -0.0 0.0
vn 0.9980469 -0.0 0.0
vn 0.9980469 -0.0 0.0
vn 0.9980469 -0.0 0.0
vn 0.0 1.0 0.0
vn 0.0 1.0 0.0
vn 0.0 1.0 0.0
vn 0.0 1.0 0.0
vn 0.9980469 -0.0 0.0
vn 0.9980469 -0.0 0.0
vn 0.9980469 -0.0 0.0
vn 0.9980469 -0.0 0.0
vn 0.0 1.0 0.0
vn 0.0 1.0 0.0
vn 0.0 1.0 0.0
vn 0.0 1.0 0.0
vn -1.0 -0.0 0.0
vn -1.0 -0.0 0.0
vn -1.0 -0.0 0.0
vn -1.0 -0.0 0.0
vn 0.0 -0.9980469 0.0
vn 0.0 -0.9980469 0.0
vn 0.0 -0.9980469 0.0
vn 0.0 -0.9980469 0.0
vn -1.0 -0.0 0.0
vn -1.0 -0.0 0.0
vn -1.0 -0.0 0.0
vn -1.0 -0.0 0.0
vn 0.0 -0.9980469 0.0
vn 0.0 -0.9980469 0.0
vn 0.0 -0.9980469 0.0
vn 0.0 -0.9980469 0.0
vn 0.9980469 -0.0 0.0
vn 0.9980469 -0.0 0.0
vn 0.9980469 -0.0 0.0
vn 0.9980469 -0.0 0.0
vn 0.0 1.0 0.0
vn 0.0 1.0 0.0
vn 0.0 1.0 0.0
vn 0.0 1.0 0.0
vn 0.0 -0.0 0.9980469
vn 0.0 -0.0 0.9980469
vn 0.0 -0.0 0.9980469
vn 0.0 -0.0 0.9980469
vn 0.0 -0.0 0.9980469
vn 0.0 -0.0 0.9980469
vn 0.0 -0.0 0.9980469
vn 0.0 -0.0 0.9980469
vn -1.0 -0.0 0.0
vn -1.0 -0.0 0.0
vn -1.0 -0.0 0.0
vn -1.0 -0.0 0.0
vn 0.0 -0.9980469 0.0
vn 0.0 -0.9980469 0.0
vn 0.0 -0.9980469 0.0
vn 0.0 -0.9980469 0.0
vn 0.0 -0.0 0.9980469
vn 0.0 -0.0 0.9980469
vn 0.0 -0.0 0.9980469
vn 0.0 -0.0 0.9980469
vn 0.0 -0.0 0.9980469
vn 0.0 -0.0 0.9980469
vn 0.0 -0.0 0.9980469
vn 0.0 -0.0 0.9980469
vn 0.0 -0.0 0.9980469
vn 0.0 -0.0 0.9980469
vn 0.0 -0.0 0.9980469
vn 0.0 -0.0 0.9980469
vn 0.0 -0.0 0.9980469
vn 0.0 -0.0 0.9980469
vn 0.0 -0.0 0.9980469
vn 0.0 -0.0 0.9980469
vn 0.0 -0.0 0.9980469
vn 0.0 -0.0 0.9980469
vn 0.0 -0.0 0.9980469
vn 0.0 -0.0 0.9980469
vn 0.0 -0.0 0.9980469
vn 0.0 -0.0 0.9980469
vn 0.0 -0.0 0.9980469
vn 0.0 -0.0 0.9980469
vn 0.0 -0.0 0.9980469
vn 0.0 -0.0 0.9980469
vn 0.0 -0.0 0.9980469
vn 0.0 -0.0 0.9980469
vn 0.9980469 -0.0 0.0
vn 0.9980469 -0.0 0.0
vn 0.9980469 -0.0 0.0
vn 0.9980469 -0.0 0.0
vn 0.0 1.0 0.0
vn 0.0 1.0 0.0
vn 0.0 1.0 0.0
vn 0.0 1.0 0.0
vn 0.0 -0.0 0.9980469
vn 0.0 -0.0 0.9980469
vn 0.0 -0.0 0.9980469
vn 0.0 -0.0 0.9980469
vn 0.0 -0.0 0.9980469
vn 0.0 -0.0 0.9980469
vn 0.0 -0.0 0.9980469
vn 0.0 -0.0 0.9980469
vn 0.9980469 -0.0 0.0
vn 0.9980469 -0.0 0.0
vn 0.9980469 -0.0 0.0
vn 0.9980469 -0.0 0.0
vn 0.0 1.0 0.0
vn 0.0 1.0 0.0
vn 0.0 1.0 0.0
vn 0.0 1.0 0.0
vn -1.0 -0.0 0.0
vn -1.0 -0.0 0.0
vn -1.0 -0.0 0.0
vn -1.0 -0.0 0.0
vn 0.0 -0.9980469 0.0
vn 0.0 -0.9980469 0.0
vn 0.0 -0.9980469 0.0
vn 0.0 -0.9980469 0.0
vn 0.0 -0.0 0.9980469
vn 0.0 -0.0 0.9980469
vn 0.0 -0.0 0.9980469
vn 0.0 -0.0 0.9980469
vn 0.0 -0.0 0.9980469
vn 0.0 -0.0 0.9980469
vn 0.0 -0.0 0.9980469
vn 0.0 -0.0 0.9980469
vn -1.0 -0.0 0.0
vn -1.0 -0.0 0.0
vn -1.0 -0.0 0.0
vn -1.0 -0.0 0.0
vn 0.0 -0.9980469 0.0
vn 0.0 -0.9980469 0.0
vn 0.0 -0.9980469 0.0
vn 0.0 -0.9980469 0.0
vn 0.9980469 -0.0 0.0
vn 0.9980469 -0.0 0.0
vn 0.9980469 -0.0 0.0
vn 0.9980469 -0.0 0.0
vn 0.0 1.0 0.0
vn 0.0 1.0 0.0
vn 0.0 1.0 0.0
vn 0.0 1.0 0.0
vn -1.0 -0.0 0.0
vn -1.0 -0.0 0.0
vn -1.0 -0.0 0.0
vn -1.0 -0.0 0.0
vn 0.0 -0.9980469 0.0
vn 0.0 -0.9980469 0.0
vn 0.0 -0.9980469 0.0
vn 0.0 -0.9980469 0.0
vn 0.9980469 -0.0 0.0
vn 0.9980469 -0.0 0.0
vn 0.9980469 -0.0 0.0
vn 0.9980469 -0.0 0.0
vn 0.0 1.0 0.0
vn 0.0 1.0 0.0
vn 0.0 1.0 0.0
vn 0.0 1.0 0.0
vn 0.9980469 -0.0 0.0
vn 0.9980469 -0.0 0.0
vn 0.9980469 -0.0 0.0
vn 0.9980469 -0.0 0.0
vn 0.0 1.0 0.0
vn 0.0 1.0 0.0
vn 0.0 1.0 0.0
vn 0.0 1.0 0.0
vn -1.0 -0.0 0.0
vn -1.0 -0.0 0.0
vn -1.0 -0.0 0.0
vn -1.0 -0.0 0.0
vn 0.0 -0.9980469 0.0
vn 0.0 -0.9980469 0.0
vn 0.0 -0.9980469 0.0
vn 0.0 -0.9980469 0.0
vn -1.0 -0.0 0.0
vn -1.0 -0.0 0.0
vn -1.0 -0.0 0.0
vn -1.0 -0.0 0.0
vn 0.0 -0.9980469 0.0
vn 0.0 -0.9980469 0.0
vn 0.0 -0.9980469 0.0
vn 0.0 -0.9980469 0.0
vn 0.9980469 -0.0 0.0
vn 0.9980469 -0.0 0.0
vn 0.9980469 -0.0 0.0
vn 0.9980469 -0.0 0.0
vn 0.0 1.0 0.0
vn 0.0 1.0 0.0
vn 0.0 1.0 0.0
vn 0.0 1.0 0.0
vn 0.0 -0.0 0.9980469
vn 0.0 -0.0 0.9980469
vn 0.0 -0.0 0.9980469
vn 0.0 -0.0 0.9980469
vn 0.0 -0.0 0.9980469
vn 0.0 -0.0 0.9980469
vn 0.0 -0.0 0.9980469
vn 0.0 -0.0 0.9980469
vn -1.0 -0.0 0.0
vn -1.0 -0.0 0.0
vn -1.0 -0.0 0.0
vn -1.0 -0.0 0.0
vn 0.0 -0.9980469 0.0
vn 0.0 -0.9980469 0.0
vn 0.0 -0.9980469 0.0
vn 0.0 -0.9980469 0.0
vn 0.0 -0.0 0.9980469
vn 0.0 -0.0 0.9980469
vn 0.0 -0.0 0.9980469
vn 0.0 -0.0 0.9980469
vn 0.0 -0.0 0.9980469
vn 0.0 -0.0 0.9980469
vn 0.0 -0.0 0.9980469
vn 0.0 -0.0 0.9980469
vn 0.0 1.0 0.0
vn 0.0 1.0 0.0
vn 0.0 1.0 0.0
vn 0.0 1.0 0.0
vn 0.0 1.0 0.0
vn 0.0 1.0 0.0
vn 0.0 1.0 0.0
vn 0.0 1.0 0.0
vn -1.0 -0.0 0.0
vn -1.0 -0.0 0.0
vn -1.0 -0.0 0.0
vn -1.0 -0.0 0.0
vn -1.0 -0.0 0.0
vn -1.0 -0.0 0.0
vn -1.0 -0.0 0.0
vn -1.0 -0.0 0.0
vn 0.0 -0.9980469 0.0
vn 0.0 -0.9980469 0.0
vn 0.0 -0.9980469 0.0
vn 0.0 -0.9980469 0.0
vn 0.0 -0.9980469 0.0
vn 0.0 -0.9980469 0.0
vn 0.0 -0.9980469 0.0
vn 0.0 -0.9980469 0.0
vn 0.9980469 -0.0 0.0
vn 0.9980469 -0.0 0.0
vn 0.9980469 -0.0 0.0
vn 0.9980469 -0.0 0.0
vn 0.9980469 -0.0 0.0
vn 0.9980469 -0.0 0.0
vn 0.9980469 -0.0 0.0
vn 0.9980469 -0.0 0.0
vn 0.9980469 -0.0 0.0
vn 0.9980469 -0.0 0.0
vn 0.9980469 -0.0 0.0
vn 0.9980469 -0.0 0.0
vn 0.9980469 -0.0 0.0
vn 0.9980469 -0.0 0.0
vn 0.9980469 -0.0 0.0
vn 0.9980469 -0.0 0.0
vn 0.0 1.0 0.0
vn 0.0 1.0 0.0
vn 0.0 1.0 0.0
vn 0.0 1.0 0.0
vn 0.0 1.0 0.0
vn 0.0 1.0 0.0
vn 0.0 1.0 0.0
vn 0.0 1.0 0.0
vn -1.0 -0.0 0.0
vn -1.0 -0.0 0.0
vn -1.0 -0.0 0.0
vn -1.0 -0.0 0.0
vn -1.0 -0.0 0.0
vn -1.0 -0.0 0.0
vn -1.0 -0.0 0.0
vn -1.0 -0.0 0.0
vn 0.0 -0.9980469 0.0
vn 0.0 -0.9980469 0.0
vn 0.0 -0.9980469 0.0
vn 0.0 -0.9980469 0.0
vn 0.0 -0.9980469 0.0
vn 0.0 -0.9980469 0.0
vn 0.0 -0.9980469 0.0
vn 0.0 -0.9980469 0.0
c 1.0 1.0 1.0
usemtl in38_hasira
s off
f 504/504/504/1 505/505/505/1 506/506/506/1 507/507/507/1
f 508/508/508/1 509/509/509/1 510/510/510/1 511/511/511/1
f 512/512/512/1 513/513/513/1 514/514/514/1 515/515/515/1
f 516/516/516/1 517/517/517/1 518/518/518/1 519/519/519/1
f 520/520/520/1 521/521/521/1 522/522/522/1 523/523/523/1
f 524/524/524/1 525/525/525/1 526/526/526/1 527/527/527/1
f 528/528/528/1 529/529/529/1 530/530/530/1 531/531/531/1
f 532/532/532/1 533/533/533/1 534/534/534/1 535/535/535/1
f 536/536/536/1 537/537/537/1 538/538/538/1 539/539/539/1
f 540/540/540/1 541/541/541/1 542/542/542/1 543/543/543/1
f 544/544/544/1 545/545/545/1 546/546/546/1 547/547/547/1
f 548/548/548/1 549/549/549/1 550/550/550/1 551/551/551/1
f 552/552/552/1 553/553/553/1 554/554/554/1 555/555/555/1
f 556/556/556/1 557/557/557/1 558/558/558/1 559/559/559/1
f 560/560/560/1 561/561/561/1 562/562/562/1 563/563/563/1
f 564/564/564/1 565/565/565/1 566/566/566/1 567/567/567/1
f 568/568/568/1 569/569/569/1 570/570/570/1 571/571/571/1
f 572/572/572/1 573/573/573/1 574/574/574/1 575/575/575/1
f 576/576/576/1 577/577/577/1 578/578/578/1 579/579/579/1
f 580/580/580/1 581/581/581/1 582/582/582/1 583/583/583/1
f 584/584/584/1 585/585/585/1 586/586/586/1 587/587/587/1
f 588/588/588/1 589/589/589/1 590/590/590/1 591/591/591/1
f 592/592/592/1 593/593/593/1 594/594/594/1 595/595/595/1
f 596/596/596/1 597/597/597/1 598/598/598/1 599/599/599/1
f 600/600/600/1 601/601/601/1 602/602/602/1 603/603/603/1
f 604/604/604/1 605/605/605/1 606/606/606/1 607/607/607/1
f 608/608/608/1 609/609/609/1 610/610/610/1 611/611/611/1
f 612/612/612/1 613/613/613/1 614/614/614/1 615/615/615/1
f 616/616/616/1 617/617/617/1 618/618/618/1 619/619/619/1
f 620/620/620/1 621/621/621/1 622/622/622/1 623/623/623/1
f 624/624/624/1 625/625/625/1 626/626/626/1 627/627/627/1
f 628/628/628/1 629/629/629/1 630/630/630/1 631/631/631/1
f 632/632/632/1 633/633/633/1 634/634/634/1 635/635/635/1
f 636/636/636/1 637/637/637/1 638/638/638/1 639/639/639/1
f 640/640/640/1 641/641/641/1 642/642/642/1 643/643/643/1
f 644/644/644/1 645/645/645/1 646/646/646/1 647/647/647/1
f 648/648/648/1 649/649/649/1 650/650/650/1 651/651/651/1
f 652/652/652/1 653/653/653/1 654/654/654/1 655/655/655/1
f 656/656/656/1 657/657/657/1 658/658/658/1 659/659/659/1
f 660/660/660/1 661/661/661/1 662/662/662/1 663/663/663/1
f 664/664/664/1 665/665/665/1 666/666/666/1 667/667/667/1
f 668/668/668/1 669/669/669/1 670/670/670/1 671/671/671/1
f 672/672/672/1 673/673/673/1 674/674/674/1 675/675/675/1
f 676/676/676/1 677/677/677/1 678/678/678/1 679/679/679/1
f 680/680/680/1 681/681/681/1 682/682/682/1 683/683/683/1
f 684/684/684/1 685/685/685/1 686/686/686/1 687/687/687/1
f 688/688/688/1 689/689/689/1 690/690/690/1 691/691/691/1
f 692/692/692/1 693/693/693/1 694/694/694/1 695/695/695/1
f 696/696/696/1 697/697/697/1 698/698/698/1 699/699/699/1
f 700/700/700/1 701/701/701/1 702/702/702/1 703/703/703/1
f 704/704/704/1 705/705/705/1 706/706/706/1 707/707/707/1
f 708/708/708/1 709/709/709/1 710/710/710/1 711/711/711/1
f 712/712/712/1 713/713/713/1 714/714/714/1 715/715/715/1
f 716/716/716/1 717/717/717/1 718/718/718/1 719/719/719/1
f 720/720/720/1 721/721/721/1 722/722/722/1 723/723/723/1
f 724/724/724/1 725/725/725/1 726/726/726/1 727/727/727/1
f 728/728/728/1 729/729/729/1 730/730/730/1 731/731/731/1
f 732/732/732/1 733/733/733/1 734/734/734/1 735/735/735/1
f 736/736/736/1 737/737/737/1 738/738/738/1 739/739/739/1
f 740/740/740/1 741/741/741/1 742/742/742/1 743/743/743/1
f 744/744/744/1 745/745/745/1 746/746/746/1 747/747/747/1
f 748/748/748/1 749/749/749/1 750/750/750/1 751/751/751/1
f 752/752/752/1 753/753/753/1 754/754/754/1 755/755/755/1
f 756/756/756/1 757/757/757/1 758/758/758/1 759/759/759/1
f 760/760/760/1 761/761/761/1 762/762/762/1 763/763/763/1
f 764/764/764/1 765/765/765/1 766/766/766/1 767/767/767/1
f 768/768/768/1 769/769/769/1 770/770/770/1 771/771/771/1
f 772/772/772/1 773/773/773/1 774/774/774/1 775/775/775/1
f 776/776/776/1 777/777/777/1 778/778/778/1 779/779/779/1
f 780/780/780/1 781/781/781/1 782/782/782/1 783/783/783/1
f 784/784/784/1 785/785/785/1 786/786/786/1 787/787/787/1
f 788/788/788/1 789/789/789/1 790/790/790/1 791/791/791/1
f 792/792/792/1 793/793/793/1 794/794/794/1 795/795/795/1
f 796/796/796/1 797/797/797/1 798/798/798/1 799/799/799/1
f 800/800/800/1 801/801/801/1 802/802/802/1 803/803/803/1
f 804/804/804/1 805/805/805/1 806/806/806/1 807/807/807/1
f 808/808/808/1 809/809/809/1 810/810/810/1 811/811/811/1
f 812/812/812/1 813/813/813/1 814/814/814/1 815/815/815/1
f 816/816/816/1 817/817/817/1 818/818/818/1 819/819/819/1
f 820/820/820/1 821/821/821/1 822/822/822/1 823/823/823/1
f 824/824/824/1 825/825/825/1 826/826/826/1 827/827/827/1
f 828/828/828/1 829/829/829/1 830/830/830/1 831/831/831/1
usemtl in38_kage
s off
f 1/1/1/1 2/2/2/1 3/3/3/1 4/4/4/1
f 5/5/5/1 6/6/6/1 7/7/7/1 8/8/8/1
f 9/9/9/1 10/10/10/1 11/11/11/1 12/12/12/1
f 13/13/13/1 14/14/14/1 15/15/15/1 16/16/16/1
usemtl out32_u_k1
s off
f 17/17/17/1 18/18/18/1 19/19/19/1 20/20/20/1
f 21/21/21/1 22/22/22/1 23/23/23/1 24/24/24/1
f 25/25/25/1 26/26/26/1 27/27/27/1 28/28/28/1
f 29/29/29/1 30/30/30/1 31/31/31/1 32/32/32/1
usemtl out32_u_k2
s off
f 235/235/235/1 236/236/236/1 237/237/237/1 238/238/238/1
f 239/239/239/1 240/240/240/1 241/241/241/1 242/242/242/1
f 243/243/243/1 244/244/244/1 245/245/245/1 246/246/246/1
f 247/247/247/1 248/248/248/1 249/249/249/1 250/250/250/1
f 251/251/251/1 252/252/252/1 253/253/253/1 254/254/254/1
f 255/255/255/1 256/256/256/1 257/257/257/1 258/258/258/1
f 259/259/259/1 260/260/260/1 261/261/261/1 262/262/262/1
f 263/263/263/1 264/264/264/1 265/265/265/1 266/266/266/1
f 267/267/267/1 268/268/268/1 269/269/269/1 270/270/270/1
f 271/271/271/1 272/272/272/1 273/273/273/1 274/274/274/1
f 275/275/275/1 276/276/276/1 277/277/277/1 278/278/278/1
f 279/279/279/1 280/280/280/1 281/281/281/1 282/282/282/1
f 214/214/214/1 215/215/215/1 216/216/216/1
f 217/217/217/1 218/218/218/1 219/219/219/1
f 220/220/220/1 221/221/221/1 222/222/222/1
f 223/223/223/1 224/224/224/1 225/225/225/1
f 226/226/226/1 227/227/227/1 228/228/228/1
f 229/229/229/1 230/230/230/1 231/231/231/1
f 232/232/232/1 233/233/233/1 234/234/234/1
usemtl out32_u_k4
s off
f 210/210/210/1 211/211/211/1 212/212/212/1 213/213/213/1
f 174/174/174/1 175/175/175/1 176/176/176/1
f 177/177/177/1 178/178/178/1 179/179/179/1
f 180/180/180/1 181/181/181/1 182/182/182/1
f 183/183/183/1 184/184/184/1 185/185/185/1
f 186/186/186/1 187/187/187/1 188/188/188/1
f 189/189/189/1 190/190/190/1 191/191/191/1
f 192/192/192/1 193/193/193/1 194/194/194/1
f 195/195/195/1 196/196/196/1 197/197/197/1
f 198/198/198/1 199/199/199/1 200/200/200/1
f 201/201/201/1 202/202/202/1 203/203/203/1
f 204/204/204/1 205/205/205/1 206/206/206/1
f 207/207/207/1 208/208/208/1 209/209/209/1
usemtl out32_u_u2
s off
f 150/150/150/1 151/151/151/1 152/152/152/1 153/153/153/1
f 154/154/154/1 155/155/155/1 156/156/156/1 157/157/157/1
f 158/158/158/1 159/159/159/1 160/160/160/1 161/161/161/1
f 162/162/162/1 163/163/163/1 164/164/164/1 165/165/165/1
f 166/166/166/1 167/167/167/1 168/168/168/1 169/169/169/1
f 170/170/170/1 171/171/171/1 172/172/172/1 173/173/173/1
f 132/132/132/1 133/133/133/1 134/134/134/1
f 135/135/135/1 136/136/136/1 137/137/137/1
f 138/138/138/1 139/139/139/1 140/140/140/1
f 141/141/141/1 142/142/142/1 143/143/143/1
f 144/144/144/1 145/145/145/1 146/146/146/1
f 147/147/147/1 148/148/148/1 149/149/149/1
usemtl out32_u_kaida
s off
f 88/88/88/1 89/89/89/1 90/90/90/1 91/91/91/1
f 92/92/92/1 93/93/93/1 94/94/94/1 95/95/95/1
f 96/96/96/1 97/97/97/1 98/98/98/1 99/99/99/1
f 100/100/100/1 101/101/101/1 102/102/102/1 103/103/103/1
f 104/104/104/1 105/105/105/1 106/106/106/1 107/107/107/1
f 108/108/108/1 109/109/109/1 110/110/110/1 111/111/111/1
f 112/112/112/1 113/113/113/1 114/114/114/1 115/115/115/1
f 116/116/116/1 117/117/117/1 118/118/118/1 119/119/119/1
f 120/120/120/1 121/121/121/1 122/122/122/1 123/123/123/1
f 124/124/124/1 125/125/125/1 126/126/126/1 127/127/127/1
f 128/128/128/1 129/129/129/1 130/130/130/1 131/131/131/1
usemtl pk_l_iwa6
s off
f 444/444/444/1 445/445/445/1 446/446/446/1 447/447/447/1
f 448/448/448/1 449/449/449/1 450/450/450/1 451/451/451/1
f 452/452/452/1 453/453/453/1 454/454/454/1 455/455/455/1
f 456/456/456/1 457/457/457/1 458/458/458/1 459/459/459/1
f 460/460/460/1 461/461/461/1 462/462/462/1 463/463/463/1
f 464/464/464/1 465/465/465/1 466/466/466/1 467/467/467/1
f 468/468/468/1 469/469/469/1 470/470/470/1 471/471/471/1
f 472/472/472/1 473/473/473/1 474/474/474/1 475/475/475/1
f 476/476/476/1 477/477/477/1 478/478/478/1 479/479/479/1
f 480/480/480/1 481/481/481/1 482/482/482/1 483/483/483/1
f 484/484/484/1 485/485/485/1 486/486/486/1 487/487/487/1
f 488/488/488/1 489/489/489/1 490/490/490/1 491/491/491/1
f 492/492/492/1 493/493/493/1 494/494/494/1 495/495/495/1
f 496/496/496/1 497/497/497/1 498/498/498/1 499/499/499/1
f 500/500/500/1 501/501/501/1 502/502/502/1 503/503/503/1
f 363/363/363/1 364/364/364/1 365/365/365/1
f 366/366/366/1 367/367/367/1 368/368/368/1
f 369/369/369/1 370/370/370/1 371/371/371/1
f 372/372/372/1 373/373/373/1 374/374/374/1
f 375/375/375/1 376/376/376/1 377/377/377/1
f 378/378/378/1 379/379/379/1 380/380/380/1
f 381/381/381/1 382/382/382/1 383/383/383/1
f 384/384/384/1 385/385/385/1 386/386/386/1
f 387/387/387/1 388/388/388/1 389/389/389/1
f 390/390/390/1 391/391/391/1 392/392/392/1
f 393/393/393/1 394/394/394/1 395/395/395/1
f 396/396/396/1 397/397/397/1 398/398/398/1
f 399/399/399/1 400/400/400/1 401/401/401/1
f 402/402/402/1 403/403/403/1 404/404/404/1
f 405/405/405/1 406/406/406/1 407/407/407/1
f 408/408/408/1 409/409/409/1 410/410/410/1
f 411/411/411/1 412/412/412/1 413/413/413/1
f 414/414/414/1 415/415/415/1 416/416/416/1
f 417/417/417/1 418/418/418/1 419/419/419/1
f 420/420/420/1 421/421/421/1 422/422/422/1
f 423/423/423/1 424/424/424/1 425/425/425/1
f 426/426/426/1 427/427/427/1 428/428/428/1
f 429/429/429/1 430/430/430/1 431/431/431/1
f 432/432/432/1 433/433/433/1 434/434/434/1
f 435/435/435/1 436/436/436/1 437/437/437/1
f 438/438/438/1 439/439/439/1 440/440/440/1
f 441/441/441/1 442/442/442/1 443/443/443/1
usemtl pk_l_iwa7
s off
f 42/42/42/1 43/43/43/1 44/44/44/1 45/45/45/1
f 46/46/46/1 47/47/47/1 48/48/48/1 49/49/49/1
f 50/50/50/1 51/51/51/1 52/52/52/1 53/53/53/1
f 54/54/54/1 55/55/55/1 56/56/56/1 57/57/57/1
f 33/33/33/1 34/34/34/1 35/35/35/1
f 36/36/36/1 37/37/37/1 38/38/38/1
f 39/39/39/1 40/40/40/1 41/41/41/1
usemtl pk_l_iwa3
s off
f 76/76/76/1 77/77/77/1 78/78/78/1 79/79/79/1
f 80/80/80/1 81/81/81/1 82/82/82/1 83/83/83/1
f 84/84/84/1 85/85/85/1 86/86/86/1 87/87/87/1
f 58/58/58/1 59/59/59/1 60/60/60/1
f 61/61/61/1 62/62/62/1 63/63/63/1
f 64/64/64/1 65/65/65/1 66/66/66/1
f 67/67/67/1 68/68/68/1 69/69/69/1
f 70/70/70/1 71/71/71/1 72/72/72/1
f 73/73/73/1 74/74/74/1 75/75/75/1
usemtl pk_l_iwa4
s off
f 355/355/355/1 356/356/356/1 357/357/357/1 358/358/358/1
f 359/359/359/1 360/360/360/1 361/361/361/1 362/362/362/1
f 283/283/283/1 284/284/284/1 285/285/285/1
f 286/286/286/1 287/287/287/1 288/288/288/1
f 289/289/289/1 290/290/290/1 291/291/291/1
f 292/292/292/1 293/293/293/1 294/294/294/1
f 295/295/295/1 296/296/296/1 297/297/297/1
f 298/298/298/1 299/299/299/1 300/300/300/1
f 301/301/301/1 302/302/302/1 303/303/303/1
f 304/304/304/1 305/305/305/1 306/306/306/1
f 307/307/307/1 308/308/308/1 309/309/309/1
f 310/310/310/1 311/311/311/1 312/312/312/1
f 313/313/313/1 314/314/314/1 315/315/315/1
f 316/316/316/1 317/317/317/1 318/318/318/1
f 319/319/319/1 320/320/320/1 321/321/321/1
f 322/322/322/1 323/323/323/1 324/324/324/1
f 325/325/325/1 326/326/326/1 327/327/327/1
f 328/328/328/1 329/329/329/1 330/330/330/1
f 331/331/331/1 332/332/332/1 333/333/333/1
f 334/334/334/1 335/335/335/1 336/336/336/1
f 337/337/337/1 338/338/338/1 339/339/339/1
f 340/340/340/1 341/341/341/1 342/342/342/1
f 343/343/343/1 344/344/344/1 345/345/345/1
f 346/346/346/1 347/347/347/1 348/348/348/1
f 349/349/349/1 350/350/350/1 351/351/351/1
f 352/352/352/1 353/353/353/1 354/354/354/1
