mtllib Asteria_02_15.mtl
o map
v -8.0 -8.0 0.0
v -16.0 -8.0 0.0
v -16.0 -16.0 0.0
v -8.0 -16.0 0.0
v -8.0 0.0 0.0
v -16.0 0.0 0.0
v -16.0 -8.0 0.0
v -8.0 -8.0 0.0
v -8.0 8.0 0.0
v -16.0 8.0 0.0
v -16.0 0.0 0.0
v -8.0 0.0 0.0
v -8.0 16.0 0.0
v -16.0 16.0 0.0
v -16.0 8.0 0.0
v -8.0 8.0 0.0
v 0.0 -8.0 0.0
v -8.0 -8.0 0.0
v -8.0 -16.0 0.0
v 0.0 -16.0 0.0
v 0.0 0.0 0.0
v -8.0 0.0 0.0
v -8.0 -8.0 0.0
v 0.0 -8.0 0.0
v 0.0 8.0 0.0
v -8.0 8.0 0.0
v -8.0 0.0 0.0
v 0.0 0.0 0.0
v 0.0 16.0 0.0
v -8.0 16.0 0.0
v -8.0 8.0 0.0
v 0.0 8.0 0.0
v 8.0 -8.0 0.0
v 0.0 -8.0 0.0
v 0.0 -16.0 0.0
v 8.0 -16.0 0.0
v 8.0 0.0 0.0
v 0.0 0.0 0.0
v 0.0 -8.0 0.0
v 8.0 -8.0 0.0
v 8.0 8.0 0.0
v 0.0 8.0 0.0
v 0.0 0.0 0.0
v 8.0 0.0 0.0
v 8.0 16.0 0.0
v 0.0 16.0 0.0
v 0.0 8.0 0.0
v 8.0 8.0 0.0
v 16.0 -8.0 0.0
v 8.0 -8.0 0.0
v 8.0 -16.0 0.0
v 16.0 -16.0 0.0
v 16.0 0.0 0.0
v 8.0 0.0 0.0
v 8.0 -8.0 0.0
v 16.0 -8.0 0.0
v 16.0 8.0 0.0
v 8.0 8.0 0.0
v 8.0 0.0 0.0
v 16.0 0.0 0.0
v 16.0 16.0 0.0
v 8.0 16.0 0.0
v 8.0 8.0 0.0
v 16.0 8.0 0.0
vt 2.0 2.0
vt 0.0 2.0
vt 0.0 0.0
vt 2.0 0.0
vt 2.0 4.0
vt 0.0 4.0
vt 0.0 2.0
vt 2.0 2.0
vt 2.0 6.0
vt 0.0 6.0
vt 0.0 4.0
vt 2.0 4.0
vt 2.0 8.0
vt 0.0 8.0
vt 0.0 6.0
vt 2.0 6.0
vt 4.0 2.0
vt 2.0 2.0
vt 2.0 0.0
vt 4.0 0.0
vt 4.0 4.0
vt 2.0 4.0
vt 2.0 2.0
vt 4.0 2.0
vt 4.0 6.0
vt 2.0 6.0
vt 2.0 4.0
vt 4.0 4.0
vt 4.0 8.0
vt 2.0 8.0
vt 2.0 6.0
vt 4.0 6.0
vt 6.0 2.0
vt 4.0 2.0
vt 4.0 0.0
vt 6.0 0.0
vt 6.0 4.0
vt 4.0 4.0
vt 4.0 2.0
vt 6.0 2.0
vt 6.0 6.0
vt 4.0 6.0
vt 4.0 4.0
vt 6.0 4.0
vt 6.0 8.0
vt 4.0 8.0
vt 4.0 6.0
vt 6.0 6.0
vt 8.0 2.0
vt 6.0 2.0
vt 6.0 0.0
vt 8.0 0.0
vt 8.0 4.0
vt 6.0 4.0
vt 6.0 2.0
vt 8.0 2.0
vt 8.0 6.0
vt 6.0 6.0
vt 6.0 4.0
vt 8.0 4.0
vt 8.0 8.0
vt 6.0 8.0
vt 6.0 6.0
vt 8.0 6.0
vn 0.0 0.0 1.0
vn 0.0 0.0 1.0
vn 0.0 0.0 1.0
vn 0.0 0.0 1.0
vn 0.0 0.0 1.0
vn 0.0 0.0 1.0
vn 0.0 0.0 1.0
vn 0.0 0.0 1.0
vn 0.0 0.0 1.0
vn 0.0 0.0 1.0
vn 0.0 0.0 1.0
vn 0.0 0.0 1.0
vn 0.0 0.0 1.0
vn 0.0 0.0 1.0
vn 0.0 0.0 1.0
vn 0.0 0.0 1.0
c 1.0 1.0 1.0
c 1.0 1.0 1.0
c 1.0 1.0 1.0
c 1.0 1.0 1.0
c 1.0 1.0 1.0
c 1.0 1.0 1.0
c 1.0 1.0 1.0
c 1.0 1.0 1.0
c 1.0 1.0 1.0
c 1.0 1.0 1.0
c 1.0 1.0 1.0
c 1.0 1.0 1.0
c 1.0 1.0 1.0
c 1.0 1.0 1.0
c 1.0 1.0 1.0
c 1.0 1.0 1.0
usemtl grass01ax
s off
f 1/1/1/1 2/2/1/1 3/3/1/1 4/4/1/1
f 5/5/2/2 6/6/2/2 7/7/2/2 8/8/2/2
f 9/9/3/3 10/10/3/3 11/11/3/3 12/12/3/3
f 13/13/4/4 14/14/4/4 15/15/4/4 16/16/4/4
f 17/17/5/5 18/18/5/5 19/19/5/5 20/20/5/5
f 21/21/6/6 22/22/6/6 23/23/6/6 24/24/6/6
f 25/25/7/7 26/26/7/7 27/27/7/7 28/28/7/7
f 29/29/8/8 30/30/8/8 31/31/8/8 32/32/8/8
f 33/33/9/9 34/34/9/9 35/35/9/9 36/36/9/9
f 37/37/10/10 38/38/10/10 39/39/10/10 40/40/10/10
f 41/41/11/11 42/42/11/11 43/43/11/11 44/44/11/11
f 45/45/12/12 46/46/12/12 47/47/12/12 48/48/12/12
f 49/49/13/13 50/50/13/13 51/51/13/13 52/52/13/13
f 53/53/14/14 54/54/14/14 55/55/14/14 56/56/14/14
f 57/57/15/15 58/58/15/15 59/59/15/15 60/60/15/15
f 61/61/16/16 62/62/16/16 63/63/16/16 64/64/16/16
