mtllib Asteria_04_33.mtl
o map
v 8.625 15.00391 32.273438
v 16.003906 15.00391 32.273438
v 16.003906 15.50391 32.273438
v 8.125 15.50391 32.273438
v 4.5390625 13.06641 32.273438
v 8.6171875 13.06641 32.273438
v 8.125 13.56641 32.273438
v 4.0390625 13.56641 32.273438
v 8.125 15.50391 32.273438
v 8.125 13.56641 32.273438
v 8.6171875 13.06641 32.273438
v 8.625 15.00391 32.273438
v 8.125 15.50391 32.273438
v 16.003906 15.50391 32.273438
v 16.003906 20.50391 32.273438
v 8.125 20.50391 32.273438
v 4.0390625 13.56641 32.273438
v 8.125 13.56641 32.273438
v 8.125 15.50391 32.273438
v 4.0390625 15.50391 32.273438
v 4.0390625 15.50391 32.273438
v 8.125 15.50391 32.273438
v 8.125 20.50391 32.273438
v 3.5390625 20.50391 32.273438
v 5.8984375 -8.835935 19.0625
v 5.8984375 -8.835935 18.695312
v 5.2070312 -8.835935 18.695312
v 5.2070312 -8.835935 19.0625
v 5.2070312 -8.835935 18.695312
v 5.2070312 -8.835935 18.488281
v 5.2070312 -9.546872 18.488281
v 5.2070312 -9.546872 18.695312
v 5.2070312 -9.546872 18.695312
v 5.2070312 -9.546872 18.488281
v 5.8984375 -9.546872 18.488281
v 5.8984375 -9.546872 18.695312
v 5.2070312 -8.835935 19.0625
v 5.2070312 -8.835935 18.695312
v 5.2070312 -9.546872 18.695312
v 5.2070312 -9.546872 19.0625
v 5.2070312 -9.546872 19.0625
v 5.2070312 -9.546872 18.695312
v 5.8984375 -9.546872 18.695312
v 5.8984375 -9.546872 19.0625
v 6.0546875 -9.687497 19.488281
v 6.0546875 -9.687497 19.0625
v 6.0546875 -8.687497 19.0625
v 6.0546875 -8.687497 19.488281
v 6.0546875 -8.687497 19.488281
v 6.0546875 -8.687497 19.0625
v 5.0546875 -8.687497 19.0625
v 5.0546875 -8.687497 19.488281
v 5.0546875 -8.687497 19.488281
v 5.0546875 -8.687497 19.0625
v 5.0546875 -9.687497 19.0625
v 5.0546875 -9.687497 19.488281
v 5.0546875 -9.687497 19.488281
v 5.0546875 -9.687497 19.0625
v 6.0546875 -9.687497 19.0625
v 6.0546875 -9.687497 19.488281
v 5.8984375 -9.546873 15.285156
v 5.8984375 -8.835936 15.285156
v 5.8984375 -8.835936 15.4921875
v 5.8984375 -9.546873 15.4921875
v 5.8984375 -8.835936 15.285156
v 5.2070312 -8.835936 15.285156
v 5.2070312 -8.835936 15.4921875
v 5.8984375 -8.835936 15.4921875
v 5.8984375 -9.546873 14.9140625
v 5.8984375 -8.835936 14.9140625
v 5.8984375 -8.835936 15.285156
v 5.8984375 -9.546873 15.285156
v 5.8984375 -8.835936 14.9140625
v 5.2070312 -8.835936 14.9140625
v 5.2070312 -8.835936 15.285156
v 5.8984375 -8.835936 15.285156
v 5.8984375 -8.835935 18.695312
v 5.8984375 -8.835935 18.488281
v 5.2070312 -8.835935 18.488281
v 5.2070312 -8.835935 18.695312
v 5.2070312 -9.546873 15.285156
v 5.8984375 -9.546873 15.285156
v 5.8984375 -9.546873 15.4921875
v 5.2070312 -9.546873 15.4921875
v 5.2070312 -8.835936 14.9140625
v 5.2070312 -9.546873 14.9140625
v 5.2070312 -9.546873 15.285156
v 5.2070312 -8.835936 15.285156
v 5.2070312 -9.546873 14.9140625
v 5.8984375 -9.546873 14.9140625
v 5.8984375 -9.546873 15.285156
v 5.2070312 -9.546873 15.285156
v 6.0546875 -9.687498 14.488283
v 6.0546875 -8.687498 14.488281
v 6.0546875 -8.687498 14.9140625
v 6.0546875 -9.687498 14.914064
v 6.0546875 -8.687498 14.488281
v 5.0546875 -8.687498 14.488281
v 5.0546875 -8.687498 14.9140625
v 6.0546875 -8.687498 14.9140625
v 5.8984375 -9.546873 14.9140625
v 6.0546875 -9.687498 14.914064
v 6.0546875 -8.687498 14.9140625
v 5.8984375 -8.835936 14.9140625
v 5.8984375 -8.835936 14.9140625
v 6.0546875 -8.687498 14.9140625
v 5.0546875 -8.687498 14.9140625
v 5.2070312 -8.835936 14.9140625
v 5.0546875 -8.687498 14.488281
v 5.0546875 -9.687498 14.488283
v 5.0546875 -9.687498 14.914064
v 5.0546875 -8.687498 14.9140625
v 5.0546875 -9.687498 14.488283
v 6.0546875 -9.687498 14.488283
v 6.0546875 -9.687498 14.914064
v 5.0546875 -9.687498 14.914064
v 5.2070312 -8.835936 14.9140625
v 5.0546875 -8.687498 14.9140625
v 5.0546875 -9.687498 14.914064
v 5.203125 -9.546873 14.9140625
v 5.203125 -9.546873 14.9140625
v 5.0546875 -9.687498 14.914064
v 6.0546875 -9.687498 14.914064
v 5.8984375 -9.546873 14.9140625
v 9.207031 -9.546873 14.9140625
v 9.675781 -9.546873 14.9140625
v 9.671875 -9.546873 15.285156
v 9.207031 -9.546873 15.285156
v 5.3007812 -8.937497 19.488281
v 5.3007812 -9.441403 19.488281
v 5.8007812 -9.441403 19.488281
v 5.8007812 -8.937497 19.488281
v 5.8007812 -8.937497 19.488281
v 5.8007812 -9.441403 19.488281
v 6.0546875 -9.687497 19.488281
v 6.0546875 -8.687497 19.488281
v 5.8984375 -9.546872 18.695312
v 5.8984375 -9.546872 18.488281
v 5.8984375 -8.835935 18.488281
v 5.8984375 -8.835935 18.695312
v 5.3007812 -9.441403 19.488281
v 5.3007812 -8.937497 19.488281
v 5.0546875 -8.687497 19.488281
v 5.0546875 -9.687497 19.488281
v 9.207031 -8.835936 15.285156
v 9.207031 -9.546873 15.285156
v 9.207031 -9.546873 15.4921875
v 9.207031 -8.835936 15.4921875
v 9.207031 -9.546873 15.285156
v 9.671875 -9.546873 15.285156
v 9.6640625 -9.546873 15.4921875
v 9.207031 -9.546873 15.4921875
v 5.2070312 -8.835936 15.285156
v 5.2070312 -9.546873 15.285156
v 5.2070312 -9.546873 15.4921875
v 5.2070312 -8.835936 15.4921875
v 9.207031 -8.835936 14.9140625
v 9.207031 -9.546873 14.9140625
v 9.207031 -9.546873 15.285156
v 9.207031 -8.835936 15.285156
v 5.3007812 -8.937497 19.488281
v 5.8007812 -8.937497 19.488281
v 6.0546875 -8.687497 19.488281
v 5.0546875 -8.687497 19.488281
v 9.0546875 -8.687498 14.488281
v 9.0546875 -9.687498 14.488283
v 9.0546875 -9.687498 14.914064
v 9.0546875 -8.687498 14.9140625
v 9.0546875 -9.687498 14.488283
v 9.6875 -9.687498 14.488283
v 9.675781 -9.687498 14.914064
v 9.0546875 -9.687498 14.914064
v 5.8007812 -9.441403 19.488281
v 5.3007812 -9.441403 19.488281
v 5.0546875 -9.687497 19.488281
v 6.0546875 -9.687497 19.488281
v 5.8984375 -9.546872 19.0625
v 5.8984375 -9.546872 18.695312
v 5.8984375 -8.835935 18.695312
v 5.8984375 -8.835935 19.0625
v 9.8984375 -8.835936 14.9140625
v 10.0546875 -8.687498 14.9140625
v 9.0546875 -8.687498 14.9140625
v 9.207031 -8.835936 14.9140625
v 5.2070312 -9.546872 18.488281
v 5.2070312 -8.835935 18.488281
v 5.2070312 -8.835936 16.402344
v 5.2070312 -9.546873 16.402344
v 5.2070312 -9.546873 16.402344
v 5.2070312 -8.835936 16.402344
v 5.2070312 -8.835936 15.4921875
v 5.2070312 -9.546873 15.4921875
v 5.8984375 -9.546872 18.488281
v 5.2070312 -9.546872 18.488281
v 5.2070312 -9.546873 16.402344
v 5.8984375 -9.546873 16.402344
v 5.8984375 -9.546873 16.402344
v 5.2070312 -9.546873 16.402344
v 5.2070312 -9.546873 15.4921875
v 5.8984375 -9.546873 15.4921875
v 5.8984375 -8.835935 18.488281
v 5.8984375 -9.546872 18.488281
v 5.8984375 -9.546873 16.402344
v 5.8984375 -8.835936 16.402344
v 5.8984375 -8.835936 16.402344
v 5.8984375 -9.546873 16.402344
v 5.8984375 -9.546873 15.4921875
v 5.8984375 -8.835936 15.4921875
v 5.2070312 -8.835935 18.488281
v 5.8984375 -8.835935 18.488281
v 5.8984375 -8.835936 16.402344
v 5.2070312 -8.835936 16.402344
v 5.2070312 -8.835936 16.402344
v 5.8984375 -8.835936 16.402344
v 5.8984375 -8.835936 15.4921875
v 5.2070312 -8.835936 15.4921875
v 9.207031 -8.835936 14.9140625
v 9.0546875 -8.687498 14.9140625
v 9.0546875 -9.687498 14.914064
v 9.203125 -9.546873 14.9140625
v 9.203125 -9.546873 14.9140625
v 9.0546875 -9.687498 14.914064
v 9.675781 -9.687498 14.914064
v 9.675781 -9.546873 14.9140625
v 9.207031 -8.835936 15.4921875
v 9.207031 -9.191403 16.820312
v 9.207031 -8.835935 17.03125
v 9.207031 -9.546872 16.609375
v 9.207031 -9.546873 15.4921875
v 9.550781 -9.546873 16.472656
v 9.207031 -9.546873 15.4921875
v 9.6640625 -9.546873 15.4921875
v 9.550781 -9.546873 16.472656
v 9.207031 -9.546872 16.609375
v 9.207031 -9.191403 16.820312
v 9.207031 -9.546873 15.4921875
v 9.207031 -9.191403 16.820312
v 9.207031 -8.835936 15.4921875
v 9.207031 -9.546873 15.4921875
v 13.207031 -9.546872 18.695312
v 13.207031 -9.546872 18.488281
v 13.8984375 -9.546872 18.488281
v 13.8984375 -9.546872 18.695312
v 13.8984375 -9.546872 18.695312
v 13.8984375 -9.546872 18.488281
v 13.8984375 -8.835935 18.488281
v 13.8984375 -8.835935 18.695312
v 13.207031 -8.835935 19.0625
v 13.207031 -8.835935 18.695312
v 13.207031 -9.546872 18.695312
v 13.207031 -9.546872 19.0625
v 13.207031 -9.546872 19.0625
v 13.207031 -9.546872 18.695312
v 13.8984375 -9.546872 18.695312
v 13.8984375 -9.546872 19.0625
v 14.0546875 -9.687497 19.488281
v 14.0546875 -9.687497 19.0625
v 14.0546875 -8.687497 19.0625
v 14.0546875 -8.687497 19.488281
v 13.0546875 -8.687497 19.488281
v 13.0546875 -8.687497 19.0625
v 13.0546875 -9.687497 19.0625
v 13.0546875 -9.687497 19.488281
v 13.0546875 -9.687497 19.488281
v 13.0546875 -9.687497 19.0625
v 14.0546875 -9.687497 19.0625
v 14.0546875 -9.687497 19.488281
v 13.8984375 -9.546873 15.285156
v 13.8984375 -8.835936 15.285156
v 13.8984375 -8.835936 15.4921875
v 13.8984375 -9.546873 15.4921875
v 13.8984375 -9.546873 14.9140625
v 13.8984375 -8.835936 14.9140625
v 13.8984375 -8.835936 15.285156
v 13.8984375 -9.546873 15.285156
v 13.207031 -8.835936 15.285156
v 13.207031 -9.546873 15.285156
v 13.207031 -9.546873 15.4921875
v 13.207031 -8.835936 15.4921875
v 13.207031 -9.546873 15.285156
v 13.8984375 -9.546873 15.285156
v 13.8984375 -9.546873 15.4921875
v 13.207031 -9.546873 15.4921875
v 13.207031 -8.835936 14.9140625
v 13.207031 -9.546873 14.9140625
v 13.207031 -9.546873 15.285156
v 13.207031 -8.835936 15.285156
v 13.207031 -9.546873 14.9140625
v 13.8984375 -9.546873 14.9140625
v 13.8984375 -9.546873 15.285156
v 13.207031 -9.546873 15.285156
v 14.0546875 -9.687498 14.488283
v 14.0546875 -8.687498 14.488281
v 14.0546875 -8.687498 14.9140625
v 14.0546875 -9.687498 14.914064
v 13.8984375 -9.546873 14.9140625
v 14.0546875 -9.687498 14.914064
v 14.0546875 -8.687498 14.9140625
v 13.8984375 -8.835936 14.9140625
v 13.8984375 -8.835936 14.9140625
v 14.0546875 -8.687498 14.9140625
v 13.0546875 -8.687498 14.9140625
v 13.207031 -8.835936 14.9140625
v 13.0546875 -8.687498 14.488281
v 13.0546875 -9.687498 14.488283
v 13.0546875 -9.687498 14.914064
v 13.0546875 -8.687498 14.9140625
v 13.0546875 -9.687498 14.488283
v 14.0546875 -9.687498 14.488283
v 14.0546875 -9.687498 14.914064
v 13.0546875 -9.687498 14.914064
v 13.207031 -8.835936 14.9140625
v 13.0546875 -8.687498 14.9140625
v 13.0546875 -9.687498 14.914064
v 13.203125 -9.546873 14.9140625
v 13.203125 -9.546873 14.9140625
v 13.0546875 -9.687498 14.914064
v 14.0546875 -9.687498 14.914064
v 13.8984375 -9.546873 14.9140625
v 13.300781 -8.937497 19.488281
v 13.300781 -9.441403 19.488281
v 13.800781 -9.441403 19.488281
v 13.800781 -8.937497 19.488281
v 9.6640625 -9.546873 15.4921875
v 9.671875 -9.546873 15.285156
v 9.8984375 -9.546873 15.285156
v 9.8984375 -9.546873 15.4921875
v 13.800781 -8.937497 19.488281
v 13.800781 -9.441403 19.488281
v 14.0546875 -9.687497 19.488281
v 14.0546875 -8.687497 19.488281
v 9.6875 -9.687498 14.488283
v 10.0546875 -9.687498 14.488283
v 10.0546875 -9.687498 14.914064
v 9.675781 -9.687498 14.914064
v 13.300781 -8.937497 19.488281
v 13.800781 -8.937497 19.488281
v 14.0546875 -8.687497 19.488281
v 13.0546875 -8.687497 19.488281
v 13.300781 -9.441403 19.488281
v 13.300781 -8.937497 19.488281
v 13.0546875 -8.687497 19.488281
v 13.0546875 -9.687497 19.488281
v 9.8984375 -9.546873 15.285156
v 9.8984375 -8.835936 15.285156
v 9.8984375 -8.835936 15.4921875
v 9.8984375 -9.546873 15.4921875
v 9.675781 -9.546873 14.9140625
v 9.675781 -9.687498 14.914064
v 10.0546875 -9.687498 14.914064
v 9.8984375 -9.546873 14.9140625
v 9.8984375 -9.546873 14.9140625
v 9.8984375 -8.835936 14.9140625
v 9.8984375 -8.835936 15.285156
v 9.8984375 -9.546873 15.285156
v 13.800781 -9.441403 19.488281
v 13.300781 -9.441403 19.488281
v 13.0546875 -9.687497 19.488281
v 14.0546875 -9.687497 19.488281
v 9.675781 -9.546873 14.9140625
v 9.8984375 -9.546873 14.9140625
v 9.8984375 -9.546873 15.285156
v 9.671875 -9.546873 15.285156
v 10.0546875 -9.687498 14.488283
v 10.0546875 -8.687498 14.488281
v 10.0546875 -8.687498 14.9140625
v 10.0546875 -9.687498 14.914064
v 9.8984375 -9.546873 14.9140625
v 10.0546875 -9.687498 14.914064
v 10.0546875 -8.687498 14.9140625
v 9.8984375 -8.835936 14.9140625
v 13.8984375 -9.546872 19.0625
v 13.8984375 -9.546872 18.695312
v 13.8984375 -8.835935 18.695312
v 13.8984375 -8.835935 19.0625
v 13.207031 -8.835935 18.695312
v 13.207031 -8.835935 18.488281
v 13.207031 -9.546872 18.488281
v 13.207031 -9.546872 18.695312
v 13.207031 -9.546872 18.488281
v 13.207031 -8.835935 18.488281
v 13.207031 -8.835936 16.402344
v 13.207031 -9.546873 16.402344
v 13.207031 -9.546873 16.402344
v 13.207031 -8.835936 16.402344
v 13.207031 -8.835936 15.4921875
v 13.207031 -9.546873 15.4921875
v 13.8984375 -8.835935 18.488281
v 13.8984375 -9.546872 18.488281
v 13.8984375 -9.546873 16.402344
v 13.8984375 -8.835936 16.402344
v 13.8984375 -8.835936 16.402344
v 13.8984375 -9.546873 16.402344
v 13.8984375 -9.546873 15.4921875
v 13.8984375 -8.835936 15.4921875
v 13.8984375 -9.546872 18.488281
v 13.207031 -9.546872 18.488281
v 13.207031 -9.546873 16.402344
v 13.8984375 -9.546873 16.402344
v 13.8984375 -9.546873 16.402344
v 13.207031 -9.546873 16.402344
v 13.207031 -9.546873 15.4921875
v 13.8984375 -9.546873 15.4921875
v 9.8984375 -9.546873 15.4921875
v 9.8984375 -9.191403 16.824219
v 9.8984375 -9.546872 16.609375
v 9.6640625 -9.546873 15.4921875
v 9.8984375 -9.546873 15.4921875
v 9.550781 -9.546873 16.472656
v 9.8984375 -9.546873 15.4921875
v 9.8984375 -9.546872 16.609375
v 9.550781 -9.546873 16.472656
v 9.8984375 -8.835935 17.039062
v 9.8984375 -9.191403 16.824219
v 9.8984375 -8.835936 15.4921875
v 9.8984375 -9.191403 16.824219
v 9.8984375 -9.546873 15.4921875
v 9.8984375 -8.835936 15.4921875
v 6.0546875 -8.687498 14.488281
v 6.0546875 -9.687498 14.488283
v 6.5546875 -10.187498 14.488283
v 6.5546875 -9.187498 14.488281
v 6.0546875 -9.687498 14.488283
v 5.0546875 -9.687498 14.488283
v 5.5546875 -10.187498 14.488283
v 6.5546875 -10.187498 14.488283
v 10.0546875 -8.687498 14.488281
v 10.0546875 -9.687498 14.488283
v 10.5546875 -10.187498 14.488283
v 10.5546875 -9.187498 14.488281
v 10.0546875 -9.687498 14.488283
v 9.0546875 -9.687498 14.488283
v 9.5546875 -10.187498 14.488283
v 10.5546875 -10.187498 14.488283
v 14.0546875 -8.687498 14.488281
v 14.0546875 -9.687498 14.488283
v 14.5546875 -10.187498 14.488283
v 14.5546875 -9.187498 14.488281
v 14.0546875 -9.687498 14.488283
v 13.0546875 -9.687498 14.488283
v 13.5546875 -10.187498 14.488283
v 14.5546875 -10.187498 14.488283
v 9.8984375 -8.835935 17.039062
v 9.550781 -8.835935 16.902344
v 9.542969 -9.171872 16.6875
v 9.8984375 -9.191403 16.824219
v 9.8984375 -9.191403 16.824219
v 9.542969 -9.171872 16.6875
v 9.550781 -9.546873 16.472656
v 9.8984375 -9.546872 16.609375
v 9.207031 -9.546872 16.609375
v 9.550781 -9.546873 16.472656
v 9.542969 -9.171872 16.6875
v 9.207031 -9.191403 16.820312
v 9.207031 -9.191403 16.820312
v 9.542969 -9.171872 16.6875
v 9.550781 -8.835935 16.902344
v 9.207031 -8.835935 17.03125
v 7.8671875 16.015629 39.484375
v 7.8671875 16.015629 40.79297
v 7.1601562 16.015629 40.79297
v 7.1601562 16.015629 39.484375
v 7.8671875 15.703129 39.484375
v 7.8671875 16.015629 39.484375
v 7.25 16.015629 39.484375
v 7.25 15.703129 39.484375
v 7.8671875 15.703129 38.851562
v 7.8671875 15.703129 39.484375
v 7.25 15.703129 39.484375
v 6.9023438 15.703129 38.851562
v 4.9609375 15.605473 45.703125
v 4.9609375 15.72266 45.703125
v 4.8242188 15.730473 45.777344
v 4.8242188 15.589848 45.777344
v 6.78125 15.585941 45.777344
v 6.78125 15.734379 45.777344
v 6.6445312 15.72266 45.703125
v 6.6445312 15.605473 45.703125
v 6.171875 15.984379 44.96875
v 6.0546875 16.074223 45.628906
v 5.609375 16.074223 45.628906
v 5.4960938 15.984379 44.96875
v 6.1992188 15.796879 44.48047
v 6.171875 15.984379 44.96875
v 5.4960938 15.984379 44.96875
v 5.46875 15.796879 44.48047
v 5.828125 14.769535 42.914062
v 5.828125 14.769535 43.71875
v 5.1132812 15.140629 43.71875
v 5.1132812 15.140629 42.914062
v 6.5429688 15.140629 42.914062
v 6.5429688 15.140629 43.71875
v 5.828125 14.769535 43.71875
v 5.828125 14.769535 42.914062
v 5.4140625 15.863285 44.296875
v 5.296875 15.839848 44.60547
v 5.296875 15.375004 44.60547
v 5.4453125 15.332035 44.296875
v 5.4453125 15.332035 44.296875
v 5.296875 15.375004 44.60547
v 4.875 15.332035 44.65625
v 4.984375 15.277348 44.15625
v 4.984375 15.277348 44.15625
v 4.875 15.332035 44.65625
v 4.875 15.863285 44.65625
v 4.984375 15.960941 44.15625
v 6.34375 15.839848 44.601562
v 6.2421875 15.863285 44.285156
v 6.2148438 15.332035 44.285156
v 6.34375 15.375004 44.601562
v 6.34375 15.375004 44.601562
v 6.2148438 15.332035 44.285156
v 6.6835938 15.277348 44.171875
v 6.765625 15.332035 44.679688
v 6.765625 15.332035 44.679688
v 6.6835938 15.277348 44.171875
v 6.6835938 15.960941 44.171875
v 6.765625 15.863285 44.679688
v 4.8242188 15.589848 45.777344
v 4.8242188 15.730473 45.777344
v 4.9101562 15.781254 45.40625
v 4.9101562 15.476566 45.40625
v 4.9101562 15.476566 45.40625
v 4.9101562 15.781254 45.40625
v 4.875 15.863285 44.65625
v 4.875 15.332035 44.65625
v 5.8359375 15.277348 44.140625
v 5.4453125 15.332035 44.296875
v 4.984375 15.277348 44.15625
v 5.2773438 15.339848 43.734375
v 5.2773438 15.339848 43.734375
v 4.984375 15.277348 44.15625
v 4.984375 15.960941 44.15625
v 5.2773438 16.03516 43.734375
v 6.78125 15.734379 45.777344
v 6.78125 15.585941 45.777344
v 6.703125 15.476566 45.414062
v 6.703125 15.781254 45.414062
v 6.703125 15.781254 45.414062
v 6.703125 15.476566 45.414062
v 6.765625 15.332035 44.679688
v 6.765625 15.863285 44.679688
v 6.6445312 15.605473 45.703125
v 6.6445312 15.72266 45.703125
v 6.453125 15.781254 45.265625
v 6.453125 15.476566 45.265625
v 6.453125 15.476566 45.265625
v 6.453125 15.781254 45.265625
v 6.34375 15.839848 44.601562
v 6.34375 15.375004 44.601562
v 6.34375 15.375004 44.601562
v 6.765625 15.332035 44.679688
v 6.703125 15.476566 45.414062
v 6.453125 15.476566 45.265625
v 6.453125 15.476566 45.265625
v 6.703125 15.476566 45.414062
v 6.78125 15.585941 45.777344
v 6.6445312 15.605473 45.703125
v 6.2148438 15.332035 44.285156
v 5.8359375 15.277348 44.140625
v 6.3828125 15.339848 43.734375
v 6.6835938 15.277348 44.171875
v 6.6835938 15.277348 44.171875
v 6.3828125 15.339848 43.734375
v 6.3828125 16.03516 43.734375
v 6.6835938 15.960941 44.171875
v 4.9609375 15.72266 45.703125
v 4.9609375 15.605473 45.703125
v 5.1679688 15.476566 45.265625
v 5.1679688 15.781254 45.265625
v 5.1679688 15.781254 45.265625
v 5.1679688 15.476566 45.265625
v 5.296875 15.375004 44.60547
v 5.296875 15.839848 44.60547
v 4.875 15.332035 44.65625
v 5.296875 15.375004 44.60547
v 5.1679688 15.476566 45.265625
v 4.9101562 15.476566 45.40625
v 4.9101562 15.476566 45.40625
v 5.1679688 15.476566 45.265625
v 4.9609375 15.605473 45.703125
v 4.8242188 15.589848 45.777344
v 5.2773438 15.339848 43.734375
v 5.2773438 16.03516 43.734375
v 5.8320312 16.03516 43.734375
v 5.8320312 15.339848 43.734375
v 5.8320312 15.339848 43.734375
v 5.8320312 16.03516 43.734375
v 6.3828125 16.03516 43.734375
v 6.3828125 15.339848 43.734375
v 5.609375 16.074223 45.628906
v 5.8320312 16.101566 46.066406
v 5.734375 16.101566 46.01953
v 5.8359375 15.277348 44.140625
v 5.2773438 15.339848 43.734375
v 5.8320312 15.339848 43.734375
v 5.8359375 15.277348 44.140625
v 5.4140625 15.863285 44.296875
v 5.4453125 15.332035 44.296875
v 6.3828125 15.339848 43.734375
v 5.8359375 15.277348 44.140625
v 5.8320312 15.339848 43.734375
v 5.8359375 15.277348 44.140625
v 6.2148438 15.332035 44.285156
v 6.2421875 15.863285 44.285156
v 6.2421875 15.863285 44.285156
v 6.1992188 15.796879 44.48047
v 5.8359375 15.277348 44.140625
v 6.1992188 15.796879 44.48047
v 5.46875 15.796879 44.48047
v 5.8359375 15.277348 44.140625
v 5.8359375 15.277348 44.140625
v 5.46875 15.796879 44.48047
v 5.4140625 15.863285 44.296875
v 5.609375 16.074223 45.628906
v 6.0546875 16.074223 45.628906
v 5.8320312 16.101566 46.066406
v 6.0546875 16.074223 45.628906
v 5.9296875 16.101566 46.01953
v 5.8320312 16.101566 46.066406
v 5.1132812 15.140629 43.71875
v 5.828125 14.769535 43.71875
v 5.828125 15.523441 43.71875
v 5.828125 14.769535 43.71875
v 6.5429688 15.140629 43.71875
v 5.828125 15.523441 43.71875
v 12.996094 -5.859373 15.144531
v 13.859375 -4.8203106 16.179688
v 11.089844 -4.8007793 16.199219
v 10.855469 -5.855467 15.1484375
v 13.0 0.8476591 21.847656
v 14.71875 2.0000038 23.0
v 11.0625 2.0273476 23.027344
v 10.730469 0.85156536 21.851562
v 13.5859375 5.050785 26.050781
v 14.0703125 6.22266 27.222656
v 11.277344 6.2421913 27.242188
v 10.8203125 5.082035 26.085938
v 13.6640625 9.945316 30.945312
v 10.375 9.945316 30.945312
v 11.1875 8.605473 29.605469
v 16.0 11.000004 32.0
v 9.738281 11.000004 32.0
v 10.375 9.945316 30.945312
v 13.6640625 9.945316 30.945312
v 16.0 9.945316 30.945312
v 13.6640625 9.945316 30.945312
v 11.1875 8.605473 29.605469
v 16.0 8.605473 29.609375
v 16.0 8.605473 29.609375
v 11.1875 8.605473 29.605469
v 14.0703125 6.22266 27.222656
v 16.0 6.2109413 27.210938
v 16.0 6.2109413 27.210938
v 14.0703125 6.22266 27.222656
v 13.5859375 5.050785 26.050781
v 16.0 5.019535 26.023438
v 16.0 5.019535 26.023438
v 13.5859375 5.050785 26.050781
v 10.5078125 4.1796913 25.179688
v 16.0 4.1054726 25.105469
v 16.0 4.1054726 25.105469
v 10.5078125 4.1796913 25.179688
v 10.691406 3.2187538 24.21875
v 16.0 3.19141 24.191406
v 16.0 3.19141 24.191406
v 10.691406 3.2187538 24.21875
v 11.0625 2.0273476 23.027344
v 14.71875 2.0000038 23.0
v 16.0 1.9921913 22.992188
v 14.71875 2.0000038 23.0
v 13.0 0.8476591 21.847656
v 16.0 0.8398466 21.839844
v 16.0 0.8398466 21.839844
v 13.0 0.8476591 21.847656
v 10.3125 0.023440361 21.023438
v 16.0 0.019534111 21.019531
v 16.0 0.019534111 21.019531
v 10.3125 0.023440361 21.023438
v 10.1015625 -2.5195293 18.480469
v 16.0 -2.499998 18.5
v 16.0 -2.499998 18.5
v 10.1015625 -2.5195293 18.480469
v 10.6328125 -3.2148418 17.785156
v 16.0 -3.2421856 17.757812
v 16.0 -3.2421856 17.757812
v 10.6328125 -3.2148418 17.785156
v 11.089844 -4.8007793 16.199219
v 13.859375 -4.8203106 16.179688
v 9.777344 -6.999998 14.0
v 16.0 -6.999998 14.0
v 16.0 -5.8632793 15.136719
v 12.996094 -5.859373 15.144531
v 12.996094 -5.859373 15.144531
v 16.0 -5.8632793 15.136719
v 16.0 -4.8359356 16.164062
v 13.859375 -4.8203106 16.179688
v 16.0 1.9921913 22.992188
v 16.0 3.19141 24.191406
v 14.71875 2.0000038 23.0
v 10.3125 0.023440361 21.023438
v 13.0 0.8476591 21.847656
v 10.730469 0.85156536 21.851562
v 16.0 -4.8359356 16.164062
v 16.0 -3.2421856 17.757812
v 13.859375 -4.8203106 16.179688
v 9.777344 -6.999998 14.0
v 12.996094 -5.859373 15.144531
v 10.855469 -5.855467 15.1484375
v 16.0 11.000004 32.0
v 13.6640625 9.945316 30.945312
v 16.0 9.945316 30.945312
v 14.0703125 6.22266 27.222656
v 11.1875 8.605473 29.605469
v 11.277344 6.2421913 27.242188
v 10.5078125 4.1796913 25.179688
v 13.5859375 5.050785 26.050781
v 10.8203125 5.082035 26.085938
v 8.339844 -12.999998 14.000002
v 8.386719 -6.999998 14.0
v 4.1015625 -6.999998 14.0
v 4.1054688 -12.999998 14.000002
v 9.78125 -12.999998 14.000002
v 16.0 -12.999998 14.000002
v 16.0 -6.999998 14.0
v 9.777344 -6.999998 14.0
v 9.78125 -12.999998 14.000002
v 9.777344 -6.999998 14.0
v 8.386719 -6.999998 14.0
v 8.339844 -12.999998 14.000002
v 16.0 12.281254 32.0
v 16.0 26.304691 32.0
v 9.9296875 26.324223 32.0
v 9.78125 12.296879 32.0
v 16.0 11.000004 32.0
v 16.0 12.281254 32.0
v 9.78125 12.296879 32.0
v 9.738281 11.000004 32.0
v 9.9296875 26.324223 32.0
v 4.4257812 26.31641 32.277344
v 4.1445312 12.488285 32.0
v 9.78125 12.296879 32.0
v 9.9296875 26.324223 32.0
v 16.0 21.976566 40.046875
v 4.9101562 21.976566 40.046875
v 4.4257812 26.31641 32.277344
v 8.417969 11.351566 32.0
v 4.1445312 12.488285 32.0
v 4.0664062 11.000004 32.0
v 8.285156 11.000004 32.0
v 10.375 9.945316 30.945312
v 9.738281 11.000004 32.0
v 8.285156 11.000004 32.0
v 9.7265625 8.605473 29.605469
v 4.1015625 -6.999998 14.0
v 8.386719 -6.999998 14.0
v 9.402344 -5.855467 15.1484375
v 5.1796875 -5.855467 15.1484375
v 5.1796875 -5.855467 15.1484375
v 9.402344 -5.855467 15.1484375
v 9.613281 -4.8007793 16.199219
v 5.4140625 -4.8007793 16.199219
v 5.4140625 -4.8007793 16.199219
v 9.613281 -4.8007793 16.199219
v 9.191406 -3.2148418 17.785156
v 4.9570312 -3.2148418 17.785156
v 4.9570312 -3.2148418 17.785156
v 9.191406 -3.2148418 17.785156
v 8.6796875 -2.5195293 18.480469
v 4.4257812 -2.5195293 18.480469
v 4.4257812 -2.5195293 18.480469
v 8.6796875 -2.5195293 18.480469
v 8.839844 0.023440361 21.023438
v 3.9101562 0.023440361 21.023438
v 3.9101562 0.023440361 21.023438
v 8.839844 0.023440361 21.023438
v 9.285156 0.85156536 21.851562
v 5.0585938 0.85156536 21.851562
v 5.0585938 0.85156536 21.851562
v 9.285156 0.85156536 21.851562
v 9.589844 2.0273476 23.027344
v 5.3867188 2.0273476 23.027344
v 5.3867188 2.0273476 23.027344
v 9.589844 2.0273476 23.027344
v 9.2578125 3.2187538 24.21875
v 5.015625 3.2187538 24.21875
v 5.015625 3.2187538 24.21875
v 9.2578125 3.2187538 24.21875
v 9.082031 4.1796913 25.179688
v 4.8359375 4.1796913 25.179688
v 4.8359375 4.1796913 25.179688
v 9.082031 4.1796913 25.179688
v 9.375 5.082035 26.085938
v 5.1484375 5.082035 26.085938
v 5.1484375 5.082035 26.085938
v 9.375 5.082035 26.085938
v 9.832031 6.2421913 27.242188
v 5.6054688 6.2421913 27.242188
v 5.6054688 6.2421913 27.242188
v 9.832031 6.2421913 27.242188
v 9.7265625 8.605473 29.605469
v 5.5117188 8.605473 29.605469
v 5.5117188 8.605473 29.605469
v 9.7265625 8.605473 29.605469
v 8.285156 11.000004 32.0
v 4.0664062 11.000004 32.0
v 11.1875 8.605473 29.605469
v 9.7265625 8.605473 29.605469
v 9.832031 6.2421913 27.242188
v 11.277344 6.2421913 27.242188
v 11.277344 6.2421913 27.242188
v 9.832031 6.2421913 27.242188
v 9.375 5.082035 26.085938
v 10.8203125 5.082035 26.085938
v 10.8203125 5.082035 26.085938
v 9.375 5.082035 26.085938
v 9.082031 4.1796913 25.179688
v 10.5078125 4.1796913 25.179688
v 10.5078125 4.1796913 25.179688
v 9.082031 4.1796913 25.179688
v 9.2578125 3.2187538 24.21875
v 10.691406 3.2187538 24.21875
v 10.691406 3.2187538 24.21875
v 9.2578125 3.2187538 24.21875
v 9.589844 2.0273476 23.027344
v 11.0625 2.0273476 23.027344
v 11.0625 2.0273476 23.027344
v 9.589844 2.0273476 23.027344
v 9.285156 0.85156536 21.851562
v 10.730469 0.85156536 21.851562
v 10.730469 0.85156536 21.851562
v 9.285156 0.85156536 21.851562
v 8.839844 0.023440361 21.023438
v 10.3125 0.023440361 21.023438
v 10.3125 0.023440361 21.023438
v 8.839844 0.023440361 21.023438
v 8.6796875 -2.5195293 18.480469
v 10.1015625 -2.5195293 18.480469
v 10.1015625 -2.5195293 18.480469
v 8.6796875 -2.5195293 18.480469
v 9.191406 -3.2148418 17.785156
v 10.6328125 -3.2148418 17.785156
v 10.6328125 -3.2148418 17.785156
v 9.191406 -3.2148418 17.785156
v 9.613281 -4.8007793 16.199219
v 11.089844 -4.8007793 16.199219
v 11.089844 -4.8007793 16.199219
v 9.613281 -4.8007793 16.199219
v 9.402344 -5.855467 15.1484375
v 10.855469 -5.855467 15.1484375
v 10.855469 -5.855467 15.1484375
v 9.402344 -5.855467 15.1484375
v 8.386719 -6.999998 14.0
v 9.777344 -6.999998 14.0
v 9.738281 11.000004 32.0
v 9.78125 12.296879 32.0
v 8.417969 11.351566 32.0
v 9.738281 11.000004 32.0
v 8.417969 11.351566 32.0
v 8.285156 11.000004 32.0
v 8.417969 11.351566 32.0
v 9.78125 12.296879 32.0
v 4.1445312 12.488285 32.0
v 16.0 26.304691 32.0
v 16.0 21.976566 40.046875
v 9.9296875 26.324223 32.0
v 11.1875 8.605473 29.605469
v 10.375 9.945316 30.945312
v 9.7265625 8.605473 29.605469
v 13.9765625 -12.269529 14.304689
v 15.9765625 -12.269529 14.304689
v 15.9765625 -10.269529 14.304689
v 13.9765625 -10.269529 14.304689
v 12.9765625 -7.7695293 14.3046875
v 10.9765625 -7.7695293 14.3046875
v 10.9765625 -9.769529 14.304689
v 12.9765625 -9.769529 14.304689
v 15.9765625 -8.769529 14.3046875
v 15.9765625 -6.7695293 14.3046875
v 13.9765625 -6.7695293 14.3046875
v 13.9765625 -8.769529 14.3046875
v 9.9765625 -11.769529 14.304689
v 9.9765625 -13.769529 14.304689
v 11.9765625 -13.769529 14.304689
v 11.9765625 -11.769529 14.304689
v 2.7421875 -7.0507784 21.128906
v 3.6757812 -6.999997 17.660156
v 4.4101562 -5.7695284 19.566406
v 3.2734375 -6.089841 22.578125
v 0.34765625 -6.6132784 24.523438
v 1.515625 -13.874998 20.675781
v 2.4726562 -13.011717 18.960938
v 2.7421875 -7.0507784 21.128906
v 2.7421875 -7.0507784 21.128906
v 2.4726562 -13.011717 18.960938
v 3.4023438 -13.011717 17.140625
v 3.6757812 -6.999997 17.660156
v 3.6757812 -6.999997 17.660156
v 3.4023438 -13.011717 17.140625
v 4.1054688 -12.999998 14.000002
v 4.1015625 -6.999998 14.0
v 5.6054688 6.2421913 27.242188
v 5.5117188 8.605473 29.605469
v 4.6328125 7.8710976 31.675781
v 4.375 5.144535 29.847656
v 4.375 5.144535 29.847656
v 4.6328125 7.8710976 31.675781
v 3.53125 7.144535 33.04297
v 3.2304688 4.7265663 31.777344
v 3.2304688 4.7265663 31.777344
v 3.53125 7.144535 33.04297
v 1.9335938 6.707035 34.11328
v 1.515625 3.2578163 32.214844
v 3.53125 7.144535 33.04297
v 4.6328125 7.8710976 31.675781
v 3.5976562 10.324223 33.320312
v 2.4726562 9.925785 34.5
v 2.4726562 9.925785 34.5
v 3.5976562 10.324223 33.320312
v 3.6328125 12.44141 33.375
v 2.3671875 12.351566 34.625
v 2.3671875 12.351566 34.625
v 3.6328125 12.44141 33.375
v 3.6796875 26.488285 33.44922
v 2.2070312 26.433598 34.816406
v 4.4257812 26.31641 32.277344
v 3.6796875 26.488285 33.44922
v 3.6328125 12.44141 33.375
v 4.1445312 12.488285 32.0
v 4.1445312 12.488285 32.0
v 3.6328125 12.44141 33.375
v 3.5976562 10.324223 33.320312
v 4.0664062 11.000004 32.0
v 2.2070312 26.433598 34.816406
v 0.49609375 26.925785 36.507812
v 1.015625 12.25391 36.023438
v 2.3671875 12.351566 34.625
v 2.3671875 12.351566 34.625
v 1.015625 12.25391 36.023438
v 1.2578125 9.769535 35.80078
v 2.4726562 9.925785 34.5
v 2.5 -0.21874619 28.167969
v 2.1679688 -4.0664034 24.679688
v 3.6640625 -2.7734346 21.851562
v 3.4335938 -0.07812214 24.285156
v 3.4335938 -0.07812214 24.285156
v 3.6640625 -2.7734346 21.851562
v 4.4257812 -2.5195293 18.480469
v 3.9101562 0.023440361 21.023438
v 2.4726562 -13.011717 18.960938
v 2.3945312 -15.269529 17.613281
v 3.328125 -14.898436 15.132814
v 3.4023438 -13.011717 17.140625
v 3.4023438 -13.011717 17.140625
v 3.328125 -14.898436 15.132814
v 4.1054688 -14.554686 12.445315
v 4.1054688 -12.999998 14.000002
v 16.0 -22.8125 -15.124996
v 16.0 26.617191 32.26172
v 1.703125 26.617191 32.26172
v 1.703125 -22.8125 -15.124996
v 1.703125 -22.8125 -15.124996
v 1.703125 26.617191 32.26172
v -4.6757812 6.4921913 32.26172
v -4.6757812 -45.496094 -15.124996
v 4.25 1.7226601 27.34375
v 5.0585938 0.85156536 21.851562
v 5.3867188 2.0273476 23.027344
v 4.25 1.7226601 27.34375
v 3.8398438 3.9453163 27.515625
v 3.1523438 1.2617226 29.414062
v 3.2304688 4.7265663 31.777344
v 1.515625 3.2578163 32.214844
v 2.2226562 3.5742226 29.898438
v 0.34765625 -6.6132784 24.523438
v 2.7421875 -7.0507784 21.128906
v 3.2734375 -6.089841 22.578125
v 5.6054688 6.2421913 27.242188
v 4.375 5.144535 29.847656
v 5.1484375 5.082035 26.085938
v 4.375 5.144535 29.847656
v 3.8398438 3.9453163 27.515625
v 5.1484375 5.082035 26.085938
v 5.1484375 5.082035 26.085938
v 3.8398438 3.9453163 27.515625
v 4.8359375 4.1796913 25.179688
v 3.8398438 3.9453163 27.515625
v 4.25 1.7226601 27.34375
v 4.8359375 4.1796913 25.179688
v 4.8359375 4.1796913 25.179688
v 4.25 1.7226601 27.34375
v 5.015625 3.2187538 24.21875
v 4.25 1.7226601 27.34375
v 5.3867188 2.0273476 23.027344
v 5.015625 3.2187538 24.21875
v 4.375 5.144535 29.847656
v 3.2304688 4.7265663 31.777344
v 3.8398438 3.9453163 27.515625
v 3.2304688 4.7265663 31.777344
v 2.2226562 3.5742226 29.898438
v 3.8398438 3.9453163 27.515625
v 3.8398438 3.9453163 27.515625
v 2.2226562 3.5742226 29.898438
v 3.1523438 1.2617226 29.414062
v 2.2226562 3.5742226 29.898438
v 1.515625 3.2578163 32.214844
v 3.1523438 1.2617226 29.414062
v 3.1523438 1.2617226 29.414062
v 1.515625 3.2578163 32.214844
v 1.5742188 -0.19140244 29.890625
v 3.9101562 0.023440361 21.023438
v 5.0585938 0.85156536 21.851562
v 3.4335938 -0.07812214 24.285156
v 5.0585938 0.85156536 21.851562
v 4.25 1.7226601 27.34375
v 3.4335938 -0.07812214 24.285156
v 3.4335938 -0.07812214 24.285156
v 4.25 1.7226601 27.34375
v 2.5 -0.21874619 28.167969
v 4.25 1.7226601 27.34375
v 3.1523438 1.2617226 29.414062
v 2.5 -0.21874619 28.167969
v 2.5 -0.21874619 28.167969
v 3.1523438 1.2617226 29.414062
v 1.5742188 -0.19140244 29.890625
v 4.4257812 -2.5195293 18.480469
v 3.6640625 -2.7734346 21.851562
v 4.9570312 -3.2148418 17.785156
v 3.6640625 -2.7734346 21.851562
v 4.4101562 -5.7695284 19.566406
v 4.9570312 -3.2148418 17.785156
v 4.9570312 -3.2148418 17.785156
v 4.4101562 -5.7695284 19.566406
v 5.4140625 -4.8007793 16.199219
v 4.4101562 -5.7695284 19.566406
v 5.1796875 -5.855467 15.1484375
v 5.4140625 -4.8007793 16.199219
v 2.5 -0.21874619 28.167969
v 1.5742188 -0.19140244 29.890625
v 2.1679688 -4.0664034 24.679688
v 1.5742188 -0.19140244 29.890625
v 0.91015625 -3.558591 25.789062
v 2.1679688 -4.0664034 24.679688
v 2.1679688 -4.0664034 24.679688
v 0.91015625 -3.558591 25.789062
v 0.34765625 -6.6132784 24.523438
v 4.4101562 -5.7695284 19.566406
v 3.6640625 -2.7734346 21.851562
v 3.2734375 -6.089841 22.578125
v 3.6640625 -2.7734346 21.851562
v 2.1679688 -4.0664034 24.679688
v 3.2734375 -6.089841 22.578125
v 3.2734375 -6.089841 22.578125
v 2.1679688 -4.0664034 24.679688
v 0.34765625 -6.6132784 24.523438
v 1.9335938 6.707035 34.11328
v 3.53125 7.144535 33.04297
v 1.2578125 9.769535 35.80078
v 3.53125 7.144535 33.04297
v 2.4726562 9.925785 34.5
v 1.2578125 9.769535 35.80078
v 5.5117188 8.605473 29.605469
v 4.0664062 11.000004 32.0
v 4.6328125 7.8710976 31.675781
v 4.0664062 11.000004 32.0
v 3.5976562 10.324223 33.320312
v 4.6328125 7.8710976 31.675781
v 4.4101562 -5.7695284 19.566406
v 3.6757812 -6.999997 17.660156
v 5.1796875 -5.855467 15.1484375
v 3.6757812 -6.999997 17.660156
v 4.1015625 -6.999998 14.0
v 5.1796875 -5.855467 15.1484375
v 2.4726562 -13.011717 18.960938
v 1.515625 -13.874998 20.675781
v 2.3945312 -15.269529 17.613281
v 1.515625 -13.874998 20.675781
v 1.0429688 -16.722654 18.09375
v 2.3945312 -15.269529 17.613281
v 1.9335938 6.707035 34.11328
v 1.2578125 9.769535 35.80078
v -5.6835938 9.769535 35.80078
v -4.9648438 6.707035 34.11328
v 1.015625 12.25391 36.023438
v 0.49609375 26.925785 36.507812
v -6.4960938 26.925785 36.507812
v -5.9414062 12.25391 36.023438
v 1.515625 3.2578163 32.214844
v 1.9335938 6.707035 34.11328
v -4.9648438 6.707035 34.11328
v -5.4101562 3.2578163 32.214844
v 1.2578125 9.769535 35.80078
v 1.015625 12.25391 36.023438
v -5.9414062 12.25391 36.023438
v -5.6835938 9.769535 35.80078
v 1.5742188 -0.19140244 29.890625
v 1.515625 3.2578163 32.214844
v -5.4101562 3.2578163 32.214844
v -4.4179688 -0.19140244 29.890625
v 0.91015625 -3.558591 25.789062
v 1.5742188 -0.19140244 29.890625
v -4.4179688 -0.19140244 29.890625
v -5.3125 -3.558591 25.789062
v 1.515625 -13.874998 20.675781
v 0.34765625 -6.6132784 24.523438
v -6.6523438 -6.6132784 24.523438
v -5.4101562 -13.874998 20.675781
v 0.34765625 -6.6132784 24.523438
v 0.91015625 -3.558591 25.789062
v -5.3125 -3.558591 25.789062
v -6.6523438 -6.6132784 24.523438
v 1.0429688 -16.722654 18.09375
v 1.515625 -13.874998 20.675781
v -5.4101562 -13.874998 20.675781
v -4.9570312 -16.722654 18.09375
v 3.7539062 14.445316 39.1875
v 3.7539062 16.335941 39.1875
v 4.3046875 16.433598 39.34375
v 4.3046875 14.839848 39.34375
v 7.7304688 14.449223 39.859375
v 7.7304688 15.699223 39.859375
v 7.1796875 15.960941 40.078125
v 7.1796875 14.56641 40.078125
v 3.7539062 14.449223 39.859375
v 4.3046875 14.56641 40.078125
v 4.3046875 16.335941 40.078125
v 3.7539062 16.335941 39.859375
v 7.1953125 16.50391 38.58203
v 7.1914062 16.50391 38.86328
v 7.1953125 15.726566 40.132812
v 7.1953125 15.726566 38.58203
v 7.7304688 14.44141 39.183594
v 7.1796875 14.839848 39.34375
v 7.1796875 15.992191 39.34375
v 7.7304688 15.69141 39.183594
v 7.1914062 15.726566 34.140625
v 7.1914062 15.726566 33.0625
v 7.1914062 16.50391 33.0625
v 7.1914062 16.50391 34.140625
v 7.1953125 14.81641 34.13672
v 7.1914062 15.726566 34.140625
v 7.1953125 15.726566 38.58203
v 7.1953125 14.81641 38.58203
v 7.1953125 14.81641 34.13672
v 7.1953125 14.81641 33.0625
v 7.1914062 15.726566 33.0625
v 7.1914062 15.726566 34.140625
v 7.1914062 15.726566 34.140625
v 7.1914062 16.50391 34.140625
v 7.1914062 16.50391 37.507812
v 7.1953125 15.726566 38.58203
v 7.1953125 14.81641 34.13672
v 6.1796875 14.81641 34.13672
v 6.1796875 14.81641 33.0625
v 7.1953125 14.81641 33.0625
v 6.1796875 14.81641 34.13672
v 5.4570312 14.81641 34.13672
v 5.4570312 14.81641 33.0625
v 6.1796875 14.81641 33.0625
v 4.2890625 14.81641 38.58203
v 5.4726562 14.81641 38.58203
v 5.484375 14.81641 40.132812
v 4.2890625 14.81641 40.132812
v 5.484375 14.81641 40.132812
v 5.4726562 14.81641 38.58203
v 6.1796875 14.81641 38.58203
v 6.1796875 14.81641 40.132812
v 4.2890625 14.81641 33.0625
v 5.4570312 14.81641 33.0625
v 5.4570312 14.81641 34.13672
v 4.2890625 14.81641 34.13672
v 4.2890625 14.81641 34.13672
v 5.4570312 14.81641 34.13672
v 5.4726562 14.81641 38.58203
v 4.2890625 14.81641 38.58203
v 7.1953125 14.81641 38.58203
v 6.1796875 14.81641 38.58203
v 6.1796875 14.81641 34.13672
v 7.1953125 14.81641 34.13672
v 6.1796875 14.81641 38.58203
v 5.4726562 14.81641 38.58203
v 5.4570312 14.81641 34.13672
v 6.1796875 14.81641 34.13672
v 7.1953125 16.50391 40.132812
v 7.1953125 16.50391 41.1875
v 7.1953125 15.726566 41.1875
v 7.1953125 15.726566 40.132812
v 7.1953125 15.726566 40.132812
v 7.1953125 15.726566 41.1875
v 7.1953125 14.81641 41.1875
v 7.1953125 14.81641 40.132812
v 7.1953125 14.81641 40.132812
v 7.1953125 14.81641 41.1875
v 6.1796875 14.81641 41.1875
v 6.1796875 14.81641 40.132812
v 6.1796875 14.81641 40.132812
v 6.1796875 14.81641 41.1875
v 5.484375 14.81641 41.1875
v 5.484375 14.81641 40.132812
v 5.484375 14.81641 40.132812
v 5.484375 14.81641 41.1875
v 4.2890625 14.81641 41.1875
v 4.2890625 14.81641 40.132812
v 7.5585938 14.06641 39.96875
v 7.1796875 14.56641 40.078125
v 7.1796875 14.56641 40.078125
v 7.25 13.890629 40.078125
v 7.25 13.890629 40.078125
v 7.1796875 14.56641 40.078125
v 6.4414062 14.56641 40.34375
v 6.4414062 13.882816 40.34375
v 6.4414062 13.882816 40.34375
v 6.4414062 14.56641 40.34375
v 5.0429688 14.56641 40.34375
v 5.0429688 13.882816 40.34375
v 5.0429688 13.882816 40.34375
v 5.0429688 14.56641 40.34375
v 4.3046875 14.56641 40.078125
v 4.234375 13.890629 40.078125
v 7.1796875 14.839848 39.34375
v 7.25 13.890629 39.41797
v 6.4453125 13.882816 39.671875
v 6.4414062 14.839848 39.609375
v 6.4414062 14.839848 39.609375
v 6.4453125 13.882816 39.671875
v 5.0390625 13.882816 39.671875
v 5.0429688 14.839848 39.609375
v 5.0429688 14.839848 39.609375
v 5.0390625 13.882816 39.671875
v 4.234375 13.890629 39.414062
v 4.3046875 14.839848 39.34375
v 7.1953125 15.726566 38.58203
v 7.1953125 15.726566 40.132812
v 7.1953125 14.81641 40.132812
v 7.1953125 14.81641 38.58203
v 7.1953125 14.81641 38.58203
v 7.1953125 14.81641 40.132812
v 6.1796875 14.81641 40.132812
v 6.1796875 14.81641 38.58203
v 7.5585938 14.06641 39.96875
v 7.7304688 14.449223 39.859375
v 7.1796875 14.56641 40.078125
v 7.1953125 15.726566 40.132812
v 7.1914062 16.50391 38.86328
v 7.1953125 16.50391 40.132812
v 7.1953125 15.726566 38.58203
v 7.1914062 16.50391 37.507812
v 7.1953125 16.50391 38.58203
v 7.25 13.890629 39.41797
v 7.1796875 14.839848 39.34375
v 7.5585938 14.062504 39.30078
v 7.1796875 14.839848 39.34375
v 7.7304688 14.44141 39.183594
v 7.5585938 14.062504 39.30078
v 3.7539062 14.449223 39.859375
v 3.9257812 14.06641 39.96875
v 4.3046875 14.56641 40.078125
v 3.9257812 14.06641 39.96875
v 4.234375 13.890629 40.078125
v 4.3046875 14.56641 40.078125
v 4.234375 13.890629 39.414062
v 3.9257812 14.062504 39.30078
v 4.3046875 14.839848 39.34375
v 3.9257812 14.062504 39.30078
v 3.7539062 14.445316 39.1875
v 4.3046875 14.839848 39.34375
v 3.8554688 15.738285 40.79297
v 4.4570312 16.703129 40.79297
v 5.0195312 15.031254 40.79297
v 4.2929688 13.78516 40.79297
v 3.71875 15.859379 42.679688
v 4.6835938 15.859379 42.679688
v 5.0195312 14.671879 42.679688
v 4.2929688 13.78516 42.679688
v 6.625 14.671879 43.140625
v 6.9570312 15.859379 43.140625
v 4.7773438 15.859379 43.140625
v 5.0195312 14.671879 43.140625
v 3.71875 15.859379 43.140625
v 4.2929688 13.78516 43.140625
v 5.0195312 14.671879 43.140625
v 4.7773438 15.859379 43.140625
v 4.2929688 13.78516 42.679688
v 4.2929688 13.78516 43.140625
v 3.71875 15.859379 43.140625
v 3.71875 15.859379 42.679688
v 4.2929688 13.78516 40.79297
v 4.2929688 13.78516 41.253906
v 3.8554688 15.738285 41.253906
v 3.8554688 15.738285 40.79297
v 7.8671875 15.703129 41.253906
v 7.6054688 15.78516 41.253906
v 7.1328125 14.070316 41.253906
v 7.296875 13.78516 41.253906
v 7.8671875 16.015629 39.484375
v 16.0 16.015629 39.484375
v 16.0 16.015629 40.79297
v 7.8671875 16.015629 40.79297
v 7.8671875 15.703129 39.484375
v 16.0 15.703129 39.484375
v 16.0 16.015629 39.484375
v 7.8671875 16.015629 39.484375
v 7.8671875 15.703129 40.79297
v 16.0 15.703129 40.79297
v 16.0 15.703129 41.253906
v 7.8671875 15.703129 41.253906
v 7.8671875 15.703129 38.851562
v 16.0 15.703129 38.851562
v 16.0 15.703129 39.484375
v 7.8671875 15.703129 39.484375
v 7.8671875 15.703129 41.253906
v 16.0 15.703129 41.253906
v 16.0 17.125004 41.253906
v 7.6054688 17.125004 41.253906
v 6.4453125 13.882816 39.671875
v 6.4414062 13.882816 40.34375
v 5.0429688 13.882816 40.34375
v 5.0390625 13.882816 39.671875
v 6.4453125 13.882816 39.671875
v 7.25 13.890629 39.41797
v 7.25 13.890629 40.078125
v 6.4414062 13.882816 40.34375
v 4.234375 13.890629 39.414062
v 4.234375 13.890629 40.078125
v 3.9257812 14.06641 39.96875
v 3.9257812 14.062504 39.30078
v 3.7539062 14.449223 39.859375
v 3.7539062 16.335941 39.859375
v 3.7539062 16.335941 39.1875
v 3.7539062 14.445316 39.1875
v 3.9257812 14.062504 39.30078
v 3.9257812 14.06641 39.96875
v 3.7539062 14.449223 39.859375
v 3.7539062 14.445316 39.1875
v 5.0390625 13.882816 39.671875
v 5.0429688 13.882816 40.34375
v 4.234375 13.890629 40.078125
v 4.234375 13.890629 39.414062
v 6.9023438 15.703129 38.851562
v 6.8632812 16.50391 38.86328
v 16.0 16.50391 38.86328
v 16.0 15.703129 38.851562
v 7.8671875 15.703129 40.79297
v 7.8671875 16.015629 40.79297
v 16.0 16.015629 40.79297
v 16.0 15.703129 40.79297
v 4.09375 15.738285 42.816406
v 4.09375 15.738285 42.597656
v 4.453125 14.070316 42.597656
v 4.453125 14.070316 42.816406
v 4.453125 14.070316 42.816406
v 4.453125 14.070316 42.597656
v 7.1328125 14.070316 42.597656
v 7.1367188 14.070316 42.816406
v 7.1367188 14.070316 42.816406
v 7.1328125 14.070316 42.597656
v 7.6015625 15.738285 42.597656
v 7.6015625 15.738285 42.816406
v 7.25 13.890629 40.078125
v 7.25 13.890629 39.41797
v 7.5585938 14.062504 39.30078
v 7.5585938 14.06641 39.96875
v 7.5585938 14.06641 39.96875
v 7.5585938 14.062504 39.30078
v 7.7304688 14.44141 39.183594
v 7.7304688 14.449223 39.859375
v 7.7304688 14.449223 39.859375
v 7.7304688 14.44141 39.183594
v 7.7304688 15.69141 39.183594
v 7.7304688 15.699223 39.859375
v 4.09375 15.738285 42.597656
v 4.09375 15.738285 41.253906
v 4.453125 14.070316 41.253906
v 4.453125 14.070316 42.597656
v 4.453125 14.070316 42.597656
v 4.453125 14.070316 41.253906
v 7.1328125 14.070316 41.253906
v 7.1328125 14.070316 42.597656
v 7.1328125 14.070316 42.597656
v 7.1328125 14.070316 41.253906
v 7.6054688 15.78516 41.253906
v 7.6015625 15.738285 42.597656
v 7.1601562 16.015629 40.79297
v 7.8671875 15.703129 40.79297
v 7.296875 13.78516 40.79297
v 6.625 15.031254 40.79297
v 6.625 15.031254 40.79297
v 7.296875 13.78516 40.79297
v 4.2929688 13.78516 40.79297
v 5.0195312 15.031254 40.79297
v 6.9570312 15.859379 42.679688
v 7.921875 15.859379 42.679688
v 7.296875 13.78516 42.679688
v 6.625 14.671879 42.679688
v 6.625 14.671879 42.679688
v 7.296875 13.78516 42.679688
v 4.2929688 13.78516 42.679688
v 5.0195312 14.671879 42.679688
v 7.921875 15.859379 43.140625
v 6.9570312 15.859379 43.140625
v 6.625 14.671879 43.140625
v 7.296875 13.78516 43.140625
v 7.296875 13.78516 43.140625
v 6.625 14.671879 43.140625
v 5.0195312 14.671879 43.140625
v 4.2929688 13.78516 43.140625
v 4.2929688 13.78516 43.140625
v 4.2929688 13.78516 42.679688
v 7.296875 13.78516 42.679688
v 7.296875 13.78516 43.140625
v 7.296875 13.78516 43.140625
v 7.296875 13.78516 42.679688
v 7.921875 15.859379 42.679688
v 7.921875 15.859379 43.140625
v 7.296875 13.78516 41.253906
v 7.1328125 14.070316 41.253906
v 4.453125 14.070316 41.253906
v 4.2929688 13.78516 41.253906
v 4.2929688 13.78516 41.253906
v 4.453125 14.070316 41.253906
v 4.09375 15.738285 41.253906
v 3.8554688 15.738285 41.253906
v 4.2929688 13.78516 41.253906
v 4.2929688 13.78516 40.79297
v 7.296875 13.78516 40.79297
v 7.296875 13.78516 41.253906
v 7.296875 13.78516 41.253906
v 7.296875 13.78516 40.79297
v 7.8671875 15.703129 40.79297
v 7.8671875 15.703129 41.253906
v 7.8671875 15.703129 41.253906
v 7.6054688 17.125004 41.253906
v 7.6054688 15.78516 41.253906
v 7.8671875 15.703129 40.79297
v 7.1601562 16.015629 40.79297
v 7.8671875 16.015629 40.79297
v 9.917969 16.50391 33.0625
v 11.214844 16.50391 33.0625
v 10.910156 17.078129 33.0625
v 10.238281 17.078129 33.0625
v 12.375 17.078129 33.0625
v 12.0078125 16.50391 33.0625
v 13.3046875 16.50391 33.0625
v 12.953125 17.078129 33.0625
v 6.3789062 14.31641 33.0625
v 7.8203125 14.31641 33.0625
v 7.1953125 14.81641 33.0625
v 6.1796875 14.81641 33.0625
v 5.4570312 14.31641 33.0625
v 6.3789062 14.31641 33.0625
v 6.1796875 14.81641 33.0625
v 5.4570312 14.81641 33.0625
v 7.8203125 14.31641 33.0625
v 7.8242188 16.50391 33.0625
v 7.1914062 16.50391 33.0625
v 7.1953125 14.81641 33.0625
v 3.6484375 16.50391 33.0625
v 3.6484375 14.31641 33.0625
v 4.2890625 14.81641 33.0625
v 4.2890625 16.50391 33.0625
v 3.6484375 14.31641 33.0625
v 5.4570312 14.31641 33.0625
v 5.4570312 14.81641 33.0625
v 4.2890625 14.81641 33.0625
v 7.8203125 14.31641 33.0625
v 7.8203125 14.31641 32.04297
v 7.8242188 16.50391 32.04297
v 7.8242188 16.50391 33.0625
v 6.3789062 14.31641 33.0625
v 6.3789062 14.31641 32.04297
v 7.8203125 14.31641 32.04297
v 7.8203125 14.31641 33.0625
v 3.6484375 14.31641 32.04297
v 3.6484375 14.31641 33.0625
v 3.6484375 16.50391 33.0625
v 3.6484375 16.50391 32.04297
v 9.917969 16.50391 33.0625
v 9.121094 16.50391 33.0625
v 9.121094 16.50391 32.04297
v 9.917969 16.50391 32.04297
v 12.0078125 16.50391 33.0625
v 11.214844 16.50391 33.0625
v 11.214844 16.50391 32.04297
v 12.0078125 16.50391 32.04297
v 12.0078125 16.50391 33.0625
v 12.0078125 16.50391 32.04297
v 13.3046875 16.50391 32.04297
v 13.3046875 16.50391 33.0625
v 9.917969 16.50391 33.0625
v 9.917969 16.50391 32.04297
v 11.214844 16.50391 32.04297
v 11.214844 16.50391 33.0625
v 6.3789062 14.31641 32.04297
v 6.3789062 14.31641 33.0625
v 5.4570312 14.31641 33.0625
v 5.4570312 14.31641 32.04297
v 5.4570312 14.31641 32.04297
v 5.4570312 14.31641 33.0625
v 3.6484375 14.31641 33.0625
v 3.6484375 14.31641 32.04297
v 12.375 17.078129 33.0625
v 12.953125 17.078129 33.0625
v 12.652344 17.203129 33.0625
v 8.8203125 17.078129 33.0625
v 8.113281 17.078129 33.0625
v 9.121094 16.50391 33.0625
v 10.238281 17.078129 33.0625
v 10.910156 17.078129 33.0625
v 10.546875 17.203129 33.0625
v 8.113281 17.078129 33.0625
v 8.8515625 17.078129 33.0625
v 8.453125 17.203129 33.0625
v 7.8242188 16.50391 33.0625
v 7.8242188 16.50391 32.04297
v 9.121094 16.50391 33.0625
v 9.121094 16.50391 33.0625
v 9.121094 16.50391 33.0625
v 7.8242188 16.50391 33.0625
v 9.121094 16.50391 33.0625
v 8.113281 17.078129 33.0625
v 7.8242188 16.50391 33.0625
v 9.121094 16.50391 33.0625
v 9.121094 16.50391 33.0625
v 9.121094 16.50391 32.04297
v 9.121094 16.50391 33.0625
v 7.8242188 16.50391 32.04297
v 9.121094 16.50391 32.04297
v 15.609375 16.50391 38.86328
v 15.609375 16.50391 37.882812
v 16.0 16.50391 37.882812
v 16.0 16.50391 38.86328
v 7.1914062 16.50391 38.86328
v 7.1953125 16.50391 38.58203
v 7.8242188 16.50391 37.507812
v 7.8242188 16.50391 38.86328
v 9.917969 16.50391 38.86328
v 9.121094 16.50391 38.86328
v 9.121094 16.50391 37.507812
v 9.917969 16.50391 37.507812
v 12.0078125 16.50391 38.86328
v 11.214844 16.50391 38.86328
v 11.214844 16.50391 37.507812
v 12.0078125 16.50391 37.507812
v 14.628906 16.50391 38.86328
v 13.3046875 16.50391 38.86328
v 13.3046875 16.50391 37.507812
v 14.628906 16.50391 37.507812
v 7.8242188 16.50391 37.507812
v 7.1914062 16.50391 37.507812
v 7.1914062 16.50391 34.140625
v 7.8242188 16.50391 33.0625
v 9.121094 16.50391 33.0625
v 9.917969 16.50391 33.0625
v 9.917969 16.50391 37.507812
v 9.121094 16.50391 37.507812
v 11.214844 16.50391 33.0625
v 12.0078125 16.50391 33.0625
v 12.0078125 16.50391 37.507812
v 11.214844 16.50391 37.507812
v 13.3046875 16.50391 33.0625
v 14.628906 16.50391 32.04297
v 14.628906 16.50391 37.507812
v 13.3046875 16.50391 37.507812
v 11.214844 16.50391 37.507812
v 11.214844 16.50391 38.86328
v 10.972656 16.50391 38.86328
v 10.972656 16.50391 37.757812
v 10.972656 16.50391 37.757812
v 10.972656 16.50391 38.86328
v 10.582031 16.50391 38.86328
v 10.582031 16.50391 37.882812
v 10.582031 16.50391 37.882812
v 10.582031 16.50391 38.86328
v 10.160156 16.50391 38.86328
v 10.160156 16.50391 37.757812
v 10.160156 16.50391 37.757812
v 10.160156 16.50391 38.86328
v 9.917969 16.50391 38.86328
v 9.917969 16.50391 37.507812
v 13.3046875 16.50391 37.507812
v 13.3046875 16.50391 38.86328
v 13.066406 16.50391 38.86328
v 13.066406 16.50391 37.757812
v 13.066406 16.50391 37.757812
v 13.066406 16.50391 38.86328
v 12.675781 16.50391 38.86328
v 12.675781 16.50391 37.882812
v 12.675781 16.50391 37.882812
v 12.675781 16.50391 38.86328
v 12.25 16.50391 38.86328
v 12.25 16.50391 37.757812
v 12.25 16.50391 37.757812
v 12.25 16.50391 38.86328
v 12.0078125 16.50391 38.86328
v 12.0078125 16.50391 37.507812
v 9.121094 16.50391 37.507812
v 9.121094 16.50391 38.86328
v 8.878906 16.50391 38.86328
v 8.878906 16.50391 37.757812
v 8.878906 16.50391 37.757812
v 8.878906 16.50391 38.86328
v 8.4921875 16.50391 38.86328
v 8.4921875 16.50391 37.882812
v 8.4921875 16.50391 37.882812
v 8.4921875 16.50391 38.86328
v 8.066406 16.50391 38.86328
v 8.066406 16.50391 37.757812
v 8.066406 16.50391 37.757812
v 8.066406 16.50391 38.86328
v 7.8242188 16.50391 38.86328
v 7.8242188 16.50391 37.507812
v 15.609375 16.50391 37.882812
v 15.609375 16.50391 38.86328
v 15.097656 16.50391 38.86328
v 15.097656 16.50391 37.757812
v 15.097656 16.50391 37.757812
v 15.097656 16.50391 38.86328
v 14.628906 16.50391 38.86328
v 14.628906 16.50391 37.507812
v 7.8242188 16.50391 33.0625
v 7.1914062 16.50391 34.140625
v 7.1914062 16.50391 33.0625
v 7.1953125 16.50391 38.58203
v 7.1914062 16.50391 37.507812
v 7.8242188 16.50391 37.507812
v 13.3046875 16.50391 32.04297
v 14.628906 16.50391 32.04297
v 13.3046875 16.50391 33.0625
v 8.113281 17.078129 33.0625
v 8.464844 17.203129 33.0625
v 8.066406 16.50391 37.757812
v 10.238281 17.078129 33.0625
v 10.558594 17.203129 33.0625
v 10.160156 16.50391 37.757812
v 12.375 17.078129 33.0625
v 12.652344 17.203129 33.0625
v 12.25 16.50391 37.757812
v 15.128906 17.710941 32.04297
v 15.5390625 18.093754 32.04297
v 15.097656 16.50391 37.757812
v 8.8203125 17.078129 33.0625
v 8.878906 16.50391 37.757812
v 8.464844 17.203129 33.0625
v 8.878906 16.50391 37.757812
v 8.4921875 16.50391 37.882812
v 8.464844 17.203129 33.0625
v 8.464844 17.203129 33.0625
v 8.4921875 16.50391 37.882812
v 8.066406 16.50391 37.757812
v 10.8828125 17.078129 33.0625
v 10.972656 16.50391 37.757812
v 10.558594 17.203129 33.0625
v 10.972656 16.50391 37.757812
v 10.582031 16.50391 37.882812
v 10.558594 17.203129 33.0625
v 10.558594 17.203129 33.0625
v 10.582031 16.50391 37.882812
v 10.160156 16.50391 37.757812
v 12.953125 17.078129 33.0625
v 13.066406 16.50391 37.757812
v 12.652344 17.203129 33.0625
v 13.066406 16.50391 37.757812
v 12.675781 16.50391 37.882812
v 12.652344 17.203129 33.0625
v 12.652344 17.203129 33.0625
v 12.675781 16.50391 37.882812
v 12.25 16.50391 37.757812
v 16.0 18.25391 32.04297
v 16.0 16.50391 37.882812
v 15.5390625 18.093754 32.04297
v 16.0 16.50391 37.882812
v 15.609375 16.50391 37.882812
v 15.5390625 18.093754 32.04297
v 15.5390625 18.093754 32.04297
v 15.609375 16.50391 37.882812
v 15.097656 16.50391 37.757812
v 8.878906 16.50391 37.757812
v 8.8203125 17.078129 33.0625
v 9.121094 16.50391 37.507812
v 8.8203125 17.078129 33.0625
v 9.121094 16.50391 33.0625
v 9.121094 16.50391 37.507812
v 8.066406 16.50391 37.757812
v 7.8242188 16.50391 37.507812
v 8.113281 17.078129 33.0625
v 7.8242188 16.50391 37.507812
v 7.8242188 16.50391 33.0625
v 8.113281 17.078129 33.0625
v 10.972656 16.50391 37.757812
v 10.8828125 17.078129 33.0625
v 11.214844 16.50391 37.507812
v 10.8828125 17.078129 33.0625
v 11.214844 16.50391 33.0625
v 11.214844 16.50391 37.507812
v 10.160156 16.50391 37.757812
v 9.917969 16.50391 37.507812
v 10.238281 17.078129 33.0625
v 9.917969 16.50391 37.507812
v 9.917969 16.50391 33.0625
v 10.238281 17.078129 33.0625
v 13.066406 16.50391 37.757812
v 12.953125 17.078129 33.0625
v 13.3046875 16.50391 37.507812
v 12.953125 17.078129 33.0625
v 13.3046875 16.50391 33.0625
v 13.3046875 16.50391 37.507812
v 12.25 16.50391 37.757812
v 12.0078125 16.50391 37.507812
v 12.375 17.078129 33.0625
v 12.0078125 16.50391 37.507812
v 12.0078125 16.50391 33.0625
v 12.375 17.078129 33.0625
v 14.628906 16.50391 32.04297
v 15.128906 17.710941 32.04297
v 14.628906 16.50391 37.507812
v 15.128906 17.710941 32.04297
v 15.097656 16.50391 37.757812
v 14.628906 16.50391 37.507812
v 16.0 16.042973 40.589844
v 16.0 16.417973 42.371094
v 10.3046875 17.16016 42.371094
v 9.933594 16.835941 40.589844
v 9.933594 16.835941 40.589844
v 10.3046875 17.16016 42.371094
v 6.1523438 19.19141 42.371094
v 5.5078125 19.000004 40.589844
v 5.5078125 19.000004 40.589844
v 6.1523438 19.19141 42.371094
v 4.6328125 21.964848 42.371094
v 3.890625 21.953129 40.589844
v 15.574219 21.66016 47.25
v 16.0 21.593754 47.25
v 16.0 21.37891 47.8125
v 15.40625 21.476566 47.8125
v 15.28125 21.84766 47.25
v 15.574219 21.66016 47.25
v 15.40625 21.476566 47.8125
v 14.988281 21.742191 47.8125
v 15.171875 22.101566 47.25
v 15.28125 21.84766 47.25
v 14.988281 21.742191 47.8125
v 14.8359375 22.101566 47.8125
v 16.0 21.593754 47.25
v 15.574219 21.66016 47.25
v 12.59375 18.949223 45.828125
v 16.0 18.50391 45.828125
v 16.0 18.50391 45.828125
v 12.59375 18.949223 45.828125
v 11.105469 17.976566 44.152344
v 16.0 17.339848 44.152344
v 16.0 17.339848 44.152344
v 11.105469 17.976566 44.152344
v 10.542969 17.50391 42.53125
v 16.0 16.789066 42.53125
v 16.0 16.789066 42.53125
v 10.542969 17.50391 42.53125
v 10.3515625 17.339848 40.796875
v 16.0 16.601566 40.796875
v 15.574219 21.66016 47.25
v 15.28125 21.84766 47.25
v 10.1171875 20.16016 45.828125
v 12.59375 18.949223 45.828125
v 12.59375 18.949223 45.828125
v 10.1171875 20.16016 45.828125
v 7.5390625 19.72266 44.152344
v 11.105469 17.976566 44.152344
v 11.105469 17.976566 44.152344
v 7.5390625 19.72266 44.152344
v 6.5664062 19.445316 42.53125
v 10.542969 17.50391 42.53125
v 10.542969 17.50391 42.53125
v 6.5664062 19.445316 42.53125
v 6.234375 19.351566 40.796875
v 10.3515625 17.339848 40.796875
v 15.28125 21.84766 47.25
v 15.171875 22.101566 47.25
v 9.2109375 21.812504 45.828125
v 10.1171875 20.16016 45.828125
v 10.1171875 20.16016 45.828125
v 9.2109375 21.812504 45.828125
v 6.234375 22.101566 44.152344
v 7.5390625 19.72266 44.152344
v 7.5390625 19.72266 44.152344
v 6.234375 22.101566 44.152344
v 5.109375 22.101566 42.53125
v 6.5664062 19.445316 42.53125
v 6.5664062 19.445316 42.53125
v 5.109375 22.101566 42.53125
v 4.7265625 22.101566 40.796875
v 6.234375 19.351566 40.796875
v 16.0 22.10157 49.20703
v 15.40625 21.476566 47.8125
v 16.0 21.37891 47.8125
v 16.0 22.10157 49.20703
v 14.988281 21.742191 47.8125
v 15.40625 21.476566 47.8125
v 16.0 22.10157 49.20703
v 14.8359375 22.101566 47.8125
v 14.988281 21.742191 47.8125
vt 1.0 0.0
vt 0.0 0.0
vt 0.0 1.0
vt 1.0 1.0
vt 0.363281 0.871094
vt 0.199219 0.929688
vt 1.228516 0.970703
vt 1.046875 0.970703
vt -0.289062 0.421875
vt -0.289062 0.015625
vt 1.289062 0.015625
vt 1.289062 0.421875
vt 2.953125 0.5
vt 2.953125 0.984375
vt 2.035156 0.984375
vt 2.035156 0.5
vt 2.035156 0.464844
vt 2.953125 0.464844
vt -0.292969 -0.333984
vt -0.134766 -0.205078
vt -0.949219 -0.205078
vt -0.792969 -0.333984
vt 1.105469 0.970703
vt 0.130859 -0.269531
vt 0.630859 -0.269531
vt 0.771484 0.421875
vt 0.755859 0.015625
vt 2.371094 0.464844
vt 2.382812 0.984375
vt 0.078125 0.208984
vt 1.289062 0.056641
vt -0.289062 0.056641
vt -0.289062 0.056641
vt 0.5 0.056641
vt 0.755859 0.056641
vt 1.289062 0.056641
vt -0.289062 0.421875
vt -0.289062 0.015625
vt 1.289062 0.015625
vt 1.289062 0.421875
vt 1.228516 0.970703
vt 1.046875 0.970703
vt 2.953125 0.5
vt 2.953125 0.984375
vt 2.035156 0.984375
vt 2.035156 0.5
vt 2.035156 0.464844
vt 2.953125 0.464844
vt -0.292969 -0.333984
vt -0.134766 -0.205078
vt -0.949219 -0.205078
vt -0.792969 -0.333984
vt 0.130859 -0.269531
vt 0.630859 -0.269531
vt 0.755859 0.015625
vt 0.771484 0.421875
vt 2.371094 0.464844
vt 2.382812 0.984375
vt 0.078125 0.208984
vt 1.105469 0.970703
vt 1.289062 0.056641
vt -0.289062 0.056641
vt -0.289062 0.056641
vt 0.5 0.056641
vt 0.755859 0.056641
vt 1.289062 0.056641
vt 0.0 1.0
vt 1.0 1.0
vt 1.0 0.0
vt 0.0 0.0
vt 1.001953 1.0
vt 0.501953 1.0
vt 0.501953 0.498047
vt 1.001953 0.5
vt 0.501953 0.0
vt 1.001953 0.0
vt 0.0 0.0
vt 0.0 0.5
vt 0.0 1.0
vt 2.078125 -0.994141
vt 2.078125 -0.013672
vt 2.462891 -0.013672
vt 2.462891 -0.994141
vt 0.505859 0.375
vt 0.505859 0.185547
vt 0.525391 0.185547
vt 0.525391 0.375
vt 1.402344 1.001953
vt 1.402344 1.150391
vt 1.447266 1.150391
vt 1.447266 1.001953
vt 0.199219 0.78125
vt 0.40625 0.710938
vt 0.40625 0.984375
vt 1.644531 0.0
vt 1.636719 0.984375
vt 1.980469 0.984375
vt 1.980469 0.0
vt 0.40625 0.382812
vt 0.40625 0.75
vt 0.40625 0.742188
vt 0.40625 0.46875
vt 0.40625 0.671875
vt 0.40625 0.234375
vt 0.40625 0.679688
vt 0.40625 0.257812
vt 0.40625 0.390625
vt 0.40625 0.007812
vt 0.40625 0.039062
vt 0.40625 0.265625
vt 0.40625 0.046875
vt 0.15625 0.039062
vt 0.199219 0.78125
vt 0.40625 0.257812
vt 0.40625 0.007812
vt 0.40625 0.382812
vt 0.40625 0.46875
vt 0.40625 0.265625
vt 0.40625 0.390625
vt 0.40625 0.28125
vt 0.40625 0.710938
vt 0.40625 0.460938
vt 0.964844 0.960938
vt 0.964844 0.992188
vt 3.759766 3.503906
vt 4.09375 3.972656
vt 3.020508 3.982422
vt 2.930664 3.505859
vt 3.759766 6.537109
vt 4.425781 7.058594
vt 3.009766 7.070312
vt 2.882812 6.539062
vt 3.986328 8.4375
vt 4.173828 8.96875
vt 3.094727 8.976562
vt 2.916992 8.453125
vt 4.017578 10.652344
vt 2.745117 10.652344
vt 3.058594 10.044922
vt 4.920898 11.128906
vt 2.499023 11.128906
vt 2.745117 10.652344
vt 4.017578 10.652344
vt 4.920898 10.652344
vt 3.058594 10.044922
vt 4.920898 10.046875
vt 4.173828 8.96875
vt 4.920898 8.962891
vt 3.986328 8.4375
vt 4.920898 8.425781
vt 2.796875 8.044922
vt 4.920898 8.009766
vt 2.867188 7.609375
vt 4.920898 7.597656
vt 3.009766 7.070312
vt 4.425781 7.058594
vt 4.920898 7.054688
vt 3.759766 6.537109
vt 4.920898 6.533203
vt 2.720703 6.164062
vt 4.920898 6.164062
vt 2.638672 5.015625
vt 4.920898 5.021484
vt 2.844727 4.701172
vt 4.920898 4.6875
vt 3.020508 3.982422
vt 4.09375 3.972656
vt 2.513672 2.988281
vt 4.920898 2.988281
vt 4.920898 3.501953
vt 3.759766 3.503906
vt 4.920898 3.964844
vt 4.920898 7.054688
vt 4.920898 7.597656
vt 4.425781 7.058594
vt 2.720703 6.164062
vt 3.759766 6.537109
vt 2.882812 6.539062
vt 4.920898 3.964844
vt 4.920898 4.6875
vt 4.09375 3.972656
vt 2.513672 2.988281
vt 3.759766 3.503906
vt 2.930664 3.505859
vt 4.920898 11.128906
vt 4.017578 10.652344
vt 4.920898 10.652344
vt 4.173828 8.96875
vt 3.058594 10.044922
vt 3.094727 8.976562
vt 2.796875 8.044922
vt 3.986328 8.4375
vt 2.916992 8.453125
vt 0.705078 0.0
vt 0.714844 1.0
vt 0.0 1.0
vt 0.0 0.0
vt 0.0 0.0
vt 1.0 0.0
vt 1.0 0.964844
vt 0.0 0.951172
vt 0.0 0.0
vt 0.0 1.0
vt -0.640625 1.0
vt -0.640625 0.0
vt 0.035156 0.134766
vt 0.710938 0.134766
vt 0.015625 0.134766
vt 0.015625 0.152344
vt 0.703125 0.152344
vt 0.074219 0.367188
vt 0.085938 0.367188
vt 0.375 5.109375
vt 0.191406 5.109375
vt 0.023438 5.109375
vt -2.691406 2.599609
vt 2.691406 10.652344
vt 2.691406 11.128906
vt 2.042969 11.128906
vt 2.042969 10.044922
vt 1.03125 2.988281
vt 1.464844 2.988281
vt 1.464844 3.505859
vt 1.03125 3.505859
vt 1.464844 3.982422
vt 1.03125 3.982422
vt 1.464844 4.701172
vt 1.03125 4.701172
vt 1.464844 5.015625
vt 1.03125 5.015625
vt 1.464844 6.164062
vt 1.03125 6.164062
vt 1.464844 6.539062
vt 1.03125 6.539062
vt 1.464844 7.070312
vt 1.03125 7.070312
vt 1.464844 7.609375
vt 1.03125 7.609375
vt 1.464844 8.044922
vt 1.03125 8.044922
vt 1.464844 8.453125
vt 1.03125 8.453125
vt 1.464844 8.976562
vt 1.03125 8.976562
vt 1.464844 10.044922
vt 1.03125 10.044922
vt 1.464844 11.128906
vt 1.03125 11.128906
vt 2.691406 10.044922
vt 2.042969 8.976562
vt 2.691406 8.976562
vt 2.042969 8.453125
vt 2.691406 8.453125
vt 2.042969 8.044922
vt 2.691406 8.044922
vt 2.042969 7.609375
vt 2.691406 7.609375
vt 2.042969 7.070312
vt 2.691406 7.070312
vt 2.042969 6.539062
vt 2.691406 6.539062
vt 2.042969 6.164062
vt 2.691406 6.164062
vt 2.042969 5.015625
vt 2.691406 5.015625
vt 2.042969 4.701172
vt 2.691406 4.701172
vt 2.042969 3.982422
vt 2.691406 3.982422
vt 2.042969 3.505859
vt 2.691406 3.505859
vt 2.042969 2.988281
vt 2.691406 2.988281
vt 0.714844 5.109375
vt 0.023438 5.109375
vt 1.710938 5.109375
vt 1.035156 5.109375
vt -2.691406 2.599609
vt 0.375 5.109375
vt 2.691406 10.044922
vt 2.691406 10.652344
vt 2.042969 10.044922
vt 0.5 0.0
vt 1.0 0.0
vt 1.0 0.5
vt 0.5 0.5
vt 0.5 1.0
vt 0.0 1.0
vt 0.0 0.5
vt 1.0 1.0
vt 0.0 0.0
vt 6.935547 0.419922
vt 6.935547 0.128906
vt 7.099609 0.128906
vt 7.099609 0.484375
vt 7.022461 0.995117
vt 6.165039 0.969727
vt 6.165039 0.679688
vt 6.165039 0.209961
vt 6.165039 0.0
vt 6.935547 0.0
vt 8.850586 0.0
vt 9.115234 0.0
vt 9.115234 0.128906
vt 8.850586 0.128906
vt 9.115234 0.462891
vt 8.850586 0.378906
vt 9.115234 0.995117
vt 8.665039 0.995117
vt 9.542969 0.134766
vt 9.460938 0.557617
vt 9.773438 0.128906
vt 9.741211 0.498047
vt 11.058594 0.118164
vt 11.047852 0.384766
vt 11.046875 0.0
vt 9.789062 0.0
vt 9.567383 0.0
vt 11.060547 0.919922
vt 9.692383 0.995117
vt 9.538086 0.995117
vt 7.991211 0.374023
vt 7.445312 0.75293
vt 7.554688 0.128906
vt 7.943359 0.128906
vt 7.554688 0.0
vt 7.915039 0.0
vt 5.935547 0.679688
vt 5.914062 0.209961
vt 5.891602 0.0
vt 0.113281 0.035156
vt 8.291992 0.177734
vt 8.134766 0.0
vt 8.277344 0.0
vt 8.520508 0.128906
vt 8.255859 0.435547
vt 8.850586 0.378906
vt 8.665039 0.995117
vt 8.520508 0.496094
vt 7.022461 0.995117
vt 6.935547 0.419922
vt 7.099609 0.484375
vt 8.850586 0.0
vt 8.850586 0.128906
vt 8.671875 0.0
vt 8.520508 0.0
vt 8.418945 0.0
vt 8.033203 0.995117
vt 7.915039 0.0
vt 7.943359 0.128906
vt 7.991211 0.374023
vt 7.554688 0.0
vt 7.554688 0.128906
vt 7.422852 0.0
vt 7.099609 0.128906
vt 7.099609 0.0
vt 6.933594 0.0
vt 7.445312 0.75293
vt 7.541992 0.995117
vt 9.115234 0.995117
vt 9.115234 0.462891
vt 9.538086 0.995117
vt 9.460938 0.557617
vt 9.115234 0.0
vt 9.567383 0.0
vt 9.115234 0.128906
vt 9.542969 0.134766
vt 6.935547 0.128906
vt 6.935547 0.0
vt 6.165039 0.679688
vt 6.165039 0.969727
vt 5.935547 0.679688
vt 5.741211 0.969727
vt 1.0 1.84375
vt 1.0 1.90625
vt 0.0 1.90625
vt 0.0 1.84375
vt 1.0 1.960938
vt 0.0 1.960938
vt 0.96875 0.820312
vt 0.96875 0.9375
vt 0.0 0.9375
vt 0.0 0.820312
vt 0.75 0.242188
vt 0.75 0.691406
vt 0.75 0.011719
vt 0.992188 2.070312
vt 0.992188 2.515625
vt 0.992188 2.992188
vt 0.992188 1.507812
vt 0.929688 2.117188
vt 0.929688 2.082031
vt 0.90625 2.175781
vt 0.90625 2.007812
vt 0.992188 2.015625
vt 0.992188 2.007812
vt 0.929688 2.175781
vt 0.265625 2.175781
vt 0.265625 2.007812
vt 0.929688 2.007812
vt 0.234375 2.179688
vt 0.019531 2.179688
vt 0.019531 2.007812
vt 0.234375 2.007812
vt 0.929688 2.070312
vt 0.265625 2.070312
vt 0.265625 2.992188
vt 0.929688 2.992188
vt 0.019531 2.992188
vt 0.019531 2.070312
vt 0.234375 2.070312
vt 0.234375 2.992188
vt 0.265625 2.082031
vt 0.265625 2.117188
vt 0.234375 2.117188
vt 0.019531 2.117188
vt 0.019531 2.082031
vt 0.234375 2.082031
vt 0.0 0.582031
vt 0.75 0.011719
vt 0.75 0.691406
vt 0.992188 2.992188
vt 0.992188 2.515625
vt 0.992188 2.007812
vt 0.992188 2.015625
vt 0.75 0.242188
vt -1.65625 0.822266
vt -0.625 0.822266
vt -1.65625 0.824219
vt -0.625 0.824219
vt -1.033203 1.525391
vt -1.65625 1.140625
vt -0.625 1.140625
vt -0.625 1.009766
vt -1.65625 1.009766
vt 1.318359 1.001953
vt 1.318359 1.150391
vt 1.361328 1.150391
vt 1.361328 1.001953
vt 1.34375 1.150391
vt 1.328125 1.150391
vt 2.078125 -0.994141
vt -3.013672 -0.994141
vt -3.013672 -0.013672
vt 2.078125 -0.013672
vt 0.505859 0.375
vt 0.525391 0.375
vt 0.525391 0.185547
vt 0.505859 0.185547
vt 1.402344 1.001953
vt 1.447266 1.001953
vt 1.447266 1.150391
vt 1.402344 1.150391
vt 0.753906 1.138672
vt 0.751953 1.138672
vt 0.71875 0.890625
vt 0.716797 0.890625
vt 0.71875 0.804688
vt 0.716797 0.804688
vt 0.296875 0.814453
vt 0.296875 0.882812
vt -4.169922 1.990234
vt -4.169922 1.003906
vt -2.667969 1.003906
vt -2.667969 1.990234
vt -0.009766 1.003906
vt -0.009766 1.990234
vt 1.503906 1.003906
vt 1.503906 1.990234
vt 1.322266 1.150391
vt 1.335938 1.150391
vt 1.347656 1.150391
vt 1.361328 1.150391
vt 1.353516 1.150391
vt 1.34375 1.150391
vt 0.71875 0.804688
vt -0.976562 0.253906
vt -0.972656 0.253906
vt -0.972656 0.664062
vt -0.976562 0.664062
vt -0.976562 0.265625
vt -0.972656 0.265625
vt -0.976562 0.21875
vt -0.972656 0.21875
vt -0.976562 0.664062
vt -0.972656 0.664062
vt -0.976562 0.722656
vt -0.972656 0.253906
vt -0.976562 0.265625
vt -0.972656 0.265625
vt -0.976562 0.253906
vt 0.011719 0.980469
vt 0.011719 0.505859
vt 0.027344 0.505859
vt 0.027344 0.980469
vt -0.132812 0.980469
vt -0.132812 0.726562
vt -0.113281 0.505859
vt -0.113281 0.980469
vt 0.0 0.980469
vt 0.0 0.505859
vt 0.804688 0.986328
vt 0.445312 0.986328
vt 0.445312 0.240234
vt 0.804688 0.001953
vt 1.175781 0.001953
vt 0.820312 0.001953
vt 0.820312 0.986328
vt 1.175781 0.986328
vt 1.238281 0.191406
vt 0.757812 0.001953
vt 0.757812 0.986328
vt 1.238281 0.986328
vt -0.003906 0.505859
vt -0.003906 0.980469
vt -0.015625 0.980469
vt -0.015625 0.505859
vt -0.027344 0.980469
vt -0.027344 0.505859
vt -0.039062 0.980469
vt -0.039062 0.505859
vt -0.050781 0.980469
vt -0.050781 0.505859
vt -0.007812 0.505859
vt -0.007812 0.980469
vt -0.019531 0.980469
vt -0.019531 0.505859
vt -0.03125 0.980469
vt -0.03125 0.505859
vt 0.804688 0.001953
vt 0.445312 0.240234
vt 0.445312 0.001953
vt -0.132812 0.726562
vt -0.132812 0.505859
vt -0.113281 0.505859
vt 1.238281 0.001953
vt 0.757812 0.001953
vt 1.238281 0.191406
vt 0.953125 0.0
vt 0.953125 1.742188
vt 0.820312 0.199219
vt 0.820312 1.726562
vt 0.007812 1.742188
vt 0.015625 0.0
vt 0.0 0.199219
vt 0.0 1.726562
vt 5.992188 1.037109
vt 5.992188 1.984375
vt 2.464844 1.984375
vt 2.464844 1.037109
vt -1.052734 1.984375
vt -1.052734 1.037109
vt -4.570312 1.984375
vt -4.570312 1.037109
vt -4.800781 0.041016
vt -4.353516 0.041016
vt -4.353516 0.265625
vt -4.800781 0.265625
vt 1.003906 1.980469
vt 0.0 1.980469
vt 0.0 1.664062
vt 1.003906 1.664062
vt 0.0 1.345703
vt 1.003906 1.345703
vt 0.0 1.029297
vt 1.003906 1.029297
vt -1.001953 1.980469
vt -1.001953 1.664062
vt -1.001953 1.345703
vt -1.001953 1.029297
vt -2.001953 1.980469
vt -2.001953 1.664062
vt -2.001953 1.345703
vt -2.001953 1.029297
vt -4.576172 0.939453
vt -4.800781 0.265625
vt -4.353516 0.265625
vn -0.0 0.0 1.0
vn -0.0 1.0 -0.0
vn -1.0 0.0 -0.0
vn -0.0 -1.0 -0.0
vn 1.0 0.0 -0.0
vn -0.0 0.0 1.0
vn -1.0 0.0 -0.0
vn -0.0 -1.0 -0.0
vn -0.0 -1.0 -0.0
vn 1.0 0.0 -0.0
vn -1.0 0.0 -0.0
vn -0.0 0.0 1.0
vn 1.0 0.0 -0.0
vn -0.0 -1.0 -0.0
vn -0.0 0.0 1.0
vn -0.3263 -0.4826 0.8128
vn 0.3224 -0.5041 0.8012
vn 0.3224 -0.5042 0.8012
vn -0.0 0.0 1.0
vn -1.0E-4 0.0 1.0
vn 0.4744 0.0 0.8803
vn -0.4705 0.0 0.8824
vn 1.0E-4 0.0 1.0
vn -1.0E-4 0.0 1.0
vn -0.0 0.0 1.0
vn -0.4613 -0.8872 -0.0
vn 0.4613 -0.8872 -0.0
vn -1.0E-4 1.0E-4 1.0
vn -0.0 1.0E-4 1.0
vn -0.9749 0.0 -0.2227
vn 0.9783 0.0 -0.207
vn -0.0 -1.0E-4 1.0
vn -0.9163 0.0 0.4005
vn -0.2482 -0.901 0.3557
vn 0.9039 0.0 0.4277
vn 0.2325 -0.9045 0.3575
vn -1.0E-4 0.0 1.0
vn -0.0371 -0.9961 0.0801
vn -0.0 -1.0E-4 1.0
vn 0.0094 -1.0E-4 1.0
vn -0.0 0.0 1.0
vn 1.0E-4 -1.0E-4 1.0
vn -1.0E-4 -1.0E-4 1.0
vn -1.0E-4 1.0E-4 1.0
vn 1.0E-4 0.0 1.0
vn 0.0371 -0.9961 0.0801
vn -0.0 -0.7071 0.7071
vn -0.0 -0.7071 0.7071
vn -0.0 -0.7071 0.7071
vn -0.0 -0.7072 0.707
vn 1.0E-4 -0.707 0.7072
vn -0.0 -0.7072 0.7071
vn 1.0E-4 -0.7072 0.7071
vn -0.0 -0.7071 0.7071
vn -0.0 0.0 1.0
vn -0.0 0.0 1.0
vn -0.0 0.0 1.0
vn -0.0 0.0 1.0
vn -0.0076 -0.8778 -0.479
vn -0.0 -0.7071 0.7071
vn -0.0 -0.7072 0.707
vn -0.0 0.0 1.0
vn -0.0078 -0.8778 -0.479
vn -0.0 -0.7071 0.7071
vn -0.0 0.0 1.0
vn -0.0 0.0 1.0
vn 1.0E-4 0.0 1.0
vn -0.0 1.0E-4 1.0
vn -0.0 -1.0E-4 1.0
vn -1.0E-4 -0.0034 1.0
vn -0.0 -0.7071 0.7071
vn 0.5475 -0.5769 0.6062
vn 0.5475 -0.5791 0.604
vn 0.5475 -0.5768 0.6062
vn 0.9161 -0.2735 0.293
vn -0.0 1.0E-4 1.0
vn -0.0 0.0 1.0
vn -0.0 -1.0E-4 1.0
vn 1.0E-4 0.0 1.0
vn -1.0E-4 0.0 1.0
vn -0.0024 0.0095 1.0
vn 0.0081 0.0083 0.9999
vn -1.0E-4 -1.0E-4 1.0
vn -0.0 0.0 1.0
vn -0.0079 0.0 1.0
vn 1.0E-4 0.0 1.0
vn -0.0 0.0 1.0
vn -0.0 1.0E-4 1.0
vn -0.0 -1.0E-4 1.0
vn 1.0E-4 0.0 1.0
vn -1.0E-4 0.0 1.0
vn 0.0076 0.0 1.0
vn 0.0035 0.0 1.0
vn 0.3171 0.033 0.9478
vn 3.0E-4 0.0 1.0
vn -0.0 0.0 1.0
vn 1.0E-4 0.0 1.0
vn -0.0 0.0 1.0
vn -0.0058 0.0 1.0
vn 1.0E-4 0.0 1.0
vn -1.0E-4 0.0 1.0
vn -0.0 0.0058 1.0
vn -0.0022 0.0049 1.0
vn -0.0 -1.0E-4 1.0
vn 0.0058 -1.0E-4 1.0
vn -0.0 1.0E-4 1.0
vn 0.0025 0.0014 1.0
vn 0.0043 0.0096 0.9999
vn -0.0 0.0116 0.9999
vn -0.0 0.0 1.0
vn 1.0E-4 3.0E-4 1.0
vn -0.0 -3.0E-4 1.0
vn -3.0E-4 0.0 1.0
vn -0.0 0.0 1.0
vn -0.0 0.0 1.0
vn -1.0E-4 0.0 1.0
vn -0.0 1.0 -0.0
vn -0.0 0.0 1.0
vn -0.0 0.0 1.0
vn -1.0E-4 0.0 1.0
vn -0.0 0.0 1.0
vn -1.0E-4 0.0 1.0
vn 1.0E-4 0.0 1.0
vn -0.0 -1.0E-4 1.0
vn -5.0E-4 -1.0E-4 1.0
vn -0.0 1.0E-4 1.0
vn -0.0013 -1.0E-4 1.0
vn -0.0057 -4.0E-4 1.0
vn 1.0E-4 -1.0E-4 1.0
vn -1.0E-4 1.0E-4 1.0
vn -1.0E-4 0.0 1.0
vn -0.0 0.0 1.0
vn 1.0E-4 0.0 1.0
vn -0.0 1.0E-4 1.0
vn -0.0 0.0 1.0
vn -0.0 -1.0E-4 1.0
vn -1.0E-4 0.0 1.0
vn -0.0 1.0E-4 1.0
vn -0.0137 0.0018 0.9999
vn 1.0E-4 0.0 1.0
vn -0.0 0.0 1.0
vn 1.0E-4 0.0 1.0
vn -0.0 -1.0E-4 1.0
c 1.0 1.0 1.0
usemtl h_kage
s off
f 1/1/1/1 2/2/1/1 3/3/1/1 4/4/1/1
f 5/1/1/1 6/2/1/1 7/3/1/1 8/4/1/1
f 9/3/1/1 10/4/1/1 11/1/1/1 12/2/1/1
f 13/5/1/1 14/5/1/1 15/5/1/1 16/5/1/1
f 17/5/1/1 18/5/1/1 19/5/1/1 20/5/1/1
f 21/6/1/1 22/6/1/1 23/6/1/1 24/6/1/1
usemtl in38_hasira
s off
f 25/7/2/1 26/7/2/1 27/8/2/1 28/8/2/1
f 29/9/3/1 30/10/3/1 31/11/3/1 32/12/3/1
f 33/9/4/1 34/10/4/1 35/11/4/1 36/12/4/1
f 37/7/3/1 38/7/3/1 39/7/3/1 40/7/3/1
f 41/7/4/1 42/7/4/1 43/8/4/1 44/8/4/1
f 45/13/5/1 46/14/5/1 47/15/5/1 48/16/5/1
f 49/13/2/1 50/14/2/1 51/15/2/1 52/16/2/1
f 53/13/3/1 54/14/3/1 55/15/3/1 56/16/3/1
f 57/13/4/1 58/14/4/1 59/15/4/1 60/16/4/1
f 61/9/5/1 62/12/5/1 63/11/5/1 64/10/5/1
f 65/9/2/1 66/12/2/1 67/11/2/1 68/10/2/1
f 69/7/5/1 70/7/5/1 71/7/5/1 72/7/5/1
f 73/7/2/1 74/8/2/1 75/8/2/1 76/7/2/1
f 77/9/2/1 78/10/2/1 79/11/2/1 80/12/2/1
f 81/9/4/1 82/12/4/1 83/11/4/1 84/10/4/1
f 85/7/3/1 86/7/3/1 87/7/3/1 88/7/3/1
f 89/7/4/1 90/8/4/1 91/8/4/1 92/7/4/1
f 93/14/5/1 94/15/5/1 95/17/5/1 96/18/5/1
f 97/14/2/1 98/15/2/1 99/17/2/1 100/18/2/1
f 101/19/6/1 102/20/6/1 103/21/6/1 104/22/6/1
f 105/19/6/1 106/20/6/1 107/21/6/1 108/22/6/1
f 109/14/3/1 110/15/3/1 111/17/3/1 112/18/3/1
f 113/14/4/1 114/15/4/1 115/17/4/1 116/18/4/1
f 117/19/6/1 118/20/6/1 119/21/6/1 120/22/6/1
f 121/19/6/1 122/20/6/1 123/21/6/1 124/22/6/1
f 125/7/4/1 126/23/4/1 127/23/4/1 128/7/4/1
f 129/24/6/1 130/24/6/1 131/25/6/1 132/25/6/1
f 133/19/6/1 134/22/6/1 135/21/6/1 136/20/6/1
f 137/9/5/1 138/10/5/1 139/11/5/1 140/12/5/1
f 141/19/6/1 142/22/6/1 143/21/6/1 144/20/6/1
f 145/9/3/1 146/12/3/1 147/11/3/1 148/10/3/1
f 149/9/4/1 150/26/4/1 151/27/4/1 152/10/4/1
f 153/9/3/1 154/12/3/1 155/11/3/1 156/10/3/1
f 157/7/3/1 158/7/3/1 159/7/3/1 160/7/3/1
f 161/19/6/1 162/22/6/1 163/21/6/1 164/20/6/1
f 165/18/3/1 166/17/3/1 167/15/3/1 168/14/3/1
f 169/18/4/1 170/28/4/1 171/29/4/1 172/14/4/1
f 173/19/6/1 174/22/6/1 175/21/6/1 176/20/6/1
f 177/7/5/1 178/7/5/1 179/7/5/1 180/7/5/1
f 181/30/6/1 182/30/6/1 183/30/6/1 184/30/6/1
f 185/31/3/1 186/32/3/1 187/32/3/1 188/31/3/1
f 189/31/3/1 190/32/3/1 191/32/3/1 192/31/3/1
f 193/31/4/1 194/32/4/1 195/32/4/1 196/31/4/1
f 197/31/4/1 198/32/4/1 199/32/4/1 200/31/4/1
f 201/31/5/1 202/32/5/1 203/32/5/1 204/31/5/1
f 205/31/5/1 206/32/5/1 207/32/5/1 208/31/5/1
f 209/31/2/1 210/32/2/1 211/32/2/1 212/31/2/1
f 213/31/2/1 214/32/2/1 215/32/2/1 216/31/2/1
f 217/30/6/1 218/30/6/1 219/30/6/1 220/30/6/1
f 221/30/6/1 222/30/6/1 223/30/6/1 224/30/6/1
f 240/37/9/1 241/38/9/1 242/39/9/1 243/40/9/1
f 244/37/10/1 245/38/10/1 246/39/10/1 247/40/10/1
f 248/41/11/1 249/41/11/1 250/41/11/1 251/41/11/1
f 252/41/9/1 253/41/9/1 254/42/9/1 255/42/9/1
f 256/43/10/1 257/44/10/1 258/45/10/1 259/46/10/1
f 260/43/11/1 261/44/11/1 262/45/11/1 263/46/11/1
f 264/43/9/1 265/44/9/1 266/45/9/1 267/46/9/1
f 268/37/10/1 269/40/10/1 270/39/10/1 271/38/10/1
f 272/41/10/1 273/41/10/1 274/41/10/1 275/41/10/1
f 276/37/11/1 277/40/11/1 278/39/11/1 279/38/11/1
f 280/37/9/1 281/40/9/1 282/39/9/1 283/38/9/1
f 284/41/11/1 285/41/11/1 286/41/11/1 287/41/11/1
f 288/41/9/1 289/42/9/1 290/42/9/1 291/41/9/1
f 292/44/10/1 293/45/10/1 294/47/10/1 295/48/10/1
f 296/49/12/1 297/50/12/1 298/51/12/1 299/52/12/1
f 300/49/12/1 301/50/12/1 302/51/12/1 303/52/12/1
f 304/44/11/1 305/45/11/1 306/47/11/1 307/48/11/1
f 308/44/9/1 309/45/9/1 310/47/9/1 311/48/9/1
f 312/49/12/1 313/50/12/1 314/51/12/1 315/52/12/1
f 316/49/12/1 317/50/12/1 318/51/12/1 319/52/12/1
f 320/53/12/1 321/53/12/1 322/54/12/1 323/54/12/1
f 324/55/9/1 325/56/9/1 326/40/9/1 327/39/9/1
f 328/49/12/1 329/52/12/1 330/51/12/1 331/50/12/1
f 332/57/9/1 333/47/9/1 334/45/9/1 335/58/9/1
f 336/49/12/1 337/52/12/1 338/51/12/1 339/50/12/1
f 340/49/12/1 341/52/12/1 342/51/12/1 343/50/12/1
f 344/37/10/1 345/40/10/1 346/39/10/1 347/38/10/1
f 348/59/12/1 349/59/12/1 350/59/12/1 351/59/12/1
f 352/41/10/1 353/41/10/1 354/41/10/1 355/41/10/1
f 356/49/12/1 357/52/12/1 358/51/12/1 359/50/12/1
f 360/60/9/1 361/42/9/1 362/42/9/1 363/60/9/1
f 364/48/10/1 365/47/10/1 366/45/10/1 367/44/10/1
f 368/59/12/1 369/59/12/1 370/59/12/1 371/59/12/1
f 372/41/10/1 373/41/10/1 374/41/10/1 375/41/10/1
f 376/37/11/1 377/38/11/1 378/39/11/1 379/40/11/1
f 380/61/11/1 381/62/11/1 382/62/11/1 383/61/11/1
f 384/61/11/1 385/62/11/1 386/62/11/1 387/61/11/1
f 388/61/10/1 389/62/10/1 390/62/10/1 391/61/10/1
f 392/61/10/1 393/62/10/1 394/62/10/1 395/61/10/1
f 396/61/9/1 397/62/9/1 398/62/9/1 399/61/9/1
f 400/61/9/1 401/62/9/1 402/62/9/1 403/61/9/1
f 225/33/7/1 226/34/7/1 227/33/7/1
f 228/33/8/1 229/33/8/1 230/34/8/1
f 231/33/8/1 232/35/8/1 233/34/8/1
f 234/36/7/1 235/34/7/1 236/36/7/1
f 237/34/7/1 238/33/7/1 239/36/7/1
f 404/63/13/1 405/64/13/1 406/63/13/1
f 407/65/14/1 408/66/14/1 409/64/14/1
f 410/66/14/1 411/66/14/1 412/64/14/1
f 413/66/13/1 414/64/13/1 415/66/13/1
f 416/64/13/1 417/63/13/1 418/66/13/1
usemtl in38_kage
s off
f 419/67/15/1 420/68/15/1 421/69/15/1 422/70/15/1
f 423/67/15/1 424/68/15/1 425/69/15/1 426/70/15/1
f 427/67/15/1 428/68/15/1 429/69/15/1 430/70/15/1
f 431/67/15/1 432/68/15/1 433/69/15/1 434/70/15/1
f 435/67/15/1 436/68/15/1 437/69/15/1 438/70/15/1
f 439/67/15/1 440/68/15/1 441/69/15/1 442/70/15/1
usemtl in38colum_b
s off
f 443/71/16/1 444/72/16/1 445/73/16/1 446/74/16/1
f 447/74/16/1 448/73/16/1 449/75/16/1 450/76/16/1
f 451/77/17/1 452/75/17/1 453/73/17/1 454/78/18/1
f 455/78/17/1 456/73/17/1 457/72/17/1 458/79/17/1
usemtl pk_l_le2
s off
f 459/80/19/1 460/81/19/1 461/82/19/1 462/83/19/1
f 463/84/19/1 464/85/19/1 465/86/19/1 466/87/19/1
f 467/88/19/1 468/89/19/1 469/90/19/1 470/91/20/1
f 1267/427/98/1 1268/427/98/1 1269/428/98/1 1270/428/98/1
f 1271/429/98/1 1272/429/98/1 1273/430/98/1 1274/430/98/1
f 1275/431/98/1 1276/431/98/1 1277/431/98/1 1278/431/98/1
f 1279/432/98/1 1280/433/98/1 1281/434/98/1 1282/435/98/1
f 1283/436/98/1 1284/437/98/1 1285/438/98/1 1286/439/98/1
f 1287/436/98/1 1288/437/98/1 1289/438/98/1 1290/439/98/1
f 1291/438/98/1 1292/440/98/1 1293/441/98/1 1294/437/98/1
f 1295/442/98/1 1296/443/98/1 1297/444/98/1 1298/445/98/1
f 1299/446/98/1 1300/447/98/1 1301/448/98/1 1302/449/98/1
f 1303/436/98/1 1304/439/98/1 1305/438/98/1 1306/437/98/1
f 1307/450/98/1 1308/451/98/1 1309/452/98/1 1310/453/98/1
f 1311/454/98/1 1312/455/98/1 1313/455/98/1 1314/454/98/1
f 1315/439/99/1 1316/438/98/1 1317/438/98/1 1318/439/100/1
f 1319/436/98/1 1320/439/98/1 1321/438/98/1 1322/437/101/1
f 1323/436/98/1 1324/437/100/1 1325/438/98/1 1326/439/98/1
f 1327/437/98/1 1328/438/98/1 1329/439/98/1 1330/436/102/1
f 1331/436/103/1 1332/437/104/1 1333/438/98/1 1334/439/98/1
f 1335/436/105/1 1336/437/100/1 1337/438/98/1 1338/439/98/1
f 1339/456/104/1 1340/456/104/1 1341/457/104/1 1342/457/104/1
f 1343/458/98/1 1344/458/98/1 1345/459/98/1 1346/459/98/1
f 1347/460/98/1 1348/461/98/1 1349/461/98/1 1350/460/98/1
f 1351/460/98/1 1352/461/98/1 1353/461/98/1 1354/460/98/1
f 1355/460/106/1 1356/461/100/1 1357/461/98/1 1358/460/104/1
f 1359/437/101/1 1360/436/98/1 1361/439/107/1 1362/438/106/1
f 1363/438/104/1 1364/439/98/1 1365/436/108/1 1366/437/98/1
f 1367/437/98/1 1368/436/98/1 1369/439/109/1 1370/438/106/1
f 1371/462/98/1 1372/463/98/1 1373/464/98/1 1374/465/98/1
f 1375/465/98/1 1376/464/98/1 1377/466/98/1 1378/467/98/1
f 1379/467/98/1 1380/466/98/1 1381/468/98/1 1382/469/106/1
f 1383/427/98/1 1384/427/98/1 1385/428/98/1 1386/428/98/1
f 1387/428/98/1 1388/428/98/1 1389/427/98/1 1390/427/98/1
f 1391/429/98/1 1392/429/98/1 1393/430/98/1 1394/430/98/1
f 1395/430/98/1 1396/430/98/1 1397/429/98/1 1398/429/98/1
f 1399/432/98/1 1400/435/98/1 1401/434/98/1 1402/433/98/1
f 1403/433/98/1 1404/434/98/1 1405/435/98/1 1406/432/98/1
f 1407/438/98/1 1408/439/98/1 1409/436/98/1 1410/437/98/1
f 1411/437/98/1 1412/436/98/1 1413/439/98/1 1414/438/98/1
f 1415/470/98/1 1416/441/98/1 1417/471/98/1 1418/437/98/1
f 1419/437/98/1 1420/471/98/1 1421/472/98/1 1422/438/98/1
f 1423/438/98/1 1424/439/98/1 1425/436/98/1 1426/437/98/1
f 1427/437/98/1 1428/436/98/1 1429/439/98/1 1430/438/98/1
f 1431/473/110/1 1432/474/110/1 1433/475/110/1
f 1434/476/111/1 1435/476/112/1 1436/476/113/1
usemtl out32_sanbo
s off
f 471/92/21/1 472/92/21/1 473/92/21/1 474/92/21/1
f 475/92/22/1 476/92/22/1 477/92/22/1 478/92/22/1
f 479/92/23/1 480/92/24/1 481/92/25/1 482/92/25/1
f 483/93/25/1 484/94/25/1 485/94/25/1 486/93/25/1
f 487/95/26/1 488/96/26/1 489/97/26/1 490/98/26/1
f 491/98/27/1 492/97/27/1 493/96/27/1 494/95/27/1
f 495/99/25/1 496/100/25/1 497/101/25/1 498/102/25/1
f 499/102/25/1 500/101/25/1 501/103/23/1 502/104/25/1
f 503/104/24/1 504/103/24/1 505/105/28/1 506/106/28/1
f 507/100/25/1 508/107/29/1 509/102/25/1 510/101/25/1
f 511/101/24/1 512/102/24/1 513/104/25/1 514/103/25/1
f 515/103/28/1 516/104/24/1 517/106/28/1 518/105/24/1
f 519/92/30/1 520/92/30/1 521/92/24/1 522/92/24/1
f 523/92/25/1 524/92/29/1 525/92/29/1 526/92/25/1
f 527/106/25/1 528/102/25/1 529/104/25/1 530/108/29/1
f 531/108/23/1 532/104/23/1 533/106/23/1 534/109/23/1
f 535/92/31/1 536/92/31/1 537/92/29/1 538/92/25/1
f 539/92/32/1 540/92/29/1 541/92/25/1 542/92/25/1
f 543/92/33/1 544/92/33/1 545/92/32/1 546/92/25/1
f 547/92/25/1 548/92/32/1 549/92/25/1 550/92/29/1
f 551/92/25/1 552/92/24/1 553/92/23/1 554/92/25/1
f 555/92/25/1 556/92/25/1 557/92/34/1 558/92/34/1
f 559/102/25/1 560/110/25/1 561/108/32/1 562/104/23/1
f 563/104/25/1 564/108/25/1 565/111/25/1 566/106/25/1
f 567/92/35/1 568/92/35/1 569/92/25/1 570/92/25/1
f 571/92/29/1 572/92/25/1 573/92/25/1 574/92/25/1
f 575/92/25/1 576/92/25/1 577/92/25/1 578/92/24/1
f 579/92/25/1 580/92/25/1 581/92/36/1 582/92/36/1
f 583/112/25/1 584/112/25/1 585/112/25/1 586/112/25/1
f 587/112/25/1 588/112/25/1 589/112/25/1 590/112/25/1
f 591/113/37/1 592/113/38/1 593/113/38/1
f 594/114/39/1 595/115/39/1 596/115/40/1
f 597/114/41/1 598/116/41/1 599/117/41/1
f 600/115/42/1 601/118/43/1 602/115/39/1
f 603/118/41/1 604/117/41/1 605/119/41/1
f 606/120/39/1 607/121/41/1 608/114/39/1
f 609/121/41/1 610/121/41/1 611/114/41/1
f 612/114/44/1 613/121/39/1 614/122/41/1
f 615/113/37/1 616/113/45/1 617/113/46/1
f 618/113/45/1 619/113/46/1 620/113/46/1
f 621/123/41/1 622/123/41/1 623/124/41/1
f 624/123/41/1 625/123/41/1 626/124/41/1
usemtl out32_u_k1
s off
f 627/125/47/1 628/126/47/1 629/127/47/1 630/128/47/1
f 631/129/47/1 632/130/47/1 633/131/47/1 634/132/47/1
f 635/133/47/1 636/134/47/1 637/135/47/1 638/136/47/1
f 639/137/48/1 640/138/48/1 641/139/48/1
usemtl out32_u_k2
s off
f 642/140/49/1 643/141/49/1 644/142/49/1 645/143/49/1
f 646/144/50/1 647/143/50/1 648/145/50/1 649/146/50/1
f 650/146/51/1 651/145/51/1 652/147/51/1 653/148/51/1
f 654/148/52/1 655/147/53/1 656/149/52/1 657/150/53/1
f 658/150/51/1 659/149/51/1 660/151/51/1 661/152/51/1
f 662/152/49/1 663/151/49/1 664/153/49/1 665/154/49/1
f 666/154/49/1 667/153/49/1 668/155/49/1 669/156/49/1
f 670/157/49/1 671/156/49/1 672/158/49/1 673/159/49/1
f 674/159/49/1 675/158/49/1 676/160/49/1 677/161/49/1
f 678/161/49/1 679/160/49/1 680/162/49/1 681/163/49/1
f 682/163/49/1 683/162/49/1 684/164/49/1 685/165/49/1
f 686/165/49/1 687/164/49/1 688/166/49/1 689/167/49/1
f 690/168/49/1 691/169/49/1 692/170/49/1 693/171/49/1
f 694/171/49/1 695/170/49/1 696/172/49/1 697/167/49/1
f 698/173/54/1 699/174/54/1 700/175/54/1
f 701/176/54/1 702/177/54/1 703/178/54/1
f 704/179/54/1 705/180/54/1 706/181/54/1
f 707/182/54/1 708/183/54/1 709/184/54/1
f 710/185/54/1 711/186/54/1 712/187/54/1
f 713/188/54/1 714/189/54/1 715/190/54/1
f 716/191/54/1 717/192/54/1 718/193/54/1
usemtl out32_u_u
s off
f 719/194/55/1 720/195/55/1 721/196/55/1 722/197/55/1
usemtl out32_u_k4
s off
f 723/198/56/1 724/199/56/1 725/200/56/1 726/201/56/1
usemtl out32_u_u2
s off
f 727/202/57/1 728/203/57/1 729/204/57/1 730/205/57/1
usemtl out32_u_kaida
s off
f 731/206/58/1 732/206/58/1 733/206/58/1 734/206/58/1
f 735/207/58/1 736/208/58/1 737/209/58/1 738/210/58/1
f 739/211/58/1 740/211/58/1 741/212/58/1 742/212/58/1
f 743/213/59/1 744/214/59/1 745/215/59/1 746/215/59/1
f 747/216/58/1 748/216/58/1 749/216/58/1 750/216/58/1
f 751/217/60/1 752/218/60/1 753/219/60/1 754/220/60/1
f 755/221/60/1 756/222/60/1 757/223/60/1 758/224/60/1
f 759/224/60/1 760/223/60/1 761/225/60/1 762/226/60/1
f 763/226/60/1 764/225/60/1 765/227/60/1 766/228/60/1
f 767/228/60/1 768/227/60/1 769/229/60/1 770/230/60/1
f 771/230/60/1 772/229/60/1 773/231/60/1 774/232/60/1
f 775/232/60/1 776/231/60/1 777/233/60/1 778/234/60/1
f 779/234/60/1 780/233/60/1 781/235/60/1 782/236/60/1
f 783/236/60/1 784/235/60/1 785/237/60/1 786/238/60/1
f 787/238/60/1 788/237/60/1 789/239/60/1 790/240/60/1
f 791/240/60/1 792/239/60/1 793/241/60/1 794/242/60/1
f 795/242/61/1 796/241/61/1 797/243/61/1 798/244/61/1
f 799/244/60/1 800/243/60/1 801/245/60/1 802/246/60/1
f 803/246/60/1 804/245/60/1 805/247/60/1 806/248/60/1
f 807/249/60/1 808/220/60/1 809/250/60/1 810/251/60/1
f 811/251/60/1 812/250/60/1 813/252/60/1 814/253/60/1
f 815/253/60/1 816/252/60/1 817/254/60/1 818/255/60/1
f 819/255/60/1 820/254/60/1 821/256/60/1 822/257/60/1
f 823/257/60/1 824/256/60/1 825/258/60/1 826/259/60/1
f 827/259/60/1 828/258/60/1 829/260/60/1 830/261/60/1
f 831/261/60/1 832/260/60/1 833/262/60/1 834/263/60/1
f 835/263/60/1 836/262/60/1 837/264/60/1 838/265/60/1
f 839/265/60/1 840/264/60/1 841/266/60/1 842/267/60/1
f 843/267/60/1 844/266/60/1 845/268/60/1 846/269/60/1
f 847/269/60/1 848/268/60/1 849/270/60/1 850/271/60/1
f 851/271/60/1 852/270/60/1 853/272/60/1 854/273/60/1
f 855/274/62/1 856/275/62/1 857/275/62/1
f 858/276/62/1 859/277/62/1 860/277/62/1
f 861/278/62/1 862/278/62/1 863/278/62/1
f 864/279/63/1 865/275/63/1 866/275/63/1
f 867/280/64/1 868/281/64/1 869/282/64/1
usemtl out38_t08
s off
f 870/283/65/1 871/284/65/1 872/285/65/1 873/286/65/1
f 874/287/65/1 875/288/65/1 876/289/65/1 877/286/65/1
f 878/285/65/1 879/290/65/1 880/287/65/1 881/286/65/1
f 882/289/65/1 883/291/65/1 884/283/65/1 885/286/65/1
usemtl pk_l_iwa6
s off
f 886/292/66/1 887/293/66/1 888/294/67/1 889/295/68/1
f 890/296/66/1 891/297/66/1 892/298/66/1 893/292/66/1
f 894/292/66/1 895/298/66/1 896/299/66/1 897/293/69/1
f 898/293/66/1 899/299/69/1 900/300/66/1 901/301/70/1
f 902/302/66/1 903/303/68/1 904/304/66/1 905/305/66/1
f 906/305/66/1 907/304/66/1 908/306/66/1 909/307/66/1
f 910/307/66/1 911/306/66/1 912/308/66/1 913/309/66/1
f 914/306/66/1 915/304/66/1 916/310/66/1 917/311/68/1
f 918/311/66/1 919/310/66/1 920/312/66/1 921/313/66/1
f 922/313/66/1 923/312/66/1 924/314/66/1 925/315/66/1
f 926/316/66/1 927/314/68/1 928/312/66/1 929/317/66/1
f 930/317/66/1 931/312/66/1 932/310/66/1 933/318/66/1
f 934/315/66/1 935/319/66/1 936/320/66/1 937/313/66/1
f 938/313/66/1 939/320/66/1 940/321/69/1 941/311/66/1
f 942/322/69/1 943/323/66/1 944/324/66/1 945/325/66/1
f 946/325/69/1 947/324/69/1 948/326/66/1 949/327/66/1
f 950/298/69/1 951/328/66/1 952/329/66/1 953/299/66/1
f 954/299/66/1 955/329/66/1 956/330/66/1 957/300/68/1
f 958/331/71/1 959/331/71/1 960/331/72/1 961/331/73/1
f 962/331/74/1 963/331/72/1 964/331/75/1 965/331/75/1
f 966/332/76/1 967/333/77/1 968/334/77/1
f 969/332/77/1 970/335/77/1 971/336/77/1
f 972/337/77/1 973/338/77/1 974/339/77/1
f 975/340/77/1 976/341/77/1 977/342/77/1
f 978/343/77/1 979/344/77/1 980/345/77/1
f 981/344/78/1 982/335/77/1 983/345/77/1
f 984/345/77/1 985/335/77/1 986/346/77/1
f 987/335/78/1 988/332/78/1 989/346/77/1
f 990/346/77/1 991/332/77/1 992/347/77/1
f 993/332/77/1 994/334/77/1 995/347/77/1
f 996/344/77/1 997/337/77/1 998/335/79/1
f 999/337/80/1 1000/339/77/1 1001/335/77/1
f 1002/335/81/1 1003/339/77/1 1004/336/78/1
f 1005/339/77/1 1006/338/77/1 1007/336/77/1
f 1008/336/77/1 1009/338/77/1 1010/348/77/1
f 1011/349/77/1 1012/333/77/1 1013/350/77/1
f 1014/333/82/1 1015/332/78/1 1016/350/77/1
f 1017/350/77/1 1018/332/77/1 1019/351/77/1
f 1020/332/77/1 1021/336/77/1 1022/351/77/1
f 1023/351/77/1 1024/336/77/1 1025/348/77/1
f 1026/352/77/1 1027/353/77/1 1028/354/77/1
f 1029/353/77/1 1030/355/76/1 1031/354/77/1
f 1032/354/77/1 1033/355/77/1 1034/356/77/1
f 1035/355/76/1 1036/357/77/1 1037/356/77/1
f 1038/351/77/1 1039/348/77/1 1040/358/83/1
f 1041/348/77/1 1042/359/77/1 1043/358/77/1
f 1044/358/77/1 1045/359/77/1 1046/340/77/1
f 1047/355/77/1 1048/353/76/1 1049/342/76/1
f 1050/353/76/1 1051/358/77/1 1052/342/77/1
f 1053/342/77/1 1054/358/77/1 1055/340/77/1
f 1056/360/77/1 1057/361/77/1 1058/362/77/1
f 1059/361/77/1 1060/363/77/1 1061/362/77/1
f 1062/364/77/1 1063/365/77/1 1064/366/77/1
f 1065/365/77/1 1066/367/77/1 1067/366/77/1
f 1068/355/77/1 1069/368/78/1 1070/357/77/1
f 1071/368/83/1 1072/369/77/1 1073/357/79/1
f 1074/370/77/1 1075/371/77/1 1076/372/76/1
f 1077/371/77/1 1078/373/77/1 1079/372/77/1
usemtl pk_l_iwa7
s off
f 1080/374/84/1 1081/375/84/1 1082/376/84/1 1083/377/84/1
f 1084/374/84/1 1085/378/84/1 1086/379/84/1 1087/377/84/1
f 1088/374/84/1 1089/375/84/1 1090/376/84/1 1091/377/84/1
f 1092/374/84/1 1093/375/84/1 1094/376/84/1 1095/377/84/1
f 1096/374/85/1 1097/375/84/1 1098/376/84/1 1099/377/84/1
f 1100/374/84/1 1101/375/84/1 1102/376/84/1 1103/377/86/1
f 1104/374/84/1 1105/375/84/1 1106/376/84/1 1107/377/84/1
f 1108/374/84/1 1109/375/84/1 1110/376/84/1 1111/377/84/1
f 1112/380/84/1 1113/381/84/1 1114/382/84/1 1115/383/84/1
usemtl pk_l_kabe
s off
f 1116/384/87/1 1117/384/87/1 1118/385/87/1 1119/385/87/1
f 1120/386/87/1 1121/386/87/1 1122/385/87/1 1123/385/87/1
f 1124/386/87/1 1125/385/87/1 1126/385/87/1 1127/386/87/1
f 1128/387/88/1 1129/388/89/1 1130/389/89/1 1131/387/90/1
f 1132/384/87/1 1133/385/87/1 1134/385/87/1 1135/384/87/1
f 1136/387/87/1 1137/390/87/1 1138/390/87/1 1139/387/87/1
f 1140/391/87/1 1141/391/87/1 1142/392/87/1 1143/392/87/1
f 1144/393/88/1 1145/394/87/1 1146/394/87/1 1147/393/87/1
f 1148/387/87/1 1149/387/87/1 1150/395/91/1 1151/396/87/1
f 1152/397/87/1 1153/398/87/1 1154/399/87/1 1155/400/87/1
f 1156/401/87/1 1157/402/87/1 1158/403/87/1 1159/404/87/1
f 1160/405/87/1 1161/406/92/1 1162/407/87/1 1163/408/87/1
f 1164/409/87/1 1165/410/90/1 1166/411/87/1 1167/412/87/1
f 1168/400/87/1 1169/399/87/1 1170/398/87/1 1171/397/87/1
f 1172/392/87/1 1173/413/93/1 1174/414/87/1 1175/391/87/1
f 1176/391/87/1 1177/414/87/1 1178/413/87/1 1179/392/87/1
f 1180/415/87/1 1181/416/90/1 1182/417/90/1 1183/418/87/1
f 1184/419/87/1 1185/419/87/1 1186/419/87/1 1187/419/87/1
f 1188/419/87/1 1189/419/87/1 1190/419/87/1 1191/419/87/1
f 1192/419/87/1 1193/419/87/1 1194/419/87/1 1195/419/87/1
f 1196/419/87/1 1197/419/87/1 1198/419/87/1 1199/419/87/1
f 1200/419/87/1 1201/419/87/1 1202/419/87/1 1203/419/87/1
f 1204/386/87/1 1205/385/94/1 1206/385/87/1 1207/386/87/1
f 1208/386/87/1 1209/385/87/1 1210/385/87/1 1211/386/87/1
f 1212/386/87/1 1213/385/87/1 1214/385/87/1 1215/386/87/1
f 1216/386/87/1 1217/385/87/1 1218/385/87/1 1219/386/87/1
f 1220/385/87/1 1221/384/90/1 1222/384/87/1 1223/385/87/1
f 1224/385/95/1 1225/384/87/1 1226/384/87/1 1227/385/87/1
f 1228/385/87/1 1229/384/87/1 1230/384/87/1 1231/385/87/1
f 1232/405/87/1 1233/408/87/1 1234/408/87/1 1235/405/87/1
f 1236/405/87/1 1237/408/87/1 1238/407/87/1 1239/406/87/1
f 1240/420/96/1 1241/420/96/1 1242/421/96/1
f 1243/422/97/1 1244/423/97/1 1245/422/97/1
f 1246/424/96/1 1247/425/96/1 1248/424/96/1
f 1249/426/96/1 1250/421/96/1 1251/426/96/1
f 1252/421/96/1 1253/426/96/1 1254/426/96/1
f 1255/420/96/1 1256/420/96/1 1257/421/96/1
f 1258/420/96/1 1259/420/96/1 1260/421/96/1
f 1261/426/97/1 1262/426/97/1 1263/421/97/1
f 1264/426/96/1 1265/426/96/1 1266/421/96/1
usemtl pk_l_mado2
s off
f 1437/477/114/1 1438/478/114/1 1439/479/114/1 1440/480/114/1
f 1441/480/114/1 1442/477/114/1 1443/478/114/1 1444/479/114/1
f 1445/478/114/1 1446/477/114/1 1447/480/114/1 1448/479/114/1
f 1449/478/114/1 1450/477/114/1 1451/480/114/1 1452/479/114/1
f 1453/478/114/1 1454/477/114/1 1455/480/114/1 1456/479/114/1
f 1457/478/114/1 1458/477/114/1 1459/480/114/1 1460/479/114/1
f 1461/478/114/1 1462/477/114/1 1463/480/114/1 1464/479/114/1
f 1465/481/114/1 1466/480/114/1 1467/479/114/1 1468/482/114/1
f 1469/481/114/1 1470/480/114/1 1471/479/114/1 1472/482/114/1
f 1473/480/114/1 1474/483/114/1 1475/484/114/1 1476/479/114/1
f 1477/482/114/1 1478/481/114/1 1479/480/114/1 1480/479/114/1
f 1481/481/114/1 1482/482/114/1 1483/479/114/1 1484/480/114/1
f 1485/481/114/1 1486/480/114/1 1487/479/114/1 1488/482/114/1
f 1489/481/114/1 1490/480/114/1 1491/479/114/1 1492/482/114/1
f 1493/479/114/1 1494/482/114/1 1495/481/114/1 1496/480/114/1
f 1497/480/114/1 1498/481/114/1 1499/482/114/1 1500/479/114/1
f 1501/485/115/1 1502/486/115/1 1503/487/115/1
f 1504/486/115/1 1505/485/115/1 1506/488/115/1
f 1507/485/115/1 1508/486/115/1 1509/487/115/1
f 1510/485/115/1 1511/486/115/1 1512/487/115/1
f 1513/489/115/1 1514/485/115/1 1515/490/116/1
f 1516/488/117/1 1517/488/115/1 1518/491/115/1
f 1519/488/115/1 1520/485/115/1 1521/491/115/1
f 1522/490/117/1 1523/490/115/1 1524/486/115/1
f 1525/490/115/1 1526/485/115/1 1527/486/115/1
usemtl pk_l_mado3
s off
f 1528/492/118/1 1529/493/118/1 1530/494/118/1 1531/495/118/1
f 1532/496/118/1 1533/497/118/1 1534/498/118/1 1535/499/118/1
f 1536/495/118/1 1537/500/118/1 1538/501/118/1 1539/494/118/1
f 1540/495/118/1 1541/500/118/1 1542/501/118/1 1543/494/118/1
f 1544/495/118/1 1545/500/118/1 1546/501/118/1 1547/494/118/1
f 1548/502/118/1 1549/503/118/1 1550/504/118/1 1551/505/118/1
f 1552/506/118/1 1553/507/118/1 1554/508/118/1 1555/509/118/1
f 1556/506/118/1 1557/507/118/1 1558/508/118/1 1559/509/118/1
f 1560/510/118/1 1561/511/118/1 1562/512/118/1 1563/513/118/1
f 1564/514/118/1 1565/515/118/1 1566/516/118/1 1567/517/118/1
f 1568/517/118/1 1569/516/118/1 1570/518/118/1 1571/519/118/1
f 1572/519/118/1 1573/518/118/1 1574/520/118/1 1575/521/118/1
f 1576/521/118/1 1577/520/118/1 1578/522/118/1 1579/523/118/1
f 1580/514/118/1 1581/515/118/1 1582/516/118/1 1583/517/118/1
f 1584/517/118/1 1585/516/118/1 1586/518/118/1 1587/519/118/1
f 1588/519/118/1 1589/518/118/1 1590/520/118/1 1591/521/118/1
f 1592/521/118/1 1593/520/118/1 1594/522/118/1 1595/523/118/1
f 1596/514/118/1 1597/515/118/1 1598/516/118/1 1599/517/118/1
f 1600/517/118/1 1601/516/118/1 1602/518/118/1 1603/519/118/1
f 1604/524/118/1 1605/525/118/1 1606/526/118/1 1607/527/118/1
f 1608/527/118/1 1609/526/118/1 1610/528/118/1 1611/529/118/1
f 1612/519/118/1 1613/518/118/1 1614/520/118/1 1615/521/118/1
f 1616/521/118/1 1617/520/118/1 1618/522/118/1 1619/523/118/1
f 1620/530/119/1 1621/531/119/1 1622/532/119/1
f 1623/533/120/1 1624/534/119/1 1625/535/119/1
f 1626/536/119/1 1627/537/119/1 1628/538/119/1
usemtl pk_l_mado4
s off
f 1629/539/121/1 1630/539/121/1 1631/540/122/1
f 1632/539/121/1 1633/539/123/1 1634/540/121/1
f 1635/539/121/1 1636/539/123/1 1637/540/122/1
f 1638/541/121/1 1639/541/121/1 1640/542/121/1
f 1641/539/121/1 1642/540/122/1 1643/539/124/1
f 1644/540/121/1 1645/540/121/1 1646/539/121/1
f 1647/539/125/1 1648/540/124/1 1649/540/124/1
f 1650/539/121/1 1651/540/126/1 1652/539/121/1
f 1653/540/123/1 1654/540/121/1 1655/539/122/1
f 1656/539/127/1 1657/540/121/1 1658/540/122/1
f 1659/539/121/1 1660/540/122/1 1661/539/122/1
f 1662/540/123/1 1663/540/121/1 1664/539/122/1
f 1665/539/127/1 1666/540/121/1 1667/540/121/1
f 1668/541/121/1 1669/542/121/1 1670/541/121/1
f 1671/542/121/1 1672/542/121/1 1673/541/121/1
f 1674/541/128/1 1675/542/124/1 1676/542/129/1
f 1677/540/121/1 1678/539/122/1 1679/543/121/1
f 1680/539/121/1 1681/544/121/1 1682/543/121/1
f 1683/540/121/1 1684/543/121/1 1685/539/121/1
f 1686/543/121/1 1687/544/121/1 1688/539/121/1
f 1689/540/130/1 1690/539/122/1 1691/543/121/1
f 1692/539/126/1 1693/544/121/1 1694/543/121/1
f 1695/540/122/1 1696/543/121/1 1697/539/121/1
f 1698/543/126/1 1699/544/121/1 1700/539/121/1
f 1701/540/121/1 1702/539/123/1 1703/543/121/1
f 1704/539/121/1 1705/544/121/1 1706/543/121/1
f 1707/540/121/1 1708/543/121/1 1709/539/126/1
f 1710/543/121/1 1711/544/121/1 1712/539/121/1
f 1713/545/121/1 1714/541/121/1 1715/546/121/1
f 1716/541/124/1 1717/542/124/1 1718/546/124/1
usemtl pk_l_yane2
s off
f 1719/547/131/1 1720/548/132/1 1721/549/132/1 1722/550/132/1
f 1723/550/132/1 1724/549/133/1 1725/551/132/1 1726/552/132/1
f 1727/552/132/1 1728/551/134/1 1729/553/132/1 1730/554/132/1
usemtl pk_l_yane
s off
f 1731/555/135/1 1732/556/135/1 1733/557/135/1 1734/558/136/1
f 1735/555/137/1 1736/556/138/1 1737/557/135/1 1738/558/137/1
f 1739/555/137/1 1740/556/138/1 1741/557/135/1 1742/558/135/1
f 1743/559/135/1 1744/560/135/1 1745/560/135/1 1746/559/135/1
f 1747/559/135/1 1748/560/135/1 1749/561/135/1 1750/562/135/1
f 1751/562/137/1 1752/561/135/1 1753/563/135/1 1754/564/135/1
f 1755/564/135/1 1756/563/135/1 1757/565/135/1 1758/566/139/1
f 1759/560/135/1 1760/567/135/1 1761/567/135/1 1762/560/135/1
f 1763/560/140/1 1764/567/135/1 1765/568/135/1 1766/561/135/1
f 1767/561/135/1 1768/568/135/1 1769/569/135/1 1770/563/135/1
f 1771/563/135/1 1772/569/135/1 1773/570/140/1 1774/565/135/1
f 1775/567/135/1 1776/571/135/1 1777/571/135/1 1778/567/135/1
f 1779/567/135/1 1780/571/135/1 1781/572/135/1 1782/568/135/1
f 1783/568/135/1 1784/572/135/1 1785/573/135/1 1786/569/135/1
f 1787/569/135/1 1788/573/135/1 1789/574/136/1 1790/570/135/1
f 1791/575/141/1 1792/576/141/1 1793/577/142/1
f 1794/575/141/1 1795/576/141/1 1796/577/141/1
f 1797/575/143/1 1798/576/141/1 1799/577/141/1
