mtllib Asteria_23_12.mtl
o map
v -15.0 8.0 0.30322194
v -15.0 10.0 0.30322194
v -15.0 8.0 3.625
v -15.0 10.0 3.625
v -16.0 8.0 0.32177603
v -14.0 8.0 0.32177603
v -16.0 10.0 0.32177603
v -14.0 10.0 0.32177603
v -16.0 9.0 0.30322194
v -14.0 9.0 0.30322194
v -16.0 9.0 3.625
v -14.0 9.0 3.625
v -16.0 8.0 3.018554
v -14.0 8.0 3.018554
v -16.0 10.0 3.018554
v -14.0 10.0 3.018554
v -16.0 8.0 1.5625
v -14.0 8.0 1.5625
v -16.0 10.0 1.5625
v -14.0 10.0 1.5625
v -13.0 10.5 0.75
v -13.0 11.0 0.0
v -16.0 11.0 0.0
v -16.0 10.500001 0.75
v -13.0 10.0 1.0
v -16.0 10.0 1.0
v -13.0 15.5 0.75
v -13.0 16.0 0.0
v -16.0 16.0 0.0
v -16.0 15.500001 0.75
v -13.0 15.0 1.0
v -16.0 15.0 1.0
v -13.0 8.0 0.30322194
v -13.0 10.0 0.30322194
v -13.0 8.0 3.625
v -13.0 10.0 3.625
v -14.0 8.0 0.32177603
v -12.0 8.0 0.32177603
v -14.0 10.0 0.32177603
v -12.0 10.0 0.32177603
v -14.0 9.0 0.30322194
v -12.0 9.0 0.30322194
v -14.0 9.0 3.625
v -12.0 9.0 3.625
v -14.0 8.0 3.018554
v -12.0 8.0 3.018554
v -14.0 10.0 3.018554
v -12.0 10.0 3.018554
v -14.0 8.0 1.5625
v -12.0 8.0 1.5625
v -14.0 10.0 1.5625
v -12.0 10.0 1.5625
v -11.998047 10.501563 0.75
v -11.998047 11.001563 0.0
v -12.998047 11.001563 0.0
v -12.998047 10.501563 0.75
v -12.498047 11.001563 0.75
v -12.998047 10.001563 0.0
v -12.498048 10.001563 0.75
v -11.998047 10.001563 1.0
v -12.998047 10.001563 1.0
v -11.998047 11.001563 1.0
v -12.5 14.0 0.75
v -13.0 14.0 0.0
v -13.0 11.0 0.0
v -12.500001 11.0 0.75
v -12.0 14.0 1.0
v -12.0 11.0 1.0
v -11.998047 14.501172 0.75
v -12.748047 14.751172 0.0
v -12.498047 14.001172 0.75
v -11.998047 15.001172 0.0
v -12.998047 14.001172 0.0
v -11.998047 14.001172 1.0
v -11.998047 15.501563 0.75
v -11.998047 16.001562 0.0
v -12.998047 16.001562 0.0
v -12.998047 15.501563 0.75
v -12.498047 16.001562 0.75
v -12.998047 15.001563 0.0
v -12.498048 15.001563 0.75
v -11.998047 15.001563 1.0
v -12.998047 15.001563 1.0
v -11.998047 16.001562 1.0
v -10.998047 14.501563 0.75
v -10.998047 15.001563 0.0
v -11.998047 15.001563 0.0
v -11.998047 14.501563 0.75
v -11.498047 15.001563 0.75
v -11.998047 14.001563 0.0
v -11.498048 14.001563 0.75
v -10.998047 14.001563 1.0
v -11.998047 14.001563 1.0
v -10.998047 15.001563 1.0
v -10.998047 15.501172 0.75
v -11.748047 15.751172 0.0
v -11.498047 15.001172 0.75
v -10.998047 16.001171 0.0
v -11.998047 15.001172 0.0
v -10.998047 15.001172 1.0
v -10.0 15.5 0.75
v -10.0 16.0 0.0
v -11.0 16.0 0.0
v -11.0 15.500001 0.75
v -10.0 15.0 1.0
v -11.0 15.0 1.0
v -8.998047 15.501563 0.75
v -8.998047 16.001562 0.0
v -9.998047 16.001562 0.0
v -9.998047 15.501563 0.75
v -9.498047 16.001562 0.75
v -9.998047 15.001563 0.0
v -9.498048 15.001563 0.75
v -8.998047 15.001563 1.0
v -9.998047 15.001563 1.0
v -8.998047 16.001562 1.0
v -5.498437 14.998047 0.75
v -4.998437 14.998047 0.0
v -4.998437 15.998047 0.0
v -5.498437 15.998047 0.75
v -4.998437 15.498047 0.75
v -5.998437 15.998047 0.0
v -5.998437 15.498048 0.75
v -5.998437 14.998047 1.0
v -5.998437 15.998047 1.0
v -4.998437 14.998047 1.0
v -4.0 15.5 0.75
v -4.0 16.0 0.0
v -5.0 16.0 0.0
v -5.0 15.500001 0.75
v -4.0 15.0 1.0
v -5.0 15.0 1.0
v -3.498437 13.998047 0.75
v -2.998437 13.998047 0.0
v -2.998437 14.998047 0.0
v -3.498437 14.998047 0.75
v -2.998437 14.498047 0.75
v -3.998437 14.998047 0.0
v -3.998437 14.498048 0.75
v -3.998437 13.998047 1.0
v -3.998437 14.998047 1.0
v -2.998437 13.998047 1.0
v -3.498828 14.998047 0.75
v -3.248828 15.748047 0.0
v -3.998828 15.498047 0.75
v -2.998828 14.998047 0.0
v -3.998828 15.998047 0.0
v -3.998828 14.998047 1.0
v 0.0 14.5 0.75
v 0.0 15.0 0.0
v -3.0 15.0 0.0
v -3.0 14.500001 0.75
v 0.0 14.0 1.0
v -3.0 14.0 1.0
v 0.0 18.0 0.18749905
v -3.0 18.0 0.18749905
v -3.0 15.0 0.18749905
v 0.0 15.0 0.18749905
v -3.0 16.5 4.75
v 0.0 16.5 4.75
v 0.0 16.5 0.18749905
v -3.0 16.5 0.18749905
v -1.5 14.999999 4.749999
v -1.5 18.0 4.75
v -1.5 18.0 0.18749905
v -1.5 15.0 0.18749905
v 0.0 15.0 1.624999
v 0.0 18.0 1.624999
v -3.0 18.0 1.624999
v -3.0 15.0 1.624999
v 9.501563 14.998047 0.75
v 10.001563 14.998047 0.0
v 10.001563 15.998047 0.0
v 9.501563 15.998047 0.75
v 10.001563 15.498047 0.75
v 9.001563 15.998047 0.0
v 9.001563 15.498048 0.75
v 9.001563 14.998047 1.0
v 9.001563 15.998047 1.0
v 10.001563 14.998047 1.0
v 13.0 15.5 0.75
v 13.0 16.0 0.0
v 10.0 16.0 0.0
v 10.0 15.500001 0.75
v 13.0 15.0 1.0
v 10.0 15.0 1.0
v 14.001953 15.501563 0.75
v 14.001953 16.001562 0.0
v 13.001953 16.001562 0.0
v 13.001953 15.501563 0.75
v 13.501953 16.001562 0.75
v 13.001953 15.001563 0.0
v 13.501952 15.001563 0.75
v 14.001953 15.001563 1.0
v 13.001953 15.001563 1.0
v 14.001953 16.001562 1.0
vt 0.0 0.0
vt 1.0 0.0
vt 1.0 1.0
vt 0.0 1.0
vt 0.0 0.0
vt 1.0 0.0
vt 1.0 1.0
vt 0.0 1.0
vt 0.0 0.0
vt 1.0 0.0
vt 1.0 1.0
vt 0.0 1.0
vt 0.0 0.0
vt 1.0 0.0
vt 1.0 1.0
vt 0.0 1.0
vt 0.0 0.0
vt 1.0 0.0
vt 1.0 1.0
vt 0.0 1.0
vt 0.0 0.0
vt 0.0 -1.0
vt 3.0 -1.0
vt 3.0 0.0
vt 0.0 -6.0E-5
vt 0.0 -1.0
vt 3.0001593 -1.0
vt 3.000009 -6.0E-5
vt 0.0 0.0
vt 0.0 -1.0
vt 3.0 -1.0
vt 3.0 0.0
vt 0.0 -6.0E-5
vt 0.0 -1.0
vt 3.0001593 -1.0
vt 3.000009 -6.0E-5
vt 0.0 0.0
vt 1.0 0.0
vt 1.0 1.0
vt 0.0 1.0
vt 0.0 0.0
vt 1.0 0.0
vt 1.0 1.0
vt 0.0 1.0
vt 0.0 0.0
vt 1.0 0.0
vt 1.0 1.0
vt 0.0 1.0
vt 0.0 0.0
vt 1.0 0.0
vt 1.0 1.0
vt 0.0 1.0
vt 0.0 0.0
vt 1.0 0.0
vt 1.0 1.0
vt 0.0 1.0
vt 0.0 0.0
vt 0.0 -1.0
vt 1.0 -1.0
vt 1.0 0.0
vt 0.0 0.0
vt 0.0 -1.0
vt 1.0 -1.0
vt 1.0 0.0
vt 5.3E-5 0.0
vt 5.4E-5 -0.999978
vt 1.000053 -0.999978
vt 1.000003 0.0
vt 5.3E-5 0.0
vt 5.4E-5 -0.999978
vt 1.000053 -0.999978
vt 1.000003 0.0
vt 0.0 0.0
vt 0.0 -1.0
vt 3.0 -1.0
vt 3.0 0.0
vt 0.0 -6.0E-5
vt 0.0 -1.0
vt 3.0001593 -1.0
vt 3.000009 -6.0E-5
vt 0.0 0.0
vt 0.5 -1.0
vt 1.0 0.0
vt 0.0 -1.0
vt 1.0 -1.0
vt 0.500579 -8.2E-5
vt 0.0 -0.999918
vt 1.0 -0.999918
vt 0.0 0.0
vt 0.0 -1.0
vt 1.0 -1.0
vt 1.0 0.0
vt 0.0 0.0
vt 0.0 -1.0
vt 1.0 -1.0
vt 1.0 0.0
vt 5.3E-5 0.0
vt 5.4E-5 -0.999978
vt 1.000053 -0.999978
vt 1.000003 0.0
vt 5.3E-5 0.0
vt 5.4E-5 -0.999978
vt 1.000053 -0.999978
vt 1.000003 0.0
vt 0.0 0.0
vt 0.0 -1.0
vt 1.0 -1.0
vt 1.0 0.0
vt 0.0 0.0
vt 0.0 -1.0
vt 1.0 -1.0
vt 1.0 0.0
vt 5.3E-5 0.0
vt 5.4E-5 -0.999978
vt 1.000053 -0.999978
vt 1.000003 0.0
vt 5.3E-5 0.0
vt 5.4E-5 -0.999978
vt 1.000053 -0.999978
vt 1.000003 0.0
vt 0.0 0.0
vt 0.5 -1.0
vt 1.0 0.0
vt 0.0 -1.0
vt 1.0 -1.0
vt 0.500579 -8.2E-5
vt 0.0 -0.999918
vt 1.0 -0.999918
vt 0.0 0.0
vt 0.0 -1.0
vt 1.0 -1.0
vt 1.0 0.0
vt 0.0 -6.0E-5
vt 0.0 -1.0
vt 1.000053 -1.0
vt 1.000003 -6.0E-5
vt 0.0 0.0
vt 0.0 -1.0
vt 1.0 -1.0
vt 1.0 0.0
vt 0.0 0.0
vt 0.0 -1.0
vt 1.0 -1.0
vt 1.0 0.0
vt 5.3E-5 0.0
vt 5.4E-5 -0.999978
vt 1.000053 -0.999978
vt 1.000003 0.0
vt 5.3E-5 0.0
vt 5.4E-5 -0.999978
vt 1.000053 -0.999978
vt 1.000003 0.0
vt 0.0 0.0
vt 0.0 -1.0
vt 1.0 -1.0
vt 1.0 0.0
vt 0.0 0.0
vt 0.0 -1.0
vt 1.0 -1.0
vt 1.0 0.0
vt 5.3E-5 0.0
vt 5.4E-5 -0.999978
vt 1.000053 -0.999978
vt 1.000003 0.0
vt 5.3E-5 0.0
vt 5.4E-5 -0.999978
vt 1.000053 -0.999978
vt 1.000003 0.0
vt 0.0 0.0
vt 0.0 -1.0
vt 1.0 -1.0
vt 1.0 0.0
vt 0.0 -6.0E-5
vt 0.0 -1.0
vt 1.000053 -1.0
vt 1.000003 -6.0E-5
vt 0.0 0.0
vt 0.0 -1.0
vt 1.0 -1.0
vt 1.0 0.0
vt 0.0 0.0
vt 0.0 -1.0
vt 1.0 -1.0
vt 1.0 0.0
vt 5.3E-5 0.0
vt 5.4E-5 -0.999978
vt 1.000053 -0.999978
vt 1.000003 0.0
vt 5.3E-5 0.0
vt 5.4E-5 -0.999978
vt 1.000053 -0.999978
vt 1.000003 0.0
vt 0.0 0.0
vt 0.5 -1.0
vt 1.0 0.0
vt 0.0 -1.0
vt 1.0 -1.0
vt 0.500579 -8.2E-5
vt 0.0 -0.999918
vt 1.0 -0.999918
vt 0.0 0.0
vt 0.0 -1.0
vt 3.0 -1.0
vt 3.0 0.0
vt 0.0 -6.0E-5
vt 0.0 -1.0
vt 3.0001593 -1.0
vt 3.000009 -6.0E-5
vt 0.0 -1.0
vt -1.0 -1.0
vt -1.0 -2.0
vt 0.0 -2.0
vt 0.0 0.0
vt 0.0 -1.0
vt -1.0 -1.0
vt -1.0 0.0
vt 0.0 0.0
vt -1.0 0.0
vt -1.0 -1.0
vt 0.0 -1.0
vt 0.0 -2.0
vt 0.0 -1.0
vt -1.0 -1.0
vt -1.0 -2.0
vt 0.0 0.0
vt 0.0 -1.0
vt 1.0 -1.0
vt 1.0 0.0
vt 0.0 0.0
vt 0.0 -1.0
vt 1.0 -1.0
vt 1.0 0.0
vt 5.3E-5 0.0
vt 5.4E-5 -0.999978
vt 1.000053 -0.999978
vt 1.000003 0.0
vt 5.3E-5 0.0
vt 5.4E-5 -0.999978
vt 1.000053 -0.999978
vt 1.000003 0.0
vt 0.0 0.0
vt 0.0 -1.0
vt 3.0 -1.0
vt 3.0 0.0
vt 0.0 -6.0E-5
vt 0.0 -1.0
vt 3.0001593 -1.0
vt 3.000009 -6.0E-5
vt 0.0 0.0
vt 0.0 -1.0
vt 1.0 -1.0
vt 1.0 0.0
vt 0.0 0.0
vt 0.0 -1.0
vt 1.0 -1.0
vt 1.0 0.0
vt 5.3E-5 0.0
vt 5.4E-5 -0.999978
vt 1.000053 -0.999978
vt 1.000003 0.0
vt 5.3E-5 0.0
vt 5.4E-5 -0.999978
vt 1.000053 -0.999978
vt 1.000003 0.0
vn -0.001383 0.006577 0.999977
vn -0.001383 0.006577 0.999977
vn -0.001383 0.006577 0.999977
vn -0.001383 0.006577 0.999977
vn -0.001383 0.006577 0.999977
vn -0.001383 0.006577 0.999977
vn -0.001383 0.006577 0.999977
vn -0.001383 0.006577 0.999977
vn -0.001383 0.006577 0.999977
vn -0.001383 0.006577 0.999977
vn -0.001383 0.006577 0.999977
vn -0.001383 0.006577 0.999977
vn -0.001383 0.006577 0.999977
vn -0.001383 0.006577 0.999977
vn -0.001383 0.006577 0.999977
vn -0.001383 0.006577 0.999977
vn -0.001383 0.006577 0.999977
vn -0.001383 0.006577 0.999977
vn -0.001383 0.006577 0.999977
vn -0.001383 0.006577 0.999977
vn 0.0 0.7071 0.7071
vn 0.0 0.8321 0.5547
vn -0.0 0.0434 0.9991
vn 0.0 0.7071 0.7071
vn 0.0 0.8321 0.5547
vn -0.0 0.0434 0.9991
vn -0.001383 0.006577 0.999977
vn -0.001383 0.006577 0.999977
vn -0.001383 0.006577 0.999977
vn -0.001383 0.006577 0.999977
vn -0.001383 0.006577 0.999977
vn -0.001383 0.006577 0.999977
vn -0.001383 0.006577 0.999977
vn -0.001383 0.006577 0.999977
vn -0.001383 0.006577 0.999977
vn -0.001383 0.006577 0.999977
vn -0.001383 0.006577 0.999977
vn -0.001383 0.006577 0.999977
vn -0.001383 0.006577 0.999977
vn -0.001383 0.006577 0.999977
vn -0.001383 0.006577 0.999977
vn -0.001383 0.006577 0.999977
vn -0.001383 0.006577 0.999977
vn -0.001383 0.006577 0.999977
vn -0.001383 0.006577 0.999977
vn -0.001383 0.006577 0.999977
vn 0.0 -0.0189 0.9998
vn 0.0 -0.0188 0.9998
vn -0.0 0.8321 0.5547
vn -0.0 0.7071 0.7071
vn -0.7071 0.0 0.7071
vn 0.0188 0.1841 0.9827
vn 0.0187 0.1841 0.9827
vn -0.7071 0.0 0.7071
vn -0.8321 0.0 0.5547
vn -0.0434 -0.0 0.9991
vn -0.0309 0.6947 0.7186
vn -0.5609 0.5609 0.609
vn -0.7246 0.028 0.6886
vn -0.0338 0.8515 0.5233
vn -0.844 -0.0025 0.5364
vn -0.0149 0.0062 0.9999
vn 0.0 -0.0189 0.9998
vn 0.0 -0.0188 0.9998
vn -0.0 0.8321 0.5547
vn -0.0 0.7071 0.7071
vn -0.7071 0.0 0.7071
vn 0.0188 0.1841 0.9827
vn 0.0187 0.1841 0.9827
vn 0.0 -0.0189 0.9998
vn 0.0 -0.0188 0.9998
vn -0.0 0.8321 0.5547
vn -0.0 0.7071 0.7071
vn -0.7071 0.0 0.7071
vn 0.0188 0.1841 0.9827
vn 0.0187 0.1841 0.9827
vn -0.0309 0.6947 0.7186
vn -0.5609 0.5609 0.609
vn -0.7246 0.028 0.6886
vn -0.0338 0.8515 0.5233
vn -0.844 -0.0025 0.5364
vn -0.0149 0.0062 0.9999
vn 0.0 0.7071 0.7071
vn 0.0 0.8321 0.5547
vn -0.0 0.0434 0.9991
vn 0.0 -0.0189 0.9998
vn 0.0 -0.0188 0.9998
vn -0.0 0.8321 0.5547
vn -0.0 0.7071 0.7071
vn -0.7071 0.0 0.7071
vn 0.0188 0.1841 0.9827
vn 0.0187 0.1841 0.9827
vn -0.0189 -0.0 0.9998
vn -0.0188 -0.0 0.9998
vn 0.8321 0.0 0.5547
vn 0.7071 0.0 0.7071
vn 0.0 0.7071 0.7071
vn 0.1841 -0.0188 0.9827
vn 0.1841 -0.0187 0.9827
vn 0.0 0.7071 0.7071
vn 0.0 0.8321 0.5547
vn -0.0 0.0434 0.9991
vn -0.0189 -0.0 0.9998
vn -0.0188 -0.0 0.9998
vn 0.8321 0.0 0.5547
vn 0.7071 0.0 0.7071
vn 0.0 0.7071 0.7071
vn 0.1841 -0.0188 0.9827
vn 0.1841 -0.0187 0.9827
vn 0.6947 0.0309 0.7186
vn 0.5609 0.5609 0.609
vn 0.028 0.7246 0.6886
vn 0.8515 0.0338 0.5233
vn -0.0025 0.844 0.5364
vn 0.0062 0.0149 0.9999
vn 0.0 0.7071 0.7071
vn 0.0 0.8321 0.5547
vn -0.0 0.0434 0.9991
vn 0.0 0.0 1.0
vn -1.0 0.0 -0.0
vn 1.0 0.0 0.0
vn -0.0189 -0.0 0.9998
vn -0.0188 -0.0 0.9998
vn 0.8321 0.0 0.5547
vn 0.7071 0.0 0.7071
vn 0.0 0.7071 0.7071
vn 0.1841 -0.0188 0.9827
vn 0.1841 -0.0187 0.9827
vn 0.0 0.7071 0.7071
vn 0.0 0.8321 0.5547
vn -0.0 0.0434 0.9991
vn 0.0 -0.0189 0.9998
vn 0.0 -0.0188 0.9998
vn -0.0 0.8321 0.5547
vn -0.0 0.7071 0.7071
vn -0.7071 0.0 0.7071
vn 0.0188 0.1841 0.9827
vn 0.0187 0.1841 0.9827
c 1.0 1.0 1.0
c 1.0 1.0 1.0
c 1.0 1.0 1.0
c 1.0 1.0 1.0
c 1.0 1.0 1.0
c 1.0 1.0 1.0
c 1.0 1.0 1.0
c 1.0 1.0 1.0
c 1.0 1.0 1.0
c 1.0 1.0 1.0
c 1.0 1.0 1.0
c 1.0 1.0 1.0
c 1.0 1.0 1.0
c 1.0 1.0 1.0
c 1.0 1.0 1.0
c 1.0 1.0 1.0
c 1.0 1.0 1.0
c 1.0 1.0 1.0
c 1.0 1.0 1.0
c 1.0 1.0 1.0
c 1.0 1.0 1.0
usemtl ki02ax
s off
f 1/1/1/1 2/2/2/1 4/3/4/1 3/4/3/1
f 9/9/9/1 10/10/10/1 12/11/12/1 11/12/11/1
f 33/37/27/4 34/38/28/4 36/39/30/4 35/40/29/4
f 41/45/35/4 42/46/36/4 44/47/38/4 43/48/37/4
f 159/213/120/18 162/214/121/18 161/215/120/18 160/216/121/18
f 163/217/119/18 164/218/119/18 165/219/119/18 166/220/119/18
usemtl ki02c
s off
f 5/5/5/1 6/6/6/1 8/7/8/1 7/8/7/1
f 37/41/31/4 38/42/32/4 40/43/34/4 39/44/33/4
f 155/209/119/18 156/210/119/18 157/211/119/18 158/212/119/18
usemtl ki02dx
s off
f 13/13/13/1 14/14/14/1 16/15/16/1 15/16/15/1
f 45/49/39/4 46/50/40/4 48/51/42/4 47/52/41/4
usemtl ki02bx
s off
f 17/17/17/1 18/18/18/1 20/19/20/1 19/20/19/1
f 49/53/43/4 50/54/44/4 52/55/46/4 51/56/45/4
f 167/221/119/18 168/222/119/18 169/223/119/18 170/224/119/18
usemtl gake01
s off
f 21/21/21/2 22/22/22/2 23/23/22/2 24/24/21/2
f 27/29/24/3 28/30/25/3 29/31/25/3 30/32/24/3
f 53/57/47/5 54/58/48/5 55/59/49/5 56/60/50/5
f 57/61/50/5 55/62/49/5 58/63/51/5 59/64/52/5
f 63/73/54/6 64/74/55/6 65/75/55/6 66/76/54/6
f 75/89/63/8 76/90/64/8 77/91/65/8 78/92/66/8
f 79/93/66/8 77/94/65/8 80/95/67/8 81/96/68/8
f 85/105/70/9 86/106/71/9 87/107/72/9 88/108/73/9
f 89/109/73/9 87/110/72/9 90/111/74/9 91/112/75/9
f 101/129/83/11 102/130/84/11 103/131/84/11 104/132/83/11
f 107/137/86/12 108/138/87/12 109/139/88/12 110/140/89/12
f 111/141/89/12 109/142/88/12 112/143/90/12 113/144/91/12
f 117/153/93/13 118/154/94/13 119/155/95/13 120/156/96/13
f 121/157/96/13 119/158/95/13 122/159/97/13 123/160/98/13
f 127/169/100/14 128/170/101/14 129/171/101/14 130/172/100/14
f 133/177/103/15 134/178/104/15 135/179/105/15 136/180/106/15
f 137/181/106/15 135/182/105/15 138/183/107/15 139/184/108/15
f 149/201/116/17 150/202/117/17 151/203/117/17 152/204/116/17
f 171/225/122/19 172/226/123/19 173/227/124/19 174/228/125/19
f 175/229/125/19 173/230/124/19 176/231/126/19 177/232/127/19
f 181/241/129/20 182/242/130/20 183/243/130/20 184/244/129/20
f 187/249/132/21 188/250/133/21 189/251/134/21 190/252/135/21
f 191/253/135/21 189/254/134/21 192/255/136/21 193/256/137/21
f 69/81/57/7 70/82/58/7 71/83/59/7
f 69/81/57/7 72/84/60/7 70/82/58/7
f 71/83/59/7 70/82/58/7 73/85/61/7
f 95/121/77/10 96/122/78/10 97/123/79/10
f 95/121/77/10 98/124/80/10 96/122/78/10
f 97/123/79/10 96/122/78/10 99/125/81/10
f 143/193/110/16 144/194/111/16 145/195/112/16
f 143/193/110/16 146/196/113/16 144/194/111/16
f 145/195/112/16 144/194/111/16 147/197/114/16
usemtl gake1_1
s off
f 25/25/23/2 21/26/21/2 24/27/21/2 26/28/23/2
f 31/33/26/3 27/34/24/3 30/35/24/3 32/36/26/3
f 60/65/53/5 53/66/47/5 56/67/50/5 61/68/53/5
f 62/69/49/5 57/70/50/5 59/71/52/5 60/72/53/5
f 67/77/56/6 63/78/54/6 66/79/54/6 68/80/56/6
f 82/97/69/8 75/98/63/8 78/99/66/8 83/100/69/8
f 84/101/65/8 79/102/66/8 81/103/68/8 82/104/69/8
f 92/113/76/9 85/114/70/9 88/115/73/9 93/116/76/9
f 94/117/72/9 89/118/73/9 91/119/75/9 92/120/76/9
f 105/133/85/11 101/134/83/11 104/135/83/11 106/136/85/11
f 114/145/92/12 107/146/86/12 110/147/89/12 115/148/92/12
f 116/149/88/12 111/150/89/12 113/151/91/12 114/152/92/12
f 124/161/99/13 117/162/93/13 120/163/96/13 125/164/99/13
f 126/165/95/13 121/166/96/13 123/167/98/13 124/168/99/13
f 131/173/102/14 127/174/100/14 130/175/100/14 132/176/102/14
f 140/185/109/15 133/186/103/15 136/187/106/15 141/188/109/15
f 142/189/105/15 137/190/106/15 139/191/108/15 140/192/109/15
f 153/205/118/17 149/206/116/17 152/207/116/17 154/208/118/17
f 178/233/128/19 171/234/122/19 174/235/125/19 179/236/128/19
f 180/237/124/19 175/238/125/19 177/239/127/19 178/240/128/19
f 185/245/131/20 181/246/129/20 184/247/129/20 186/248/131/20
f 194/257/138/21 187/258/132/21 190/259/135/21 195/260/138/21
f 196/261/134/21 191/262/135/21 193/263/137/21 194/264/138/21
f 74/86/62/7 69/87/57/7 71/88/59/7
f 100/126/82/10 95/127/77/10 97/128/79/10
f 148/198/115/16 143/199/110/16 145/200/112/16
