mtllib Asteria_34_09.mtl
o map
v -8.0 -8.0 0.0
v -16.0 -8.0 0.0
v -16.0 -16.0 0.0
v -8.0 -16.0 0.0
v -8.0 0.0 0.0
v -16.0 0.0 0.0
v -16.0 -8.0 0.0
v -8.0 -8.0 0.0
v -8.0 8.0 0.0
v -16.0 8.0 0.0
v -16.0 0.0 0.0
v -8.0 0.0 0.0
v -8.0 16.0 0.0
v -16.0 16.0 0.0
v -16.0 8.0 0.0
v -8.0 8.0 0.0
v 0.0 -8.0 0.0
v -8.0 -8.0 0.0
v -8.0 -16.0 0.0
v 0.0 -16.0 0.0
v 0.0 0.0 0.0
v -8.0 0.0 0.0
v -8.0 -8.0 0.0
v 0.0 -8.0 0.0
v 0.0 8.0 0.0
v -8.0 8.0 0.0
v -8.0 0.0 0.0
v 0.0 0.0 0.0
v 0.0 16.0 0.0
v -8.0 16.0 0.0
v -8.0 8.0 0.0
v 0.0 8.0 0.0
v 8.0 -8.0 0.0
v 0.0 -8.0 0.0
v 0.0 -16.0 0.0
v 8.0 -16.0 0.0
v 8.0 0.0 0.0
v 0.0 0.0 0.0
v 0.0 -8.0 0.0
v 8.0 -8.0 0.0
v 8.0 8.0 0.0
v 0.0 8.0 0.0
v 0.0 0.0 0.0
v 8.0 0.0 0.0
v 8.0 16.0 0.0
v 0.0 16.0 0.0
v 0.0 8.0 0.0
v 8.0 8.0 0.0
v 16.0 -8.0 0.0
v 8.0 -8.0 0.0
v 8.0 -16.0 0.0
v 16.0 -16.0 0.0
v 16.0 0.0 0.0
v 8.0 0.0 0.0
v 8.0 -8.0 0.0
v 16.0 -8.0 0.0
v 16.0 8.0 0.0
v 8.0 8.0 0.0
v 8.0 0.0 0.0
v 16.0 0.0 0.0
v 16.0 16.0 0.0
v 8.0 16.0 0.0
v 8.0 8.0 0.0
v 16.0 8.0 0.0
v 13.5 -13.0 0.095762014
v 13.5 -10.0 0.095762014
v 13.5 -10.0 5.026426
v 13.5 -13.0 5.026426
v 12.0 -11.5 0.095762014
v 15.0 -11.5 0.095762014
v 15.0 -11.5 5.026426
v 12.0 -11.5 5.026426
v 12.0 -13.0 4.159656
v 15.0 -13.0 4.159656
v 15.0 -10.0 4.159656
v 12.0 -10.0 4.159656
v 12.0 -13.0 0.123594046
v 15.0 -13.0 0.123594046
v 15.0 -10.0 0.123594046
v 12.0 -10.0 0.123594046
v 12.0 -13.0 1.88557
v 15.0 -13.0 1.88557
v 15.0 -10.0 1.88557
v 12.0 -10.0 1.88557
v 13.5 -10.0 0.095762014
v 13.5 -7.0 0.095762014
v 13.5 -7.0 5.026426
v 13.5 -10.0 5.026426
v 12.0 -8.5 0.095762014
v 15.0 -8.5 0.095762014
v 15.0 -8.5 5.026426
v 12.0 -8.5 5.026426
v 12.0 -10.0 4.159656
v 15.0 -10.0 4.159656
v 15.0 -7.0 4.159656
v 12.0 -7.0 4.159656
v 12.0 -10.0 0.123594046
v 15.0 -10.0 0.123594046
v 15.0 -7.0 0.123594046
v 12.0 -7.0 0.123594046
v 12.0 -10.0 1.88557
v 15.0 -10.0 1.88557
v 15.0 -7.0 1.88557
v 12.0 -7.0 1.88557
v 13.5 -7.0 0.095762014
v 13.5 -4.0 0.095762014
v 13.5 -4.0 5.026426
v 13.5 -7.0 5.026426
v 12.0 -5.5 0.095762014
v 15.0 -5.5 0.095762014
v 15.0 -5.5 5.026426
v 12.0 -5.5 5.026426
v 12.0 -7.0 4.159656
v 15.0 -7.0 4.159656
v 15.0 -4.0 4.159656
v 12.0 -4.0 4.159656
v 12.0 -7.0 0.123594046
v 15.0 -7.0 0.123594046
v 15.0 -4.0 0.123594046
v 12.0 -4.0 0.123594046
v 12.0 -7.0 1.88557
v 15.0 -7.0 1.88557
v 15.0 -4.0 1.88557
v 12.0 -4.0 1.88557
v 13.5 -4.0 0.095762014
v 13.5 -1.0 0.095762014
v 13.5 -1.0 5.026426
v 13.5 -4.0 5.026426
v 12.0 -2.5 0.095762014
v 15.0 -2.5 0.095762014
v 15.0 -2.5 5.026426
v 12.0 -2.5 5.026426
v 12.0 -4.0 4.159656
v 15.0 -4.0 4.159656
v 15.0 -1.0 4.159656
v 12.0 -1.0 4.159656
v 12.0 -4.0 0.123594046
v 15.0 -4.0 0.123594046
v 15.0 -1.0 0.123594046
v 12.0 -1.0 0.123594046
v 12.0 -4.0 1.88557
v 15.0 -4.0 1.88557
v 15.0 -1.0 1.88557
v 12.0 -1.0 1.88557
v 14.5 -16.0 0.095762014
v 14.5 -13.0 0.095762014
v 14.5 -13.0 5.026426
v 14.5 -16.0 5.026426
v 13.0 -14.5 0.095762014
v 16.0 -14.5 0.095762014
v 16.0 -14.5 5.026426
v 13.0 -14.5 5.026426
v 13.0 -16.0 4.159656
v 16.0 -16.0 4.159656
v 16.0 -13.0 4.159656
v 13.0 -13.0 4.159656
v 13.0 -16.0 0.123594046
v 16.0 -16.0 0.123594046
v 16.0 -13.0 0.123594046
v 13.0 -13.0 0.123594046
v 13.0 -16.0 1.88557
v 16.0 -16.0 1.88557
v 16.0 -13.0 1.88557
v 13.0 -13.0 1.88557
v 14.5 -1.0 0.095762014
v 14.5 2.0 0.095762014
v 14.5 2.0 5.026426
v 14.5 -1.0 5.026426
v 13.0 0.5 0.095762014
v 16.0 0.5 0.095762014
v 16.0 0.5 5.026426
v 13.0 0.5 5.026426
v 13.0 -1.0 4.159656
v 16.0 -1.0 4.159656
v 16.0 2.0 4.159656
v 13.0 2.0 4.159656
v 13.0 -1.0 0.123594046
v 16.0 -1.0 0.123594046
v 16.0 2.0 0.123594046
v 13.0 2.0 0.123594046
v 13.0 -1.0 1.88557
v 16.0 -1.0 1.88557
v 16.0 2.0 1.88557
v 13.0 2.0 1.88557
v 14.5 2.0 0.095762014
v 14.5 5.0 0.095762014
v 14.5 5.0 5.026426
v 14.5 2.0 5.026426
v 13.0 3.5 0.095762014
v 16.0 3.5 0.095762014
v 16.0 3.5 5.026426
v 13.0 3.5 5.026426
v 13.0 2.0 4.159656
v 16.0 2.0 4.159656
v 16.0 5.0 4.159656
v 13.0 5.0 4.159656
v 13.0 2.0 0.123594046
v 16.0 2.0 0.123594046
v 16.0 5.0 0.123594046
v 13.0 5.0 0.123594046
v 13.0 2.0 1.88557
v 16.0 2.0 1.88557
v 16.0 5.0 1.88557
v 13.0 5.0 1.88557
v 14.5 5.0 0.095762014
v 14.5 8.0 0.095762014
v 14.5 8.0 5.026426
v 14.5 5.0 5.026426
v 13.0 6.5 0.095762014
v 16.0 6.5 0.095762014
v 16.0 6.5 5.026426
v 13.0 6.5 5.026426
v 13.0 5.0 4.159656
v 16.0 5.0 4.159656
v 16.0 8.0 4.159656
v 13.0 8.0 4.159656
v 13.0 5.0 0.123594046
v 16.0 5.0 0.123594046
v 16.0 8.0 0.123594046
v 13.0 8.0 0.123594046
v 13.0 5.0 1.88557
v 16.0 5.0 1.88557
v 16.0 8.0 1.88557
v 13.0 8.0 1.88557
v 16.5 -12.0 0.095762014
v 16.5 -9.0 0.095762014
v 16.5 -9.0 5.026426
v 16.5 -12.0 5.026426
v 15.0 -10.5 0.095762014
v 18.0 -10.5 0.095762014
v 18.0 -10.5 5.026426
v 15.0 -10.5 5.026426
v 15.0 -12.0 4.159656
v 18.0 -12.0 4.159656
v 18.0 -9.0 4.159656
v 15.0 -9.0 4.159656
v 15.0 -12.0 0.123594046
v 18.0 -12.0 0.123594046
v 18.0 -9.0 0.123594046
v 15.0 -9.0 0.123594046
v 15.0 -12.0 1.88557
v 18.0 -12.0 1.88557
v 18.0 -9.0 1.88557
v 15.0 -9.0 1.88557
v 16.5 -8.0 0.095762014
v 16.5 -5.0 0.095762014
v 16.5 -5.0 5.026426
v 16.5 -8.0 5.026426
v 15.0 -6.5 0.095762014
v 18.0 -6.5 0.095762014
v 18.0 -6.5 5.026426
v 15.0 -6.5 5.026426
v 15.0 -8.0 4.159656
v 18.0 -8.0 4.159656
v 18.0 -5.0 4.159656
v 15.0 -5.0 4.159656
v 15.0 -8.0 0.123594046
v 18.0 -8.0 0.123594046
v 18.0 -5.0 0.123594046
v 15.0 -5.0 0.123594046
v 15.0 -8.0 1.88557
v 18.0 -8.0 1.88557
v 18.0 -5.0 1.88557
v 15.0 -5.0 1.88557
v 16.5 -4.0 0.095762014
v 16.5 -1.0 0.095762014
v 16.5 -1.0 5.026426
v 16.5 -4.0 5.026426
v 15.0 -2.5 0.095762014
v 18.0 -2.5 0.095762014
v 18.0 -2.5 5.026426
v 15.0 -2.5 5.026426
v 15.0 -4.0 4.159656
v 18.0 -4.0 4.159656
v 18.0 -1.0 4.159656
v 15.0 -1.0 4.159656
v 15.0 -4.0 0.123594046
v 18.0 -4.0 0.123594046
v 18.0 -1.0 0.123594046
v 15.0 -1.0 0.123594046
v 15.0 -4.0 1.88557
v 18.0 -4.0 1.88557
v 18.0 -1.0 1.88557
v 15.0 -1.0 1.88557
vt 2.0 2.0
vt 0.0 2.0
vt 0.0 0.0
vt 2.0 0.0
vt 2.0 4.0
vt 0.0 4.0
vt 0.0 2.0
vt 2.0 2.0
vt 2.0 6.0
vt 0.0 6.0
vt 0.0 4.0
vt 2.0 4.0
vt 2.0 8.0
vt 0.0 8.0
vt 0.0 6.0
vt 2.0 6.0
vt 4.0 2.0
vt 2.0 2.0
vt 2.0 0.0
vt 4.0 0.0
vt 4.0 4.0
vt 2.0 4.0
vt 2.0 2.0
vt 4.0 2.0
vt 4.0 6.0
vt 2.0 6.0
vt 2.0 4.0
vt 4.0 4.0
vt 4.0 8.0
vt 2.0 8.0
vt 2.0 6.0
vt 4.0 6.0
vt 6.0 2.0
vt 4.0 2.0
vt 4.0 0.0
vt 6.0 0.0
vt 6.0 4.0
vt 4.0 4.0
vt 4.0 2.0
vt 6.0 2.0
vt 6.0 6.0
vt 4.0 6.0
vt 4.0 4.0
vt 6.0 4.0
vt 6.0 8.0
vt 4.0 8.0
vt 4.0 6.0
vt 6.0 6.0
vt 8.0 2.0
vt 6.0 2.0
vt 6.0 0.0
vt 8.0 0.0
vt 8.0 4.0
vt 6.0 4.0
vt 6.0 2.0
vt 8.0 2.0
vt 8.0 6.0
vt 6.0 6.0
vt 6.0 4.0
vt 8.0 4.0
vt 8.0 8.0
vt 6.0 8.0
vt 6.0 6.0
vt 8.0 6.0
vt 0.0 0.0
vt 1.0 0.0
vt 1.0 1.0
vt 0.0 1.0
vt 0.0 0.0
vt 1.0 0.0
vt 1.0 1.0
vt 0.0 1.0
vt 0.0 0.0
vt 1.0 0.0
vt 1.0 1.0
vt 0.0 1.0
vt 0.0 0.0
vt 1.0 0.0
vt 1.0 1.0
vt 0.0 1.0
vt 0.0 0.0
vt 1.0 0.0
vt 1.0 1.0
vt 0.0 1.0
vt 0.0 0.0
vt 1.0 0.0
vt 1.0 1.0
vt 0.0 1.0
vt 0.0 0.0
vt 1.0 0.0
vt 1.0 1.0
vt 0.0 1.0
vt 0.0 0.0
vt 1.0 0.0
vt 1.0 1.0
vt 0.0 1.0
vt 0.0 0.0
vt 1.0 0.0
vt 1.0 1.0
vt 0.0 1.0
vt 0.0 0.0
vt 1.0 0.0
vt 1.0 1.0
vt 0.0 1.0
vt 0.0 0.0
vt 1.0 0.0
vt 1.0 1.0
vt 0.0 1.0
vn 0.0 0.0 1.0
vn 0.0 0.0 1.0
vn 0.0 0.0 1.0
vn 0.0 0.0 1.0
vn 0.0 0.0 1.0
vn 0.0 0.0 1.0
vn 0.0 0.0 1.0
vn 0.0 0.0 1.0
vn 0.0 0.0 1.0
vn 0.0 0.0 1.0
vn 0.0 0.0 1.0
vn 0.0 0.0 1.0
vn 0.0 0.0 1.0
vn 0.0 0.0 1.0
vn 0.0 0.0 1.0
vn 0.0 0.0 1.0
vn 1.0 -0.0 0.0
vn 0.0 -0.0 1.0
vn 0.0 0.027122 0.999632
vn 0.0 -0.008758 0.999962
vn 1.0 -0.0 0.0
vn 0.0 -0.0 1.0
vn 0.0 0.027122 0.999632
vn 0.0 -0.008758 0.999962
vn 1.0 -0.0 0.0
vn 0.0 -0.0 1.0
vn 0.0 0.027122 0.999632
vn 0.0 -0.008758 0.999962
vn 1.0 -0.0 0.0
vn 0.0 -0.0 1.0
vn 0.0 0.027122 0.999632
vn 0.0 -0.008758 0.999962
vn 1.0 -0.0 0.0
vn 0.0 -0.0 1.0
vn 0.0 0.027122 0.999632
vn 0.0 -0.008758 0.999962
vn 1.0 -0.0 0.0
vn 0.0 -0.0 1.0
vn 0.0 0.027122 0.999632
vn 0.0 -0.008758 0.999962
vn 1.0 -0.0 0.0
vn 0.0 -0.0 1.0
vn 0.0 0.027122 0.999632
vn 0.0 -0.008758 0.999962
vn 1.0 -0.0 0.0
vn 0.0 -0.0 1.0
vn 0.0 0.027122 0.999632
vn 0.0 -0.008758 0.999962
vn 1.0 -0.0 0.0
vn 0.0 -0.0 1.0
vn 0.0 0.027122 0.999632
vn 0.0 -0.008758 0.999962
vn 1.0 -0.0 0.0
vn 0.0 -0.0 1.0
vn 0.0 0.027122 0.999632
vn 0.0 -0.008758 0.999962
vn 1.0 -0.0 0.0
vn 0.0 -0.0 1.0
vn 0.0 0.027122 0.999632
vn 0.0 -0.008758 0.999962
c 1.0 1.0 1.0
c 1.0 1.0 1.0
c 1.0 1.0 1.0
c 1.0 1.0 1.0
c 1.0 1.0 1.0
c 1.0 1.0 1.0
c 1.0 1.0 1.0
c 1.0 1.0 1.0
c 1.0 1.0 1.0
c 1.0 1.0 1.0
c 1.0 1.0 1.0
c 1.0 1.0 1.0
c 1.0 1.0 1.0
c 1.0 1.0 1.0
c 1.0 1.0 1.0
c 1.0 1.0 1.0
c 1.0 1.0 1.0
c 1.0 1.0 1.0
c 1.0 1.0 1.0
c 1.0 1.0 1.0
c 1.0 1.0 1.0
c 1.0 1.0 1.0
c 1.0 1.0 1.0
c 1.0 1.0 1.0
c 1.0 1.0 1.0
c 1.0 1.0 1.0
c 1.0 1.0 1.0
usemtl ki02ax
s off
f 65/65/17/17 66/66/17/17 67/67/17/17 68/68/17/17
f 69/65/19/17 70/66/19/17 71/67/20/17 72/68/20/17
f 85/69/21/18 86/70/21/18 87/71/21/18 88/72/21/18
f 89/69/23/18 90/70/23/18 91/71/24/18 92/72/24/18
f 105/73/25/19 106/74/25/19 107/75/25/19 108/76/25/19
f 109/73/27/19 110/74/27/19 111/75/28/19 112/76/28/19
f 125/77/29/20 126/78/29/20 127/79/29/20 128/80/29/20
f 129/77/31/20 130/78/31/20 131/79/32/20 132/80/32/20
f 145/81/33/21 146/82/33/21 147/83/33/21 148/84/33/21
f 149/81/35/21 150/82/35/21 151/83/36/21 152/84/36/21
f 165/85/37/22 166/86/37/22 167/87/37/22 168/88/37/22
f 169/85/39/22 170/86/39/22 171/87/40/22 172/88/40/22
f 185/89/41/23 186/90/41/23 187/91/41/23 188/92/41/23
f 189/89/43/23 190/90/43/23 191/91/44/23 192/92/44/23
f 205/93/45/24 206/94/45/24 207/95/45/24 208/96/45/24
f 209/93/47/24 210/94/47/24 211/95/48/24 212/96/48/24
f 225/97/49/25 226/98/49/25 227/99/49/25 228/100/49/25
f 229/97/51/25 230/98/51/25 231/99/52/25 232/100/52/25
f 245/101/53/26 246/102/53/26 247/103/53/26 248/104/53/26
f 249/101/55/26 250/102/55/26 251/103/56/26 252/104/56/26
f 265/105/57/27 266/106/57/27 267/107/57/27 268/108/57/27
f 269/105/59/27 270/106/59/27 271/107/60/27 272/108/60/27
usemtl ki02c
s off
f 77/65/18/17 78/66/18/17 79/67/18/17 80/68/18/17
f 97/69/22/18 98/70/22/18 99/71/22/18 100/72/22/18
f 117/73/26/19 118/74/26/19 119/75/26/19 120/76/26/19
f 137/77/30/20 138/78/30/20 139/79/30/20 140/80/30/20
f 157/81/34/21 158/82/34/21 159/83/34/21 160/84/34/21
f 177/85/38/22 178/86/38/22 179/87/38/22 180/88/38/22
f 197/89/42/23 198/90/42/23 199/91/42/23 200/92/42/23
f 217/93/46/24 218/94/46/24 219/95/46/24 220/96/46/24
f 237/97/50/25 238/98/50/25 239/99/50/25 240/100/50/25
f 257/101/54/26 258/102/54/26 259/103/54/26 260/104/54/26
f 277/105/58/27 278/106/58/27 279/107/58/27 280/108/58/27
usemtl ki02dx
s off
f 73/65/18/17 74/66/18/17 75/67/18/17 76/68/18/17
f 93/69/22/18 94/70/22/18 95/71/22/18 96/72/22/18
f 113/73/26/19 114/74/26/19 115/75/26/19 116/76/26/19
f 133/77/30/20 134/78/30/20 135/79/30/20 136/80/30/20
f 153/81/34/21 154/82/34/21 155/83/34/21 156/84/34/21
f 173/85/38/22 174/86/38/22 175/87/38/22 176/88/38/22
f 193/89/42/23 194/90/42/23 195/91/42/23 196/92/42/23
f 213/93/46/24 214/94/46/24 215/95/46/24 216/96/46/24
f 233/97/50/25 234/98/50/25 235/99/50/25 236/100/50/25
f 253/101/54/26 254/102/54/26 255/103/54/26 256/104/54/26
f 273/105/58/27 274/106/58/27 275/107/58/27 276/108/58/27
usemtl ki02bx
s off
f 81/65/18/17 82/66/18/17 83/67/18/17 84/68/18/17
f 101/69/22/18 102/70/22/18 103/71/22/18 104/72/22/18
f 121/73/26/19 122/74/26/19 123/75/26/19 124/76/26/19
f 141/77/30/20 142/78/30/20 143/79/30/20 144/80/30/20
f 161/81/34/21 162/82/34/21 163/83/34/21 164/84/34/21
f 181/85/38/22 182/86/38/22 183/87/38/22 184/88/38/22
f 201/89/42/23 202/90/42/23 203/91/42/23 204/92/42/23
f 221/93/46/24 222/94/46/24 223/95/46/24 224/96/46/24
f 241/97/50/25 242/98/50/25 243/99/50/25 244/100/50/25
f 261/101/54/26 262/102/54/26 263/103/54/26 264/104/54/26
f 281/105/58/27 282/106/58/27 283/107/58/27 284/108/58/27
usemtl grass01ax
s off
f 1/1/1/1 2/2/1/1 3/3/1/1 4/4/1/1
f 5/5/2/2 6/6/2/2 7/7/2/2 8/8/2/2
f 9/9/3/3 10/10/3/3 11/11/3/3 12/12/3/3
f 13/13/4/4 14/14/4/4 15/15/4/4 16/16/4/4
f 17/17/5/5 18/18/5/5 19/19/5/5 20/20/5/5
f 21/21/6/6 22/22/6/6 23/23/6/6 24/24/6/6
f 25/25/7/7 26/26/7/7 27/27/7/7 28/28/7/7
f 29/29/8/8 30/30/8/8 31/31/8/8 32/32/8/8
f 33/33/9/9 34/34/9/9 35/35/9/9 36/36/9/9
f 37/37/10/10 38/38/10/10 39/39/10/10 40/40/10/10
f 41/41/11/11 42/42/11/11 43/43/11/11 44/44/11/11
f 45/45/12/12 46/46/12/12 47/47/12/12 48/48/12/12
f 49/49/13/13 50/50/13/13 51/51/13/13 52/52/13/13
f 53/53/14/14 54/54/14/14 55/55/14/14 56/56/14/14
f 57/57/15/15 58/58/15/15 59/59/15/15 60/60/15/15
f 61/61/16/16 62/62/16/16 63/63/16/16 64/64/16/16
