mtllib Asteria_15_12.mtl
o map
v -8.0 -8.0 9.000001
v -16.0 -8.0 9.000001
v -16.0 -16.0 9.000001
v -8.0 -16.0 9.000001
v -8.0 0.0 9.000001
v -16.0 0.0 9.000001
v -16.0 -8.0 9.000001
v -8.0 -8.0 9.000001
v -8.0 8.0 9.000001
v -16.0 8.0 9.000001
v -16.0 0.0 9.000001
v -8.0 0.0 9.000001
v -8.0 16.0 9.000001
v -16.0 16.0 9.000001
v -16.0 8.0 9.000001
v -8.0 8.0 9.000001
v 0.0 -8.0 9.000001
v -8.0 -8.0 9.000001
v -8.0 -16.0 9.000001
v 0.0 -16.0 9.000001
v 0.0 0.0 9.000001
v -8.0 0.0 9.000001
v -8.0 -8.0 9.000001
v 0.0 -8.0 9.000001
v 0.0 8.0 9.000001
v -8.0 8.0 9.000001
v -8.0 0.0 9.000001
v 0.0 0.0 9.000001
v 0.0 16.0 9.000001
v -8.0 16.0 9.000001
v -8.0 8.0 9.000001
v 0.0 8.0 9.000001
v 8.0 -8.0 9.000001
v 0.0 -8.0 9.000001
v 0.0 -16.0 9.000001
v 8.0 -16.0 9.000001
v 8.0 0.0 9.000001
v 0.0 0.0 9.000001
v 0.0 -8.0 9.000001
v 8.0 -8.0 9.000001
v 8.0 8.0 9.000001
v 0.0 8.0 9.000001
v 0.0 0.0 9.000001
v 8.0 0.0 9.000001
v 8.0 16.0 9.000001
v 0.0 16.0 9.000001
v 0.0 8.0 9.000001
v 8.0 8.0 9.000001
v 9.0 -8.0 4.000001
v 8.0 -8.0 4.000001
v 9.0 -16.0 4.000001
v 8.0 -16.0 4.000001
v 16.0 -7.0 4.000001
v 8.0 -7.0 4.000001
v 16.0 -8.0 4.000001
v 8.0 -8.0 4.000001
v 16.0 1.0 9.000001
v 8.0 1.0 9.000001
v 8.0 -7.0 9.000001
v 16.0 -7.0 9.000001
v 16.0 9.0 9.000001
v 8.0 9.0 9.000001
v 8.0 1.0 9.000001
v 16.0 1.0 9.000001
v 16.0 16.0 9.000001
v 8.0 16.0 9.000001
v 8.0 9.0 9.000001
v 16.0 9.0 9.000001
v 10.0 -8.0 3.000001
v 9.0 -8.0 3.000001
v 10.0 -16.0 3.000001
v 9.0 -16.0 3.000001
v 11.0 -9.0 2.000001
v 10.0 -9.0 2.000001
v 11.0 -16.0 2.000001
v 10.0 -16.0 2.000001
v 16.0 -8.0 3.000001
v 10.0 -8.0 3.000001
v 16.0 -9.0 3.000001
v 10.0 -9.0 3.000001
v 12.0 -10.0 1.000001
v 11.0 -10.0 1.000001
v 12.0 -16.0 1.000001
v 11.0 -16.0 1.000001
v 16.0 -9.0 2.000001
v 11.0 -9.0 2.000001
v 16.0 -10.0 2.000001
v 11.0 -10.0 2.000001
v 16.0 -11.0 1.0E-6
v 12.0 -11.0 1.0E-6
v 16.0 -16.0 1.0E-6
v 12.0 -16.0 1.0E-6
v 16.0 -10.0 1.000001
v 12.0 -10.0 1.000001
v 16.0 -11.0 1.000001
v 12.0 -11.0 1.000001
v 8.5 -16.0 4.75
v 9.0 -16.0 4.0
v 9.0 -8.0 4.0
v 8.500001 -8.0 4.75
v 8.500001 -8.0 8.75
v 8.5 -16.0 8.75
v 8.0 -16.0 9.0
v 8.0 -8.0 9.0
v 8.0 -7.5 4.75
v 8.0 -8.0 4.0
v 9.0 -8.0 4.0
v 9.0 -7.5 4.75
v 8.5 -8.0 4.75
v 9.0 -7.0 4.0
v 8.500001 -7.0 4.75
v 9.0 -7.5 8.75
v 8.0 -7.5 8.75
v 8.500001 -7.0 8.75
v 8.5 -8.0 8.75
v 8.0 -7.0 9.0
v 9.0 -7.0 9.0
v 8.0 -8.0 9.0
v 9.5 -16.0 3.75
v 10.0 -16.0 3.0
v 10.0 -9.0 3.0
v 9.500001 -9.0 3.75
v 9.0 -16.0 4.0
v 9.0 -9.0 4.0
v 8.998047 -8.501563 3.75
v 8.998047 -9.001563 3.0
v 9.998047 -9.001563 3.0
v 9.998047 -8.501563 3.75
v 9.498047 -9.001563 3.75
v 9.998047 -8.001563 3.0
v 9.498048 -8.001563 3.75
v 8.998047 -8.001563 4.0
v 9.998047 -8.001563 4.0
v 8.998047 -9.001563 4.0
v 9.0 -7.5 4.75
v 9.0 -8.0 4.0
v 16.0 -8.0 4.0
v 16.0 -7.500001 4.75
v 16.0 -7.500001 8.75
v 9.0 -7.5 8.75
v 9.0 -7.0 9.0
v 16.0 -7.0 9.0
v 10.5 -16.0 2.75
v 11.0 -16.0 2.0
v 11.0 -10.0 2.0
v 10.500001 -10.0 2.75
v 10.0 -16.0 3.0
v 10.0 -10.0 3.0
v 9.998047 -9.501563 2.75
v 9.998047 -10.001563 2.0
v 10.998047 -10.001563 2.0
v 10.998047 -9.501563 2.75
v 10.498047 -10.001563 2.75
v 10.998047 -9.001563 2.0
v 10.498048 -9.001563 2.75
v 9.998047 -9.001563 3.0
v 10.998047 -9.001563 3.0
v 9.998047 -10.001563 3.0
v 10.0 -8.5 3.75
v 10.0 -9.0 3.0
v 16.0 -9.0 3.0
v 16.0 -8.500001 3.75
v 10.0 -8.0 4.0
v 16.0 -8.0 4.0
v 12.0 -16.0 1.0
v 11.0 -16.0 2.0
v 11.0 -11.0 2.0
v 12.0 -11.0 1.0
v 12.0 -11.0 1.0
v 12.0 -11.0 1.0
v 11.0 -10.0 2.0
v 11.0 -11.0 2.0
v 12.0 -11.0 1.0
v 12.0 -10.0 2.0
v 11.0 -10.0 2.0
v 11.0 -9.5 2.75
v 11.0 -10.0 2.0
v 16.0 -10.0 2.0
v 16.0 -9.500001 2.75
v 11.0 -9.0 3.0
v 16.0 -9.0 3.0
v 13.0 -16.0 0.0
v 12.0 -16.0 1.0
v 12.0 -12.0 1.0
v 13.0 -12.0 0.0
v 13.0 -12.0 0.0
v 13.0 -12.0 0.0
v 12.0 -11.0 1.0
v 12.0 -12.0 1.0
v 13.0 -12.0 0.0
v 13.0 -11.0 1.0
v 12.0 -11.0 1.0
v 12.0 -11.0 1.0
v 12.0 -10.0 2.0
v 16.0 -10.0 2.0
v 16.0 -11.0 1.0
v 13.0 -14.0 0.069999
v 13.0 -16.0 0.069999
v 14.0 -16.0 0.069999
v 14.0 -14.0 0.069999
v 14.0 -13.0 0.069999
v 13.0 -13.0 0.07
v 14.0 -14.0 0.069999
v 13.0 -14.0 0.07
v 13.0 -12.32 0.09
v 13.0 -12.68 0.09
v 16.0 -12.68 0.09
v 16.0 -12.32 0.09
v 16.0 -12.5 1.249999
v 13.0 -12.5 0.12499899
v 13.0 -12.5 1.249999
v 16.0 -12.5 0.12499899
v 13.0 -12.1875 0.906249
v 13.0 -12.8125 0.906249
v 16.0 -12.8125 0.906249
v 16.0 -12.1875 0.906249
v 13.0 -12.0 0.0
v 13.0 -11.0 1.0
v 16.0 -11.0 1.0
v 16.0 -12.0 0.0
v 13.994985 -16.01003 0.070001
v 15.008017 -16.01003 0.070001
v 15.008017 -13.983966 0.070001
v 13.994985 -13.983966 0.070001
v 16.0 -13.0 0.069999
v 14.0 -13.0 0.069999
v 14.0 -14.0 0.069999
v 16.0 -14.0 0.069999
v 16.0 -15.0 0.069999
v 15.0 -16.0 0.069999
v 16.0 -16.0 0.069999
v 15.0 -15.0 0.069999
v 14.994985 -15.005015 0.070001
v 16.008017 -15.005015 0.070001
v 16.008017 -13.991983 0.070001
v 14.994985 -13.991983 0.070001
v 12.0 -12.32 0.09
v 12.0 -12.68 0.09
v 13.0 -12.68 0.09
v 13.0 -12.32 0.09
v 13.0 -12.5 1.249999
v 12.0 -12.5 0.12499899
v 12.0 -12.5 1.249999
v 13.0 -12.5 0.12499899
v 12.0 -12.1875 0.906249
v 12.0 -12.8125 0.906249
v 13.0 -12.8125 0.906249
v 13.0 -12.1875 0.906249
vt 0.0 0.0
vt 8.0 0.0
vt 8.0 8.0
vt 0.0 8.0
vt 0.0 0.0
vt 8.0 0.0
vt 8.0 8.0
vt 0.0 8.0
vt 0.0 0.0
vt 8.0 0.0
vt 8.0 8.0
vt 0.0 8.0
vt 0.0 0.0
vt 8.0 0.0
vt 8.0 8.0
vt 0.0 8.0
vt 0.0 0.0
vt 8.0 0.0
vt 8.0 8.0
vt 0.0 8.0
vt 0.0 0.0
vt 8.0 0.0
vt 8.0 8.0
vt 0.0 8.0
vt 0.0 0.0
vt 8.0 0.0
vt 8.0 8.0
vt 0.0 8.0
vt 0.0 0.0
vt 8.0 0.0
vt 8.0 8.0
vt 0.0 8.0
vt 0.0 0.0
vt 8.0 0.0
vt 8.0 8.0
vt 0.0 8.0
vt 0.0 0.0
vt 8.0 0.0
vt 8.0 8.0
vt 0.0 8.0
vt 0.0 0.0
vt 8.0 0.0
vt 8.0 8.0
vt 0.0 8.0
vt 0.0 0.0
vt 8.0 0.0
vt 8.0 8.0
vt 0.0 8.0
vt 24.0 8.0
vt 24.0 0.0
vt 25.0 0.0
vt 25.0 8.0
vt 24.0 9.0
vt 24.0 8.0
vt 32.0 8.0
vt 32.0 9.0
vt 0.0 0.0
vt 8.0 0.0
vt 8.0 8.0
vt 0.0 8.0
vt 0.0 0.0
vt 8.0 0.0
vt 8.0 8.0
vt 0.0 8.0
vt 0.0 0.0
vt 8.0 0.0
vt 8.0 7.0
vt 0.0 7.0
vt 26.0 0.0
vt 26.0 8.0
vt 25.0 8.0
vt 25.0 0.0
vt 26.0 7.0
vt 26.0 0.0
vt 27.0 0.0
vt 27.0 7.0
vt 26.0 8.0
vt 26.0 7.0
vt 32.0 7.0
vt 32.0 8.0
vt 28.0 0.0
vt 28.0 6.0
vt 27.0 6.0
vt 27.0 0.0
vt 32.0 6.0
vt 32.0 7.0
vt 27.0 7.0
vt 27.0 6.0
vt 28.0 5.0
vt 28.0 0.0
vt 32.0 0.0
vt 32.0 5.0
vt 28.0 6.0
vt 28.0 5.0
vt 32.0 5.0
vt 32.0 6.0
vt 0.0 0.0
vt 0.0 -1.0
vt 8.0 -1.0
vt 8.0 0.0
vt 4.24E-4 2.2E-5
vt 4.32E-4 -0.999978
vt 8.000424 -0.999978
vt 8.000024 -1.42E-4
vt 0.0 0.001992
vt 8.0 0.001992
vt 8.0 0.998008
vt 0.0 0.998008
vt 0.0 0.0
vt 0.0 -1.0
vt 1.0 -1.0
vt 1.0 0.0
vt 0.0 0.0
vt 0.0 -1.0
vt 1.0 -1.0
vt 1.0 0.0
vt 5.3E-5 2.2E-5
vt 5.4E-5 -0.999978
vt 1.000053 -0.999978
vt 1.000003 -1.42E-4
vt 5.3E-5 2.2E-5
vt 5.4E-5 -0.999978
vt 1.000053 -0.999978
vt 1.000003 -1.42E-4
vt 0.001343 0.001992
vt 1.00034 0.001992
vt 1.00034 0.998008
vt 0.001343 0.998008
vt -0.0 0.001992
vt 1.0 0.001992
vt 1.0 0.998008
vt -0.0 0.998008
vt 0.0 0.0
vt 0.0 -1.0
vt 7.0 -1.0
vt 7.0 0.0
vt 0.0 -6.0E-5
vt 0.0 -1.0
vt 7.0003715 -1.0
vt 7.000021 -6.0E-5
vt 0.0 0.0
vt 0.0 -1.0
vt 1.0 -1.0
vt 1.0 0.0
vt 0.0 0.0
vt 0.0 -1.0
vt 1.0 -1.0
vt 1.0 0.0
vt 5.3E-5 0.0
vt 5.4E-5 -0.999978
vt 1.000053 -0.999978
vt 1.000003 0.0
vt 5.3E-5 0.0
vt 5.4E-5 -0.999978
vt 1.000053 -0.999978
vt 1.000003 0.0
vt 0.0 0.0
vt 0.0 -1.0
vt 7.0 -1.0
vt 7.0 0.0
vt 3.71E-4 2.2E-5
vt 3.78E-4 -0.999978
vt 7.0003715 -0.999978
vt 7.000021 -1.42E-4
vt 0.0 0.001992
vt 7.0 0.001992
vt 7.0 0.998008
vt 0.0 0.998008
vt 0.0 0.0
vt 0.0 -1.0
vt 6.0 -1.0
vt 6.0 0.0
vt 0.0 -6.0E-5
vt 0.0 -1.0
vt 6.0003185 -1.0
vt 6.000018 -6.0E-5
vt 0.0 0.0
vt 0.0 -1.0
vt 1.0 -1.0
vt 1.0 0.0
vt 0.0 0.0
vt 0.0 -1.0
vt 1.0 -1.0
vt 1.0 0.0
vt 5.3E-5 0.0
vt 5.4E-5 -0.999978
vt 1.000053 -0.999978
vt 1.000003 0.0
vt 5.3E-5 0.0
vt 5.4E-5 -0.999978
vt 1.000053 -0.999978
vt 1.000003 0.0
vt 0.0 0.0
vt 0.0 -1.0
vt 6.0 -1.0
vt 6.0 0.0
vt 0.0 -6.0E-5
vt 0.0 -1.0
vt 6.0003185 -1.0
vt 6.000018 -6.0E-5
vt -25.0 -1.0
vt -20.0 -1.0
vt -20.0 0.0
vt -25.0 0.0
vt -1.010712 -1.0
vt -1.0 -1.0
vt 0.0 0.0
vt -1.000024 0.0
vt -4.007676 -0.992324
vt -4.0 0.0
vt -5.0 0.0
vt 0.0 0.0
vt 0.0 -1.0
vt 5.0 -1.0
vt 5.0 0.0
vt 0.0 -6.0E-5
vt 0.0 -1.0
vt 5.000265 -1.0
vt 5.000015 -6.0E-5
vt -20.0 -1.0
vt -16.0 -1.0
vt -16.0 0.0
vt -20.0 0.0
vt -1.010712 -1.0
vt -1.0 -1.0
vt 0.0 0.0
vt -1.000024 0.0
vt -4.007676 -0.992324
vt -4.0 0.0
vt -5.0 0.0
vt -20.0 -1.0
vt -16.0 -1.0
vt -16.0 0.0
vt -20.0 0.0
vt 2.0 -0.05625
vt 0.0 -0.05625
vt 0.0 -0.94375
vt 2.0 -0.94375
vt 1.0 -0.05625
vt 0.0 -0.05625
vt 0.75 -0.94375
vt 1.0 -0.05625
vt 1.0 -0.94375
vt 0.9375 -0.890625
vt 0.070312 -0.890625
vt 0.070312 -2.765625
vt 0.9375 -2.765625
vt 0.5 -9.0
vt 0.5 -3.0
vt 0.0 -3.0
vt 0.0 -9.0
vt 0.75 -9.0
vt 1.0 -9.0
vt 1.0 -3.0
vt 0.75 -3.0
vt -15.0 -1.0
vt -12.0 -1.0
vt -12.0 0.0
vt -15.0 0.0
vt 31.008017 2.016034
vt 29.994986 2.016034
vt 29.994986 -0.01003
vt 31.008017 -0.01003
vt 2.0 -0.05625
vt 0.0 -0.05625
vt 0.0 -0.94375
vt 2.0 -0.94375
vt 1.0E-4 1.0E-4
vt 0.9999 0.9999
vt 1.0E-4 0.9999
vt 0.0 -0.94375
vt 1.0 -0.94375
vt 0.5 -0.05625
vt 30.994986 2.008017
vt 32.00802 2.008017
vt 30.994986 0.994985
vt 32.00802 0.994985
vt 0.9375 -0.296875
vt 0.070312 -0.296875
vt 0.070312 -0.921875
vt 0.9375 -0.921875
vt 0.5 -3.0
vt 0.5 -1.0
vt 0.0 -1.0
vt 0.0 -3.0
vt 0.75 -3.0
vt 1.0 -3.0
vt 1.0 -1.0
vt 0.75 -1.0
vn 0.0 -0.0 1.0
vn 0.0 -0.0 1.0
vn 0.0 -0.0 1.0
vn 0.0 -0.0 1.0
vn 0.0 -0.0 1.0
vn 0.0 -0.0 1.0
vn 0.0 -0.0 1.0
vn 0.0 -0.0 1.0
vn 0.0 -0.0 1.0
vn 0.0 -0.0 1.0
vn 0.0 -0.0 1.0
vn 0.0 -0.0 1.0
vn 0.0 -0.0 1.0
vn 0.0 -0.0 1.0
vn 0.0 -0.0 1.0
vn 0.0 -0.0 1.0
vn 0.0 -0.0 1.0
vn 0.0 -0.0 1.0
vn 0.0 -0.0 1.0
vn 0.0 -0.0 1.0
vn 0.0 -0.0 1.0
vn 0.0 -0.0 1.0
vn 0.0 -0.0 1.0
vn 0.0 -0.0 1.0
vn 0.9945 -0.0 0.1047
vn 0.8321 -0.0 0.5547
vn -0.0314 0.0237 0.9992
vn 0.9932 -0.0 0.1168
vn 0.0 -0.9571 0.2898
vn 0.0 -0.8321 0.5547
vn 0.5145 -0.5145 0.686
vn 0.9571 -0.0 0.2898
vn 0.8321 -0.0 0.5547
vn 0.2357 -0.2357 0.9428
vn 0.0 -0.8507 0.5257
vn 0.0 -0.4472 0.8944
vn 0.4472 -0.0 0.8944
vn 0.8507 -0.0 0.5257
vn 0.7071 -0.0 0.7071
vn 0.8321 -0.0 0.5547
vn 0.0434 0.0 0.9991
vn -0.0 0.0189 0.9998
vn -0.0 0.0188 0.9998
vn 0.0 -0.8321 0.5547
vn 0.0 -0.7071 0.7071
vn 0.7071 -0.0 0.7071
vn -0.0188 -0.1841 0.9827
vn -0.0187 -0.1841 0.9827
vn -0.0 -0.9945 0.1047
vn -0.0 -0.8321 0.5547
vn 0.0237 0.0314 0.9992
vn -0.0 -0.9932 0.1168
vn 0.7071 -0.0 0.7071
vn 0.8321 -0.0 0.5547
vn 0.0434 0.0 0.9991
vn -0.0 0.0189 0.9998
vn -0.0 0.0188 0.9998
vn 0.0 -0.8321 0.5547
vn 0.0 -0.7071 0.7071
vn 0.7071 -0.0 0.7071
vn -0.0188 -0.1841 0.9827
vn -0.0187 -0.1841 0.9827
vn -0.0 -0.7071 0.7071
vn -0.0 -0.8321 0.5547
vn 0.0 -0.0434 0.9991
vn 0.4435 -0.129 0.887
vn 0.7564 -0.3136 0.574
vn 0.3828 -0.0 0.9238
vn 0.293 -0.293 0.9101
vn 0.7071 -0.0 0.7071
vn 0.2273 -0.111 0.9675
vn 0.1797 -0.1798 0.9672
vn 0.7562 -0.5249 0.3906
vn -0.5426 -0.7282 0.4187
vn -0.2585 -0.2023 0.9446
vn 0.1798 -0.1797 0.9672
vn -0.0 -0.7071 0.7071
vn -0.0 -0.8321 0.5547
vn 0.0 -0.0434 0.9991
vn 0.4435 -0.129 0.887
vn 0.7564 -0.3136 0.574
vn 0.3828 -0.0 0.9238
vn 0.293 -0.293 0.9101
vn 0.7071 -0.0 0.7071
vn 0.2273 -0.111 0.9675
vn 0.1797 -0.1798 0.9672
vn 0.7562 -0.5249 0.3906
vn -0.5426 -0.7282 0.4187
vn -0.2585 -0.2023 0.9446
vn 0.1798 -0.1797 0.9672
vn -0.129 -0.4435 0.887
vn -0.3136 -0.7564 0.574
vn -0.0 -0.3828 0.9238
vn -0.293 -0.293 0.9101
vn -0.0 -0.0 1.0
vn 0.0 0.0 1.0
vn -0.0 0.0 1.0
vn -1.0 0.0 0.0
vn -0.129 -0.4435 0.887
vn -0.3136 -0.7564 0.574
vn -0.0 -0.3828 0.9238
vn -0.293 -0.293 0.9101
vn 0.0 0.0 1.0
vn -0.0 0.0 1.0
vn 0.0 0.0 1.0
vn 0.0 0.0 1.0
vn -0.0 0.0 1.0
vn -1.0 0.0 0.0
c 1.0 1.0 1.0
c 1.0 1.0 1.0
c 1.0 1.0 1.0
c 1.0 1.0 1.0
c 1.0 1.0 1.0
c 1.0 1.0 1.0
c 1.0 1.0 1.0
c 1.0 1.0 1.0
c 1.0 1.0 1.0
c 1.0 1.0 1.0
c 1.0 1.0 1.0
c 1.0 1.0 1.0
c 1.0 1.0 1.0
c 1.0 1.0 1.0
c 1.0 1.0 1.0
c 1.0 1.0 1.0
c 1.0 1.0 1.0
c 1.0 1.0 1.0
c 1.0 1.0 1.0
c 1.0 1.0 1.0
c 1.0 1.0 1.0
c 1.0 1.0 1.0
c 1.0 1.0 1.0
c 1.0 1.0 1.0
c 1.0 1.0 1.0
c 1.0 1.0 1.0
c 1.0 1.0 1.0
c 1.0 1.0 1.0
c 1.0 1.0 1.0
c 1.0 1.0 1.0
c 1.0 1.0 1.0
c 1.0 1.0 1.0
c 1.0 1.0 1.0
c 1.0 1.0 1.0
c 1.0 1.0 1.0
c 1.0 1.0 1.0
c 1.0 1.0 1.0
c 1.0 1.0 1.0
c 1.0 1.0 1.0
c 1.0 1.0 1.0
c 1.0 1.0 1.0
c 1.0 1.0 1.0
c 1.0 1.0 1.0
c 1.0 1.0 1.0
c 1.0 1.0 1.0
c 1.0 1.0 1.0
c 1.0 1.0 1.0
usemtl gake01
s off
f 119/133/39/27 120/134/40/27 121/135/40/27 122/136/39/27
f 125/141/42/28 126/142/43/28 127/143/44/28 128/144/45/28
f 129/145/45/28 127/146/44/28 130/147/46/28 131/148/47/28
f 143/169/53/30 144/170/54/30 145/171/54/30 146/172/53/30
f 149/177/56/31 150/178/57/31 151/179/58/31 152/180/59/31
f 153/181/59/31 151/182/58/31 154/183/60/31 155/184/61/31
f 159/193/63/32 160/194/64/32 161/195/64/32 162/196/63/32
f 176/212/77/35 177/213/78/35 178/214/78/35 179/215/77/35
usemtl h_kage
s off
f 205/244/97/41 206/245/97/41 207/246/97/41 208/247/97/41
f 237/278/107/47 238/279/107/47 239/280/107/47 240/281/107/47
usemtl saku
s off
f 209/248/97/41 211/249/97/41 210/250/97/41 212/251/98/41
f 215/252/97/41 216/253/97/41 213/254/97/41 214/255/97/41
f 241/282/107/47 243/283/107/47 242/284/107/47 244/285/108/47
f 247/286/107/47 248/287/107/47 245/288/107/47 246/289/107/47
usemtl yamasaba01
s off
f 165/201/66/33 168/202/67/33 167/203/68/33 166/204/69/33
f 169/205/70/34 170/206/71/34 171/207/72/34 172/208/73/34
f 182/220/80/36 185/221/81/36 184/222/82/36 183/223/83/36
f 186/224/84/37 187/225/85/37 188/226/86/37 189/227/87/37
f 193/231/91/38 196/232/92/38 195/233/93/38 194/234/94/38
f 217/256/99/42 220/257/100/42 219/258/101/42 218/259/102/42
f 173/209/74/34 174/210/75/34 175/211/76/34
f 190/228/88/37 191/229/89/37 192/230/90/37
usemtl sabaku_el_1
s off
f 197/235/95/39 198/236/95/39 199/237/95/39 200/238/95/39
f 225/264/104/44 226/265/104/44 227/266/104/44 228/267/104/44
f 201/239/96/40 202/240/96/40 203/241/96/40
f 202/240/96/40 204/242/96/40 203/243/96/40
f 229/271/105/45 230/272/105/45 231/273/105/45
usemtl ga_s01a
s off
f 97/97/25/25 98/98/26/25 99/99/26/25 100/100/25/25
f 105/109/29/26 106/110/30/26 107/111/31/26 108/112/29/26
f 109/113/32/26 107/114/31/26 110/115/33/26 111/116/32/26
f 135/157/49/29 136/158/50/29 137/159/50/29 138/160/49/29
usemtl ga_s1_0
s off
f 103/101/27/25 102/102/28/25 101/103/28/25 104/104/27/25
f 116/117/34/26 113/118/35/26 112/119/35/26 117/120/36/26
f 118/121/37/26 115/122/38/26 114/123/38/26 116/124/34/26
f 141/161/51/29 140/162/52/29 139/163/52/29 142/164/51/29
usemtl yamaga_s01
s off
f 97/105/25/25 100/106/25/25 101/107/28/25 102/108/28/25
f 105/125/29/26 108/126/29/26 112/127/35/26 113/128/35/26
f 109/129/32/26 111/130/32/26 114/131/38/26 115/132/38/26
f 135/165/49/29 138/166/49/29 139/167/52/29 140/168/52/29
usemtl sabaku_e01
s off
f 221/262/103/43 222/263/103/43 223/260/103/43 224/261/103/43
f 233/276/106/46 234/277/106/46 235/275/106/46 236/274/106/46
f 230/268/105/45 229/269/105/45 232/270/105/45
usemtl sabaku01
s off
f 50/49/13/13 52/50/13/13 51/51/13/13 49/52/13/13
f 54/53/14/14 56/54/14/14 55/55/14/14 53/56/14/14
f 70/71/18/18 72/72/18/18 71/69/18/18 69/70/18/18
f 74/73/19/19 76/74/19/19 75/75/19/19 73/76/19/19
f 78/77/20/20 80/78/20/20 79/79/20/20 77/80/20/20
f 82/83/21/21 84/84/21/21 83/81/21/21 81/82/21/21
f 86/87/22/22 88/88/22/22 87/85/22/22 85/86/22/22
f 90/89/23/23 92/90/23/23 91/91/23/23 89/92/23/23
f 94/93/24/24 96/94/24/24 95/95/24/24 93/96/24/24
usemtl ga_s_futa
s off
f 3/1/1/1 4/2/1/1 1/3/1/1 2/4/1/1
f 7/5/2/2 8/6/2/2 5/7/2/2 6/8/2/2
f 11/9/3/3 12/10/3/3 9/11/3/3 10/12/3/3
f 15/13/4/4 16/14/4/4 13/15/4/4 14/16/4/4
f 19/17/5/5 20/18/5/5 17/19/5/5 18/20/5/5
f 23/21/6/6 24/22/6/6 21/23/6/6 22/24/6/6
f 27/25/7/7 28/26/7/7 25/27/7/7 26/28/7/7
f 31/29/8/8 32/30/8/8 29/31/8/8 30/32/8/8
f 35/33/9/9 36/34/9/9 33/35/9/9 34/36/9/9
f 39/37/10/10 40/38/10/10 37/39/10/10 38/40/10/10
f 43/41/11/11 44/42/11/11 41/43/11/11 42/44/11/11
f 47/45/12/12 48/46/12/12 45/47/12/12 46/48/12/12
f 59/57/15/15 60/58/15/15 57/59/15/15 58/60/15/15
f 63/61/16/16 64/62/16/16 61/63/16/16 62/64/16/16
f 67/65/17/17 68/66/17/17 65/67/17/17 66/68/17/17
usemtl gake1_4
s off
f 123/137/41/27 119/138/39/27 122/139/39/27 124/140/41/27
f 132/149/48/28 125/150/42/28 128/151/45/28 133/152/48/28
f 134/153/44/28 129/154/45/28 131/155/47/28 132/156/48/28
f 147/173/55/30 143/174/53/30 146/175/53/30 148/176/55/30
f 156/185/62/31 149/186/56/31 152/187/59/31 157/188/62/31
f 158/189/58/31 153/190/59/31 155/191/61/31 156/192/62/31
f 163/197/65/32 159/198/63/32 162/199/63/32 164/200/65/32
f 180/216/79/35 176/217/77/35 179/218/77/35 181/219/79/35
