mtllib Asteria_08_05.mtl
o map
v -16.0 -16.0 0.0
v -8.0 -16.0 0.0
v -8.0 -8.0 1.0E-6
v -16.0 -8.0 1.0E-6
v -16.0 -8.0 0.0
v -8.0 -8.0 0.0
v -8.0 0.0 1.0E-6
v -16.0 0.0 1.0E-6
v -16.0 0.0 0.0
v -8.0 0.0 0.0
v -8.0 8.0 1.0E-6
v -16.0 8.0 1.0E-6
v -16.0 8.0 0.0
v -8.0 8.0 0.0
v -8.0 16.0 1.0E-6
v -16.0 16.0 1.0E-6
v -8.0 -16.0 0.0
v 0.0 -16.0 0.0
v 0.0 -8.0 1.0E-6
v -8.0 -8.0 1.0E-6
v -8.0 -8.0 0.0
v 0.0 -8.0 0.0
v 0.0 0.0 1.0E-6
v -8.0 0.0 1.0E-6
v -8.0 0.0 0.0
v 0.0 0.0 0.0
v 0.0 8.0 1.0E-6
v -8.0 8.0 1.0E-6
v -8.0 8.0 0.0
v 0.0 8.0 0.0
v 0.0 16.0 1.0E-6
v -8.0 16.0 1.0E-6
v 0.0 -16.0 0.0
v 8.0 -16.0 0.0
v 8.0 -8.0 1.0E-6
v 0.0 -8.0 1.0E-6
v 0.0 -8.0 0.0
v 8.0 -8.0 0.0
v 8.0 0.0 1.0E-6
v 0.0 0.0 1.0E-6
v 0.0 0.0 0.0
v 8.0 0.0 0.0
v 8.0 8.0 1.0E-6
v 0.0 8.0 1.0E-6
v 0.0 8.0 0.0
v 8.0 8.0 0.0
v 8.0 16.0 1.0E-6
v 0.0 16.0 1.0E-6
v 8.0 -16.0 0.0
v 16.0 -16.0 0.0
v 16.0 -8.0 1.0E-6
v 8.0 -8.0 1.0E-6
v 8.0 -8.0 0.0
v 16.0 -8.0 0.0
v 16.0 0.0 1.0E-6
v 8.0 0.0 1.0E-6
v 8.0 0.0 0.0
v 16.0 0.0 0.0
v 16.0 8.0 1.0E-6
v 8.0 8.0 1.0E-6
v 8.0 8.0 0.0
v 16.0 8.0 0.0
v 16.0 16.0 1.0E-6
v 8.0 16.0 1.0E-6
v -16.0 -16.0 0.0
v -15.0 -16.0 0.0
v -15.0 -8.0 1.0E-6
v -16.0 -8.0 1.0E-6
v -16.0 -8.0 0.0
v -15.0 -8.0 0.0
v -15.0 -5.0 1.0E-6
v -16.0 -5.0 1.0E-6
v -16.0 9.375 0.875
v -13.0 9.375 0.875
v -13.0 9.625 0.25
v -16.0 9.625 0.25
v -16.0 9.0 1.0
v -13.0 9.0 1.0
v -13.0 9.375 0.875
v -16.0 9.375 0.875
v -16.0 9.625 0.25
v -13.0 9.625 0.25
v -13.0 10.0 0.0
v -16.0 10.0 0.0
v -16.0 10.375 0.875
v -14.0 10.375 0.875
v -14.0 10.625 0.25
v -16.0 10.625 0.25
v -16.0 10.0 1.0
v -14.0 10.0 1.0
v -14.0 10.375 0.875
v -16.0 10.375 0.875
v -16.0 10.625 0.25
v -14.0 10.625 0.25
v -14.0 11.0 0.0
v -16.0 11.0 0.0
v -15.0 12.0 1.000002
v -15.375 12.0 0.875002
v -15.375 12.0 0.875002
v -15.625 12.0 0.250002
v -15.625 12.0 0.250002
v -16.0 12.0 2.026558E-6
v -16.0 11.0 2.026558E-6
v -15.625 11.0 0.250002
v -15.375 11.0 0.875002
v -15.0 11.0 1.000002
v -15.375 11.0 0.875002
v -15.625 11.0 0.250002
v -15.0 11.0 1.000002
v -15.0 11.375 0.875002
v -15.0 11.375 0.875002
v -15.0 11.625 0.250002
v -15.0 11.625 0.250002
v -15.0 12.0 2.026558E-6
v -16.0 12.0 2.026558E-6
v -16.0 11.625 0.250002
v -16.0 11.375 0.875002
v -16.0 11.0 1.000002
v -16.0 11.375 0.875002
v -16.0 11.625 0.250002
v -15.0 12.0 1.000002
v -15.0 12.375 0.875002
v -15.375 12.0 0.875002
v -15.375 12.0 0.875002
v -15.0 12.375 0.875002
v -15.0 12.625 0.250002
v -15.625 12.0 0.250002
v -16.0 12.0 1.9967556E-6
v -15.625 12.0 0.250002
v -15.75 12.75 1.9967556E-6
v -15.0 12.625 0.250002
v -15.0 13.0 1.9967556E-6
v -15.0 15.0 1.000002
v -15.375 15.0 0.875002
v -15.0 14.625 0.875002
v -15.0 14.625 0.875002
v -15.375 15.0 0.875002
v -15.625 15.0 0.250002
v -15.0 14.375 0.250002
v -15.0 14.0 1.9967556E-6
v -15.0 14.375 0.250002
v -15.75 14.25 1.9967556E-6
v -15.625 15.0 0.250002
v -16.0 15.0 1.9967556E-6
v -15.0 16.0 1.000002
v -15.375 16.0 0.875002
v -15.375 16.0 0.875002
v -15.625 16.0 0.250002
v -15.625 16.0 0.250002
v -16.0 16.0 2.026558E-6
v -16.0 15.0 2.026558E-6
v -15.625 15.0 0.250002
v -15.375 15.0 0.875002
v -15.0 15.0 1.000002
v -15.375 15.0 0.875002
v -15.625 15.0 0.250002
v -15.0 -16.0 0.0
v -14.0 -16.0 0.0
v -14.0 -15.0 1.0E-6
v -15.0 -15.0 1.0E-6
v -15.0 -6.0 0.0
v -13.0 -6.0 0.0
v -13.0 -5.0 1.0E-6
v -15.0 -5.0 1.0E-6
v -14.0 13.0 1.000002
v -14.375 13.0 0.875002
v -14.375 13.0 0.875002
v -14.625 13.0 0.250002
v -14.625 13.0 0.250002
v -15.0 13.0 2.026558E-6
v -15.0 12.0 2.026558E-6
v -14.625 12.0 0.250002
v -14.375 12.0 0.875002
v -14.0 12.0 1.000002
v -14.375 12.0 0.875002
v -14.625 12.0 0.250002
v -14.0 12.0 1.000002
v -14.0 12.375 0.875002
v -14.0 12.375 0.875002
v -14.0 12.625 0.250002
v -14.0 12.625 0.250002
v -14.0 13.0 2.026558E-6
v -15.0 13.0 2.026558E-6
v -15.0 12.625 0.250002
v -15.0 12.375 0.875002
v -15.0 12.0 1.000002
v -15.0 12.375 0.875002
v -15.0 12.625 0.250002
v -14.0 14.0 1.000002
v -14.375 14.0 0.875002
v -14.375 14.0 0.875002
v -14.625 14.0 0.250002
v -14.625 14.0 0.250002
v -15.0 14.0 2.026558E-6
v -15.0 13.0 2.026558E-6
v -14.625 13.0 0.250002
v -14.375 13.0 0.875002
v -14.0 13.0 1.000002
v -14.375 13.0 0.875002
v -14.625 13.0 0.250002
v -15.0 15.0 1.000002
v -15.0 14.625 0.875002
v -15.0 14.625 0.875002
v -15.0 14.375 0.250002
v -15.0 14.375 0.250002
v -15.0 14.0 2.026558E-6
v -14.0 14.0 2.026558E-6
v -14.0 14.375 0.250002
v -14.0 14.625 0.875002
v -14.0 15.0 1.000002
v -14.0 14.625 0.875002
v -14.0 14.375 0.250002
v -14.0 15.0 1.000002
v -14.375 15.0 0.875002
v -14.375 15.0 0.875002
v -14.625 15.0 0.250002
v -14.625 15.0 0.250002
v -15.0 15.0 2.026558E-6
v -15.0 14.0 2.026558E-6
v -14.625 14.0 0.250002
v -14.375 14.0 0.875002
v -14.0 14.0 1.000002
v -14.375 14.0 0.875002
v -14.625 14.0 0.250002
v -14.0 -5.0 0.0
v -13.0 -5.0 0.0
v -13.0 -3.0 1.0E-6
v -14.0 -3.0 1.0E-6
v -13.375 10.0 0.875
v -13.375 11.0 0.875
v -13.625 11.0 0.25
v -13.625 10.0 0.25
v -13.0 10.0 1.0
v -13.0 11.0 1.0
v -13.375 11.0 0.875
v -13.375 10.0 0.875
v -13.625 10.0 0.25
v -13.625 11.0 0.25
v -14.0 11.0 0.0
v -14.0 10.0 0.0
v -14.0 10.375 0.875
v -13.0 10.375 0.875
v -13.0 10.625 0.25
v -14.0 10.625 0.25
v -14.0 10.0 1.0
v -13.0 10.0 1.0
v -13.0 10.375 0.875
v -14.0 10.375 0.875
v -14.0 10.625 0.25
v -13.0 10.625 0.25
v -13.0 11.0 0.0
v -14.0 11.0 0.0
v -13.375 11.0 0.875
v -13.375 16.0 0.875
v -13.625 16.0 0.25
v -13.625 11.0 0.25
v -13.0 11.0 1.0
v -13.0 16.0 1.0
v -13.375 16.0 0.875
v -13.375 11.0 0.875
v -13.625 11.0 0.25
v -13.625 16.0 0.25
v -14.0 16.0 0.0
v -14.0 11.0 0.0
v -12.375 9.0 0.875
v -12.375 10.0 0.875
v -12.625 10.0 0.25
v -12.625 9.0 0.25
v -12.0 9.0 1.0
v -12.0 10.0 1.0
v -12.375 10.0 0.875
v -12.375 9.0 0.875
v -12.625 9.0 0.25
v -12.625 10.0 0.25
v -13.0 10.0 0.0
v -13.0 9.0 0.0
v -13.0 9.375 0.875
v -12.0 9.375 0.875
v -12.0 9.625 0.25
v -13.0 9.625 0.25
v -13.0 9.0 1.0
v -12.0 9.0 1.0
v -12.0 9.375 0.875
v -13.0 9.375 0.875
v -13.0 9.625 0.25
v -12.0 9.625 0.25
v -12.0 10.0 0.0
v -13.0 10.0 0.0
v -12.375 10.0 0.875
v -12.375 11.0 0.875
v -12.625 11.0 0.25
v -12.625 10.0 0.25
v -12.0 10.0 1.0
v -12.0 11.0 1.0
v -12.375 11.0 0.875
v -12.375 10.0 0.875
v -12.625 10.0 0.25
v -12.625 11.0 0.25
v -13.0 11.0 0.0
v -13.0 10.0 0.0
vt 0.0 0.0
vt 2.0 0.0
vt 2.0 2.0
vt 0.0 2.0
vt 0.0 2.0
vt 2.0 2.0
vt 2.0 4.0
vt 0.0 4.0
vt 0.0 4.0
vt 2.0 4.0
vt 2.0 6.0
vt 0.0 6.0
vt 0.0 6.0
vt 2.0 6.0
vt 2.0 8.0
vt 0.0 8.0
vt 2.0 0.0
vt 4.0 0.0
vt 4.0 2.0
vt 2.0 2.0
vt 2.0 2.0
vt 4.0 2.0
vt 4.0 4.0
vt 2.0 4.0
vt 2.0 4.0
vt 4.0 4.0
vt 4.0 6.0
vt 2.0 6.0
vt 2.0 6.0
vt 4.0 6.0
vt 4.0 8.0
vt 2.0 8.0
vt 4.0 0.0
vt 6.0 0.0
vt 6.0 2.0
vt 4.0 2.0
vt 4.0 2.0
vt 6.0 2.0
vt 6.0 4.0
vt 4.0 4.0
vt 4.0 4.0
vt 6.0 4.0
vt 6.0 6.0
vt 4.0 6.0
vt 4.0 6.0
vt 6.0 6.0
vt 6.0 8.0
vt 4.0 8.0
vt 6.0 0.0
vt 8.0 0.0
vt 8.0 2.0
vt 6.0 2.0
vt 6.0 2.0
vt 8.0 2.0
vt 8.0 4.0
vt 6.0 4.0
vt 6.0 4.0
vt 8.0 4.0
vt 8.0 6.0
vt 6.0 6.0
vt 6.0 6.0
vt 8.0 6.0
vt 8.0 8.0
vt 6.0 8.0
vt 0.0 0.0
vt 0.25 0.0
vt 0.25 2.0
vt 0.0 2.0
vt 0.0 2.0
vt 0.25 2.0
vt 0.25 2.75
vt 0.0 2.75
vt -1.5 -0.5625
vt 0.0 -0.5625
vt 0.0 0.0
vt -1.5 0.0
vt -1.5 -1.0
vt 0.0 -1.0
vt 0.0 0.0
vt -1.5 0.0
vt -1.5 -1.0
vt 0.0 -1.0
vt 0.0 -0.5625
vt -1.5 -0.5625
vt -1.0 -0.5625
vt 0.0 -0.5625
vt 0.0 0.0
vt -1.0 0.0
vt -1.0 -1.0
vt 0.0 -1.0
vt 0.0 0.0
vt -1.0 0.0
vt -1.0 -1.0
vt 0.0 -1.0
vt 0.0 -0.5625
vt -1.0 -0.5625
vt -2.5 -1.0
vt -2.0 -1.0
vt -2.0 0.0
vt -2.5 0.0
vt -2.5 -1.0
vt -2.0 -1.0
vt -2.0 0.0
vt -2.5 0.0
vt -2.5 -0.5625
vt -2.0 -0.5625
vt -2.0 0.0
vt -2.5 0.0
vt -2.5 -0.5625
vt -2.0 -0.5625
vt -2.0 0.0
vt -2.5 0.0
vt -2.5 -1.0
vt -2.0 -1.0
vt -2.0 -0.5625
vt -2.5 -0.5625
vt -2.5 -1.0
vt -2.0 -1.0
vt -2.0 -0.5625
vt -2.5 -0.5625
vt -0.25 0.0
vt -0.5 -1.0
vt 0.0 -1.0
vt -0.46875 -0.5625
vt -0.0625 -0.5625
vt -0.0625 0.0
vt -0.46875 0.0
vt -0.0625 -1.0
vt -0.0625 -0.5625
vt -0.25 -1.0
vt -0.46875 -0.5625
vt -0.46875 -1.0
vt -0.25 0.0
vt -0.5 -1.0
vt 0.0 -1.0
vt -0.46875 -0.5625
vt -0.0625 -0.5625
vt -0.0625 0.0
vt -0.46875 0.0
vt -0.0625 -1.0
vt -0.0625 -0.5625
vt -0.25 -1.0
vt -0.46875 -0.5625
vt -0.46875 -1.0
vt -2.5 -1.0
vt -2.0 -1.0
vt -2.0 0.0
vt -2.5 0.0
vt -2.5 -0.5625
vt -2.0 -0.5625
vt -2.0 0.0
vt -2.5 0.0
vt -2.5 -1.0
vt -2.0 -1.0
vt -2.0 -0.5625
vt -2.5 -0.5625
vt 0.25 0.0
vt 0.5 0.0
vt 0.5 0.25
vt 0.25 0.25
vt 0.25 2.5
vt 0.75 2.5
vt 0.75 2.75
vt 0.25 2.75
vt -2.5 -1.0
vt -2.0 -1.0
vt -2.0 0.0
vt -2.5 0.0
vt -2.5 -1.0
vt -2.0 -1.0
vt -2.0 0.0
vt -2.5 0.0
vt -2.5 -0.5625
vt -2.0 -0.5625
vt -2.0 0.0
vt -2.5 0.0
vt -2.5 -0.5625
vt -2.0 -0.5625
vt -2.0 0.0
vt -2.5 0.0
vt -2.5 -1.0
vt -2.0 -1.0
vt -2.0 -0.5625
vt -2.5 -0.5625
vt -2.5 -1.0
vt -2.0 -1.0
vt -2.0 -0.5625
vt -2.5 -0.5625
vt -2.5 -1.0
vt -2.0 -1.0
vt -2.0 0.0
vt -2.5 0.0
vt -2.5 -0.5625
vt -2.0 -0.5625
vt -2.0 0.0
vt -2.5 0.0
vt -2.5 -1.0
vt -2.0 -1.0
vt -2.0 -0.5625
vt -2.5 -0.5625
vt -2.5 -1.0
vt -2.0 -1.0
vt -2.0 0.0
vt -2.5 0.0
vt -2.5 -1.0
vt -2.0 -1.0
vt -2.0 0.0
vt -2.5 0.0
vt -2.5 -0.5625
vt -2.0 -0.5625
vt -2.0 0.0
vt -2.5 0.0
vt -2.5 -0.5625
vt -2.0 -0.5625
vt -2.0 0.0
vt -2.5 0.0
vt -2.5 -1.0
vt -2.0 -1.0
vt -2.0 -0.5625
vt -2.5 -0.5625
vt -2.5 -1.0
vt -2.0 -1.0
vt -2.0 -0.5625
vt -2.5 -0.5625
vt 0.5 2.75
vt 0.75 2.75
vt 0.75 3.25
vt 0.5 3.25
vt -0.5 -0.5625
vt 0.0 -0.5625
vt 0.0 0.0
vt -0.5 0.0
vt -0.5 -0.5625
vt 0.0 -0.5625
vt 0.0 0.0
vt -0.5 0.0
vt -0.5 -1.0
vt 0.0 -1.0
vt 0.0 0.0
vt -0.5 0.0
vt -0.5 -1.0
vt 0.0 -1.0
vt 0.0 0.0
vt -0.5 0.0
vt -0.5 -1.0
vt 0.0 -1.0
vt 0.0 -0.5625
vt -0.5 -0.5625
vt -0.5 -1.0
vt 0.0 -1.0
vt 0.0 -0.5625
vt -0.5 -0.5625
vt -2.5 -0.5625
vt 0.0 -0.5625
vt 0.0 0.0
vt -2.5 0.0
vt -2.5 -1.0
vt 0.0 -1.0
vt 0.0 0.0
vt -2.5 0.0
vt -2.5 -1.0
vt 0.0 -1.0
vt 0.0 -0.5625
vt -2.5 -0.5625
vt -0.5 -0.5625
vt 0.0 -0.5625
vt 0.0 0.0
vt -0.5 0.0
vt -0.5 -0.5625
vt 0.0 -0.5625
vt 0.0 0.0
vt -0.5 0.0
vt -0.5 -1.0
vt 0.0 -1.0
vt 0.0 0.0
vt -0.5 0.0
vt -0.5 -1.0
vt 0.0 -1.0
vt 0.0 0.0
vt -0.5 0.0
vt -0.5 -1.0
vt 0.0 -1.0
vt 0.0 -0.5625
vt -0.5 -0.5625
vt -0.5 -1.0
vt 0.0 -1.0
vt 0.0 -0.5625
vt -0.5 -0.5625
vt -0.5 -0.5625
vt 0.0 -0.5625
vt 0.0 0.0
vt -0.5 0.0
vt -0.5 -1.0
vt 0.0 -1.0
vt 0.0 0.0
vt -0.5 0.0
vt -0.5 -1.0
vt 0.0 -1.0
vt 0.0 -0.5625
vt -0.5 -0.5625
vn 0.0 -0.0 1.0
vn 0.0 -0.0 1.0
vn 0.0 -0.0 1.0
vn 0.0 -0.0 1.0
vn 0.0 -0.0 1.0
vn 0.0 -0.0 1.0
vn 0.0 -0.0 1.0
vn 0.0 -0.0 1.0
vn 0.0 -0.0 1.0
vn 0.0 -0.0 1.0
vn 0.0 -0.0 1.0
vn 0.0 -0.0 1.0
vn 0.0 -0.0 1.0
vn 0.0 -0.0 1.0
vn 0.0 -0.0 1.0
vn 0.0 -0.0 1.0
vn 0.0 -0.0 1.0
vn 0.0 -0.0 1.0
vn -0.0 0.9285 0.3714
vn -0.0 0.3162 0.9487
vn -0.0 0.5547 0.8321
vn -0.0 0.9285 0.3714
vn -0.0 0.3162 0.9487
vn -0.0 0.5547 0.8321
vn -0.3162 -0.0 0.9487
vn 0.0 0.3162 0.9487
vn -0.9285 -0.0 0.3714
vn 0.0 0.9285 0.3714
vn -0.5547 -0.0 0.8321
vn 0.0 0.5547 0.8321
vn -0.3015 0.3015 0.9045
vn -0.6804 0.6804 0.2722
vn -0.5455 0.1818 0.8182
vn -0.4276 0.2209 0.8766
vn -0.3204 0.3204 0.8915
vn -0.2209 0.4276 0.8766
vn -0.1818 0.5455 0.8182
vn -0.3015 -0.3015 0.9045
vn -0.6804 -0.6804 0.2722
vn -0.1818 -0.5455 0.8182
vn -0.2209 -0.4276 0.8766
vn -0.3204 -0.3204 0.8915
vn -0.4276 -0.2209 0.8766
vn -0.5455 -0.1818 0.8182
vn -0.3162 -0.0 0.9487
vn -0.9285 -0.0 0.3714
vn -0.5547 -0.0 0.8321
vn 0.0 -0.0 1.0
vn 0.0 -0.0 1.0
vn -0.3162 -0.0 0.9487
vn 0.0 0.3162 0.9487
vn -0.9285 -0.0 0.3714
vn 0.0 0.9285 0.3714
vn -0.5547 -0.0 0.8321
vn 0.0 0.5547 0.8321
vn -0.3162 -0.0 0.9487
vn -0.9285 -0.0 0.3714
vn -0.5547 -0.0 0.8321
vn 0.0 -0.3162 0.9487
vn -0.3162 0.0 0.9487
vn 0.0 -0.9285 0.3714
vn -0.9285 0.0 0.3714
vn 0.0 -0.5547 0.8321
vn -0.5547 0.0 0.8321
vn 0.0 -0.0 1.0
vn -0.9285 -0.0 0.3714
vn 0.0 0.9285 0.3714
vn -0.3162 -0.0 0.9487
vn 0.0 0.3162 0.9487
vn -0.5547 -0.0 0.8321
vn 0.0 0.5547 0.8321
vn -0.9285 -0.0 0.3714
vn -0.3162 -0.0 0.9487
vn -0.5547 -0.0 0.8321
vn -0.9285 -0.0 0.3714
vn 0.0 0.9285 0.3714
vn -0.3162 -0.0 0.9487
vn 0.0 0.3162 0.9487
vn -0.5547 -0.0 0.8321
vn 0.0 0.5547 0.8321
vn -0.9285 -0.0 0.3714
vn -0.3162 -0.0 0.9487
vn -0.5547 -0.0 0.8321
c 1.0 1.0 1.0
c 1.0 1.0 1.0
c 1.0 1.0 1.0
c 1.0 1.0 1.0
c 1.0 1.0 1.0
c 1.0 1.0 1.0
c 1.0 1.0 1.0
c 1.0 1.0 1.0
c 1.0 1.0 1.0
c 1.0 1.0 1.0
c 1.0 1.0 1.0
c 1.0 1.0 1.0
c 1.0 1.0 1.0
c 1.0 1.0 1.0
c 1.0 1.0 1.0
c 1.0 1.0 1.0
c 1.0 1.0 1.0
c 1.0 1.0 1.0
c 1.0 1.0 1.0
c 1.0 1.0 1.0
c 1.0 1.0 1.0
c 1.0 1.0 1.0
c 1.0 1.0 1.0
c 1.0 1.0 1.0
c 1.0 1.0 1.0
c 1.0 1.0 1.0
c 1.0 1.0 1.0
c 1.0 1.0 1.0
c 1.0 1.0 1.0
c 1.0 1.0 1.0
c 1.0 1.0 1.0
c 1.0 1.0 1.0
c 1.0 1.0 1.0
c 1.0 1.0 1.0
usemtl d0yuka_001
s off
f 1/1/1/1 2/2/1/1 3/3/1/1 4/4/1/1
f 5/5/2/2 6/6/2/2 7/7/2/2 8/8/2/2
f 9/9/3/3 10/10/3/3 11/11/3/3 12/12/3/3
f 13/13/4/4 14/14/4/4 15/15/4/4 16/16/4/4
f 17/17/5/5 18/18/5/5 19/19/5/5 20/20/5/5
f 21/21/6/6 22/22/6/6 23/23/6/6 24/24/6/6
f 25/25/7/7 26/26/7/7 27/27/7/7 28/28/7/7
f 29/29/8/8 30/30/8/8 31/31/8/8 32/32/8/8
f 33/33/9/9 34/34/9/9 35/35/9/9 36/36/9/9
f 37/37/10/10 38/38/10/10 39/39/10/10 40/40/10/10
f 41/41/11/11 42/42/11/11 43/43/11/11 44/44/11/11
f 45/45/12/12 46/46/12/12 47/47/12/12 48/48/12/12
f 49/49/13/13 50/50/13/13 51/51/13/13 52/52/13/13
f 53/53/14/14 54/54/14/14 55/55/14/14 56/56/14/14
f 57/57/15/15 58/58/15/15 59/59/15/15 60/60/15/15
f 61/61/16/16 62/62/16/16 63/63/16/16 64/64/16/16
f 65/65/17/17 66/66/17/17 67/67/17/17 68/68/17/17
f 69/69/18/18 70/70/18/18 71/71/18/18 72/72/18/18
f 157/157/48/25 158/158/48/25 159/159/48/25 160/160/48/25
f 161/161/49/26 162/162/49/26 163/163/49/26 164/164/49/26
f 225/225/65/30 226/226/65/30 227/227/65/30 228/228/65/30
usemtl d0gake_001b
s off
f 75/73/19/19 76/74/19/19 73/75/19/19 74/76/19/19
f 87/85/22/20 88/86/22/20 85/87/22/20 86/88/22/20
f 100/105/27/21 108/106/27/21 107/107/27/21 99/108/27/21
f 112/109/28/21 120/110/28/21 119/111/28/21 111/112/28/21
f 126/124/32/22 127/125/32/22 124/126/32/22 125/127/32/22
f 138/136/39/23 139/137/39/23 136/138/39/23 137/139/39/23
f 148/149/46/24 156/150/46/24 155/151/46/24 147/152/46/24
f 168/173/52/27 176/174/52/27 175/175/52/27 167/176/52/27
f 180/177/53/27 188/178/53/27 187/179/53/27 179/180/53/27
f 192/193/57/28 200/194/57/28 199/195/57/28 191/196/57/28
f 204/209/61/29 212/210/61/29 211/211/61/29 203/212/61/29
f 216/213/62/29 224/214/62/29 223/215/62/29 215/216/62/29
f 231/229/66/31 232/230/66/31 229/231/66/31 230/232/66/31
f 243/233/67/31 244/234/67/31 241/235/67/31 242/236/67/31
f 255/253/72/32 256/254/72/32 253/255/72/32 254/256/72/32
f 267/265/75/33 268/266/75/33 265/267/75/33 266/268/75/33
f 279/269/76/33 280/270/76/33 277/271/76/33 278/272/76/33
f 291/289/81/34 292/290/81/34 289/291/81/34 290/292/81/34
usemtl d0gake_002
s off
f 79/77/20/19 80/78/20/19 77/79/20/19 78/80/20/19
f 91/89/23/20 92/90/23/20 89/91/23/20 90/92/23/20
f 235/237/68/31 236/238/68/31 233/239/68/31 234/240/68/31
f 247/241/69/31 248/242/69/31 245/243/69/31 246/244/69/31
f 259/257/73/32 260/258/73/32 257/259/73/32 258/260/73/32
f 271/273/77/33 272/274/77/33 269/275/77/33 270/276/77/33
f 283/277/78/33 284/278/78/33 281/279/78/33 282/280/78/33
f 295/293/82/34 296/294/82/34 293/295/82/34 294/296/82/34
usemtl d0gake_001
s off
f 83/81/21/19 84/82/21/19 81/83/21/19 82/84/21/19
f 95/93/24/20 96/94/24/20 93/95/24/20 94/96/24/20
f 102/113/29/21 103/114/29/21 104/115/29/21 101/116/29/21
f 114/117/30/21 115/118/30/21 116/119/30/21 113/120/30/21
f 150/153/47/24 151/154/47/24 152/155/47/24 149/156/47/24
f 170/181/54/27 171/182/54/27 172/183/54/27 169/184/54/27
f 182/185/55/27 183/186/55/27 184/187/55/27 181/188/55/27
f 194/197/58/28 195/198/58/28 196/199/58/28 193/200/58/28
f 206/217/63/29 207/218/63/29 208/219/63/29 205/220/63/29
f 218/221/64/29 219/222/64/29 220/223/64/29 217/224/64/29
f 239/245/70/31 240/246/70/31 237/247/70/31 238/248/70/31
f 251/249/71/31 252/250/71/31 249/251/71/31 250/252/71/31
f 263/261/74/32 264/262/74/32 261/263/74/32 262/264/74/32
f 275/281/79/33 276/282/79/33 273/283/79/33 274/284/79/33
f 287/285/80/33 288/286/80/33 285/287/80/33 286/288/80/33
f 299/297/83/34 300/298/83/34 297/299/83/34 298/300/83/34
f 128/128/33/22 129/129/34/22 130/130/35/22
f 129/129/34/22 131/131/36/22 130/130/35/22
f 130/130/35/22 131/131/36/22 132/132/37/22
f 140/140/40/23 141/141/41/23 142/142/42/23
f 141/141/41/23 143/143/43/23 142/142/42/23
f 142/142/42/23 143/143/43/23 144/144/44/23
usemtl d0gake_002b
s off
f 98/97/25/21 105/98/25/21 106/99/25/21 97/100/25/21
f 110/101/26/21 117/102/26/21 118/103/26/21 109/104/26/21
f 146/145/45/24 153/146/45/24 154/147/45/24 145/148/45/24
f 166/165/50/27 173/166/50/27 174/167/50/27 165/168/50/27
f 178/169/51/27 185/170/51/27 186/171/51/27 177/172/51/27
f 190/189/56/28 197/190/56/28 198/191/56/28 189/192/56/28
f 202/201/59/29 209/202/59/29 210/203/59/29 201/204/59/29
f 214/205/60/29 221/206/60/29 222/207/60/29 213/208/60/29
f 121/121/31/22 122/122/31/22 123/123/31/22
f 133/133/38/23 134/134/38/23 135/135/38/23
