mtllib DownStairs1.mtl
o map
v 0.4425 1.516123 -1.25
v 0.4425 1.74 -0.125
v 0.4425 0.24000001 -0.125
v 0.4425 0.49793506 -1.25
v 0.13 -0.07249999 0.119751
v 0.4425 0.24000001 0.119751
v 0.4425 1.74 0.119751
v 0.13 2.0525 0.119751
v 1.88 2.0525 0.119751
v 0.13 2.0525 0.119751
v 0.4425 1.74 0.119751
v 1.88 1.74 0.119751
v 1.88 -0.07249999 0.119751
v 0.13 -0.07249999 0.119751
v 0.13 -0.07249999 -0.124878
v 1.88 -0.07249999 -0.125
v 1.88 -0.07249999 -0.125
v 1.88 0.24000001 -0.125
v 1.88 0.24000001 0.119751
v 1.88 -0.07249999 0.119751
v 1.88 1.74 -0.125
v 1.88 2.0525 -0.125
v 1.88 2.0525 0.119751
v 1.88 1.74 0.119751
v 1.88 -0.07249999 0.119751
v 1.88 0.24000001 0.119751
v 0.4425 0.24000001 0.119751
v 0.13 -0.07249999 0.119751
v 1.88 0.24000001 0.119751
v 1.88 0.24000001 -0.125
v 0.4425 0.24000001 -0.125
v 0.4425 0.24000001 0.119751
v 0.4425 0.24000001 0.119751
v 0.4425 0.24000001 -0.125
v 0.4425 1.74 -0.125
v 0.4425 1.74 0.119751
v 0.4425 1.74 0.119751
v 0.4425 1.74 -0.125
v 1.88 1.74 -0.125
v 1.88 1.74 0.119751
v 1.88 2.0525 0.119751
v 1.88 2.0525 -0.125
v 0.13 2.0525 -0.124878
v 0.13 2.0525 0.119751
v 0.13 2.0525 0.119751
v 0.13 2.0525 -0.124878
v 0.13 -0.07249999 -0.124878
v 0.13 -0.07249999 0.119751
v 1.88 0.24000001 -0.125
v 0.4425 0.24000001 -1.25
v 0.4425 0.24000001 -0.125
v 0.4425 1.516123 -1.25
v 0.4425 1.74 -1.25
v 0.4425 1.74 -0.125
v 0.4425 1.74 -1.25
v 1.88 1.74 -0.125
v 0.4425 1.74 -0.125
v 0.4425 1.516123 -1.25
v 1.88 1.516123 -0.125
v 1.88 1.74 -0.125
v 0.4425 1.74 -1.25
v 0.4425 0.49793506 -1.25
v 1.88 0.49793506 -0.125
v 1.88 1.516123 -0.125
v 0.4425 1.516123 -1.25
v 1.88 0.24000001 -0.125
v 1.88 0.49793506 -0.125
v 0.4425 0.49793506 -1.25
v 0.4425 0.24000001 -1.25
v 0.4425 0.24000001 -1.25
v 2.88 0.24000001 -1.25
v 2.88 0.49793506 -1.25
v 0.4425 0.49793506 -1.25
v 0.4425 0.49793506 -1.25
v 2.88 0.49793506 -1.25
v 2.88 1.516123 -1.25
v 0.4425 1.516123 -1.25
v 0.4425 1.516123 -1.25
v 2.88 1.516123 -1.25
v 2.88 1.74 -1.25
v 0.4425 1.74 -1.25
v 0.4425 0.49793506 -1.25
v 0.4425 0.24000001 -0.125
v 0.4425 0.24000001 -1.25
v 1.88 0.24000001 -0.125
v 2.88 0.24000001 -1.25
v 0.4425 0.24000001 -1.25
v 0.4425 1.74 -1.25
v 2.88 1.74 -1.25
v 1.88 1.74 -0.125
vt 0.9375 0.6875
vt 0.910156 0.996094
vt 0.984375 0.753906
vt 0.917969 0.753906
vt 0.976562 0.996094
vt 0.914062 0.996094
vt 0.921875 0.757812
vt 0.984375 0.757812
vt 0.941406 0.996094
vt 0.910156 0.753906
vt 0.902344 0.996094
vt 0.9375 0.6875
vt 0.84375 -2.0
vt 0.84375 0.996094
vt 0.046875 0.996094
vt 0.046875 -2.0
vt 0.625 -2.0
vt 0.625 0.996094
vt 0.070312 0.992188
vt 0.070312 0.972656
vt 0.9375 0.6875
vt 0.070312 0.992188
vt 0.070312 0.972656
vn 1.0 0.0 -0.0
vn 0.0 0.0 1.0
vn 0.0 -1.0 -0.0
vn 0.0 1.0 -0.0
vn -1.0 0.0 -0.0
vn 0.0 1.0 -0.0
vn 1.0 0.0 -0.0
vn 0.0 -1.0 -0.0
vn -0.6163 0.0 0.7875
vn 0.0 0.0 1.0
vn 1.0 0.0 -0.0
vn 0.0 1.0 -0.0
vn 0.0 -1.0 -0.0
c 1.0 1.0 1.0
usemtl idr_stair_u01
s off
f 1/1/1/1 2/1/1/1 3/1/1/1 4/1/1/1
f 5/2/2/1 6/3/2/1 7/4/2/1 8/5/2/1
f 9/6/2/1 10/5/2/1 11/7/2/1 12/7/2/1
f 13/6/3/1 14/5/3/1 15/8/3/1 16/4/3/1
f 17/4/1/1 18/3/1/1 19/5/1/1 20/2/1/1
f 21/4/1/1 22/3/1/1 23/5/1/1 24/2/1/1
f 25/6/2/1 26/7/2/1 27/4/2/1 28/2/2/1
f 29/2/4/1 30/4/4/1 31/3/4/1 32/5/4/1
f 33/5/1/1 34/3/1/1 35/4/1/1 36/2/1/1
f 37/2/3/1 38/4/3/1 39/4/3/1 40/5/3/1
f 41/9/4/1 42/3/4/1 43/10/4/1 44/11/4/1
f 45/11/5/1 46/10/5/1 47/3/5/1 48/5/5/1
f 58/13/9/1 59/14/9/1 60/15/9/1 61/16/9/1
f 62/17/9/1 63/18/9/1 64/18/9/1 65/17/9/1
f 66/15/9/1 67/14/9/1 68/13/9/1 69/16/9/1
f 70/19/10/1 71/20/10/1 72/20/10/1 73/19/10/1
f 74/19/10/1 75/20/10/1 76/20/10/1 77/19/10/1
f 78/19/10/1 79/20/10/1 80/20/10/1 81/19/10/1
f 49/12/6/1 50/12/6/1 51/12/6/1
f 52/12/7/1 53/12/7/1 54/12/7/1
f 55/12/8/1 56/12/8/1 57/12/8/1
f 82/21/11/1 83/21/11/1 84/21/11/1
f 85/22/12/1 86/23/12/1 87/22/12/1
f 88/22/13/1 89/23/13/1 90/22/13/1
