# Blender 4.0.0
# www.blender.org
mtllib GALHQ12-1.mtl
o m_dun2607_00_00c
v -80.000000 -2.000016 -214.000000
v -48.000000 -2.000016 -214.000000
v -48.000000 45.999985 -214.000000
v -80.000000 45.999985 -214.000000
v -192.000000 -2.000016 -214.000000
v -160.000000 -2.000016 -214.000000
v -160.000000 45.999985 -214.000000
v -192.000000 45.999985 -214.000000
v -92.000000 -0.000007 -95.000000
v -156.000000 -0.000007 -95.000000
v -156.000000 -0.000005 -63.000000
v -92.000000 -0.000005 -63.000000
v -239.000000 -0.000014 -182.000000
v -239.000000 -0.000009 -118.000000
v -207.000000 -0.000009 -118.000000
v -207.000000 -0.000014 -182.000000
v -159.000000 -0.000016 -213.000000
v -223.000000 -0.000016 -213.000000
v -223.000000 -0.000014 -181.000000
v -159.000000 -0.000014 -181.000000
v -1.000000 -0.000011 -148.000000
v -1.000000 -0.000016 -212.000000
v -33.000000 -0.000016 -212.000000
v -33.000000 -0.000011 -148.000000
v 0.000000 45.999985 -214.000000
v 0.000000 -2.000016 -214.000000
v 0.000000 45.999985 -198.000000
v 0.000000 -2.000015 -198.000000
v 0.000000 45.999996 -32.000004
v 0.000000 -2.000002 -32.000000
v -160.000000 -2.000016 -214.000000
v -80.000000 -2.000016 -214.000000
v -80.000000 45.999985 -214.000000
v -160.000000 45.999985 -214.000000
v -240.000000 -2.000016 -214.000000
v -192.000000 -2.000016 -214.000000
v -192.000000 45.999985 -214.000000
v -240.000000 45.999985 -214.000000
v -240.000000 45.999985 -214.000000
v -240.000000 45.999996 -32.000004
v -240.000000 -2.000002 -32.000000
v -240.000000 -2.000016 -214.000000
v -48.000000 -2.000016 -214.000000
v 0.000000 -2.000016 -214.000000
v 0.000000 45.999985 -214.000000
v -48.000000 45.999985 -214.000000
v -64.000000 -2.000002 -32.000000
v -80.000000 -2.000005 -64.000000
v -120.000000 -2.000002 -32.000000
v -120.000000 -2.000005 -64.000000
v -176.000000 -2.000002 -32.000000
v -160.000000 -2.000005 -64.000000
v -176.000000 -2.000011 -144.000000
v -160.000000 -2.000008 -104.000000
v 0.000000 -2.000002 -32.000000
v 0.000000 -2.000015 -198.000000
v -64.000000 -2.000002 -32.000000
v -64.000000 -2.000011 -144.000000
v -80.000000 -2.000005 -64.000000
v -80.000000 -2.000008 -104.000000
v -80.000000 -2.000011 -144.000000
v -64.000000 -2.000015 -198.000000
v -120.000000 -2.000011 -144.000000
v -120.296875 -2.000015 -198.000000
v -160.000000 -2.000011 -144.000000
v -176.000000 -2.000015 -198.000000
v -176.000000 -2.000015 -198.000000
v -192.000000 -2.000016 -214.000000
v -224.000000 -2.000015 -198.000000
v -240.000000 -2.000016 -214.000000
v -224.000000 -2.000002 -32.000000
v -240.000000 -2.000002 -32.000000
v 0.000000 -2.000015 -198.000000
v -64.000000 -2.000015 -198.000000
v -64.000000 -2.000011 -144.000000
v -80.000000 -2.000011 -144.000000
v -80.000000 -2.000008 -104.000000
v -84.000000 -2.000009 -124.000000
v -120.000000 -2.000008 -104.000000
v -100.000000 -2.000010 -140.000000
v -120.000000 -2.000011 -144.000000
v -80.000000 -2.000011 -144.000000
v -176.000000 -2.000011 -144.000000
v -160.000000 -2.000008 -104.000000
v -160.000000 -2.000011 -144.000000
v -156.000000 -2.000009 -124.000000
v -140.000000 -2.000010 -140.000000
v -120.000000 -2.000008 -104.000000
v -120.000000 -2.000011 -144.000000
v -156.000000 -2.000009 -124.000000
v -160.000000 -2.000008 -104.000000
v -120.000000 -2.000008 -104.000000
v -156.000000 -2.000006 -84.000000
v -140.000000 -2.000005 -68.000000
v -160.000000 -2.000005 -64.000000
v -120.000000 -2.000005 -64.000000
v -140.000000 -2.000005 -68.000000
v -120.000000 -2.000005 -64.000000
v -120.000000 -2.000008 -104.000000
v -100.000000 -2.000005 -68.000000
v -84.000000 -2.000006 -84.000000
v -80.000000 -2.000005 -64.000000
v -80.000000 -2.000008 -104.000000
v -192.000000 -2.000016 -214.000000
v -176.000000 -2.000015 -198.000000
v -160.000000 -2.000016 -214.000000
v -120.296875 -2.000015 -198.000000
v -224.000000 -2.000015 -198.000000
v -176.000000 -2.000011 -144.000000
v -176.000000 -2.000015 -198.000000
v -160.000000 -2.000011 -144.000000
v -64.000000 -2.000015 -198.000000
v -80.000000 -2.000016 -214.000000
v -160.000000 -2.000016 -214.000000
v -120.296875 -2.000015 -198.000000
v 0.000000 -2.000015 -198.000000
v 0.000000 -2.000016 -214.000000
v -48.000000 -2.000016 -214.000000
v -64.000000 -2.000015 -198.000000
v -224.000000 -2.000002 -32.000000
v -176.000000 -2.000002 -32.000000
v -176.000000 -2.000011 -144.000000
v -224.000000 -2.000015 -198.000000
v -80.000000 -2.000011 -144.000000
v -100.000000 -2.000010 -140.000000
v -84.000000 -2.000009 -124.000000
v -160.000000 -2.000011 -144.000000
v -140.000000 -2.000010 -140.000000
v -120.000000 -2.000011 -144.000000
v -120.000000 -2.000005 -64.000000
v -80.000000 -2.000005 -64.000000
v -100.000000 -2.000005 -68.000000
v -160.000000 -2.000005 -64.000000
v -156.000000 -2.000006 -84.000000
v -160.000000 -2.000008 -104.000000
v -84.000000 -2.000006 -84.000000
v -80.000000 -2.000008 -104.000000
v -120.000000 -2.000008 -104.000000
v -64.000000 -2.000015 -198.000000
v -48.000000 -2.000016 -214.000000
v -80.000000 -2.000016 -214.000000
vn -0.0000 -0.0000 1.0000
vn -0.0000 1.0000 -0.0000
vn -1.0000 -0.0000 -0.0000
vn 1.0000 -0.0000 -0.0000
vt 13.000000 16.000000
vt 14.000000 16.000000
vt 14.000000 17.000000
vt 13.000000 17.000000
vt 9.000000 16.000000
vt 10.000000 16.000000
vt 10.000000 17.000000
vt 9.000000 17.000000
vt 0.000000 0.000000
vt 1.000000 0.000000
vt 1.000000 1.000000
vt 0.000000 1.000000
vt 23.187500 17.000000
vt 23.187500 16.000000
vt 22.687500 16.000000
vt 22.687500 17.000000
vt 17.500000 16.000000
vt 17.500000 17.000000
vt 14.750000 16.000000
vt 17.250000 16.000000
vt 17.250000 17.000000
vt 14.750000 17.000000
vt 7.750000 16.000000
vt 9.250000 16.000000
vt 9.250000 17.000000
vt 7.750000 17.000000
vt 13.750000 16.000000
vt 15.250000 16.000000
vt 15.250000 17.000000
vt 13.750000 17.000000
vt 11.000000 19.000000
vt 10.000000 21.000000
vt 7.500000 21.000000
vt 7.500000 19.000000
vt 5.000000 21.000000
vt 4.000000 19.000000
vt 5.000000 23.500000
vt 4.000000 26.000000
vt 15.000000 19.000000
vt 15.000000 29.375002
vt 11.000000 26.000000
vt 10.000000 23.500000
vt 10.000000 26.000000
vt 11.000000 29.375002
vt 7.480469 29.375002
vt 7.500000 26.000000
vt 4.000000 29.375002
vt 5.000000 26.000000
vt 3.000000 30.375002
vt 0.000000 30.375002
vt 1.000000 29.375002
vt 0.000000 19.000000
vt 1.000000 19.000000
vt 9.750000 24.750000
vt 7.500000 23.500000
vt 8.750000 25.750000
vt 5.250000 24.750000
vt 6.250000 25.750000
vt 5.250000 22.250000
vt 6.250000 21.250000
vt 8.750000 21.250000
vt 9.750000 22.250000
vt 5.000000 30.375002
vt 10.000000 30.375002
vt 15.000000 30.375002
vt 12.000000 30.375002
s 1
usemtl m_dun26_25_lm3
f 1/1/1 2/2/1 3/3/1 4/4/1
f 5/5/1 6/6/1 7/7/1 8/8/1
usemtl m_dun26_28_lm1
f 9/9/2 10/10/2 11/11/2 12/12/2
f 13/9/2 14/10/2 15/11/2 16/12/2
usemtl m_dun26_29_lm1
f 17/9/2 18/10/2 19/11/2 20/12/2
f 21/9/2 22/10/2 23/11/2 24/12/2
usemtl m_dun26_27_lm3
f 25/13/3 26/14/3 28/15/3 27/16/3
f 27/16/3 28/15/3 30/17/3 29/18/3
f 31/19/1 32/20/1 33/21/1 34/22/1
f 35/23/1 36/24/1 37/25/1 38/26/1
f 39/13/4 40/18/4 41/17/4 42/14/4
f 43/27/1 44/28/1 45/29/1 46/30/1
usemtl m_dun26_26_lm3
f 47/31/2 48/32/2 50/33/2 49/34/2
f 49/34/2 50/33/2 52/35/2 51/36/2
f 51/36/2 52/35/2 54/37/2 53/38/2
f 55/39/2 56/40/2 58/41/2 57/31/2
f 57/31/2 58/41/2 60/42/2 59/32/2
f 61/43/2 62/44/2 64/45/2 63/46/2
f 63/46/2 64/45/2 66/47/2 65/48/2
f 67/47/2 68/49/2 70/50/2 69/51/2
f 69/51/2 70/50/2 72/52/2 71/53/2
f 73/40/2 74/44/2 75/41/2
f 74/44/2 76/43/2 75/41/2
f 75/41/2 76/43/2 77/42/2
f 76/43/2 78/54/2 77/42/2
f 77/42/2 78/54/2 79/55/2
f 78/54/2 80/56/2 79/55/2
f 79/55/2 80/56/2 81/46/2
f 80/56/2 82/43/2 81/46/2
f 83/38/2 84/37/2 85/48/2
f 84/37/2 86/57/2 85/48/2
f 85/48/2 86/57/2 87/58/2
f 86/57/2 88/55/2 87/58/2
f 87/58/2 88/55/2 89/46/2
f 90/57/2 91/37/2 92/55/2
f 91/37/2 93/59/2 92/55/2
f 92/55/2 93/59/2 94/60/2
f 93/59/2 95/35/2 94/60/2
f 94/60/2 95/35/2 96/33/2
f 97/60/2 98/33/2 99/55/2
f 98/33/2 100/61/2 99/55/2
f 99/55/2 100/61/2 101/62/2
f 100/61/2 102/32/2 101/62/2
f 101/62/2 102/32/2 103/42/2
f 104/49/2 105/47/2 106/63/2
f 105/47/2 107/45/2 106/63/2
f 108/51/2 109/38/2 110/47/2
f 109/38/2 111/48/2 110/47/2
f 112/44/2 113/64/2 114/63/2 115/45/2
f 116/40/2 117/65/2 118/66/2 119/44/2
f 120/53/2 121/36/2 122/38/2 123/51/2
f 124/43/2 125/56/2 126/54/2
f 127/48/2 128/58/2 129/46/2
f 130/33/2 131/32/2 132/61/2
f 133/35/2 134/59/2 135/37/2
f 136/62/2 137/42/2 138/55/2
f 139/44/2 140/66/2 141/64/2
